<svg width="16" height="14" viewBox="0 0 16 14" fill="none" xmlns="http://www.w3.org/2000/svg">
<path d="M5.31028 2.01318C3.64314 2.01318 2.289 3.36732 2.289 5.03446H15.3823C15.3823 3.36732 14.0282 2.01318 12.361 2.01318H5.31028ZM2.289 10.0688V6.03936H15.3823V10.0688C15.3823 11.736 14.0282 13.0901 12.361 13.0901H5.31028C3.64314 13.0901 2.289 11.736 2.289 10.0688ZM4.80618 10.0688C4.52942 10.0688 4.30209 10.2929 4.30209 10.5729C4.30209 10.853 4.52613 11.077 4.80618 11.077H6.81927C7.09603 11.077 7.32336 10.853 7.32336 10.5729C7.32336 10.2929 7.09932 10.0688 6.81927 10.0688H4.80618Z" fill="#1E9FFF"/>
<path fill-rule="evenodd" clip-rule="evenodd" d="M0.275878 3.02128C0.275878 1.35414 1.63002 0 3.29715 0H10.3479C11.3726 0 12.2753 0.50739 12.8222 1.28824C12.6707 1.26848 12.5191 1.26189 12.361 1.26189H5.31024C3.22467 1.26189 1.53447 2.95209 1.53447 5.03766V10.072C1.53447 10.2269 1.54435 10.3817 1.56083 10.5333C0.783268 9.98636 0.272583 9.0836 0.272583 8.05893V3.02457L0.275878 3.02128Z" fill="#0092FF"/>
</svg>
