<svg width="557" height="525" viewBox="0 0 557 525" fill="none" xmlns="http://www.w3.org/2000/svg">
<g clip-path="url(#clip0_206_942)">
<path d="M646 475.826H-81V476.189H646V475.826Z" fill="#EBEBEB"/>
<path d="M400.594 503.16H387.958V503.523H400.594V503.16Z" fill="#EBEBEB"/>
<path d="M170.862 485.097H137.158V485.46H170.862V485.097Z" fill="#EBEBEB"/>
<path d="M586.051 492.886H503.653V493.249H586.051V492.886Z" fill="#EBEBEB"/>
<path d="M63.5132 492.886H-18.885V493.249H63.5132V492.886Z" fill="#EBEBEB"/>
<path d="M263.613 411.017H-17.1403C-21.7204 411.017 -25.4426 407.297 -25.4426 402.719V8.29735C-25.4426 3.72 -21.7204 0 -17.1403 0H263.627C268.207 0 271.929 3.72 271.929 8.29735V402.719C271.929 407.297 268.207 411.017 263.627 411.017H263.613ZM-17.1403 0.363282C-21.5168 0.363282 -25.0791 3.92344 -25.0791 8.29735V402.719C-25.0791 407.093 -21.5168 410.654 -17.1403 410.654H263.627C268.004 410.654 271.566 407.093 271.566 402.719V8.29735C271.566 3.92344 268.004 0.363282 263.627 0.363282H-17.1403Z" fill="#EBEBEB"/>
<path d="M578.113 411.017H297.345C292.765 411.017 289.043 407.297 289.043 402.719V8.29735C289.043 3.72 292.765 0 297.345 0H578.113C582.693 0 586.415 3.72 586.415 8.29735V402.719C586.415 407.297 582.693 411.017 578.113 411.017ZM297.345 0.363282C292.969 0.363282 289.406 3.92344 289.406 8.29735V402.719C289.406 407.093 292.969 410.654 297.345 410.654H578.113C582.489 410.654 586.052 407.093 586.052 402.719V8.29735C586.052 3.92344 582.489 0.363282 578.113 0.363282H297.345Z" fill="#EBEBEB"/>
<path d="M232.758 36.488H36.8901V208.335H232.758V36.488Z" fill="#E6E6E6"/>
<path d="M253.754 29.8036H24.2113C23.1353 29.8036 22.2629 30.6755 22.2629 31.7508C22.2629 32.8261 23.1353 33.698 24.2113 33.698H253.754C254.83 33.698 255.703 32.8261 255.703 31.7508C255.703 30.6755 254.83 29.8036 253.754 29.8036Z" fill="#F5F5F5"/>
<path d="M241.075 36.488H40.7725V208.335H241.075V36.488Z" fill="#EBEBEB"/>
<path d="M229.443 196.71V48.113L52.4189 48.113V196.71H229.443Z" fill="#FAFAFA"/>
<path d="M116.555 196.71L136.94 48.113H169.175L148.79 196.71H116.555Z" fill="white"/>
<path d="M155.726 196.71L176.096 48.113H188.673L168.288 196.71H155.726Z" fill="white"/>
<path d="M229.443 196.71V48.113H227.96V196.71H229.443Z" fill="#E6E6E6"/>
<g opacity="0.4">
<path d="M52.5497 26.3161H32.5281V305.215H52.5497V26.3161Z" fill="#F0F0F0"/>
<path d="M60.3575 26.3161H44.7561V305.215H60.3575V26.3161Z" fill="#E6E6E6"/>
<path d="M72.5711 26.3161H52.5496V305.215H72.5711V26.3161Z" fill="#F0F0F0"/>
<path d="M80.3792 26.3161H64.7778V305.215H80.3792V26.3161Z" fill="#E6E6E6"/>
<path d="M92.5929 26.3161H72.5713V305.215H92.5929V26.3161Z" fill="#F0F0F0"/>
</g>
<g opacity="0.4">
<path d="M221.999 26.3161H210.454V305.215H221.999V26.3161Z" fill="#F0F0F0"/>
<path d="M226.477 26.3161H217.491V305.215H226.477V26.3161Z" fill="#E6E6E6"/>
<path d="M233.529 26.3161H221.984V305.215H233.529V26.3161Z" fill="#F0F0F0"/>
<path d="M238.022 26.3161H229.036V305.215H238.022V26.3161Z" fill="#E6E6E6"/>
<path d="M245.074 26.3161H233.529V305.215H245.074V26.3161Z" fill="#F0F0F0"/>
</g>
<path d="M557.262 475.826V147.972H452.08V475.826H557.262Z" fill="#F0F0F0"/>
<path d="M551.49 252.699V156.182H457.852V252.699H551.49Z" fill="#E6E6E6"/>
<path d="M551.49 357.876V261.359H457.852V357.876H551.49Z" fill="#E6E6E6"/>
<path d="M551.49 463.053V366.537H457.852V463.053H551.49Z" fill="#E6E6E6"/>
<path d="M551.49 252.713V156.197H514.66V252.713H551.49Z" fill="#E0E0E0"/>
<path d="M551.49 357.876V261.359H514.66V357.876H551.49Z" fill="#E0E0E0"/>
<path d="M537.444 214.147H511.927V252.699H537.444V214.147Z" fill="#F0F0F0"/>
<path d="M501.167 252.699H511.941V214.147H501.167V252.699Z" fill="#E0E0E0"/>
<path d="M506.547 224.174H473.774V252.699H506.547V224.174Z" fill="#F0F0F0"/>
<path d="M459.932 252.699H473.774V224.174H459.932V252.699Z" fill="#E0E0E0"/>
<path d="M551.49 463.053V366.537H514.66V463.053H551.49Z" fill="#E0E0E0"/>
<path d="M452.08 475.826V147.972H423.524V475.826H452.08Z" fill="#F5F5F5"/>
<path d="M541.007 406.454H471.447V463.039H541.007V406.454Z" fill="#F0F0F0"/>
<path d="M457.852 463.039H471.447V406.454H457.852V463.039Z" fill="#E0E0E0"/>
<path d="M528.808 312.974H466.998V357.876H528.808V312.974Z" fill="#FAFAFA"/>
<path d="M457.852 357.876H466.998V312.974H457.852V357.876Z" fill="#F0F0F0"/>
<path d="M446.598 475.812V147.957H341.416V475.812H446.598Z" fill="#F0F0F0"/>
<path d="M440.812 252.699V156.182H347.174V252.699H440.812Z" fill="#E6E6E6"/>
<path d="M440.812 357.876V261.359H347.174V357.876H440.812Z" fill="#E6E6E6"/>
<path d="M440.826 463.039V366.522H347.188V463.039H440.826Z" fill="#E6E6E6"/>
<path d="M440.812 252.713V156.197H403.982V252.713H440.812Z" fill="#E0E0E0"/>
<path d="M440.826 357.876V261.359H403.996V357.876H440.826Z" fill="#E0E0E0"/>
<path d="M387.493 329.86H361.976V357.876H387.493V329.86Z" fill="#F0F0F0"/>
<path d="M351.201 357.861H361.976V329.845H351.201V357.861Z" fill="#E0E0E0"/>
<path d="M410.568 301.829H385.051V329.845H410.568V301.829Z" fill="#F0F0F0"/>
<path d="M374.276 329.86H385.051V301.843H374.276V329.86Z" fill="#E0E0E0"/>
<path d="M428.714 329.86H403.197V357.876H428.714V329.86Z" fill="#F0F0F0"/>
<path d="M392.422 357.861H403.197V329.845H392.422V357.861Z" fill="#E0E0E0"/>
<path d="M440.812 463.053V366.537H403.982V463.053H440.812Z" fill="#E0E0E0"/>
<path d="M341.402 475.826V147.972H312.845V475.826H341.402Z" fill="#F5F5F5"/>
<path d="M415.963 386.43H358.428V463.053H415.963V386.43Z" fill="#F0F0F0"/>
<path d="M347.174 463.039H358.428V386.415H347.174V463.039Z" fill="#E0E0E0"/>
<path d="M434.458 191.885H358.428V252.699H434.458V191.885Z" fill="#FAFAFA"/>
<path d="M347.174 252.699H358.428V191.885H347.174V252.699Z" fill="#F0F0F0"/>
<path d="M419.156 112.402C421.002 105.112 416.585 97.7069 409.291 95.8623C401.996 94.0176 394.587 98.4319 392.741 105.722C390.895 113.012 395.312 120.417 402.607 122.262C409.901 124.106 417.311 119.692 419.156 112.402Z" fill="#F5F5F5"/>
<path d="M440.594 106.645C441.204 114.143 435.635 120.711 428.133 121.336C420.63 121.946 414.058 116.381 413.433 108.883C412.822 101.385 418.391 94.8165 425.894 94.1916C433.396 93.5813 439.968 99.1468 440.594 106.645Z" fill="#E0E0E0"/>
<path d="M442.967 113.986C450.486 113.702 456.351 107.379 456.066 99.8647C455.781 92.3503 449.455 86.4895 441.936 86.7742C434.417 87.0589 428.552 93.3814 428.837 100.896C429.122 108.41 435.449 114.271 442.967 113.986Z" fill="#F5F5F5"/>
<path d="M461.965 125.321C469.484 125.036 475.349 118.713 475.064 111.199C474.779 103.685 468.452 97.8237 460.934 98.1084C453.415 98.3932 447.55 104.716 447.835 112.23C448.12 119.744 454.446 125.605 461.965 125.321Z" fill="#E0E0E0"/>
<path d="M486.259 120.791C492.758 117.002 494.953 108.664 491.161 102.169C487.37 95.6738 479.027 93.4803 472.528 97.2697C466.029 101.059 463.834 109.397 467.626 115.892C471.418 122.387 479.76 124.58 486.259 120.791Z" fill="#E0E0E0"/>
<path d="M500.774 110.147C500.774 110.147 499.19 147.972 438.383 147.972C377.577 147.972 375.992 110.147 375.992 110.147H500.774Z" fill="#F0F0F0"/>
<path d="M24.5458 320.705H7.73755V466.41H24.5458V320.705Z" fill="#F0F0F0"/>
<path d="M271.551 466.41H14.1934V475.637H271.551V466.41Z" fill="#F0F0F0"/>
<path d="M24.5314 466.41L277.993 466.41V320.705H24.5314L24.5314 466.41Z" fill="#F5F5F5"/>
<path d="M254.423 386.43H48.1151C42.4009 386.43 37.7626 381.794 37.7626 376.084V348.997C37.7626 343.287 42.4009 338.651 48.1151 338.651H254.423C260.137 338.651 264.776 343.287 264.776 348.997V376.084C264.776 381.794 260.137 386.43 254.423 386.43Z" fill="#F0F0F0"/>
<path d="M254.423 448.478H48.1151C42.4009 448.478 37.7626 443.843 37.7626 438.132V411.046C37.7626 405.335 42.4009 400.7 48.1151 400.7H254.423C260.137 400.7 264.776 405.335 264.776 411.046V438.132C264.776 443.843 260.137 448.478 254.423 448.478Z" fill="#F0F0F0"/>
<path d="M218.786 365.81H83.7671C81.9641 365.81 80.4956 364.342 80.4956 362.54C80.4956 360.739 81.9641 359.271 83.7671 359.271H218.786C220.589 359.271 222.057 360.739 222.057 362.54C222.057 364.342 220.589 365.81 218.786 365.81Z" fill="#F5F5F5"/>
<path d="M218.786 427.858H83.7671C81.9641 427.858 80.4956 426.391 80.4956 424.589C80.4956 422.787 81.9641 421.319 83.7671 421.319H218.786C220.589 421.319 222.057 422.787 222.057 424.589C222.057 426.391 220.589 427.858 218.786 427.858Z" fill="#F5F5F5"/>
<path d="M160.349 320.705H184.937V262.74H160.349V320.705Z" fill="#E0E0E0"/>
<path d="M200.102 262.74H184.937V320.705H200.102V262.74Z" fill="#EBEBEB"/>
<path d="M132.113 255.169H160.349L170.542 320.705H142.291L132.113 255.169Z" fill="#E6E6E6"/>
<path d="M172.563 255.169H160.35L170.542 320.705H182.756L172.563 255.169Z" fill="#F0F0F0"/>
<path d="M119.201 320.705H146.507V260.836H119.201V320.705Z" fill="#EBEBEB"/>
<path d="M160.349 260.836H146.507V320.705H160.349V260.836Z" fill="#F5F5F5"/>
<path d="M109.823 320.705H129.583V270.528H109.823V320.705Z" fill="#E0E0E0"/>
<path d="M143.425 270.528H129.583V320.705H143.425V270.528Z" fill="#E6E6E6"/>
<path d="M408.722 437.304H263.962C257.215 437.304 252.242 431.782 252.911 425.039L283.198 123.429C283.881 116.686 289.959 111.164 296.706 111.164H441.466C448.212 111.164 453.185 116.686 452.516 123.429L422.229 425.039C421.546 431.782 415.468 437.304 408.722 437.304Z" fill="#263238"/>
<path d="M373.055 440.937H340.122V442.39H373.055V440.937Z" fill="#407BFF"/>
<path d="M394.385 440.937H383.887V442.39H394.385V440.937Z" fill="#407BFF"/>
<path d="M405.043 437.304H260.283C253.536 437.304 248.564 431.782 249.232 425.039L279.519 123.429C280.203 116.686 286.28 111.164 293.027 111.164H437.787C444.534 111.164 449.506 116.686 448.838 123.429L418.551 425.039C417.867 431.782 411.79 437.304 405.043 437.304Z" fill="#407BFF"/>
<g opacity="0.4">
<path opacity="0.2" d="M401.117 431.811H265.299C258.858 431.811 254.118 426.551 254.772 420.113L284.085 128.34C284.724 121.903 290.526 116.642 296.967 116.642H432.785C439.226 116.642 443.967 121.903 443.312 128.34L414 420.113C413.36 426.551 407.558 431.811 401.117 431.811Z" fill="white"/>
<mask id="mask0_206_942" style="mask-type:luminance" maskUnits="userSpaceOnUse" x="254" y="116" width="190" height="316">
<path d="M401.117 431.811H265.299C258.858 431.811 254.118 426.551 254.772 420.113L284.085 128.34C284.724 121.903 290.526 116.642 296.967 116.642H432.785C439.226 116.642 443.967 121.903 443.312 128.34L414 420.113C413.36 426.551 407.558 431.811 401.117 431.811Z" fill="white"/>
</mask>
<g mask="url(#mask0_206_942)">
<path d="M191.29 342.313L185.344 339.363L337.766 74.0949L343.713 77.0593L191.29 342.313Z" fill="white"/>
<path d="M219.105 351.41L213.435 347.995L383.756 92.5497L389.441 95.95L219.105 351.41Z" fill="white"/>
<path d="M238.036 407.965L232.279 404.681L432.553 92.041L438.31 95.3251L238.036 407.965Z" fill="white"/>
<path d="M329.42 459.333L322.528 459.115L354.822 215.513L362.135 212.462L329.42 459.333Z" fill="white"/>
<path d="M300.515 504.845L294.771 501.561L495.045 188.921L500.803 192.205L300.515 504.845Z" fill="white"/>
<path d="M254.874 117.863L259.105 111.992L542.897 298.545L538.68 304.43L254.874 117.863Z" fill="white"/>
<path d="M264.02 82.0726L265.226 80.2417L557.248 254.907L556.041 256.738L264.02 82.0726Z" fill="white"/>
<path d="M307.683 213.421L309.413 210.805L345.792 232.573L344.062 235.174L307.683 213.421Z" fill="white"/>
<path d="M351.056 285.786L352.801 283.185L415.614 320.749L413.869 323.364L351.056 285.786Z" fill="white"/>
<path d="M245.219 386.532L246.95 383.931L330.627 433.976L328.897 436.592L245.219 386.532Z" fill="white"/>
<path d="M283.866 175.639L286.455 173.867L309.079 209.555L306.491 211.328L283.866 175.639Z" fill="white"/>
<path d="M300.544 36.5607L301.94 34.8605L568.313 243.994L566.917 245.695L300.544 36.5607Z" fill="white"/>
</g>
</g>
<path d="M366.294 363.064C364.84 377.508 351.943 389.22 337.49 389.22C323.037 389.22 312.496 377.508 313.95 363.064C316.596 336.733 344.237 322.056 344.237 322.056C344.237 322.056 368.94 336.733 366.294 363.064Z" fill="white"/>
<path opacity="0.4" d="M348.366 363.064C347.915 367.612 343.844 371.303 339.293 371.303C334.742 371.303 331.427 367.612 331.878 363.064C332.328 358.515 336.4 354.824 340.951 354.824C345.502 354.824 348.817 358.515 348.366 363.064Z" fill="#407BFF"/>
<path d="M345.225 313.788C345.225 313.788 345.196 313.788 345.182 313.788C344.382 313.759 343.815 313.091 343.917 312.291L356.087 217.431C356.392 215.077 357.265 212.723 358.602 210.66L391.172 160.469C391.623 159.771 391.463 158.885 390.808 158.492L357.468 138.265C356.814 137.873 356.654 136.972 357.119 136.289C357.584 135.591 358.5 135.344 359.155 135.751L392.495 155.964C394.443 157.127 394.938 159.786 393.585 161.864L361.016 212.055C359.94 213.726 359.227 215.615 358.995 217.518L346.825 312.379C346.723 313.163 346.011 313.788 345.225 313.788Z" fill="white"/>
<path d="M340.849 100.92C342.012 89.2801 352.408 79.8493 364.055 79.8493C375.701 79.8493 384.193 89.2801 383.015 100.92C380.878 122.135 358.617 133.949 358.617 133.949C358.617 133.949 338.726 122.121 340.849 100.92Z" fill="#407BFF"/>
<path opacity="0.3" d="M340.849 100.92C342.012 89.2801 352.408 79.8493 364.055 79.8493C375.701 79.8493 384.193 89.2801 383.015 100.92C380.878 122.135 358.617 133.949 358.617 133.949C358.617 133.949 338.726 122.121 340.849 100.92Z" fill="black"/>
<path d="M370.654 110.088C376.246 104.774 376.881 96.3683 372.072 91.3145C367.263 86.2608 358.832 86.4723 353.24 91.787C347.647 97.1017 347.012 105.507 351.821 110.561C356.63 115.615 365.062 115.403 370.654 110.088Z" fill="#407BFF"/>
<path d="M170.891 182.585C170.44 183.806 169.917 185.346 169.451 186.756C168.972 188.209 168.506 189.677 168.07 191.159C167.154 194.109 166.296 197.088 165.511 200.095C164.726 203.103 163.999 206.126 163.301 209.178L162.312 213.755L161.847 216.051L161.745 216.588L161.687 216.894C161.629 217.068 161.643 217.402 161.6 217.649C161.469 219.989 161.818 223.069 162.298 226.034C162.763 229.042 163.403 232.093 164.072 235.159C165.453 241.277 166.965 247.496 168.535 253.629L162.763 255.808C159.884 249.894 157.354 243.936 155.173 237.717C154.068 234.607 153.079 231.454 152.207 228.184C151.785 226.542 151.407 224.871 151.087 223.128C150.782 221.369 150.506 219.582 150.477 217.504C150.477 216.952 150.462 216.472 150.52 215.862L150.593 214.975L150.666 214.322L150.971 211.866C151.16 210.224 151.436 208.596 151.684 206.969C152.236 203.714 152.803 200.459 153.559 197.233C154.301 194.007 155.086 190.781 156.016 187.584C156.496 185.986 156.991 184.402 157.529 182.803C158.067 181.176 158.605 179.694 159.332 177.921L170.876 182.6L170.891 182.585Z" fill="white"/>
<path d="M162.501 254.878L160.466 263.495L165.875 269.86C165.875 269.86 173.043 249.051 165.482 250.054L162.516 254.878H162.501Z" fill="white"/>
<path d="M191.451 513.288C190.331 513.288 189.095 513.055 188.237 512.852C188.121 512.823 188.034 512.736 188.019 512.619C188.005 512.503 188.048 512.387 188.135 512.329C188.557 512.053 192.221 509.669 193.646 510.309C193.864 510.411 194.155 510.629 194.228 511.123C194.329 511.762 194.17 512.285 193.762 512.648C193.254 513.128 192.381 513.288 191.451 513.288ZM189.037 512.445C191.16 512.866 192.759 512.794 193.37 512.227C193.632 511.994 193.719 511.646 193.661 511.195C193.617 510.948 193.515 510.876 193.413 510.832C192.657 510.498 190.535 511.53 189.037 512.43V512.445Z" fill="#407BFF"/>
<path d="M188.31 512.852C188.31 512.852 188.208 512.852 188.164 512.808C188.077 512.75 188.019 512.663 188.019 512.561C188.019 512.416 188.005 508.914 189.313 507.737C189.662 507.432 190.069 507.301 190.534 507.345C191.261 507.432 191.465 507.882 191.509 508.144C191.799 509.51 189.604 512.14 188.455 512.794C188.412 512.823 188.368 512.837 188.31 512.837V512.852ZM190.331 507.911C190.098 507.911 189.88 507.998 189.691 508.158C188.906 508.856 188.659 510.832 188.601 511.995C189.749 511.065 191.116 509.103 190.942 508.26C190.913 508.129 190.825 507.955 190.462 507.911C190.418 507.911 190.375 507.911 190.331 507.911Z" fill="#407BFF"/>
<path d="M191.625 158.681C192.715 158.623 190.883 155.267 190.36 155.005C189.153 154.395 176.213 156.226 176.823 158.231C177.114 159.088 177.87 160.716 178.583 161.166C179.295 161.617 182.072 159.088 191.625 158.696V158.681Z" fill="#263238"/>
<path d="M182.857 166.601C182.494 167.633 179.775 164.959 179.659 164.378C179.397 163.055 184.689 151.096 186.449 152.244C187.205 152.753 188.557 153.93 188.79 154.729C189.022 155.528 185.838 157.519 182.857 166.601Z" fill="#263238"/>
<path d="M185.664 135.301C187.147 142.523 190.287 157.156 185.271 161.965C185.271 161.965 187.321 169.289 200.742 169.289C215.514 169.289 207.721 161.965 207.721 161.965C199.637 160.047 199.796 154.06 201.134 148.451L185.649 135.286L185.664 135.301Z" fill="white"/>
<path d="M181.825 164.857C179.717 164.93 182.625 158.173 183.57 157.563C185.765 156.153 210.934 157.272 210.12 161.239C209.727 162.939 208.564 166.194 207.299 167.182C206.02 168.17 200.233 163.84 181.825 164.857Z" fill="#263238"/>
<path d="M214.845 119.825C215.02 119.825 215.194 119.738 215.311 119.592C216.794 117.514 218.931 117.587 218.946 117.587C219.265 117.602 219.527 117.354 219.542 117.035C219.542 116.715 219.309 116.454 218.989 116.424C218.873 116.424 216.212 116.323 214.365 118.909C214.176 119.171 214.249 119.534 214.496 119.709C214.598 119.781 214.714 119.825 214.831 119.825H214.845Z" fill="#263238"/>
<path d="M218.131 126.756C218.131 126.756 219.673 131.043 221.446 133.15C220.109 134.312 217.928 133.673 217.928 133.673L218.131 126.756Z" fill="#FF5652"/>
<path d="M217.302 125.042C217.273 126.03 217.768 126.843 218.408 126.858C219.047 126.872 219.6 126.102 219.629 125.129C219.658 124.141 219.164 123.327 218.524 123.312C217.884 123.283 217.332 124.068 217.302 125.042Z" fill="#263238"/>
<path d="M218.233 123.356L220.618 122.775C220.618 122.775 219.353 124.562 218.233 123.356Z" fill="#263238"/>
<path d="M174.133 512.561H186.318L185.082 484.385H172.912L174.133 512.561Z" fill="white"/>
<path d="M187.263 511.152H173.581C173.086 511.152 172.679 511.5 172.621 511.98L171.167 522.806C171.022 523.925 171.996 524.985 173.144 524.971C177.914 524.884 180.211 524.608 186.23 524.608C189.938 524.608 195.347 524.985 200.451 524.985C205.554 524.985 205.787 519.929 203.649 519.478C194.082 517.429 192.555 514.596 189.313 511.893C188.731 511.413 188.004 511.152 187.263 511.152Z" fill="#263238"/>
<g opacity="0.2">
<path d="M172.897 484.385H185.082L185.722 498.916H173.537L172.897 484.385Z" fill="black"/>
</g>
<path d="M235.172 176.991C237.76 182.934 240.538 189.023 243.373 194.922C246.281 200.778 249.276 206.649 252.664 211.851C253.086 212.505 253.507 213.159 253.943 213.755L255.092 215.339C255.427 215.746 255.47 215.847 256.023 216.036C257.171 216.4 260.007 215.702 262.566 214.423C267.873 211.88 273.223 207.753 278.138 203.67L282.718 207.797C281.628 209.279 280.552 210.602 279.388 211.938C278.24 213.261 277.062 214.583 275.783 215.818C273.238 218.289 270.563 220.715 267.349 222.793C265.735 223.825 264.005 224.799 261.984 225.569C259.963 226.31 257.622 226.92 254.801 226.717C253.405 226.601 251.908 226.237 250.527 225.583C249.131 224.929 247.895 223.999 246.906 222.982C246.688 222.75 246.368 222.416 246.237 222.256L245.787 221.718L244.9 220.628C244.289 219.902 243.751 219.175 243.213 218.448C238.895 212.607 235.521 206.576 232.322 200.459C229.138 194.327 226.259 188.18 223.642 181.728L235.158 176.991H235.172Z" fill="white"/>
<path d="M278.254 203.321L283.998 200.56L287.415 209.643C287.415 209.643 278.894 212.621 274.837 209.294L275.041 207.739C275.303 205.821 276.51 204.164 278.254 203.321Z" fill="white"/>
<path d="M292.474 200.43L293.507 207.129L287.414 209.643L283.998 200.56L292.474 200.43Z" fill="white"/>
<path d="M184.384 120.377C184.777 132.452 184.675 137.567 190.578 143.99C199.462 153.654 214.22 150.689 217.448 138.774C220.356 128.049 219.236 110.103 207.575 104.843C196.089 99.6699 183.991 108.302 184.369 120.377H184.384Z" fill="white"/>
<path d="M181.069 106.035C186.158 96.8363 208.433 96.3277 215.98 106.63C223.526 116.919 212.693 116.642 209.771 126.756C210.134 136.056 213.915 140.052 219.426 145.356C210.949 155.412 176.242 156.996 170.789 145.371C165.337 133.746 164.959 104.582 181.069 106.035Z" fill="#263238"/>
<path d="M181.476 107.095C181.476 107.095 182.29 103.332 177.594 103.695C179.702 104.858 181.476 107.095 181.476 107.095Z" fill="#263238"/>
<path d="M207.619 125.972C207.793 128.311 209 130.549 210.454 132.031C212.621 134.254 214.845 132.961 215.18 130.331C215.5 127.962 214.743 123.952 212.112 122.687C209.524 121.438 207.415 123.283 207.619 125.972Z" fill="white"/>
<path d="M210.178 238.56C210.178 238.56 203.926 322.1 197.063 369.181C191.509 407.21 187.714 496.097 187.714 496.097H171.109C171.109 496.097 162.356 410.247 164.988 372.64C171.661 277.46 158.154 260.618 173.77 238.56H210.178Z" fill="#263238"/>
<path opacity="0.2" d="M191.319 288.024C190.985 307.976 198.299 326.372 201.628 332.461C203.417 316.157 205.031 299.141 206.383 284.13C201.105 267.128 191.625 269.206 191.305 288.024H191.319Z" fill="black"/>
<path d="M189.997 496.432H168.841L167.663 489.021L190.04 488.25L189.997 496.432Z" fill="#407BFF"/>
<path d="M192.73 490.895C192.672 490.808 192.657 490.706 192.701 490.605C192.745 490.488 192.861 490.43 192.992 490.43C193.602 490.474 199.04 490.953 199.884 492.435C200.044 492.726 200.058 493.031 199.898 493.351C199.636 493.86 199.244 494.179 198.72 494.266C196.976 494.572 194.242 492.305 192.774 490.924C192.774 490.924 192.745 490.895 192.73 490.881V490.895ZM199.346 492.682C198.779 491.898 195.958 491.346 193.806 491.099C195.871 492.915 197.644 493.874 198.619 493.7C198.953 493.642 199.215 493.438 199.389 493.089C199.462 492.959 199.462 492.842 199.389 492.726C199.389 492.712 199.36 492.683 199.346 492.668V492.682Z" fill="#407BFF"/>
<path d="M192.73 490.895C192.73 490.895 192.701 490.866 192.701 490.837C192.657 490.75 192.672 490.634 192.73 490.546C192.817 490.43 194.766 487.815 196.743 487.538C197.354 487.451 197.892 487.597 198.371 487.96C199.011 488.454 198.997 488.919 198.866 489.224C198.342 490.517 194.518 491.215 192.934 490.997C192.846 490.997 192.788 490.939 192.73 490.881V490.895ZM198.255 488.672C198.255 488.672 198.124 488.512 198.008 488.425C197.659 488.149 197.266 488.047 196.816 488.12C195.522 488.294 194.155 489.747 193.53 490.474C195.26 490.503 198.008 489.791 198.313 489.006C198.328 488.962 198.386 488.846 198.255 488.672Z" fill="#407BFF"/>
<path d="M180.197 485.896L191.421 490.735L196.191 480.36L202.399 466.773L203.126 465.204L191.901 460.35L191.087 462.138L185.053 475.289L180.197 485.896Z" fill="white"/>
<path opacity="0.2" d="M185.053 475.289L196.19 480.36L202.399 466.773L191.087 462.138L185.053 475.289Z" fill="black"/>
<path d="M223.249 238.56C223.249 238.56 242.282 321.591 242.704 364.313C243.082 402.937 200.902 476.364 200.902 476.364L185.664 469.462C185.664 469.462 212.999 381.053 210.28 368.673C202.385 332.751 189.037 255.329 189.022 238.56H223.264H223.249Z" fill="#263238"/>
<path d="M193.021 489.108L181.36 481.842C180.938 481.581 180.415 481.653 180.095 482.031L173.101 490.372C172.374 491.244 172.65 492.653 173.639 493.249C177.754 495.705 179.862 496.693 184.98 499.89C188.135 501.852 194.46 506.24 198.822 508.957C203.083 511.617 206.049 507.533 204.478 506.022C197.412 499.222 195.696 494.833 194.359 490.837C194.126 490.11 193.632 489.515 193.021 489.122V489.108Z" fill="#263238"/>
<path d="M202.006 479.488L182.377 471.423L184.457 463.504L205.482 472.106L202.006 479.488Z" fill="#407BFF"/>
<path d="M179.31 178.386C179.557 171.382 175.006 162.518 164.275 164.755C159.215 165.802 153.995 184.053 153.995 184.053L167.663 200.066C172.359 197.887 179.135 182.818 179.295 178.386H179.31Z" fill="#407BFF"/>
<path opacity="0.2" d="M169.931 180.26C169.931 180.26 170.062 189.618 167.619 199.994L167.692 200.066C170.484 198.773 174.002 192.917 176.431 187.468L169.931 180.26Z" fill="black"/>
<path d="M228.338 165.09C228.338 165.09 234.154 167.139 223.235 238.56H173.77C174.395 218.434 174.308 206.039 164.275 164.741C164.275 164.741 174.613 162.489 185.256 161.98C193.573 161.573 200.393 161.312 207.721 161.98C217.375 162.866 228.338 165.104 228.338 165.104V165.09Z" fill="#407BFF"/>
<path opacity="0.2" d="M228.004 189.546L220.356 190.519C220.836 196.317 224.573 203.249 227.582 206.925C228.208 201.607 228.673 196.971 229.022 192.932C228.484 190.839 228.004 189.546 228.004 189.546Z" fill="black"/>
<path d="M228.338 165.09C234.402 166.572 242.021 183.167 242.021 183.167L229.894 202.275C229.894 202.275 214.482 190.766 214.627 174.128C214.685 167.139 220.981 163.288 228.338 165.075V165.09Z" fill="#407BFF"/>
<path d="M173.014 235.654L170.833 240.086C170.658 240.434 171.08 240.783 171.647 240.783H223.526C223.977 240.783 224.34 240.565 224.369 240.289L224.776 235.857C224.805 235.552 224.413 235.29 223.933 235.29H173.843C173.479 235.29 173.145 235.436 173.043 235.668L173.014 235.654Z" fill="#407BFF"/>
<path opacity="0.2" d="M173.014 235.654L170.833 240.086C170.658 240.434 171.08 240.783 171.647 240.783H223.526C223.977 240.783 224.34 240.565 224.369 240.289L224.776 235.857C224.805 235.552 224.413 235.29 223.933 235.29H173.843C173.479 235.29 173.145 235.436 173.043 235.668L173.014 235.654Z" fill="white"/>
<path d="M179.789 241.248H178.452C178.19 241.248 177.986 241.117 178.001 240.943L178.568 235.188C178.583 235.014 178.815 234.883 179.077 234.883H180.415C180.676 234.883 180.88 235.014 180.865 235.188L180.298 240.943C180.284 241.117 180.051 241.248 179.789 241.248Z" fill="#263238"/>
<path d="M212.315 241.248H210.978C210.716 241.248 210.512 241.117 210.527 240.943L211.094 235.188C211.108 235.014 211.341 234.883 211.617 234.883H212.955C213.217 234.883 213.42 235.014 213.406 235.188L212.839 240.943C212.824 241.117 212.592 241.248 212.315 241.248Z" fill="#263238"/>
</g>
<defs>
<clipPath id="clip0_206_942">
<rect width="557" height="525" fill="white"/>
</clipPath>
</defs>
</svg>
