<svg width="1006" height="731" viewBox="0 0 1006 731" fill="none" xmlns="http://www.w3.org/2000/svg">
<g clip-path="url(#clip0_206_1122)">
<path d="M172.187 677.797H105.55V678.3H172.187V677.797Z" fill="#EBEBEB"/>
<path d="M361.818 672.346H344.334V672.849H361.818V672.346Z" fill="#EBEBEB"/>
<path d="M212.809 696.484H174.199V696.986H212.809V696.484Z" fill="#EBEBEB"/>
<path d="M905.199 693.104H818.301V693.607H905.199V693.104Z" fill="#EBEBEB"/>
<path d="M800.374 693.104H787.638V693.607H800.374V693.104Z" fill="#EBEBEB"/>
<path d="M746.231 684.596H557.747V685.099H746.231V684.596Z" fill="#EBEBEB"/>
<path d="M476.864 568.938H88.3671C82.0293 568.938 76.8785 563.788 76.8785 557.452V11.4854C76.8785 5.1493 82.0293 0 88.3671 0H476.884C483.222 0 488.373 5.1493 488.373 11.4854V557.452C488.373 563.788 483.222 568.938 476.884 568.938H476.864ZM88.3671 0.502862C82.3109 0.502862 77.3815 5.43091 77.3815 11.4854V557.452C77.3815 563.507 82.3109 568.435 88.3671 568.435H476.884C482.94 568.435 487.87 563.507 487.87 557.452V11.4854C487.87 5.43091 482.94 0.502862 476.884 0.502862H88.3671Z" fill="#EBEBEB"/>
<path d="M511.591 37.6543H123.517V470.095H511.591V37.6543Z" fill="#EBEBEB"/>
<path d="M524.186 37.6543H129.392V470.095H524.186V37.6543Z" fill="#F5F5F5"/>
<path d="M511.591 470.095H123.517V493.529H511.591V470.095Z" fill="#EBEBEB"/>
<path d="M584.104 470.095H189.309V493.529H584.104V470.095Z" fill="#F0F0F0"/>
<path d="M506.541 55.3148H147.057V452.455H506.541V55.3148Z" fill="#FAFAFA"/>
<path d="M161.664 452.455L265.322 55.3148H314.254L210.596 452.455H161.664Z" fill="white"/>
<path d="M155.246 283.614C154.542 283.614 153.978 283.051 153.978 282.347V66.8001C153.978 66.0961 154.542 65.5329 155.246 65.5329C155.95 65.5329 156.514 66.0961 156.514 66.8001V282.367C156.514 283.071 155.95 283.634 155.246 283.634V283.614Z" fill="#F1F1F1"/>
<path d="M221.119 452.455L324.757 55.3148H343.831L240.193 452.455H221.119Z" fill="white"/>
<path d="M506.541 55.3148H504.308V452.455H506.541V55.3148Z" fill="#EBEBEB"/>
<path d="M528.371 74.3833H140.297L138.667 62.1738H526.762L528.371 74.3833Z" fill="#EBEBEB"/>
<path d="M528.371 83.3141H140.297L138.667 71.1046H526.762L528.371 83.3141Z" fill="#EBEBEB"/>
<path d="M528.371 94.0552H140.297L138.667 81.8458H526.762L528.371 94.0552Z" fill="#EBEBEB"/>
<path d="M528.371 105.983H140.297L138.667 93.7737H526.762L528.371 105.983Z" fill="#EBEBEB"/>
<path d="M528.371 120.285H140.297L138.667 108.075H526.762L528.371 120.285Z" fill="#EBEBEB"/>
<path d="M528.371 136.356H140.297L138.667 124.146H526.762L528.371 136.356Z" fill="#EBEBEB"/>
<path d="M156.272 443.102H199.651V447.386H196.915L194.641 470.095H161.262L159.008 447.386H156.272V443.102Z" fill="#EBEBEB"/>
<path d="M153.073 403.275C153.073 403.275 153.073 403.215 153.073 403.174C152.51 401.284 151.987 399.393 151.524 397.462C148.687 401.143 145.93 402.068 143.878 402.068C143.657 402.068 143.436 402.068 143.214 402.028C139.15 401.626 135.247 397.683 132.772 391.468C132.671 391.226 132.691 390.965 132.812 390.744C132.933 390.522 133.134 390.361 133.376 390.301C141.303 388.229 147.6 391.307 150.598 393.278C150.236 391.468 149.914 389.657 149.673 387.847C149.009 387.968 148.365 388.048 147.721 388.048C141.081 388.048 136.192 382.135 135.971 381.833C135.79 381.612 135.73 381.33 135.81 381.069C135.87 380.807 136.072 380.586 136.333 380.485C140.297 378.916 143.657 378.776 146.313 380.083C147.963 380.888 149.27 382.255 150.236 384.046C151.665 379.761 155.87 371.575 167.539 369.281C167.801 369.221 168.042 369.282 168.243 369.442C168.445 369.603 168.565 369.825 168.586 370.086C168.928 376.12 168.746 383.502 164.199 387.002C162.489 388.33 160.316 388.994 157.68 388.994C155.85 388.994 153.777 388.652 151.484 388.028C152.107 392.353 153.073 396.677 154.28 400.922C156.634 397.804 162.791 390.804 172.127 388.41C172.589 388.29 173.072 388.571 173.193 389.034C174.561 394.223 173.857 398.447 171.161 401.223C168.948 403.516 165.467 404.683 161.081 404.683C159.27 404.683 157.318 404.482 155.226 404.08C156.332 407.64 157.58 411.099 158.908 414.438C161.624 412.045 169.592 405.95 178.263 408.485C178.505 408.545 178.706 408.726 178.806 408.947C178.907 409.168 178.927 409.43 178.827 409.651C176.473 415.404 173.797 418.582 170.416 419.688C169.531 419.97 168.606 420.111 167.64 420.111C165.507 420.111 163.113 419.407 160.377 417.979C162.248 422.384 164.219 426.487 166.111 430.168C168.143 427.955 173.716 423.43 183.595 425.522C184.038 425.622 184.319 426.024 184.279 426.467C183.957 430.047 181.422 433.467 177.961 434.955C176.996 435.378 175.607 435.78 173.897 435.78C172.288 435.78 170.396 435.398 168.324 434.332C172.71 442.398 176.211 447.527 176.291 447.647C176.573 448.05 176.473 448.593 176.07 448.874C175.929 448.975 175.748 449.035 175.567 449.035C175.285 449.035 175.024 448.895 174.843 448.653C174.742 448.512 170.376 442.096 165.246 432.3C165.185 432.22 165.145 432.119 165.105 432.039C164.541 430.952 163.958 429.806 163.374 428.639C160.98 431.898 157.781 433.688 154.341 433.688C153.978 433.688 153.596 433.668 153.214 433.628C149.19 433.185 145.508 430.309 144.281 426.648C144.14 426.246 144.321 425.803 144.683 425.602C151.725 421.68 158.204 423.45 161.564 424.938C160.296 422.263 159.049 419.427 157.841 416.47C157.761 416.369 157.721 416.229 157.701 416.108C157.359 415.263 157.037 414.418 156.695 413.574C153.777 417.234 150.9 419.045 147.902 419.045C144.26 419.045 140.558 416.349 136.615 410.818C136.333 410.436 136.414 409.893 136.796 409.611C142.993 404.944 151.504 408.123 155.347 409.993C154.562 407.801 153.817 405.568 153.153 403.315C153.153 403.315 153.153 403.315 153.133 403.275H153.073Z" fill="#EBEBEB"/>
<path d="M198.524 426.688C197.075 427.111 195.627 427.352 194.259 427.352C191.321 427.352 188.645 426.386 186.492 424.476C183.173 421.539 181.724 416.872 182.911 412.91C183.032 412.507 183.414 412.246 183.837 412.286C193.514 413.312 198.363 419.729 200.234 422.967C202.186 418.582 204.077 413.936 205.727 409.108C203.172 410.436 200.878 411.12 198.826 411.12C197.84 411.12 196.894 410.959 195.989 410.657C191.221 409.028 188.323 403.174 185.929 397.06C185.828 396.838 185.848 396.577 185.969 396.356C186.07 396.134 186.271 395.973 186.512 395.893C196.351 393.157 204.319 402.551 206.793 405.91C208.081 401.867 209.188 397.723 210.053 393.56C207.84 393.962 205.747 394.163 203.836 394.163C198.826 394.163 194.902 392.815 192.408 390.18C189.47 387.063 188.746 382.376 190.335 376.663C190.456 376.201 190.939 375.919 191.402 376.06C201.441 378.796 208.041 386.439 210.697 390.04C210.817 389.295 210.958 388.551 211.059 387.807C211.079 387.606 211.18 387.445 211.32 387.304C212.367 384.126 214.218 381.813 216.692 380.646C219.63 379.258 223.292 379.459 227.618 381.25C227.879 381.35 228.06 381.571 228.141 381.853C228.201 382.115 228.141 382.416 227.96 382.617C227.698 382.919 222.346 389.255 215.123 389.255C214.379 389.255 213.594 389.155 212.829 389.014C212.507 391.086 212.125 393.157 211.683 395.229C214.982 393.097 221.984 389.738 230.756 392.152C230.998 392.212 231.199 392.393 231.32 392.614C231.42 392.836 231.44 393.097 231.34 393.338C228.543 400.137 224.197 404.421 219.731 404.784C219.529 404.784 219.328 404.804 219.107 404.804C216.833 404.804 213.775 403.758 210.656 399.574C209.429 404.361 207.9 409.048 206.21 413.574C210.435 411.582 219.912 408.123 226.692 413.372C227.074 413.654 227.135 414.197 226.873 414.579C222.487 420.553 218.443 423.45 214.459 423.45H214.359C211.059 423.41 207.92 421.378 204.761 417.275C202.95 421.76 201.019 426.045 199.087 430.007C203.313 427.392 207.94 427.794 213.413 431.254C213.654 431.415 213.815 431.677 213.815 431.958C213.815 432.24 213.695 432.521 213.453 432.702C213.151 432.924 207.92 436.625 202.427 436.625C200.456 436.625 198.464 436.142 196.633 434.855C190.134 447.326 184.279 455.693 184.158 455.854C183.977 456.116 183.676 456.256 183.374 456.256C183.173 456.256 182.991 456.196 182.81 456.075C182.368 455.774 182.267 455.17 182.589 454.728C182.73 454.527 190.878 442.921 198.544 426.668L198.524 426.688Z" fill="#EBEBEB"/>
<path d="M368.478 442.941C368.478 457.946 384.695 470.095 404.694 470.095C424.693 470.095 440.91 457.946 440.91 442.941H368.478Z" fill="#EBEBEB"/>
<path d="M689.372 728.948C709.451 728.948 725.728 727.949 725.728 726.716C725.728 725.482 709.451 724.483 689.372 724.483C669.292 724.483 653.015 725.482 653.015 726.716C653.015 727.949 669.292 728.948 689.372 728.948Z" fill="#E6E6E6"/>
<path d="M760.234 382.336H442.399C411.463 382.336 386.385 407.407 386.385 438.334V617.916C386.385 648.844 411.463 673.915 442.399 673.915H760.234C791.17 673.915 816.248 648.844 816.248 617.916V438.334C816.248 407.407 791.17 382.336 760.234 382.336Z" fill="#263238"/>
<path d="M704.804 726.716H674.724L613.6 581.932H659.634L704.804 726.716Z" fill="#263238"/>
<path d="M825.302 513.341H823.29V528.105H825.302V513.341Z" fill="#407BFF"/>
<path opacity="0.2" d="M825.302 513.341H823.29V528.105H825.302V513.341Z" fill="black"/>
<path d="M825.302 450.423H823.29V503.284H825.302V450.423Z" fill="#407BFF"/>
<path opacity="0.2" d="M825.302 450.423H823.29V503.284H825.302V450.423Z" fill="black"/>
<path d="M569.678 373.284H542.395V375.296H569.678V373.284Z" fill="#407BFF"/>
<path opacity="0.2" d="M569.678 373.284H542.395V375.296H569.678V373.284Z" fill="black"/>
<path d="M787.577 581.932L704.743 726.716L643.619 581.932H787.577Z" fill="#407BFF"/>
<path opacity="0.2" d="M787.597 581.932L704.763 726.716L643.639 581.932H787.597Z" fill="black"/>
<path d="M760.254 382.336H467.71C436.774 382.336 411.695 407.407 411.695 438.334V617.916C411.695 648.844 436.774 673.915 467.71 673.915H760.254C791.19 673.915 816.268 648.844 816.268 617.916V438.334C816.268 407.407 791.19 382.336 760.254 382.336Z" fill="#407BFF"/>
<path opacity="0.2" d="M760.254 382.336H467.71C436.774 382.336 411.695 407.407 411.695 438.334V617.916C411.695 648.844 436.774 673.915 467.71 673.915H760.254C791.19 673.915 816.268 648.844 816.268 617.916V438.334C816.268 407.407 791.19 382.336 760.254 382.336Z" fill="black"/>
<path opacity="0.7" d="M568.893 673.915H515.374L571.991 382.336H625.531L568.893 673.915Z" fill="#407BFF"/>
<path opacity="0.7" d="M617.241 673.915H586.8L643.438 382.336H673.859L617.241 673.915Z" fill="#407BFF"/>
<path d="M743.675 476.411H594.948C586.377 476.411 579.436 469.472 579.436 460.903C579.436 452.334 586.377 445.395 594.948 445.395H743.675C752.247 445.395 759.188 452.334 759.188 460.903C759.188 469.472 752.247 476.411 743.675 476.411Z" fill="white"/>
<path d="M543.985 476.411H476.623C468.052 476.411 461.11 469.472 461.11 460.903C461.11 452.334 468.052 445.395 476.623 445.395H543.985C552.556 445.395 559.497 452.334 559.497 460.903C559.497 469.472 552.556 476.411 543.985 476.411Z" fill="white"/>
<path d="M743.675 541.803H492.417C483.846 541.803 476.904 534.864 476.904 526.295C476.904 517.726 483.846 510.787 492.417 510.787H743.675C752.247 510.787 759.188 517.726 759.188 526.295C759.188 534.864 752.247 541.803 743.675 541.803Z" fill="white"/>
<path d="M743.676 607.216H627.281C618.71 607.216 611.769 600.276 611.769 591.707C611.769 583.139 618.71 576.199 627.281 576.199H743.676C752.247 576.199 759.188 583.139 759.188 591.707C759.188 600.276 752.247 607.216 743.676 607.216Z" fill="white"/>
<path opacity="0.1" d="M484.329 382.336C484.329 382.336 462.076 502.62 462.076 553.429C462.076 604.239 480.466 673.915 480.466 673.915H421.715L417.812 607.92C414.17 546.188 420.267 484.276 435.92 424.455L446.946 382.316H484.349L484.329 382.336Z" fill="black"/>
<path d="M453.686 726.716C453.686 729.089 420.689 731.02 379.986 731.02C339.284 731.02 306.287 729.089 306.287 726.716C306.287 724.342 339.284 722.411 379.986 722.411C420.689 722.411 453.686 724.342 453.686 726.716Z" fill="#E6E6E6"/>
<path d="M428.415 226.851C422.178 227.837 416.343 228.339 410.307 228.782C404.311 229.184 398.296 229.285 392.26 229.245C380.127 229.184 368.136 227.937 355.722 225.161C351.174 223.975 348.036 221.943 345.239 219.891C342.483 217.799 340.108 215.587 337.875 213.334C333.449 208.808 329.686 204.021 326.125 199.153C319.123 189.317 313.007 179.26 307.635 168.579L315.18 164.074C318.56 168.62 322.041 173.266 325.622 177.731C329.143 182.237 332.785 186.642 336.547 190.826C340.269 195.03 344.153 199.073 348.136 202.613C350.128 204.363 352.16 205.972 354.152 207.259C356.124 208.527 358.116 209.472 359.263 209.613C364.373 210.458 369.987 211.162 375.479 211.443C381.033 211.685 386.606 211.846 392.219 211.745C397.833 211.665 403.446 211.363 409.08 210.961C414.653 210.598 420.427 209.975 425.719 209.331L428.415 226.871V226.851Z" fill="white"/>
<path d="M446.523 210.518C431.212 201.285 410.488 207.984 410.488 207.984L420.971 244.25C420.971 244.25 437.55 239.583 444.048 232.523C450.829 225.181 455.738 216.09 446.523 210.538V210.518Z" fill="#263238"/>
<path d="M316.488 167.875L320.19 155.404L302.665 157.577C302.665 157.577 304.396 165.703 309.043 171.234L316.488 167.875Z" fill="white"/>
<path d="M318.922 140.882L304.335 143.497L302.665 157.597L320.19 155.424L318.922 140.882Z" fill="white"/>
<path d="M518.01 96.1472C533.502 96.469 529.156 109.403 529.156 109.403C529.156 109.403 546.037 98.7419 551.409 111.213C556.781 123.664 544.689 127.606 537.606 129.477C542.053 132.031 542.274 140.298 536.037 143.034C529.8 145.77 519.358 138.267 511.471 138.388L503.724 129.195C514.267 122.356 502.517 95.8454 518.01 96.1673V96.1472Z" fill="#263238"/>
<path d="M515.595 144.764C522.355 145.93 527.265 145.106 525.937 137.643C524.609 130.181 518.814 122.356 510.283 119.198C501.752 116.04 499.841 130.141 499.841 130.141L515.595 144.764Z" fill="#407BFF"/>
<path d="M317.896 666.03L300.633 664.039L304.074 623.951L321.337 625.942L317.896 666.03Z" fill="white"/>
<path d="M432.238 712.998L414.895 712.193L411.172 671.783L428.516 672.567L432.238 712.998Z" fill="white"/>
<path d="M414.231 706.963H433.747C434.451 706.963 435.035 707.446 435.135 708.15L437.348 723.578C437.57 725.187 436.202 726.695 434.572 726.675C427.771 726.555 424.492 726.152 415.901 726.152C410.629 726.152 402.903 726.695 395.62 726.695C388.336 726.695 387.934 719.494 390.972 718.831C404.573 715.914 406.726 711.871 411.313 708.009C412.138 707.305 413.184 706.943 414.21 706.943L414.231 706.963Z" fill="#263238"/>
<path d="M300.05 657.723L319.425 655.43C320.129 655.35 320.753 655.772 320.934 656.436L324.958 671.501C325.381 673.07 324.194 674.74 322.564 674.901C315.804 675.585 312.484 675.565 303.973 676.59C298.722 677.214 287.957 679.044 280.714 679.889C273.632 680.734 272.244 673.634 275.181 672.628C288.36 668.122 293.189 663.476 297.293 659.111C298.038 658.326 299.024 657.824 300.05 657.703V657.723Z" fill="#263238"/>
<path d="M304.094 623.971L302.303 644.628L319.566 646.62L321.357 625.962L304.094 623.971Z" fill="white"/>
<path d="M428.516 672.588L411.152 671.783L413.104 692.622L430.447 693.426L428.516 672.588Z" fill="white"/>
<path d="M429.703 205.912C429.703 205.912 420.951 206.455 409.1 308.998C436.021 316.622 463.867 324.507 476.965 328.228C483.645 300.289 488.453 283.252 517.708 230.331C517.708 230.331 504.368 223.21 489.962 218.363C478.695 214.581 469.44 211.564 459.138 209.633C445.557 207.099 429.683 205.912 429.683 205.912H429.703Z" fill="#263238"/>
<path d="M496.763 182.8C492.014 192.153 484.912 209.774 489.982 218.363C489.982 218.363 484.429 227.656 465.999 222.426C445.738 216.693 459.159 209.633 459.159 209.633C470.969 210.136 473.001 201.849 473.263 193.602L496.763 182.82V182.8Z" fill="white"/>
<path d="M440.185 206.897C445.738 207.501 452.72 208.426 459.159 209.613C469.46 211.544 478.715 214.561 489.982 218.343C495.757 220.274 501.33 222.567 505.958 224.638C505.052 227.997 498.352 245.417 458.816 235.339C421.876 225.926 435.98 210.297 440.185 206.877V206.897Z" fill="white"/>
<path d="M487.186 187.205L473.283 193.582C473.222 195.533 473.061 197.484 472.679 199.314C477.085 199.898 484.51 197.926 486.22 193.622C487.065 191.49 487.246 188.332 487.186 187.185V187.205Z" fill="white"/>
<path d="M505.595 160.775C501.451 177.51 500.042 184.671 489.902 191.791C474.651 202.492 455.014 193.743 454.068 176.122C453.223 160.252 460.144 135.572 477.951 131.87C495.495 128.23 509.74 144.06 505.595 160.795V160.775Z" fill="white"/>
<path d="M500.163 176.927C495.113 174.312 491.069 166.829 498.352 159.95C498.352 159.95 488.373 154.218 493.342 146.293C498.312 138.388 518.573 131.83 521.732 142.431C524.891 153.031 515.072 157.416 515.072 157.416C515.072 157.416 523.14 169.726 508.654 173.789C508.654 173.789 507.406 191.57 497.024 183.645L500.183 176.907L500.163 176.927Z" fill="#263238"/>
<path d="M505.414 176.525C504.428 179.964 501.954 182.619 499.358 183.987C495.455 186.059 492.558 182.8 492.859 178.637C493.121 174.875 495.475 169.263 499.761 168.921C503.986 168.579 506.561 172.602 505.414 176.525Z" fill="white"/>
<path d="M409.1 308.998C409.1 308.998 330.27 401.947 316.93 453.199C303.047 506.502 296.75 638.172 296.75 638.172L323.831 641.712C323.831 641.712 341.939 521.166 364.715 472.066C388.98 419.749 458.796 323.099 458.796 323.099L409.1 309.019V308.998Z" fill="#407BFF"/>
<path d="M327.554 642.195L293.048 637.669L292.444 628.235L330.411 635.939L327.554 642.195Z" fill="#407BFF"/>
<path opacity="0.3" d="M327.554 642.195L293.048 637.669L292.444 628.235L330.411 635.939L327.554 642.195Z" fill="black"/>
<path opacity="0.2" d="M407.752 351.259C398.557 384.528 395.962 402.873 393.245 420.855C400.428 409.189 408.034 397.381 415.418 386.198C418.094 380.284 420.83 374.431 423.526 368.738C423.526 368.678 423.566 368.598 423.586 368.537L407.752 351.279V351.259Z" fill="black"/>
<path d="M427.027 314.067C427.027 314.067 404.211 431.475 395.962 498.939C389.282 553.429 410.307 685.642 410.307 685.642L432.922 687.03C432.922 687.03 428.154 568.958 438.676 516.157C465.275 382.577 490.143 364.635 476.985 328.208L427.047 314.047L427.027 314.067Z" fill="#407BFF"/>
<path d="M435.719 687.211L406.444 685.421L405.076 677.093L436.785 680.392L435.719 687.211Z" fill="#407BFF"/>
<path opacity="0.3" d="M435.719 687.211L406.444 685.421L405.076 677.093L436.785 680.392L435.719 687.211Z" fill="black"/>
<path d="M479.118 324.527L480.466 331.466C480.566 332.009 479.882 332.331 479.097 332.11L407.933 311.935C407.329 311.754 406.907 311.312 406.967 310.929L408.074 304.674C408.154 304.231 408.778 304.03 409.442 304.231L478.172 323.702C478.675 323.843 479.057 324.185 479.138 324.527H479.118Z" fill="#407BFF"/>
<path opacity="0.4" d="M479.118 324.527L480.466 331.466C480.566 332.009 479.882 332.331 479.097 332.11L407.933 311.935C407.329 311.754 406.907 311.312 406.967 310.929L408.074 304.674C408.154 304.231 408.778 304.03 409.442 304.231L478.172 323.702C478.675 323.843 479.057 324.185 479.138 324.527H479.118Z" fill="black"/>
<path d="M467.709 329.596L469.54 330.119C469.903 330.219 470.245 330.119 470.285 329.877L471.653 321.751C471.693 321.51 471.432 321.228 471.049 321.127L469.218 320.605C468.856 320.504 468.514 320.605 468.474 320.846L467.106 328.972C467.066 329.214 467.327 329.495 467.689 329.596H467.709Z" fill="#407BFF"/>
<path d="M412.883 314.067L414.713 314.59C415.076 314.691 415.418 314.59 415.458 314.349L416.826 306.223C416.866 305.981 416.605 305.7 416.243 305.599L414.412 305.076C414.049 304.976 413.707 305.076 413.667 305.317L412.299 313.444C412.259 313.685 412.52 313.967 412.883 314.067Z" fill="#407BFF"/>
<path d="M440.306 321.831L442.137 322.354C442.499 322.455 442.841 322.354 442.881 322.113L444.25 313.987C444.29 313.745 444.028 313.464 443.666 313.363L441.835 312.84C441.473 312.74 441.131 312.84 441.091 313.082L439.723 321.208C439.682 321.449 439.944 321.731 440.306 321.831Z" fill="#407BFF"/>
<path d="M479.057 160.795C478.796 162.163 477.87 163.148 476.965 162.988C476.059 162.827 475.536 161.58 475.798 160.192C476.059 158.824 476.985 157.838 477.89 157.999C478.796 158.16 479.319 159.407 479.057 160.795Z" fill="#263238"/>
<path d="M463.484 157.939C463.223 159.307 462.297 160.292 461.392 160.131C460.486 159.97 459.963 158.723 460.225 157.335C460.486 155.968 461.412 154.982 462.317 155.143C463.223 155.304 463.746 156.551 463.484 157.939Z" fill="#263238"/>
<path d="M462.68 155.304L459.541 153.735C459.541 153.735 460.768 156.631 462.68 155.304Z" fill="#263238"/>
<path d="M467.166 161.057C467.166 161.057 463.746 166.548 460.647 168.941C462.156 170.973 465.396 170.772 465.396 170.772L467.186 161.057H467.166Z" fill="white"/>
<path d="M471.653 177.309C470.888 177.309 470.084 177.249 469.239 177.088C469.017 177.048 468.856 176.826 468.917 176.605C468.957 176.384 469.178 176.243 469.4 176.283C475.436 177.389 479.057 173.688 479.077 173.648C479.238 173.487 479.5 173.487 479.661 173.648C479.822 173.809 479.822 174.071 479.661 174.232C479.52 174.372 476.643 177.329 471.653 177.329V177.309Z" fill="#263238"/>
<path d="M484.811 156.651C484.51 156.651 484.228 156.491 484.067 156.189C482.417 152.91 479.419 152.548 479.379 152.528C478.936 152.488 478.594 152.065 478.655 151.623C478.715 151.18 479.097 150.838 479.56 150.899C479.721 150.899 483.484 151.381 485.536 155.445C485.737 155.847 485.576 156.35 485.174 156.551C485.053 156.611 484.932 156.631 484.811 156.631V156.651Z" fill="#263238"/>
<path d="M457.871 149.491C457.67 149.491 457.448 149.41 457.308 149.249C456.986 148.927 456.965 148.405 457.308 148.083C460.466 144.804 464.209 145.488 464.37 145.528C464.812 145.609 465.114 146.051 465.013 146.494C464.933 146.936 464.49 147.218 464.048 147.137C463.887 147.117 460.989 146.634 458.474 149.229C458.314 149.39 458.092 149.471 457.891 149.471L457.871 149.491Z" fill="#263238"/>
<path d="M519.84 249.359C521.209 255.514 522.054 261.307 522.879 267.301C523.643 273.255 524.106 279.269 524.448 285.283C525.112 297.392 524.609 309.441 522.577 321.992C521.671 326.599 519.84 329.857 517.949 332.774C516.038 335.65 513.965 338.164 511.853 340.518C507.607 345.204 503.04 349.247 498.393 353.089C488.997 360.672 479.339 367.391 468.997 373.405L464.028 366.144C468.374 362.503 472.8 358.742 477.025 354.9C481.311 351.118 485.496 347.216 489.439 343.193C493.423 339.21 497.205 335.107 500.485 330.903C502.115 328.811 503.604 326.679 504.75 324.627C505.897 322.596 506.722 320.524 506.803 319.377C507.346 314.228 507.688 308.576 507.648 303.085C507.567 297.533 507.366 291.961 506.944 286.37C506.521 280.778 505.877 275.186 505.133 269.594C504.429 264.063 503.463 258.33 502.497 253.08L519.861 249.319L519.84 249.359Z" fill="white"/>
<path d="M517.728 230.331C523.945 234.334 525.474 260.04 525.474 260.04L493.745 271.425C493.745 271.425 489.66 249.158 495.012 241.193C500.586 232.885 510.625 225.785 517.728 230.331Z" fill="#263238"/>
<path d="M408.275 710.001C406.947 710.001 405.7 709.779 404.975 709.095C404.392 708.572 404.171 707.828 404.291 706.903C404.392 706.219 404.794 705.897 405.116 705.756C407.128 704.831 412.42 708.251 413.003 708.633C413.144 708.733 413.205 708.894 413.184 709.055C413.164 709.216 413.044 709.337 412.883 709.377C411.655 709.659 409.905 710.001 408.295 710.001H408.275ZM405.961 706.4C405.76 706.4 405.579 706.42 405.438 706.501C405.297 706.561 405.136 706.682 405.096 707.024C405.016 707.667 405.136 708.15 405.519 708.492C406.404 709.297 408.678 709.397 411.696 708.794C409.824 707.667 407.289 706.42 405.961 706.42V706.4Z" fill="#407BFF"/>
<path d="M412.782 709.397C412.782 709.397 412.641 709.397 412.581 709.337C410.931 708.391 407.772 704.65 408.154 702.699C408.235 702.317 408.517 701.673 409.543 701.552C410.186 701.472 410.79 701.653 411.293 702.096C413.184 703.765 413.204 708.774 413.204 708.975C413.204 709.115 413.124 709.256 413.003 709.337C412.943 709.377 412.862 709.397 412.802 709.397H412.782ZM409.824 702.357C409.824 702.357 409.704 702.357 409.643 702.357C409.12 702.417 408.999 702.659 408.959 702.84C408.718 704.027 410.689 706.843 412.339 708.17C412.239 706.501 411.856 703.705 410.73 702.699C410.448 702.458 410.166 702.337 409.824 702.337V702.357Z" fill="#407BFF"/>
<path d="M292.404 661.605C291.297 661.605 290.311 661.424 289.627 660.941C289.004 660.499 288.682 659.855 288.662 659.03C288.662 658.548 288.843 658.125 289.225 657.864C291.197 656.456 298.5 659.151 299.325 659.473C299.486 659.533 299.587 659.694 299.587 659.875C299.587 660.056 299.466 660.197 299.305 660.257C297.474 660.841 294.677 661.605 292.424 661.605H292.404ZM290.955 658.266C290.392 658.266 289.949 658.347 289.688 658.528C289.527 658.648 289.466 658.789 289.466 659.01C289.466 659.574 289.688 659.976 290.09 660.257C291.257 661.062 294.114 660.901 297.856 659.815C295.603 659.051 292.686 658.266 290.955 658.266Z" fill="#407BFF"/>
<path d="M299.164 660.257C299.164 660.257 299.084 660.257 299.044 660.257C296.871 659.574 292.364 656.335 292.464 654.344C292.464 653.881 292.746 653.258 293.853 653.016C294.678 652.835 295.462 652.976 296.207 653.459C298.581 655.008 299.547 659.594 299.587 659.795C299.607 659.936 299.567 660.076 299.466 660.177C299.386 660.237 299.285 660.278 299.184 660.278L299.164 660.257ZM294.537 653.74C294.376 653.74 294.195 653.74 294.034 653.801C293.289 653.962 293.289 654.263 293.289 654.364C293.229 655.551 296.347 658.165 298.581 659.171C298.219 657.844 297.313 655.128 295.764 654.123C295.382 653.861 294.979 653.74 294.557 653.74H294.537Z" fill="#407BFF"/>
<path opacity="0.6" d="M373.266 151.904C301.056 135.209 228.986 180.185 212.286 252.356C206.331 278.103 208.242 303.829 216.431 327.041L177.257 368.638L236.39 364.052C254.679 388.008 281.097 405.99 312.765 413.312C384.976 430.007 457.046 385.031 473.746 312.86C490.445 240.67 445.457 168.62 373.266 151.925V151.904Z" fill="#407BFF"/>
<path opacity="0.1" d="M373.266 151.904C301.056 135.209 228.986 180.185 212.286 252.356C206.331 278.103 208.242 303.829 216.431 327.041L177.257 368.638L236.39 364.052C254.679 388.008 281.097 405.99 312.765 413.312C384.976 430.007 457.046 385.031 473.746 312.86C490.445 240.67 445.457 168.62 373.266 151.925V151.904Z" fill="black"/>
<path d="M343.127 410.255C333.469 410.255 323.731 409.148 314.234 406.936C285.342 400.258 259.548 383.603 241.581 360.069L239.428 357.233L194.339 360.733C194.218 360.733 194.118 360.673 194.057 360.572C193.997 360.471 194.017 360.351 194.098 360.25L223.916 328.61L222.588 324.849C214.54 301.999 213.171 277.439 218.644 253.824C232.124 195.613 283.209 154.962 342.885 154.962C352.543 154.962 362.281 156.068 371.777 158.281C440.346 174.151 483.222 242.822 467.368 311.372C453.887 369.583 402.802 410.255 343.127 410.255ZM239.549 356.67C239.549 356.67 239.71 356.71 239.77 356.79L242.024 359.747C259.91 383.181 285.603 399.735 314.355 406.393C323.811 408.585 333.489 409.691 343.127 409.691C402.541 409.691 453.404 369.221 466.824 311.251C482.618 243.003 439.924 174.634 371.657 158.844C362.2 156.651 352.523 155.545 342.885 155.545C283.471 155.545 232.607 196.016 219.187 253.985C213.735 277.499 215.103 301.958 223.111 324.708L224.499 328.63C224.499 328.63 224.499 328.851 224.439 328.912L195.023 360.15L239.529 356.69H239.549V356.67Z" fill="white"/>
<path d="M389.563 259.778C390.227 258.29 389.765 256.54 388.477 255.534C382.562 250.948 374.071 247.126 365.218 245.075C335.32 238.155 305.381 256.842 298.46 286.732C293.832 306.726 304.798 320.263 318.017 323.32C329.586 325.995 340.008 323.662 349.645 316.179C349.826 320.162 351.013 323.179 352.261 325.271C354.897 329.736 359.383 332.894 364.896 334.162C385.56 338.949 410.81 325.09 419.079 289.367C427.993 250.908 407.148 217.779 368.417 208.808C321.88 198.047 278.28 226.75 266.972 275.588C257.556 316.3 279.447 352.486 319.063 361.658C334.777 365.299 347.674 365.359 360.872 361.879C362.603 361.417 363.729 359.747 363.508 357.977L362.22 347.98C362.079 346.954 361.496 346.029 360.631 345.446C359.766 344.883 358.679 344.722 357.673 345.003C348.519 347.679 337.05 347.658 325.401 344.963C294.577 337.822 278.903 311.211 286.428 278.726C295.502 239.563 327.634 217.035 362.824 225.181C392.642 232.081 406.746 255.454 399.623 286.189C396.505 299.645 390.087 310.185 381.998 315.133C378.397 317.326 374.815 318.11 371.818 317.366C370.188 316.944 369.624 316.139 369.323 315.516C368.478 313.725 367.854 308.918 373.306 296.789L389.563 259.738V259.778ZM358.438 262.775C360.772 263.319 362.945 264.043 364.977 264.948L356.225 285.042C351.255 296.688 337.614 308.395 327.453 306.042C318.178 303.889 318.661 295.562 319.767 290.775C324.173 271.767 341.879 258.954 358.458 262.796L358.438 262.775Z" fill="white"/>
<path d="M467.79 364.655L452.539 356.006L455.778 373.365C455.778 373.365 466.362 376.865 471.593 371.876L467.79 364.655Z" fill="white"/>
<path d="M438.093 358.158L441.594 372.54L455.778 373.365L452.539 356.006L438.093 358.158Z" fill="white"/>
<path d="M478.273 158.16L475.134 156.591C475.134 156.591 476.361 159.488 478.273 158.16Z" fill="#263238"/>
<path d="M499.841 150.195C491.21 149.672 484.912 145.87 484.047 140.902C484.047 140.902 464.289 149.109 456.301 136.959C456.301 136.959 447.308 138.468 445.075 132.192C442.841 125.917 452.217 124.026 456.644 126.942C456.644 126.942 442.922 114.874 456.986 111.515C471.07 108.155 474.088 119.54 474.088 119.54C474.088 119.54 479.621 102.885 492.115 110.288C504.59 117.69 496.964 124.871 496.964 124.871C496.964 124.871 526.782 127.184 515.676 138.91C504.569 150.637 499.841 150.195 499.841 150.195Z" fill="#263238"/>
<path d="M489.057 208.024C490.747 208.205 490.002 214.058 489.238 214.46C487.487 215.406 466.402 211.081 467.025 207.823C467.629 206.616 468.997 204.323 470.003 203.639C471.009 202.955 474.228 206.777 489.057 208.024Z" fill="#263238"/>
<path d="M599.174 254.066C580.563 254.066 565.493 269.152 565.493 287.737C565.493 304.714 578.088 318.734 594.425 321.047C594.385 327.142 593.037 336.676 586.055 344.239C586.055 344.239 632.855 332.573 632.855 287.737C632.855 269.132 617.765 254.066 599.174 254.066Z" fill="#407BFF"/>
<path d="M674.966 254.066C656.355 254.066 641.285 269.152 641.285 287.737C641.285 304.714 653.88 318.734 670.217 321.047C670.177 327.142 668.829 336.676 661.847 344.239C661.847 344.239 708.647 332.573 708.647 287.737C708.647 269.132 693.557 254.066 674.966 254.066Z" fill="#407BFF"/>
</g>
<defs>
<clipPath id="clip0_206_1122">
<rect width="1006" height="731" fill="white"/>
</clipPath>
</defs>
</svg>
