<svg width="722" height="640" viewBox="0 0 722 640" fill="none" xmlns="http://www.w3.org/2000/svg">
<g clip-path="url(#clip0_206_682)">
<path d="M799 575.879H-80V576.318H799V575.879Z" fill="#EBEBEB"/>
<path d="M710.924 604.176H652.699V604.615H710.924V604.176Z" fill="#EBEBEB"/>
<path d="M502.285 608.959H487.008V609.399H502.285V608.959Z" fill="#EBEBEB"/>
<path d="M650.941 587.855H617.205V588.295H650.941V587.855Z" fill="#EBEBEB"/>
<path d="M88.1528 590.81H12.2247V591.249H88.1528V590.81Z" fill="#EBEBEB"/>
<path d="M114.945 590.81H103.817V591.249H114.945V590.81Z" fill="#EBEBEB"/>
<path d="M315.814 598.231H151.124V598.671H315.814V598.231Z" fill="#EBEBEB"/>
<path d="M336.664 497.442H-2.80618C-8.34388 497.442 -12.8444 492.939 -12.8444 487.4V10.042C-12.8444 4.50221 -8.34388 0 -2.80618 0H336.664C342.201 0 346.702 4.50221 346.702 10.042V487.4C346.702 492.939 342.201 497.442 336.664 497.442ZM-2.80618 0.439669C-8.09776 0.439669 -12.4049 4.74843 -12.4049 10.042V487.4C-12.4049 492.693 -8.09776 497.002 -2.80618 497.002H336.664C341.955 497.002 346.262 492.693 346.262 487.4V10.042C346.262 4.74843 341.955 0.439669 336.664 0.439669H-2.80618Z" fill="#EBEBEB"/>
<path d="M716.919 497.442H377.449C371.911 497.442 367.411 492.939 367.411 487.4V10.042C367.411 4.50221 371.911 0 377.449 0H716.919C722.457 0 726.957 4.50221 726.957 10.042V487.4C726.957 492.939 722.457 497.442 716.919 497.442ZM377.449 0.439669C372.158 0.439669 367.851 4.74843 367.851 10.042V487.4C367.851 492.693 372.158 497.002 377.449 497.002H716.919C722.211 497.002 726.518 492.693 726.518 487.4V10.042C726.518 4.74843 722.211 0.439669 716.919 0.439669H377.449Z" fill="#EBEBEB"/>
<path d="M629.669 575.404V409.701H492.545V265.49H473.207V348.148H420.467V325.285H325.535V246.144H307.955V149.417H293.891V244.386H260.489V385.08H197.201V244.386H82.9314V385.08H26.6754V575.404H629.669Z" fill="#E0E0E0"/>
<path d="M249.941 142.383H109.301V575.404H249.941V142.383Z" fill="#F0F0F0"/>
<path d="M249.941 170.521H109.301V174.039H249.941V170.521Z" fill="#E6E6E6"/>
<path d="M249.941 198.66H109.301V202.178H249.941V198.66Z" fill="#E6E6E6"/>
<path d="M249.941 226.799H109.301V230.316H249.941V226.799Z" fill="#E6E6E6"/>
<path d="M249.941 254.938H109.301V258.455H249.941V254.938Z" fill="#E6E6E6"/>
<path d="M249.941 283.077H109.301V286.594H249.941V283.077Z" fill="#E6E6E6"/>
<path d="M249.941 311.216H109.301V314.733H249.941V311.216Z" fill="#E6E6E6"/>
<path d="M249.941 339.354H109.301V342.872H249.941V339.354Z" fill="#E6E6E6"/>
<path d="M249.941 367.493H109.301V371.011H249.941V367.493Z" fill="#E6E6E6"/>
<path d="M249.941 395.632H109.301V399.149H249.941V395.632Z" fill="#E6E6E6"/>
<path d="M249.941 423.771H109.301V427.288H249.941V423.771Z" fill="#E6E6E6"/>
<path d="M249.941 451.91H109.301V455.427H249.941V451.91Z" fill="#E6E6E6"/>
<path d="M249.941 480.048H109.301V483.566H249.941V480.048Z" fill="#E6E6E6"/>
<path d="M249.941 508.187H109.301V511.705H249.941V508.187Z" fill="#E6E6E6"/>
<path d="M249.941 536.326H109.301V539.844H249.941V536.326Z" fill="#E6E6E6"/>
<path d="M249.941 564.465H109.301V567.982H249.941V564.465Z" fill="#E6E6E6"/>
<path d="M450.353 385.08H309.713V388.597H450.353V385.08Z" fill="#E6E6E6"/>
<path d="M450.353 272.525H309.713V575.404H450.353V272.525Z" fill="#F0F0F0"/>
<path d="M450.353 300.663H309.713V304.181H450.353V300.663Z" fill="#E6E6E6"/>
<path d="M450.353 328.802H309.713V332.32H450.353V328.802Z" fill="#E6E6E6"/>
<path d="M450.353 356.941H309.713V360.459H450.353V356.941Z" fill="#E6E6E6"/>
<path d="M450.353 413.219H309.713V416.736H450.353V413.219Z" fill="#E6E6E6"/>
<path d="M450.353 441.358H309.713V444.875H450.353V441.358Z" fill="#E6E6E6"/>
<path d="M450.353 469.496H309.713V473.014H450.353V469.496Z" fill="#E6E6E6"/>
<path d="M450.353 497.635H309.713V501.153H450.353V497.635Z" fill="#E6E6E6"/>
<path d="M450.353 525.774H309.713V529.291H450.353V525.774Z" fill="#E6E6E6"/>
<path d="M450.353 553.913H309.713V557.43H450.353V553.913Z" fill="#E6E6E6"/>
<path d="M652.523 219.764H511.883V575.404H652.523V219.764Z" fill="#F0F0F0"/>
<path d="M652.523 247.903H511.883V251.42H652.523V247.903Z" fill="#E6E6E6"/>
<path d="M652.523 276.042H511.883V279.559H652.523V276.042Z" fill="#E6E6E6"/>
<path d="M652.523 304.181H511.883V307.698H652.523V304.181Z" fill="#E6E6E6"/>
<path d="M652.523 332.32H511.883V335.837H652.523V332.32Z" fill="#E6E6E6"/>
<path d="M652.523 360.458H511.883V363.976H652.523V360.458Z" fill="#E6E6E6"/>
<path d="M652.523 388.597H511.883V392.115H652.523V388.597Z" fill="#E6E6E6"/>
<path d="M652.523 416.736H511.883V420.253H652.523V416.736Z" fill="#E6E6E6"/>
<path d="M652.523 444.875H511.883V448.392H652.523V444.875Z" fill="#E6E6E6"/>
<path d="M652.523 473.014H511.883V476.531H652.523V473.014Z" fill="#E6E6E6"/>
<path d="M652.523 501.153H511.883V504.67H652.523V501.153Z" fill="#E6E6E6"/>
<path d="M652.523 529.291H511.883V532.809H652.523V529.291Z" fill="#E6E6E6"/>
<path d="M652.523 557.43H511.883V560.948H652.523V557.43Z" fill="#E6E6E6"/>
<path d="M209.332 112.309C236.313 112.309 258.186 90.4277 258.186 63.4355C258.186 36.4434 236.313 14.5619 209.332 14.5619C182.35 14.5619 160.477 36.4434 160.477 63.4355C160.477 90.4277 182.35 112.309 209.332 112.309Z" fill="#FAFAFA"/>
<path d="M183.999 62.8904C183.999 58.1947 180.202 54.396 175.508 54.396C174.664 54.396 173.838 54.5191 173.064 54.7477C173.187 53.9035 173.257 53.0242 173.257 52.1448C173.257 42.2083 165.206 34.1536 155.273 34.1536C154.148 34.1536 153.04 34.2591 151.968 34.4701C149.208 29.9503 144.233 26.9078 138.555 26.9078C129.94 26.9078 122.961 33.837 122.838 42.4194C122.75 42.4194 122.662 42.4194 122.574 42.4194C114.575 42.4194 108.088 48.9089 108.088 56.9109C108.088 64.9128 114.575 71.4024 122.574 71.4024H175.771C180.342 71.2617 184.016 67.5157 184.016 62.9079L183.999 62.8904Z" fill="#F0F0F0"/>
<path d="M688.949 163.223C688.949 158.527 685.152 154.728 680.458 154.728C679.614 154.728 678.788 154.851 678.014 155.08C678.138 154.236 678.208 153.357 678.208 152.477C678.208 142.541 670.156 134.486 660.224 134.486C659.098 134.486 657.991 134.592 656.918 134.803C654.158 130.283 649.183 127.24 643.505 127.24C634.891 127.24 627.911 134.169 627.788 142.752C627.701 142.752 627.613 142.752 627.525 142.752C619.526 142.752 613.039 149.241 613.039 157.243C613.039 165.245 619.526 171.735 627.525 171.735H680.722C685.293 171.594 688.967 167.848 688.967 163.24L688.949 163.223Z" fill="#F0F0F0"/>
<path d="M501.16 62.8904C501.16 58.1947 504.957 54.396 509.651 54.396C510.495 54.396 511.321 54.5191 512.094 54.7477C511.971 53.9035 511.901 53.0242 511.901 52.1448C511.901 42.2083 519.953 34.1536 529.885 34.1536C531.011 34.1536 532.118 34.2591 533.19 34.4701C535.95 29.9503 540.926 26.9078 546.604 26.9078C555.218 26.9078 562.197 33.837 562.32 42.4194C562.408 42.4194 562.496 42.4194 562.584 42.4194C570.583 42.4194 577.07 48.9089 577.07 56.9109C577.07 64.9128 570.583 71.4024 562.584 71.4024H509.387C504.816 71.2617 501.142 67.5157 501.142 62.9079L501.16 62.8904Z" fill="#F0F0F0"/>
<path d="M290.551 88.3384C290.551 85.419 288.195 83.0623 285.277 83.0623C284.75 83.0623 284.24 83.1503 283.765 83.291C283.836 82.7634 283.888 82.2182 283.888 81.673C283.888 75.5 278.878 70.4878 272.707 70.4878C272.004 70.4878 271.319 70.5582 270.651 70.6813C268.928 67.8674 265.851 65.9856 262.3 65.9856C256.938 65.9856 252.596 70.2944 252.526 75.6231C252.473 75.6231 252.42 75.6231 252.367 75.6231C247.392 75.6231 243.366 79.6505 243.366 84.6276C243.366 89.6046 247.392 93.632 252.367 93.632H285.435C288.283 93.5441 290.569 91.2226 290.569 88.356L290.551 88.3384Z" fill="#F0F0F0"/>
<path d="M449.492 199.258C449.492 196.339 451.848 193.982 454.766 193.982C455.293 193.982 455.803 194.07 456.278 194.211C456.207 193.683 456.155 193.138 456.155 192.593C456.155 186.42 461.165 181.407 467.336 181.407C468.039 181.407 468.724 181.478 469.393 181.601C471.115 178.787 474.192 176.905 477.743 176.905C483.105 176.905 487.447 181.214 487.518 186.543C487.57 186.543 487.623 186.543 487.676 186.543C492.651 186.543 496.677 190.57 496.677 195.547C496.677 200.524 492.651 204.552 487.676 204.552H454.608C451.76 204.464 449.474 202.142 449.474 199.276L449.492 199.258Z" fill="#F0F0F0"/>
<path d="M508.789 115.158C508.789 115.158 510.178 110.463 502.443 106.382C502.443 106.382 500.703 107.772 494.62 109.073C488.537 110.375 498.698 119.766 504.623 120.206C510.53 120.645 508.789 115.158 508.789 115.158Z" fill="#E6E6E6"/>
<path d="M507.488 115.492C507.488 115.492 508.93 107.965 521.922 106.101C534.896 104.254 540.117 103.516 540.117 103.516C540.117 103.516 541.471 117.339 523.398 119.66L540.117 118.095C540.117 118.095 538.605 122.703 531.819 124.708L522.959 122.879C522.959 122.879 507.611 126.853 500.702 120.276C498.03 117.726 493.899 118.095 493.899 118.095C493.899 118.095 494.69 116.882 496.167 116.442C496.167 116.442 495.376 114.349 496.782 113.4C501.388 110.269 504.482 116.882 507.471 115.475L507.488 115.492Z" fill="#F0F0F0"/>
<path d="M411.414 79.2108C411.414 79.2108 412.205 76.5552 407.827 74.2338C407.827 74.2338 406.843 75.0252 403.397 75.7638C399.952 76.5025 405.718 81.8137 409.058 82.0599C412.398 82.3061 411.414 79.2108 411.414 79.2108Z" fill="#E6E6E6"/>
<path d="M410.675 79.4043C410.675 79.4043 411.502 75.1483 418.833 74.0931C426.181 73.0379 429.134 72.6334 429.134 72.6334C429.134 72.6334 429.908 80.4595 419.676 81.7785L429.134 80.8992C429.134 80.8992 428.273 83.502 424.441 84.6452L419.43 83.6076C419.43 83.6076 410.746 85.8587 406.843 82.1303C405.331 80.6882 402.993 80.8992 402.993 80.8992C402.993 80.8992 403.45 80.2133 404.276 79.9671C404.276 79.9671 403.837 78.7888 404.628 78.2436C407.23 76.4673 408.988 80.2133 410.675 79.4219V79.4043Z" fill="#F0F0F0"/>
<path d="M344.838 126.924C344.838 126.924 345.383 125.06 342.324 123.442C342.324 123.442 341.639 123.987 339.213 124.514C336.804 125.024 340.83 128.753 343.186 128.929C345.524 129.105 344.838 126.924 344.838 126.924Z" fill="#E6E6E6"/>
<path d="M344.328 127.047C344.328 127.047 344.909 124.057 350.06 123.318C355.21 122.58 357.285 122.298 357.285 122.298C357.285 122.298 357.83 127.786 350.64 128.7L357.285 128.085C357.285 128.085 356.687 129.914 353.997 130.705L350.481 129.984C350.481 129.984 344.381 131.567 341.639 128.946C340.584 127.926 338.949 128.085 338.949 128.085C338.949 128.085 339.265 127.592 339.846 127.434C339.846 127.434 339.529 126.607 340.092 126.22C341.92 124.972 343.151 127.592 344.328 127.047Z" fill="#F0F0F0"/>
<path d="M189.326 346.741C189.326 346.741 189.185 346.741 189.097 346.705C188.622 346.582 188.341 346.108 188.464 345.633C188.464 345.598 189.484 341.746 191.646 335.415C191.804 334.958 192.297 334.711 192.771 334.87C193.228 335.028 193.474 335.52 193.316 335.978C191.171 342.238 190.169 346.02 190.169 346.072C190.064 346.459 189.712 346.723 189.326 346.723V346.741ZM196.797 325.021C196.692 325.021 196.586 325.003 196.463 324.951C196.006 324.775 195.795 324.265 195.971 323.808C197.272 320.554 198.661 317.265 200.085 314.029C200.278 313.59 200.805 313.379 201.245 313.59C201.684 313.783 201.895 314.311 201.684 314.75C200.26 317.969 198.889 321.24 197.588 324.476C197.448 324.828 197.114 325.021 196.78 325.021H196.797ZM206.15 304.11C206.027 304.11 205.886 304.075 205.763 304.022C205.323 303.811 205.148 303.284 205.359 302.844C206.923 299.696 208.576 296.53 210.263 293.435C210.492 293.013 211.037 292.855 211.459 293.083C211.881 293.312 212.039 293.857 211.81 294.279C210.14 297.339 208.488 300.487 206.941 303.618C206.783 303.934 206.484 304.11 206.15 304.11ZM217.225 284.061C217.067 284.061 216.909 284.026 216.768 283.938C216.346 283.692 216.223 283.147 216.469 282.725C218.315 279.7 220.249 276.693 222.183 273.791C222.446 273.386 222.991 273.281 223.396 273.545C223.8 273.808 223.905 274.354 223.642 274.758C221.708 277.625 219.809 280.614 217.963 283.622C217.805 283.886 217.506 284.044 217.207 284.044L217.225 284.061ZM230.058 265.12C229.883 265.12 229.689 265.068 229.531 264.945C229.144 264.646 229.074 264.1 229.355 263.714C231.5 260.864 233.698 258.068 235.93 255.395C236.247 255.026 236.792 254.973 237.161 255.289C237.53 255.606 237.583 256.151 237.266 256.521C235.051 259.176 232.871 261.955 230.744 264.769C230.568 264.997 230.305 265.12 230.041 265.12H230.058ZM495.323 260.038C495.059 260.038 494.796 259.915 494.62 259.686C492.51 256.907 490.278 254.181 487.992 251.561C487.676 251.192 487.711 250.647 488.08 250.312C488.449 249.996 488.994 250.031 489.328 250.4C491.649 253.056 493.899 255.817 496.044 258.613C496.343 259 496.255 259.545 495.868 259.844C495.71 259.968 495.516 260.02 495.341 260.02L495.323 260.038ZM244.773 247.622C244.562 247.622 244.333 247.551 244.175 247.375C243.824 247.041 243.806 246.479 244.14 246.127C246.584 243.542 249.098 241.009 251.612 238.617C251.963 238.283 252.526 238.301 252.86 238.652C253.194 239.004 253.176 239.567 252.825 239.901C250.328 242.275 247.832 244.773 245.423 247.34C245.248 247.516 245.019 247.622 244.79 247.622H244.773ZM480.187 242.926C479.958 242.926 479.747 242.838 479.571 242.68C477.075 240.253 474.473 237.879 471.819 235.61C471.449 235.293 471.397 234.748 471.713 234.379C472.03 234.009 472.592 233.957 472.944 234.273C475.633 236.56 478.27 238.951 480.784 241.414C481.136 241.748 481.136 242.31 480.784 242.662C480.609 242.838 480.38 242.926 480.152 242.926H480.187ZM261.421 231.969C261.175 231.969 260.911 231.864 260.736 231.653C260.419 231.284 260.472 230.721 260.859 230.422C263.601 228.171 266.414 225.99 269.244 223.932C269.631 223.651 270.194 223.739 270.475 224.126C270.756 224.513 270.668 225.075 270.281 225.357C267.486 227.379 264.691 229.542 261.984 231.776C261.826 231.917 261.615 231.969 261.421 231.969ZM462.695 228.223C462.519 228.223 462.343 228.171 462.185 228.065C459.372 226.025 456.436 224.055 453.483 222.209C453.078 221.945 452.938 221.4 453.201 220.995C453.465 220.591 454.01 220.45 454.414 220.714C457.403 222.578 460.356 224.565 463.222 226.641C463.609 226.922 463.697 227.467 463.415 227.872C463.24 228.118 462.976 228.241 462.695 228.241V228.223ZM279.986 218.709C279.687 218.709 279.406 218.568 279.23 218.287C278.984 217.865 279.107 217.337 279.529 217.073C282.552 215.227 285.646 213.468 288.758 211.868C289.198 211.639 289.725 211.815 289.936 212.237C290.164 212.677 289.989 213.204 289.567 213.415C286.508 215.016 283.431 216.739 280.443 218.568C280.302 218.656 280.144 218.691 279.986 218.691V218.709ZM443.251 216.229C443.11 216.229 442.97 216.194 442.847 216.124C439.77 214.523 436.588 212.993 433.389 211.586C432.949 211.393 432.738 210.865 432.932 210.426C433.125 209.986 433.652 209.775 434.092 209.968C437.327 211.393 440.544 212.941 443.655 214.559C444.077 214.787 444.253 215.315 444.025 215.737C443.866 216.036 443.568 216.212 443.251 216.212V216.229ZM300.273 208.315C299.921 208.315 299.605 208.104 299.464 207.77C299.271 207.33 299.482 206.803 299.939 206.627C303.191 205.273 306.531 204.006 309.854 202.899C310.311 202.74 310.821 202.986 310.962 203.444C311.12 203.901 310.874 204.411 310.417 204.552C307.129 205.66 303.824 206.891 300.625 208.245C300.519 208.298 300.396 208.315 300.291 208.315H300.273ZM422.313 207.119C422.208 207.119 422.12 207.119 422.014 207.067C418.762 205.906 415.404 204.833 412.029 203.866C411.554 203.725 411.291 203.25 411.431 202.775C411.572 202.301 412.047 202.037 412.521 202.177C415.932 203.162 419.325 204.235 422.612 205.413C423.069 205.572 423.315 206.082 423.14 206.539C423.017 206.891 422.665 207.119 422.313 207.119ZM321.932 201.175C321.545 201.175 321.176 200.911 321.07 200.507C320.947 200.032 321.246 199.557 321.721 199.434C325.113 198.607 328.594 197.869 332.093 197.271C332.567 197.183 333.025 197.517 333.112 197.992C333.2 198.467 332.866 198.924 332.392 199.012C328.946 199.61 325.5 200.331 322.142 201.14C322.072 201.14 322.002 201.157 321.932 201.157V201.175ZM400.338 200.911C400.338 200.911 400.215 200.911 400.163 200.894C396.77 200.173 393.306 199.539 389.843 199.012C389.368 198.941 389.034 198.484 389.105 198.009C389.175 197.535 389.632 197.2 390.107 197.271C393.605 197.816 397.104 198.449 400.532 199.17C401.006 199.276 401.305 199.733 401.217 200.208C401.129 200.612 400.76 200.911 400.356 200.911H400.338ZM377.748 197.535C377.748 197.535 377.695 197.535 377.66 197.535C374.214 197.236 370.681 197.007 367.182 196.884C366.69 196.884 366.321 196.462 366.339 195.969C366.356 195.477 366.813 195.09 367.253 195.125C370.786 195.248 374.338 195.477 377.818 195.793C378.293 195.829 378.662 196.268 378.609 196.743C378.574 197.2 378.188 197.552 377.73 197.552L377.748 197.535ZM344.399 197.411C343.942 197.411 343.573 197.077 343.52 196.62C343.485 196.145 343.836 195.706 344.311 195.67C347.774 195.354 351.343 195.143 354.894 195.055C355.386 195.055 355.791 195.424 355.791 195.917C355.791 196.409 355.421 196.813 354.929 196.813C351.413 196.901 347.897 197.112 344.469 197.429C344.434 197.429 344.416 197.429 344.381 197.429L344.399 197.411Z" fill="#407BFF"/>
<path d="M496.765 261.603C496.765 261.603 496.694 261.603 496.677 261.603L489.363 260.812C488.889 260.759 488.537 260.319 488.59 259.844C488.643 259.37 489.065 259 489.557 259.071L496.061 259.774L497.187 253.496C497.275 253.021 497.732 252.704 498.206 252.792C498.681 252.88 498.997 253.337 498.909 253.812L497.626 260.9C497.556 261.322 497.187 261.621 496.765 261.621V261.603Z" fill="#407BFF"/>
<path d="M10.8007 368.425H273.499C279.845 368.425 284.996 373.578 284.996 379.927V589.297C284.996 595.646 279.845 600.799 273.499 600.799H10.8007C4.45429 600.799 -0.696655 595.646 -0.696655 589.297V379.927C-0.696655 373.578 4.45429 368.425 10.8007 368.425Z" fill="#407BFF"/>
<path opacity="0.3" d="M10.8007 368.425H273.499C279.845 368.425 284.996 373.578 284.996 379.927V589.297C284.996 595.646 279.845 600.799 273.499 600.799H10.8007C4.45429 600.799 -0.696655 595.646 -0.696655 589.297V379.927C-0.696655 373.578 4.45429 368.425 10.8007 368.425Z" fill="black"/>
<path d="M274.413 378.942C274.413 381.017 273.569 382.899 272.215 384.253C270.862 385.607 268.998 386.452 266.924 386.452H19.0281C14.8968 386.452 11.5391 383.093 11.5391 378.942C11.5391 376.867 12.3829 375.003 13.7366 373.648C15.0902 372.294 16.9713 371.45 19.0281 371.45H266.924C271.055 371.45 274.413 374.809 274.413 378.942Z" fill="#263238"/>
<path d="M239.71 317.494C270.692 317.494 295.808 292.368 295.808 261.374C295.808 230.381 270.692 205.255 239.71 205.255C208.728 205.255 183.612 230.381 183.612 261.374C183.612 292.368 208.728 317.494 239.71 317.494Z" fill="#407BFF"/>
<path opacity="0.3" d="M239.71 317.494C270.692 317.494 295.808 292.368 295.808 261.374C295.808 230.381 270.692 205.255 239.71 205.255C208.728 205.255 183.612 230.381 183.612 261.374C183.612 292.368 208.728 317.494 239.71 317.494Z" fill="white"/>
<path opacity="0.6" d="M239.71 217.46C215.467 217.46 195.813 237.122 195.813 261.374C195.813 285.627 215.467 305.289 239.71 305.289C263.953 305.289 283.607 285.627 283.607 261.374C283.607 237.122 263.953 217.46 239.71 217.46ZM243.753 286.365V294.191H236.774V286.576C229.865 286.154 223.237 283.991 219.387 280.984L223.22 272.472C226.718 275.057 231.729 276.939 236.756 277.431V265.771C229.004 263.889 220.354 261.304 220.354 251.315C220.354 243.911 225.734 237.562 236.756 236.296V228.54H243.736V236.155C248.975 236.577 254.073 237.966 257.905 240.411L254.424 248.993C250.873 246.971 247.234 245.775 243.753 245.371V257.242C251.506 259.053 260.015 261.638 260.015 271.487C260.015 278.75 254.706 285.029 243.753 286.365Z" fill="white"/>
<path opacity="0.6" d="M243.753 267.512V277.15C247.234 276.376 248.781 274.565 248.781 272.331C248.781 269.886 246.759 268.567 243.753 267.512Z" fill="white"/>
<path opacity="0.6" d="M231.605 250.752C231.605 253.197 233.697 254.516 236.774 255.5V245.582C233.082 246.426 231.605 248.448 231.605 250.752Z" fill="white"/>
<path d="M243.085 341.465C243.085 352.491 239.903 362.78 234.401 371.45C230.744 377.254 226.015 382.336 220.53 386.452H153.427C147.942 382.336 143.231 377.254 139.557 371.45C134.054 362.78 130.872 352.491 130.872 341.465C130.872 310.459 155.994 285.328 186.987 285.328C217.981 285.328 243.085 310.459 243.085 341.465Z" fill="#407BFF"/>
<path opacity="0.5" d="M243.085 341.465C243.085 352.491 239.903 362.78 234.401 371.45C230.744 377.254 226.015 382.336 220.53 386.452H153.427C147.942 382.336 143.231 377.254 139.557 371.45C134.054 362.78 130.872 352.491 130.872 341.465C130.872 310.459 155.994 285.328 186.987 285.328C217.981 285.328 243.085 310.459 243.085 341.465Z" fill="white"/>
<path opacity="0.6" d="M186.987 297.55C162.745 297.55 143.09 317.212 143.09 341.465C143.09 353.054 147.591 363.606 154.939 371.45C162.938 380.015 174.33 385.361 186.987 385.361C199.645 385.361 211.037 380.015 219.036 371.45C226.384 363.606 230.885 353.054 230.885 341.465C230.885 317.212 211.23 297.55 186.987 297.55ZM191.031 374.281H184.052V366.666C177.143 366.244 170.515 364.081 166.665 361.074L170.515 352.562C173.996 355.147 179.024 357.029 184.052 357.521V345.861C176.299 343.979 167.649 341.394 167.649 331.405C167.649 324.001 173.029 317.652 184.052 316.386V308.648H191.031V316.245C196.27 316.667 201.368 318.074 205.2 320.519L201.702 329.101C198.151 327.079 194.512 325.883 191.031 325.461V337.332C198.784 339.161 207.292 341.746 207.292 351.577C207.292 358.84 201.983 365.136 191.031 366.455V374.281Z" fill="white"/>
<path opacity="0.6" d="M191.031 347.602V357.24C194.512 356.466 196.059 354.655 196.059 352.421C196.059 349.977 194.037 348.658 191.031 347.602Z" fill="white"/>
<path opacity="0.6" d="M178.883 330.842C178.883 333.287 180.975 334.606 184.052 335.591V325.672C180.36 326.516 178.883 328.538 178.883 330.842Z" fill="white"/>
<path d="M256.587 394.577L9.65796 369.463C3.94446 368.882 -0.696655 373.367 -0.696655 379.47V589.719C-0.696655 595.822 3.94446 601.239 9.65796 601.819L256.587 626.933C262.3 627.513 266.941 623.029 266.941 616.926V406.676C266.941 400.574 262.3 395.157 256.587 394.577Z" fill="#407BFF"/>
<path d="M14.9848 377.06L6.17718 376.163C5.68494 376.111 5.26302 376.462 5.21028 376.955C5.15754 377.43 5.50913 377.869 5.98379 377.922L14.809 378.819H14.8969C15.3539 378.819 15.7231 378.485 15.7759 378.028C15.8286 377.535 15.477 377.113 14.9848 377.06ZM34.3931 379.03L25.5855 378.133C25.0757 378.08 24.6713 378.45 24.6186 378.924C24.5659 379.417 24.9175 379.839 25.3921 379.892L34.2173 380.789H34.3052C34.7622 380.789 35.1314 380.455 35.1842 379.997C35.2369 379.522 34.8853 379.083 34.3931 379.03ZM53.8014 381.017L44.9938 380.12C44.484 380.05 44.0797 380.419 44.0269 380.894C43.9742 381.387 44.3258 381.809 44.8004 381.861L53.6256 382.758H53.7135C54.1706 382.758 54.5397 382.424 54.5925 381.967C54.6452 381.492 54.2936 381.052 53.8014 381.017ZM73.2097 382.987L64.3846 382.09C63.9099 382.037 63.4704 382.389 63.4352 382.864C63.3825 383.356 63.7341 383.778 64.2088 383.831L73.0339 384.728H73.1218C73.5789 384.728 73.9481 384.394 74.0008 383.954C74.0536 383.462 73.702 383.04 73.2097 382.987ZM92.618 384.957L83.7929 384.06C83.3182 384.007 82.8963 384.359 82.8436 384.851C82.7908 385.326 83.1424 385.766 83.6171 385.801L92.4422 386.698C92.4422 386.698 92.5126 386.715 92.5301 386.715C92.9872 386.715 93.3564 386.364 93.4091 385.924C93.4619 385.432 93.1103 385.009 92.618 384.957ZM112.026 386.926L103.201 386.029C102.727 385.977 102.305 386.328 102.252 386.821C102.199 387.296 102.551 387.735 103.025 387.788L111.851 388.685H111.938C112.396 388.685 112.765 388.351 112.817 387.894C112.87 387.401 112.519 386.979 112.026 386.926ZM131.435 388.896L122.61 387.999C122.135 387.964 121.695 388.316 121.66 388.791C121.607 389.283 121.959 389.705 122.434 389.758L131.259 390.655H131.347C131.804 390.655 132.173 390.321 132.226 389.863C132.279 389.389 131.927 388.949 131.435 388.896ZM150.843 390.883L142.018 389.987C141.526 389.934 141.104 390.285 141.069 390.76C141.016 391.253 141.367 391.675 141.842 391.728L150.667 392.625H150.755C151.212 392.625 151.581 392.29 151.634 391.833C151.687 391.358 151.335 390.919 150.843 390.883ZM170.251 392.853L161.426 391.956C160.934 391.903 160.512 392.255 160.477 392.73C160.424 393.222 160.776 393.662 161.25 393.697L170.076 394.594C170.076 394.594 170.146 394.612 170.163 394.612C170.621 394.612 170.99 394.26 171.042 393.82C171.095 393.328 170.744 392.906 170.251 392.853ZM189.66 394.823L180.852 393.926C180.342 393.891 179.92 394.225 179.885 394.717C179.832 395.192 180.184 395.632 180.659 395.667L189.484 396.564C189.484 396.564 189.554 396.582 189.572 396.582C190.029 396.582 190.398 396.23 190.451 395.79C190.503 395.298 190.152 394.876 189.66 394.823ZM209.068 396.793L200.243 395.896C199.768 395.86 199.329 396.212 199.293 396.687C199.241 397.162 199.592 397.602 200.067 397.654L208.892 398.551H208.98C209.437 398.551 209.806 398.217 209.859 397.76C209.912 397.267 209.56 396.845 209.068 396.793ZM228.476 398.762L219.651 397.865C219.176 397.83 218.737 398.182 218.702 398.657C218.649 399.149 219.001 399.571 219.475 399.624L228.3 400.521H228.388C228.845 400.521 229.215 400.187 229.267 399.73C229.32 399.255 228.969 398.815 228.476 398.762ZM247.885 400.75L239.059 399.853C238.585 399.8 238.145 400.152 238.11 400.627C238.057 401.119 238.409 401.541 238.884 401.594L247.726 402.491L247.92 401.629L247.885 400.75ZM257.167 406.958C256.921 406.536 256.376 406.395 255.954 406.641C255.549 406.905 255.409 407.433 255.655 407.855C256.71 409.649 257.272 411.689 257.272 413.729V415.962C257.272 416.455 257.659 416.842 258.151 416.842C258.644 416.842 259.03 416.455 259.03 415.962V413.729C259.03 411.372 258.38 409.033 257.167 406.958ZM258.151 425.723C257.659 425.723 257.272 426.127 257.272 426.602V435.483C257.272 435.958 257.659 436.363 258.151 436.363C258.644 436.363 259.03 435.958 259.03 435.483V426.602C259.03 426.127 258.626 425.723 258.151 425.723ZM258.151 445.244C257.659 445.244 257.272 445.631 257.272 446.123V454.987C257.272 455.48 257.659 455.867 258.151 455.867C258.644 455.867 259.03 455.48 259.03 454.987V446.123C259.03 445.631 258.626 445.244 258.151 445.244ZM258.151 464.765C257.659 464.765 257.272 465.152 257.272 465.645V474.509C257.272 475.001 257.659 475.388 258.151 475.388C258.644 475.388 259.03 475.001 259.03 474.509V465.645C259.03 465.152 258.626 464.765 258.151 464.765ZM258.151 484.269C257.659 484.269 257.272 484.674 257.272 485.148V494.03C257.272 494.505 257.659 494.909 258.151 494.909C258.644 494.909 259.03 494.505 259.03 494.03V485.148C259.03 484.674 258.626 484.269 258.151 484.269ZM258.151 503.79C257.659 503.79 257.272 504.177 257.272 504.67V513.534C257.272 514.026 257.659 514.413 258.151 514.413C258.644 514.413 259.03 514.026 259.03 513.534V504.67C259.03 504.177 258.626 503.79 258.151 503.79ZM258.151 523.312C257.659 523.312 257.272 523.699 257.272 524.191V533.055C257.272 533.547 257.659 533.934 258.151 533.934C258.644 533.934 259.03 533.547 259.03 533.055V524.191C259.03 523.699 258.626 523.312 258.151 523.312ZM258.151 542.815C257.659 542.815 257.272 543.22 257.272 543.695V552.576C257.272 553.051 257.659 553.456 258.151 553.456C258.644 553.456 259.03 553.051 259.03 552.576V543.695C259.03 543.22 258.626 542.815 258.151 542.815ZM258.151 562.337C257.659 562.337 257.272 562.724 257.272 563.216V572.097C257.272 572.572 257.659 572.977 258.151 572.977C258.644 572.977 259.03 572.572 259.03 572.097V563.216C259.03 562.724 258.626 562.337 258.151 562.337ZM258.151 581.858C257.659 581.858 257.272 582.245 257.272 582.737V591.601C257.272 592.094 257.659 592.481 258.151 592.481C258.644 592.481 259.03 592.094 259.03 591.601V582.737C259.03 582.245 258.626 581.858 258.151 581.858ZM0.0944972 593.8C0.0944972 593.8 0.0417518 593.782 0.0065918 593.782C0.164812 594.274 0.358195 594.749 0.586735 595.206C0.709795 595.101 0.762533 594.978 0.797693 594.837C0.885593 594.362 0.569157 593.887 0.0944972 593.8ZM19.4149 595.804L10.5898 594.907C10.1151 594.855 9.6756 595.206 9.64044 595.699C9.5877 596.174 9.9393 596.613 10.414 596.649L19.2391 597.546C19.2391 597.546 19.3094 597.563 19.327 597.563C19.7841 597.563 20.1533 597.211 20.206 596.772C20.2588 596.279 19.9072 595.857 19.4149 595.804ZM38.8232 597.774L29.9981 596.877C29.5234 596.824 29.0839 597.176 29.0488 597.669C28.996 598.143 29.3476 598.583 29.8223 598.636L38.6474 599.533H38.7353C39.1924 599.533 39.5616 599.199 39.6143 598.741C39.6671 598.249 39.3155 597.827 38.8232 597.774ZM58.2316 599.744L49.4064 598.847C48.9317 598.812 48.4922 599.163 48.4571 599.638C48.4043 600.131 48.7559 600.553 49.2306 600.606L58.0558 601.503H58.1437C58.6007 601.503 58.9699 601.168 59.0227 600.711C59.0754 600.236 58.7238 599.797 58.2316 599.744ZM77.6399 601.731L68.8147 600.834C68.3401 600.782 67.9006 601.133 67.8654 601.608C67.8127 602.1 68.1643 602.523 68.6389 602.575L77.4641 603.472H77.552C78.0091 603.472 78.3782 603.138 78.431 602.681C78.4837 602.206 78.1321 601.766 77.6399 601.731ZM97.0482 603.701L88.223 602.804C87.7308 602.751 87.3089 603.103 87.2737 603.578C87.221 604.07 87.5726 604.492 88.0472 604.545L96.8724 605.442H96.9603C97.4174 605.442 97.7866 605.108 97.8393 604.668C97.892 604.176 97.5404 603.754 97.0482 603.701ZM116.457 605.671L107.631 604.774C107.157 604.721 106.717 605.073 106.682 605.565C106.629 606.04 106.981 606.48 107.456 606.515L116.281 607.412C116.281 607.412 116.351 607.429 116.369 607.429C116.826 607.429 117.195 607.078 117.248 606.638C117.3 606.145 116.949 605.723 116.457 605.671ZM135.865 607.64L127.04 606.743C126.547 606.691 126.126 607.042 126.09 607.535C126.038 608.01 126.389 608.449 126.864 608.502L135.689 609.399H135.777C136.234 609.399 136.603 609.065 136.656 608.608C136.709 608.115 136.357 607.693 135.865 607.64ZM155.273 609.61L146.448 608.713C145.973 608.66 145.534 609.03 145.499 609.505C145.446 609.997 145.798 610.419 146.272 610.472L155.097 611.369H155.185C155.642 611.369 156.012 611.035 156.064 610.577C156.117 610.102 155.765 609.663 155.273 609.61ZM258.151 601.362C257.659 601.362 257.272 601.766 257.272 602.241V609.909C257.272 610.278 257.255 610.665 257.22 611.035C257.167 611.509 257.518 611.949 257.993 611.984C258.028 612.002 258.063 612.002 258.081 612.002C258.538 612.002 258.907 611.668 258.96 611.21C259.013 610.788 259.03 610.349 259.03 609.909V602.241C259.03 601.766 258.626 601.362 258.151 601.362ZM174.681 611.597L165.856 610.7C165.364 610.648 164.942 610.999 164.907 611.474C164.854 611.967 165.206 612.389 165.681 612.441L174.506 613.338H174.594C175.051 613.338 175.42 613.004 175.473 612.547C175.525 612.072 175.174 611.633 174.681 611.597ZM194.09 613.567L185.265 612.67C184.772 612.617 184.35 612.969 184.315 613.444C184.263 613.936 184.614 614.376 185.089 614.411L193.914 615.308C193.914 615.308 193.984 615.326 194.002 615.326C194.459 615.326 194.828 614.974 194.881 614.534C194.934 614.042 194.582 613.62 194.09 613.567ZM213.498 615.537L204.673 614.64C204.181 614.587 203.759 614.939 203.724 615.431C203.671 615.906 204.023 616.346 204.497 616.381L213.322 617.278C213.322 617.278 213.393 617.295 213.41 617.295C213.867 617.295 214.236 616.944 214.289 616.504C214.342 616.012 213.99 615.59 213.498 615.537ZM232.906 617.506L224.081 616.61C223.589 616.557 223.167 616.926 223.132 617.401C223.079 617.876 223.431 618.315 223.905 618.368L232.731 619.265H232.819C233.276 619.265 233.645 618.931 233.698 618.474C233.75 617.981 233.399 617.559 232.906 617.506ZM252.983 619.001C252.807 618.544 252.297 618.333 251.84 618.509C250.609 618.984 249.291 619.177 247.885 619.037L243.49 618.579C242.997 618.544 242.575 618.896 242.54 619.371C242.488 619.863 242.839 620.285 243.314 620.338L247.709 620.778C248.078 620.813 248.43 620.83 248.799 620.83C250.082 620.83 251.33 620.602 252.491 620.145C252.948 619.951 253.159 619.441 252.983 619.001Z" fill="#263238"/>
<path d="M315.726 500.343L227.615 491.392C224.995 491.128 222.71 493.186 222.71 495.824V525.774C222.71 528.06 224.433 529.977 226.701 530.206L315.515 539.245C317.167 539.421 318.785 538.647 319.699 537.258L327.522 525.264C328.366 523.963 328.471 522.327 327.821 520.92L319.294 502.876C318.626 501.469 317.273 500.502 315.726 500.343Z" fill="#407BFF"/>
<path opacity="0.2" d="M315.726 500.343L227.615 491.392C224.995 491.128 222.71 493.186 222.71 495.824V525.774C222.71 528.06 224.433 529.977 226.701 530.206L315.515 539.245C317.167 539.421 318.785 538.647 319.699 537.258L327.522 525.264C328.366 523.963 328.471 522.327 327.821 520.92L319.294 502.876C318.626 501.469 317.273 500.502 315.726 500.343Z" fill="black"/>
<path d="M315.673 519.478C315.673 524.859 311.7 529.221 306.813 529.221C301.925 529.221 297.952 524.859 297.952 519.478C297.952 514.096 301.925 509.735 306.813 509.735C311.7 509.735 315.673 514.096 315.673 519.478Z" fill="#407BFF"/>
<path d="M705.263 600.764H442.565C436.219 600.764 431.068 595.611 431.068 589.262V379.892C431.068 373.543 436.219 368.39 442.565 368.39H705.263C711.61 368.39 716.761 373.543 716.761 379.892V589.262C716.761 595.611 711.61 600.764 705.263 600.764Z" fill="#263238"/>
<path opacity="0.2" d="M705.263 600.764H442.565C436.219 600.764 431.068 595.611 431.068 589.262V379.892C431.068 373.543 436.219 368.39 442.565 368.39H705.263C711.61 368.39 716.761 373.543 716.761 379.892V589.262C716.761 595.611 711.61 600.764 705.263 600.764Z" fill="white"/>
<path d="M449.14 386.452L697.018 386.452C701.164 386.452 704.525 383.09 704.525 378.942C704.525 374.795 701.164 371.433 697.018 371.433L449.14 371.433C444.994 371.433 441.634 374.795 441.634 378.942C441.634 383.09 444.994 386.452 449.14 386.452Z" fill="#263238"/>
<path d="M459.477 394.577L706.406 369.463C712.12 368.883 716.761 373.367 716.761 379.47V589.72C716.761 595.822 712.12 601.239 706.406 601.819L459.477 626.933C453.764 627.514 449.123 623.029 449.123 616.926V406.676C449.123 400.574 453.764 395.157 459.477 394.577Z" fill="#263238"/>
<path opacity="0.4" d="M459.477 394.577L706.406 369.463C712.12 368.883 716.761 373.367 716.761 379.47V589.72C716.761 595.822 712.12 601.239 706.406 601.819L459.477 626.933C453.764 627.514 449.123 623.029 449.123 616.926V406.676C449.123 400.574 453.764 395.157 459.477 394.577Z" fill="white"/>
<path d="M700.288 378.028C700.341 378.485 700.71 378.819 701.167 378.819H701.255L710.08 377.922C710.555 377.869 710.907 377.43 710.854 376.955C710.801 376.462 710.379 376.111 709.887 376.163L701.079 377.06C700.587 377.113 700.236 377.535 700.288 378.028ZM680.88 379.997C680.933 380.455 681.302 380.789 681.759 380.789H681.847L690.672 379.892C691.147 379.839 691.498 379.417 691.446 378.925C691.393 378.45 690.988 378.08 690.479 378.133L681.671 379.03C681.179 379.083 680.827 379.523 680.88 379.997ZM661.472 381.967C661.524 382.424 661.894 382.758 662.351 382.758H662.439L671.264 381.862C671.738 381.809 672.09 381.387 672.037 380.894C671.984 380.419 671.58 380.05 671.07 380.12L662.263 381.017C661.77 381.053 661.419 381.492 661.472 381.967ZM642.063 383.954C642.116 384.394 642.485 384.728 642.942 384.728H643.03L651.855 383.831C652.33 383.779 652.682 383.356 652.629 382.864C652.594 382.389 652.154 382.037 651.68 382.09L642.854 382.987C642.362 383.04 642.011 383.462 642.063 383.954ZM622.655 385.924C622.708 386.364 623.077 386.715 623.534 386.715C623.552 386.715 623.587 386.716 623.622 386.698L632.447 385.801C632.922 385.766 633.273 385.326 633.221 384.851C633.168 384.359 632.746 384.007 632.271 384.06L623.446 384.957C622.954 385.01 622.602 385.432 622.655 385.924ZM603.247 387.894C603.299 388.351 603.669 388.685 604.126 388.685H604.214L613.039 387.788C613.513 387.736 613.865 387.296 613.812 386.821C613.76 386.329 613.338 385.977 612.863 386.03L604.038 386.927C603.546 386.979 603.194 387.401 603.247 387.894ZM583.838 389.864C583.891 390.321 584.26 390.655 584.717 390.655H584.805L593.63 389.758C594.105 389.705 594.457 389.283 594.404 388.791C594.369 388.316 593.929 387.964 593.455 387.999L584.629 388.896C584.137 388.949 583.786 389.389 583.838 389.864ZM564.43 391.833C564.483 392.291 564.852 392.625 565.309 392.625H565.397L574.222 391.728C574.697 391.675 575.048 391.253 574.996 390.76C574.96 390.286 574.539 389.934 574.046 389.987L565.221 390.884C564.729 390.919 564.377 391.358 564.43 391.833ZM545.022 393.821C545.074 394.26 545.444 394.612 545.901 394.612C545.918 394.612 545.953 394.594 545.989 394.594L554.814 393.697C555.288 393.662 555.64 393.223 555.587 392.73C555.552 392.255 555.13 391.904 554.638 391.956L545.813 392.853C545.321 392.906 544.969 393.328 545.022 393.821ZM525.613 395.79C525.666 396.23 526.035 396.582 526.492 396.582C526.51 396.582 526.545 396.582 526.58 396.564L535.405 395.667C535.88 395.632 536.232 395.192 536.179 394.717C536.144 394.225 535.722 393.891 535.212 393.926L526.404 394.823C525.912 394.876 525.561 395.298 525.613 395.79ZM506.205 397.76C506.258 398.217 506.627 398.551 507.084 398.551H507.172L515.997 397.654C516.472 397.602 516.823 397.162 516.771 396.687C516.735 396.212 516.296 395.861 515.821 395.896L506.996 396.793C506.504 396.845 506.152 397.268 506.205 397.76ZM486.797 399.73C486.849 400.187 487.219 400.521 487.676 400.521H487.764L496.589 399.624C497.063 399.571 497.415 399.149 497.362 398.657C497.327 398.182 496.888 397.83 496.413 397.866L487.588 398.762C487.096 398.815 486.744 399.255 486.797 399.73ZM468.144 401.629L468.338 402.491L477.18 401.594C477.655 401.541 478.007 401.119 477.954 400.627C477.919 400.152 477.479 399.8 477.005 399.853L468.18 400.75L468.144 401.629ZM457.034 413.729V415.962C457.034 416.455 457.438 416.842 457.913 416.842C458.387 416.842 458.792 416.455 458.792 415.962V413.729C458.792 411.689 459.354 409.649 460.409 407.855C460.655 407.433 460.515 406.905 460.11 406.641C459.688 406.395 459.143 406.536 458.897 406.958C457.684 409.033 457.034 411.372 457.034 413.729ZM457.034 426.602V435.484C457.034 435.958 457.438 436.363 457.913 436.363C458.387 436.363 458.792 435.958 458.792 435.484V426.602C458.792 426.127 458.405 425.723 457.913 425.723C457.421 425.723 457.034 426.127 457.034 426.602ZM457.034 446.124V454.987C457.034 455.48 457.438 455.867 457.913 455.867C458.387 455.867 458.792 455.48 458.792 454.987V446.124C458.792 445.631 458.405 445.244 457.913 445.244C457.421 445.244 457.034 445.631 457.034 446.124ZM457.034 465.645V474.509C457.034 475.001 457.438 475.388 457.913 475.388C458.387 475.388 458.792 475.001 458.792 474.509V465.645C458.792 465.152 458.405 464.766 457.913 464.766C457.421 464.766 457.034 465.152 457.034 465.645ZM457.034 485.149V494.03C457.034 494.505 457.438 494.909 457.913 494.909C458.387 494.909 458.792 494.505 458.792 494.03V485.149C458.792 484.674 458.405 484.269 457.913 484.269C457.421 484.269 457.034 484.674 457.034 485.149ZM457.034 504.67V513.534C457.034 514.026 457.438 514.413 457.913 514.413C458.387 514.413 458.792 514.026 458.792 513.534V504.67C458.792 504.177 458.405 503.791 457.913 503.791C457.421 503.791 457.034 504.177 457.034 504.67ZM457.034 524.191V533.055C457.034 533.547 457.438 533.934 457.913 533.934C458.387 533.934 458.792 533.547 458.792 533.055V524.191C458.792 523.699 458.405 523.312 457.913 523.312C457.421 523.312 457.034 523.699 457.034 524.191ZM457.034 543.695V552.576C457.034 553.051 457.438 553.456 457.913 553.456C458.387 553.456 458.792 553.051 458.792 552.576V543.695C458.792 543.22 458.405 542.816 457.913 542.816C457.421 542.816 457.034 543.22 457.034 543.695ZM457.034 563.216V572.098C457.034 572.572 457.438 572.977 457.913 572.977C458.387 572.977 458.792 572.572 458.792 572.098V563.216C458.792 562.724 458.405 562.337 457.913 562.337C457.421 562.337 457.034 562.724 457.034 563.216ZM457.034 582.738V591.601C457.034 592.094 457.438 592.481 457.913 592.481C458.387 592.481 458.792 592.094 458.792 591.601V582.738C458.792 582.245 458.405 581.858 457.913 581.858C457.421 581.858 457.034 582.245 457.034 582.738ZM715.266 594.837C715.302 594.978 715.354 595.101 715.477 595.207C715.706 594.749 715.899 594.275 716.058 593.782C716.022 593.782 716.005 593.8 715.97 593.8C715.495 593.888 715.178 594.362 715.266 594.837ZM695.858 596.772C695.911 597.211 696.28 597.563 696.737 597.563C696.755 597.563 696.79 597.563 696.825 597.546L705.65 596.649C706.125 596.614 706.476 596.174 706.424 595.699C706.389 595.207 705.949 594.855 705.474 594.908L696.649 595.805C696.157 595.857 695.805 596.279 695.858 596.772ZM676.45 598.742C676.503 599.199 676.872 599.533 677.329 599.533H677.417L686.242 598.636C686.716 598.583 687.068 598.144 687.015 597.669C686.98 597.176 686.541 596.825 686.066 596.877L677.241 597.774C676.749 597.827 676.397 598.249 676.45 598.742ZM657.041 600.711C657.094 601.169 657.463 601.503 657.92 601.503H658.008L666.834 600.606C667.308 600.553 667.66 600.131 667.607 599.638C667.572 599.164 667.132 598.812 666.658 598.847L657.833 599.744C657.34 599.797 656.989 600.236 657.041 600.711ZM637.633 602.681C637.686 603.138 638.055 603.472 638.512 603.472H638.6L647.425 602.575C647.9 602.523 648.251 602.101 648.199 601.608C648.164 601.133 647.724 600.782 647.249 600.834L638.424 601.731C637.932 601.766 637.58 602.206 637.633 602.681ZM618.225 604.668C618.278 605.108 618.647 605.442 619.104 605.442H619.192L628.017 604.545C628.492 604.492 628.843 604.07 628.79 603.578C628.755 603.103 628.333 602.751 627.841 602.804L619.016 603.701C618.524 603.754 618.172 604.176 618.225 604.668ZM598.816 606.638C598.869 607.078 599.238 607.429 599.696 607.429C599.696 607.429 599.748 607.429 599.783 607.412L608.609 606.515C609.083 606.48 609.435 606.04 609.382 605.565C609.347 605.073 608.907 604.721 608.433 604.774L599.608 605.671C599.115 605.724 598.764 606.146 598.816 606.638ZM579.408 608.608C579.461 609.065 579.83 609.399 580.287 609.399H580.375L589.2 608.502C589.675 608.449 590.027 608.01 589.974 607.535C589.939 607.043 589.517 606.691 589.024 606.744L580.199 607.64C579.707 607.693 579.355 608.115 579.408 608.608ZM560 610.577C560.053 611.035 560.422 611.369 560.879 611.369H560.967L569.792 610.472C570.267 610.419 570.618 609.997 570.565 609.505C570.53 609.03 570.091 608.66 569.616 608.713L560.791 609.61C560.299 609.663 559.947 610.103 560 610.577ZM457.034 602.241V609.909C457.034 610.349 457.051 610.788 457.104 611.211C457.157 611.668 457.526 612.002 457.983 612.002C457.983 612.002 458.036 612.002 458.071 611.984C458.546 611.949 458.897 611.51 458.845 611.035C458.809 610.665 458.792 610.278 458.792 609.909V602.241C458.792 601.766 458.405 601.362 457.913 601.362C457.421 601.362 457.034 601.766 457.034 602.241ZM540.592 612.547C540.644 613.004 541.013 613.339 541.471 613.339H541.558L550.384 612.442C550.858 612.389 551.21 611.967 551.157 611.474C551.122 611 550.7 610.648 550.208 610.701L541.383 611.597C540.89 611.633 540.539 612.072 540.592 612.547ZM521.183 614.534C521.236 614.974 521.605 615.326 522.062 615.326C522.062 615.326 522.115 615.308 522.15 615.308L530.975 614.411C531.45 614.376 531.802 613.936 531.749 613.444C531.714 612.969 531.292 612.617 530.799 612.67L521.974 613.567C521.482 613.62 521.13 614.042 521.183 614.534ZM501.775 616.504C501.828 616.944 502.197 617.296 502.654 617.296C502.654 617.296 502.707 617.296 502.742 617.278L511.567 616.381C512.042 616.346 512.393 615.906 512.34 615.431C512.305 614.939 511.883 614.587 511.391 614.64L502.566 615.537C502.074 615.59 501.722 616.012 501.775 616.504ZM482.367 618.474C482.419 618.931 482.789 619.265 483.246 619.265H483.333L492.159 618.368C492.633 618.316 492.985 617.876 492.932 617.401C492.897 616.926 492.475 616.557 491.983 616.61L483.158 617.507C482.665 617.559 482.314 617.981 482.367 618.474ZM463.574 620.145C464.734 620.602 465.982 620.831 467.265 620.831C467.635 620.831 467.986 620.831 468.355 620.778L472.75 620.338C473.225 620.285 473.577 619.863 473.524 619.371C473.489 618.896 473.067 618.544 472.575 618.579L468.18 619.037C466.773 619.177 465.455 618.984 464.224 618.509C463.767 618.333 463.257 618.544 463.081 619.001C462.906 619.441 463.116 619.951 463.574 620.145Z" fill="white"/>
<path d="M497.749 511.88C497.749 518.739 492.844 524.297 486.797 524.297C480.749 524.297 475.844 518.739 475.844 511.88C475.844 505.022 480.749 499.464 486.797 499.464C492.844 499.464 497.749 505.022 497.749 511.88Z" fill="#263238"/>
<path opacity="0.2" d="M494.145 511.88C494.145 516.347 490.946 519.988 486.99 519.988C483.035 519.988 479.835 516.365 479.835 511.88C479.835 507.396 483.035 503.773 486.99 503.773C490.946 503.773 494.145 507.396 494.145 511.88Z" fill="white"/>
<path d="M467.273 213.386C474.39 183.221 455.715 152.996 425.561 145.876C395.408 138.757 365.194 157.439 358.077 187.604C350.961 217.769 369.635 247.994 399.789 255.114C429.942 262.233 460.156 243.551 467.273 213.386Z" fill="#407BFF"/>
<path opacity="0.5" d="M467.273 213.386C474.39 183.221 455.715 152.996 425.561 145.876C395.408 138.757 365.194 157.439 358.077 187.604C350.961 217.769 369.635 247.994 399.789 255.114C429.942 262.233 460.156 243.551 467.273 213.386Z" fill="white"/>
<path opacity="0.6" d="M412.679 156.593C388.437 156.593 368.782 176.255 368.782 200.507C368.782 224.759 388.437 244.421 412.679 244.421C436.922 244.421 456.577 224.759 456.577 200.507C456.577 176.255 436.922 156.593 412.679 156.593ZM416.723 225.498V233.324H409.744V225.709C402.835 225.287 396.207 223.123 392.357 220.116L396.189 211.604C399.688 214.189 404.698 216.071 409.726 216.564V204.903C401.973 203.022 393.324 200.436 393.324 190.447C393.324 183.043 398.703 176.694 409.726 175.428V167.672H416.705V175.287C421.944 175.709 427.042 177.099 430.875 179.543L427.394 188.126C423.843 186.103 420.204 184.907 416.723 184.503V196.374C424.476 198.185 432.984 200.771 432.984 210.619C432.984 217.883 427.675 224.161 416.723 225.498Z" fill="white"/>
<path opacity="0.6" d="M416.723 206.645V216.282C420.204 215.508 421.751 213.697 421.751 211.463C421.751 209.019 419.729 207.7 416.723 206.645Z" fill="white"/>
<path opacity="0.6" d="M404.575 189.884C404.575 192.329 406.667 193.648 409.744 194.633V184.714C406.052 185.558 404.575 187.581 404.575 189.884Z" fill="white"/>
<path d="M551.095 373.86C579.718 361.999 593.311 329.171 581.455 300.536C569.598 271.902 536.783 258.304 508.159 270.165C479.536 282.026 465.943 314.854 477.799 343.488C489.656 372.123 522.471 385.721 551.095 373.86Z" fill="#407BFF"/>
<path opacity="0.3" d="M551.095 373.86C579.718 361.999 593.311 329.171 581.455 300.536C569.598 271.902 536.783 258.304 508.159 270.165C479.536 282.026 465.943 314.854 477.799 343.488C489.656 372.123 522.471 385.721 551.095 373.86Z" fill="white"/>
<path opacity="0.6" d="M529.622 278.117C505.379 278.117 485.724 297.779 485.724 322.031C485.724 346.283 505.379 365.945 529.622 365.945C553.864 365.945 573.519 346.283 573.519 322.031C573.519 297.779 553.864 278.117 529.622 278.117ZM533.665 347.022V354.848H526.686V347.233C519.777 346.811 513.149 344.648 509.299 341.641L513.132 333.129C516.63 335.714 521.64 337.596 526.668 338.088V326.428C518.915 324.546 510.266 321.961 510.266 311.972C510.266 304.568 515.646 298.219 526.668 296.953V289.197H533.647V296.812C538.886 297.234 543.984 298.623 547.817 301.068L544.336 309.65C540.785 307.628 537.146 306.432 533.665 306.027V317.898C541.418 319.71 549.927 322.295 549.927 332.144C549.927 339.407 544.617 345.686 533.665 347.022Z" fill="white"/>
<path opacity="0.6" d="M533.665 328.169V337.807C537.146 337.033 538.693 335.221 538.693 332.988C538.693 330.543 536.671 329.224 533.665 328.169Z" fill="white"/>
<path opacity="0.6" d="M521.517 311.409C521.517 313.853 523.609 315.172 526.686 316.157V306.238C522.994 307.083 521.517 309.105 521.517 311.409Z" fill="white"/>
<path d="M173.463 92.9605L149.343 92.8636C145.761 92.8492 142.845 95.743 142.83 99.327L142.734 123.456C142.719 127.04 145.612 129.957 149.194 129.971L173.314 130.068C176.897 130.083 179.813 127.189 179.827 123.605L179.924 99.476C179.938 95.892 177.046 92.9749 173.463 92.9605Z" fill="#407BFF"/>
<path d="M165.118 127.768C165.118 127.768 160.195 138.883 149.296 142.312C149.296 142.312 155.343 138.865 154.922 127.258L165.118 127.768Z" fill="#407BFF"/>
<path opacity="0.6" d="M161.321 123.266C167.826 123.266 173.099 117.99 173.099 111.483C173.099 104.975 167.826 99.6995 161.321 99.6995C154.816 99.6995 149.542 104.975 149.542 111.483C149.542 117.99 154.816 123.266 161.321 123.266Z" fill="white"/>
<path d="M159.738 117.269C159.475 117.269 159.229 117.146 159.053 116.917L153.99 110.304C153.691 109.917 153.761 109.372 154.148 109.073C154.535 108.774 155.08 108.845 155.379 109.231L159.774 114.965L167.104 106.083C167.421 105.714 167.966 105.661 168.335 105.96C168.704 106.277 168.757 106.822 168.458 107.191L160.424 116.934C160.248 117.146 160.002 117.251 159.738 117.251V117.269Z" fill="#407BFF"/>
<path d="M558.213 146.737L582.332 146.703C585.915 146.698 588.815 143.789 588.81 140.205L588.777 116.076C588.772 112.492 585.863 109.59 582.281 109.595L558.161 109.629C554.578 109.634 551.678 112.544 551.683 116.128L551.717 140.257C551.722 143.841 554.63 146.742 558.213 146.737Z" fill="#407BFF"/>
<path opacity="0.6" d="M560.018 120.909C562.637 116.653 567.63 118.271 570.232 121.577C572.816 118.271 577.809 116.618 580.446 120.874C584.876 128.049 575.787 134.697 571.48 137.317C570.987 137.616 570.583 137.863 570.249 138.056C569.915 137.863 569.511 137.616 569.019 137.317C564.711 134.715 555.605 128.084 560.018 120.909Z" fill="white"/>
<path d="M566.276 143.895C566.276 143.895 571.163 155.027 582.063 158.474C582.063 158.474 576.033 155.01 576.473 143.402L566.276 143.877V143.895Z" fill="#407BFF"/>
<path d="M579.988 244.263C579.988 244.263 578.178 247.78 575.224 252.599C572.464 257.171 568.667 262.922 564.483 267.987C558.312 275.409 551.263 281.318 545.215 279.77C530.712 276.059 539.484 250.084 539.484 250.084L552.019 253.373C552.019 253.373 568.526 213.451 578.283 212.659L579.988 244.263Z" fill="#407BFF"/>
<path opacity="0.2" d="M575.224 252.599C572.464 257.171 568.667 262.922 564.483 267.987C563.393 254.692 573.501 241.273 573.501 241.273L575.224 252.599Z" fill="black"/>
<path d="M573.396 282.813C573.396 282.813 593.648 297.058 653.297 293.576C653.297 293.576 636.121 252.757 603.071 251.42C570.021 250.084 573.396 282.813 573.396 282.813Z" fill="#407BFF"/>
<path opacity="0.1" d="M573.396 282.813C573.396 282.813 593.648 297.058 653.297 293.576C653.297 293.576 636.121 252.757 603.071 251.42C570.021 250.084 573.396 282.813 573.396 282.813Z" fill="black"/>
<path d="M525.754 615.167L537.462 617.243L542.262 601.274L546.639 586.606L533.138 581.893L529.217 599.515L525.754 615.167Z" fill="white"/>
<path d="M540.099 616.926C540.293 615.625 524.26 613.848 524.26 613.848C524.26 613.848 512.745 622.061 502.882 622.607C493.002 623.169 497.31 629.782 507.893 631.664C518.476 633.546 526.58 634.97 534.105 636.289C541.629 637.626 538.06 630.38 540.117 616.926H540.099Z" fill="#263238"/>
<path d="M513.87 615.801C513.606 615.502 513.378 614.939 513.782 614.042C513.975 613.602 514.327 613.303 514.819 613.11C515.751 612.776 517.122 612.987 518.441 613.356C517.28 612.441 516.296 611.404 516.384 610.56C516.454 610.015 516.876 609.628 517.667 609.417C518.406 609.223 519.091 609.311 519.724 609.716C521.711 610.982 522.396 614.921 522.431 615.097C522.431 615.167 522.431 615.22 522.431 615.291C522.431 615.291 522.414 615.361 522.379 615.396C522.379 615.396 522.308 615.484 522.273 615.519C522.273 615.519 522.185 615.572 522.133 615.59C521.377 615.801 518.581 616.539 516.384 616.539C515.276 616.539 514.327 616.346 513.87 615.818V615.801ZM515.118 613.919C514.854 614.024 514.661 614.165 514.573 614.394C514.309 614.992 514.468 615.185 514.538 615.255C515.171 616.012 518.23 615.642 520.744 615.062C519.038 614.358 516.384 613.461 515.136 613.919H515.118ZM517.913 610.226C517.685 610.296 517.28 610.437 517.245 610.648C517.157 611.369 519.214 613.004 521.412 614.306C521.078 613.004 520.375 611.105 519.285 610.419C519.003 610.243 518.704 610.138 518.388 610.138C518.23 610.138 518.072 610.155 517.896 610.208L517.913 610.226Z" fill="#407BFF"/>
<path opacity="0.2" d="M529.147 599.867L542.209 601.59L546.621 586.765L533.12 581.981L529.147 599.867Z" fill="black"/>
<path d="M604.811 619.599H616.695L618.647 603.05L620.422 587.838L606.306 585.551L605.514 603.578L604.811 619.599Z" fill="white"/>
<path d="M619.244 618.843C619.209 617.524 603.106 618.562 603.106 618.562C603.106 618.562 593.191 628.639 583.575 630.908C573.941 633.176 579.32 638.945 590.079 638.945H616.695C624.343 638.945 619.561 632.438 619.244 618.843Z" fill="#263238"/>
<path d="M593.226 622.308C592.91 622.044 592.593 621.551 592.839 620.584C592.962 620.127 593.244 619.758 593.701 619.494C594.562 619.001 595.951 618.966 597.305 619.107C596.004 618.403 594.843 617.559 594.791 616.715C594.756 616.17 595.107 615.713 595.846 615.361C596.531 615.044 597.234 615.009 597.938 615.308C600.117 616.223 601.471 619.986 601.524 620.145C601.559 620.25 601.559 620.373 601.524 620.479C601.524 620.514 601.489 620.549 601.471 620.567C601.471 620.567 601.383 620.655 601.33 620.672C600.487 621.077 596.9 622.712 594.65 622.712C594.07 622.712 593.56 622.607 593.226 622.325V622.308ZM594.123 620.232C593.877 620.373 593.718 620.567 593.666 620.795C593.507 621.428 593.701 621.587 593.771 621.639C594.527 622.273 597.48 621.376 599.854 620.373C598.043 619.969 595.283 619.564 594.123 620.232ZM596.232 616.117C596.004 616.223 595.652 616.434 595.652 616.662C595.687 617.383 597.99 618.632 600.381 619.547C599.819 618.333 598.799 616.574 597.621 616.082C597.41 615.994 597.182 615.941 596.971 615.941C596.725 615.941 596.478 615.994 596.232 616.117Z" fill="#407BFF"/>
<path opacity="0.2" d="M605.514 603.947L618.647 603.367L620.422 588.013L606.306 585.622L605.514 603.947Z" fill="black"/>
<path d="M530.729 580.662L549.979 584.056C569.405 535.64 583.223 495.226 592.98 461.688C598.236 443.591 602.333 427.499 605.479 413.219L604.6 465.926V585.657H624.149C671.703 358.788 638.002 306.942 638.002 306.942L581.113 297.216C578.951 305.711 577.316 319.481 576.349 329.066L573.783 347.884L551.544 462.761L530.729 580.662Z" fill="#407BFF"/>
<path opacity="0.6" d="M530.729 580.662L549.979 584.056C569.405 535.64 583.223 495.226 592.98 461.688C598.236 443.591 602.333 427.499 605.479 413.219L604.6 465.926V585.657H624.149C671.703 358.788 638.002 306.942 638.002 306.942L581.113 297.216C578.951 305.711 577.316 319.481 576.349 329.066L573.783 347.884L551.544 462.761L530.729 580.662Z" fill="white"/>
<path d="M552.985 581.682L529.112 573.751L529.428 583.916L549.188 590.212L552.985 581.682Z" fill="#407BFF"/>
<path d="M626.698 582.773L601.805 579.132L603.88 589.086L624.431 591.847L626.698 582.773Z" fill="#407BFF"/>
<path d="M638.002 298.43V306.924L579.988 302.475V292.433L638.002 298.43Z" fill="#263238"/>
<path d="M592.555 304.097L605.232 305.233L606.093 295.617L593.416 294.48L592.555 304.097Z" fill="white"/>
<path d="M617.751 309.57L620.631 309.717L621.378 295.051L618.499 294.904L617.751 309.57Z" fill="#407BFF"/>
<path opacity="0.6" d="M617.751 309.57L620.631 309.717L621.378 295.051L618.499 294.904L617.751 309.57Z" fill="white"/>
<path d="M582.329 305.655L585.208 305.802L585.956 291.136L583.077 290.989L582.329 305.655Z" fill="#407BFF"/>
<path opacity="0.6" d="M582.329 305.655L585.208 305.802L585.956 291.136L583.077 290.989L582.329 305.655Z" fill="white"/>
<path opacity="0.2" d="M592.98 461.688C598.236 443.591 602.333 427.499 605.479 413.219C605.479 413.219 605.163 385.467 601.805 362.674C601.805 362.674 593.472 427.868 592.98 461.688Z" fill="black"/>
<path d="M698.46 230.211L701.273 216.898C701.273 216.898 698.636 212.501 699.216 210.232C699.796 207.963 707.144 196.022 709.061 195.864C710.977 195.688 719.363 202.652 718.8 205.572C718.237 208.491 710.414 217.9 709.324 218.498L707.18 232.849L698.46 230.193V230.211Z" fill="white"/>
<path d="M579.689 294.191L637.721 298.922C639.092 278.609 640.481 265.507 653.244 229.314C654.352 226.148 655.547 222.789 656.866 219.237C648.99 216.862 640.956 215.051 632.799 213.767C624.184 212.325 615.465 211.463 606.745 211.182C595.441 211.094 582.485 212.307 582.485 212.307C582.485 212.307 580.639 212.729 579.478 223.985C578.406 234.572 577.369 255.729 579.707 294.209L579.689 294.191Z" fill="#407BFF"/>
<path opacity="0.3" d="M579.689 294.191L637.721 298.922C639.092 278.609 640.481 265.507 653.244 229.314C654.352 226.148 655.547 222.789 656.866 219.237C648.99 216.862 640.956 215.051 632.799 213.767C624.184 212.325 615.465 211.463 606.745 211.182C595.441 211.094 582.485 212.307 582.485 212.307C582.485 212.307 580.639 212.729 579.478 223.985C578.406 234.572 577.369 255.729 579.707 294.209L579.689 294.191Z" fill="black"/>
<path d="M611.509 224.003C625.802 222.174 630.109 216.053 630.109 216.053C621.038 207.489 628.579 192.645 628.579 192.645L611.369 195.864C611.826 198.713 612.019 201.105 612.037 203.11C612.16 213.556 607.448 213.662 607.448 213.662C604.424 219.325 611.527 223.985 611.527 223.985L611.509 224.003Z" fill="white"/>
<path opacity="0.2" d="M611.369 195.864C611.826 198.713 612.019 201.105 612.037 203.11C620.334 201.193 628.579 192.645 628.579 192.645L611.369 195.864Z" fill="black"/>
<path d="M579.461 223.967C601.26 234.133 634.645 231.758 653.227 229.314C654.334 226.148 655.53 222.789 656.848 219.237C648.972 216.862 640.938 215.051 632.781 213.767C624.167 212.325 615.447 211.463 606.728 211.182C595.424 211.094 582.467 212.307 582.467 212.307C582.467 212.307 580.621 212.729 579.461 223.985V223.967Z" fill="white"/>
<path d="M659.942 220.995C668.011 224.495 688.105 260.214 688.105 260.214L697.458 227.326L710.485 225.621C710.485 225.621 709.623 278.891 692.641 282.865C675.659 286.823 653.297 253.372 653.297 253.372L659.942 220.978V220.995Z" fill="#407BFF"/>
<path d="M631.955 138.601C655.459 142.769 663.528 205.73 630.583 196.655C620.879 193.982 582.924 158.703 599.766 148.274C616.607 137.863 631.955 138.601 631.955 138.601Z" fill="#263238"/>
<path d="M613.513 148.591C598.887 149.294 594.562 157.349 594.211 172.491C593.789 191.397 598.605 204.569 616.695 199.663C641.255 192.997 637.791 147.412 613.513 148.591Z" fill="white"/>
<path d="M603.616 171.207C603.616 171.207 601.77 175.129 599.66 177.486C599.66 177.486 601.014 179.42 603.598 178.963L603.633 171.225L603.616 171.207Z" fill="#DE5753"/>
<path d="M612.511 169.589C612.547 170.785 613.215 171.752 614.023 171.735C614.832 171.717 615.447 170.715 615.412 169.519C615.377 168.323 614.709 167.356 613.9 167.373C613.092 167.391 612.476 168.376 612.511 169.589Z" fill="#263238"/>
<path d="M614.252 167.426L611.615 166.459C611.615 166.459 612.968 168.622 614.252 167.426Z" fill="#263238"/>
<path d="M597.568 169.712C597.603 170.908 598.271 171.875 599.08 171.858C599.889 171.84 600.504 170.855 600.469 169.642C600.434 168.446 599.766 167.479 598.957 167.496C598.148 167.514 597.533 168.516 597.551 169.712H597.568Z" fill="#263238"/>
<path d="M599.291 167.549L596.654 166.582C596.654 166.582 598.008 168.745 599.291 167.549Z" fill="#263238"/>
<path d="M618.629 162.009C618.453 162.009 618.295 161.939 618.172 161.798C616.08 159.459 612.335 160.075 612.3 160.092C611.966 160.145 611.632 159.934 611.58 159.582C611.527 159.248 611.738 158.914 612.089 158.861C612.265 158.826 616.537 158.105 619.104 160.972C619.332 161.235 619.315 161.622 619.051 161.851C618.928 161.956 618.787 162.009 618.629 162.009Z" fill="#263238"/>
<path d="M595.74 161.482C595.547 161.482 595.353 161.394 595.23 161.235C595.019 160.954 595.089 160.567 595.371 160.356C598.729 157.876 601.576 158.738 601.7 158.773C602.034 158.879 602.209 159.231 602.104 159.547C601.998 159.881 601.647 160.057 601.33 159.952C601.225 159.916 598.922 159.266 596.109 161.341C596.004 161.429 595.863 161.464 595.74 161.464V161.482Z" fill="#263238"/>
<path d="M630.671 172.473C630.671 172.473 623.252 160.778 623.85 151.457C623.85 151.457 594.298 141.011 594.298 170.504C594.298 170.504 590.202 144.51 615.324 142.717C640.393 140.923 642.098 177.714 629.652 189.304C629.652 189.304 635.295 179.789 630.706 172.473H630.671Z" fill="#263238"/>
<path d="M628.439 175.674C628.439 173.317 630.654 169.202 635.066 169.484C639.62 169.765 642.239 178.963 631.076 181.742C629.476 182.146 628.491 180.598 628.456 175.674H628.439Z" fill="white"/>
<path d="M631.955 138.601C631.955 138.601 611.07 133.818 596.619 145.355C582.168 156.891 621.266 158.545 621.266 158.545L611.843 153.11C611.843 153.11 623.833 157.788 629.353 156.522L631.955 138.601Z" fill="#263238"/>
<path d="M644.103 177.697C644.103 177.697 649.429 189.533 642.098 198.625C642.098 198.625 646.089 209.669 634.996 216.124C634.996 216.124 636.332 222.191 626.575 228.417C626.575 228.417 622.848 237.421 624.466 244.245L618.207 240.358C618.207 240.358 619.051 232.057 623.464 227.59C623.464 227.59 622.602 214.207 628.298 210.39C628.298 210.39 626.716 201.861 627.947 198.308C627.947 198.308 632.078 182.902 632.658 181.249C632.658 181.249 641.677 180.968 644.085 177.679L644.103 177.697Z" fill="#263238"/>
<path d="M608.503 160.409C608.503 160.409 608.468 160.409 608.433 160.409C607.782 160.303 592.523 157.894 591.925 152.688C591.327 147.483 598.289 144.423 598.588 144.299C598.799 144.211 599.063 144.299 599.15 144.528C599.238 144.739 599.15 145.003 598.922 145.091C598.852 145.126 592.242 148.028 592.787 152.6C593.226 156.399 604.337 158.914 608.573 159.582C608.802 159.617 608.96 159.829 608.925 160.075C608.89 160.286 608.714 160.444 608.503 160.444V160.409Z" fill="#263238"/>
<path d="M603.071 181.953C604.126 183.659 605.391 186.93 605.391 186.93C605.708 186.877 606.024 186.807 606.341 186.736C610.63 185.804 612.3 183.958 612.863 182.199C613.162 181.232 613.127 180.282 612.986 179.526C612.845 178.647 612.546 178.066 612.546 178.066C610.577 179.913 606.64 181.091 604.512 181.636C603.633 181.865 603.053 181.97 603.053 181.97L603.071 181.953Z" fill="#263238"/>
<path d="M604.53 181.601L605.251 183.043C609.277 182.164 612.002 181.003 613.004 179.49C612.863 178.611 612.564 178.031 612.564 178.031C610.595 179.877 606.657 181.056 604.53 181.601Z" fill="white"/>
<path d="M606.341 186.719C610.63 185.787 612.3 183.94 612.863 182.181C611.421 182.551 609.716 183.166 608.31 184.151C607.237 184.907 606.657 185.839 606.341 186.719Z" fill="#DE5753"/>
<path d="M659.942 220.995L640.27 213.169C640.27 213.169 621.723 242.785 632.851 268.532C643.98 294.279 653.279 293.576 653.279 293.576L659.925 220.995H659.942Z" fill="#407BFF"/>
<path d="M578.283 212.659C578.881 210.689 598.43 210.091 598.43 210.091C598.43 210.091 593.226 268.198 573.396 282.813C573.396 282.813 569.054 243.489 578.283 212.659Z" fill="#407BFF"/>
<path d="M566.434 231.248C566.54 232.145 565.889 232.866 564.975 232.866H548.907C548.01 232.866 547.184 232.145 547.096 231.248L543.51 199.522C543.405 198.625 544.055 197.693 544.969 197.693H561.037C561.934 197.693 562.76 198.642 562.848 199.522L566.434 231.248Z" fill="#263238"/>
<path opacity="0.5" d="M561.072 199.328L564.711 231.354C564.817 232.251 564.342 232.866 563.445 232.866H549.821C548.907 232.866 547.237 232.356 547.131 231.459L543.492 199.311C543.387 198.414 544.951 197.693 545.865 197.693H559.49C560.387 197.693 560.967 198.414 561.072 199.311V199.328Z" fill="white"/>
<path d="M540.926 250.453L546.27 234.59C546.27 234.59 544.863 228.153 545.215 224.495C545.567 220.837 555.306 218.234 555.833 219.096C556.361 219.958 559.613 230.58 558.418 233.359C557.222 236.137 554.796 238.23 554.796 238.23L551.192 253.126L540.926 250.436V250.453Z" fill="white"/>
<path opacity="0.2" d="M656.637 257.189C656.637 257.189 653.543 252.106 652.523 244.263C652.523 244.263 647.777 261.797 655.213 272.753L656.637 257.189Z" fill="black"/>
<path d="M140.031 215.42C145.71 215.684 169.53 247.674 169.53 247.674L178.373 236.173C178.373 236.173 192.015 262.676 185.265 275.286C178.514 287.895 142.985 253.425 142.985 253.425L140.049 215.438L140.031 215.42Z" fill="#407BFF"/>
<path opacity="0.6" d="M140.031 215.438L142.369 240.956L142.967 253.426C142.967 253.426 148.804 259.088 156.205 264.98C167.052 273.65 181.239 282.795 185.265 275.286C192.015 262.676 178.373 236.173 178.373 236.173L169.53 247.675L169.478 247.587C168.124 245.652 145.534 215.667 140.049 215.438H140.031Z" fill="white"/>
<path opacity="0.2" d="M142.369 240.939L142.967 253.408C142.967 253.408 148.804 259.071 156.205 264.962C156.908 249.996 142.967 228.171 142.967 228.171L142.369 240.921V240.939Z" fill="black"/>
<path opacity="0.2" d="M169.531 247.674L168.265 250.119L171.974 264.54C171.974 264.54 161.76 255.237 168.265 246.109L169.531 247.674Z" fill="black"/>
<path d="M141.227 299.872L84.9708 303.776C84.9708 303.776 84.1972 273.633 79.7143 257.945C78.2552 252.863 76.4269 247.165 74.1063 240.534C73.1218 237.721 72.0495 234.766 70.8716 231.6C69.7992 228.646 68.6214 225.515 67.338 222.227C75.0381 220.011 82.8787 218.34 90.8601 217.126C99.2633 215.79 107.772 214.981 116.316 214.717C127.339 214.647 140.014 215.755 140.014 215.755C140.014 215.755 141.807 216.142 142.95 226.623C143.987 236.472 143.512 264.083 141.227 299.89V299.872Z" fill="#407BFF"/>
<path opacity="0.6" d="M141.227 299.872L84.971 303.759C84.971 303.759 84.971 303.143 84.9183 302.018C84.6721 295.405 83.5646 271.364 79.7322 257.928C78.6949 254.305 77.4643 250.348 75.9876 245.969C75.4075 244.21 74.7922 242.398 74.1241 240.517C73.1397 237.703 72.0673 234.748 70.8894 231.583C69.817 228.628 68.6392 225.498 67.3558 222.209C75.0559 219.993 82.8966 218.322 90.8779 217.109C99.2811 215.772 107.79 214.963 116.334 214.699C127.356 214.629 140.032 215.737 140.032 215.737C140.032 215.737 141.825 216.124 142.967 226.606C144.005 236.454 143.512 264.048 141.227 299.854V299.872Z" fill="white"/>
<path opacity="0.2" d="M120.43 260.091C120.43 260.091 104.924 291.764 84.9181 302.035C84.6719 295.423 83.5644 271.381 79.732 257.945C78.6947 254.322 77.4641 250.365 75.9874 245.986L82.0877 239.409C82.0877 239.409 86.3245 246.742 87.6254 256.345L107.508 243.858L120.447 260.091H120.43Z" fill="black"/>
<path d="M71.3286 599.973L79.8198 604.967C79.8198 604.967 83.9335 599.111 92.7235 589.667C95.1847 587.046 97.7689 584.162 100.459 581.067C105.838 574.894 111.657 567.842 117.757 560.262C119.551 558.028 121.379 555.742 123.225 553.42C144.479 526.671 167.456 495.226 176.053 473.963C178.725 467.351 180.026 461.741 179.446 457.537C177.705 444.84 172.765 425.723 167.122 407.257C158.543 379.03 148.892 352.281 148.892 352.281L125.176 392.466C125.176 392.466 132.454 409.824 139.082 428.308C145.604 446.458 151.493 465.715 149.313 470.727C149.103 471.22 148.839 471.8 148.54 472.416C144.602 480.576 133.702 499.06 121.326 519.478C120.078 521.536 118.812 523.611 117.546 525.686C110.901 536.59 103.992 547.793 97.5931 558.081C95.0968 562.126 92.6707 566.03 90.3678 569.723C79.4682 587.257 71.3286 599.973 71.3286 599.973Z" fill="white"/>
<path opacity="0.2" d="M123.717 553.42C112.501 567.525 101.724 580.328 93.708 589.649C92.5653 583.916 91.405 577.127 90.4908 569.723C99.7555 554.845 111.095 536.484 121.396 519.478C121.309 528.482 121.643 541.795 123.717 553.42Z" fill="black"/>
<path d="M81.3845 437.137C84.3203 457.168 88.5044 475.317 91.2293 486.133C92.8642 492.623 93.9718 496.457 93.9718 496.457C93.8135 516.664 95.4309 538.313 97.5932 558.081C98.4898 566.135 99.4567 573.874 100.459 581.067C104.151 607.693 108.036 626.81 108.036 626.81L118.144 625.491L117.757 560.262L117.547 525.686L117.265 478.641L117.16 470.446L116.668 434.674L115.947 381.914L80.7868 366.086C76.0753 386.135 77.8333 413.008 81.3845 437.137Z" fill="white"/>
<path d="M72.1198 594.415C73.157 593.659 81.9118 606.779 81.9118 606.779C81.9118 606.779 79.9604 620.461 83.9159 629.272C87.8714 638.083 80.189 637.344 73.8074 628.991C67.4259 620.637 62.5563 614.253 58.0206 608.326C53.485 602.382 61.3784 602.241 72.1198 594.415Z" fill="#263238"/>
<path d="M84.8652 616.68C82.8787 616.205 81.5778 610.542 81.3492 609.416C81.3492 609.364 81.3492 609.311 81.3492 609.258C81.3492 609.258 81.3668 609.17 81.402 609.135C81.402 609.135 81.4547 609.065 81.4899 609.03C81.4899 609.03 81.5778 608.959 81.6305 608.942C81.8063 608.889 85.5157 607.711 87.5022 608.871C88.1351 609.241 88.5395 609.786 88.6977 610.524C88.8559 611.298 88.7153 611.843 88.2758 612.142C87.5901 612.6 86.2541 612.213 84.9356 611.615C85.8497 612.6 86.6408 613.69 86.7639 614.657C86.8342 615.167 86.7111 615.607 86.4299 615.976C85.9728 616.557 85.5157 616.733 85.1465 616.733C85.041 616.733 84.9531 616.733 84.8652 616.697V616.68ZM85.0586 615.871C85.0586 615.871 85.3927 615.941 85.7794 615.449C85.9201 615.273 85.9728 615.044 85.9376 614.763C85.7618 613.461 83.8104 611.562 82.4216 610.401C83.0545 612.846 84.1093 615.66 85.041 615.871H85.0586ZM82.7732 609.487C84.8828 610.806 87.221 611.843 87.8187 611.457C87.9945 611.333 87.9417 610.929 87.889 610.7C87.7835 610.208 87.5198 609.839 87.0979 609.592C86.5881 609.293 85.9025 609.188 85.1993 609.188C84.3203 609.188 83.4061 609.346 82.7732 609.504V609.487Z" fill="#407BFF"/>
<path d="M104.467 620.355C104.502 619.072 120.236 620.074 120.236 620.074C120.236 620.074 129.923 629.923 139.328 632.139C148.733 634.355 143.477 640 132.964 640H106.963C99.4918 640 104.168 633.633 104.467 620.355Z" fill="#263238"/>
<path d="M121.994 622.114C121.994 622.114 121.906 622.061 121.871 622.009C121.871 622.009 121.818 621.938 121.801 621.886C121.801 621.886 121.766 621.798 121.766 621.763C121.766 621.763 121.766 621.639 121.783 621.587C121.854 621.393 123.172 617.753 125.299 616.873C125.985 616.592 126.67 616.61 127.338 616.926C128.059 617.26 128.411 617.718 128.376 618.245C128.323 619.072 127.198 619.898 125.932 620.584C127.268 620.461 128.622 620.496 129.466 620.971C129.905 621.217 130.186 621.587 130.31 622.044C130.538 622.976 130.239 623.468 129.923 623.715C129.589 623.978 129.114 624.084 128.534 624.084C126.336 624.084 122.838 622.484 122.012 622.097L121.994 622.114ZM123.436 621.85C125.756 622.835 128.639 623.697 129.378 623.099C129.448 623.046 129.641 622.888 129.483 622.273C129.431 622.044 129.272 621.868 129.026 621.727C128.587 621.481 127.919 621.376 127.163 621.376C125.95 621.376 124.508 621.622 123.418 621.868L123.436 621.85ZM125.616 617.647C124.385 618.157 123.418 619.951 122.926 621.024C125.264 620.145 127.497 618.913 127.549 618.21C127.549 617.999 127.198 617.788 126.987 617.682C126.741 617.559 126.495 617.507 126.266 617.507C126.055 617.507 125.844 617.559 125.633 617.647H125.616Z" fill="#407BFF"/>
<path opacity="0.6" d="M119.762 306.625C119.762 308.19 121.027 309.474 122.61 309.474C124.192 309.474 125.458 308.19 125.458 306.625C125.458 305.06 124.174 303.776 122.61 303.776C121.045 303.776 119.762 305.042 119.762 306.625Z" fill="white"/>
<path d="M177.389 238.811L170.251 226.693C170.251 226.693 170.269 220.327 169.654 218.832C169.021 217.337 162.041 213.943 160.67 214.453C159.299 214.963 158.789 227.45 160.037 229.138C161.285 230.826 165.663 232.69 165.663 232.69L165.364 235.065L169.53 247.674L177.389 238.811Z" fill="white"/>
<path d="M180.272 237.439L177.899 235.065L166.647 247.674L168.247 252.669L180.272 237.439Z" fill="#407BFF"/>
<path d="M171.587 387.19L128.393 402.543L126.952 398.586L125.176 393.715L124.438 400.75L123.875 406.149H71.4342C71.4342 406.149 71.276 404.636 71.1178 401.928C70.6079 393.486 69.9575 373.367 73.2274 350.258C75.1963 336.294 78.6069 321.222 84.3379 306.995C84.7774 305.904 85.2345 304.831 85.6916 303.759L141.948 299.415L142.422 302.123L145.956 322.33L152.671 339.319L169.249 381.263L171.587 387.19Z" fill="#263238"/>
<path d="M101.215 251.667L117.74 238.705C117.74 238.705 120.236 231.741 121.256 230.545C122.258 229.331 136.744 223.985 137.957 223.844C139.17 223.704 138.027 235.715 136.146 237.756C134.265 239.796 122.662 243.823 122.662 243.823L105.364 260.126L101.232 251.667H101.215Z" fill="white"/>
<path d="M68.1643 222.05C58.4602 226.922 54.1531 281.74 70.9947 291.202C87.8364 300.663 113.028 257.892 113.028 257.892L103.254 247.516C103.254 247.516 82.7382 264.698 80.2594 263.116C77.7806 261.533 80.5934 244.755 80.5934 244.755C80.5934 244.755 83.4765 239.672 77.4114 231.688C71.3463 223.704 68.1643 222.05 68.1643 222.05Z" fill="#407BFF"/>
<path opacity="0.6" d="M68.1643 222.05C58.4602 226.922 54.1531 281.74 70.9947 291.202C87.8364 300.663 113.028 257.892 113.028 257.892L103.254 247.516C103.254 247.516 82.7382 264.698 80.2594 263.116C77.7806 261.533 80.5934 244.755 80.5934 244.755C80.5934 244.755 83.4765 239.672 77.4114 231.688C71.3463 223.704 68.1643 222.05 68.1643 222.05Z" fill="white"/>
<path d="M113.222 261.691L116.158 259.932L105.17 243.823L101.127 246.074L113.222 261.691Z" fill="#407BFF"/>
<path opacity="0.2" d="M98.0327 308.876C98.0327 308.876 91.6511 344.12 73.2273 350.258C75.1963 336.294 78.6068 321.222 84.3379 306.995L98.0327 308.876Z" fill="black"/>
<path opacity="0.2" d="M152.671 339.319C137.922 332.126 138.168 303.759 138.168 303.759L142.422 302.123L145.956 322.33L152.671 339.319Z" fill="black"/>
<path opacity="0.2" d="M124.438 400.75L123.875 406.149H71.4341C71.4341 406.149 71.2759 404.636 71.1177 401.928L124.438 400.75Z" fill="black"/>
<path opacity="0.2" d="M171.587 387.19L128.393 402.543L126.952 398.586L169.249 381.263L171.587 387.19Z" fill="black"/>
<path opacity="0.2" d="M125.176 393.733L126.301 379.347L138.168 356.044C138.168 356.044 141.912 369.498 135.988 381.457C130.063 393.416 125.159 393.715 125.159 393.715L125.176 393.733Z" fill="black"/>
<path opacity="0.5" d="M85.6915 303.776L83.3358 309.633L143.213 306.625L141.948 299.415L85.6915 303.776Z" fill="black"/>
<path d="M117.318 301.595L118.021 308.173C118.092 308.894 118.742 309.421 119.463 309.369L128.235 308.665C128.974 308.612 129.536 307.944 129.466 307.206L128.85 300.716C128.78 299.995 128.147 299.45 127.426 299.503L118.584 300.1C117.828 300.153 117.265 300.822 117.336 301.578L117.318 301.595Z" fill="#407BFF"/>
<path d="M102.621 302.387L101.935 310.125H99.7555L100.107 302.387H102.621Z" fill="#263238"/>
<path d="M134.177 300.03L135.056 308.12H137.043L136.357 299.678L134.177 300.03Z" fill="#263238"/>
<path d="M109.319 166.652C109.214 166.652 109.126 166.617 109.038 166.547C108.844 166.388 108.827 166.107 108.985 165.931C118.373 154.746 113.538 147.676 113.327 147.377C113.187 147.184 113.239 146.902 113.433 146.761C113.626 146.621 113.907 146.674 114.048 146.867C114.277 147.184 119.515 154.763 109.671 166.494C109.583 166.599 109.46 166.652 109.337 166.652H109.319Z" fill="#263238"/>
<path d="M163.079 234.818L168.81 208.878C169.003 207.981 168.405 207.102 167.491 206.961L157.277 205.431C156.451 205.308 155.677 205.835 155.502 206.662L149.56 233.095C149.349 234.027 149.999 234.924 150.948 235.03L161.373 236.067C162.182 236.155 162.903 235.61 163.079 234.836V234.818Z" fill="#407BFF"/>
<path opacity="0.3" d="M163.079 234.818L168.81 208.878C169.003 207.981 168.405 207.102 167.491 206.961L157.277 205.431C156.451 205.308 155.677 205.835 155.502 206.662L149.56 233.095C149.349 234.027 149.999 234.924 150.948 235.03L161.373 236.067C162.182 236.155 162.903 235.61 163.079 234.836V234.818Z" fill="black"/>
<path d="M164.151 234.836L169.882 208.896C170.075 207.999 169.478 207.119 168.564 206.979L158.35 205.449C157.523 205.325 156.75 205.853 156.574 206.68L150.632 233.113C150.421 234.045 151.071 234.942 152.021 235.047L162.446 236.085C163.254 236.173 163.975 235.627 164.151 234.854V234.836Z" fill="#407BFF"/>
<path opacity="0.3" d="M159.264 208.597C159.264 208.984 158.947 209.3 158.561 209.3C158.174 209.3 157.857 208.984 157.857 208.597C157.857 208.21 158.174 207.893 158.561 207.893C158.947 207.893 159.264 208.21 159.264 208.597Z" fill="black"/>
<path opacity="0.3" d="M158.93 210.426C158.93 210.813 158.613 211.129 158.227 211.129C157.84 211.129 157.523 210.813 157.523 210.426C157.523 210.039 157.84 209.722 158.227 209.722C158.613 209.722 158.93 210.039 158.93 210.426Z" fill="black"/>
<path d="M114.576 232.69C114.576 232.69 96.1165 221.365 79.7144 219.149C79.7144 219.149 72.5593 213.925 93.2158 210.443C113.872 206.961 127.954 209.775 129.483 215.438C131.013 221.101 122.926 231.776 114.576 232.69Z" fill="#407BFF"/>
<path d="M104.449 142.488C104.449 142.488 118.777 133.255 134.476 141.626C150.175 149.997 136.902 179.684 136.902 179.684C136.902 179.684 144.497 191.133 136.638 203.954C128.78 216.757 88.3285 212.184 77.1124 197.693C65.8964 183.201 87.3088 156.311 95.6945 154.289C104.08 152.284 104.467 142.488 104.467 142.488H104.449Z" fill="#263238"/>
<path d="M114.435 226.641C100.248 224.09 96.2571 217.759 96.2571 217.759C105.75 209.669 98.982 194.457 98.982 194.457L116.017 198.537C115.419 201.351 115.103 203.725 114.98 205.747C114.312 216.176 119.023 216.528 119.023 216.528C121.748 222.332 114.435 226.641 114.435 226.641Z" fill="white"/>
<path opacity="0.2" d="M116.017 198.537C115.419 201.351 115.103 203.725 114.98 205.747C106.788 203.408 98.9996 194.457 98.9996 194.457L116.035 198.537H116.017Z" fill="black"/>
<path d="M114.751 149.787C129.677 151.123 133.755 159.547 133.474 175.041C133.105 194.387 127.62 207.665 109.337 201.879C84.4961 194.017 89.981 147.553 114.769 149.787H114.751Z" fill="white"/>
<path d="M123.91 173.335C123.91 173.335 125.633 177.415 127.69 179.913C127.69 179.913 126.231 181.83 123.612 181.249L123.91 173.335Z" fill="#D4827D"/>
<path d="M114.874 171.295C114.786 172.526 114.066 173.476 113.239 173.423C112.413 173.37 111.815 172.333 111.903 171.102C111.991 169.871 112.712 168.921 113.538 168.974C114.365 169.026 114.962 170.064 114.874 171.295Z" fill="#263238"/>
<path d="M113.204 169.009L115.947 168.13C115.947 168.13 114.47 170.293 113.204 169.009Z" fill="#263238"/>
<path d="M130.169 172.051C130.081 173.282 129.36 174.232 128.534 174.179C127.708 174.127 127.11 173.089 127.198 171.858C127.286 170.627 128.007 169.677 128.833 169.73C129.659 169.783 130.257 170.82 130.169 172.051Z" fill="#263238"/>
<path d="M128.499 169.765L131.241 168.886C131.241 168.886 129.765 171.049 128.499 169.765Z" fill="#263238"/>
<path d="M108.985 163.293C108.827 163.293 108.669 163.24 108.545 163.117C108.299 162.871 108.282 162.466 108.545 162.22C111.288 159.406 115.63 160.321 115.824 160.374C116.175 160.444 116.386 160.796 116.298 161.13C116.21 161.464 115.876 161.675 115.542 161.622C115.507 161.622 111.71 160.813 109.46 163.117C109.337 163.24 109.178 163.311 109.003 163.311L108.985 163.293Z" fill="#263238"/>
<path d="M132.402 163.715C132.261 163.715 132.12 163.662 131.997 163.574C129.202 161.323 126.829 161.904 126.723 161.939C126.389 162.027 126.038 161.833 125.95 161.482C125.862 161.148 126.055 160.796 126.389 160.708C126.512 160.673 129.466 159.916 132.788 162.59C133.07 162.818 133.105 163.205 132.894 163.487C132.771 163.645 132.577 163.733 132.402 163.733V163.715Z" fill="#263238"/>
<path d="M96.1868 173.493C96.1868 173.493 104.274 161.851 104.063 152.284C104.063 152.284 134.722 142.857 133.492 173.019C133.492 173.019 138.783 146.603 113.169 143.701C87.6077 140.8 84.3027 178.365 96.5384 190.746C96.5384 190.746 91.1765 180.774 96.1868 173.493Z" fill="#263238"/>
<path d="M98.3315 176.852C98.4546 174.443 96.3274 170.152 91.8269 170.24C87.1507 170.328 84.0917 179.631 95.3957 182.955C97.013 183.43 98.0854 181.9 98.3315 176.87V176.852Z" fill="white"/>
<path d="M122.258 188.178C120.816 188.178 115.577 187.809 113.978 182.445C113.872 182.111 114.066 181.777 114.4 181.671C114.734 181.566 115.085 181.759 115.173 182.093C116.738 187.317 122.311 186.947 122.539 186.93C122.891 186.895 123.172 187.158 123.207 187.51C123.242 187.844 122.979 188.143 122.645 188.178C122.645 188.178 122.504 188.178 122.275 188.178H122.258Z" fill="#263238"/>
<path d="M114.751 149.786C114.751 149.786 114.048 168.921 95.8176 171.612C73.7899 174.848 68.7093 196.057 86.2014 204.815C86.2014 204.815 68.2697 196.761 68.7092 183.412C69.1663 169.853 85.6212 154.834 85.6212 154.834C85.6212 154.834 83.4061 142.699 101.32 139.727C111.429 138.056 114.734 149.786 114.734 149.786H114.751Z" fill="#263238"/>
<path d="M132.947 209.669C132.806 209.669 132.665 209.599 132.577 209.476C132.437 209.265 132.489 209.001 132.7 208.86C137.553 205.624 140.383 201.579 141.139 196.813C142.598 187.475 135.478 178.4 135.408 178.312C135.25 178.119 135.285 177.837 135.478 177.697C135.671 177.538 135.953 177.573 136.093 177.767C136.392 178.154 143.53 187.211 142.018 196.954C141.244 201.966 138.273 206.222 133.21 209.599C133.14 209.652 133.052 209.669 132.964 209.669H132.947Z" fill="#263238"/>
</g>
<defs>
<clipPath id="clip0_206_682">
<rect width="722" height="640" fill="white"/>
</clipPath>
</defs>
</svg>
