<svg width="692" height="731" viewBox="0 0 692 731" fill="none" xmlns="http://www.w3.org/2000/svg">
<g clip-path="url(#clip0_206_1122)">
<path d="M48.187 677.797H-18.4504V678.3H48.187V677.797Z" fill="#EBEBEB"/>
<path d="M237.818 672.346H220.334V672.849H237.818V672.346Z" fill="#EBEBEB"/>
<path d="M88.8092 696.484H50.199V696.986H88.8092V696.484Z" fill="#EBEBEB"/>
<path d="M676.374 693.104H663.638V693.607H676.374V693.104Z" fill="#EBEBEB"/>
<path d="M622.231 684.596H433.747V685.099H622.231V684.596Z" fill="#EBEBEB"/>
<path d="M352.864 568.938H-35.6329C-41.9707 568.938 -47.1215 563.788 -47.1215 557.452V11.4854C-47.1215 5.1493 -41.9707 0 -35.6329 0H352.884C359.222 0 364.373 5.1493 364.373 11.4854V557.452C364.373 563.788 359.222 568.938 352.884 568.938H352.864ZM-35.6329 0.502862C-41.6891 0.502862 -46.6185 5.43091 -46.6185 11.4854V557.452C-46.6185 563.507 -41.6891 568.435 -35.6329 568.435H352.884C358.94 568.435 363.87 563.507 363.87 557.452V11.4854C363.87 5.43091 358.94 0.502862 352.884 0.502862H-35.6329Z" fill="#EBEBEB"/>
<path d="M387.591 37.6543H-0.483276V470.095H387.591V37.6543Z" fill="#EBEBEB"/>
<path d="M400.186 37.6543H5.39172V470.095H400.186V37.6543Z" fill="#F5F5F5"/>
<path d="M387.591 470.095H-0.483276V493.529H387.591V470.095Z" fill="#EBEBEB"/>
<path d="M460.104 470.095H65.3091V493.529H460.104V470.095Z" fill="#F0F0F0"/>
<path d="M382.541 55.3148H23.0571V452.455H382.541V55.3148Z" fill="#FAFAFA"/>
<path d="M37.6642 452.455L141.322 55.3148H190.254L86.596 452.455H37.6642Z" fill="white"/>
<path d="M31.246 283.614C30.5418 283.614 29.9784 283.051 29.9784 282.347V66.8001C29.9784 66.0961 30.5418 65.5329 31.246 65.5329C31.9502 65.5329 32.5135 66.0961 32.5135 66.8001V282.367C32.5135 283.071 31.9502 283.634 31.246 283.634V283.614Z" fill="#F1F1F1"/>
<path d="M97.1189 452.455L200.757 55.3148H219.831L116.193 452.455H97.1189Z" fill="white"/>
<path d="M382.541 55.3148H380.308V452.455H382.541V55.3148Z" fill="#EBEBEB"/>
<path d="M404.371 74.3833H16.2968L14.6671 62.1738H402.762L404.371 74.3833Z" fill="#EBEBEB"/>
<path d="M404.371 83.3141H16.2968L14.6671 71.1046H402.762L404.371 83.3141Z" fill="#EBEBEB"/>
<path d="M404.371 94.0552H16.2968L14.6671 81.8458H402.762L404.371 94.0552Z" fill="#EBEBEB"/>
<path d="M404.371 105.983H16.2968L14.6671 93.7737H402.762L404.371 105.983Z" fill="#EBEBEB"/>
<path d="M404.371 120.285H16.2968L14.6671 108.075H402.762L404.371 120.285Z" fill="#EBEBEB"/>
<path d="M404.371 136.356H16.2968L14.6671 124.146H402.762L404.371 136.356Z" fill="#EBEBEB"/>
<path d="M32.2721 443.102H75.6508V447.386H72.9145L70.6409 470.095H37.2619L35.0084 447.386H32.2721V443.102Z" fill="#EBEBEB"/>
<path d="M29.073 403.275C29.073 403.275 29.073 403.215 29.073 403.174C28.5097 401.284 27.9865 399.393 27.5238 397.462C24.6868 401.143 21.9304 402.068 19.8782 402.068C19.6569 402.068 19.4355 402.068 19.2142 402.028C15.15 401.626 11.2467 397.683 8.77193 391.468C8.67133 391.226 8.69146 390.965 8.81218 390.744C8.9329 390.522 9.13409 390.361 9.37553 390.301C17.3028 388.229 23.6004 391.307 26.5982 393.278C26.2361 391.468 25.9142 389.657 25.6727 387.847C25.0088 387.968 24.3649 388.048 23.7211 388.048C17.0815 388.048 12.1923 382.135 11.971 381.833C11.7899 381.612 11.7296 381.33 11.8101 381.069C11.8704 380.807 12.0716 380.586 12.3332 380.485C16.2968 378.916 19.6569 378.776 22.3127 380.083C23.9625 380.888 25.2703 382.255 26.2361 384.046C27.6646 379.761 31.8697 371.575 43.5393 369.281C43.8008 369.221 44.0423 369.282 44.2435 369.442C44.4447 369.603 44.5654 369.825 44.5855 370.086C44.9276 376.12 44.7465 383.502 40.1994 387.002C38.4892 388.33 36.3162 388.994 33.6805 388.994C31.8496 388.994 29.7772 388.652 27.4835 388.028C28.1073 392.353 29.073 396.677 30.2802 400.922C32.6343 397.804 38.791 390.804 48.1267 388.41C48.5894 388.29 49.0723 388.571 49.193 389.034C50.5612 394.223 49.857 398.447 47.1609 401.223C44.9477 403.516 41.4669 404.683 37.0808 404.683C35.27 404.683 33.3183 404.482 31.2259 404.08C32.3325 407.64 33.5799 411.099 34.9078 414.438C37.624 412.045 45.5915 405.95 54.2632 408.485C54.5047 408.545 54.7059 408.726 54.8065 408.947C54.9071 409.168 54.9272 409.43 54.8266 409.651C52.4726 415.404 49.7966 418.582 46.4164 419.688C45.5312 419.97 44.6057 420.111 43.6399 420.111C41.5072 420.111 39.1129 419.407 36.3766 417.979C38.2477 422.384 40.2195 426.487 42.1108 430.168C44.1429 427.955 49.7161 423.43 59.5951 425.522C60.0377 425.622 60.3194 426.024 60.2791 426.467C59.9572 430.047 57.4221 433.467 53.9614 434.955C52.9957 435.378 51.6074 435.78 49.8972 435.78C48.2876 435.78 46.3963 435.398 44.324 434.332C48.7101 442.398 52.211 447.527 52.2915 447.647C52.5732 448.05 52.4726 448.593 52.0702 448.874C51.9293 448.975 51.7483 449.035 51.5672 449.035C51.2855 449.035 51.0239 448.895 50.8429 448.653C50.7423 448.512 46.3762 442.096 41.2456 432.3C41.1852 432.22 41.145 432.119 41.1048 432.039C40.5414 430.952 39.9579 429.806 39.3744 428.639C36.9802 431.898 33.7811 433.688 30.3406 433.688C29.9784 433.688 29.5961 433.668 29.2139 433.628C25.1899 433.185 21.5079 430.309 20.2806 426.648C20.1397 426.246 20.3208 425.803 20.683 425.602C27.725 421.68 34.2036 423.45 37.5637 424.938C36.2961 422.263 35.0486 419.427 33.8414 416.47C33.761 416.369 33.7207 416.229 33.7006 416.108C33.3586 415.263 33.0366 414.418 32.6946 413.574C29.7772 417.234 26.9001 419.045 23.9022 419.045C20.2605 419.045 16.5584 416.349 12.6149 410.818C12.3332 410.436 12.4136 409.893 12.7959 409.611C18.9929 404.944 27.5036 408.123 31.3466 409.993C30.5619 407.801 29.8175 405.568 29.1535 403.315C29.1535 403.315 29.1535 403.315 29.1334 403.275H29.073Z" fill="#EBEBEB"/>
<path d="M74.5241 426.688C73.0755 427.111 71.6268 427.352 70.2587 427.352C67.3211 427.352 64.6452 426.386 62.4923 424.476C59.1725 421.539 57.7239 416.872 58.911 412.91C59.0317 412.507 59.414 412.246 59.8365 412.286C69.5142 413.312 74.3631 419.729 76.2343 422.967C78.1859 418.582 80.0772 413.936 81.7271 409.108C79.1718 410.436 76.8781 411.12 74.8259 411.12C73.84 411.12 72.8944 410.959 71.989 410.657C67.2205 409.028 64.3233 403.174 61.929 397.06C61.8284 396.838 61.8485 396.577 61.9692 396.356C62.0698 396.134 62.271 395.973 62.5124 395.893C72.3511 393.157 80.3187 402.551 82.7934 405.91C84.0811 401.867 85.1877 397.723 86.0529 393.56C83.8397 393.962 81.7472 394.163 79.8358 394.163C74.8259 394.163 70.9025 392.815 68.4076 390.18C65.4701 387.063 64.7458 382.376 66.3353 376.663C66.456 376.201 66.9388 375.919 67.4016 376.06C77.4415 378.796 84.0409 386.439 86.6967 390.04C86.8174 389.295 86.9583 388.551 87.0589 387.807C87.079 387.606 87.1796 387.445 87.3204 387.304C88.3667 384.126 90.2177 381.813 92.6924 380.646C95.63 379.258 99.2918 379.459 103.618 381.25C103.879 381.35 104.06 381.571 104.141 381.853C104.201 382.115 104.141 382.416 103.96 382.617C103.698 382.919 98.3462 389.255 91.1231 389.255C90.3786 389.255 89.594 389.155 88.8294 389.014C88.5075 391.086 88.1252 393.157 87.6826 395.229C90.9823 393.097 97.984 389.738 106.756 392.152C106.998 392.212 107.199 392.393 107.32 392.614C107.42 392.836 107.44 393.097 107.34 393.338C104.543 400.137 100.197 404.421 95.7306 404.784C95.5294 404.784 95.3282 404.804 95.1069 404.804C92.8333 404.804 89.775 403.758 86.6564 399.574C85.4291 404.361 83.9 409.048 82.2099 413.574C86.4351 411.582 95.9116 408.123 102.692 413.372C103.074 413.654 103.135 414.197 102.873 414.579C98.487 420.553 94.4429 423.45 90.4591 423.45H90.3585C87.0589 423.41 83.9201 421.378 80.7613 417.275C78.9505 421.76 77.019 426.045 75.0874 430.007C79.3126 427.392 83.9403 427.794 89.4129 431.254C89.6543 431.415 89.8153 431.677 89.8153 431.958C89.8153 432.24 89.6946 432.521 89.4531 432.702C89.1513 432.924 83.9201 436.625 78.4274 436.625C76.4556 436.625 74.4637 436.142 72.6328 434.855C66.1341 447.326 60.2791 455.693 60.1584 455.854C59.9773 456.116 59.6755 456.256 59.3737 456.256C59.1725 456.256 58.9915 456.196 58.8104 456.075C58.3677 455.774 58.2671 455.17 58.5891 454.728C58.7299 454.527 66.8785 442.921 74.5442 426.668L74.5241 426.688Z" fill="#EBEBEB"/>
<path d="M244.478 442.941C244.478 457.946 260.695 470.095 280.694 470.095C300.693 470.095 316.91 457.946 316.91 442.941H244.478Z" fill="#EBEBEB"/>
<path d="M565.372 728.948C585.451 728.948 601.728 727.949 601.728 726.716C601.728 725.482 585.451 724.483 565.372 724.483C545.292 724.483 529.015 725.482 529.015 726.716C529.015 727.949 545.292 728.948 565.372 728.948Z" fill="#E6E6E6"/>
<path d="M636.234 382.336H318.399C287.463 382.336 262.385 407.407 262.385 438.334V617.916C262.385 648.844 287.463 673.915 318.399 673.915H636.234C667.17 673.915 692.248 648.844 692.248 617.916V438.334C692.248 407.407 667.17 382.336 636.234 382.336Z" fill="#263238"/>
<path d="M580.804 726.716H550.724L489.6 581.932H535.634L580.804 726.716Z" fill="#263238"/>
<path d="M445.678 373.284H418.395V375.296H445.678V373.284Z" fill="#407BFF"/>
<path opacity="0.2" d="M445.678 373.284H418.395V375.296H445.678V373.284Z" fill="black"/>
<path d="M663.577 581.932L580.743 726.716L519.619 581.932H663.577Z" fill="#407BFF"/>
<path opacity="0.2" d="M663.597 581.932L580.763 726.716L519.639 581.932H663.597Z" fill="black"/>
<path d="M636.254 382.336H343.71C312.774 382.336 287.695 407.407 287.695 438.334V617.916C287.695 648.844 312.774 673.915 343.71 673.915H636.254C667.19 673.915 692.268 648.844 692.268 617.916V438.334C692.268 407.407 667.19 382.336 636.254 382.336Z" fill="#407BFF"/>
<path opacity="0.2" d="M636.254 382.336H343.71C312.774 382.336 287.695 407.407 287.695 438.334V617.916C287.695 648.844 312.774 673.915 343.71 673.915H636.254C667.19 673.915 692.268 648.844 692.268 617.916V438.334C692.268 407.407 667.19 382.336 636.254 382.336Z" fill="black"/>
<path opacity="0.7" d="M444.893 673.915H391.374L447.991 382.336H501.531L444.893 673.915Z" fill="#407BFF"/>
<path opacity="0.7" d="M493.241 673.915H462.8L519.438 382.336H549.859L493.241 673.915Z" fill="#407BFF"/>
<path d="M619.675 476.411H470.948C462.377 476.411 455.436 469.472 455.436 460.903C455.436 452.334 462.377 445.395 470.948 445.395H619.675C628.247 445.395 635.188 452.334 635.188 460.903C635.188 469.472 628.247 476.411 619.675 476.411Z" fill="white"/>
<path d="M419.985 476.411H352.623C344.052 476.411 337.11 469.472 337.11 460.903C337.11 452.334 344.052 445.395 352.623 445.395H419.985C428.556 445.395 435.497 452.334 435.497 460.903C435.497 469.472 428.556 476.411 419.985 476.411Z" fill="white"/>
<path d="M619.675 541.803H368.417C359.846 541.803 352.904 534.864 352.904 526.295C352.904 517.726 359.846 510.787 368.417 510.787H619.675C628.247 510.787 635.188 517.726 635.188 526.295C635.188 534.864 628.247 541.803 619.675 541.803Z" fill="white"/>
<path d="M619.676 607.216H503.281C494.71 607.216 487.769 600.276 487.769 591.707C487.769 583.139 494.71 576.199 503.281 576.199H619.676C628.247 576.199 635.188 583.139 635.188 591.707C635.188 600.276 628.247 607.216 619.676 607.216Z" fill="white"/>
<path opacity="0.1" d="M360.329 382.336C360.329 382.336 338.076 502.62 338.076 553.429C338.076 604.239 356.466 673.915 356.466 673.915H297.715L293.812 607.92C290.17 546.188 296.267 484.276 311.92 424.455L322.946 382.316H360.349L360.329 382.336Z" fill="black"/>
<path d="M329.686 726.716C329.686 729.089 296.689 731.02 255.986 731.02C215.284 731.02 182.287 729.089 182.287 726.716C182.287 724.342 215.284 722.411 255.986 722.411C296.689 722.411 329.686 724.342 329.686 726.716Z" fill="#E6E6E6"/>
<path d="M304.415 226.851C298.178 227.837 292.343 228.339 286.307 228.782C280.311 229.184 274.296 229.285 268.26 229.245C256.127 229.184 244.136 227.937 231.722 225.161C227.174 223.975 224.036 221.943 221.239 219.891C218.483 217.799 216.108 215.587 213.875 213.334C209.449 208.808 205.686 204.021 202.125 199.153C195.123 189.317 189.007 179.26 183.635 168.579L191.18 164.074C194.56 168.62 198.041 173.266 201.622 177.731C205.143 182.237 208.785 186.642 212.547 190.826C216.269 195.03 220.153 199.073 224.136 202.613C226.128 204.363 228.16 205.972 230.152 207.259C232.124 208.527 234.116 209.472 235.263 209.613C240.373 210.458 245.987 211.162 251.479 211.443C257.033 211.685 262.606 211.846 268.219 211.745C273.833 211.665 279.446 211.363 285.08 210.961C290.653 210.598 296.427 209.975 301.719 209.331L304.415 226.871V226.851Z" fill="white"/>
<path d="M322.523 210.518C307.212 201.285 286.488 207.984 286.488 207.984L296.971 244.25C296.971 244.25 313.55 239.583 320.048 232.523C326.829 225.181 331.738 216.09 322.523 210.538V210.518Z" fill="#263238"/>
<path d="M192.488 167.875L196.19 155.404L178.665 157.577C178.665 157.577 180.396 165.703 185.043 171.234L192.488 167.875Z" fill="white"/>
<path d="M194.922 140.882L180.335 143.497L178.665 157.597L196.19 155.424L194.922 140.882Z" fill="white"/>
<path d="M394.01 96.1472C409.502 96.469 405.156 109.403 405.156 109.403C405.156 109.403 422.037 98.7419 427.409 111.213C432.781 123.664 420.689 127.606 413.606 129.477C418.053 132.031 418.274 140.298 412.037 143.034C405.8 145.77 395.358 138.267 387.471 138.388L379.724 129.195C390.267 122.356 378.517 95.8454 394.01 96.1673V96.1472Z" fill="#263238"/>
<path d="M391.595 144.764C398.355 145.93 403.265 145.106 401.937 137.643C400.609 130.181 394.814 122.356 386.283 119.198C377.752 116.04 375.841 130.141 375.841 130.141L391.595 144.764Z" fill="#407BFF"/>
<path d="M193.896 666.03L176.633 664.039L180.074 623.951L197.337 625.942L193.896 666.03Z" fill="white"/>
<path d="M308.238 712.998L290.895 712.193L287.172 671.783L304.516 672.567L308.238 712.998Z" fill="white"/>
<path d="M290.231 706.963H309.747C310.451 706.963 311.035 707.446 311.135 708.15L313.348 723.578C313.57 725.187 312.202 726.695 310.572 726.675C303.771 726.555 300.492 726.152 291.901 726.152C286.629 726.152 278.903 726.695 271.62 726.695C264.336 726.695 263.934 719.494 266.972 718.831C280.573 715.914 282.726 711.871 287.313 708.009C288.138 707.305 289.184 706.943 290.21 706.943L290.231 706.963Z" fill="#263238"/>
<path d="M176.05 657.723L195.425 655.43C196.129 655.35 196.753 655.772 196.934 656.436L200.958 671.501C201.381 673.07 200.194 674.74 198.564 674.901C191.804 675.585 188.484 675.565 179.973 676.59C174.722 677.214 163.957 679.044 156.714 679.889C149.632 680.734 148.244 673.634 151.181 672.628C164.36 668.122 169.189 663.476 173.293 659.111C174.038 658.326 175.024 657.824 176.05 657.703V657.723Z" fill="#263238"/>
<path d="M180.094 623.971L178.303 644.628L195.566 646.62L197.357 625.962L180.094 623.971Z" fill="white"/>
<path d="M304.516 672.588L287.152 671.783L289.104 692.622L306.447 693.426L304.516 672.588Z" fill="white"/>
<path d="M305.703 205.912C305.703 205.912 296.951 206.455 285.1 308.998C312.021 316.622 339.867 324.507 352.965 328.228C359.645 300.289 364.453 283.252 393.708 230.331C393.708 230.331 380.368 223.21 365.962 218.363C354.695 214.581 345.44 211.564 335.138 209.633C321.557 207.099 305.683 205.912 305.683 205.912H305.703Z" fill="#263238"/>
<path d="M372.763 182.8C368.014 192.153 360.912 209.774 365.982 218.363C365.982 218.363 360.429 227.656 341.999 222.426C321.738 216.693 335.159 209.633 335.159 209.633C346.969 210.136 349.001 201.849 349.263 193.602L372.763 182.82V182.8Z" fill="white"/>
<path d="M316.185 206.897C321.738 207.501 328.72 208.426 335.159 209.613C345.46 211.544 354.715 214.561 365.982 218.343C371.757 220.274 377.33 222.567 381.958 224.638C381.052 227.997 374.352 245.417 334.816 235.339C297.876 225.926 311.98 210.297 316.185 206.877V206.897Z" fill="white"/>
<path d="M363.186 187.205L349.283 193.582C349.222 195.533 349.061 197.484 348.679 199.314C353.085 199.898 360.51 197.926 362.22 193.622C363.065 191.49 363.246 188.332 363.186 187.185V187.205Z" fill="white"/>
<path d="M381.595 160.775C377.451 177.51 376.042 184.671 365.902 191.791C350.651 202.492 331.014 193.743 330.068 176.122C329.223 160.252 336.144 135.572 353.951 131.87C371.495 128.23 385.74 144.06 381.595 160.795V160.775Z" fill="white"/>
<path d="M376.163 176.927C371.113 174.312 367.069 166.829 374.352 159.95C374.352 159.95 364.373 154.218 369.342 146.293C374.312 138.388 394.573 131.83 397.732 142.431C400.891 153.031 391.072 157.416 391.072 157.416C391.072 157.416 399.14 169.726 384.654 173.789C384.654 173.789 383.406 191.57 373.024 183.645L376.183 176.907L376.163 176.927Z" fill="#263238"/>
<path d="M381.414 176.525C380.428 179.964 377.954 182.619 375.358 183.987C371.455 186.059 368.558 182.8 368.859 178.637C369.121 174.875 371.475 169.263 375.761 168.921C379.986 168.579 382.561 172.602 381.414 176.525Z" fill="white"/>
<path d="M285.1 308.998C285.1 308.998 206.27 401.947 192.93 453.199C179.047 506.502 172.75 638.172 172.75 638.172L199.831 641.712C199.831 641.712 217.939 521.166 240.715 472.066C264.98 419.749 334.796 323.099 334.796 323.099L285.1 309.019V308.998Z" fill="#407BFF"/>
<path d="M203.554 642.195L169.048 637.669L168.444 628.235L206.411 635.939L203.554 642.195Z" fill="#407BFF"/>
<path opacity="0.3" d="M203.554 642.195L169.048 637.669L168.444 628.235L206.411 635.939L203.554 642.195Z" fill="black"/>
<path opacity="0.2" d="M283.752 351.259C274.557 384.528 271.962 402.873 269.245 420.855C276.428 409.189 284.034 397.381 291.418 386.198C294.094 380.284 296.83 374.431 299.526 368.738C299.526 368.678 299.566 368.598 299.586 368.537L283.752 351.279V351.259Z" fill="black"/>
<path d="M303.027 314.067C303.027 314.067 280.211 431.475 271.962 498.939C265.282 553.429 286.307 685.642 286.307 685.642L308.922 687.03C308.922 687.03 304.154 568.958 314.676 516.157C341.275 382.577 366.143 364.635 352.985 328.208L303.047 314.047L303.027 314.067Z" fill="#407BFF"/>
<path d="M311.719 687.211L282.444 685.421L281.076 677.093L312.785 680.392L311.719 687.211Z" fill="#407BFF"/>
<path opacity="0.3" d="M311.719 687.211L282.444 685.421L281.076 677.093L312.785 680.392L311.719 687.211Z" fill="black"/>
<path d="M355.118 324.527L356.466 331.466C356.566 332.009 355.882 332.331 355.097 332.11L283.933 311.935C283.329 311.754 282.907 311.312 282.967 310.929L284.074 304.674C284.154 304.231 284.778 304.03 285.442 304.231L354.172 323.702C354.675 323.843 355.057 324.185 355.138 324.527H355.118Z" fill="#407BFF"/>
<path opacity="0.4" d="M355.118 324.527L356.466 331.466C356.566 332.009 355.882 332.331 355.097 332.11L283.933 311.935C283.329 311.754 282.907 311.312 282.967 310.929L284.074 304.674C284.154 304.231 284.778 304.03 285.442 304.231L354.172 323.702C354.675 323.843 355.057 324.185 355.138 324.527H355.118Z" fill="black"/>
<path d="M343.709 329.596L345.54 330.119C345.903 330.219 346.245 330.119 346.285 329.877L347.653 321.751C347.693 321.51 347.432 321.228 347.049 321.127L345.218 320.605C344.856 320.504 344.514 320.605 344.474 320.846L343.106 328.972C343.066 329.214 343.327 329.495 343.689 329.596H343.709Z" fill="#407BFF"/>
<path d="M288.883 314.067L290.713 314.59C291.076 314.691 291.418 314.59 291.458 314.349L292.826 306.223C292.866 305.981 292.605 305.7 292.243 305.599L290.412 305.076C290.049 304.976 289.707 305.076 289.667 305.317L288.299 313.444C288.259 313.685 288.52 313.967 288.883 314.067Z" fill="#407BFF"/>
<path d="M316.306 321.831L318.137 322.354C318.499 322.455 318.841 322.354 318.881 322.113L320.25 313.987C320.29 313.745 320.028 313.464 319.666 313.363L317.835 312.84C317.473 312.74 317.131 312.84 317.091 313.082L315.723 321.208C315.682 321.449 315.944 321.731 316.306 321.831Z" fill="#407BFF"/>
<path d="M355.057 160.795C354.796 162.163 353.87 163.148 352.965 162.988C352.059 162.827 351.536 161.58 351.798 160.192C352.059 158.824 352.985 157.838 353.89 157.999C354.796 158.16 355.319 159.407 355.057 160.795Z" fill="#263238"/>
<path d="M339.484 157.939C339.223 159.307 338.297 160.292 337.392 160.131C336.486 159.97 335.963 158.723 336.225 157.335C336.486 155.968 337.412 154.982 338.317 155.143C339.223 155.304 339.746 156.551 339.484 157.939Z" fill="#263238"/>
<path d="M338.68 155.304L335.541 153.735C335.541 153.735 336.768 156.631 338.68 155.304Z" fill="#263238"/>
<path d="M343.166 161.057C343.166 161.057 339.746 166.548 336.647 168.941C338.156 170.973 341.396 170.772 341.396 170.772L343.186 161.057H343.166Z" fill="white"/>
<path d="M347.653 177.309C346.888 177.309 346.084 177.249 345.239 177.088C345.017 177.048 344.856 176.826 344.917 176.605C344.957 176.384 345.178 176.243 345.4 176.283C351.436 177.389 355.057 173.688 355.077 173.648C355.238 173.487 355.5 173.487 355.661 173.648C355.822 173.809 355.822 174.071 355.661 174.232C355.52 174.372 352.643 177.329 347.653 177.329V177.309Z" fill="#263238"/>
<path d="M360.811 156.651C360.51 156.651 360.228 156.491 360.067 156.189C358.417 152.91 355.419 152.548 355.379 152.528C354.936 152.488 354.594 152.065 354.655 151.623C354.715 151.18 355.097 150.838 355.56 150.899C355.721 150.899 359.484 151.381 361.536 155.445C361.737 155.847 361.576 156.35 361.174 156.551C361.053 156.611 360.932 156.631 360.811 156.631V156.651Z" fill="#263238"/>
<path d="M333.871 149.491C333.67 149.491 333.448 149.41 333.308 149.249C332.986 148.927 332.965 148.405 333.308 148.083C336.466 144.804 340.209 145.488 340.37 145.528C340.812 145.609 341.114 146.051 341.013 146.494C340.933 146.936 340.49 147.218 340.048 147.137C339.887 147.117 336.989 146.634 334.474 149.229C334.314 149.39 334.092 149.471 333.891 149.471L333.871 149.491Z" fill="#263238"/>
<path d="M395.84 249.359C397.209 255.514 398.054 261.307 398.879 267.301C399.643 273.255 400.106 279.269 400.448 285.283C401.112 297.392 400.609 309.441 398.577 321.992C397.671 326.599 395.84 329.857 393.949 332.774C392.038 335.65 389.965 338.164 387.853 340.518C383.607 345.204 379.04 349.247 374.393 353.089C364.997 360.672 355.339 367.391 344.997 373.405L340.028 366.144C344.374 362.503 348.8 358.742 353.025 354.9C357.311 351.118 361.496 347.216 365.439 343.193C369.423 339.21 373.205 335.107 376.485 330.903C378.115 328.811 379.604 326.679 380.75 324.627C381.897 322.596 382.722 320.524 382.803 319.377C383.346 314.228 383.688 308.576 383.648 303.085C383.567 297.533 383.366 291.961 382.944 286.37C382.521 280.778 381.877 275.186 381.133 269.594C380.429 264.063 379.463 258.33 378.497 253.08L395.861 249.319L395.84 249.359Z" fill="white"/>
<path d="M393.728 230.331C399.945 234.334 401.474 260.04 401.474 260.04L369.745 271.425C369.745 271.425 365.66 249.158 371.012 241.193C376.586 232.885 386.625 225.785 393.728 230.331Z" fill="#263238"/>
<path d="M284.275 710.001C282.947 710.001 281.7 709.779 280.975 709.095C280.392 708.572 280.171 707.828 280.291 706.903C280.392 706.219 280.794 705.897 281.116 705.756C283.128 704.831 288.42 708.251 289.003 708.633C289.144 708.733 289.205 708.894 289.184 709.055C289.164 709.216 289.044 709.337 288.883 709.377C287.655 709.659 285.905 710.001 284.295 710.001H284.275ZM281.961 706.4C281.76 706.4 281.579 706.42 281.438 706.501C281.297 706.561 281.136 706.682 281.096 707.024C281.016 707.667 281.136 708.15 281.519 708.492C282.404 709.297 284.678 709.397 287.696 708.794C285.824 707.667 283.289 706.42 281.961 706.42V706.4Z" fill="#407BFF"/>
<path d="M288.782 709.397C288.782 709.397 288.641 709.397 288.581 709.337C286.931 708.391 283.772 704.65 284.154 702.699C284.235 702.317 284.517 701.673 285.543 701.552C286.186 701.472 286.79 701.653 287.293 702.096C289.184 703.765 289.204 708.774 289.204 708.975C289.204 709.115 289.124 709.256 289.003 709.337C288.943 709.377 288.862 709.397 288.802 709.397H288.782ZM285.824 702.357C285.824 702.357 285.704 702.357 285.643 702.357C285.12 702.417 284.999 702.659 284.959 702.84C284.718 704.027 286.689 706.843 288.339 708.17C288.239 706.501 287.856 703.705 286.73 702.699C286.448 702.458 286.166 702.337 285.824 702.337V702.357Z" fill="#407BFF"/>
<path d="M168.404 661.605C167.297 661.605 166.311 661.424 165.627 660.941C165.004 660.499 164.682 659.855 164.662 659.03C164.662 658.548 164.843 658.125 165.225 657.864C167.197 656.456 174.5 659.151 175.325 659.473C175.486 659.533 175.587 659.694 175.587 659.875C175.587 660.056 175.466 660.197 175.305 660.257C173.474 660.841 170.677 661.605 168.424 661.605H168.404ZM166.955 658.266C166.392 658.266 165.949 658.347 165.688 658.528C165.527 658.648 165.466 658.789 165.466 659.01C165.466 659.574 165.688 659.976 166.09 660.257C167.257 661.062 170.114 660.901 173.856 659.815C171.603 659.051 168.686 658.266 166.955 658.266Z" fill="#407BFF"/>
<path d="M175.164 660.257C175.164 660.257 175.084 660.257 175.044 660.257C172.871 659.574 168.364 656.335 168.464 654.344C168.464 653.881 168.746 653.258 169.853 653.016C170.678 652.835 171.462 652.976 172.207 653.459C174.581 655.008 175.547 659.594 175.587 659.795C175.607 659.936 175.567 660.076 175.466 660.177C175.386 660.237 175.285 660.278 175.184 660.278L175.164 660.257ZM170.537 653.74C170.376 653.74 170.195 653.74 170.034 653.801C169.289 653.962 169.289 654.263 169.289 654.364C169.229 655.551 172.347 658.165 174.581 659.171C174.219 657.844 173.313 655.128 171.764 654.123C171.382 653.861 170.979 653.74 170.557 653.74H170.537Z" fill="#407BFF"/>
<path opacity="0.6" d="M249.266 151.904C177.056 135.209 104.986 180.185 88.2861 252.356C82.3306 278.103 84.242 303.829 92.4308 327.041L53.2572 368.638L112.39 364.052C130.679 388.008 157.097 405.99 188.765 413.312C260.976 430.007 333.046 385.031 349.746 312.86C366.445 240.67 321.457 168.62 249.266 151.925V151.904Z" fill="#407BFF"/>
<path opacity="0.1" d="M249.266 151.904C177.056 135.209 104.986 180.185 88.2861 252.356C82.3306 278.103 84.242 303.829 92.4308 327.041L53.2572 368.638L112.39 364.052C130.679 388.008 157.097 405.99 188.765 413.312C260.976 430.007 333.046 385.031 349.746 312.86C366.445 240.67 321.457 168.62 249.266 151.925V151.904Z" fill="black"/>
<path d="M219.127 410.255C209.469 410.255 199.731 409.148 190.234 406.936C161.342 400.258 135.548 383.603 117.581 360.069L115.428 357.233L70.3391 360.733C70.2184 360.733 70.1178 360.673 70.0574 360.572C69.9971 360.471 70.0172 360.351 70.0977 360.25L99.9155 328.61L98.5876 324.849C90.5396 301.999 89.1714 277.439 94.6441 253.824C108.124 195.613 159.209 154.962 218.885 154.962C228.543 154.962 238.281 156.068 247.777 158.281C316.346 174.151 359.222 242.822 343.368 311.372C329.887 369.583 278.802 410.255 219.127 410.255ZM115.549 356.67C115.549 356.67 115.71 356.71 115.77 356.79L118.024 359.747C135.91 383.181 161.603 399.735 190.355 406.393C199.811 408.585 209.489 409.691 219.127 409.691C278.541 409.691 329.404 369.221 342.824 311.251C358.618 243.003 315.924 174.634 247.657 158.844C238.2 156.651 228.523 155.545 218.885 155.545C159.471 155.545 108.607 196.016 95.1873 253.985C89.7348 277.499 91.103 301.958 99.1107 324.708L100.499 328.63C100.499 328.63 100.499 328.851 100.439 328.912L71.0232 360.15L115.529 356.69H115.549V356.67Z" fill="white"/>
<path d="M265.563 259.778C266.227 258.29 265.765 256.54 264.477 255.534C258.562 250.948 250.071 247.126 241.218 245.075C211.32 238.155 181.381 256.842 174.46 286.732C169.832 306.726 180.798 320.263 194.017 323.32C205.586 325.995 216.008 323.662 225.645 316.179C225.826 320.162 227.013 323.179 228.261 325.271C230.897 329.736 235.383 332.894 240.896 334.162C261.56 338.949 286.81 325.09 295.079 289.367C303.993 250.908 283.148 217.779 244.417 208.808C197.88 198.047 154.28 226.75 142.972 275.588C133.556 316.3 155.447 352.486 195.063 361.658C210.777 365.299 223.674 365.359 236.872 361.879C238.603 361.417 239.729 359.747 239.508 357.977L238.22 347.98C238.079 346.954 237.496 346.029 236.631 345.446C235.766 344.883 234.679 344.722 233.673 345.003C224.519 347.679 213.05 347.658 201.401 344.963C170.577 337.822 154.903 311.211 162.428 278.726C171.502 239.563 203.634 217.035 238.824 225.181C268.642 232.081 282.746 255.454 275.623 286.189C272.505 299.645 266.087 310.185 257.998 315.133C254.397 317.326 250.815 318.11 247.818 317.366C246.188 316.944 245.624 316.139 245.323 315.516C244.478 313.725 243.854 308.918 249.306 296.789L265.563 259.738V259.778ZM234.438 262.775C236.772 263.319 238.945 264.043 240.977 264.948L232.225 285.042C227.255 296.688 213.614 308.395 203.453 306.042C194.178 303.889 194.661 295.562 195.767 290.775C200.173 271.767 217.879 258.954 234.458 262.796L234.438 262.775Z" fill="white"/>
<path d="M343.79 364.655L328.539 356.006L331.778 373.365C331.778 373.365 342.362 376.865 347.593 371.876L343.79 364.655Z" fill="white"/>
<path d="M314.093 358.158L317.594 372.54L331.778 373.365L328.539 356.006L314.093 358.158Z" fill="white"/>
<path d="M354.273 158.16L351.134 156.591C351.134 156.591 352.361 159.488 354.273 158.16Z" fill="#263238"/>
<path d="M375.841 150.195C367.21 149.672 360.912 145.87 360.047 140.902C360.047 140.902 340.289 149.109 332.301 136.959C332.301 136.959 323.308 138.468 321.075 132.192C318.841 125.917 328.217 124.026 332.644 126.942C332.644 126.942 318.922 114.874 332.986 111.515C347.07 108.155 350.088 119.54 350.088 119.54C350.088 119.54 355.621 102.885 368.115 110.288C380.59 117.69 372.964 124.871 372.964 124.871C372.964 124.871 402.782 127.184 391.676 138.91C380.569 150.637 375.841 150.195 375.841 150.195Z" fill="#263238"/>
<path d="M365.057 208.024C366.747 208.205 366.002 214.058 365.238 214.46C363.487 215.406 342.402 211.081 343.025 207.823C343.629 206.616 344.997 204.323 346.003 203.639C347.009 202.955 350.228 206.777 365.057 208.024Z" fill="#263238"/>
<path d="M475.174 254.066C456.563 254.066 441.493 269.152 441.493 287.737C441.493 304.714 454.088 318.734 470.425 321.047C470.385 327.142 469.037 336.676 462.055 344.239C462.055 344.239 508.855 332.573 508.855 287.737C508.855 269.132 493.765 254.066 475.174 254.066Z" fill="#407BFF"/>
<path d="M550.966 254.066C532.355 254.066 517.285 269.152 517.285 287.737C517.285 304.714 529.88 318.734 546.217 321.047C546.177 327.142 544.829 336.676 537.847 344.239C537.847 344.239 584.647 332.573 584.647 287.737C584.647 269.132 569.557 254.066 550.966 254.066Z" fill="#407BFF"/>
</g>
<defs>
<clipPath id="clip0_206_1122">
<rect width="692" height="731" fill="white"/>
</clipPath>
</defs>
</svg>
