<svg width="879" height="640" viewBox="0 0 879 640" fill="none" xmlns="http://www.w3.org/2000/svg">
<g clip-path="url(#clip0_206_682)">
<path d="M879 575.879H0V576.318H879V575.879Z" fill="#EBEBEB"/>
<path d="M790.924 604.176H732.699V604.615H790.924V604.176Z" fill="#EBEBEB"/>
<path d="M582.285 608.959H567.008V609.399H582.285V608.959Z" fill="#EBEBEB"/>
<path d="M730.941 587.855H697.205V588.295H730.941V587.855Z" fill="#EBEBEB"/>
<path d="M168.153 590.81H92.2247V591.249H168.153V590.81Z" fill="#EBEBEB"/>
<path d="M194.945 590.81H183.817V591.249H194.945V590.81Z" fill="#EBEBEB"/>
<path d="M395.814 598.231H231.124V598.671H395.814V598.231Z" fill="#EBEBEB"/>
<path d="M416.664 497.442H77.1938C71.6561 497.442 67.1556 492.939 67.1556 487.4V10.042C67.1556 4.50221 71.6561 0 77.1938 0H416.664C422.201 0 426.702 4.50221 426.702 10.042V487.4C426.702 492.939 422.201 497.442 416.664 497.442ZM77.1938 0.439669C71.9022 0.439669 67.5951 4.74843 67.5951 10.042V487.4C67.5951 492.693 71.9022 497.002 77.1938 497.002H416.664C421.955 497.002 426.262 492.693 426.262 487.4V10.042C426.262 4.74843 421.955 0.439669 416.664 0.439669H77.1938Z" fill="#EBEBEB"/>
<path d="M796.919 497.442H457.449C451.911 497.442 447.411 492.939 447.411 487.4V10.042C447.411 4.50221 451.911 0 457.449 0H796.919C802.457 0 806.957 4.50221 806.957 10.042V487.4C806.957 492.939 802.457 497.442 796.919 497.442ZM457.449 0.439669C452.158 0.439669 447.851 4.74843 447.851 10.042V487.4C447.851 492.693 452.158 497.002 457.449 497.002H796.919C802.211 497.002 806.518 492.693 806.518 487.4V10.042C806.518 4.74843 802.211 0.439669 796.919 0.439669H457.449Z" fill="#EBEBEB"/>
<path d="M709.669 575.404V409.701H572.545V265.49H553.207V348.148H500.467V325.285H405.535V246.144H387.955V149.417H373.891V244.386H340.489V385.08H277.201V244.386H162.931V385.08H106.675V575.404H709.669Z" fill="#E0E0E0"/>
<path d="M329.941 142.383H189.301V575.404H329.941V142.383Z" fill="#F0F0F0"/>
<path d="M329.941 170.521H189.301V174.039H329.941V170.521Z" fill="#E6E6E6"/>
<path d="M329.941 198.66H189.301V202.178H329.941V198.66Z" fill="#E6E6E6"/>
<path d="M329.941 226.799H189.301V230.316H329.941V226.799Z" fill="#E6E6E6"/>
<path d="M329.941 254.938H189.301V258.455H329.941V254.938Z" fill="#E6E6E6"/>
<path d="M329.941 283.077H189.301V286.594H329.941V283.077Z" fill="#E6E6E6"/>
<path d="M329.941 311.216H189.301V314.733H329.941V311.216Z" fill="#E6E6E6"/>
<path d="M329.941 339.354H189.301V342.872H329.941V339.354Z" fill="#E6E6E6"/>
<path d="M329.941 367.493H189.301V371.011H329.941V367.493Z" fill="#E6E6E6"/>
<path d="M329.941 395.632H189.301V399.149H329.941V395.632Z" fill="#E6E6E6"/>
<path d="M329.941 423.771H189.301V427.288H329.941V423.771Z" fill="#E6E6E6"/>
<path d="M329.941 451.91H189.301V455.427H329.941V451.91Z" fill="#E6E6E6"/>
<path d="M329.941 480.048H189.301V483.566H329.941V480.048Z" fill="#E6E6E6"/>
<path d="M329.941 508.187H189.301V511.705H329.941V508.187Z" fill="#E6E6E6"/>
<path d="M329.941 536.326H189.301V539.844H329.941V536.326Z" fill="#E6E6E6"/>
<path d="M329.941 564.465H189.301V567.982H329.941V564.465Z" fill="#E6E6E6"/>
<path d="M530.353 385.08H389.713V388.597H530.353V385.08Z" fill="#E6E6E6"/>
<path d="M530.353 272.525H389.713V575.404H530.353V272.525Z" fill="#F0F0F0"/>
<path d="M530.353 300.663H389.713V304.181H530.353V300.663Z" fill="#E6E6E6"/>
<path d="M530.353 328.802H389.713V332.32H530.353V328.802Z" fill="#E6E6E6"/>
<path d="M530.353 356.941H389.713V360.459H530.353V356.941Z" fill="#E6E6E6"/>
<path d="M530.353 413.219H389.713V416.736H530.353V413.219Z" fill="#E6E6E6"/>
<path d="M530.353 441.358H389.713V444.875H530.353V441.358Z" fill="#E6E6E6"/>
<path d="M530.353 469.496H389.713V473.014H530.353V469.496Z" fill="#E6E6E6"/>
<path d="M530.353 497.635H389.713V501.153H530.353V497.635Z" fill="#E6E6E6"/>
<path d="M530.353 525.774H389.713V529.291H530.353V525.774Z" fill="#E6E6E6"/>
<path d="M530.353 553.913H389.713V557.43H530.353V553.913Z" fill="#E6E6E6"/>
<path d="M732.523 219.764H591.883V575.404H732.523V219.764Z" fill="#F0F0F0"/>
<path d="M732.523 247.903H591.883V251.42H732.523V247.903Z" fill="#E6E6E6"/>
<path d="M732.523 276.042H591.883V279.559H732.523V276.042Z" fill="#E6E6E6"/>
<path d="M732.523 304.181H591.883V307.698H732.523V304.181Z" fill="#E6E6E6"/>
<path d="M732.523 332.32H591.883V335.837H732.523V332.32Z" fill="#E6E6E6"/>
<path d="M732.523 360.458H591.883V363.976H732.523V360.458Z" fill="#E6E6E6"/>
<path d="M732.523 388.597H591.883V392.115H732.523V388.597Z" fill="#E6E6E6"/>
<path d="M732.523 416.736H591.883V420.253H732.523V416.736Z" fill="#E6E6E6"/>
<path d="M732.523 444.875H591.883V448.392H732.523V444.875Z" fill="#E6E6E6"/>
<path d="M732.523 473.014H591.883V476.531H732.523V473.014Z" fill="#E6E6E6"/>
<path d="M732.523 501.153H591.883V504.67H732.523V501.153Z" fill="#E6E6E6"/>
<path d="M732.523 529.291H591.883V532.809H732.523V529.291Z" fill="#E6E6E6"/>
<path d="M732.523 557.43H591.883V560.948H732.523V557.43Z" fill="#E6E6E6"/>
<path d="M289.332 112.309C316.313 112.309 338.186 90.4277 338.186 63.4355C338.186 36.4434 316.313 14.5619 289.332 14.5619C262.35 14.5619 240.477 36.4434 240.477 63.4355C240.477 90.4277 262.35 112.309 289.332 112.309Z" fill="#FAFAFA"/>
<path d="M263.999 62.8904C263.999 58.1947 260.202 54.396 255.508 54.396C254.664 54.396 253.838 54.5191 253.064 54.7477C253.187 53.9035 253.257 53.0242 253.257 52.1448C253.257 42.2083 245.206 34.1536 235.273 34.1536C234.148 34.1536 233.04 34.2591 231.968 34.4701C229.208 29.9503 224.233 26.9078 218.555 26.9078C209.94 26.9078 202.961 33.837 202.838 42.4194C202.75 42.4194 202.662 42.4194 202.574 42.4194C194.575 42.4194 188.088 48.9089 188.088 56.9109C188.088 64.9128 194.575 71.4024 202.574 71.4024H255.771C260.342 71.2617 264.016 67.5157 264.016 62.9079L263.999 62.8904Z" fill="#F0F0F0"/>
<path d="M768.949 163.223C768.949 158.527 765.152 154.728 760.458 154.728C759.614 154.728 758.788 154.851 758.014 155.08C758.138 154.236 758.208 153.357 758.208 152.477C758.208 142.541 750.156 134.486 740.224 134.486C739.098 134.486 737.991 134.592 736.918 134.803C734.158 130.283 729.183 127.24 723.505 127.24C714.891 127.24 707.911 134.169 707.788 142.752C707.701 142.752 707.613 142.752 707.525 142.752C699.526 142.752 693.039 149.241 693.039 157.243C693.039 165.245 699.526 171.735 707.525 171.735H760.722C765.293 171.594 768.967 167.848 768.967 163.24L768.949 163.223Z" fill="#F0F0F0"/>
<path d="M581.16 62.8904C581.16 58.1947 584.957 54.396 589.651 54.396C590.495 54.396 591.321 54.5191 592.094 54.7477C591.971 53.9035 591.901 53.0242 591.901 52.1448C591.901 42.2083 599.953 34.1536 609.885 34.1536C611.011 34.1536 612.118 34.2591 613.19 34.4701C615.95 29.9503 620.926 26.9078 626.604 26.9078C635.218 26.9078 642.197 33.837 642.32 42.4194C642.408 42.4194 642.496 42.4194 642.584 42.4194C650.583 42.4194 657.07 48.9089 657.07 56.9109C657.07 64.9128 650.583 71.4024 642.584 71.4024H589.387C584.816 71.2617 581.142 67.5157 581.142 62.9079L581.16 62.8904Z" fill="#F0F0F0"/>
<path d="M370.551 88.3384C370.551 85.419 368.195 83.0623 365.277 83.0623C364.75 83.0623 364.24 83.1503 363.765 83.291C363.836 82.7634 363.888 82.2182 363.888 81.673C363.888 75.5 358.878 70.4878 352.707 70.4878C352.004 70.4878 351.319 70.5582 350.651 70.6813C348.928 67.8674 345.851 65.9856 342.3 65.9856C336.938 65.9856 332.596 70.2944 332.526 75.6231C332.473 75.6231 332.42 75.6231 332.367 75.6231C327.392 75.6231 323.366 79.6505 323.366 84.6276C323.366 89.6046 327.392 93.632 332.367 93.632H365.435C368.283 93.5441 370.569 91.2226 370.569 88.356L370.551 88.3384Z" fill="#F0F0F0"/>
<path d="M529.492 199.258C529.492 196.339 531.848 193.982 534.766 193.982C535.293 193.982 535.803 194.07 536.278 194.211C536.207 193.683 536.155 193.138 536.155 192.593C536.155 186.42 541.165 181.407 547.336 181.407C548.039 181.407 548.724 181.478 549.393 181.601C551.115 178.787 554.192 176.905 557.743 176.905C563.105 176.905 567.447 181.214 567.518 186.543C567.57 186.543 567.623 186.543 567.676 186.543C572.651 186.543 576.677 190.57 576.677 195.547C576.677 200.524 572.651 204.552 567.676 204.552H534.608C531.76 204.464 529.474 202.142 529.474 199.276L529.492 199.258Z" fill="#F0F0F0"/>
<path d="M588.789 115.158C588.789 115.158 590.178 110.463 582.443 106.382C582.443 106.382 580.703 107.772 574.62 109.073C568.537 110.375 578.698 119.766 584.623 120.206C590.53 120.645 588.789 115.158 588.789 115.158Z" fill="#E6E6E6"/>
<path d="M587.488 115.492C587.488 115.492 588.93 107.965 601.922 106.101C614.896 104.254 620.117 103.516 620.117 103.516C620.117 103.516 621.471 117.339 603.398 119.66L620.117 118.095C620.117 118.095 618.605 122.703 611.819 124.708L602.959 122.879C602.959 122.879 587.611 126.853 580.702 120.276C578.03 117.726 573.899 118.095 573.899 118.095C573.899 118.095 574.69 116.882 576.167 116.442C576.167 116.442 575.376 114.349 576.782 113.4C581.388 110.269 584.482 116.882 587.471 115.475L587.488 115.492Z" fill="#F0F0F0"/>
<path d="M491.414 79.2108C491.414 79.2108 492.205 76.5552 487.827 74.2338C487.827 74.2338 486.843 75.0252 483.397 75.7638C479.952 76.5025 485.718 81.8137 489.058 82.0599C492.398 82.3061 491.414 79.2108 491.414 79.2108Z" fill="#E6E6E6"/>
<path d="M490.675 79.4043C490.675 79.4043 491.502 75.1483 498.833 74.0931C506.181 73.0379 509.134 72.6334 509.134 72.6334C509.134 72.6334 509.908 80.4595 499.676 81.7785L509.134 80.8992C509.134 80.8992 508.273 83.502 504.441 84.6452L499.43 83.6076C499.43 83.6076 490.746 85.8587 486.843 82.1303C485.331 80.6882 482.993 80.8992 482.993 80.8992C482.993 80.8992 483.45 80.2133 484.276 79.9671C484.276 79.9671 483.837 78.7888 484.628 78.2436C487.23 76.4673 488.988 80.2133 490.675 79.4219V79.4043Z" fill="#F0F0F0"/>
<path d="M424.838 126.924C424.838 126.924 425.383 125.06 422.324 123.442C422.324 123.442 421.639 123.987 419.213 124.514C416.804 125.024 420.83 128.753 423.186 128.929C425.524 129.105 424.838 126.924 424.838 126.924Z" fill="#E6E6E6"/>
<path d="M424.328 127.047C424.328 127.047 424.909 124.057 430.06 123.318C435.21 122.58 437.285 122.298 437.285 122.298C437.285 122.298 437.83 127.786 430.64 128.7L437.285 128.085C437.285 128.085 436.687 129.914 433.997 130.705L430.481 129.984C430.481 129.984 424.381 131.567 421.639 128.946C420.584 127.926 418.949 128.085 418.949 128.085C418.949 128.085 419.265 127.592 419.846 127.434C419.846 127.434 419.529 126.607 420.092 126.22C421.92 124.972 423.151 127.592 424.328 127.047Z" fill="#F0F0F0"/>
<path d="M269.326 346.741C269.326 346.741 269.185 346.741 269.097 346.705C268.622 346.582 268.341 346.108 268.464 345.633C268.464 345.598 269.484 341.746 271.646 335.415C271.804 334.958 272.297 334.711 272.771 334.87C273.228 335.028 273.474 335.52 273.316 335.978C271.171 342.238 270.169 346.02 270.169 346.072C270.064 346.459 269.712 346.723 269.326 346.723V346.741ZM276.797 325.021C276.692 325.021 276.586 325.003 276.463 324.951C276.006 324.775 275.795 324.265 275.971 323.808C277.272 320.554 278.661 317.265 280.085 314.029C280.278 313.59 280.805 313.379 281.245 313.59C281.684 313.783 281.895 314.311 281.684 314.75C280.26 317.969 278.889 321.24 277.588 324.476C277.448 324.828 277.114 325.021 276.78 325.021H276.797ZM286.15 304.11C286.027 304.11 285.886 304.075 285.763 304.022C285.323 303.811 285.148 303.284 285.359 302.844C286.923 299.696 288.576 296.53 290.263 293.435C290.492 293.013 291.037 292.855 291.459 293.083C291.881 293.312 292.039 293.857 291.81 294.279C290.14 297.339 288.488 300.487 286.941 303.618C286.783 303.934 286.484 304.11 286.15 304.11ZM297.225 284.061C297.067 284.061 296.909 284.026 296.768 283.938C296.346 283.692 296.223 283.147 296.469 282.725C298.315 279.7 300.249 276.693 302.183 273.791C302.446 273.386 302.991 273.281 303.396 273.545C303.8 273.808 303.905 274.354 303.642 274.758C301.708 277.625 299.809 280.614 297.963 283.622C297.805 283.886 297.506 284.044 297.207 284.044L297.225 284.061ZM310.058 265.12C309.883 265.12 309.689 265.068 309.531 264.945C309.144 264.646 309.074 264.1 309.355 263.714C311.5 260.864 313.698 258.068 315.93 255.395C316.247 255.026 316.792 254.973 317.161 255.289C317.53 255.606 317.583 256.151 317.266 256.521C315.051 259.176 312.871 261.955 310.744 264.769C310.568 264.997 310.305 265.12 310.041 265.12H310.058ZM575.323 260.038C575.059 260.038 574.796 259.915 574.62 259.686C572.51 256.907 570.278 254.181 567.992 251.561C567.676 251.192 567.711 250.647 568.08 250.312C568.449 249.996 568.994 250.031 569.328 250.4C571.649 253.056 573.899 255.817 576.044 258.613C576.343 259 576.255 259.545 575.868 259.844C575.71 259.968 575.516 260.02 575.341 260.02L575.323 260.038ZM324.773 247.622C324.562 247.622 324.333 247.551 324.175 247.375C323.824 247.041 323.806 246.479 324.14 246.127C326.584 243.542 329.098 241.009 331.612 238.617C331.963 238.283 332.526 238.301 332.86 238.652C333.194 239.004 333.176 239.567 332.825 239.901C330.328 242.275 327.832 244.773 325.423 247.34C325.248 247.516 325.019 247.622 324.79 247.622H324.773ZM560.187 242.926C559.958 242.926 559.747 242.838 559.571 242.68C557.075 240.253 554.473 237.879 551.819 235.61C551.449 235.293 551.397 234.748 551.713 234.379C552.03 234.009 552.592 233.957 552.944 234.273C555.633 236.56 558.27 238.951 560.784 241.414C561.136 241.748 561.136 242.31 560.784 242.662C560.609 242.838 560.38 242.926 560.152 242.926H560.187ZM341.421 231.969C341.175 231.969 340.911 231.864 340.736 231.653C340.419 231.284 340.472 230.721 340.859 230.422C343.601 228.171 346.414 225.99 349.244 223.932C349.631 223.651 350.194 223.739 350.475 224.126C350.756 224.513 350.668 225.075 350.281 225.357C347.486 227.379 344.691 229.542 341.984 231.776C341.826 231.917 341.615 231.969 341.421 231.969ZM542.695 228.223C542.519 228.223 542.343 228.171 542.185 228.065C539.372 226.025 536.436 224.055 533.483 222.209C533.078 221.945 532.938 221.4 533.201 220.995C533.465 220.591 534.01 220.45 534.414 220.714C537.403 222.578 540.356 224.565 543.222 226.641C543.609 226.922 543.697 227.467 543.415 227.872C543.24 228.118 542.976 228.241 542.695 228.241V228.223ZM359.986 218.709C359.687 218.709 359.406 218.568 359.23 218.287C358.984 217.865 359.107 217.337 359.529 217.073C362.552 215.227 365.646 213.468 368.758 211.868C369.198 211.639 369.725 211.815 369.936 212.237C370.164 212.677 369.989 213.204 369.567 213.415C366.508 215.016 363.431 216.739 360.443 218.568C360.302 218.656 360.144 218.691 359.986 218.691V218.709ZM523.251 216.229C523.11 216.229 522.97 216.194 522.847 216.124C519.77 214.523 516.588 212.993 513.389 211.586C512.949 211.393 512.738 210.865 512.932 210.426C513.125 209.986 513.652 209.775 514.092 209.968C517.327 211.393 520.544 212.941 523.655 214.559C524.077 214.787 524.253 215.315 524.025 215.737C523.866 216.036 523.568 216.212 523.251 216.212V216.229ZM380.273 208.315C379.921 208.315 379.605 208.104 379.464 207.77C379.271 207.33 379.482 206.803 379.939 206.627C383.191 205.273 386.531 204.006 389.854 202.899C390.311 202.74 390.821 202.986 390.962 203.444C391.12 203.901 390.874 204.411 390.417 204.552C387.129 205.66 383.824 206.891 380.625 208.245C380.519 208.298 380.396 208.315 380.291 208.315H380.273ZM502.313 207.119C502.208 207.119 502.12 207.119 502.014 207.067C498.762 205.906 495.404 204.833 492.029 203.866C491.554 203.725 491.291 203.25 491.431 202.775C491.572 202.301 492.047 202.037 492.521 202.177C495.932 203.162 499.325 204.235 502.612 205.413C503.069 205.572 503.315 206.082 503.14 206.539C503.017 206.891 502.665 207.119 502.313 207.119ZM401.932 201.175C401.545 201.175 401.176 200.911 401.07 200.507C400.947 200.032 401.246 199.557 401.721 199.434C405.113 198.607 408.594 197.869 412.093 197.271C412.567 197.183 413.025 197.517 413.112 197.992C413.2 198.467 412.866 198.924 412.392 199.012C408.946 199.61 405.5 200.331 402.142 201.14C402.072 201.14 402.002 201.157 401.932 201.157V201.175ZM480.338 200.911C480.338 200.911 480.215 200.911 480.163 200.894C476.77 200.173 473.306 199.539 469.843 199.012C469.368 198.941 469.034 198.484 469.105 198.009C469.175 197.535 469.632 197.2 470.107 197.271C473.605 197.816 477.104 198.449 480.532 199.17C481.006 199.276 481.305 199.733 481.217 200.208C481.129 200.612 480.76 200.911 480.356 200.911H480.338ZM457.748 197.535C457.748 197.535 457.695 197.535 457.66 197.535C454.214 197.236 450.681 197.007 447.182 196.884C446.69 196.884 446.321 196.462 446.339 195.969C446.356 195.477 446.813 195.09 447.253 195.125C450.786 195.248 454.338 195.477 457.818 195.793C458.293 195.829 458.662 196.268 458.609 196.743C458.574 197.2 458.188 197.552 457.73 197.552L457.748 197.535ZM424.399 197.411C423.942 197.411 423.573 197.077 423.52 196.62C423.485 196.145 423.836 195.706 424.311 195.67C427.774 195.354 431.343 195.143 434.894 195.055C435.386 195.055 435.791 195.424 435.791 195.917C435.791 196.409 435.421 196.813 434.929 196.813C431.413 196.901 427.897 197.112 424.469 197.429C424.434 197.429 424.416 197.429 424.381 197.429L424.399 197.411Z" fill="#407BFF"/>
<path d="M576.765 261.603C576.765 261.603 576.694 261.603 576.677 261.603L569.363 260.812C568.889 260.759 568.537 260.319 568.59 259.844C568.643 259.37 569.065 259 569.557 259.071L576.061 259.774L577.187 253.496C577.275 253.021 577.732 252.704 578.206 252.792C578.681 252.88 578.997 253.337 578.909 253.812L577.626 260.9C577.556 261.322 577.187 261.621 576.765 261.621V261.603Z" fill="#407BFF"/>
<path d="M90.8007 368.425H353.499C359.845 368.425 364.996 373.578 364.996 379.927V589.297C364.996 595.646 359.845 600.799 353.499 600.799H90.8007C84.4543 600.799 79.3033 595.646 79.3033 589.297V379.927C79.3033 373.578 84.4543 368.425 90.8007 368.425Z" fill="#407BFF"/>
<path opacity="0.3" d="M90.8007 368.425H353.499C359.845 368.425 364.996 373.578 364.996 379.927V589.297C364.996 595.646 359.845 600.799 353.499 600.799H90.8007C84.4543 600.799 79.3033 595.646 79.3033 589.297V379.927C79.3033 373.578 84.4543 368.425 90.8007 368.425Z" fill="black"/>
<path d="M354.413 378.942C354.413 381.017 353.569 382.899 352.215 384.253C350.862 385.607 348.998 386.452 346.924 386.452H99.0281C94.8968 386.452 91.5391 383.093 91.5391 378.942C91.5391 376.867 92.3829 375.003 93.7366 373.648C95.0902 372.294 96.9713 371.45 99.0281 371.45H346.924C351.055 371.45 354.413 374.809 354.413 378.942Z" fill="#263238"/>
<path d="M319.71 317.494C350.692 317.494 375.808 292.368 375.808 261.374C375.808 230.381 350.692 205.255 319.71 205.255C288.728 205.255 263.612 230.381 263.612 261.374C263.612 292.368 288.728 317.494 319.71 317.494Z" fill="#407BFF"/>
<path opacity="0.3" d="M319.71 317.494C350.692 317.494 375.808 292.368 375.808 261.374C375.808 230.381 350.692 205.255 319.71 205.255C288.728 205.255 263.612 230.381 263.612 261.374C263.612 292.368 288.728 317.494 319.71 317.494Z" fill="white"/>
<path opacity="0.6" d="M319.71 217.46C295.467 217.46 275.813 237.122 275.813 261.374C275.813 285.627 295.467 305.289 319.71 305.289C343.953 305.289 363.607 285.627 363.607 261.374C363.607 237.122 343.953 217.46 319.71 217.46ZM323.753 286.365V294.191H316.774V286.576C309.865 286.154 303.237 283.991 299.387 280.984L303.22 272.472C306.718 275.057 311.729 276.939 316.756 277.431V265.771C309.004 263.889 300.354 261.304 300.354 251.315C300.354 243.911 305.734 237.562 316.756 236.296V228.54H323.736V236.155C328.975 236.577 334.073 237.966 337.905 240.411L334.424 248.993C330.873 246.971 327.234 245.775 323.753 245.371V257.242C331.506 259.053 340.015 261.638 340.015 271.487C340.015 278.75 334.706 285.029 323.753 286.365Z" fill="white"/>
<path opacity="0.6" d="M323.753 267.512V277.15C327.234 276.376 328.781 274.565 328.781 272.331C328.781 269.886 326.759 268.567 323.753 267.512Z" fill="white"/>
<path opacity="0.6" d="M311.605 250.752C311.605 253.197 313.697 254.516 316.774 255.5V245.582C313.082 246.426 311.605 248.448 311.605 250.752Z" fill="white"/>
<path d="M323.085 341.465C323.085 352.491 319.903 362.78 314.401 371.45C310.744 377.254 306.015 382.336 300.53 386.452H233.427C227.942 382.336 223.231 377.254 219.557 371.45C214.054 362.78 210.872 352.491 210.872 341.465C210.872 310.459 235.994 285.328 266.987 285.328C297.981 285.328 323.085 310.459 323.085 341.465Z" fill="#407BFF"/>
<path opacity="0.5" d="M323.085 341.465C323.085 352.491 319.903 362.78 314.401 371.45C310.744 377.254 306.015 382.336 300.53 386.452H233.427C227.942 382.336 223.231 377.254 219.557 371.45C214.054 362.78 210.872 352.491 210.872 341.465C210.872 310.459 235.994 285.328 266.987 285.328C297.981 285.328 323.085 310.459 323.085 341.465Z" fill="white"/>
<path opacity="0.6" d="M266.987 297.55C242.745 297.55 223.09 317.212 223.09 341.465C223.09 353.054 227.591 363.606 234.939 371.45C242.938 380.015 254.33 385.361 266.987 385.361C279.645 385.361 291.037 380.015 299.036 371.45C306.384 363.606 310.885 353.054 310.885 341.465C310.885 317.212 291.23 297.55 266.987 297.55ZM271.031 374.281H264.052V366.666C257.143 366.244 250.515 364.081 246.665 361.074L250.515 352.562C253.996 355.147 259.024 357.029 264.052 357.521V345.861C256.299 343.979 247.649 341.394 247.649 331.405C247.649 324.001 253.029 317.652 264.052 316.386V308.648H271.031V316.245C276.27 316.667 281.368 318.074 285.2 320.519L281.702 329.101C278.151 327.079 274.512 325.883 271.031 325.461V337.332C278.784 339.161 287.292 341.746 287.292 351.577C287.292 358.84 281.983 365.136 271.031 366.455V374.281Z" fill="white"/>
<path opacity="0.6" d="M271.031 347.602V357.24C274.512 356.466 276.059 354.655 276.059 352.421C276.059 349.977 274.037 348.658 271.031 347.602Z" fill="white"/>
<path opacity="0.6" d="M258.883 330.842C258.883 333.287 260.975 334.606 264.052 335.591V325.672C260.36 326.516 258.883 328.538 258.883 330.842Z" fill="white"/>
<path d="M336.587 394.577L89.658 369.463C83.9445 368.882 79.3033 373.367 79.3033 379.47V589.719C79.3033 595.822 83.9445 601.239 89.658 601.819L336.587 626.933C342.3 627.513 346.941 623.029 346.941 616.926V406.676C346.941 400.574 342.3 395.157 336.587 394.577Z" fill="#407BFF"/>
<path d="M94.9848 377.06L86.1772 376.163C85.6849 376.111 85.263 376.462 85.2103 376.955C85.1575 377.43 85.5091 377.869 85.9838 377.922L94.809 378.819H94.8969C95.3539 378.819 95.7231 378.485 95.7759 378.028C95.8286 377.535 95.477 377.113 94.9848 377.06ZM114.393 379.03L105.585 378.133C105.076 378.08 104.671 378.45 104.619 378.924C104.566 379.417 104.917 379.839 105.392 379.892L114.217 380.789H114.305C114.762 380.789 115.131 380.455 115.184 379.997C115.237 379.522 114.885 379.083 114.393 379.03ZM133.801 381.017L124.994 380.12C124.484 380.05 124.08 380.419 124.027 380.894C123.974 381.387 124.326 381.809 124.8 381.861L133.626 382.758H133.713C134.171 382.758 134.54 382.424 134.592 381.967C134.645 381.492 134.294 381.052 133.801 381.017ZM153.21 382.987L144.385 382.09C143.91 382.037 143.47 382.389 143.435 382.864C143.382 383.356 143.734 383.778 144.209 383.831L153.034 384.728H153.122C153.579 384.728 153.948 384.394 154.001 383.954C154.054 383.462 153.702 383.04 153.21 382.987ZM172.618 384.957L163.793 384.06C163.318 384.007 162.896 384.359 162.844 384.851C162.791 385.326 163.142 385.766 163.617 385.801L172.442 386.698C172.442 386.698 172.513 386.715 172.53 386.715C172.987 386.715 173.356 386.364 173.409 385.924C173.462 385.432 173.11 385.009 172.618 384.957ZM192.026 386.926L183.201 386.029C182.727 385.977 182.305 386.328 182.252 386.821C182.199 387.296 182.551 387.735 183.025 387.788L191.851 388.685H191.938C192.396 388.685 192.765 388.351 192.817 387.894C192.87 387.401 192.519 386.979 192.026 386.926ZM211.435 388.896L202.61 387.999C202.135 387.964 201.695 388.316 201.66 388.791C201.607 389.283 201.959 389.705 202.434 389.758L211.259 390.655H211.347C211.804 390.655 212.173 390.321 212.226 389.863C212.279 389.389 211.927 388.949 211.435 388.896ZM230.843 390.883L222.018 389.987C221.526 389.934 221.104 390.285 221.069 390.76C221.016 391.253 221.367 391.675 221.842 391.728L230.667 392.625H230.755C231.212 392.625 231.581 392.29 231.634 391.833C231.687 391.358 231.335 390.919 230.843 390.883ZM250.251 392.853L241.426 391.956C240.934 391.903 240.512 392.255 240.477 392.73C240.424 393.222 240.776 393.662 241.25 393.697L250.076 394.594C250.076 394.594 250.146 394.612 250.163 394.612C250.621 394.612 250.99 394.26 251.042 393.82C251.095 393.328 250.744 392.906 250.251 392.853ZM269.66 394.823L260.852 393.926C260.342 393.891 259.92 394.225 259.885 394.717C259.832 395.192 260.184 395.632 260.659 395.667L269.484 396.564C269.484 396.564 269.554 396.582 269.572 396.582C270.029 396.582 270.398 396.23 270.451 395.79C270.503 395.298 270.152 394.876 269.66 394.823ZM289.068 396.793L280.243 395.896C279.768 395.86 279.329 396.212 279.293 396.687C279.241 397.162 279.592 397.602 280.067 397.654L288.892 398.551H288.98C289.437 398.551 289.806 398.217 289.859 397.76C289.912 397.267 289.56 396.845 289.068 396.793ZM308.476 398.762L299.651 397.865C299.176 397.83 298.737 398.182 298.702 398.657C298.649 399.149 299.001 399.571 299.475 399.624L308.3 400.521H308.388C308.845 400.521 309.215 400.187 309.267 399.73C309.32 399.255 308.969 398.815 308.476 398.762ZM327.885 400.75L319.059 399.853C318.585 399.8 318.145 400.152 318.11 400.627C318.057 401.119 318.409 401.541 318.884 401.594L327.726 402.491L327.92 401.629L327.885 400.75ZM337.167 406.958C336.921 406.536 336.376 406.395 335.954 406.641C335.549 406.905 335.409 407.433 335.655 407.855C336.71 409.649 337.272 411.689 337.272 413.729V415.962C337.272 416.455 337.659 416.842 338.151 416.842C338.644 416.842 339.03 416.455 339.03 415.962V413.729C339.03 411.372 338.38 409.033 337.167 406.958ZM338.151 425.723C337.659 425.723 337.272 426.127 337.272 426.602V435.483C337.272 435.958 337.659 436.363 338.151 436.363C338.644 436.363 339.03 435.958 339.03 435.483V426.602C339.03 426.127 338.626 425.723 338.151 425.723ZM338.151 445.244C337.659 445.244 337.272 445.631 337.272 446.123V454.987C337.272 455.48 337.659 455.867 338.151 455.867C338.644 455.867 339.03 455.48 339.03 454.987V446.123C339.03 445.631 338.626 445.244 338.151 445.244ZM338.151 464.765C337.659 464.765 337.272 465.152 337.272 465.645V474.509C337.272 475.001 337.659 475.388 338.151 475.388C338.644 475.388 339.03 475.001 339.03 474.509V465.645C339.03 465.152 338.626 464.765 338.151 464.765ZM338.151 484.269C337.659 484.269 337.272 484.674 337.272 485.148V494.03C337.272 494.505 337.659 494.909 338.151 494.909C338.644 494.909 339.03 494.505 339.03 494.03V485.148C339.03 484.674 338.626 484.269 338.151 484.269ZM338.151 503.79C337.659 503.79 337.272 504.177 337.272 504.67V513.534C337.272 514.026 337.659 514.413 338.151 514.413C338.644 514.413 339.03 514.026 339.03 513.534V504.67C339.03 504.177 338.626 503.79 338.151 503.79ZM338.151 523.312C337.659 523.312 337.272 523.699 337.272 524.191V533.055C337.272 533.547 337.659 533.934 338.151 533.934C338.644 533.934 339.03 533.547 339.03 533.055V524.191C339.03 523.699 338.626 523.312 338.151 523.312ZM338.151 542.815C337.659 542.815 337.272 543.22 337.272 543.695V552.576C337.272 553.051 337.659 553.456 338.151 553.456C338.644 553.456 339.03 553.051 339.03 552.576V543.695C339.03 543.22 338.626 542.815 338.151 542.815ZM338.151 562.337C337.659 562.337 337.272 562.724 337.272 563.216V572.097C337.272 572.572 337.659 572.977 338.151 572.977C338.644 572.977 339.03 572.572 339.03 572.097V563.216C339.03 562.724 338.626 562.337 338.151 562.337ZM338.151 581.858C337.659 581.858 337.272 582.245 337.272 582.737V591.601C337.272 592.094 337.659 592.481 338.151 592.481C338.644 592.481 339.03 592.094 339.03 591.601V582.737C339.03 582.245 338.626 581.858 338.151 581.858ZM80.0945 593.8C80.0945 593.8 80.0418 593.782 80.0066 593.782C80.1648 594.274 80.3582 594.749 80.5867 595.206C80.7098 595.101 80.7625 594.978 80.7977 594.837C80.8856 594.362 80.5692 593.887 80.0945 593.8ZM99.4149 595.804L90.5898 594.907C90.1151 594.855 89.6756 595.206 89.6404 595.699C89.5877 596.174 89.9393 596.613 90.414 596.649L99.2391 597.546C99.2391 597.546 99.3094 597.563 99.327 597.563C99.7841 597.563 100.153 597.211 100.206 596.772C100.259 596.279 99.9072 595.857 99.4149 595.804ZM118.823 597.774L109.998 596.877C109.523 596.824 109.084 597.176 109.049 597.669C108.996 598.143 109.348 598.583 109.822 598.636L118.647 599.533H118.735C119.192 599.533 119.562 599.199 119.614 598.741C119.667 598.249 119.315 597.827 118.823 597.774ZM138.232 599.744L129.406 598.847C128.932 598.812 128.492 599.163 128.457 599.638C128.404 600.131 128.756 600.553 129.231 600.606L138.056 601.503H138.144C138.601 601.503 138.97 601.168 139.023 600.711C139.075 600.236 138.724 599.797 138.232 599.744ZM157.64 601.731L148.815 600.834C148.34 600.782 147.901 601.133 147.865 601.608C147.813 602.1 148.164 602.523 148.639 602.575L157.464 603.472H157.552C158.009 603.472 158.378 603.138 158.431 602.681C158.484 602.206 158.132 601.766 157.64 601.731ZM177.048 603.701L168.223 602.804C167.731 602.751 167.309 603.103 167.274 603.578C167.221 604.07 167.573 604.492 168.047 604.545L176.872 605.442H176.96C177.417 605.442 177.787 605.108 177.839 604.668C177.892 604.176 177.54 603.754 177.048 603.701ZM196.457 605.671L187.631 604.774C187.157 604.721 186.717 605.073 186.682 605.565C186.629 606.04 186.981 606.48 187.456 606.515L196.281 607.412C196.281 607.412 196.351 607.429 196.369 607.429C196.826 607.429 197.195 607.078 197.248 606.638C197.3 606.145 196.949 605.723 196.457 605.671ZM215.865 607.64L207.04 606.743C206.547 606.691 206.126 607.042 206.09 607.535C206.038 608.01 206.389 608.449 206.864 608.502L215.689 609.399H215.777C216.234 609.399 216.603 609.065 216.656 608.608C216.709 608.115 216.357 607.693 215.865 607.64ZM235.273 609.61L226.448 608.713C225.973 608.66 225.534 609.03 225.499 609.505C225.446 609.997 225.798 610.419 226.272 610.472L235.097 611.369H235.185C235.642 611.369 236.012 611.035 236.064 610.577C236.117 610.102 235.765 609.663 235.273 609.61ZM338.151 601.362C337.659 601.362 337.272 601.766 337.272 602.241V609.909C337.272 610.278 337.255 610.665 337.22 611.035C337.167 611.509 337.518 611.949 337.993 611.984C338.028 612.002 338.063 612.002 338.081 612.002C338.538 612.002 338.907 611.668 338.96 611.21C339.013 610.788 339.03 610.349 339.03 609.909V602.241C339.03 601.766 338.626 601.362 338.151 601.362ZM254.681 611.597L245.856 610.7C245.364 610.648 244.942 610.999 244.907 611.474C244.854 611.967 245.206 612.389 245.681 612.441L254.506 613.338H254.594C255.051 613.338 255.42 613.004 255.473 612.547C255.525 612.072 255.174 611.633 254.681 611.597ZM274.09 613.567L265.265 612.67C264.772 612.617 264.35 612.969 264.315 613.444C264.263 613.936 264.614 614.376 265.089 614.411L273.914 615.308C273.914 615.308 273.984 615.326 274.002 615.326C274.459 615.326 274.828 614.974 274.881 614.534C274.934 614.042 274.582 613.62 274.09 613.567ZM293.498 615.537L284.673 614.64C284.181 614.587 283.759 614.939 283.724 615.431C283.671 615.906 284.023 616.346 284.497 616.381L293.322 617.278C293.322 617.278 293.393 617.295 293.41 617.295C293.867 617.295 294.236 616.944 294.289 616.504C294.342 616.012 293.99 615.59 293.498 615.537ZM312.906 617.506L304.081 616.61C303.589 616.557 303.167 616.926 303.132 617.401C303.079 617.876 303.431 618.315 303.905 618.368L312.731 619.265H312.819C313.276 619.265 313.645 618.931 313.698 618.474C313.75 617.981 313.399 617.559 312.906 617.506ZM332.983 619.001C332.807 618.544 332.297 618.333 331.84 618.509C330.609 618.984 329.291 619.177 327.885 619.037L323.49 618.579C322.997 618.544 322.575 618.896 322.54 619.371C322.488 619.863 322.839 620.285 323.314 620.338L327.709 620.778C328.078 620.813 328.43 620.83 328.799 620.83C330.082 620.83 331.33 620.602 332.491 620.145C332.948 619.951 333.159 619.441 332.983 619.001Z" fill="#263238"/>
<path d="M395.726 500.343L307.615 491.392C304.995 491.128 302.71 493.186 302.71 495.824V525.774C302.71 528.06 304.433 529.977 306.701 530.206L395.515 539.245C397.167 539.421 398.785 538.647 399.699 537.258L407.522 525.264C408.366 523.963 408.471 522.327 407.821 520.92L399.294 502.876C398.626 501.469 397.273 500.502 395.726 500.343Z" fill="#407BFF"/>
<path opacity="0.2" d="M395.726 500.343L307.615 491.392C304.995 491.128 302.71 493.186 302.71 495.824V525.774C302.71 528.06 304.433 529.977 306.701 530.206L395.515 539.245C397.167 539.421 398.785 538.647 399.699 537.258L407.522 525.264C408.366 523.963 408.471 522.327 407.821 520.92L399.294 502.876C398.626 501.469 397.273 500.502 395.726 500.343Z" fill="black"/>
<path d="M395.673 519.478C395.673 524.859 391.7 529.221 386.813 529.221C381.925 529.221 377.952 524.859 377.952 519.478C377.952 514.096 381.925 509.735 386.813 509.735C391.7 509.735 395.673 514.096 395.673 519.478Z" fill="#407BFF"/>
<path d="M785.263 600.764H522.565C516.219 600.764 511.068 595.611 511.068 589.262V379.892C511.068 373.543 516.219 368.39 522.565 368.39H785.263C791.61 368.39 796.761 373.543 796.761 379.892V589.262C796.761 595.611 791.61 600.764 785.263 600.764Z" fill="#263238"/>
<path opacity="0.2" d="M785.263 600.764H522.565C516.219 600.764 511.068 595.611 511.068 589.262V379.892C511.068 373.543 516.219 368.39 522.565 368.39H785.263C791.61 368.39 796.761 373.543 796.761 379.892V589.262C796.761 595.611 791.61 600.764 785.263 600.764Z" fill="white"/>
<path d="M529.14 386.452L777.018 386.452C781.164 386.452 784.525 383.09 784.525 378.942C784.525 374.795 781.164 371.433 777.018 371.433L529.14 371.433C524.994 371.433 521.634 374.795 521.634 378.942C521.634 383.09 524.994 386.452 529.14 386.452Z" fill="#263238"/>
<path d="M539.477 394.577L786.406 369.463C792.12 368.883 796.761 373.367 796.761 379.47V589.72C796.761 595.822 792.12 601.239 786.406 601.819L539.477 626.933C533.764 627.514 529.123 623.029 529.123 616.926V406.676C529.123 400.574 533.764 395.157 539.477 394.577Z" fill="#263238"/>
<path opacity="0.4" d="M539.477 394.577L786.406 369.463C792.12 368.883 796.761 373.367 796.761 379.47V589.72C796.761 595.822 792.12 601.239 786.406 601.819L539.477 626.933C533.764 627.514 529.123 623.029 529.123 616.926V406.676C529.123 400.574 533.764 395.157 539.477 394.577Z" fill="white"/>
<path d="M780.288 378.028C780.341 378.485 780.71 378.819 781.167 378.819H781.255L790.08 377.922C790.555 377.869 790.907 377.43 790.854 376.955C790.801 376.462 790.379 376.111 789.887 376.163L781.079 377.06C780.587 377.113 780.236 377.535 780.288 378.028ZM760.88 379.997C760.933 380.455 761.302 380.789 761.759 380.789H761.847L770.672 379.892C771.147 379.839 771.498 379.417 771.446 378.925C771.393 378.45 770.988 378.08 770.479 378.133L761.671 379.03C761.179 379.083 760.827 379.523 760.88 379.997ZM741.472 381.967C741.524 382.424 741.894 382.758 742.351 382.758H742.439L751.264 381.862C751.738 381.809 752.09 381.387 752.037 380.894C751.984 380.419 751.58 380.05 751.07 380.12L742.263 381.017C741.77 381.053 741.419 381.492 741.472 381.967ZM722.063 383.954C722.116 384.394 722.485 384.728 722.942 384.728H723.03L731.855 383.831C732.33 383.779 732.682 383.356 732.629 382.864C732.594 382.389 732.154 382.037 731.68 382.09L722.854 382.987C722.362 383.04 722.011 383.462 722.063 383.954ZM702.655 385.924C702.708 386.364 703.077 386.715 703.534 386.715C703.552 386.715 703.587 386.716 703.622 386.698L712.447 385.801C712.922 385.766 713.273 385.326 713.221 384.851C713.168 384.359 712.746 384.007 712.271 384.06L703.446 384.957C702.954 385.01 702.602 385.432 702.655 385.924ZM683.247 387.894C683.299 388.351 683.669 388.685 684.126 388.685H684.214L693.039 387.788C693.513 387.736 693.865 387.296 693.812 386.821C693.76 386.329 693.338 385.977 692.863 386.03L684.038 386.927C683.546 386.979 683.194 387.401 683.247 387.894ZM663.838 389.864C663.891 390.321 664.26 390.655 664.717 390.655H664.805L673.63 389.758C674.105 389.705 674.457 389.283 674.404 388.791C674.369 388.316 673.929 387.964 673.455 387.999L664.629 388.896C664.137 388.949 663.786 389.389 663.838 389.864ZM644.43 391.833C644.483 392.291 644.852 392.625 645.309 392.625H645.397L654.222 391.728C654.697 391.675 655.048 391.253 654.996 390.76C654.96 390.286 654.539 389.934 654.046 389.987L645.221 390.884C644.729 390.919 644.377 391.358 644.43 391.833ZM625.022 393.821C625.074 394.26 625.444 394.612 625.901 394.612C625.918 394.612 625.953 394.594 625.989 394.594L634.814 393.697C635.288 393.662 635.64 393.223 635.587 392.73C635.552 392.255 635.13 391.904 634.638 391.956L625.813 392.853C625.321 392.906 624.969 393.328 625.022 393.821ZM605.613 395.79C605.666 396.23 606.035 396.582 606.492 396.582C606.51 396.582 606.545 396.582 606.58 396.564L615.405 395.667C615.88 395.632 616.232 395.192 616.179 394.717C616.144 394.225 615.722 393.891 615.212 393.926L606.404 394.823C605.912 394.876 605.561 395.298 605.613 395.79ZM586.205 397.76C586.258 398.217 586.627 398.551 587.084 398.551H587.172L595.997 397.654C596.472 397.602 596.823 397.162 596.771 396.687C596.735 396.212 596.296 395.861 595.821 395.896L586.996 396.793C586.504 396.845 586.152 397.268 586.205 397.76ZM566.797 399.73C566.849 400.187 567.219 400.521 567.676 400.521H567.764L576.589 399.624C577.063 399.571 577.415 399.149 577.362 398.657C577.327 398.182 576.888 397.83 576.413 397.866L567.588 398.762C567.096 398.815 566.744 399.255 566.797 399.73ZM548.144 401.629L548.338 402.491L557.18 401.594C557.655 401.541 558.007 401.119 557.954 400.627C557.919 400.152 557.479 399.8 557.005 399.853L548.18 400.75L548.144 401.629ZM537.034 413.729V415.962C537.034 416.455 537.438 416.842 537.913 416.842C538.387 416.842 538.792 416.455 538.792 415.962V413.729C538.792 411.689 539.354 409.649 540.409 407.855C540.655 407.433 540.515 406.905 540.11 406.641C539.688 406.395 539.143 406.536 538.897 406.958C537.684 409.033 537.034 411.372 537.034 413.729ZM537.034 426.602V435.484C537.034 435.958 537.438 436.363 537.913 436.363C538.387 436.363 538.792 435.958 538.792 435.484V426.602C538.792 426.127 538.405 425.723 537.913 425.723C537.421 425.723 537.034 426.127 537.034 426.602ZM537.034 446.124V454.987C537.034 455.48 537.438 455.867 537.913 455.867C538.387 455.867 538.792 455.48 538.792 454.987V446.124C538.792 445.631 538.405 445.244 537.913 445.244C537.421 445.244 537.034 445.631 537.034 446.124ZM537.034 465.645V474.509C537.034 475.001 537.438 475.388 537.913 475.388C538.387 475.388 538.792 475.001 538.792 474.509V465.645C538.792 465.152 538.405 464.766 537.913 464.766C537.421 464.766 537.034 465.152 537.034 465.645ZM537.034 485.149V494.03C537.034 494.505 537.438 494.909 537.913 494.909C538.387 494.909 538.792 494.505 538.792 494.03V485.149C538.792 484.674 538.405 484.269 537.913 484.269C537.421 484.269 537.034 484.674 537.034 485.149ZM537.034 504.67V513.534C537.034 514.026 537.438 514.413 537.913 514.413C538.387 514.413 538.792 514.026 538.792 513.534V504.67C538.792 504.177 538.405 503.791 537.913 503.791C537.421 503.791 537.034 504.177 537.034 504.67ZM537.034 524.191V533.055C537.034 533.547 537.438 533.934 537.913 533.934C538.387 533.934 538.792 533.547 538.792 533.055V524.191C538.792 523.699 538.405 523.312 537.913 523.312C537.421 523.312 537.034 523.699 537.034 524.191ZM537.034 543.695V552.576C537.034 553.051 537.438 553.456 537.913 553.456C538.387 553.456 538.792 553.051 538.792 552.576V543.695C538.792 543.22 538.405 542.816 537.913 542.816C537.421 542.816 537.034 543.22 537.034 543.695ZM537.034 563.216V572.098C537.034 572.572 537.438 572.977 537.913 572.977C538.387 572.977 538.792 572.572 538.792 572.098V563.216C538.792 562.724 538.405 562.337 537.913 562.337C537.421 562.337 537.034 562.724 537.034 563.216ZM537.034 582.738V591.601C537.034 592.094 537.438 592.481 537.913 592.481C538.387 592.481 538.792 592.094 538.792 591.601V582.738C538.792 582.245 538.405 581.858 537.913 581.858C537.421 581.858 537.034 582.245 537.034 582.738ZM795.266 594.837C795.302 594.978 795.354 595.101 795.477 595.207C795.706 594.749 795.899 594.275 796.058 593.782C796.022 593.782 796.005 593.8 795.97 593.8C795.495 593.888 795.178 594.362 795.266 594.837ZM775.858 596.772C775.911 597.211 776.28 597.563 776.737 597.563C776.755 597.563 776.79 597.563 776.825 597.546L785.65 596.649C786.125 596.614 786.476 596.174 786.424 595.699C786.389 595.207 785.949 594.855 785.474 594.908L776.649 595.805C776.157 595.857 775.805 596.279 775.858 596.772ZM756.45 598.742C756.503 599.199 756.872 599.533 757.329 599.533H757.417L766.242 598.636C766.716 598.583 767.068 598.144 767.015 597.669C766.98 597.176 766.541 596.825 766.066 596.877L757.241 597.774C756.749 597.827 756.397 598.249 756.45 598.742ZM737.041 600.711C737.094 601.169 737.463 601.503 737.92 601.503H738.008L746.834 600.606C747.308 600.553 747.66 600.131 747.607 599.638C747.572 599.164 747.132 598.812 746.658 598.847L737.833 599.744C737.34 599.797 736.989 600.236 737.041 600.711ZM717.633 602.681C717.686 603.138 718.055 603.472 718.512 603.472H718.6L727.425 602.575C727.9 602.523 728.251 602.101 728.199 601.608C728.164 601.133 727.724 600.782 727.249 600.834L718.424 601.731C717.932 601.766 717.58 602.206 717.633 602.681ZM698.225 604.668C698.278 605.108 698.647 605.442 699.104 605.442H699.192L708.017 604.545C708.492 604.492 708.843 604.07 708.79 603.578C708.755 603.103 708.333 602.751 707.841 602.804L699.016 603.701C698.524 603.754 698.172 604.176 698.225 604.668ZM678.816 606.638C678.869 607.078 679.238 607.429 679.696 607.429C679.696 607.429 679.748 607.429 679.783 607.412L688.609 606.515C689.083 606.48 689.435 606.04 689.382 605.565C689.347 605.073 688.907 604.721 688.433 604.774L679.608 605.671C679.115 605.724 678.764 606.146 678.816 606.638ZM659.408 608.608C659.461 609.065 659.83 609.399 660.287 609.399H660.375L669.2 608.502C669.675 608.449 670.027 608.01 669.974 607.535C669.939 607.043 669.517 606.691 669.024 606.744L660.199 607.64C659.707 607.693 659.355 608.115 659.408 608.608ZM640 610.577C640.053 611.035 640.422 611.369 640.879 611.369H640.967L649.792 610.472C650.267 610.419 650.618 609.997 650.565 609.505C650.53 609.03 650.091 608.66 649.616 608.713L640.791 609.61C640.299 609.663 639.947 610.103 640 610.577ZM537.034 602.241V609.909C537.034 610.349 537.051 610.788 537.104 611.211C537.157 611.668 537.526 612.002 537.983 612.002C537.983 612.002 538.036 612.002 538.071 611.984C538.546 611.949 538.897 611.51 538.845 611.035C538.809 610.665 538.792 610.278 538.792 609.909V602.241C538.792 601.766 538.405 601.362 537.913 601.362C537.421 601.362 537.034 601.766 537.034 602.241ZM620.592 612.547C620.644 613.004 621.013 613.339 621.471 613.339H621.558L630.384 612.442C630.858 612.389 631.21 611.967 631.157 611.474C631.122 611 630.7 610.648 630.208 610.701L621.383 611.597C620.89 611.633 620.539 612.072 620.592 612.547ZM601.183 614.534C601.236 614.974 601.605 615.326 602.062 615.326C602.062 615.326 602.115 615.308 602.15 615.308L610.975 614.411C611.45 614.376 611.802 613.936 611.749 613.444C611.714 612.969 611.292 612.617 610.799 612.67L601.974 613.567C601.482 613.62 601.13 614.042 601.183 614.534ZM581.775 616.504C581.828 616.944 582.197 617.296 582.654 617.296C582.654 617.296 582.707 617.296 582.742 617.278L591.567 616.381C592.042 616.346 592.393 615.906 592.34 615.431C592.305 614.939 591.883 614.587 591.391 614.64L582.566 615.537C582.074 615.59 581.722 616.012 581.775 616.504ZM562.367 618.474C562.419 618.931 562.789 619.265 563.246 619.265H563.333L572.159 618.368C572.633 618.316 572.985 617.876 572.932 617.401C572.897 616.926 572.475 616.557 571.983 616.61L563.158 617.507C562.665 617.559 562.314 617.981 562.367 618.474ZM543.574 620.145C544.734 620.602 545.982 620.831 547.265 620.831C547.635 620.831 547.986 620.831 548.355 620.778L552.75 620.338C553.225 620.285 553.577 619.863 553.524 619.371C553.489 618.896 553.067 618.544 552.575 618.579L548.18 619.037C546.773 619.177 545.455 618.984 544.224 618.509C543.767 618.333 543.257 618.544 543.081 619.001C542.906 619.441 543.116 619.951 543.574 620.145Z" fill="white"/>
<path d="M577.749 511.88C577.749 518.739 572.844 524.297 566.797 524.297C560.749 524.297 555.844 518.739 555.844 511.88C555.844 505.022 560.749 499.464 566.797 499.464C572.844 499.464 577.749 505.022 577.749 511.88Z" fill="#263238"/>
<path opacity="0.2" d="M574.145 511.88C574.145 516.347 570.946 519.988 566.99 519.988C563.035 519.988 559.835 516.365 559.835 511.88C559.835 507.396 563.035 503.773 566.99 503.773C570.946 503.773 574.145 507.396 574.145 511.88Z" fill="white"/>
<path d="M547.273 213.386C554.39 183.221 535.715 152.996 505.561 145.876C475.408 138.757 445.194 157.439 438.077 187.604C430.961 217.769 449.635 247.994 479.789 255.114C509.942 262.233 540.156 243.551 547.273 213.386Z" fill="#407BFF"/>
<path opacity="0.5" d="M547.273 213.386C554.39 183.221 535.715 152.996 505.561 145.876C475.408 138.757 445.194 157.439 438.077 187.604C430.961 217.769 449.635 247.994 479.789 255.114C509.942 262.233 540.156 243.551 547.273 213.386Z" fill="white"/>
<path opacity="0.6" d="M492.679 156.593C468.437 156.593 448.782 176.255 448.782 200.507C448.782 224.759 468.437 244.421 492.679 244.421C516.922 244.421 536.577 224.759 536.577 200.507C536.577 176.255 516.922 156.593 492.679 156.593ZM496.723 225.498V233.324H489.744V225.709C482.835 225.287 476.207 223.123 472.357 220.116L476.189 211.604C479.688 214.189 484.698 216.071 489.726 216.564V204.903C481.973 203.022 473.324 200.436 473.324 190.447C473.324 183.043 478.703 176.694 489.726 175.428V167.672H496.705V175.287C501.944 175.709 507.042 177.099 510.875 179.543L507.394 188.126C503.843 186.103 500.204 184.907 496.723 184.503V196.374C504.476 198.185 512.984 200.771 512.984 210.619C512.984 217.883 507.675 224.161 496.723 225.498Z" fill="white"/>
<path opacity="0.6" d="M496.723 206.645V216.282C500.204 215.508 501.751 213.697 501.751 211.463C501.751 209.019 499.729 207.7 496.723 206.645Z" fill="white"/>
<path opacity="0.6" d="M484.575 189.884C484.575 192.329 486.667 193.648 489.744 194.633V184.714C486.052 185.558 484.575 187.581 484.575 189.884Z" fill="white"/>
<path d="M631.095 373.86C659.718 361.999 673.311 329.171 661.455 300.536C649.598 271.902 616.783 258.304 588.159 270.165C559.536 282.026 545.943 314.854 557.799 343.488C569.656 372.123 602.471 385.721 631.095 373.86Z" fill="#407BFF"/>
<path opacity="0.3" d="M631.095 373.86C659.718 361.999 673.311 329.171 661.455 300.536C649.598 271.902 616.783 258.304 588.159 270.165C559.536 282.026 545.943 314.854 557.799 343.488C569.656 372.123 602.471 385.721 631.095 373.86Z" fill="white"/>
<path opacity="0.6" d="M609.622 278.117C585.379 278.117 565.724 297.779 565.724 322.031C565.724 346.283 585.379 365.945 609.622 365.945C633.864 365.945 653.519 346.283 653.519 322.031C653.519 297.779 633.864 278.117 609.622 278.117ZM613.665 347.022V354.848H606.686V347.233C599.777 346.811 593.149 344.648 589.299 341.641L593.132 333.129C596.63 335.714 601.64 337.596 606.668 338.088V326.428C598.915 324.546 590.266 321.961 590.266 311.972C590.266 304.568 595.646 298.219 606.668 296.953V289.197H613.647V296.812C618.886 297.234 623.984 298.623 627.817 301.068L624.336 309.65C620.785 307.628 617.146 306.432 613.665 306.027V317.898C621.418 319.71 629.927 322.295 629.927 332.144C629.927 339.407 624.617 345.686 613.665 347.022Z" fill="white"/>
<path opacity="0.6" d="M613.665 328.169V337.807C617.146 337.033 618.693 335.221 618.693 332.988C618.693 330.543 616.671 329.224 613.665 328.169Z" fill="white"/>
<path opacity="0.6" d="M601.517 311.409C601.517 313.853 603.609 315.172 606.686 316.157V306.238C602.994 307.083 601.517 309.105 601.517 311.409Z" fill="white"/>
<path d="M253.463 92.9605L229.343 92.8636C225.761 92.8492 222.845 95.743 222.83 99.327L222.734 123.456C222.719 127.04 225.612 129.957 229.194 129.971L253.314 130.068C256.897 130.083 259.813 127.189 259.827 123.605L259.924 99.476C259.938 95.892 257.046 92.9749 253.463 92.9605Z" fill="#407BFF"/>
<path d="M245.118 127.768C245.118 127.768 240.195 138.883 229.296 142.312C229.296 142.312 235.343 138.865 234.922 127.258L245.118 127.768Z" fill="#407BFF"/>
<path opacity="0.6" d="M241.321 123.266C247.826 123.266 253.099 117.99 253.099 111.483C253.099 104.975 247.826 99.6995 241.321 99.6995C234.816 99.6995 229.542 104.975 229.542 111.483C229.542 117.99 234.816 123.266 241.321 123.266Z" fill="white"/>
<path d="M239.738 117.269C239.475 117.269 239.229 117.146 239.053 116.917L233.99 110.304C233.691 109.917 233.761 109.372 234.148 109.073C234.535 108.774 235.08 108.845 235.379 109.231L239.774 114.965L247.104 106.083C247.421 105.714 247.966 105.661 248.335 105.96C248.704 106.277 248.757 106.822 248.458 107.191L240.424 116.934C240.248 117.146 240.002 117.251 239.738 117.251V117.269Z" fill="#407BFF"/>
<path d="M638.213 146.737L662.332 146.703C665.915 146.698 668.815 143.789 668.81 140.205L668.777 116.076C668.772 112.492 665.863 109.59 662.281 109.595L638.161 109.629C634.578 109.634 631.678 112.544 631.683 116.128L631.717 140.257C631.722 143.841 634.63 146.742 638.213 146.737Z" fill="#407BFF"/>
<path opacity="0.6" d="M640.018 120.909C642.637 116.653 647.63 118.271 650.232 121.577C652.816 118.271 657.809 116.618 660.446 120.874C664.876 128.049 655.787 134.697 651.48 137.317C650.987 137.616 650.583 137.863 650.249 138.056C649.915 137.863 649.511 137.616 649.019 137.317C644.711 134.715 635.605 128.084 640.018 120.909Z" fill="white"/>
<path d="M646.276 143.895C646.276 143.895 651.163 155.027 662.063 158.474C662.063 158.474 656.033 155.01 656.473 143.402L646.276 143.877V143.895Z" fill="#407BFF"/>
<path d="M659.988 244.263C659.988 244.263 658.178 247.78 655.224 252.599C652.464 257.171 648.667 262.922 644.483 267.987C638.312 275.409 631.263 281.318 625.215 279.77C610.712 276.059 619.484 250.084 619.484 250.084L632.019 253.373C632.019 253.373 648.526 213.451 658.283 212.659L659.988 244.263Z" fill="#407BFF"/>
<path opacity="0.2" d="M655.224 252.599C652.464 257.171 648.667 262.922 644.483 267.987C643.393 254.692 653.501 241.273 653.501 241.273L655.224 252.599Z" fill="black"/>
<path d="M653.396 282.813C653.396 282.813 673.648 297.058 733.297 293.576C733.297 293.576 716.121 252.757 683.071 251.42C650.021 250.084 653.396 282.813 653.396 282.813Z" fill="#407BFF"/>
<path opacity="0.1" d="M653.396 282.813C653.396 282.813 673.648 297.058 733.297 293.576C733.297 293.576 716.121 252.757 683.071 251.42C650.021 250.084 653.396 282.813 653.396 282.813Z" fill="black"/>
<path d="M605.754 615.167L617.462 617.243L622.262 601.274L626.639 586.606L613.138 581.893L609.217 599.515L605.754 615.167Z" fill="white"/>
<path d="M620.099 616.926C620.293 615.625 604.26 613.848 604.26 613.848C604.26 613.848 592.745 622.061 582.882 622.607C573.002 623.169 577.31 629.782 587.893 631.664C598.476 633.546 606.58 634.97 614.105 636.289C621.629 637.626 618.06 630.38 620.117 616.926H620.099Z" fill="#263238"/>
<path d="M593.87 615.801C593.606 615.502 593.378 614.939 593.782 614.042C593.975 613.602 594.327 613.303 594.819 613.11C595.751 612.776 597.122 612.987 598.441 613.356C597.28 612.441 596.296 611.404 596.384 610.56C596.454 610.015 596.876 609.628 597.667 609.417C598.406 609.223 599.091 609.311 599.724 609.716C601.711 610.982 602.396 614.921 602.431 615.097C602.431 615.167 602.431 615.22 602.431 615.291C602.431 615.291 602.414 615.361 602.379 615.396C602.379 615.396 602.308 615.484 602.273 615.519C602.273 615.519 602.185 615.572 602.133 615.59C601.377 615.801 598.581 616.539 596.384 616.539C595.276 616.539 594.327 616.346 593.87 615.818V615.801ZM595.118 613.919C594.854 614.024 594.661 614.165 594.573 614.394C594.309 614.992 594.468 615.185 594.538 615.255C595.171 616.012 598.23 615.642 600.744 615.062C599.038 614.358 596.384 613.461 595.136 613.919H595.118ZM597.913 610.226C597.685 610.296 597.28 610.437 597.245 610.648C597.157 611.369 599.214 613.004 601.412 614.306C601.078 613.004 600.375 611.105 599.285 610.419C599.003 610.243 598.704 610.138 598.388 610.138C598.23 610.138 598.072 610.155 597.896 610.208L597.913 610.226Z" fill="#407BFF"/>
<path opacity="0.2" d="M609.147 599.867L622.209 601.59L626.621 586.765L613.12 581.981L609.147 599.867Z" fill="black"/>
<path d="M684.811 619.599H696.695L698.647 603.05L700.422 587.838L686.306 585.551L685.514 603.578L684.811 619.599Z" fill="white"/>
<path d="M699.244 618.843C699.209 617.524 683.106 618.562 683.106 618.562C683.106 618.562 673.191 628.639 663.575 630.908C653.941 633.176 659.32 638.945 670.079 638.945H696.695C704.343 638.945 699.561 632.438 699.244 618.843Z" fill="#263238"/>
<path d="M673.226 622.308C672.91 622.044 672.593 621.551 672.839 620.584C672.962 620.127 673.244 619.758 673.701 619.494C674.562 619.001 675.951 618.966 677.305 619.107C676.004 618.403 674.843 617.559 674.791 616.715C674.756 616.17 675.107 615.713 675.846 615.361C676.531 615.044 677.234 615.009 677.938 615.308C680.117 616.223 681.471 619.986 681.524 620.145C681.559 620.25 681.559 620.373 681.524 620.479C681.524 620.514 681.489 620.549 681.471 620.567C681.471 620.567 681.383 620.655 681.33 620.672C680.487 621.077 676.9 622.712 674.65 622.712C674.07 622.712 673.56 622.607 673.226 622.325V622.308ZM674.123 620.232C673.877 620.373 673.718 620.567 673.666 620.795C673.507 621.428 673.701 621.587 673.771 621.639C674.527 622.273 677.48 621.376 679.854 620.373C678.043 619.969 675.283 619.564 674.123 620.232ZM676.232 616.117C676.004 616.223 675.652 616.434 675.652 616.662C675.687 617.383 677.99 618.632 680.381 619.547C679.819 618.333 678.799 616.574 677.621 616.082C677.41 615.994 677.182 615.941 676.971 615.941C676.725 615.941 676.478 615.994 676.232 616.117Z" fill="#407BFF"/>
<path opacity="0.2" d="M685.514 603.947L698.647 603.367L700.422 588.013L686.306 585.622L685.514 603.947Z" fill="black"/>
<path d="M610.729 580.662L629.979 584.056C649.405 535.64 663.223 495.226 672.98 461.688C678.236 443.591 682.333 427.499 685.479 413.219L684.6 465.926V585.657H704.149C751.703 358.788 718.002 306.942 718.002 306.942L661.113 297.216C658.951 305.711 657.316 319.481 656.349 329.066L653.783 347.884L631.544 462.761L610.729 580.662Z" fill="#407BFF"/>
<path opacity="0.6" d="M610.729 580.662L629.979 584.056C649.405 535.64 663.223 495.226 672.98 461.688C678.236 443.591 682.333 427.499 685.479 413.219L684.6 465.926V585.657H704.149C751.703 358.788 718.002 306.942 718.002 306.942L661.113 297.216C658.951 305.711 657.316 319.481 656.349 329.066L653.783 347.884L631.544 462.761L610.729 580.662Z" fill="white"/>
<path d="M632.985 581.682L609.112 573.751L609.428 583.916L629.188 590.212L632.985 581.682Z" fill="#407BFF"/>
<path d="M706.698 582.773L681.805 579.132L683.88 589.086L704.431 591.847L706.698 582.773Z" fill="#407BFF"/>
<path d="M718.002 298.43V306.924L659.988 302.475V292.433L718.002 298.43Z" fill="#263238"/>
<path d="M672.555 304.097L685.232 305.233L686.093 295.617L673.416 294.48L672.555 304.097Z" fill="white"/>
<path d="M697.751 309.57L700.631 309.717L701.378 295.051L698.499 294.904L697.751 309.57Z" fill="#407BFF"/>
<path opacity="0.6" d="M697.751 309.57L700.631 309.717L701.378 295.051L698.499 294.904L697.751 309.57Z" fill="white"/>
<path d="M662.329 305.655L665.208 305.802L665.956 291.136L663.077 290.989L662.329 305.655Z" fill="#407BFF"/>
<path opacity="0.6" d="M662.329 305.655L665.208 305.802L665.956 291.136L663.077 290.989L662.329 305.655Z" fill="white"/>
<path opacity="0.2" d="M672.98 461.688C678.236 443.591 682.333 427.499 685.479 413.219C685.479 413.219 685.163 385.467 681.805 362.674C681.805 362.674 673.472 427.868 672.98 461.688Z" fill="black"/>
<path d="M778.46 230.211L781.273 216.898C781.273 216.898 778.636 212.501 779.216 210.232C779.796 207.963 787.144 196.022 789.061 195.864C790.977 195.688 799.363 202.652 798.8 205.572C798.237 208.491 790.414 217.9 789.324 218.498L787.18 232.849L778.46 230.193V230.211Z" fill="white"/>
<path d="M659.689 294.191L717.721 298.922C719.092 278.609 720.481 265.507 733.244 229.314C734.352 226.148 735.547 222.789 736.866 219.237C728.99 216.862 720.956 215.051 712.799 213.767C704.184 212.325 695.465 211.463 686.745 211.182C675.441 211.094 662.485 212.307 662.485 212.307C662.485 212.307 660.639 212.729 659.478 223.985C658.406 234.572 657.369 255.729 659.707 294.209L659.689 294.191Z" fill="#407BFF"/>
<path opacity="0.3" d="M659.689 294.191L717.721 298.922C719.092 278.609 720.481 265.507 733.244 229.314C734.352 226.148 735.547 222.789 736.866 219.237C728.99 216.862 720.956 215.051 712.799 213.767C704.184 212.325 695.465 211.463 686.745 211.182C675.441 211.094 662.485 212.307 662.485 212.307C662.485 212.307 660.639 212.729 659.478 223.985C658.406 234.572 657.369 255.729 659.707 294.209L659.689 294.191Z" fill="black"/>
<path d="M691.509 224.003C705.802 222.174 710.109 216.053 710.109 216.053C701.038 207.489 708.579 192.645 708.579 192.645L691.369 195.864C691.826 198.713 692.019 201.105 692.037 203.11C692.16 213.556 687.448 213.662 687.448 213.662C684.424 219.325 691.527 223.985 691.527 223.985L691.509 224.003Z" fill="white"/>
<path opacity="0.2" d="M691.369 195.864C691.826 198.713 692.019 201.105 692.037 203.11C700.334 201.193 708.579 192.645 708.579 192.645L691.369 195.864Z" fill="black"/>
<path d="M659.461 223.967C681.26 234.133 714.645 231.758 733.227 229.314C734.334 226.148 735.53 222.789 736.848 219.237C728.972 216.862 720.938 215.051 712.781 213.767C704.167 212.325 695.447 211.463 686.728 211.182C675.424 211.094 662.467 212.307 662.467 212.307C662.467 212.307 660.621 212.729 659.461 223.985V223.967Z" fill="white"/>
<path d="M739.942 220.995C748.011 224.495 768.105 260.214 768.105 260.214L777.458 227.326L790.485 225.621C790.485 225.621 789.623 278.891 772.641 282.865C755.659 286.823 733.297 253.372 733.297 253.372L739.942 220.978V220.995Z" fill="#407BFF"/>
<path d="M711.955 138.601C735.459 142.769 743.528 205.73 710.583 196.655C700.879 193.982 662.924 158.703 679.766 148.274C696.607 137.863 711.955 138.601 711.955 138.601Z" fill="#263238"/>
<path d="M693.513 148.591C678.887 149.294 674.562 157.349 674.211 172.491C673.789 191.397 678.605 204.569 696.695 199.663C721.255 192.997 717.791 147.412 693.513 148.591Z" fill="white"/>
<path d="M683.616 171.207C683.616 171.207 681.77 175.129 679.66 177.486C679.66 177.486 681.014 179.42 683.598 178.963L683.633 171.225L683.616 171.207Z" fill="#DE5753"/>
<path d="M692.511 169.589C692.547 170.785 693.215 171.752 694.023 171.735C694.832 171.717 695.447 170.715 695.412 169.519C695.377 168.323 694.709 167.356 693.9 167.373C693.092 167.391 692.476 168.376 692.511 169.589Z" fill="#263238"/>
<path d="M694.252 167.426L691.615 166.459C691.615 166.459 692.968 168.622 694.252 167.426Z" fill="#263238"/>
<path d="M677.568 169.712C677.603 170.908 678.271 171.875 679.08 171.858C679.889 171.84 680.504 170.855 680.469 169.642C680.434 168.446 679.766 167.479 678.957 167.496C678.148 167.514 677.533 168.516 677.551 169.712H677.568Z" fill="#263238"/>
<path d="M679.291 167.549L676.654 166.582C676.654 166.582 678.008 168.745 679.291 167.549Z" fill="#263238"/>
<path d="M698.629 162.009C698.453 162.009 698.295 161.939 698.172 161.798C696.08 159.459 692.335 160.075 692.3 160.092C691.966 160.145 691.632 159.934 691.58 159.582C691.527 159.248 691.738 158.914 692.089 158.861C692.265 158.826 696.537 158.105 699.104 160.972C699.332 161.235 699.315 161.622 699.051 161.851C698.928 161.956 698.787 162.009 698.629 162.009Z" fill="#263238"/>
<path d="M675.74 161.482C675.547 161.482 675.353 161.394 675.23 161.235C675.019 160.954 675.089 160.567 675.371 160.356C678.729 157.876 681.576 158.738 681.7 158.773C682.034 158.879 682.209 159.231 682.104 159.547C681.998 159.881 681.647 160.057 681.33 159.952C681.225 159.916 678.922 159.266 676.109 161.341C676.004 161.429 675.863 161.464 675.74 161.464V161.482Z" fill="#263238"/>
<path d="M710.671 172.473C710.671 172.473 703.252 160.778 703.85 151.457C703.85 151.457 674.298 141.011 674.298 170.504C674.298 170.504 670.202 144.51 695.324 142.717C720.393 140.923 722.098 177.714 709.652 189.304C709.652 189.304 715.295 179.789 710.706 172.473H710.671Z" fill="#263238"/>
<path d="M708.439 175.674C708.439 173.317 710.654 169.202 715.066 169.484C719.62 169.765 722.239 178.963 711.076 181.742C709.476 182.146 708.491 180.598 708.456 175.674H708.439Z" fill="white"/>
<path d="M711.955 138.601C711.955 138.601 691.07 133.818 676.619 145.355C662.168 156.891 701.266 158.545 701.266 158.545L691.843 153.11C691.843 153.11 703.833 157.788 709.353 156.522L711.955 138.601Z" fill="#263238"/>
<path d="M724.103 177.697C724.103 177.697 729.429 189.533 722.098 198.625C722.098 198.625 726.089 209.669 714.996 216.124C714.996 216.124 716.332 222.191 706.575 228.417C706.575 228.417 702.848 237.421 704.466 244.245L698.207 240.358C698.207 240.358 699.051 232.057 703.464 227.59C703.464 227.59 702.602 214.207 708.298 210.39C708.298 210.39 706.716 201.861 707.947 198.308C707.947 198.308 712.078 182.902 712.658 181.249C712.658 181.249 721.677 180.968 724.085 177.679L724.103 177.697Z" fill="#263238"/>
<path d="M688.503 160.409C688.503 160.409 688.468 160.409 688.433 160.409C687.782 160.303 672.523 157.894 671.925 152.688C671.327 147.483 678.289 144.423 678.588 144.299C678.799 144.211 679.063 144.299 679.15 144.528C679.238 144.739 679.15 145.003 678.922 145.091C678.852 145.126 672.242 148.028 672.787 152.6C673.226 156.399 684.337 158.914 688.573 159.582C688.802 159.617 688.96 159.829 688.925 160.075C688.89 160.286 688.714 160.444 688.503 160.444V160.409Z" fill="#263238"/>
<path d="M683.071 181.953C684.126 183.659 685.391 186.93 685.391 186.93C685.708 186.877 686.024 186.807 686.341 186.736C690.63 185.804 692.3 183.958 692.863 182.199C693.162 181.232 693.127 180.282 692.986 179.526C692.845 178.647 692.546 178.066 692.546 178.066C690.577 179.913 686.64 181.091 684.512 181.636C683.633 181.865 683.053 181.97 683.053 181.97L683.071 181.953Z" fill="#263238"/>
<path d="M684.53 181.601L685.251 183.043C689.277 182.164 692.002 181.003 693.004 179.49C692.863 178.611 692.564 178.031 692.564 178.031C690.595 179.877 686.657 181.056 684.53 181.601Z" fill="white"/>
<path d="M686.341 186.719C690.63 185.787 692.3 183.94 692.863 182.181C691.421 182.551 689.716 183.166 688.31 184.151C687.237 184.907 686.657 185.839 686.341 186.719Z" fill="#DE5753"/>
<path d="M739.942 220.995L720.27 213.169C720.27 213.169 701.723 242.785 712.851 268.532C723.98 294.279 733.279 293.576 733.279 293.576L739.925 220.995H739.942Z" fill="#407BFF"/>
<path d="M658.283 212.659C658.881 210.689 678.43 210.091 678.43 210.091C678.43 210.091 673.226 268.198 653.396 282.813C653.396 282.813 649.054 243.489 658.283 212.659Z" fill="#407BFF"/>
<path d="M646.434 231.248C646.54 232.145 645.889 232.866 644.975 232.866H628.907C628.01 232.866 627.184 232.145 627.096 231.248L623.51 199.522C623.405 198.625 624.055 197.693 624.969 197.693H641.037C641.934 197.693 642.76 198.642 642.848 199.522L646.434 231.248Z" fill="#263238"/>
<path opacity="0.5" d="M641.072 199.328L644.711 231.354C644.817 232.251 644.342 232.866 643.445 232.866H629.821C628.907 232.866 627.237 232.356 627.131 231.459L623.492 199.311C623.387 198.414 624.951 197.693 625.865 197.693H639.49C640.387 197.693 640.967 198.414 641.072 199.311V199.328Z" fill="white"/>
<path d="M620.926 250.453L626.27 234.59C626.27 234.59 624.863 228.153 625.215 224.495C625.567 220.837 635.306 218.234 635.833 219.096C636.361 219.958 639.613 230.58 638.418 233.359C637.222 236.137 634.796 238.23 634.796 238.23L631.192 253.126L620.926 250.436V250.453Z" fill="white"/>
<path opacity="0.2" d="M736.637 257.189C736.637 257.189 733.543 252.106 732.523 244.263C732.523 244.263 727.777 261.797 735.213 272.753L736.637 257.189Z" fill="black"/>
<path d="M220.031 215.42C225.71 215.684 249.53 247.674 249.53 247.674L258.373 236.173C258.373 236.173 272.015 262.676 265.265 275.286C258.514 287.895 222.985 253.425 222.985 253.425L220.049 215.438L220.031 215.42Z" fill="#407BFF"/>
<path opacity="0.6" d="M220.031 215.438L222.369 240.956L222.967 253.426C222.967 253.426 228.804 259.088 236.205 264.98C247.052 273.65 261.239 282.795 265.265 275.286C272.015 262.676 258.373 236.173 258.373 236.173L249.53 247.675L249.478 247.587C248.124 245.652 225.534 215.667 220.049 215.438H220.031Z" fill="white"/>
<path opacity="0.2" d="M222.369 240.939L222.967 253.408C222.967 253.408 228.804 259.071 236.205 264.962C236.908 249.996 222.967 228.171 222.967 228.171L222.369 240.921V240.939Z" fill="black"/>
<path opacity="0.2" d="M249.531 247.674L248.265 250.119L251.974 264.54C251.974 264.54 241.76 255.237 248.265 246.109L249.531 247.674Z" fill="black"/>
<path d="M221.227 299.872L164.971 303.776C164.971 303.776 164.197 273.633 159.714 257.945C158.255 252.863 156.427 247.165 154.106 240.534C153.122 237.721 152.049 234.766 150.872 231.6C149.799 228.646 148.621 225.515 147.338 222.227C155.038 220.011 162.879 218.34 170.86 217.126C179.263 215.79 187.772 214.981 196.316 214.717C207.339 214.647 220.014 215.755 220.014 215.755C220.014 215.755 221.807 216.142 222.95 226.623C223.987 236.472 223.512 264.083 221.227 299.89V299.872Z" fill="#407BFF"/>
<path opacity="0.6" d="M221.227 299.872L164.971 303.759C164.971 303.759 164.971 303.143 164.918 302.018C164.672 295.405 163.565 271.364 159.732 257.928C158.695 254.305 157.464 250.348 155.988 245.969C155.407 244.21 154.792 242.398 154.124 240.517C153.14 237.703 152.067 234.748 150.889 231.583C149.817 228.628 148.639 225.498 147.356 222.209C155.056 219.993 162.897 218.322 170.878 217.109C179.281 215.772 187.79 214.963 196.334 214.699C207.356 214.629 220.032 215.737 220.032 215.737C220.032 215.737 221.825 216.124 222.967 226.606C224.005 236.454 223.512 264.048 221.227 299.854V299.872Z" fill="white"/>
<path opacity="0.2" d="M200.43 260.091C200.43 260.091 184.924 291.764 164.918 302.035C164.672 295.423 163.564 271.381 159.732 257.945C158.695 254.322 157.464 250.365 155.987 245.986L162.088 239.409C162.088 239.409 166.324 246.742 167.625 256.345L187.508 243.858L200.447 260.091H200.43Z" fill="black"/>
<path d="M151.329 599.973L159.82 604.967C159.82 604.967 163.933 599.111 172.723 589.667C175.185 587.046 177.769 584.162 180.459 581.067C185.838 574.894 191.657 567.842 197.757 560.262C199.551 558.028 201.379 555.742 203.225 553.42C224.479 526.671 247.456 495.226 256.053 473.963C258.725 467.351 260.026 461.741 259.446 457.537C257.705 444.84 252.765 425.723 247.122 407.257C238.543 379.03 228.892 352.281 228.892 352.281L205.176 392.466C205.176 392.466 212.454 409.824 219.082 428.308C225.604 446.458 231.493 465.715 229.313 470.727C229.103 471.22 228.839 471.8 228.54 472.416C224.602 480.576 213.702 499.06 201.326 519.478C200.078 521.536 198.812 523.611 197.546 525.686C190.901 536.59 183.992 547.793 177.593 558.081C175.097 562.126 172.671 566.03 170.368 569.723C159.468 587.257 151.329 599.973 151.329 599.973Z" fill="white"/>
<path opacity="0.2" d="M203.717 553.42C192.501 567.525 181.724 580.328 173.708 589.649C172.565 583.916 171.405 577.127 170.491 569.723C179.756 554.845 191.095 536.484 201.396 519.478C201.309 528.482 201.643 541.795 203.717 553.42Z" fill="black"/>
<path d="M161.384 437.137C164.32 457.168 168.504 475.317 171.229 486.133C172.864 492.623 173.972 496.457 173.972 496.457C173.814 516.664 175.431 538.313 177.593 558.081C178.49 566.135 179.457 573.874 180.459 581.067C184.151 607.693 188.036 626.81 188.036 626.81L198.144 625.491L197.757 560.262L197.547 525.686L197.265 478.641L197.16 470.446L196.668 434.674L195.947 381.914L160.787 366.086C156.075 386.135 157.833 413.008 161.384 437.137Z" fill="white"/>
<path d="M152.12 594.415C153.157 593.659 161.912 606.779 161.912 606.779C161.912 606.779 159.96 620.461 163.916 629.272C167.871 638.083 160.189 637.344 153.807 628.991C147.426 620.637 142.556 614.253 138.021 608.326C133.485 602.382 141.378 602.241 152.12 594.415Z" fill="#263238"/>
<path d="M164.865 616.68C162.879 616.205 161.578 610.542 161.349 609.416C161.349 609.364 161.349 609.311 161.349 609.258C161.349 609.258 161.367 609.17 161.402 609.135C161.402 609.135 161.455 609.065 161.49 609.03C161.49 609.03 161.578 608.959 161.631 608.942C161.806 608.889 165.516 607.711 167.502 608.871C168.135 609.241 168.539 609.786 168.698 610.524C168.856 611.298 168.715 611.843 168.276 612.142C167.59 612.6 166.254 612.213 164.936 611.615C165.85 612.6 166.641 613.69 166.764 614.657C166.834 615.167 166.711 615.607 166.43 615.976C165.973 616.557 165.516 616.733 165.147 616.733C165.041 616.733 164.953 616.733 164.865 616.697V616.68ZM165.059 615.871C165.059 615.871 165.393 615.941 165.779 615.449C165.92 615.273 165.973 615.044 165.938 614.763C165.762 613.461 163.81 611.562 162.422 610.401C163.055 612.846 164.109 615.66 165.041 615.871H165.059ZM162.773 609.487C164.883 610.806 167.221 611.843 167.819 611.457C167.994 611.333 167.942 610.929 167.889 610.7C167.784 610.208 167.52 609.839 167.098 609.592C166.588 609.293 165.902 609.188 165.199 609.188C164.32 609.188 163.406 609.346 162.773 609.504V609.487Z" fill="#407BFF"/>
<path d="M184.467 620.355C184.502 619.072 200.236 620.074 200.236 620.074C200.236 620.074 209.923 629.923 219.328 632.139C228.733 634.355 223.477 640 212.964 640H186.963C179.492 640 184.168 633.633 184.467 620.355Z" fill="#263238"/>
<path d="M201.994 622.114C201.994 622.114 201.906 622.061 201.871 622.009C201.871 622.009 201.818 621.938 201.801 621.886C201.801 621.886 201.766 621.798 201.766 621.763C201.766 621.763 201.766 621.639 201.783 621.587C201.854 621.393 203.172 617.753 205.299 616.873C205.985 616.592 206.67 616.61 207.338 616.926C208.059 617.26 208.411 617.718 208.376 618.245C208.323 619.072 207.198 619.898 205.932 620.584C207.268 620.461 208.622 620.496 209.466 620.971C209.905 621.217 210.186 621.587 210.31 622.044C210.538 622.976 210.239 623.468 209.923 623.715C209.589 623.978 209.114 624.084 208.534 624.084C206.336 624.084 202.838 622.484 202.012 622.097L201.994 622.114ZM203.436 621.85C205.756 622.835 208.639 623.697 209.378 623.099C209.448 623.046 209.641 622.888 209.483 622.273C209.431 622.044 209.272 621.868 209.026 621.727C208.587 621.481 207.919 621.376 207.163 621.376C205.95 621.376 204.508 621.622 203.418 621.868L203.436 621.85ZM205.616 617.647C204.385 618.157 203.418 619.951 202.926 621.024C205.264 620.145 207.497 618.913 207.549 618.21C207.549 617.999 207.198 617.788 206.987 617.682C206.741 617.559 206.495 617.507 206.266 617.507C206.055 617.507 205.844 617.559 205.633 617.647H205.616Z" fill="#407BFF"/>
<path opacity="0.6" d="M199.762 306.625C199.762 308.19 201.027 309.474 202.61 309.474C204.192 309.474 205.458 308.19 205.458 306.625C205.458 305.06 204.174 303.776 202.61 303.776C201.045 303.776 199.762 305.042 199.762 306.625Z" fill="white"/>
<path d="M257.389 238.811L250.251 226.693C250.251 226.693 250.269 220.327 249.654 218.832C249.021 217.337 242.041 213.943 240.67 214.453C239.299 214.963 238.789 227.45 240.037 229.138C241.285 230.826 245.663 232.69 245.663 232.69L245.364 235.065L249.53 247.674L257.389 238.811Z" fill="white"/>
<path d="M260.272 237.439L257.899 235.065L246.647 247.674L248.247 252.669L260.272 237.439Z" fill="#407BFF"/>
<path d="M251.587 387.19L208.393 402.543L206.952 398.586L205.176 393.715L204.438 400.75L203.875 406.149H151.434C151.434 406.149 151.276 404.636 151.118 401.928C150.608 393.486 149.957 373.367 153.227 350.258C155.196 336.294 158.607 321.222 164.338 306.995C164.777 305.904 165.235 304.831 165.692 303.759L221.948 299.415L222.422 302.123L225.956 322.33L232.671 339.319L249.249 381.263L251.587 387.19Z" fill="#263238"/>
<path d="M181.215 251.667L197.74 238.705C197.74 238.705 200.236 231.741 201.256 230.545C202.258 229.331 216.744 223.985 217.957 223.844C219.17 223.704 218.027 235.715 216.146 237.756C214.265 239.796 202.662 243.823 202.662 243.823L185.364 260.126L181.232 251.667H181.215Z" fill="white"/>
<path d="M148.164 222.05C138.46 226.922 134.153 281.74 150.995 291.202C167.836 300.663 193.028 257.892 193.028 257.892L183.254 247.516C183.254 247.516 162.738 264.698 160.259 263.116C157.781 261.533 160.593 244.755 160.593 244.755C160.593 244.755 163.477 239.672 157.411 231.688C151.346 223.704 148.164 222.05 148.164 222.05Z" fill="#407BFF"/>
<path opacity="0.6" d="M148.164 222.05C138.46 226.922 134.153 281.74 150.995 291.202C167.836 300.663 193.028 257.892 193.028 257.892L183.254 247.516C183.254 247.516 162.738 264.698 160.259 263.116C157.781 261.533 160.593 244.755 160.593 244.755C160.593 244.755 163.477 239.672 157.411 231.688C151.346 223.704 148.164 222.05 148.164 222.05Z" fill="white"/>
<path d="M193.222 261.691L196.158 259.932L185.17 243.823L181.127 246.074L193.222 261.691Z" fill="#407BFF"/>
<path opacity="0.2" d="M178.033 308.876C178.033 308.876 171.651 344.12 153.227 350.258C155.196 336.294 158.607 321.222 164.338 306.995L178.033 308.876Z" fill="black"/>
<path opacity="0.2" d="M232.671 339.319C217.922 332.126 218.168 303.759 218.168 303.759L222.422 302.123L225.956 322.33L232.671 339.319Z" fill="black"/>
<path opacity="0.2" d="M204.438 400.75L203.875 406.149H151.434C151.434 406.149 151.276 404.636 151.118 401.928L204.438 400.75Z" fill="black"/>
<path opacity="0.2" d="M251.587 387.19L208.393 402.543L206.952 398.586L249.249 381.263L251.587 387.19Z" fill="black"/>
<path opacity="0.2" d="M205.176 393.733L206.301 379.347L218.168 356.044C218.168 356.044 221.912 369.498 215.988 381.457C210.063 393.416 205.159 393.715 205.159 393.715L205.176 393.733Z" fill="black"/>
<path opacity="0.5" d="M165.692 303.776L163.336 309.633L223.213 306.625L221.948 299.415L165.692 303.776Z" fill="black"/>
<path d="M197.318 301.595L198.021 308.173C198.092 308.894 198.742 309.421 199.463 309.369L208.235 308.665C208.974 308.612 209.536 307.944 209.466 307.206L208.85 300.716C208.78 299.995 208.147 299.45 207.426 299.503L198.584 300.1C197.828 300.153 197.265 300.822 197.336 301.578L197.318 301.595Z" fill="#407BFF"/>
<path d="M182.621 302.387L181.935 310.125H179.755L180.107 302.387H182.621Z" fill="#263238"/>
<path d="M214.177 300.03L215.056 308.12H217.043L216.357 299.678L214.177 300.03Z" fill="#263238"/>
<path d="M189.319 166.652C189.214 166.652 189.126 166.617 189.038 166.547C188.844 166.388 188.827 166.107 188.985 165.931C198.373 154.746 193.538 147.676 193.327 147.377C193.187 147.184 193.239 146.902 193.433 146.761C193.626 146.621 193.907 146.674 194.048 146.867C194.277 147.184 199.515 154.763 189.671 166.494C189.583 166.599 189.46 166.652 189.337 166.652H189.319Z" fill="#263238"/>
<path d="M243.079 234.818L248.81 208.878C249.003 207.981 248.405 207.102 247.491 206.961L237.277 205.431C236.451 205.308 235.677 205.835 235.502 206.662L229.56 233.095C229.349 234.027 229.999 234.924 230.948 235.03L241.373 236.067C242.182 236.155 242.903 235.61 243.079 234.836V234.818Z" fill="#407BFF"/>
<path opacity="0.3" d="M243.079 234.818L248.81 208.878C249.003 207.981 248.405 207.102 247.491 206.961L237.277 205.431C236.451 205.308 235.677 205.835 235.502 206.662L229.56 233.095C229.349 234.027 229.999 234.924 230.948 235.03L241.373 236.067C242.182 236.155 242.903 235.61 243.079 234.836V234.818Z" fill="black"/>
<path d="M244.151 234.836L249.882 208.896C250.075 207.999 249.478 207.119 248.564 206.979L238.35 205.449C237.523 205.325 236.75 205.853 236.574 206.68L230.632 233.113C230.421 234.045 231.071 234.942 232.021 235.047L242.446 236.085C243.254 236.173 243.975 235.627 244.151 234.854V234.836Z" fill="#407BFF"/>
<path opacity="0.3" d="M239.264 208.597C239.264 208.984 238.947 209.3 238.561 209.3C238.174 209.3 237.857 208.984 237.857 208.597C237.857 208.21 238.174 207.893 238.561 207.893C238.947 207.893 239.264 208.21 239.264 208.597Z" fill="black"/>
<path opacity="0.3" d="M238.93 210.426C238.93 210.813 238.613 211.129 238.227 211.129C237.84 211.129 237.523 210.813 237.523 210.426C237.523 210.039 237.84 209.722 238.227 209.722C238.613 209.722 238.93 210.039 238.93 210.426Z" fill="black"/>
<path d="M194.576 232.69C194.576 232.69 176.117 221.365 159.714 219.149C159.714 219.149 152.559 213.925 173.216 210.443C193.872 206.961 207.954 209.775 209.483 215.438C211.013 221.101 202.926 231.776 194.576 232.69Z" fill="#407BFF"/>
<path d="M184.449 142.488C184.449 142.488 198.777 133.255 214.476 141.626C230.175 149.997 216.902 179.684 216.902 179.684C216.902 179.684 224.497 191.133 216.638 203.954C208.78 216.757 168.328 212.184 157.112 197.693C145.896 183.201 167.309 156.311 175.694 154.289C184.08 152.284 184.467 142.488 184.467 142.488H184.449Z" fill="#263238"/>
<path d="M194.435 226.641C180.248 224.09 176.257 217.759 176.257 217.759C185.75 209.669 178.982 194.457 178.982 194.457L196.017 198.537C195.419 201.351 195.103 203.725 194.98 205.747C194.312 216.176 199.023 216.528 199.023 216.528C201.748 222.332 194.435 226.641 194.435 226.641Z" fill="white"/>
<path opacity="0.2" d="M196.017 198.537C195.419 201.351 195.103 203.725 194.98 205.747C186.788 203.408 179 194.457 179 194.457L196.035 198.537H196.017Z" fill="black"/>
<path d="M194.751 149.787C209.677 151.123 213.755 159.547 213.474 175.041C213.105 194.387 207.62 207.665 189.337 201.879C164.496 194.017 169.981 147.553 194.769 149.787H194.751Z" fill="white"/>
<path d="M203.91 173.335C203.91 173.335 205.633 177.415 207.69 179.913C207.69 179.913 206.231 181.83 203.612 181.249L203.91 173.335Z" fill="#D4827D"/>
<path d="M194.874 171.295C194.786 172.526 194.066 173.476 193.239 173.423C192.413 173.37 191.815 172.333 191.903 171.102C191.991 169.871 192.712 168.921 193.538 168.974C194.365 169.026 194.962 170.064 194.874 171.295Z" fill="#263238"/>
<path d="M193.204 169.009L195.947 168.13C195.947 168.13 194.47 170.293 193.204 169.009Z" fill="#263238"/>
<path d="M210.169 172.051C210.081 173.282 209.36 174.232 208.534 174.179C207.708 174.127 207.11 173.089 207.198 171.858C207.286 170.627 208.007 169.677 208.833 169.73C209.659 169.783 210.257 170.82 210.169 172.051Z" fill="#263238"/>
<path d="M208.499 169.765L211.241 168.886C211.241 168.886 209.765 171.049 208.499 169.765Z" fill="#263238"/>
<path d="M188.985 163.293C188.827 163.293 188.669 163.24 188.545 163.117C188.299 162.871 188.282 162.466 188.545 162.22C191.288 159.406 195.63 160.321 195.824 160.374C196.175 160.444 196.386 160.796 196.298 161.13C196.21 161.464 195.876 161.675 195.542 161.622C195.507 161.622 191.71 160.813 189.46 163.117C189.337 163.24 189.178 163.311 189.003 163.311L188.985 163.293Z" fill="#263238"/>
<path d="M212.402 163.715C212.261 163.715 212.12 163.662 211.997 163.574C209.202 161.323 206.829 161.904 206.723 161.939C206.389 162.027 206.038 161.833 205.95 161.482C205.862 161.148 206.055 160.796 206.389 160.708C206.512 160.673 209.466 159.916 212.788 162.59C213.07 162.818 213.105 163.205 212.894 163.487C212.771 163.645 212.577 163.733 212.402 163.733V163.715Z" fill="#263238"/>
<path d="M176.187 173.493C176.187 173.493 184.274 161.851 184.063 152.284C184.063 152.284 214.722 142.857 213.492 173.019C213.492 173.019 218.783 146.603 193.169 143.701C167.608 140.8 164.303 178.365 176.538 190.746C176.538 190.746 171.176 180.774 176.187 173.493Z" fill="#263238"/>
<path d="M178.332 176.852C178.455 174.443 176.327 170.152 171.827 170.24C167.151 170.328 164.092 179.631 175.396 182.955C177.013 183.43 178.085 181.9 178.332 176.87V176.852Z" fill="white"/>
<path d="M202.258 188.178C200.816 188.178 195.577 187.809 193.978 182.445C193.872 182.111 194.066 181.777 194.4 181.671C194.734 181.566 195.085 181.759 195.173 182.093C196.738 187.317 202.311 186.947 202.539 186.93C202.891 186.895 203.172 187.158 203.207 187.51C203.242 187.844 202.979 188.143 202.645 188.178C202.645 188.178 202.504 188.178 202.275 188.178H202.258Z" fill="#263238"/>
<path d="M194.751 149.786C194.751 149.786 194.048 168.921 175.818 171.612C153.79 174.848 148.709 196.057 166.201 204.815C166.201 204.815 148.27 196.761 148.709 183.412C149.166 169.853 165.621 154.834 165.621 154.834C165.621 154.834 163.406 142.699 181.32 139.727C191.429 138.056 194.734 149.786 194.734 149.786H194.751Z" fill="#263238"/>
<path d="M212.947 209.669C212.806 209.669 212.665 209.599 212.577 209.476C212.437 209.265 212.489 209.001 212.7 208.86C217.553 205.624 220.383 201.579 221.139 196.813C222.598 187.475 215.478 178.4 215.408 178.312C215.25 178.119 215.285 177.837 215.478 177.697C215.671 177.538 215.953 177.573 216.093 177.767C216.392 178.154 223.53 187.211 222.018 196.954C221.244 201.966 218.273 206.222 213.21 209.599C213.14 209.652 213.052 209.669 212.964 209.669H212.947Z" fill="#263238"/>
</g>
<defs>
<clipPath id="clip0_206_682">
<rect width="879" height="640" fill="white"/>
</clipPath>
</defs>
</svg>
