<svg width="404" height="405" viewBox="0 0 404 405" fill="none" xmlns="http://www.w3.org/2000/svg">
<g clip-path="url(#clip0_206_1264)">
<path d="M213.853 286.454C212.323 289.468 211.422 292.691 211.122 295.941L206.106 296.979L207.198 306.784L212.314 306.702C213.325 309.807 214.909 312.756 217.066 315.36L214.262 319.63L221.963 325.794L225.514 322.125C228.527 323.654 231.749 324.555 234.999 324.856L236.037 329.872L245.841 328.78L245.759 323.663C248.863 322.653 251.813 321.069 254.416 318.911L258.686 321.715L264.849 314.004L261.18 310.453C262.709 307.44 263.611 304.217 263.911 300.966L268.918 299.929L267.825 290.123L262.709 290.205C261.699 287.101 260.115 284.151 257.958 281.547L260.761 277.277L253.051 271.114L249.501 274.783C246.487 273.253 243.265 272.352 240.015 272.042L238.977 267.026L229.173 268.119L229.255 273.235C226.151 274.246 223.202 275.83 220.598 277.987L216.329 275.183L210.166 282.895L213.834 286.445L213.853 286.454ZM245.759 287.929C251.212 292.29 252.095 300.247 247.735 305.701C243.374 311.154 235.418 312.037 229.965 307.676C224.512 303.315 223.629 295.358 227.99 289.905C232.35 284.451 240.306 283.568 245.759 287.929Z" fill="#F0F0F0"/>
<path d="M164.094 283.778C162.984 285.963 162.337 288.293 162.11 290.651L158.478 291.407L159.27 298.517L162.975 298.454C163.712 300.702 164.859 302.842 166.416 304.726L164.386 307.822L169.966 312.292L172.533 309.634C174.718 310.744 177.048 311.391 179.406 311.618L180.161 315.251L187.262 314.459L187.198 310.753C189.447 310.016 191.586 308.869 193.47 307.312L196.565 309.342L201.035 303.761L198.377 301.194C199.487 299.009 200.134 296.678 200.361 294.32L203.994 293.565L203.202 286.463L199.497 286.527C198.759 284.278 197.612 282.139 196.056 280.254L198.086 277.159L192.505 272.689L189.938 275.347C187.753 274.237 185.423 273.59 183.065 273.363L182.31 269.73L175.209 270.522L175.273 274.227C173.024 274.965 170.885 276.112 169.001 277.669L165.906 275.639L161.436 281.219L164.094 283.787V283.778ZM187.207 284.843C191.158 288.002 191.795 293.765 188.636 297.716C185.478 301.668 179.715 302.305 175.765 299.146C171.814 295.986 171.177 290.224 174.335 286.272C177.494 282.321 183.256 281.684 187.207 284.843Z" fill="#F0F0F0"/>
<path d="M192.032 320.295C191.577 321.187 191.313 322.143 191.222 323.117L189.729 323.426L190.057 326.34L191.577 326.312C191.877 327.232 192.351 328.115 192.988 328.88L192.16 330.145L194.454 331.975L195.51 330.883C196.402 331.338 197.357 331.602 198.332 331.693L198.641 333.186L201.554 332.858L201.527 331.338C202.446 331.038 203.329 330.564 204.094 329.927L205.359 330.755L207.189 328.461L206.097 327.405C206.552 326.513 206.816 325.557 206.907 324.583L208.4 324.273L208.072 321.36L206.552 321.387C206.251 320.468 205.778 319.594 205.141 318.82L205.969 317.554L203.675 315.724L202.619 316.817C201.727 316.362 200.771 316.098 199.797 316.007L199.488 314.513L196.575 314.841L196.602 316.362C195.682 316.662 194.799 317.135 194.035 317.773L192.769 316.944L190.94 319.239L192.032 320.295ZM201.509 320.732C203.129 322.024 203.393 324.391 202.091 326.012C200.798 327.633 198.432 327.897 196.811 326.595C195.191 325.302 194.927 322.935 196.229 321.314C197.521 319.694 199.888 319.43 201.509 320.732Z" fill="#F0F0F0"/>
<path d="M217.821 126.703C216.929 128.46 216.401 130.345 216.228 132.238L213.306 132.848L213.943 138.575L216.929 138.529C217.521 140.341 218.44 142.062 219.706 143.582L218.067 146.077L222.564 149.673L224.64 147.534C226.397 148.426 228.281 148.954 230.174 149.127L230.784 152.049L236.51 151.412L236.465 148.426C238.276 147.834 239.997 146.914 241.517 145.649L244.011 147.288L247.607 142.79L245.468 140.714C246.36 138.957 246.888 137.073 247.061 135.179L249.983 134.569L249.346 128.843L246.36 128.888C245.768 127.076 244.849 125.356 243.583 123.835L245.222 121.341L240.725 117.745L238.649 119.884C236.893 118.992 235.008 118.464 233.115 118.291L232.505 115.368L226.779 116.006L226.824 118.992C225.013 119.584 223.292 120.503 221.772 121.769L219.278 120.13L215.682 124.627L217.821 126.703ZM236.446 127.568C239.633 130.117 240.142 134.76 237.603 137.947C235.054 141.133 230.411 141.643 227.225 139.103C224.039 136.554 223.529 131.911 226.069 128.724C228.618 125.538 233.26 125.028 236.446 127.568Z" fill="#F0F0F0"/>
<path d="M12.617 196.532C11.7249 198.289 11.1969 200.174 11.0239 202.068L8.10181 202.678L8.73903 208.404L11.7249 208.359C12.3166 210.17 13.236 211.891 14.5014 213.411L12.8628 215.906L17.3598 219.502L19.4353 217.363C21.1922 218.255 23.0766 218.783 24.97 218.956L25.58 221.878L31.3059 221.241L31.2603 218.255C33.0719 217.663 34.7924 216.744 36.3126 215.478L38.8069 217.117L42.4027 212.619L40.2634 210.544C41.1555 208.786 41.6835 206.902 41.8565 205.008L44.7786 204.398L44.1414 198.672L41.1555 198.717C40.5638 196.906 39.6444 195.185 38.3791 193.664L40.0176 191.17L35.5206 187.574L33.4451 189.713C31.6882 188.821 29.8038 188.293 27.9104 188.12L27.3005 185.198L21.5745 185.835L21.6201 188.821C19.8085 189.413 18.088 190.332 16.5678 191.598L14.0735 189.959L10.4777 194.456L12.617 196.532ZM31.2421 197.397C34.4283 199.946 34.938 204.589 32.3982 207.776C29.8494 210.962 25.2067 211.472 22.0206 208.932C18.8345 206.383 18.3247 201.74 20.8645 198.553C23.4134 195.367 28.056 194.857 31.2421 197.397Z" fill="#F0F0F0"/>
<path d="M190.047 132.439C189.592 133.331 189.328 134.287 189.237 135.261L187.744 135.571L188.072 138.484L189.592 138.457C189.893 139.376 190.366 140.259 191.003 141.024L190.175 142.289L192.469 144.119L193.525 143.027C194.417 143.482 195.373 143.746 196.347 143.837L196.656 145.33L199.569 145.003L199.542 143.482C200.462 143.182 201.345 142.708 202.109 142.071L203.375 142.899L205.204 140.605L204.112 139.549C204.567 138.657 204.831 137.701 204.922 136.727L206.415 136.417L206.087 133.504L204.567 133.531C204.267 132.612 203.793 131.729 203.156 130.964L203.984 129.698L201.69 127.868L200.635 128.961C199.742 128.506 198.787 128.242 197.813 128.151L197.503 126.658L194.59 126.985L194.617 128.506C193.698 128.806 192.815 129.28 192.05 129.917L190.785 129.088L188.955 131.383L190.047 132.439ZM199.524 132.876C201.144 134.169 201.408 136.536 200.107 138.156C198.814 139.777 196.447 140.041 194.827 138.739C193.206 137.446 192.942 135.079 194.244 133.458C195.537 131.838 197.904 131.574 199.524 132.876Z" fill="#F0F0F0"/>
<path d="M166.743 102.823C166.288 103.715 166.024 104.671 165.933 105.645L164.44 105.955L164.768 108.868L166.288 108.841C166.589 109.76 167.062 110.643 167.699 111.408L166.871 112.674L169.165 114.503L170.221 113.411C171.113 113.866 172.069 114.13 173.043 114.221L173.352 115.714L176.265 115.387L176.238 113.866C177.157 113.566 178.04 113.092 178.805 112.455L180.07 113.284L181.9 110.989L180.808 109.933C181.263 109.041 181.527 108.085 181.618 107.111L183.111 106.801L182.783 103.888L181.263 103.915C180.962 102.996 180.489 102.113 179.852 101.348L180.68 100.082L178.386 98.2525L177.33 99.345C176.438 98.8898 175.482 98.6258 174.508 98.5347L174.199 97.0416L171.286 97.3694L171.313 98.8898C170.394 99.1902 169.511 99.6636 168.746 100.301L167.481 99.4725L165.651 101.767L166.743 102.823ZM176.22 103.26C177.84 104.553 178.104 106.92 176.802 108.54C175.51 110.161 173.143 110.425 171.522 109.123C169.902 107.83 169.638 105.463 170.94 103.842C172.233 102.222 174.599 101.958 176.22 103.26Z" fill="#E0E0E0"/>
<path d="M245.45 361.71C247.552 361.591 249.528 360.572 251.075 359.151C252.623 357.731 253.77 355.919 254.726 354.044C257.247 349.064 258.467 343.428 258.23 337.848C258.176 336.655 258.057 335.426 257.539 334.352C257.029 333.268 256.055 332.34 254.871 332.167C253.105 331.912 251.558 333.323 250.438 334.716C245.34 341.025 242.71 349.291 243.237 357.385C243.365 359.37 244.029 361.282 245.45 361.701" fill="#407BFF"/>
<path d="M236.064 350.739C237.794 347.152 237.921 342.9 236.774 339.086C235.636 335.271 233.288 331.884 230.384 329.162C227.198 326.176 223.11 323.882 218.75 323.864C216.893 323.854 214.872 324.355 213.734 325.821C212.514 327.387 212.614 329.608 213.152 331.52C214.025 334.643 215.882 337.429 218.095 339.796C220.307 342.163 222.883 344.166 225.459 346.141C228.354 348.372 231.485 350.675 235.136 350.958" fill="#407BFF"/>
<path d="M235.8 362.839C235.29 358.805 232.159 355.473 228.499 353.716C224.84 351.959 220.689 351.522 216.638 351.322C215.737 351.276 214.808 351.24 213.943 351.513C213.079 351.786 212.278 352.414 212.041 353.288C211.74 354.435 212.46 355.583 213.224 356.493C217.667 361.828 224.621 364.978 231.567 364.796C232.368 364.778 233.188 364.705 233.934 364.404C234.671 364.095 235.336 363.512 235.563 362.738" fill="#407BFF"/>
<path d="M254.225 335.144C248.017 350.32 243.41 366.107 240.47 382.24C240.388 382.667 241.053 382.85 241.126 382.422C244.057 366.289 248.672 350.502 254.88 335.326C255.044 334.916 254.389 334.743 254.225 335.144Z" fill="#263238"/>
<path d="M240.871 377.56C241.107 370.14 240.507 362.638 238.395 355.491C236.283 348.345 232.741 341.944 227.853 336.464C224.767 333.004 221.217 330.009 217.403 327.396C217.038 327.15 216.702 327.742 217.057 327.988C223.556 332.449 229.2 338.093 233.16 344.949C236.738 351.149 238.813 358.113 239.687 365.196C240.197 369.302 240.315 373.436 240.179 377.569C240.161 378.006 240.843 378.006 240.862 377.569L240.871 377.56Z" fill="#263238"/>
<path d="M240.461 367.063C234.644 360.317 226.524 355.619 217.758 354.053C217.33 353.98 217.148 354.636 217.576 354.708C226.242 356.265 234.234 360.881 239.978 367.545C240.27 367.882 240.743 367.391 240.461 367.063Z" fill="#263238"/>
<path d="M227.307 382.804V374.082H251.603V382.804C251.603 382.804 252.068 398.227 243.502 399.629H235.4C226.834 398.227 227.298 382.804 227.298 382.804H227.307Z" fill="#407BFF"/>
<path opacity="0.5" d="M227.307 382.804V374.082H251.603V382.804C251.603 382.804 252.068 398.227 243.502 399.629H235.4C226.834 398.227 227.298 382.804 227.298 382.804H227.307Z" fill="black"/>
<path d="M120.69 324.091C120.69 324.091 100.581 331.32 109.011 340.897C109.011 340.897 111.797 343.346 114.728 347.462C117.65 351.586 123.021 357.449 131.541 352.86C140.062 348.263 150.33 340.533 150.33 340.533L138.36 316.507C138.36 316.507 130.14 319.047 121.319 315.497C113.69 312.429 111.706 310.608 111.287 311.509C110.868 312.42 110.44 315.415 113.299 319.047C116.157 322.68 120.69 324.082 120.69 324.082V324.091Z" fill="#407BFF"/>
<path opacity="0.6" d="M120.69 324.091C120.69 324.091 100.581 331.32 109.011 340.897C109.011 340.897 111.797 343.346 114.728 347.462C117.65 351.586 123.021 357.449 131.541 352.86C140.062 348.263 150.33 340.533 150.33 340.533L138.36 316.507C138.36 316.507 130.14 319.047 121.319 315.497C113.69 312.429 111.706 310.608 111.287 311.509C110.868 312.42 110.44 315.415 113.299 319.047C116.157 322.68 120.69 324.082 120.69 324.082V324.091Z" fill="white"/>
<path d="M154.882 304.614L136.729 313.661L151.765 343.835L169.918 334.787L154.882 304.614Z" fill="#407BFF"/>
<path d="M151.104 315.579C151.104 316.944 149.994 318.055 148.628 318.055C147.263 318.055 146.152 316.944 146.152 315.579C146.152 314.213 147.263 313.102 148.628 313.102C149.994 313.102 151.104 314.213 151.104 315.579Z" fill="white"/>
<path d="M288.034 134.724H102.666C99.589 134.724 97.0947 137.218 97.0947 140.296V286.9C97.0947 289.978 99.589 292.472 102.666 292.472H288.034C291.111 292.472 293.605 289.978 293.605 286.9V140.296C293.605 137.218 291.111 134.724 288.034 134.724Z" fill="#407BFF"/>
<path opacity="0.6" d="M288.034 134.724H102.666C99.589 134.724 97.0947 137.218 97.0947 140.296V286.9C97.0947 289.978 99.589 292.472 102.666 292.472H288.034C291.111 292.472 293.605 289.978 293.605 286.9V140.296C293.605 137.218 291.111 134.724 288.034 134.724Z" fill="white"/>
<path d="M277.72 158.659H162.947C161.721 158.659 160.726 159.653 160.726 160.88V188.375C160.726 189.602 161.721 190.596 162.947 190.596H277.72C278.947 190.596 279.942 189.602 279.942 188.375V160.88C279.942 159.653 278.947 158.659 277.72 158.659Z" fill="#407BFF"/>
<path d="M164.213 210.616H278.157C279.914 210.616 279.914 207.885 278.157 207.885H164.213C162.456 207.885 162.456 210.616 164.213 210.616Z" fill="#263238"/>
<path d="M164.213 217.945H278.157C279.914 217.945 279.914 215.214 278.157 215.214H164.213C162.456 215.214 162.456 217.945 164.213 217.945Z" fill="#263238"/>
<path d="M164.213 248.508H278.157C279.914 248.508 279.914 245.777 278.157 245.777H164.213C162.456 245.777 162.456 248.508 164.213 248.508Z" fill="#263238"/>
<path d="M164.213 256.483H278.157C279.914 256.483 279.914 253.752 278.157 253.752H164.213C162.456 253.752 162.456 256.483 164.213 256.483Z" fill="#263238"/>
<path d="M164.213 263.748H233.169C234.926 263.748 234.926 261.017 233.169 261.017H164.213C162.456 261.017 162.456 263.748 164.213 263.748Z" fill="#263238"/>
<path d="M164.213 241.179H278.157C279.914 241.179 279.914 238.448 278.157 238.448H164.213C162.456 238.448 162.456 241.179 164.213 241.179Z" fill="#263238"/>
<path d="M164.213 225.265H222.118C223.875 225.265 223.875 222.534 222.118 222.534H164.213C162.456 222.534 162.456 225.265 164.213 225.265Z" fill="#263238"/>
<path opacity="0.4" d="M150.467 199.427H115.137C112.558 199.427 110.467 201.518 110.467 204.098V270.513C110.467 273.092 112.558 275.183 115.137 275.183H150.467C153.046 275.183 155.137 273.092 155.137 270.513V204.098C155.137 201.518 153.046 199.427 150.467 199.427Z" fill="#407BFF"/>
<path d="M137.409 189.065C145.379 185.722 149.131 176.551 145.789 168.58C142.447 160.609 133.276 156.857 125.306 160.2C117.336 163.542 113.585 172.713 116.927 180.684C120.269 188.655 129.439 192.407 137.409 189.065Z" fill="#407BFF"/>
<path opacity="0.4" d="M107.39 147.952C109.09 147.952 110.467 146.575 110.467 144.875C110.467 143.176 109.09 141.798 107.39 141.798C105.691 141.798 104.313 143.176 104.313 144.875C104.313 146.575 105.691 147.952 107.39 147.952Z" fill="#407BFF"/>
<path opacity="0.4" d="M115.711 147.952C117.41 147.952 118.788 146.575 118.788 144.875C118.788 143.176 117.41 141.798 115.711 141.798C114.011 141.798 112.634 143.176 112.634 144.875C112.634 146.575 114.011 147.952 115.711 147.952Z" fill="#407BFF"/>
<path opacity="0.4" d="M124.031 147.952C125.73 147.952 127.108 146.575 127.108 144.875C127.108 143.176 125.73 141.798 124.031 141.798C122.332 141.798 120.954 143.176 120.954 144.875C120.954 146.575 122.332 147.952 124.031 147.952Z" fill="#407BFF"/>
<path d="M162.31 176.203C168.427 172.515 175.519 169.711 182.674 169.01C186.124 168.673 189.711 168.992 192.733 170.813C195.446 172.443 197.712 175.429 197.303 178.752C197.093 180.463 196.01 181.993 194.308 182.475C192.879 182.885 191.477 182.302 190.739 181.019C189.383 178.643 190.393 175.738 192.241 173.963C197.048 169.356 204.303 171.359 209.565 173.854C215.436 176.64 221.572 180.564 228.381 179.362C230.957 178.907 233.597 177.505 234.881 175.137C236.019 173.043 235.727 170.513 234.125 168.728C232.523 166.944 230.02 166.725 228.208 168.273C226.123 170.057 225.987 173.025 227.097 175.374C229.519 180.518 236.082 182.931 241.417 181.702C247.27 180.354 250.939 175.128 255.654 171.86C260.688 168.373 267.252 167.59 273.014 169.611C274.489 170.13 275.872 170.849 277.174 171.714C277.902 172.206 278.594 171.022 277.866 170.531C272.978 167.262 266.733 166.315 261.061 167.845C258.24 168.601 255.727 170.003 253.451 171.805C251.175 173.608 248.936 175.92 246.469 177.723C244.002 179.526 241.08 180.791 237.903 180.636C234.726 180.482 231.804 179.125 229.737 176.84C228.554 175.529 227.589 173.772 227.762 171.951C227.908 170.44 228.964 168.837 230.548 168.592C231.959 168.373 233.169 169.393 233.77 170.594C234.453 171.942 234.325 173.417 233.543 174.691C231.813 177.514 228.108 178.342 225.022 178.169C221.344 177.96 217.876 176.439 214.617 174.819C209.091 172.069 203.192 168.728 196.802 170.139C192.187 171.159 187.417 175.347 189.055 180.527C189.765 182.767 191.804 184.305 194.198 183.859C196.966 183.349 198.668 180.764 198.695 178.051C198.759 171.751 192.305 168.018 186.743 167.545C183.147 167.235 179.479 167.936 176.01 168.856C172.542 169.775 169.392 170.95 166.261 172.452C164.659 173.216 163.102 174.072 161.591 174.983C160.835 175.438 161.527 176.621 162.283 176.166L162.31 176.203Z" fill="white"/>
<path opacity="0.4" d="M180.043 194.821H163.43C162.766 194.821 162.228 195.359 162.228 196.022V198.226C162.228 198.889 162.766 199.427 163.43 199.427H180.043C180.707 199.427 181.245 198.889 181.245 198.226V196.022C181.245 195.359 180.707 194.821 180.043 194.821Z" fill="#407BFF"/>
<path opacity="0.4" d="M211.522 194.821H186.616C185.952 194.821 185.414 195.359 185.414 196.022V198.226C185.414 198.889 185.952 199.427 186.616 199.427H211.522C212.186 199.427 212.724 198.889 212.724 198.226V196.022C212.724 195.359 212.186 194.821 211.522 194.821Z" fill="#407BFF"/>
<path opacity="0.4" d="M235.281 194.821H218.204C217.54 194.821 217.002 195.359 217.002 196.022V198.226C217.002 198.889 217.54 199.427 218.204 199.427H235.281C235.945 199.427 236.483 198.889 236.483 198.226V196.022C236.483 195.359 235.945 194.821 235.281 194.821Z" fill="#407BFF"/>
<path d="M208.418 79.5251H93.9452C91.0443 79.5251 88.6926 81.8771 88.6926 84.7783V112.846C88.6926 115.748 91.0443 118.1 93.9452 118.1H208.418C211.319 118.1 213.67 115.748 213.67 112.846V84.7783C213.67 81.8771 211.319 79.5251 208.418 79.5251Z" fill="#407BFF"/>
<path d="M208.418 79.5251H93.9452C91.0443 79.5251 88.6926 81.8771 88.6926 84.7783V112.846C88.6926 115.748 91.0443 118.1 93.9452 118.1H208.418C211.319 118.1 213.67 115.748 213.67 112.846V84.7783C213.67 81.8771 211.319 79.5251 208.418 79.5251Z" fill="#407BFF"/>
<path opacity="0.6" d="M208.418 79.5251H93.9452C91.0443 79.5251 88.6926 81.8771 88.6926 84.7783V112.846C88.6926 115.748 91.0443 118.1 93.9452 118.1H208.418C211.319 118.1 213.67 115.748 213.67 112.846V84.7783C213.67 81.8771 211.319 79.5251 208.418 79.5251Z" fill="white"/>
<path d="M110.349 88.1377L112.898 93.2998C113.116 93.7459 113.544 94.0554 114.036 94.1283L119.725 94.9568C120.963 95.1388 121.464 96.6683 120.563 97.5423L116.439 101.557C116.084 101.903 115.92 102.404 116.002 102.896L116.976 108.568C117.186 109.806 115.893 110.753 114.782 110.161L109.694 107.484C109.257 107.257 108.729 107.257 108.283 107.484L103.194 110.161C102.083 110.743 100.782 109.806 101 108.568L101.974 102.896C102.056 102.404 101.892 101.903 101.537 101.557L97.4134 97.5423C96.5122 96.6683 97.0129 95.1388 98.2509 94.9568L103.94 94.1283C104.432 94.0554 104.86 93.7459 105.078 93.2998L107.627 88.1377C108.183 87.0088 109.785 87.0088 110.34 88.1377H110.349Z" fill="#407BFF"/>
<path d="M139.133 88.1377L141.682 93.2998C141.901 93.7459 142.329 94.0554 142.82 94.1283L148.51 94.9568C149.748 95.1388 150.249 96.6683 149.347 97.5423L145.224 101.557C144.869 101.903 144.705 102.404 144.787 102.896L145.761 108.568C145.97 109.806 144.677 110.753 143.567 110.161L138.478 107.484C138.041 107.257 137.513 107.257 137.067 107.484L131.978 110.161C130.868 110.743 129.566 109.806 129.785 108.568L130.759 102.896C130.84 102.404 130.677 101.903 130.322 101.557L126.198 97.5423C125.297 96.6683 125.797 95.1388 127.035 94.9568L132.725 94.1283C133.216 94.0554 133.644 93.7459 133.863 93.2998L136.412 88.1377C136.967 87.0088 138.569 87.0088 139.124 88.1377H139.133Z" fill="#407BFF"/>
<path d="M167.918 88.1377L170.467 93.2998C170.685 93.7459 171.113 94.0554 171.604 94.1283L177.294 94.9568C178.532 95.1388 179.033 96.6683 178.131 97.5423L174.008 101.557C173.653 101.903 173.489 102.404 173.571 102.896L174.545 108.568C174.754 109.806 173.462 110.753 172.351 110.161L167.262 107.484C166.825 107.257 166.297 107.257 165.851 107.484L160.763 110.161C159.652 110.743 158.35 109.806 158.569 108.568L159.543 102.896C159.625 102.404 159.461 101.903 159.106 101.557L154.982 97.5423C154.081 96.6683 154.581 95.1388 155.82 94.9568L161.509 94.1283C162.001 94.0554 162.428 93.7459 162.647 93.2998L165.196 88.1377C165.751 87.0088 167.353 87.0088 167.909 88.1377H167.918Z" fill="#407BFF"/>
<path d="M196.702 88.1377L199.251 93.2998C199.469 93.7459 199.897 94.0554 200.389 94.1283L206.078 94.9568C207.316 95.1388 207.817 96.6683 206.916 97.5423L202.792 101.557C202.437 101.903 202.273 102.404 202.355 102.896L203.329 108.568C203.539 109.806 202.246 110.753 201.135 110.161L196.047 107.484C195.61 107.257 195.082 107.257 194.636 107.484L189.547 110.161C188.436 110.743 187.135 109.806 187.353 108.568L188.327 102.896C188.409 102.404 188.245 101.903 187.89 101.557L183.766 97.5423C182.865 96.6683 183.366 95.1388 184.604 94.9568L190.293 94.1283C190.785 94.0554 191.213 93.7459 191.431 93.2998L193.98 88.1377C194.536 87.0088 196.138 87.0088 196.693 88.1377H196.702Z" fill="#407BFF"/>
<path d="M381.47 102.113C385.038 100.401 386.313 95.4484 384.547 91.9159C382.781 88.3835 378.62 86.4261 374.67 86.6173C370.719 86.8176 367.041 88.8842 364.228 91.661C361.406 88.1923 355.708 87.5641 352.194 90.3318C348.744 93.054 349.317 98.6257 351.912 102.195C348.871 103.679 346.85 107.311 347.597 110.661C348.516 114.795 353.405 117.535 357.41 116.151C357.41 121.505 362.18 126.403 367.533 126.512C372.876 126.63 377.874 121.942 378.102 116.597C382.18 118.491 387.678 115.814 388.698 111.435C389.717 107.056 385.985 102.222 381.488 102.113H381.47Z" fill="#407BFF"/>
<path d="M355.944 122.087C355.944 123.344 354.925 124.363 353.669 124.363C352.412 124.363 351.393 123.344 351.393 122.087C351.393 120.831 352.412 119.811 353.669 119.811C354.925 119.811 355.944 120.831 355.944 122.087Z" fill="#407BFF"/>
<g opacity="0.6">
<path d="M381.47 102.113C385.038 100.401 386.313 95.4484 384.547 91.9159C382.781 88.3835 378.62 86.4261 374.67 86.6173C370.719 86.8176 367.041 88.8842 364.228 91.661C361.406 88.1923 355.708 87.5641 352.194 90.3318C348.744 93.054 349.317 98.6257 351.912 102.195C348.871 103.679 346.85 107.311 347.597 110.661C348.516 114.795 353.405 117.535 357.41 116.151C357.41 121.505 362.18 126.403 367.533 126.512C372.876 126.63 377.874 121.942 378.102 116.597C382.18 118.491 387.678 115.814 388.698 111.435C389.717 107.056 385.985 102.222 381.488 102.113H381.47Z" fill="white"/>
</g>
<path opacity="0.6" d="M355.944 122.087C355.944 123.344 354.925 124.363 353.669 124.363C352.412 124.363 351.393 123.344 351.393 122.087C351.393 120.831 352.412 119.811 353.669 119.811C354.925 119.811 355.944 120.831 355.944 122.087Z" fill="white"/>
<path d="M367.56 107.229C367.879 106.692 368.343 106.1 368.944 105.445C369.39 104.971 369.718 104.571 369.927 104.243C370.136 103.915 370.246 103.551 370.246 103.132C370.246 102.55 370.045 102.085 369.645 101.739C369.244 101.402 368.716 101.229 368.052 101.229C367.387 101.229 366.85 101.384 366.358 101.694C365.867 102.003 365.448 102.431 365.111 102.987L362.663 101.302C363.227 100.292 363.992 99.4997 364.957 98.9443C365.922 98.389 367.069 98.1158 368.388 98.1158C369.936 98.1158 371.183 98.5073 372.121 99.2812C373.058 100.055 373.532 101.138 373.532 102.513C373.532 103.16 373.441 103.733 373.259 104.225C373.077 104.716 372.858 105.135 372.594 105.472C372.33 105.809 371.993 106.209 371.575 106.646C371.074 107.165 370.71 107.612 370.482 107.967C370.255 108.322 370.136 108.759 370.136 109.259H367.078C367.078 108.431 367.232 107.757 367.551 107.211L367.56 107.229ZM367.232 114.44C366.859 114.066 366.677 113.602 366.677 113.065C366.677 112.528 366.859 112.073 367.223 111.708C367.587 111.344 368.052 111.162 368.616 111.162C369.18 111.162 369.645 111.344 370.009 111.708C370.373 112.073 370.555 112.519 370.555 113.065C370.555 113.611 370.373 114.066 370 114.44C369.627 114.813 369.162 115.004 368.616 115.004C368.07 115.004 367.597 114.813 367.232 114.44Z" fill="#407BFF"/>
<path d="M57.5868 83.2852H35.6117C31.0266 83.2852 27.3096 87.0025 27.3096 91.5882V105.8C27.3096 110.385 31.0266 114.103 35.6117 114.103H57.5868C62.1719 114.103 65.8889 110.385 65.8889 105.8V91.5882C65.8889 87.0025 62.1719 83.2852 57.5868 83.2852Z" fill="#407BFF"/>
<path d="M52.4526 99.3905C52.4526 100.865 53.6543 102.067 55.129 102.067C56.6037 102.067 57.8053 100.865 57.8053 99.3905C57.8053 97.9156 56.6037 96.7139 55.129 96.7139C53.6543 96.7139 52.4526 97.9156 52.4526 99.3905Z" fill="white"/>
<path d="M43.1309 99.3905C43.1309 100.865 44.3325 102.067 45.8072 102.067C47.2819 102.067 48.4835 100.865 48.4835 99.3905C48.4835 97.9156 47.2819 96.7139 45.8072 96.7139C44.3325 96.7139 43.1309 97.9156 43.1309 99.3905Z" fill="white"/>
<path d="M33.8821 99.3905C33.8821 100.865 35.0837 102.067 36.5584 102.067C38.0331 102.067 39.2348 100.865 39.2348 99.3905C39.2348 97.9156 38.0331 96.7139 36.5584 96.7139C35.0837 96.7139 33.8821 97.9156 33.8821 99.3905Z" fill="white"/>
<path d="M54.0093 112.919L60.3087 119.219L61.6013 111.171L54.0093 112.919Z" fill="#407BFF"/>
<path d="M284.339 121.987C315.525 121.987 340.806 96.7032 340.806 65.5138C340.806 34.3245 315.525 9.04053 284.339 9.04053C253.153 9.04053 227.872 34.3245 227.872 65.5138C227.872 96.7032 253.153 121.987 284.339 121.987Z" fill="#407BFF"/>
<path opacity="0.7" d="M284.339 121.987C315.525 121.987 340.806 96.7032 340.806 65.5138C340.806 34.3245 315.525 9.04053 284.339 9.04053C253.153 9.04053 227.872 34.3245 227.872 65.5138C227.872 96.7032 253.153 121.987 284.339 121.987Z" fill="white"/>
<path d="M302.008 50.5737L289.291 47.7788L276.765 47.3418C276.747 47.0049 263.474 47.6877 261.972 50.1276C260.862 51.9303 258.923 92.1253 256.893 114.995C265.44 120.203 273.515 122.06 284.257 122.06C292.668 122.06 300.643 120.212 307.807 116.907C306.978 100.747 305.713 74.0444 306.086 67.6987C306.632 58.4034 301.999 50.5737 301.999 50.5737H302.008Z" fill="#407BFF"/>
<path d="M262.482 71.2403C261.836 72.3146 253.297 96.8413 241.308 95.7124C230.712 94.7109 217.94 70.2844 217.94 70.2844L223.038 65.1678C223.038 65.1678 236.865 81.5918 240.789 82.311C244.066 82.9119 255.527 59.942 255.527 59.942L262.482 71.2403Z" fill="white"/>
<path d="M208.382 63.5017C208.445 63.2013 209.283 62.2635 209.283 62.2635C209.283 62.2635 208.946 61.5898 208.928 61.253C208.882 60.297 209.783 59.5778 210.657 59.1772C210.43 58.9223 210.475 56.801 212.259 56.9467C211.631 55.7905 213.215 54.0424 214.754 54.8072C215.455 55.1532 218.304 57.4474 219.142 57.9846C219.442 56.6645 220.088 55.5264 221.062 54.4248C221.39 54.0515 222.573 53.5053 223.074 53.5781C223.575 53.651 223.302 54.179 223.329 54.6797C223.365 55.1714 222.783 56.3731 222.701 56.8647C222.036 60.8979 222.592 63.2104 223.329 66.5698L218.231 70.9762C214.681 68.8277 214.827 68.2541 210.73 66.5425C209.265 65.9325 208.099 64.9766 208.391 63.5108L208.382 63.5017Z" fill="white"/>
<path d="M212.25 57.1379C212.778 57.5385 213.334 57.9118 213.925 58.2304C214.472 58.5309 215.091 58.895 215.728 58.9496C216.274 58.9952 216.784 58.7038 217.048 58.2304C217.348 57.7024 217.303 57.056 217.084 56.5006C216.993 56.2548 216.593 56.3641 216.693 56.6099C216.884 57.0924 216.948 57.6569 216.647 58.103C216.329 58.5764 215.801 58.6128 215.291 58.4307C214.781 58.2486 214.299 57.9755 213.844 57.7115C213.388 57.4475 212.906 57.1197 212.46 56.7828C212.25 56.619 212.05 56.974 212.25 57.1379Z" fill="white"/>
<path d="M214.972 58.986C215.345 59.3047 215.5 59.8509 215.254 60.297C215.009 60.7431 214.49 60.9252 213.989 60.7978C213.434 60.6612 212.906 60.3517 212.396 60.0876C211.868 59.8145 211.349 59.5141 210.839 59.1954C210.612 59.0589 210.412 59.4048 210.63 59.5505C211.267 59.9511 211.914 60.3152 212.587 60.6521C213.188 60.9434 213.862 61.344 214.554 61.2348C215.091 61.1528 215.546 60.7522 215.71 60.2424C215.892 59.6871 215.682 59.068 215.245 58.6947C215.045 58.5217 214.754 58.8131 214.954 58.986H214.972Z" fill="white"/>
<path d="M213.68 61.3349C214.071 61.6081 214.271 62.127 214.135 62.5913C213.98 63.1103 213.488 63.4289 212.96 63.4107C212.378 63.3925 211.795 63.092 211.258 62.8918C210.657 62.6642 210.066 62.4365 209.465 62.2089C209.219 62.1179 209.11 62.5094 209.356 62.6004C210.12 62.8918 210.885 63.1831 211.659 63.4835C212.287 63.7202 212.979 63.9843 213.634 63.702C214.781 63.2195 214.881 61.6718 213.889 60.9799C213.671 60.8251 213.47 61.1802 213.68 61.3349Z" fill="white"/>
<path d="M212.605 63.7476C212.86 63.9479 212.96 64.2574 212.924 64.576C212.878 64.9129 212.66 65.186 212.369 65.3499C211.622 65.7869 210.739 65.4865 210.047 65.095C209.82 64.9675 209.61 65.3226 209.838 65.45C210.694 65.9235 211.804 66.2421 212.678 65.6321C213.042 65.3772 213.279 65.013 213.324 64.5669C213.37 64.1573 213.224 63.7111 212.887 63.4471C212.796 63.3743 212.687 63.3652 212.596 63.4471C212.523 63.52 212.505 63.6656 212.596 63.7385L212.605 63.7476Z" fill="white"/>
<path d="M218.786 58.7039C216.702 60.552 216.174 63.611 217.485 66.0691C217.612 66.3059 217.967 66.0965 217.84 65.8597C216.611 63.5564 217.13 60.725 219.078 58.9952C219.278 58.8222 218.987 58.5309 218.786 58.7039Z" fill="white"/>
<path d="M274.58 56.0454C272.504 62.8736 263.128 82.3201 263.128 82.3201L245.45 72.3693C245.45 72.3693 252.75 57.666 258.303 52.1306C266.815 45.3753 277.256 47.2417 274.589 56.0454H274.58Z" fill="#407BFF"/>
<path opacity="0.2" d="M258.222 79.5524L260.051 64.5942L252.75 76.4752L258.222 79.5524Z" fill="black"/>
<path d="M277.129 36.3166L290.711 29.0879C290.611 30.062 290.574 31.9284 289.782 32.9663C282.827 42.0523 288.217 47.7424 288.217 47.7424C284.548 50.4463 276.392 51.7118 274.78 47.451C275.927 45.1841 277.238 39.3847 277.129 36.3166Z" fill="white"/>
<path opacity="0.2" d="M276.628 40.5956L284.257 39.3848C283.419 41.679 281.171 44.3192 275.927 44.2009C275.927 44.2009 276.619 41.6153 276.628 40.5865V40.5956Z" fill="black"/>
<path d="M268.563 12.4819C266.833 15.4043 267.143 22.9426 272.04 21.8683C276.947 20.794 271.54 7.45638 268.563 12.4819Z" fill="#263238"/>
<path d="M291.23 22.7513C289.81 30.9724 289.182 35.6429 284.53 39.3938C264.494 51.7846 260.579 14.5211 276.856 9.58668C285.204 7.29242 292.65 14.5211 291.23 22.7513Z" fill="white"/>
<path d="M296.601 13.7564C296.601 13.7564 289.118 12.7095 287.862 12.6093C286.605 12.5092 285.322 16.9975 285.504 18.4542C285.686 19.9109 287.652 20.5482 287.598 21.9411C287.534 23.1247 285.549 26.5842 286.259 28.1866C287.07 28.8239 291.512 26.1655 291.512 26.1655L294.116 27.1214C294.116 27.1214 301.58 17.1159 296.601 13.7564Z" fill="#263238"/>
<path d="M296.464 14.4028C297.247 13.7018 298.094 12.4819 297.165 10.2058C297.165 10.8249 296.382 11.5623 295.9 11.8173C295.417 9.94179 292.978 6.7098 286.114 5.1803C277.666 3.30483 275.454 6.15445 272.996 4.88896C270.529 3.62348 273.615 2.64023 273.615 2.64023C273.615 2.64023 269.355 1.65698 267.98 4.87075C266.606 8.09364 267.789 13.7473 275.326 13.3923C282.855 13.0372 284.33 15.4862 288.126 14.8854C290.893 14.5394 293.688 14.3846 296.473 14.4028H296.464Z" fill="#263238"/>
<path d="M293.742 29.8617C292.286 34.1862 284.757 36.5442 285.713 30.0802C286.269 23.7892 295.618 22.2415 293.742 29.8617Z" fill="white"/>
<path d="M278.986 23.6436C278.986 25.6557 276.929 25.601 276.965 23.6072C276.965 21.5952 279.022 21.6498 278.986 23.6436Z" fill="#263238"/>
<path d="M271.003 24.0442C271.003 26.0562 268.945 26.0016 268.982 24.0077C268.982 21.9957 271.039 22.0503 271.003 24.0442Z" fill="#263238"/>
<path d="M273.542 22.9243C273.542 22.9243 270.402 26.8391 269.355 28.4597C270.42 29.6523 272.504 29.3883 272.504 29.3883L273.551 22.9243H273.542Z" fill="white"/>
<path d="M281.626 20.0748C281.49 20.1112 281.344 20.0748 281.235 19.9746C279.951 18.7274 278.513 19.0278 278.504 19.0278C276.756 18.254 279.987 17.4801 281.79 19.4102C282.008 19.6105 281.908 20.002 281.626 20.0748Z" fill="#263238"/>
<path opacity="0.2" d="M292.104 27.5128C290.729 25.5918 288.289 27.8679 288.053 29.5795" stroke="black" stroke-width="0.5" stroke-linecap="round" stroke-linejoin="round"/>
<path d="M267.516 19.1188C267.225 19.0277 267.143 18.6089 267.389 18.4269C269.118 17.0612 270.848 17.653 270.93 17.6712C271.412 17.826 271.166 18.5998 270.684 18.4269C270.42 18.1264 268.891 18.4177 267.516 19.1188Z" fill="#263238"/>
<path d="M273.624 32.2197C274.38 33.1392 275.063 34.1134 275.672 35.1422C275.864 35.0693 276.064 34.9965 276.255 34.9055C278.895 33.8221 279.76 32.4564 279.915 31.2638C279.978 30.6811 279.905 30.0893 279.696 29.534C279.587 29.2244 279.432 28.924 279.241 28.6509C278.185 30.062 275.809 31.2547 274.516 31.8373C273.943 32.065 273.624 32.2197 273.624 32.2197Z" fill="#263238"/>
<path d="M274.516 31.8192L275.144 32.6658C277.621 31.6462 279.223 30.5992 279.696 29.5158C279.587 29.2063 279.432 28.9058 279.241 28.6327C278.176 30.0529 275.809 31.2365 274.516 31.8192Z" fill="white"/>
<path d="M276.228 34.9237C278.868 33.8403 279.733 32.4746 279.887 31.282C278.895 31.7099 277.985 32.3108 277.202 33.0573C276.692 33.5671 276.355 34.2135 276.237 34.9237H276.228Z" fill="#FF3F3E"/>
<path d="M258.531 78.9698C259.36 73.2433 260.197 67.5076 261.025 61.7811C261.089 61.3532 260.434 61.162 260.37 61.599C259.542 67.3256 258.704 73.0612 257.876 78.7877C257.812 79.2156 258.467 79.4068 258.531 78.9698Z" fill="black"/>
<path d="M319.304 105.062C318.712 98.3526 314.816 75.9198 311.894 65.1496C311.12 62.2818 308.608 59.9329 305.422 59.4139C304.211 59.2228 302.955 59.3047 301.853 59.9602C298.175 62.1452 297.511 69.3557 299.204 75.4828C301.152 82.5204 305.139 93.2906 307.124 102.868C307.288 103.669 307.424 109.933 307.533 117.071C311.648 115.295 315.526 112.81 319.131 110.024C319.34 107.766 319.404 106.155 319.313 105.071L319.304 105.062Z" fill="white"/>
<path d="M311.739 59.4322C315.117 68.0175 318.812 81.5554 318.812 81.5554L299.65 85.8981C297.456 79.1337 294.725 71.7502 295.372 64.6671C296.373 55.0349 297.302 49.0716 303.21 50.8378C306.204 51.7301 309.746 54.3703 311.739 59.4322Z" fill="#407BFF"/>
<path d="M318.721 81.2276C312.668 82.6751 306.614 84.1227 300.56 85.5703L300.979 85.807C299.714 79.9075 298.439 74.0171 297.174 68.1175C297.083 67.6896 296.428 67.8717 296.519 68.2996C297.784 74.1991 299.058 80.0895 300.324 85.9891C300.36 86.1711 300.57 86.2713 300.743 86.2258C306.796 84.7782 312.85 83.3306 318.903 81.8831C319.331 81.7829 319.149 81.1183 318.721 81.2276Z" fill="black"/>
<g opacity="0.3">
<path d="M293.761 109.578C283.565 103.633 274.38 96.0765 266.569 87.2273C266.278 86.8995 265.795 87.382 266.087 87.7098C273.934 96.5955 283.173 104.188 293.415 110.161C293.797 110.379 294.143 109.797 293.761 109.569V109.578Z" fill="black"/>
</g>
<path d="M219.642 29.0697C213.643 20.876 215.527 9.4229 223.839 3.48697C232.15 -2.44897 243.757 -0.628128 249.746 7.56565C254.371 13.884 254.289 22.1506 250.192 28.3232L251.631 33.6309L245.787 32.9572C245.705 33.021 245.632 33.0847 245.55 33.1484C237.239 39.0844 225.632 37.2635 219.642 29.0697Z" fill="#407BFF"/>
<path d="M218.978 4.87988C214.517 8.90394 212.314 15.2313 213.343 21.0944" stroke="#407BFF" stroke-linecap="round" stroke-linejoin="round"/>
<path d="M213.907 23.7711C213.998 24.6724 214.271 25.5555 214.726 26.3476" stroke="#407BFF" stroke-linecap="round" stroke-linejoin="round"/>
<path d="M234.781 26.2292L225.632 19.6651L227.917 16.4786L234.053 20.8759L242.191 10.7976L245.249 13.2648L234.781 26.2292Z" fill="white"/>
<path d="M368.297 375.675L356.126 374.938L359.659 394.776L367.542 396.397L368.297 375.675Z" fill="#E0E0E0"/>
<path d="M357.883 391.189L360.896 391.171C361.579 391.171 362.216 391.489 362.644 392.017C364.465 394.266 365.739 393.41 367.542 391.271C368.734 391.134 369.108 392.445 369.226 392.8L371.784 400.594C372.002 401.249 371.638 401.923 370.956 402.114C370.837 402.15 370.71 402.169 370.582 402.16C366.923 402.178 365.202 402.187 360.651 402.214L346.741 402.287C342.945 402.305 342.016 398.664 343.564 398.318C350.528 396.797 355.425 394.803 357.519 392.837C357.911 392.491 357.483 392.236 357.883 391.18V391.189Z" fill="#263238"/>
<path d="M353.496 393.875C354.442 393.847 355.389 393.729 356.299 393.511C356.381 393.483 356.427 393.392 356.39 393.31C356.372 393.265 356.336 393.228 356.29 393.219C355.862 393.028 352.03 391.371 351.111 392.008C350.938 392.118 350.847 392.318 350.883 392.518C350.901 392.892 351.101 393.237 351.429 393.456C352.057 393.802 352.776 393.957 353.486 393.884L353.496 393.875ZM355.708 393.301C354.606 393.501 352.549 393.775 351.675 393.174C351.447 393.01 351.302 392.764 351.274 392.491C351.256 392.409 351.293 392.318 351.365 392.272C351.875 391.926 354.124 392.655 355.708 393.301Z" fill="#407BFF"/>
<path d="M356.263 393.52C356.263 393.52 356.345 393.529 356.381 393.52C356.427 393.474 356.445 393.41 356.427 393.347C356.427 393.201 355.398 389.669 353.341 389.905C352.831 389.969 352.694 390.206 352.685 390.406C352.594 391.344 355.034 393.101 356.181 393.547L356.272 393.52H356.263ZM353.559 390.188C354.87 390.188 355.708 392.236 355.99 393.064C354.734 392.454 352.958 390.989 353.049 390.415C353.049 390.37 353.049 390.233 353.423 390.197H353.559V390.188Z" fill="#407BFF"/>
<path d="M355.881 393.42C356.918 393.547 357.911 394.139 358.502 394.976" stroke="#407BFF" stroke-width="0.5" stroke-linecap="round" stroke-linejoin="round"/>
<path d="M354.06 394.767C355.098 394.894 356.09 395.486 356.682 396.324" stroke="#407BFF" stroke-width="0.5" stroke-linecap="round" stroke-linejoin="round"/>
<path d="M351.775 395.914C352.813 396.042 353.805 396.633 354.397 397.471" stroke="#407BFF" stroke-width="0.5" stroke-linecap="round" stroke-linejoin="round"/>
<path d="M317.802 374.392L305.139 372.844L307.643 393.565L315.526 395.186L317.802 374.392Z" fill="#E0E0E0"/>
<path d="M305.868 389.978L308.881 389.96C309.564 389.96 310.201 390.279 310.629 390.807C312.449 393.055 313.724 392.199 315.526 390.06C316.719 389.923 317.092 391.234 317.21 391.589L319.768 399.383C319.987 400.038 319.623 400.712 318.94 400.903C318.822 400.94 318.694 400.958 318.567 400.949C314.907 400.967 313.187 400.976 308.635 401.003L294.725 401.076C290.929 401.094 290.001 397.453 291.548 397.107C298.512 395.586 303.41 393.592 305.504 391.626C305.895 391.28 305.467 391.025 305.868 389.969V389.978Z" fill="#263238"/>
<path d="M301.48 392.664C302.427 392.636 303.373 392.518 304.284 392.3C304.366 392.272 304.411 392.181 304.375 392.099C304.357 392.054 304.32 392.017 304.275 392.008C303.847 391.817 300.014 390.16 299.095 390.797C298.922 390.907 298.831 391.107 298.867 391.307C298.886 391.681 299.086 392.027 299.414 392.245C300.042 392.591 300.761 392.746 301.471 392.673L301.48 392.664ZM303.692 392.09C302.591 392.291 300.533 392.564 299.659 391.963C299.432 391.799 299.286 391.553 299.259 391.28C299.241 391.198 299.277 391.107 299.35 391.061C299.86 390.716 302.108 391.444 303.692 392.09Z" fill="#407BFF"/>
<path d="M304.256 392.309C304.256 392.309 304.338 392.318 304.375 392.309C304.42 392.263 304.438 392.199 304.42 392.136C304.42 391.99 303.392 388.458 301.334 388.694C300.824 388.767 300.688 388.995 300.679 389.195C300.588 390.133 303.027 391.89 304.174 392.336L304.265 392.309H304.256ZM301.553 388.977C302.864 388.977 303.701 391.025 303.983 391.854C302.727 391.244 300.952 389.778 301.043 389.204C301.043 389.159 301.043 389.022 301.416 388.986H301.553V388.977Z" fill="#407BFF"/>
<path d="M303.865 392.209C304.903 392.336 305.895 392.928 306.487 393.765" stroke="#407BFF" stroke-width="0.5" stroke-linecap="round" stroke-linejoin="round"/>
<path d="M302.044 393.556C303.082 393.683 304.074 394.275 304.666 395.113" stroke="#407BFF" stroke-width="0.5" stroke-linecap="round" stroke-linejoin="round"/>
<path d="M299.769 394.703C300.806 394.831 301.799 395.422 302.39 396.26" stroke="#407BFF" stroke-width="0.5" stroke-linecap="round" stroke-linejoin="round"/>
<path d="M314.507 240.114C314.552 241.052 301.771 301.44 301.016 316.18C300.26 330.919 303.819 386.746 303.819 386.746L317.884 386.646C317.884 386.646 320.642 361.218 319.887 350.621C319.122 340.023 318.84 323.399 322.308 313.84C325.776 304.28 337.41 272.798 337.41 272.798L333.323 243.264L314.507 240.114Z" fill="#263238"/>
<path d="M359.84 237.902C361.361 238.767 361.688 255.646 361.616 274.428C361.552 293.21 366.668 327.687 367.733 339.523C368.798 351.358 370.637 389.131 370.154 389.159C369.663 389.186 353.951 389.323 354.397 388.358C354.843 387.402 351.129 371.196 346.45 342.536C341.853 314.432 333.277 283.996 331.511 274.51C330.128 267.044 327.479 254.18 327.479 254.18L326.769 239.504L359.85 237.893L359.84 237.902Z" fill="#263238"/>
<path opacity="0.3" d="M360.969 244.42C360.969 244.42 347.943 252.751 332.376 252.978C316.81 253.206 312.668 249.737 312.668 249.737L313.269 246.496L360.969 244.42Z" fill="black"/>
<g opacity="0.3">
<path d="M339.959 308.104C338.721 303.161 337.474 298.226 336.236 293.283C334.251 285.398 332.267 277.514 330.291 269.63C329.836 267.8 329.372 265.979 328.917 264.149C328.808 263.721 328.152 263.903 328.261 264.331C329.5 269.275 330.747 274.209 331.985 279.153C333.969 287.037 335.954 294.921 337.929 302.806C338.384 304.635 338.849 306.456 339.304 308.286C339.413 308.714 340.068 308.532 339.959 308.104Z" fill="black"/>
</g>
<path d="M349.554 168.928C349.554 168.928 353.423 177.541 354.825 188.976C357.282 208.987 361.57 235.826 361.752 243.801C361.752 243.801 328.553 254.581 310.51 245.522L312.704 202.486L312.067 170.494L318.931 168C318.931 168 345.594 164.813 349.545 168.937L349.554 168.928Z" fill="#407BFF"/>
<path opacity="0.2" d="M349.554 168.928C349.554 168.928 353.423 177.541 354.825 188.976C357.282 208.987 361.57 235.826 361.752 243.801C361.752 243.801 328.553 254.581 310.51 245.522L312.704 202.486L312.067 170.494L318.931 168C318.931 168 345.594 164.813 349.545 168.937L349.554 168.928Z" fill="black"/>
<path opacity="0.2" d="M349.081 189.613C349.081 189.613 350.191 197.388 352.585 201.093C353.978 203.251 356.982 205.345 356.982 205.345L356.09 198.071L349.081 189.604V189.613Z" fill="black"/>
<path d="M317.911 193.437C317.256 193.601 308.353 204.99 308.353 204.99C308.353 204.99 297.866 193.892 296.81 189.112C296.81 189.112 308.617 171.805 310.164 170.776C314.288 168.027 318.931 167.991 318.931 167.991L317.911 193.437Z" fill="#407BFF"/>
<path opacity="0.2" d="M317.911 193.437C317.256 193.601 308.353 204.99 308.353 204.99C308.353 204.99 297.866 193.892 296.81 189.112C296.81 189.112 308.617 171.805 310.164 170.776C314.288 168.027 318.931 167.991 318.931 167.991L317.911 193.437Z" fill="black"/>
<path opacity="0.2" d="M312.859 199.364C312.85 198.963 312.449 184.287 312.468 184.952C312.486 185.607 309.891 203.042 309.891 203.042L312.859 199.364Z" fill="black"/>
<path d="M323.774 168.755C327.242 168.391 326.887 164.13 326.468 160.871C326.295 159.706 326.031 158.559 325.676 157.421L331.721 152.377L337.192 147.743C336.855 149.782 336.618 151.831 336.5 153.897C336.2 157.466 336.6 160.316 337.064 163.739C337.492 165.268 338.421 166.452 339.167 167.417C339.167 167.417 332.959 172.115 328.698 171.996C324.438 171.878 323.792 168.755 323.792 168.755H323.774Z" fill="white"/>
<path opacity="0.2" d="M336.582 156.62C336.582 156.62 332.995 165.241 326.568 161.873L326.477 160.37L336.591 156.62H336.582Z" fill="black"/>
<path d="M339.813 137.182C337.774 131.219 331.093 127.814 324.893 129.58C316.345 132.02 314.452 143.956 315.845 151.412C317.401 159.706 327.715 164.404 334.57 158.75C339.14 154.99 339.295 150.21 340.314 142.144C340.533 140.487 340.369 138.793 339.813 137.191V137.182Z" fill="white"/>
<path d="M313.387 134.697C313.387 134.697 314.179 135.616 314.916 135.352C314.179 134.15 314.27 132.666 315.153 131.61C315.153 131.61 315.69 132.885 316.318 132.912C316.7 129.908 318.039 127.104 320.16 124.891C323.837 120.794 335.908 126.075 335.908 126.075C335.908 126.075 338.794 123.626 343.382 127.777C347.06 131.11 347.497 137.91 347.151 140.833C345.812 143.655 342.654 146.386 338.366 147.77C336.263 145.376 336.118 141.761 336.327 139.267C335.69 139.094 335.098 138.766 334.616 138.302C332.731 136.499 334.133 130.217 326.632 131.155C325.303 130.345 323.628 130.336 322.353 131.137C320.05 132.475 318.803 139.813 315.617 137.674C312.431 135.525 313.387 134.706 313.387 134.706V134.697Z" fill="#263238"/>
<path d="M327.397 143.965C327.306 144.884 326.605 145.521 325.958 145.403C325.312 145.285 324.948 144.438 325.103 143.528C325.257 142.617 325.913 141.971 326.541 142.089C327.169 142.208 327.551 143.036 327.397 143.965Z" fill="#263238"/>
<path d="M319.395 143.063C319.304 143.983 318.585 144.62 317.956 144.502C317.328 144.383 316.946 143.537 317.101 142.626C317.256 141.716 317.911 141.069 318.539 141.188C319.167 141.306 319.54 142.198 319.395 143.063Z" fill="#263238"/>
<path d="M315.735 138.193C315.881 138.265 316.063 138.265 316.2 138.193C317.146 137.601 318.339 137.473 319.413 137.837C319.641 137.938 319.905 137.837 320.005 137.637C320.105 137.428 320.005 137.173 319.786 137.082C318.439 136.581 316.928 136.727 315.735 137.473C315.526 137.592 315.453 137.847 315.581 138.047C315.626 138.101 315.681 138.147 315.735 138.193Z" fill="#263238"/>
<path d="M328.653 141.47C328.744 141.47 328.826 141.425 328.899 141.37C329.053 141.188 329.017 140.924 328.817 140.778C327.679 139.931 326.177 139.658 324.793 140.041C324.566 140.123 324.447 140.359 324.529 140.578C324.62 140.796 324.875 140.906 325.103 140.833C326.204 140.56 327.388 140.787 328.28 141.461C328.398 141.516 328.544 141.516 328.662 141.461L328.653 141.47Z" fill="#263238"/>
<path d="M344.829 149.127C343.91 151.157 342.171 152.741 339.986 153.515C337.092 154.525 335.317 152.076 335.835 149.327C336.327 146.887 338.402 143.336 341.452 143.546C344.502 143.755 345.922 146.614 344.829 149.127Z" fill="white"/>
<g opacity="0.1">
<path d="M338.221 149.882C338.339 148.917 338.794 147.989 339.459 147.288C340.014 146.705 341.161 145.758 341.989 146.332C342.353 146.587 342.69 145.995 342.335 145.74C341.252 144.984 339.841 145.931 339.067 146.705C338.211 147.561 337.683 148.681 337.538 149.882C337.52 150.064 337.711 150.228 337.884 150.228C338.084 150.228 338.202 150.074 338.23 149.882H338.221Z" fill="black"/>
</g>
<path d="M322.044 142.326C320.77 144.329 319.204 146.15 317.392 147.725C318.312 148.626 319.586 149.109 320.888 149.045L322.053 142.326H322.044Z" fill="#A24E3F"/>
<g opacity="0.3">
<path d="M327.014 130.436C326.623 129.352 326.122 128.469 325.285 127.659C324.529 126.931 323.528 126.412 322.472 126.321C321.234 126.211 320.014 126.785 319.167 127.668C318.321 128.551 317.793 129.707 317.447 130.882C317.319 131.301 317.984 131.483 318.102 131.064C318.639 129.28 319.732 127.313 321.762 127.031C322.554 126.922 323.273 127.122 323.974 127.532C325.175 128.233 325.885 129.361 326.35 130.627C326.495 131.037 327.16 130.864 327.005 130.445L327.014 130.436Z" fill="black"/>
</g>
<g opacity="0.3">
<path d="M328.735 129.89C328.453 127.113 326.459 124.673 323.774 123.872C323.355 123.744 323.173 124.409 323.591 124.527C325.958 125.228 327.797 127.422 328.052 129.89C328.098 130.327 328.78 130.327 328.735 129.89Z" fill="black"/>
</g>
<path d="M341.088 253.142L356.063 261.427C356.846 261.864 357.792 261.882 358.584 261.482L373.896 253.843C375.908 252.842 378.202 254.581 377.774 256.784L374.524 273.59C374.351 274.464 374.624 275.375 375.252 276.012L387.25 288.221C388.825 289.823 387.878 292.545 385.648 292.818L368.662 294.921C367.779 295.031 366.996 295.568 366.586 296.36L358.684 311.546C357.647 313.539 354.77 313.485 353.814 311.445L346.568 295.941C346.186 295.131 345.439 294.557 344.556 294.411L327.679 291.589C325.458 291.216 324.629 288.466 326.277 286.928L338.785 275.247C339.44 274.637 339.75 273.745 339.613 272.862L337.083 255.937C336.746 253.716 339.113 252.068 341.079 253.16L341.088 253.142Z" fill="#407BFF"/>
<path opacity="0.3" d="M365.712 257.931C365.712 257.931 349.326 272.015 353.477 277.878C358.821 285.416 370.236 297.252 351.666 306.802L349.062 301.221C349.062 301.221 355.362 297.853 355.134 291.225C354.907 284.606 348.489 282.667 349.062 274.191C349.636 265.706 357.019 262.21 357.019 262.21L365.712 257.931Z" fill="white"/>
<path d="M363.91 249.619L357.701 247.761L355.489 252.186C355.198 252.687 354.943 253.16 354.734 253.552C352.895 257.139 350.391 262.246 350.137 265.278C349.882 268.31 351.812 271.259 352.622 269.821C353.259 268.692 352.44 266.607 352.594 265.551C352.986 262.911 353.532 262.028 353.532 262.028C353.532 267.126 355.489 270.358 356.126 270.841C357.009 271.505 357.902 270.486 357.902 270.486C357.902 270.486 358.766 271.296 359.804 270.622C361.069 269.794 359.558 263.794 359.558 263.794C359.558 263.794 361.707 269.165 363.163 268.446C364.611 267.736 362.053 263.102 361.752 260.325C361.643 259.287 363.646 257.43 363.637 255.045C363.637 253.561 363.209 251.476 363.91 249.628V249.619Z" fill="white"/>
<path d="M358.175 270.422C357.528 268.874 356.882 267.299 356.654 265.624C356.372 263.63 356.7 261.618 357.173 259.679C357.237 259.424 356.836 259.315 356.782 259.57C356.308 261.536 355.981 263.566 356.245 265.588C356.472 267.317 357.119 268.938 357.792 270.531C357.892 270.768 358.293 270.668 358.184 270.422H358.175Z" fill="#A24E3F"/>
<path d="M359.85 263.903C359.74 263.12 359.595 262.337 359.549 261.545C359.504 260.817 359.576 260.07 359.986 259.451C360.132 259.233 359.777 259.023 359.631 259.242C359.203 259.897 359.094 260.689 359.139 261.454C359.185 262.31 359.34 263.166 359.458 264.012C359.494 264.276 359.886 264.158 359.85 263.903Z" fill="#A24E3F"/>
<path d="M365.776 186.654L352.585 192.217C354.879 198.59 359.158 208.586 360.924 215.687C361.397 217.59 356.973 249.218 356.973 249.218L363.564 251.112C363.564 251.112 373.604 220.276 373.486 216.47C373.313 210.944 369.044 198.389 365.785 186.654H365.776Z" fill="white"/>
<path d="M342.317 170.121C341.925 177.395 348.316 191.953 355.07 201.157C359.222 201.794 371.028 192.572 371.028 192.572C371.028 192.572 365.011 181.72 358.867 174.673C351.129 166.215 342.554 166.161 342.317 170.121Z" fill="#407BFF"/>
<g opacity="0.2">
<path d="M342.317 170.121C341.925 177.395 348.316 191.953 355.07 201.157C359.222 201.794 371.028 192.572 371.028 192.572C371.028 192.572 365.011 181.72 358.867 174.673C351.129 166.215 342.554 166.161 342.317 170.121Z" fill="black"/>
</g>
<path opacity="0.2" d="M323.601 160.461C323.956 160.407 324.884 159.733 324.657 157.931C324.42 156.128 319.641 151.831 317.638 152.077C315.635 152.322 317.074 155.035 317.074 155.035C317.074 155.035 322.153 159.833 322.399 159.952C323.164 160.316 323.61 160.471 323.61 160.471L323.601 160.461Z" fill="black"/>
<path d="M321.726 152.04C321.434 151.812 321.107 151.639 320.742 151.576C320.606 151.548 320.469 151.53 320.333 151.567C320.178 151.603 320.041 151.712 319.978 151.858C319.932 151.958 319.95 152.076 320.051 152.14C320.142 152.195 320.287 152.168 320.333 152.067C320.333 152.058 320.342 152.04 320.351 152.031C320.351 152.031 320.378 151.985 320.369 152.004C320.36 152.022 320.378 151.995 320.387 151.995C320.36 152.004 320.406 151.976 320.387 151.995C320.387 151.995 320.406 151.985 320.415 151.976C320.387 151.976 320.406 151.976 320.415 151.976C320.424 151.976 320.487 151.967 320.451 151.967C320.415 151.967 320.469 151.967 320.487 151.967C320.506 151.967 320.524 151.967 320.533 151.967C320.606 151.967 320.633 151.976 320.715 151.995C320.988 152.049 321.234 152.168 321.452 152.341C321.543 152.413 321.662 152.422 321.744 152.341C321.817 152.268 321.835 152.122 321.744 152.049L321.726 152.04Z" fill="#263238"/>
<path d="M322.226 155.29C322.226 155.29 322.208 155.281 322.199 155.272L319.013 152.814C317.857 151.967 316.318 151.885 315.08 152.605L312.267 154.207C311.211 154.817 310.51 155.909 310.383 157.138L309.782 162.865C306.851 170.695 300.825 179.99 297.211 188.093C295.326 192.608 292.568 197.597 291.894 202.714C291.612 204.844 292.24 206.984 293.615 208.623C295.927 211.263 300.087 210.28 302.035 208.768C303.628 207.831 307.552 204.152 307.561 204.143L304.748 200.993L308.499 186.964C309.828 180.636 312.34 174.564 314.115 169.384C318.448 166.762 321.553 161.399 321.553 161.399L322.754 159.742C323.819 158.368 323.583 156.374 322.226 155.29ZM303.647 203.342C303.647 203.433 303.647 203.515 303.628 203.515C303.628 203.461 303.647 203.397 303.647 203.342Z" fill="white"/>
<path d="M303.61 206.001C304.256 204.116 304.812 202.204 305.276 200.265C305.376 199.837 304.721 199.655 304.62 200.083C304.156 202.022 303.592 203.934 302.955 205.819C302.809 206.237 303.473 206.41 303.61 206.001Z" fill="#A24E3F"/>
<path d="M90.6133 190.842C90.7043 191.716 86.8718 208.013 87.9005 213.603C88.9292 219.193 96.6032 240.56 95.3105 244.029C94.0178 247.507 77.6776 242.672 77.6776 242.672L56.4216 162.219C57.7143 161.017 70.4861 160.27 75.1924 163.957C75.6931 164.349 77.8506 166.343 78.3968 166.78C82.9575 170.412 89.1932 177.368 90.6041 190.842H90.6133Z" fill="#263238"/>
<path d="M126.316 176.221C126.116 176.02 132.752 176.239 132.916 174.819C133.007 174.027 132.952 173.926 130.039 173.571C127.126 173.207 118.287 172.752 116.876 173.153C115.465 173.553 114.345 178.779 113.608 179.589C112.871 180.39 107.29 184.979 107.29 184.979L111.705 189.95L117.677 184.023C117.677 184.023 122.711 184.378 123.53 183.677C124.35 182.976 124.495 181.11 124.495 181.11C124.495 181.11 126.817 181.474 126.016 178.779C126.016 178.779 128.082 178.051 126.325 176.23L126.316 176.221Z" fill="white"/>
<path d="M117.049 174.373C117.932 174.3 119.061 174.2 119.716 174.919C120.372 175.638 120.317 176.967 120.244 177.905C120.199 178.46 120.135 179.07 119.953 179.598C119.771 180.126 119.079 179.498 118.86 179.243C118.305 178.588 118.141 177.659 118.46 176.858C118.515 176.722 118.351 176.549 118.205 176.603C117.531 176.876 116.812 176.967 116.102 176.84C115.847 176.794 115.738 177.186 115.993 177.231C116.785 177.368 117.577 177.295 118.314 176.995L118.059 176.74C117.759 177.495 117.85 178.36 118.241 179.061C118.515 179.553 119.434 180.618 120.071 180.126C120.426 179.862 120.454 179.216 120.526 178.815C120.617 178.278 120.672 177.723 120.672 177.177C120.672 176.275 120.617 175.219 119.935 174.546C119.179 173.808 118.014 173.854 117.04 173.936C116.776 173.954 116.776 174.364 117.04 174.345L117.049 174.373Z" fill="white"/>
<path d="M126.434 176.057C125.397 175.775 124.295 175.765 123.239 175.893C122.693 175.957 122.147 176.066 121.619 176.221C121.164 176.357 120.654 176.512 120.399 176.949C120.262 177.177 120.617 177.386 120.754 177.158C121 176.749 121.628 176.639 122.056 176.53C122.538 176.403 123.039 176.321 123.539 176.275C124.468 176.193 125.433 176.212 126.334 176.457C126.589 176.53 126.698 176.13 126.443 176.066L126.434 176.057Z" fill="white"/>
<path d="M123.485 183.349C122.575 183.167 121.673 182.976 120.763 182.794C120.335 182.703 119.853 182.657 119.452 182.475C119.052 182.293 118.76 181.847 119.152 181.501C119.461 181.237 119.953 181.182 120.335 181.21C120.79 181.246 121.236 181.264 121.692 181.274C122.611 181.301 123.521 181.301 124.441 181.383C124.705 181.401 124.705 180.991 124.441 180.973C123.33 180.882 122.22 180.9 121.1 180.846C120.317 180.809 119.052 180.618 118.624 181.519C118.46 181.874 118.569 182.275 118.842 182.548C119.143 182.858 119.58 182.967 119.998 183.049C121.127 183.286 122.247 183.513 123.376 183.741C123.631 183.795 123.74 183.395 123.485 183.349Z" fill="white"/>
<path d="M120.344 179.034C122.11 178.815 124.022 178.579 125.77 178.979C126.025 179.034 126.134 178.642 125.879 178.588C124.086 178.178 122.147 178.397 120.344 178.624C120.089 178.661 120.08 179.07 120.344 179.034Z" fill="white"/>
<path d="M114.081 178.779L95.5383 190.915C95.5383 190.915 93.4354 185.789 90.9776 180.736C88.4651 175.583 84.0682 166.989 79.2799 166.379C77.7051 166.179 75.5203 165.633 74.5463 166.024C66.8632 169.129 77.2044 189.103 77.2044 189.103C77.2044 189.103 86.5989 203.643 90.8774 205.618C95.1559 207.585 118.169 186.19 118.169 186.19L114.081 178.77V178.779Z" fill="#263238"/>
<path d="M89.4207 199.791C89.9396 196.778 90.8226 193.883 90.9592 190.815C91.1685 186.235 89.9487 181.765 87.7913 177.741C85.9342 174.272 83.4763 171.168 80.8 168.309C80.4996 167.991 80.0171 168.473 80.3175 168.792C84.4413 173.198 88.1372 178.315 89.6301 184.251C90.5495 187.92 90.4403 191.661 89.6847 195.349C89.3934 196.778 89.0111 198.18 88.7653 199.618C88.6925 200.046 89.3479 200.228 89.4207 199.801V199.791Z" fill="black"/>
<path d="M15.2479 397.708C14.8201 396.606 14.1829 395.586 13.3727 394.721C13.3727 394.721 12.0982 390.188 15.6849 380.701L12.4259 377.56C11.2698 376.486 9.54933 376.231 8.12923 376.941C7.92896 377.023 7.74689 377.15 7.59214 377.314C6.86388 378.115 6.19025 378.962 5.58033 379.854C3.52301 382.913 1.66596 386.082 -0.0090332 389.359L0.673707 389.778L4.37871 383.933C5.64405 381.939 5.86253 385.235 5.04324 387.666C4.22396 390.097 3.84162 392.983 8.31129 395.632C13.5365 398.7 15.8761 399.701 15.2479 397.726V397.708Z" fill="#263238"/>
<path d="M16.841 377.223C16.841 377.223 15.3481 381.648 14.1192 386.783C13.3545 389.359 13.0996 392.054 13.3727 394.721C13.3727 394.721 9.64039 393.41 9.47653 390.333C9.31267 387.256 11.7341 378.48 8.08374 376.959C8.69365 376.549 9.33998 376.213 10.0318 375.958C11.0605 375.493 16.8319 377.223 16.8319 377.223H16.841Z" fill="white"/>
<path d="M82.0473 395.941C81.1279 395.186 80.0719 394.603 78.9249 394.23C78.9249 394.23 75.5658 390.888 74.0001 380.883L69.5941 379.709C68.0557 379.326 66.4262 379.936 65.5341 381.229C65.3975 381.402 65.3065 381.602 65.2519 381.812C65.0152 382.859 64.8422 383.924 64.7512 384.998C64.469 388.649 64.4144 392.318 64.5874 395.978L65.3884 396.014L65.7253 389.131C65.8436 386.782 67.6642 389.55 68.1558 392.072C68.6474 394.585 69.7398 397.289 74.9559 397.453C81.0368 397.616 83.5675 397.362 82.0473 395.941Z" fill="#263238"/>
<path d="M73.2808 377.296C73.2808 377.296 74.1729 381.875 75.6477 386.946C76.2576 389.559 77.3682 392.036 78.9339 394.23C78.9339 394.23 75.0286 394.885 73.3628 392.272C71.6969 389.669 69.4575 380.837 65.5249 381.265C65.8526 380.619 66.2532 380.009 66.7265 379.454C67.3911 378.552 73.2899 377.287 73.2899 377.287L73.2808 377.296Z" fill="white"/>
<path d="M82.4387 217.353C82.4387 217.353 93.8086 245.221 84.7782 289.759C84.5415 315.697 75.3473 379.135 75.3473 379.135C72.2886 379.991 62.6028 379.399 59.4804 378.762C59.4804 378.762 59.2073 328.324 61.383 286.072C54.7923 242.709 55.2474 219.757 55.2474 219.757L82.4387 217.344V217.353Z" fill="#407BFF"/>
<path d="M76.5672 218.819C76.5672 218.819 65.525 275.83 58.0421 300.302C50.177 325.994 20.6826 379.709 19.7996 381.429C16.2129 380.646 8.68459 377.56 6.49072 375.639C6.49072 375.639 23.7959 323.208 33.946 295.231C36.2491 280.892 37.8239 272.498 37.4143 257.312C36.6587 229.171 49.913 217.062 49.913 217.062L76.5763 218.828L76.5672 218.819Z" fill="#407BFF"/>
<path opacity="0.2" d="M70.3316 249.309L79.7625 241.734L71.8336 253.433L60.6458 301.704L61.2101 288.821L70.3316 249.309Z" fill="black"/>
<path d="M84.323 180.809C84.323 180.809 89.093 191.461 86.089 197.734C80.0172 215.933 87.5637 216.753 85.2333 220.112C81.7559 222.852 60.3269 226.521 49.0845 217.809C50.5774 210.407 50.9233 197.688 45.4432 176.621C44.2598 172.078 47.0363 167.444 51.6516 166.279C51.9429 166.206 52.2433 166.142 52.5437 166.106C53.891 165.915 55.3293 165.733 56.7949 165.596C61.9291 165.014 64.8694 164.959 70.0309 165.095C70.9322 165.141 70.1948 164.986 72.9349 165.633C72.9349 165.633 78.415 169.693 79.9625 172.142C81.6193 174.764 84.241 180.609 84.3139 180.827L84.323 180.809Z" fill="white"/>
<g opacity="0.3">
<path d="M81.1824 198.089C79.4619 202.004 76.294 205.281 72.4069 207.166C75.0741 207.557 77.7414 206.683 80.2903 205.819C77.623 208.541 73.1169 209.324 69.6577 207.667C73.3445 204.517 77.4956 201.23 81.1824 198.08V198.089Z" fill="black"/>
</g>
<path d="M36.1671 155.336C36.6131 153.916 37.6873 152.832 38.5339 151.63C40.136 149.382 40.9735 146.641 41.6199 143.91C42.2571 141.179 42.7214 138.393 43.6863 135.771C44.6512 133.149 46.1806 130.654 48.4655 129.189C50.7504 127.723 53.891 127.495 56.0757 129.134L57.241 129.334C55.1836 137.983 55.8846 147.106 54.4645 155.891C54.1095 158.113 53.5542 160.425 52.0794 162.064C49.7126 164.686 45.689 164.759 42.3754 163.712C40.573 163.138 38.7979 162.264 37.5234 160.798C36.2581 159.333 35.5753 157.202 36.1671 155.336Z" fill="#263238"/>
<path d="M54.7466 129.371C57.3956 126.785 59.8444 125.256 63.3491 124.718C66.426 124.245 70.7773 124.591 73.5811 126.102C77.3953 128.16 79.7076 132.612 81.155 137.036C82.7844 141.998 80.7908 148.089 78.4695 152.65C77.5046 154.535 76.6489 155.318 74.7554 155.126L74.0545 156.119C68.3194 157.867 63.1124 163.93 52.3797 147.488C48.8295 142.053 50.2951 133.713 54.7557 129.371H54.7466Z" fill="#263238"/>
<path d="M69.3392 164.722C68.438 163.948 68.7839 162.282 68.9113 160.653C68.9933 159.405 69.3392 158.094 69.7579 156.82L67.9828 155.108L58.825 147.461C59.5259 153.032 61.474 161.982 57.3048 165.396L54.947 165.696C56.4855 166.734 60.7184 171.878 69.8581 172.269C74.8102 172.479 73.6996 167.481 72.2613 165.378C70.0037 164.895 69.3301 164.731 69.3301 164.731L69.3392 164.722Z" fill="white"/>
<path opacity="0.2" d="M68.9659 161.381C66.5262 160.944 62.976 159.524 62.2568 156.838C61.9564 155.736 61.8745 154.626 61.9109 153.888L69.3209 157.976C69.2845 159.041 68.7383 159.87 68.975 161.381H68.9659Z" fill="black"/>
<path d="M54.8741 138.757C56.458 147.206 56.9405 150.802 61.8198 154.862C69.157 160.971 79.2707 157.785 80.2629 149.181C81.155 141.443 78.415 128.924 69.594 126.111C60.9004 123.335 53.281 130.308 54.865 138.748L54.8741 138.757Z" fill="white"/>
<path d="M67.5366 141.079C67.5821 142.034 68.0919 142.808 68.6563 142.817C69.2298 142.817 69.6485 142.062 69.603 141.106C69.5575 140.15 69.0477 139.376 68.4833 139.367C67.9098 139.367 67.4911 140.123 67.5366 141.079Z" fill="#263238"/>
<path d="M65.9071 138.62C66.0163 138.639 66.1347 138.602 66.2166 138.529C67.5821 137.346 69.0841 137.81 69.0932 137.81C69.3117 137.883 69.5393 137.765 69.603 137.537C69.6576 137.319 69.5211 137.073 69.3026 137C69.2207 136.973 67.3454 136.39 65.6522 137.865C65.4793 138.01 65.4702 138.275 65.634 138.457C65.7068 138.548 65.807 138.593 65.9162 138.611L65.9071 138.62Z" fill="#263238"/>
<path d="M78.2146 137.045C78.3148 137.018 78.4058 136.954 78.4513 136.854C78.5606 136.654 78.4695 136.408 78.251 136.299C76.0936 135.188 74.364 136.035 74.2912 136.071C74.0818 136.171 74.0181 136.417 74.1364 136.617C74.2547 136.818 74.5278 136.9 74.7281 136.79C74.7918 136.754 76.1573 136.117 77.8687 137.009C77.9779 137.064 78.1054 137.073 78.2055 137.045H78.2146Z" fill="#263238"/>
<path d="M72.4978 139.513C72.4978 139.513 74.1455 142.581 75.8569 144.429C76.1573 144.757 76.0389 145.276 75.6384 145.458C74.6097 145.94 73.3262 145.704 73.3262 145.704L72.4978 139.513Z" fill="white"/>
<path d="M68.1465 139.44L70.131 138.957C70.131 138.957 67.7369 140.769 68.1465 139.44Z" fill="#263238"/>
<path d="M75.2834 140.387C75.3289 141.361 75.8387 142.153 76.4031 142.153C76.9766 142.153 77.3954 141.379 77.3498 140.405C77.3043 139.431 76.7945 138.639 76.2301 138.639C75.6566 138.639 75.2379 139.413 75.2834 140.387Z" fill="#263238"/>
<path d="M75.8389 138.73L77.8234 138.247C77.8234 138.247 76.0027 139.749 75.8389 138.73Z" fill="#263238"/>
<path d="M59.6169 153.36C50.9143 148.316 48.9025 126.639 63.9865 124.755C79.0705 122.87 81.2279 143.255 81.2279 143.255C75.1561 131.028 61.9837 130.9 61.9837 130.9C65.1972 137.373 59.4895 141.971 59.4895 141.971C57.596 146.432 59.6169 151.339 59.626 153.351L59.6169 153.36Z" fill="#263238"/>
<path d="M52.8986 145.931C54.082 147.588 55.848 148.535 57.3956 148.772C59.7351 149.127 60.5817 145.403 59.5895 143.209C58.6974 141.242 56.3214 140.095 54.1366 140.742C51.9792 141.379 51.5422 144.037 52.8895 145.931H52.8986Z" fill="white"/>
<path opacity="0.2" d="M55.921 142.772C55.1745 142.535 54.4371 143.054 54.2278 143.664C53.9729 144.402 54.4735 146.059 56.7493 146.468" stroke="black" stroke-width="0.5" stroke-linecap="round" stroke-linejoin="round"/>
<g opacity="0.3">
<path d="M61.3648 131.146C61.9929 132.111 62.0293 133.395 61.6106 134.46C61.1372 135.653 59.9902 136.481 58.8887 137.064C56.358 138.402 53.3904 138.948 50.5411 138.866C50.1041 138.857 50.1041 139.54 50.5411 139.549C53.6999 139.64 57.1318 139.003 59.8446 137.309C60.9369 136.627 61.9383 135.689 62.3388 134.433C62.7212 133.249 62.6301 131.865 61.9474 130.818C61.7107 130.454 61.119 130.791 61.3557 131.164L61.3648 131.146Z" fill="black"/>
</g>
<g opacity="0.3">
<path d="M55.0743 128.697C51.9246 131.665 49.7853 135.953 49.8673 140.332C49.9492 144.711 52.1522 148.116 54.6647 151.312C54.9377 151.658 55.4202 151.175 55.1471 150.829C52.753 147.779 50.6319 144.32 50.55 140.332C50.4681 136.126 52.5254 132.029 55.5568 129.179C55.8754 128.879 55.3929 128.397 55.0743 128.697Z" fill="black"/>
</g>
<g opacity="0.3">
<path d="M60.6091 131.137C59.5167 134.487 55.9847 136.435 52.5527 135.689C52.1249 135.598 51.9428 136.253 52.3707 136.344C56.1758 137.164 60.0538 135.033 61.2645 131.31C61.4011 130.891 60.7456 130.709 60.6091 131.128V131.137Z" fill="black"/>
</g>
<path d="M57.6325 162.483C58.1241 165.287 64.9333 194.375 65.7344 202.932C66.5446 211.49 57.0226 246.669 54.6012 248.918C52.1797 251.167 31.1786 237.146 31.8887 236.946C32.5987 236.745 43.6682 218.983 45.1976 211.345C46.7269 203.706 44.4602 173.79 44.1507 170.531C43.8503 167.271 48.8935 167.526 53.9002 165.432L56.4218 162.228L57.6234 162.492L57.6325 162.483Z" fill="#263238"/>
<path opacity="0.3" d="M41.2921 221.205L43.4586 234.269L41.2557 234.679C41.2557 234.679 44.7331 243.109 44.3781 245.185L39.4168 242.827L36.613 230.309L41.283 221.214L41.2921 221.205Z" fill="black"/>
<path d="M49.5033 167.144C46.654 167.308 41.7382 169.019 40.8006 171.423C37.2595 180.463 30.2227 201.731 28.748 206.856C27.8103 210.107 31.1876 234.724 31.1876 234.724L41.6745 233.177C41.6745 233.177 39.2531 209.597 39.954 208.004C42.5939 202.059 52.5164 185.935 53.7271 180.554C54.947 175.174 56.094 170.212 53.0626 167.991C52.1523 167.326 50.5774 167.071 49.5033 167.135V167.144Z" fill="#263238"/>
<path d="M33.6545 234.369C34.0004 236.09 33.3086 237.847 33.081 239.149C32.7169 241.234 34.2189 243.155 33.964 244.047C33.2813 246.432 30.3045 250.101 31.4879 250.939C32.6714 251.777 35.3841 247.397 35.3841 247.397C35.3841 247.397 33.0719 252.432 34.1916 253.188C35.7482 254.235 35.9667 253.57 35.9667 253.57C35.9667 253.57 36.4401 254.626 37.5507 254.289C38.2334 254.08 40.2361 251.203 41.0008 246.742C41.0008 246.742 41.1009 248.199 41.0463 250.566C41.0281 251.513 40.3727 252.569 40.6276 253.688C40.9917 255.263 43.2857 252.778 43.5133 250.083C43.7408 247.397 42.2843 242.554 41.1919 239.149C41.0736 238.776 40.9098 238.33 40.7277 237.847L39.4259 233.495" fill="white"/>
<path d="M36.0762 253.661C36.9137 252.35 37.742 251.021 38.2154 249.528C38.7616 247.789 38.7798 245.95 38.6524 244.147C38.6251 243.71 37.9423 243.71 37.9696 244.147C38.0971 245.886 38.088 247.661 37.56 249.346C37.1048 250.775 36.2946 252.059 35.4936 253.315C35.2569 253.688 35.8486 254.025 36.0853 253.661H36.0762Z" fill="white"/>
<path d="M35.6117 247.634C36.0487 246.268 36.7587 244.73 36.1397 243.31C36.0669 243.137 35.8211 243.1 35.6755 243.191C35.5025 243.291 35.4752 243.492 35.5571 243.656C35.812 244.238 35.7301 244.903 35.5753 245.504C35.4024 246.159 35.1748 246.806 34.9654 247.452C34.8289 247.871 35.4934 248.053 35.6208 247.634H35.6117Z" fill="white"/>
<path d="M63.8864 193.501C62.1477 190.997 60.4363 188.475 58.7522 185.926C57.9693 184.733 56.7313 183.322 56.6403 181.838C56.5674 180.618 57.4504 179.58 57.4595 178.369C57.4778 176.303 55.3112 175.338 54.2916 173.808C52.5256 171.15 53.8274 167.954 54.8287 165.287C54.9835 164.877 54.3189 164.695 54.1733 165.105C53.2539 167.554 52.2343 170.139 53.0627 172.77C53.3904 173.817 54.0094 174.637 54.7832 175.401C55.7937 176.394 57.0499 177.341 56.6949 178.934C56.44 180.081 55.7937 181.028 56.003 182.257C56.2306 183.55 57.0954 184.66 57.7964 185.726C59.5897 188.457 61.4194 191.161 63.2856 193.847C63.5314 194.202 64.1231 193.865 63.8773 193.501H63.8864Z" fill="black"/>
<path d="M46.0895 197.688C48.2196 193.774 50.0039 189.686 51.4331 185.471C51.5787 185.052 50.9142 184.879 50.7776 185.289C49.3666 189.449 47.6006 193.482 45.4978 197.343C45.2884 197.725 45.8801 198.071 46.0895 197.688Z" fill="black"/>
<path d="M54.1914 225.984C51.3057 224.346 48.4291 222.698 45.5434 221.059C45.1611 220.84 44.8152 221.432 45.1975 221.651C48.0832 223.29 50.9598 224.937 53.8455 226.576C54.2279 226.795 54.5738 226.203 54.1914 225.984Z" fill="black"/>
<path d="M72.9805 148.954C72.3433 149.637 71.7607 150.365 71.2327 151.13C71.0871 151.066 70.9323 150.993 70.7867 150.92C68.7567 149.964 68.1285 148.863 68.0648 147.925C68.0375 147.47 68.1285 147.005 68.3197 146.587C68.4198 146.35 68.5564 146.122 68.7202 145.922C69.494 147.069 71.3147 148.098 72.3069 148.617C72.7439 148.817 72.9896 148.954 72.9896 148.954H72.9805Z" fill="#263238"/>
<path d="M72.2887 148.599L71.7516 149.227C69.84 148.326 68.6201 147.442 68.3015 146.568C68.4016 146.332 68.5382 146.104 68.7021 145.904C69.4758 147.06 71.2965 148.08 72.2887 148.599Z" fill="white"/>
<path d="M70.7958 150.938C68.7658 149.982 68.1377 148.881 68.074 147.943C68.8386 148.316 69.5305 148.826 70.1131 149.445C70.4954 149.864 70.7321 150.383 70.7958 150.938Z" fill="#FF3F3E"/>
</g>
<defs>
<clipPath id="clip0_206_1264">
<rect width="404" height="405" fill="white"/>
</clipPath>
</defs>
</svg>
