<svg width="340" height="364" viewBox="0 0 340 364" fill="none" xmlns="http://www.w3.org/2000/svg">
<g clip-path="url(#clip0_190_263)">
<path d="M45.451 281.027C45.451 281.027 44.5081 259.188 35.3556 247.032C26.1945 234.885 14.9658 233.13 9.39475 236.545C5.33755 239.035 5.88255 246.436 12.9156 251.269C19.9487 256.102 33.5044 268.396 35.6238 276.428L45.4597 281.019L45.451 281.027Z" fill="#37474F"/>
<path d="M39.4388 277.846C39.1274 277.828 38.8938 277.56 38.9111 277.258C39.854 257.442 22.4574 245.087 17.7427 242.865C17.4573 242.727 17.3361 242.39 17.4746 242.113C17.613 241.828 17.9503 241.715 18.2272 241.845C23.0802 244.136 41.0132 256.88 40.0443 277.318C40.027 277.629 39.7675 277.872 39.4474 277.854C39.4474 277.854 39.4474 277.854 39.4388 277.854V277.846Z" fill="white"/>
<path d="M41.0997 274.137C39.828 273.955 38.591 273.73 37.7605 272.805C36.6964 271.629 36.783 269.848 36.2899 268.335C35.4853 265.863 33.0458 264.185 30.5025 263.658C27.9592 263.131 25.3121 263.563 22.7861 264.185C17.6821 265.439 12.7771 262.301 7.66456 262.672C5.83926 262.802 3.988 263.234 2.48277 264.289C0.97754 265.344 -0.0951516 267.099 6.54953e-06 268.923C0.0865139 270.445 0.968889 271.837 2.11079 272.857C3.24403 273.877 4.62815 274.586 5.98632 275.278C7.4829 276.039 8.97947 276.799 10.4761 277.56C11.22 277.941 11.9726 278.33 12.5609 278.909C13.6682 280.016 14.4381 282.151 14.1267 283.681C13.7806 285.393 12.3792 286.725 11.9553 288.419C11.4103 290.641 12.7685 293.019 14.7236 294.22C16.6786 295.422 19.0835 295.647 21.3673 295.517C23.6598 295.388 25.9263 294.929 28.2187 294.886C29.7672 294.86 31.3762 295.042 32.6825 295.855C34.2829 296.849 35.2172 298.638 35.8227 300.419C36.212 301.569 36.5148 302.78 37.2241 303.757C37.9681 304.768 39.0927 305.443 40.2692 305.875C42.527 306.705 45.1569 306.722 47.4147 305.858C49.3092 305.131 50.2349 302.996 50.9356 301.146C51.6449 299.287 51.9823 297.074 51.9304 295.111C51.8006 289.967 50.6414 284.416 48.4095 279.774C47.3455 277.56 45.797 275.347 43.4613 274.578C42.7174 274.335 41.8955 274.232 41.091 274.119L41.0997 274.137Z" fill="#455A64"/>
<path d="M46.0566 297.877C45.8489 297.877 45.65 297.748 45.5808 297.54C40.2433 282.246 14.9918 268.94 5.75277 267.41C5.47595 267.367 5.29428 267.107 5.33754 266.831C5.38079 266.554 5.64896 266.364 5.91714 266.416C15.3291 267.972 41.0824 281.572 46.5324 297.203C46.6275 297.462 46.4891 297.756 46.2209 297.843C46.169 297.86 46.1085 297.869 46.0566 297.869V297.877Z" fill="white"/>
<path d="M23.357 289.508C23.2099 289.508 23.0542 289.439 22.959 289.31C22.786 289.085 22.8293 288.773 23.0542 288.601C23.2878 288.428 28.7723 284.286 37.0857 284.096H37.0944C37.3712 284.096 37.5961 284.312 37.5961 284.589C37.5961 284.866 37.3798 285.099 37.103 285.108C29.1184 285.289 23.7203 289.361 23.6684 289.405C23.5732 289.474 23.4694 289.508 23.357 289.508Z" fill="white"/>
<path d="M46.3248 309.714C45.3127 309.134 44.4908 307.647 44.4908 306.402V126.227C44.4908 124.982 45.3646 123.469 46.4373 122.846L258.536 0.483943C259.617 -0.138546 261.304 -0.173128 262.316 0.414777C263.329 0.994037 264.15 2.48109 264.15 3.72607V183.902C264.15 185.147 263.277 186.66 262.204 187.282L50.1052 309.644C49.0238 310.267 47.3369 310.302 46.3248 309.714Z" fill="#455A64"/>
<path d="M49.7332 309.817C49.7332 309.817 49.6813 309.843 49.6554 309.843C49.5948 309.878 49.5256 309.895 49.4651 309.912C49.4218 309.93 49.3785 309.947 49.318 309.956C49.2401 309.981 49.145 310.007 49.0498 310.016C48.9979 310.033 48.9287 310.051 48.8682 310.051C48.7816 310.068 48.6692 310.085 48.574 310.094C47.7695 310.18 46.9304 310.059 46.3335 309.705C45.3127 309.117 44.5082 307.639 44.5082 306.402V149.328L48.1674 151.446V308.512C48.1674 309.394 48.6086 309.904 49.2488 309.904C49.3353 309.904 49.4218 309.895 49.5083 309.869C49.5256 309.869 49.5343 309.869 49.5516 309.86C49.6121 309.852 49.6813 309.835 49.7419 309.809L49.7332 309.817Z" fill="#407BFF"/>
<path opacity="0.81" d="M49.7332 309.817C49.7332 309.817 49.6813 309.843 49.6554 309.843C49.5948 309.878 49.5256 309.895 49.4651 309.912C49.4218 309.93 49.3785 309.947 49.318 309.956C49.2401 309.981 49.145 310.007 49.0498 310.016C48.9979 310.033 48.9287 310.051 48.8682 310.051C48.7816 310.068 48.6692 310.085 48.574 310.094C47.7695 310.18 46.9304 310.059 46.3335 309.705C45.3127 309.117 44.5082 307.639 44.5082 306.402V149.328L48.1674 151.446V308.512C48.1674 309.394 48.6086 309.904 49.2488 309.904C49.3353 309.904 49.4218 309.895 49.5083 309.869C49.5256 309.869 49.5343 309.869 49.5516 309.86C49.6121 309.852 49.6813 309.835 49.7419 309.809L49.7332 309.817Z" fill="#E0E0E0"/>
<path d="M48.1588 151.455L44.4908 149.336V184.222L48.1588 186.357V151.455Z" fill="#407BFF"/>
<path opacity="0.15" d="M48.1588 151.455L44.4908 149.336V184.222L48.1588 186.357V151.455Z" fill="black"/>
<path d="M48.721 126.425C48.3664 127.031 48.1501 127.722 48.1501 128.345V151.446L44.4822 149.328V126.235C44.4822 126.157 44.4822 126.079 44.4908 126.002C44.5081 125.837 44.5341 125.673 44.5687 125.518C44.6638 125.111 44.8369 124.688 45.0531 124.307L48.7124 126.425H48.721Z" fill="#263238"/>
<path d="M264.142 3.72603V14.1441L108.679 103.843C107.607 104.465 106.733 103.964 106.733 102.719V98.7765C106.733 97.5316 105.859 97.0301 104.778 97.6526L57.4323 124.973C56.3509 125.595 55.4772 127.108 55.4772 128.353V132.296C55.4772 133.541 54.6035 135.054 53.5308 135.676L48.1587 138.771V128.353C48.1587 127.108 49.0324 125.595 50.1051 124.973L262.195 2.59345C263.268 1.97096 264.142 2.47241 264.142 3.71739V3.72603Z" fill="#37474F"/>
<path d="M264.15 183.893C264.15 185.138 263.277 186.651 262.195 187.274L50.1051 309.644C49.0324 310.267 48.1587 309.765 48.1587 308.52V138.771L53.5308 135.676C54.6035 135.054 56.3509 125.595 57.4323 124.973L103.982 98.1108C105.063 97.4883 107.607 104.474 108.679 103.852L264.142 14.144V183.893H264.15Z" fill="#407BFF"/>
<path opacity="0.9" d="M264.15 183.893C264.15 185.138 263.277 186.651 262.195 187.274L50.1051 309.644C49.0324 310.267 48.1587 309.765 48.1587 308.52V138.771L53.5308 135.676C54.6035 135.054 56.3509 125.595 57.4323 124.973L103.982 98.1108C105.063 97.4883 107.607 104.474 108.679 103.852L264.142 14.144V183.893H264.15Z" fill="white"/>
<g opacity="0.4">
<path d="M263.277 15.6397V183.893C263.285 184.827 262.576 186.055 261.763 186.521L49.6726 308.901C49.439 309.039 49.2919 309.048 49.24 309.048C49.0324 309.048 49.0238 308.607 49.0238 308.52V139.273L53.9633 136.42C54.7333 135.979 55.2177 134.466 56.3077 130.575C56.8008 128.829 57.5361 126.201 57.934 125.682L104.103 99.0445C104.501 99.4941 105.176 100.67 105.591 101.413C106.837 103.609 107.537 104.751 108.541 104.751C108.74 104.751 108.947 104.699 109.12 104.595L263.277 15.6397ZM264.142 14.144L108.679 103.843C108.636 103.869 108.584 103.886 108.532 103.886C107.442 103.886 105.228 98.0676 104.129 98.0676C104.077 98.0676 104.025 98.0762 103.982 98.1108L57.4323 124.973C56.3509 125.595 54.6035 135.054 53.5308 135.676L48.1587 138.771V308.52C48.1587 309.402 48.5999 309.912 49.24 309.912C49.4996 309.912 49.7937 309.826 50.1051 309.644L262.195 187.274C263.277 186.651 264.15 185.138 264.15 183.893V26.8272L264.142 14.144Z" fill="#407BFF"/>
</g>
<path d="M48.1587 151.454V186.357L264.142 61.747V26.8271L48.1587 151.454Z" fill="#407BFF"/>
<path d="M264.142 14.144V26.8272L48.1587 151.455V138.771L52.1726 136.446C53.2453 135.823 53.6087 134.881 54.1191 133.065L55.4772 128.345C55.9098 126.702 56.3509 125.587 57.4323 124.964L103.982 98.1021C105.063 97.4797 105.911 97.4105 106.733 98.7679L108.402 101.794C109.017 102.849 109.319 103.471 110.392 102.849L264.142 14.144Z" fill="#F0F0F0"/>
<path d="M254.989 10.2621C256.347 9.47533 257.446 10.1151 257.446 11.68C257.446 13.2448 256.347 15.1469 254.989 15.9336C253.631 16.7118 252.532 16.0806 252.532 14.5158C252.532 12.9509 253.631 11.0488 254.989 10.2621Z" fill="#407BFF"/>
<path d="M246.157 15.3544C247.515 14.5676 248.614 15.2074 248.614 16.7723C248.614 18.3371 247.515 20.2392 246.157 21.0259C244.799 21.804 243.7 21.1729 243.7 19.608C243.7 18.0432 244.799 16.1411 246.157 15.3544Z" fill="#407BFF"/>
<path d="M237.316 20.4467C238.674 19.6599 239.773 20.2997 239.773 21.8645C239.773 23.4294 238.674 25.3315 237.316 26.1182C235.958 26.905 234.859 26.2652 234.859 24.7003C234.859 23.1355 235.958 21.2334 237.316 20.4467Z" fill="#407BFF"/>
<path opacity="0.5" d="M57.1037 139.679L54.0413 141.443L55.2091 139.195C55.313 138.996 55.3216 138.754 55.2351 138.65C55.1486 138.547 54.9929 138.616 54.8891 138.815L53.2281 142.014C53.2281 142.014 53.2281 142.014 53.2281 142.022C53.2108 142.057 53.1935 142.1 53.1849 142.143C53.1849 142.161 53.1762 142.169 53.1676 142.187C53.1503 142.238 53.1503 142.299 53.1503 142.351C53.1503 142.403 53.1503 142.455 53.1676 142.489C53.1676 142.498 53.1762 142.506 53.1849 142.515C53.1935 142.541 53.2108 142.567 53.2281 142.584L54.8891 143.864C54.9323 143.898 54.9929 143.898 55.0534 143.864C55.1226 143.821 55.1918 143.743 55.2351 143.63C55.3216 143.423 55.313 143.189 55.2091 143.112L54.0413 142.212L57.1037 140.449C57.2421 140.371 57.3459 140.138 57.3459 139.93C57.3459 139.723 57.2334 139.619 57.1037 139.697V139.679Z" fill="#455A64"/>
<path opacity="0.5" d="M59.6642 138.209L62.7266 136.446L61.5587 135.547C61.4549 135.469 61.4463 135.235 61.5328 135.028C61.6193 134.82 61.775 134.717 61.8788 134.794L63.5397 136.074C63.557 136.091 63.5743 136.117 63.583 136.143C63.583 136.143 63.5916 136.16 63.6003 136.169C63.6176 136.212 63.6176 136.256 63.6176 136.307C63.6176 136.359 63.6176 136.42 63.6003 136.472C63.6003 136.489 63.5917 136.498 63.583 136.506C63.5743 136.549 63.557 136.584 63.5397 136.627C63.5397 136.627 63.5397 136.627 63.5397 136.636L61.8788 139.835C61.8356 139.921 61.775 139.99 61.7144 140.025C61.6452 140.068 61.576 140.06 61.5328 139.999C61.4463 139.895 61.4549 139.645 61.5587 139.454L62.7266 137.207L59.6642 138.97C59.5258 139.048 59.422 138.944 59.422 138.737C59.422 138.529 59.5345 138.296 59.6642 138.218V138.209Z" fill="#455A64"/>
<path opacity="0.5" d="M69.7163 129.391C69.699 129.209 69.5347 129.227 69.4568 129.434L69.0329 130.463C68.3149 130.385 67.4498 131.085 66.8616 132.322C66.1003 133.93 66.1003 135.823 66.8616 136.558C67.2422 136.921 67.7353 136.93 68.2371 136.636C68.7388 136.351 69.2319 135.771 69.6125 134.967C69.7077 134.76 69.7077 134.526 69.6125 134.431C69.5174 134.336 69.3617 134.431 69.2665 134.63C68.7042 135.823 67.7786 136.359 67.2076 135.815C66.6453 135.27 66.6453 133.852 67.2076 132.65C67.6142 131.794 68.1938 131.293 68.6956 131.258L68.3755 132.028C68.2976 132.227 68.3755 132.417 68.4966 132.33L69.7423 131.518C69.8288 131.457 69.898 131.301 69.8807 131.172L69.699 129.382L69.7163 129.391Z" fill="#455A64"/>
<path opacity="0.5" d="M102.641 103.895L103.757 101.534C103.887 101.258 103.887 100.929 103.757 100.8C103.627 100.67 103.411 100.8 103.281 101.076L102.165 103.437L101.049 102.364C100.92 102.235 100.703 102.364 100.574 102.641C100.444 102.918 100.444 103.246 100.574 103.376L101.689 104.448L100.574 106.808C100.444 107.085 100.444 107.414 100.574 107.543C100.643 107.604 100.729 107.604 100.816 107.56C100.902 107.509 100.989 107.414 101.058 107.267L102.174 104.906L103.29 105.978C103.359 106.039 103.446 106.039 103.532 105.996C103.619 105.944 103.705 105.849 103.774 105.702C103.904 105.425 103.904 105.096 103.774 104.967L102.658 103.895H102.641Z" fill="#455A64"/>
<path d="M73.7822 132.296V128.353C73.7822 127.108 74.6559 125.595 75.7373 124.973L251.209 23.7668C252.29 23.1443 253.164 23.6458 253.164 24.8907V28.8332C253.164 30.0781 252.29 31.5911 251.209 32.2136L75.7286 133.42C74.6473 134.042 73.7736 133.541 73.7736 132.296H73.7822Z" fill="white"/>
<path d="M248.553 32.4382C248.501 32.4382 248.449 32.4296 248.406 32.4123C248.268 32.3518 248.129 32.1875 248.164 31.9108L248.363 30.2768C248.363 30.2768 248.363 30.2682 248.363 30.2595L247.576 29.6889C247.463 29.6111 247.403 29.4814 247.403 29.3171C247.403 29.0837 247.515 28.833 247.697 28.7033L248.839 27.8214C248.839 27.8214 248.899 27.7523 248.916 27.6918L249.427 26.0145C249.513 25.7378 249.712 25.539 249.937 25.5303C250.093 25.5131 250.24 25.6082 250.309 25.7551L250.768 26.7407L251.806 26.343C251.962 26.2825 252.126 26.3171 252.23 26.4381C252.377 26.6024 252.377 26.8791 252.247 27.1384L251.417 28.6947C251.382 28.7552 251.373 28.8071 251.382 28.8416L251.581 30.2509C251.616 30.5016 251.494 30.7437 251.356 30.882C251.244 30.9944 251.105 31.0549 250.967 31.0376L249.946 30.908L248.951 32.2394C248.821 32.4037 248.683 32.4555 248.562 32.4555L248.553 32.4382ZM247.913 29.2999L248.7 29.8705C248.83 29.9656 248.891 30.1385 248.865 30.3373L248.7 31.6861L249.557 30.5967C249.678 30.4411 249.833 30.3633 249.998 30.3806L251.027 30.5103C251.027 30.5103 251.071 30.3719 251.062 30.3028L250.863 28.8935C250.846 28.7465 250.88 28.5823 250.958 28.4353L251.789 26.8791L250.837 27.2422C250.638 27.32 250.43 27.2422 250.344 27.0433L249.92 26.1355C249.92 26.1355 249.92 26.1442 249.92 26.1528L249.41 27.8301C249.358 27.9857 249.271 28.1327 249.15 28.2191L248.008 29.101C247.956 29.1442 247.922 29.2393 247.922 29.2912L247.913 29.2999Z" fill="#E0E0E0"/>
<g opacity="0.5">
<path d="M255.465 23.2915C255.231 23.2915 255.007 23.1704 254.877 22.9543C254.686 22.6344 254.799 22.2194 255.128 22.0292L260.621 18.8562C260.95 18.666 261.356 18.7784 261.546 19.1069C261.737 19.4268 261.624 19.8418 261.296 20.032L255.802 23.205C255.699 23.2655 255.577 23.2915 255.465 23.2915Z" fill="#455A64"/>
<path d="M255.465 26.456C255.231 26.456 255.007 26.335 254.877 26.1188C254.686 25.7989 254.799 25.3839 255.128 25.1937L260.621 22.0208C260.95 21.8306 261.356 21.943 261.546 22.2715C261.737 22.5914 261.624 23.0064 261.296 23.1966L255.802 26.3695C255.699 26.4301 255.577 26.456 255.465 26.456Z" fill="#455A64"/>
<path d="M255.465 29.6289C255.231 29.6289 255.007 29.5078 254.877 29.2917C254.686 28.9718 254.799 28.5568 255.128 28.3666L260.621 25.1936C260.95 25.0034 261.356 25.1158 261.546 25.4444C261.737 25.7642 261.624 26.1792 261.296 26.3694L255.802 29.5424C255.699 29.6029 255.577 29.6289 255.465 29.6289Z" fill="#455A64"/>
</g>
<path d="M48.1588 138.772V151.455L44.4908 149.337V136.662L48.1588 138.772Z" fill="#E0E0E0"/>
<path opacity="0.1" d="M57.5275 194.588L117.261 160.118V257.442L57.3545 291.809L57.5275 194.588Z" fill="#407BFF"/>
<path opacity="0.15" d="M130.427 154.308L202.488 112.731C203.933 111.892 205.109 112.532 205.109 114.149C205.109 115.766 203.941 117.763 202.497 118.601L130.419 160.654C128.974 161.493 127.806 160.827 127.806 159.15V158.847C127.806 157.178 128.983 155.147 130.427 154.308Z" fill="#407BFF"/>
<path opacity="0.1" d="M129.675 166.913L248.916 98.111C249.955 97.5145 250.794 97.9381 250.785 99.0621C250.785 100.186 249.946 101.578 248.908 102.175L129.666 170.977C128.628 171.573 127.789 171.15 127.789 170.026C127.789 168.902 128.628 167.518 129.666 166.913H129.675Z" fill="#407BFF"/>
<path opacity="0.1" d="M129.675 175.049L248.916 106.247C249.955 105.65 250.794 106.074 250.785 107.198C250.785 108.322 249.946 109.714 248.908 110.31L129.666 179.112C128.628 179.709 127.789 179.285 127.789 178.161C127.789 177.038 128.628 175.654 129.666 175.049H129.675Z" fill="#407BFF"/>
<path opacity="0.1" d="M129.675 183.193L248.916 114.391C249.955 113.794 250.794 114.218 250.785 115.342C250.785 116.466 249.946 117.849 248.908 118.454L129.666 187.257C128.628 187.853 127.789 187.429 127.789 186.306C127.789 185.182 128.628 183.798 129.666 183.193H129.675Z" fill="#407BFF"/>
<path opacity="0.1" d="M129.675 191.337L248.916 122.535C249.955 121.938 250.794 122.362 250.785 123.486C250.785 124.61 249.946 126.002 248.908 126.598L129.666 195.401C128.628 195.997 127.789 195.574 127.789 194.45C127.789 193.326 128.628 191.942 129.666 191.337H129.675Z" fill="#407BFF"/>
<path opacity="0.1" d="M129.675 199.473L212.869 151.083C213.907 150.487 214.737 150.91 214.737 152.034C214.737 153.158 213.898 154.541 212.86 155.147L129.666 203.536C128.628 204.133 127.789 203.709 127.789 202.585C127.789 201.462 128.628 200.078 129.666 199.473H129.675Z" fill="#407BFF"/>
<path opacity="0.1" d="M129.675 215.761L248.916 146.959C249.955 146.363 250.794 146.786 250.785 147.91C250.785 149.034 249.946 150.426 248.908 151.023L129.666 219.825C128.628 220.421 127.789 219.998 127.789 218.874C127.789 217.75 128.628 216.367 129.666 215.761H129.675Z" fill="#407BFF"/>
<path opacity="0.1" d="M129.675 223.897L248.916 155.094C249.955 154.498 250.794 154.922 250.785 156.045C250.785 157.169 249.946 158.561 248.908 159.158L129.666 227.96C128.628 228.557 127.789 228.133 127.789 227.009C127.789 225.885 128.628 224.502 129.666 223.897H129.675Z" fill="#407BFF"/>
<path opacity="0.1" d="M129.675 232.041L248.916 163.239C249.955 162.642 250.794 163.066 250.785 164.19C250.785 165.314 249.946 166.697 248.908 167.302L129.666 236.105C128.628 236.701 127.789 236.278 127.789 235.154C127.789 234.03 128.628 232.646 129.666 232.041H129.675Z" fill="#407BFF"/>
<path opacity="0.1" d="M129.675 240.185L173.482 214.629C174.52 214.032 175.351 214.456 175.351 215.58C175.351 216.704 174.511 218.087 173.473 218.692L129.666 244.249C128.628 244.845 127.789 244.422 127.789 243.298C127.789 242.174 128.628 240.79 129.666 240.185H129.675Z" fill="#407BFF"/>
<path d="M226.632 184.499L231.797 191.372L226.243 197.735L219.089 189.375L226.632 184.499Z" fill="#F28F8F"/>
<path d="M209.72 168.867C214.227 169.075 216.372 169.775 218.734 172.55C221.035 175.265 232.895 192.383 232.895 192.383C232.895 192.383 230.81 198.228 226.243 197.726L217.947 189.176L209.72 168.858V168.867Z" fill="#455A64"/>
<path d="M187.609 311.633C187.461 312.722 187.15 313.984 187.09 317.054C187.029 320.348 186.423 321.515 186.346 324.212C186.25 327.299 186.787 328.457 188.041 330.186C189.295 331.916 192.583 333.498 193.976 330.567C195.386 327.601 195.187 325.717 194.745 322.682C194.287 319.552 194.226 317.823 193.958 315.437C193.725 313.336 193.439 311.737 193.439 311.737L187.609 311.633Z" fill="#263238"/>
<path d="M196.96 285.748L186.112 285.549C186.276 292.785 187.427 304.837 187.609 311.633C187.643 312.912 187.574 321.567 188.058 324.195C188.785 328.146 193.474 327.61 193.725 325.25C193.975 322.881 193.422 312.774 193.439 311.737C193.396 307.379 195.437 296.01 196.51 288.194C196.562 287.814 196.908 286.119 196.96 285.748Z" fill="white"/>
<path d="M212.903 305.996C212.903 305.996 212.341 306.03 212.254 306.488C212.151 307.033 212.125 307.889 211.9 308.78C211.588 310.016 211.329 312.065 211.511 313.076C211.701 314.088 214.011 315.592 215.585 315.86C217.168 316.128 219.391 317.685 220.628 318.852C222.142 320.278 225.412 321.627 227.644 321.61C230.283 321.592 232.117 320.736 232.99 319.319C233.899 317.849 232.203 317.736 229.184 315.783C228.501 315.342 227.722 314.84 226.848 314.27C222.073 311.157 220.326 309.48 218.976 306.367L212.903 306.004V305.996Z" fill="#263238"/>
<path d="M219.019 304.301C218.942 302.062 220.092 285.549 220.092 285.549L210.758 286.595C212.964 299.762 213.146 304.241 212.895 306.16C212.877 306.212 212.834 306.394 212.834 306.713C212.843 309.273 215.732 310.647 217.981 312.359C218.872 313.033 221.156 315.108 223.838 316.016C225.568 316.604 228.777 316.829 229.193 315.774C226.45 313.682 222.722 310.95 220.542 308.555C219.504 307.414 219.106 306.541 219.028 304.293L219.019 304.301Z" fill="white"/>
<path d="M188.621 210.876C183.525 221.995 188.802 261.142 188.802 261.142C188.647 262.949 186.588 266.494 185.818 274.431C184.91 283.811 187.496 308.918 187.496 308.918C187.496 308.918 189.979 310.768 193.569 309.048C193.569 309.048 200.135 272.148 201.32 262.828C202.349 254.692 204.322 236.796 204.322 236.796L209.927 262.785C209.927 262.785 208.491 267.341 208.154 270.817C207.626 276.307 212.964 303.834 212.964 303.834C212.964 303.834 215.464 305.157 219.019 303.713C219.019 303.713 221.39 268.145 221.883 261.54C222.713 250.439 219.763 215.813 217.73 209.242L188.629 210.868L188.621 210.876Z" fill="#407BFF"/>
<path opacity="0.5" d="M188.621 210.876C183.525 221.995 188.802 261.142 188.802 261.142C188.647 262.949 186.588 266.494 185.818 274.431C184.91 283.811 187.496 308.918 187.496 308.918C187.496 308.918 189.979 310.768 193.569 309.048C193.569 309.048 200.135 272.148 201.32 262.828C202.349 254.692 204.322 236.796 204.322 236.796L209.927 262.785C209.927 262.785 208.491 267.341 208.154 270.817C207.626 276.307 212.964 303.834 212.964 303.834C212.964 303.834 215.464 305.157 219.019 303.713C219.019 303.713 221.39 268.145 221.883 261.54C222.713 250.439 219.763 215.813 217.73 209.242L188.629 210.868L188.621 210.876Z" fill="black"/>
<path opacity="0.2" d="M204.322 236.805L205.974 226.482C205.974 226.482 212.964 225.038 216.139 222.055C216.139 222.055 212.808 226.188 207.869 227.545L206.009 235.491L209.253 259.56L204.313 236.805H204.322Z" fill="black"/>
<path d="M191.233 176.354L198.163 178.161V163.524C194.339 162.53 191.233 164.735 191.233 168.452V176.354Z" fill="#407BFF"/>
<path opacity="0.6" d="M191.233 176.354L198.163 178.161V163.524C194.339 162.53 191.233 164.735 191.233 168.452V176.354Z" fill="black"/>
<path d="M204.936 165.608L202.453 165.547C194.875 165.374 188.872 158.838 189.036 150.953C188.993 142.359 195.688 135.356 203.95 135.313C212.203 135.27 218.933 142.195 218.976 150.789L218.959 151.679C218.769 159.547 212.505 165.772 204.945 165.599L204.936 165.608Z" fill="#407BFF"/>
<path opacity="0.6" d="M204.936 165.608L202.453 165.547C194.875 165.374 188.872 158.838 189.036 150.953C188.993 142.359 195.688 135.356 203.95 135.313C212.203 135.27 218.933 142.195 218.976 150.789L218.959 151.679C218.769 159.547 212.505 165.772 204.945 165.599L204.936 165.608Z" fill="black"/>
<path d="M193.335 138.919C193.059 137.847 191.986 137.241 190.939 137.57L191.605 140.129C191.467 139.956 191.302 139.809 191.104 139.697C190.169 139.152 189.01 139.524 188.5 140.527L191.873 142.515C192.046 142.161 192.116 141.78 192.098 141.409C193.05 141.02 193.604 139.947 193.335 138.919Z" fill="#407BFF"/>
<path opacity="0.6" d="M193.335 138.919C193.059 137.847 191.986 137.241 190.939 137.57L191.605 140.129C191.467 139.956 191.302 139.809 191.104 139.697C190.169 139.152 189.01 139.524 188.5 140.527L191.873 142.515C192.046 142.161 192.116 141.78 192.098 141.409C193.05 141.02 193.604 139.947 193.335 138.919Z" fill="black"/>
<path d="M197.427 169.464C197.427 169.464 192.418 170.173 190.498 170.795C193.18 177.366 188.975 187.524 188.975 187.524L192.946 199.741C190.213 205.352 187.946 208.136 187.02 212.701C189.546 217.629 207.376 222.332 218.985 213.349C218.985 213.349 218.613 200.873 217.134 193.602C220.931 186.193 220.317 184.014 219.539 181.429C217.731 175.421 214.08 173.104 209.729 168.876L207.107 168.599L197.436 169.472L197.427 169.464Z" fill="#37474F"/>
<path d="M193.405 204.634C195.559 202.429 200.126 201.798 200.126 201.798L195.939 199.412L191.242 188.086C194.503 181.827 194.062 175.628 194.062 175.628L191.372 174.979C191.7 180.971 188.984 187.533 188.984 187.533L192.955 199.749C190.221 205.36 187.955 208.144 187.029 212.709C188.759 216.081 197.661 219.349 206.822 218.199C194.538 217.378 191.346 206.778 193.413 204.651L193.405 204.634Z" fill="#263238"/>
<path d="M205.81 218.286C205.974 218.268 206.147 218.251 206.312 218.234C206.173 218.234 206.009 218.251 205.81 218.286Z" fill="#E6E6E6"/>
<path d="M213.405 142.991C214.893 144.357 216.753 147.322 216.606 155.994C216.476 163.343 214.201 165.167 213.059 165.694C211.917 166.222 209.694 165.919 207.54 165.556L207.514 168.599C207.514 168.599 210.351 171.746 210.178 173.769C210.005 175.792 206.139 176.631 203.344 174.668C200.55 172.706 198.171 169.438 198.171 169.438L198.145 160.196C198.145 160.196 196.882 161.484 194.728 159.539C192.946 157.93 192.332 155.216 193.707 153.746C195.083 152.276 197.643 152.665 198.63 154.74C198.63 154.74 203.543 154.334 208.076 151.965C212.09 149.864 213.699 146.069 213.414 142.991H213.405Z" fill="white"/>
<path d="M207.531 154.308C207.557 154.835 207.185 155.285 206.701 155.311C206.208 155.337 205.792 154.93 205.767 154.403C205.741 153.876 206.113 153.426 206.606 153.4C207.099 153.374 207.514 153.781 207.54 154.308H207.531Z" fill="#263238"/>
<path d="M207.869 160.464L210.178 161.216C209.988 161.908 209.322 162.297 208.682 162.089C208.042 161.882 207.678 161.156 207.869 160.464Z" fill="white"/>
<path d="M215.853 150.988L213.76 150.271C213.915 149.665 214.512 149.337 215.092 149.527C215.672 149.726 216.009 150.374 215.853 150.98V150.988Z" fill="#263238"/>
<path d="M198.63 153.867L198.604 156.971C199.434 157.014 200.109 156.348 200.118 155.484C200.118 154.628 199.46 153.902 198.63 153.858V153.867Z" fill="#407BFF"/>
<path opacity="0.6" d="M198.63 153.867L198.604 156.971C199.434 157.014 200.109 156.348 200.118 155.484C200.118 154.628 199.46 153.902 198.63 153.858V153.867Z" fill="black"/>
<path d="M215.127 154.005C215.153 154.533 214.781 154.982 214.287 155.008C213.794 155.034 213.379 154.628 213.353 154.1C213.327 153.573 213.699 153.123 214.184 153.097C214.677 153.071 215.092 153.478 215.118 154.005H215.127Z" fill="#263238"/>
<path d="M210.196 152.743L210.178 158.761L212.981 157.844L210.196 152.743Z" fill="white"/>
<path d="M207.54 165.547C205.273 165.253 200.593 163.879 199.858 161.959C199.858 161.959 200.109 163.17 201.51 164.406C202.912 165.643 207.531 167.034 207.531 167.034V165.556L207.54 165.547Z" fill="white"/>
<path d="M179.858 200.216C179.858 200.216 185.411 208.101 186.363 209.13C187.315 210.159 187.963 209.822 189.001 209.363C190.031 208.905 191.995 208.317 192.86 208.101C194.555 207.678 194.919 209.242 193.24 210.366C192.029 211.17 190.636 211.525 191.216 212.191C191.796 212.856 193.595 214.015 195.265 214.672C199.365 216.289 199.045 217.101 198.292 218.424C197.635 219.583 195.723 222.073 188.396 219.124C185.368 217.914 181.112 214.464 179.105 212.242C176.207 209.035 171.691 203.286 171.691 203.286L179.866 200.225L179.858 200.216Z" fill="white"/>
<path d="M191.571 170.51C189.564 170.648 185.783 171.124 181.043 178.991C176.882 185.89 170.446 195.254 169.243 198.6C168.759 199.948 170.645 202.767 173.075 205.646C176.397 205.499 179.416 203.208 180.982 201.375C180.255 199.698 179.451 198.6 179.451 198.6L189.174 187.516C189.174 187.516 192.868 184.135 193.638 179.709C194.469 174.971 194.209 171.21 191.571 170.51Z" fill="#455A64"/>
<path d="M246.01 185.432L222.039 191.743L215.438 218.856L238.233 212.242L246.01 185.432Z" fill="#407BFF"/>
<path opacity="0.25" d="M246.01 185.432L222.039 191.743L215.438 218.856L238.233 212.242L246.01 185.432Z" fill="black"/>
<g opacity="0.1">
<path d="M235.179 204.634C235.404 205.239 236.875 207.444 239.66 207.314L239.833 206.718L235.179 204.643V204.634Z" fill="black"/>
</g>
<g opacity="0.1">
<path d="M238.786 189.738C238.786 189.738 238.873 189.332 238.985 188.822C239.098 188.32 237.688 188.294 235.845 188.77L232.316 189.686C230.473 190.162 228.89 190.957 228.777 191.467L228.578 192.384L238.795 189.738H238.786Z" fill="black"/>
</g>
<path d="M240.629 186.305C240.698 185.994 240.127 185.908 239.357 186.124L237.956 186.513C237.956 186.513 238.371 184.533 235.266 185.225C232.16 185.916 231.485 188.156 231.485 188.156C231.485 188.156 230.819 188.346 229.989 188.579C229.158 188.813 228.414 189.254 228.319 189.574L228.146 190.144L240.499 186.893C240.499 186.893 240.56 186.625 240.629 186.305Z" fill="#37474F"/>
<path d="M238.925 187.282C237.792 187.559 237.324 187.706 237.151 188.484C236.961 189.375 236.883 190.023 236.883 190.023L231.416 191.467C231.416 191.467 231.684 190.343 231.762 189.902C231.848 189.461 231.658 189.202 230.793 189.426L230.715 189.081L239.279 186.902L238.916 187.282H238.925Z" fill="#37474F"/>
<path d="M239.115 189.824C239.115 189.824 239.202 189.418 239.314 188.908C239.427 188.407 238.016 188.381 236.174 188.856L232.644 189.773C230.802 190.248 229.219 191.043 229.106 191.554L228.907 192.47L239.124 189.824H239.115Z" fill="#37474F"/>
<path d="M243.484 194.138C243.484 194.138 242.584 197.208 242.385 197.934C242.177 198.66 239.496 199.974 237.731 200.458C235.966 200.943 234.037 201.513 234.876 203.977C235.646 206.251 238.544 206.77 240.023 206.701C241.503 206.64 243.518 205.222 244.314 202.957C245.326 200.061 244.781 196.957 245.188 195.262C245.594 193.568 244.375 193.127 243.484 194.13V194.138Z" fill="white"/>
<path d="M152.677 194.856C149.39 191.545 148.213 192.833 147.798 196.464C147.495 199.144 146.699 200.899 146.699 200.899C146.466 199.775 146.371 199.265 146.085 198.712C145.514 197.605 144.545 197.579 144.13 197.752C143.81 197.891 144.208 198.66 144.156 200.061C144.095 201.859 143.507 202.862 143.931 204.773C144.087 205.49 143.957 206.234 143.611 206.882C141.838 210.159 136.18 216.237 132.192 220.603C128.662 217.421 120.782 210.297 117.001 206.899C111.819 202.231 110.133 200.13 105.124 200.476C105.124 200.476 107.062 201.064 109.389 203.026C111.707 204.989 111.153 216.219 111.153 216.219C111.153 216.219 128.386 228.574 130.159 229.75C130.419 229.923 130.687 230.078 130.946 230.217C132.676 231.133 134.822 230.701 136.111 229.223C139.787 225.021 145.151 216.747 148.248 212.45C149.701 210.436 151.111 207.678 151.993 205.931C155.073 199.862 154.736 196.931 152.677 194.856Z" fill="white"/>
<path d="M105.634 200.165C105.634 200.165 109.129 199.248 112.563 201.859C115.522 204.098 128.1 215.666 128.1 215.666C128.1 215.666 128.446 221.788 122.045 225.445L106.577 214.542L105.625 200.156L105.634 200.165Z" fill="#407BFF"/>
<path opacity="0.3" d="M105.634 200.165C105.634 200.165 109.129 199.248 112.563 201.859C115.522 204.098 128.1 215.666 128.1 215.666C128.1 215.666 128.446 221.788 122.045 225.445L106.577 214.542L105.625 200.156L105.634 200.165Z" fill="black"/>
<path d="M90.7117 338.487H84.1631V350.158H90.7117V338.487Z" fill="white"/>
<path d="M106.871 337.864L113.42 338.098L113.749 325.752L106.871 325.51V337.864Z" fill="white"/>
<path d="M83.2374 237.436C83.2374 243.946 84.1976 296.339 84.1976 296.339C84.0419 298.215 82.355 301.665 82.727 308.858C83.2201 318.636 83.8862 344.323 83.8862 344.323C83.8862 344.323 87.0697 346.259 91.1788 344.47C91.1788 344.47 97.3727 308.893 98.5492 299.21C99.57 290.754 101.309 262.293 101.309 262.293L104.856 295.388C104.856 295.388 103.644 300.429 104.042 306.221C104.345 310.7 106.456 334.034 106.456 334.034C106.456 334.034 109.536 336.213 114.017 334.639C114.017 334.639 117.745 299.495 117.814 295.388C117.901 290.702 115.634 237.358 115.634 237.358L83.2288 237.428L83.2374 237.436Z" fill="#37474F"/>
<path d="M90.7117 346.795V345.818C91.3345 346.103 92.7965 351.887 95.3917 354.351C97.4592 356.314 100.279 358.579 100.989 360.767C101.733 363.04 97.0613 364.294 95.1322 363.94C92.8917 363.525 88.9988 361.882 88.0299 360.36C87.0524 358.839 86.5939 356.591 85.8067 355.475C85.0108 354.36 83.1855 353.115 82.753 351.818C82.5194 351.109 82.7962 349.553 83.125 348.239C83.4277 347.037 83.7565 345.706 84.1544 345.818C84.1544 345.965 84.1544 346.562 84.1544 346.562C84.6302 347.106 85.9451 347.651 87.433 347.712C88.3933 347.746 90.7203 347.556 90.7117 346.795Z" fill="#263238"/>
<path d="M113.489 335.997C113.826 336.005 114.103 336.507 114.856 337.354C115.764 338.374 117.243 339.481 118.705 340.242C121.162 341.521 125.929 343.484 128.083 344.495C129.432 345.127 129.372 346.821 127.97 347.789C126.578 348.758 123.212 349.449 119.173 348.507C116.975 347.997 114.103 345.879 112.295 345.991C110.479 346.104 107.087 346.078 105.747 345.118C104.406 344.158 104.942 342.109 105.323 340.346C105.738 338.418 106.248 335.426 106.863 335.556V336.222C107.65 337.467 111.716 337.968 113.446 337.052L113.48 335.997H113.489Z" fill="#263238"/>
<path d="M101.309 262.292C101.309 262.292 106.543 260.754 110.427 256.846C110.427 256.846 108.671 260.278 103.437 263.468L104.553 293.019L101.309 262.284V262.292Z" fill="#263238"/>
<path d="M86.6459 201.919C86.6459 201.919 81.516 202.386 81.8879 212.147L83.0212 227.692L82.9174 251.018C87.7358 256.474 109.086 256.076 116.396 250.577C116.396 250.577 115.643 222.972 115.15 212.346C114.795 204.79 113.057 200.994 105.634 200.156L96.499 200.553L86.6545 201.902L86.6459 201.919Z" fill="#407BFF"/>
<path opacity="0.3" d="M101.205 207.038L102.382 215.234L105.124 215.182L102.027 215.675L101.205 207.038Z" fill="black"/>
<path d="M70.3911 235.43C73.0469 214.075 79.1629 203.467 86.6112 202.213L86.0835 215.874C86.0835 215.874 81.0747 227.277 78.9899 238.482C78.0124 243.739 76.8791 252.877 77.1733 257.373C77.2252 258.168 77.5798 258.912 78.1248 259.465C79.5955 260.961 80.0366 262.258 81.0228 263.952C81.7928 265.275 82.5886 265.742 82.3896 266.062C82.1215 266.468 81.2564 267.03 80.1059 266.356C79.5263 266.018 78.8342 265.327 77.9778 264.436C77.9778 264.436 77.7615 267.73 79.0505 270.384C80.7979 273.972 80.5038 275.874 75.6767 274.811C72.6489 274.145 70.4689 270.955 69.6558 263.511C69.4222 261.367 69.3962 257.9 69.5087 255.168C69.8028 248.053 69.8634 239.71 70.3911 235.439V235.43Z" fill="white"/>
<path d="M87.0351 201.868C83.1682 201.85 79.6387 202.533 76.8272 207.937C74.1368 213.116 72.0607 224.096 71.0226 227.683C71.0226 227.683 76.6715 231.021 81.8706 230.943L85.5299 218.251C85.5299 218.251 88.004 212.329 87.0351 201.876V201.868Z" fill="#407BFF"/>
<path opacity="0.3" d="M87.0351 201.868C83.1682 201.85 79.6387 202.533 76.8272 207.937C74.1368 213.116 72.0607 224.096 71.0226 227.683C71.0226 227.683 76.6715 231.021 81.8706 230.943L85.5299 218.251C85.5299 218.251 88.004 212.329 87.0351 201.876V201.868Z" fill="black"/>
<path d="M95.0197 179.882C95.0197 185.484 99.3883 190.032 104.769 190.032C110.15 190.032 114.518 185.484 114.518 179.882C114.518 174.28 110.15 169.732 104.769 169.732C99.3883 169.732 95.0197 174.28 95.0197 179.882Z" fill="#263238"/>
<path d="M88.8171 184.965C88.8171 184.965 90.3137 192.28 90.9106 193.481C91.5075 194.683 92.7532 195.029 92.7532 195.029L92.6494 189.885L88.8171 184.974V184.965Z" fill="#263238"/>
<path d="M90.6942 174.487C90.6942 174.487 89.6216 174.219 88.4797 176C87.5021 177.522 87.2772 180.954 88.817 184.966L91.6372 185.303L90.6942 174.487Z" fill="#263238"/>
<path d="M92.4764 185.302C91.9141 185.657 91.1095 184.524 90.4088 183.764C89.7081 183.003 87.4416 181.965 86.2997 184.455C85.1405 186.988 87.3032 190.343 89.0939 190.931C92.1822 191.942 92.6407 189.876 92.6407 189.876L92.8743 201.461C96.9747 207.79 106.248 207.565 102.909 201.159V197.631C102.909 197.631 105.695 198.072 107.062 197.856C109.328 197.493 110.755 195.625 111.447 193.066C112.555 188.96 112.97 185.64 112.036 177.565C111.006 168.711 101.118 168.616 95.7723 172.118C90.4348 175.619 92.4677 185.294 92.4677 185.294L92.4764 185.302Z" fill="white"/>
<path d="M92.8311 198.868C92.8311 198.868 94.2757 201.98 96.845 203.891C99.2067 205.646 101.698 205.949 101.698 205.949C101.698 205.949 99.2932 207.539 98.2724 209.796C97.2516 212.052 90.0455 205.845 90.1061 201.453C90.1061 201.453 91.2393 197.035 92.7878 196.75L92.8311 198.868Z" fill="#263238"/>
<path d="M101.698 205.948C101.698 205.948 103.921 204.842 102.926 201.15V197.623L103.895 197.752C104.657 198.435 105.85 200.043 106.24 201.807C106.465 202.819 107.01 207.928 106.032 208.948C105.141 209.873 103.696 206.216 101.707 205.94L101.698 205.948Z" fill="#263238"/>
<path d="M92.4763 186.288C92.1908 186.288 91.1095 184.429 90.4088 183.764C89.4313 182.839 90.6943 174.487 90.6943 174.487C90.6943 174.487 89.76 172.412 91.6372 170.259C92.9694 168.729 95.2013 168.556 99.0076 167.933C100.496 167.691 102.079 167.527 103.523 167.121C105.072 166.68 106.594 165.66 108.039 164.925C108.515 164.683 109.051 164.432 109.57 164.57C110.063 164.7 110.409 165.175 110.539 165.677C110.669 166.178 110.617 166.697 110.565 167.207C111.447 166.23 113.169 166.377 114.069 167.328C114.968 168.288 115.098 169.801 114.614 171.02C114.129 172.239 113.152 173.207 112.062 173.942C107.278 177.176 101.629 176.276 96.2653 175.637C96.0058 175.602 95.7376 175.585 95.5041 175.689C94.6649 176.069 94.4833 178.671 94.3362 179.424C93.8431 181.957 93.4279 186.254 92.4763 186.28V186.288Z" fill="#263238"/>
<path d="M90.6943 174.928L87.2772 173.017C87.7617 171.997 88.9209 171.599 89.8638 172.127C90.8067 172.654 91.1787 173.908 90.6943 174.928Z" fill="#263238"/>
<path d="M102.909 197.631C102.909 197.631 97.8399 196.568 96.0751 195.591C94.89 194.934 93.9124 193.801 93.627 193.066C93.627 193.066 93.9557 194.631 95.0197 196.041C96.3173 197.761 102.909 199.032 102.909 199.032V197.631Z" fill="white"/>
<path d="M101.075 183.677C101.075 184.282 100.617 184.775 100.063 184.775C99.5009 184.775 99.051 184.282 99.051 183.677C99.051 183.072 99.5095 182.579 100.063 182.579C100.625 182.579 101.075 183.072 101.075 183.677Z" fill="#263238"/>
<path d="M99.3364 179.294L97.1651 180.539C96.845 179.89 97.07 179.086 97.6755 178.741C98.2724 178.395 99.025 178.645 99.3451 179.294H99.3364Z" fill="#263238"/>
<path d="M102.451 191.286L104.769 192.193C104.536 192.885 103.835 193.24 103.195 192.989C102.555 192.738 102.226 191.977 102.451 191.286Z" fill="white"/>
<path d="M111.223 180.504L108.939 179.389C109.198 178.723 109.925 178.438 110.556 178.741C111.188 179.043 111.482 179.839 111.223 180.496V180.504Z" fill="#263238"/>
<path d="M109.717 183.686C109.717 184.291 109.259 184.784 108.705 184.784C108.143 184.784 107.693 184.291 107.693 183.686C107.693 183.081 108.151 182.588 108.705 182.588C109.267 182.588 109.717 183.081 109.717 183.686Z" fill="#263238"/>
<path d="M103.965 182.899L104.077 189.305L107.719 188.467L103.965 182.899Z" fill="white"/>
<path d="M99.5095 181.031C98.134 181.031 97.0181 182.164 97.0181 183.565C97.0181 184.965 98.134 186.098 99.5095 186.098H99.968C101.343 186.098 102.459 184.965 102.459 183.565C102.459 182.164 101.343 181.031 99.968 181.031H99.5095ZM96.5164 183.565C96.5164 181.887 97.8572 180.513 99.5095 180.513H99.968C101.62 180.513 102.961 181.879 102.961 183.565C102.961 185.251 101.62 186.617 99.968 186.617H99.5095C97.8572 186.617 96.5164 185.251 96.5164 183.565Z" fill="#263238"/>
<path d="M108.636 181.031C107.261 181.031 106.145 182.164 106.145 183.565C106.145 184.965 107.261 186.098 108.636 186.098H109.094C110.47 186.098 111.586 184.965 111.586 183.565C111.586 182.164 110.47 181.031 109.094 181.031H108.636ZM105.643 183.565C105.643 181.887 106.984 180.513 108.636 180.513H109.094C110.747 180.513 112.088 181.879 112.088 183.565C112.088 185.251 110.747 186.617 109.094 186.617H108.636C106.984 186.617 105.643 185.251 105.643 183.565Z" fill="#263238"/>
<path d="M102.927 182.968C103.203 182.501 103.826 182.181 104.51 182.147C105.098 182.112 105.617 182.311 105.885 182.674L106.292 182.363C105.911 181.853 105.254 181.593 104.484 181.628C103.627 181.671 102.866 182.078 102.494 182.691L102.927 182.959V182.968Z" fill="#263238"/>
<path d="M96.7845 182.942H91.6287V183.452H96.7845V182.942Z" fill="#263238"/>
</g>
<defs>
<clipPath id="clip0_190_263">
<rect width="340" height="364" fill="white"/>
</clipPath>
</defs>
</svg>
