<svg width="503" height="591" viewBox="0 0 503 591" fill="none" xmlns="http://www.w3.org/2000/svg">
<g clip-path="url(#clip0_206_536)">
<path d="M489.252 36.1731H182.535C175.344 36.1731 169.514 42.0013 169.514 49.1907V221.096C169.514 228.285 175.344 234.114 182.535 234.114H489.252C496.443 234.114 502.273 228.285 502.273 221.096V49.1907C502.273 42.0013 496.443 36.1731 489.252 36.1731Z" fill="white"/>
<path d="M169.514 49.1907V54.3396H502.273V49.1907C502.273 42.0056 496.439 36.1731 489.252 36.1731H182.535C175.348 36.1731 169.514 42.0056 169.514 49.1907Z" fill="#407BFF"/>
<path d="M489.252 36.1731H182.535C175.344 36.1731 169.514 42.0013 169.514 49.1907V221.096C169.514 228.285 175.344 234.114 182.535 234.114H489.252C496.443 234.114 502.273 228.285 502.273 221.096V49.1907C502.273 42.0013 496.443 36.1731 489.252 36.1731Z" stroke="#263238" stroke-linecap="round" stroke-linejoin="round"/>
<path d="M169.514 49.1907V54.3396H502.273V49.1907C502.273 42.0056 496.439 36.1731 489.252 36.1731H182.535C175.348 36.1731 169.514 42.0056 169.514 49.1907Z" stroke="#263238" stroke-linecap="round" stroke-linejoin="round"/>
<path d="M464.913 45.2636C464.913 47.0963 466.397 48.5944 468.245 48.5944C470.092 48.5944 471.576 47.1108 471.576 45.2636C471.576 43.431 470.092 41.9329 468.245 41.9329C466.397 41.9329 464.913 43.4164 464.913 45.2636Z" fill="#263238"/>
<path d="M447.528 45.2636C447.528 47.0963 449.012 48.5944 450.86 48.5944C452.707 48.5944 454.191 47.1108 454.191 45.2636C454.191 43.4164 452.707 41.9329 450.86 41.9329C449.012 41.9329 447.528 43.4164 447.528 45.2636Z" fill="#263238"/>
<path d="M433.46 48.5944C435.3 48.5944 436.792 47.1032 436.792 45.2636C436.792 43.4241 435.3 41.9329 433.46 41.9329C431.62 41.9329 430.129 43.4241 430.129 45.2636C430.129 47.1032 431.62 48.5944 433.46 48.5944Z" fill="#263238"/>
<path d="M383.095 124.737L477.177 124.737C480.142 124.737 482.545 122.334 482.545 119.37V74.1206C482.545 71.1564 480.142 68.7535 477.177 68.7535L383.095 68.7535C380.13 68.7535 377.726 71.1564 377.726 74.1206V119.37C377.726 122.334 380.13 124.737 383.095 124.737Z" stroke="#263238" stroke-linecap="round" stroke-linejoin="round"/>
<path d="M476.377 117.697H385.495" stroke="#263238" stroke-linecap="round" stroke-linejoin="round"/>
<path d="M459.08 117.551H469.627V107.006H459.08V117.551Z" fill="#407BFF" stroke="#263238" stroke-miterlimit="10"/>
<path d="M443.644 117.697H454.191V93.1451H443.644V117.697Z" fill="#407BFF" stroke="#263238" stroke-miterlimit="10"/>
<path d="M426.274 117.944H436.821V97.3632H426.274V117.944Z" fill="#407BFF" stroke="#263238" stroke-miterlimit="10"/>
<path d="M408.001 117.246H418.549V76.8839H408.001V117.246Z" fill="#407BFF" stroke="#263238" stroke-miterlimit="10"/>
<path d="M389.729 117.537H400.276V77.175H389.729V117.537Z" fill="#407BFF" stroke="#263238" stroke-miterlimit="10"/>
<path d="M259.407 125.233C274.374 118.813 281.302 101.478 274.881 86.5146C268.46 71.5509 251.122 64.6245 236.154 71.0442C221.187 77.4638 214.26 94.7985 220.681 109.762C227.102 124.726 244.44 131.652 259.407 125.233Z" fill="#407BFF" stroke="#263238" stroke-miterlimit="10"/>
<path d="M257.254 114.104L258.447 116.882L253.908 118.831L252.715 116.053C248.467 116.737 244.612 114.569 242.793 110.337L242.255 109.072L247.158 106.308L247.725 107.617C248.831 110.192 250.809 111.195 252.933 110.279C255.057 109.362 255.799 107.501 254.912 105.421C253.85 102.948 250.62 101.828 246.925 100.723C242.546 99.4283 237.949 97.6393 236.028 93.145C234.108 88.6506 234.923 84.7235 238.21 82.2363L237.018 79.4583L241.556 77.5093L242.749 80.2873C246.852 79.5456 250.358 81.7418 252.293 86.2362L252.686 87.138L247.783 89.9015L247.347 88.8979C246.183 86.178 244.51 85.218 242.648 86.018C240.785 86.818 240.218 88.4324 241.178 90.6578C242.24 93.1304 245.499 94.1776 249.165 95.3558C253.515 96.723 258.141 98.4393 260.062 102.934C261.982 107.428 260.76 111.53 257.268 114.104H257.254Z" fill="#263238"/>
<path d="M485.004 153.346H476.377" stroke="#263238" stroke-linecap="round" stroke-linejoin="round"/>
<path d="M485.004 169.985H476.377" stroke="#263238" stroke-linecap="round" stroke-linejoin="round"/>
<path d="M485.004 186.625H476.377" stroke="#263238" stroke-linecap="round" stroke-linejoin="round"/>
<path d="M485.004 203.264H476.377" stroke="#263238" stroke-linecap="round" stroke-linejoin="round"/>
<path d="M457.406 215.831V209.155" stroke="#263238" stroke-linecap="round" stroke-linejoin="round"/>
<path d="M443.746 215.831V209.155" stroke="#263238" stroke-linecap="round" stroke-linejoin="round"/>
<path d="M430.1 215.831V209.155" stroke="#263238" stroke-linecap="round" stroke-linejoin="round"/>
<path d="M416.454 215.831V209.155" stroke="#263238" stroke-linecap="round" stroke-linejoin="round"/>
<path d="M402.807 215.831V209.155" stroke="#263238" stroke-linecap="round" stroke-linejoin="round"/>
<path d="M389.147 215.831V209.155" stroke="#263238" stroke-linecap="round" stroke-linejoin="round"/>
<path d="M375.5 215.831V209.155" stroke="#263238" stroke-linecap="round" stroke-linejoin="round"/>
<path d="M361.854 215.831V209.155" stroke="#263238" stroke-linecap="round" stroke-linejoin="round"/>
<path d="M348.208 215.831V209.155" stroke="#263238" stroke-linecap="round" stroke-linejoin="round"/>
<path d="M334.548 215.831V209.155" stroke="#263238" stroke-linecap="round" stroke-linejoin="round"/>
<path d="M320.902 215.831V209.155" stroke="#263238" stroke-linecap="round" stroke-linejoin="round"/>
<path d="M307.256 215.831V209.155" stroke="#263238" stroke-linecap="round" stroke-linejoin="round"/>
<path d="M293.609 215.831V209.155" stroke="#263238" stroke-linecap="round" stroke-linejoin="round"/>
<path d="M279.949 215.831V209.155" stroke="#263238" stroke-linecap="round" stroke-linejoin="round"/>
<path d="M266.303 215.831V209.155" stroke="#263238" stroke-linecap="round" stroke-linejoin="round"/>
<path d="M253.166 215.831V209.155" stroke="#263238" stroke-linecap="round" stroke-linejoin="round"/>
<path d="M240.043 215.831V209.155" stroke="#263238" stroke-linecap="round" stroke-linejoin="round"/>
<path d="M226.906 215.831V209.155" stroke="#263238" stroke-linecap="round" stroke-linejoin="round"/>
<path d="M192.166 143.15V207.817C192.166 212.238 196.676 215.831 202.248 215.831H474.922C478.618 215.831 481.862 214.245 483.608 211.875C484.495 210.682 485.004 209.3 485.004 207.817V143.15C485.004 138.729 480.494 135.136 474.922 135.136H202.248C196.676 135.136 192.166 138.729 192.166 143.15Z" stroke="#407BFF" stroke-linecap="round" stroke-linejoin="round"/>
<path d="M275.148 17.9048L362.189 135.122L395.475 179.949L431.831 156.793L476.319 215.816H476.959C479.898 215.816 482.487 214.231 483.869 211.86L433.868 145.521L397.541 168.647L372.649 135.107L281.913 12.9014L275.162 17.9048H275.148Z" fill="#263238"/>
<path d="M297.247 19.4028L265.241 0L274.101 33.5404L279.731 18.021L297.247 19.4028Z" fill="#263238"/>
<path d="M244.073 191.832C244.073 216.892 226.601 237.881 203.15 243.277C203.091 243.291 203.048 243.291 202.99 243.32C201.608 243.626 200.211 243.902 198.8 244.106C196.341 244.455 193.81 244.644 191.249 244.644C162.066 244.644 138.411 220.994 138.411 191.832C138.411 162.669 161.033 140.067 189.314 139.063C189.794 139.019 190.289 139.019 190.798 139.019C190.958 139.005 191.104 139.005 191.264 139.005C191.438 139.005 191.628 139.005 191.802 139.019C199.149 139.078 206.147 140.648 212.489 143.47C231.082 151.63 244.073 170.218 244.073 191.832Z" fill="#407BFF"/>
<path opacity="0.4" d="M212.475 143.456C151.475 140.285 151.184 207.991 151.184 207.991C151.184 207.991 141.873 185.898 157.076 161.419C165.572 147.732 180.367 141.696 191.788 139.02C199.134 139.078 206.132 140.649 212.475 143.47V143.456Z" fill="white"/>
<path d="M244.073 191.832C244.073 216.951 226.514 237.982 202.99 243.32C199.222 244.193 195.294 244.644 191.249 244.644C162.066 244.644 138.411 220.994 138.411 191.832C138.411 162.669 161.033 140.067 189.314 139.063C189.955 139.019 190.609 139.005 191.264 139.005C220.433 139.005 244.088 162.655 244.088 191.832H244.073Z" stroke="#263238" stroke-linecap="round" stroke-linejoin="round"/>
<path d="M244.073 191.832C244.073 216.951 226.514 237.982 202.99 243.32C202.349 243.364 201.695 243.379 201.04 243.379C171.857 243.379 148.216 219.729 148.216 190.552C148.216 165.433 165.776 144.401 189.3 139.063C189.94 139.019 190.595 139.005 191.249 139.005C220.418 139.005 244.073 162.655 244.073 191.832Z" stroke="#263238" stroke-linecap="round" stroke-linejoin="round"/>
<path d="M209.449 224.878L210.817 230.463L201.68 232.703L200.313 227.117C192.137 227.088 185.561 221.809 183.481 213.285L182.855 210.755L192.922 207.104L193.563 209.736C194.828 214.914 198.232 217.401 202.495 216.354C206.758 215.307 208.751 212.02 207.732 207.86C206.51 202.886 200.807 199.773 194.203 196.559C186.39 192.777 178.331 187.977 176.119 178.945C173.952 170.116 176.672 162.786 183.626 159.149L182.259 153.564L191.38 151.324L192.748 156.91C200.677 156.793 206.583 162.015 208.794 171.033L209.245 172.851L199.178 176.501L198.683 174.48C197.345 168.996 194.508 166.684 190.755 167.6C187.001 168.516 185.445 171.382 186.536 175.832C187.758 180.807 193.548 183.788 200.066 187.134C207.805 191.046 215.937 195.715 218.149 204.748C220.258 213.373 216.781 221.096 209.42 224.848L209.449 224.878Z" stroke="#263238" stroke-miterlimit="10"/>
<path opacity="0.3" d="M209.449 224.878L210.817 230.463L201.68 232.703L200.313 227.117C192.137 227.088 185.561 221.809 183.481 213.285L182.855 210.755L192.922 207.104L193.563 209.736C194.828 214.914 198.232 217.401 202.495 216.354C206.758 215.307 208.751 212.02 207.732 207.86C206.51 202.886 200.807 199.773 194.203 196.559C186.39 192.777 178.331 187.977 176.119 178.945C173.952 170.116 176.672 162.786 183.626 159.149L182.259 153.564L191.38 151.324L192.748 156.91C200.677 156.793 206.583 162.015 208.794 171.033L209.245 172.851L199.178 176.501L198.683 174.48C197.345 168.996 194.508 166.684 190.755 167.6C187.001 168.516 185.445 171.382 186.536 175.832C187.758 180.807 193.548 183.788 200.066 187.134C207.805 191.046 215.937 195.715 218.149 204.748C220.258 213.373 216.781 221.096 209.42 224.848L209.449 224.878Z" fill="black"/>
<path d="M164.248 237.226L175.406 236.717" stroke="#263238" stroke-linecap="round" stroke-linejoin="round"/>
<path d="M158.88 233.517L168.613 232.703" stroke="#263238" stroke-linecap="round" stroke-linejoin="round"/>
<path d="M154.515 229.605L164.248 228.776" stroke="#263238" stroke-linecap="round" stroke-linejoin="round"/>
<path d="M153.177 155.193H161.513" stroke="#263238" stroke-linecap="round" stroke-linejoin="round"/>
<path d="M157.294 151.353L165.601 150.975" stroke="#263238" stroke-linecap="round" stroke-linejoin="round"/>
<path d="M162.488 147.499L171.26 146.685" stroke="#263238" stroke-linecap="round" stroke-linejoin="round"/>
<path opacity="0.3" d="M203.15 243.276C203.15 243.276 203.048 243.291 202.99 243.32C199.222 244.193 195.294 244.644 191.249 244.644C162.066 244.644 138.411 220.994 138.411 191.831C138.411 162.669 161.033 140.066 189.314 139.063C189.794 139.019 190.289 139.019 190.798 139.019C177.923 143.077 156.319 153.448 150.544 175.09C142.339 205.809 160.786 240.702 203.15 243.276Z" fill="black"/>
<path opacity="0.1" d="M244.073 191.832C244.073 216.893 226.601 237.881 203.15 243.277C203.091 243.291 203.048 243.291 202.99 243.32C201.608 243.626 200.211 243.902 198.8 244.106L212.49 143.47C231.082 151.63 244.073 170.218 244.073 191.832Z" fill="black"/>
<path d="M160.626 108.679C151.853 121.086 135.836 125.362 122.35 119.777C122.291 119.762 122.219 119.718 122.16 119.704C121.157 119.282 120.153 118.802 119.178 118.264C118.116 117.682 117.098 117.057 116.094 116.344C101.677 106.163 98.2434 86.2217 108.427 71.8078C118.232 57.9465 137.029 54.2522 151.271 63.0663C151.518 63.1972 151.751 63.3572 151.984 63.5027C152.304 63.6917 152.639 63.9245 152.959 64.1572C153.453 64.5063 153.933 64.8699 154.399 65.248C167.565 75.6767 170.431 94.774 160.596 108.664L160.626 108.679Z" fill="#407BFF"/>
<path opacity="0.4" d="M112.413 109.115C112.413 109.115 107.176 93.7414 114.13 82.4255C122.844 68.2297 136.229 61.7718 154.428 65.2626C154.428 65.2626 144.565 58.6011 128.053 63.3281C111.54 68.0552 102.681 90.7597 112.413 109.115Z" fill="white"/>
<path d="M160.625 108.693C151.853 121.1 135.835 125.362 122.364 119.791C120.196 118.904 118.101 117.755 116.094 116.344C101.677 106.162 98.2577 86.2214 108.427 71.822C118.392 57.7281 137.683 54.1501 151.998 63.5169C152.318 63.7206 152.653 63.9387 152.973 64.1715C167.376 74.3528 170.809 94.2938 160.611 108.708L160.625 108.693Z" stroke="#263238" stroke-linecap="round" stroke-linejoin="round"/>
<path d="M160.626 108.693C151.853 121.1 135.836 125.362 122.364 119.791C122.044 119.588 121.71 119.369 121.39 119.137C106.972 108.955 103.554 89.0143 113.752 74.6004C122.524 62.1936 138.542 57.932 152.013 63.5027C152.333 63.7063 152.668 63.9245 152.988 64.1572C167.391 74.3385 170.824 94.2795 160.626 108.693Z" stroke="#263238" stroke-linecap="round" stroke-linejoin="round"/>
<path d="M131.98 112.941L130.715 116.169L125.419 114.09L126.685 110.861C122.655 107.981 121.258 103.094 123.193 98.1485L123.775 96.6794L130.031 98.3957L129.434 99.9229C128.256 102.919 129.071 105.348 131.529 106.308C134.003 107.283 136.127 106.352 137.072 103.937C138.207 101.057 136.476 97.523 134.337 93.625C131.806 89.0288 129.493 83.8509 131.558 78.6147C133.566 73.495 137.479 70.8333 142.179 71.4587L143.444 68.2297L148.74 70.3096L147.474 73.5386C151.431 76.2439 152.522 80.8837 150.471 86.1199L150.049 87.1816L143.793 85.4654L144.259 84.2872C145.51 81.1165 144.914 78.9784 142.746 78.1202C140.578 77.2621 138.803 78.1202 137.785 80.7237C136.65 83.6036 138.469 87.0944 140.52 91.036C142.979 95.6613 145.365 100.81 143.299 106.046C141.335 111.035 136.912 113.653 131.966 112.926L131.98 112.941Z" stroke="#263238" stroke-miterlimit="10"/>
<path opacity="0.3" d="M131.98 112.941L130.715 116.169L125.419 114.09L126.685 110.861C122.655 107.981 121.258 103.094 123.193 98.1485L123.775 96.6794L130.031 98.3957L129.434 99.9229C128.256 102.919 129.071 105.348 131.529 106.308C134.003 107.283 136.127 106.352 137.072 103.937C138.207 101.057 136.476 97.523 134.337 93.625C131.806 89.0288 129.493 83.8509 131.558 78.6147C133.566 73.495 137.479 70.8333 142.179 71.4587L143.444 68.2297L148.74 70.3096L147.474 73.5386C151.431 76.2439 152.522 80.8837 150.471 86.1199L150.049 87.1816L143.793 85.4654L144.259 84.2872C145.51 81.1165 144.914 78.9784 142.746 78.1202C140.578 77.2621 138.803 78.1202 137.785 80.7237C136.65 83.6036 138.469 87.0944 140.52 91.036C142.979 95.6613 145.365 100.81 143.299 106.046C141.335 111.035 136.912 113.653 131.966 112.926L131.98 112.941Z" fill="black"/>
<path opacity="0.3" d="M151.286 63.0663C142.513 61.51 131.5 60.6373 125.536 64.4772C114.581 71.5023 107.772 80.3601 107.86 94.7159C107.962 109.072 121.375 119.137 121.375 119.137L122.16 119.718C120.066 118.831 118.029 117.711 116.094 116.344C101.677 106.163 98.2434 86.2217 108.427 71.8078C118.232 57.9465 137.029 54.2522 151.271 63.0663H151.286Z" fill="black"/>
<path opacity="0.1" d="M160.625 108.679C151.853 121.086 135.836 125.362 122.349 119.777C122.291 119.762 122.219 119.719 122.16 119.704C121.157 119.282 120.153 118.802 119.178 118.264L154.428 65.2627C167.594 75.6913 170.46 94.7887 160.625 108.679Z" fill="black"/>
<path d="M124.895 518.276C138.512 534.45 154.515 548.616 172.671 559.51C178.36 562.914 184.164 565.939 190.114 568.615C231.446 587.189 278.552 588.396 322.618 577.72C415.232 555.278 464.389 473.536 470.616 382.805C472.304 358.268 476.057 331.797 466.121 308.467C456.272 285.34 436.093 270.665 413.369 260.57C396.872 253.24 379.05 248.295 362.858 244.28C333.384 236.964 302.818 240.31 275.454 253.298C256.41 262.33 242.837 277.966 226.819 291.231C225.117 292.627 223.415 294.024 221.698 295.405C205.521 308.423 188.485 320.393 170.751 331.2C143.822 347.621 116.254 363.111 99.058 390.688C71.6349 434.628 94.7954 482.495 124.91 518.276H124.895Z" fill="#407BFF"/>
<path opacity="0.4" d="M124.895 518.276C138.512 534.45 154.515 548.616 172.671 559.51C178.36 562.914 184.164 565.939 190.114 568.615C231.446 587.189 278.552 588.396 322.618 577.72C415.232 555.278 464.389 473.536 470.616 382.805C472.304 358.268 476.057 331.797 466.121 308.467C456.272 285.34 436.093 270.665 413.369 260.57C396.872 253.24 379.05 248.295 362.858 244.28C333.384 236.964 302.818 240.31 275.454 253.298C256.41 262.33 242.837 277.966 226.819 291.231C225.117 292.627 223.415 294.024 221.698 295.405C205.521 308.423 188.485 320.393 170.751 331.2C143.822 347.621 116.254 363.111 99.058 390.688C71.6349 434.628 94.7954 482.495 124.91 518.276H124.895Z" fill="white"/>
<path d="M221.698 295.405C223.415 294.024 225.117 292.627 226.819 291.231C242.837 277.966 256.41 262.33 275.453 253.298C302.833 240.31 333.398 236.964 362.873 244.28C401.382 253.836 449.143 268.541 466.135 308.467C476.071 331.797 472.318 358.268 470.63 382.791C464.389 473.536 415.26 555.278 322.633 577.721C272.224 589.938 217.858 586.593 172.671 559.51C154.515 548.631 138.512 534.45 124.91 518.276C94.7953 482.495 71.6202 434.643 99.0434 390.688C116.254 363.112 143.808 347.621 170.751 331.2C188.485 320.393 205.521 308.423 221.698 295.391V295.405Z" stroke="#263238" stroke-miterlimit="10"/>
<path d="M362.073 457.217C369.71 459.573 377.406 462.525 384.433 466.205" stroke="#263238" stroke-linecap="round" stroke-linejoin="round"/>
<path d="M314.806 448.242C314.806 448.242 329.951 449.275 348.339 453.537" stroke="#263238" stroke-linecap="round" stroke-linejoin="round"/>
<path d="M324.684 445.901C324.684 445.901 368.154 420.622 420.629 440.883" stroke="#263238" stroke-linecap="round" stroke-linejoin="round"/>
<path opacity="0.1" d="M124.895 518.276C138.512 534.45 154.515 548.616 172.671 559.51C178.36 562.914 184.164 565.939 190.114 568.615C194.843 567.161 199.483 565.474 204.037 563.51C231.184 551.86 253.966 532.195 276.225 512.778C289.652 501.084 303.299 489.215 319.36 481.55C340.833 471.296 366.117 469.216 388.972 475.834C377.174 462.424 360.589 453.304 342.942 450.511C354.421 440.068 370.423 435.676 385.961 435.385C401.498 435.079 410.052 437.014 425.226 440.417C420.163 431.079 406.677 422.629 396.043 422.876C406.677 422.629 418.81 421.916 426.274 420.738C440.007 418.527 446.132 402.383 448.183 388.667C453.857 350.865 448.11 310.576 427.466 278.432C423.146 271.697 418.432 265.792 413.34 260.57C396.843 253.24 379.021 248.295 362.829 244.28C333.355 236.964 302.789 240.31 275.424 253.298C256.381 262.33 242.808 277.966 226.79 291.231C225.088 292.627 223.386 294.024 221.669 295.405C205.492 308.423 188.456 320.393 170.722 331.2C143.793 347.621 116.225 363.112 99.0289 390.688C71.6058 434.628 94.7663 482.495 124.881 518.276H124.895Z" fill="black"/>
<path d="M109.794 517.199C109.794 517.199 97.5741 527.483 84.248 536.035C66.9504 537.199 74.7045 558.114 74.7045 558.114L89.5145 567.626C89.5145 567.626 114.814 547.525 128.62 540.995C142.426 534.464 109.809 517.214 109.809 517.214L109.794 517.199Z" fill="white"/>
<path opacity="0.3" d="M232.653 297.107C232.653 297.107 235.024 273.646 238.807 267.057L296.243 255.32V250.869C296.243 250.869 294.919 243.131 307.721 238.288C320.523 233.444 347.205 239.742 354.071 244.949C360.953 250.156 358.436 259.116 358.436 259.116C358.436 259.116 381.582 270.839 391.984 275.304C402.385 279.77 416.832 288.395 416.832 288.395C416.832 288.395 421.531 342.312 420.614 354.836C419.698 367.359 421.356 379.14 420.294 386.078C419.218 393.016 418.374 396.957 411.085 402.863C403.797 408.768 397.206 417.48 378.119 408.84L380.782 406.731L255.173 364.508L232.638 297.107H232.653Z" fill="black"/>
<path d="M232.653 297.107C232.653 297.107 235.024 273.646 238.807 267.057L296.243 255.32V250.869C296.243 250.869 294.919 243.131 307.721 238.288C320.523 233.444 347.205 239.742 354.071 244.949C360.953 250.156 358.436 259.116 358.436 259.116C358.436 259.116 381.582 270.839 391.984 275.304C402.385 279.77 416.832 288.395 416.832 288.395C416.832 288.395 421.531 342.312 420.614 354.836C419.698 367.359 421.356 379.14 420.294 386.078C419.218 393.016 418.374 396.957 411.085 402.863C403.797 408.768 397.206 417.48 378.119 408.84L380.782 406.731L255.173 364.508L232.638 297.107H232.653Z" fill="#407BFF"/>
<path opacity="0.05" d="M232.653 297.107C232.653 297.107 235.024 273.646 238.807 267.057L296.243 255.32V250.869C296.243 250.869 294.919 243.131 307.721 238.288C320.523 233.444 347.205 239.742 354.071 244.949C360.953 250.156 358.436 259.116 358.436 259.116C358.436 259.116 381.582 270.839 391.984 275.304C402.385 279.77 416.832 288.395 416.832 288.395C416.832 288.395 421.531 342.312 420.614 354.836C419.698 367.359 421.356 379.14 420.294 386.078C419.218 393.016 418.374 396.957 411.085 402.863C403.797 408.768 397.206 417.48 378.119 408.84L380.782 406.731L255.173 364.508L232.638 297.107H232.653Z" fill="black"/>
<path opacity="0.1" d="M238.05 269.894H262.084C266.754 269.894 270.74 273.268 271.496 277.879L283.339 349.207C283.339 349.207 299.647 350.559 311.198 358.995C322.749 367.431 351.162 307.332 396.057 307.303C396.057 307.303 383.139 336.829 380.273 360.392C380.273 360.392 408.336 357.337 412.991 368.319C417.647 379.3 410.867 399.881 399.01 391.925C387.154 383.969 376.024 370.631 368.023 378.994C360.022 387.358 324.67 391.925 324.67 391.925L270.158 364.551L249.02 354.617L238.036 269.937L238.05 269.894Z" fill="black"/>
<path opacity="0.4" d="M314.355 234.579C314.355 234.579 300.709 238.361 298.498 242.942C296.286 247.509 296.519 259.116 296.519 259.116C296.519 259.116 300.244 269.414 311.198 279.304L321.382 259.116L320.465 282.024C320.465 282.024 339.785 278.81 347.976 272.628L356.166 266.447C356.166 266.447 359.687 254.854 359.192 250.884C358.698 246.913 343.902 238.928 343.902 238.928L314.326 234.579H314.355Z" fill="white"/>
<path d="M87.0703 587.596C87.4486 586.753 81.4693 576.208 86.1392 565.459C90.8237 554.71 98.2869 558.856 98.2869 558.856C98.2869 558.856 119.542 545.329 128.474 541.067C137.407 536.791 147.023 530.042 147.023 530.042L156.465 542.755L147.736 569.75L87.0558 587.611L87.0703 587.596Z" fill="#407BFF"/>
<path d="M99.0724 558.201L71.7802 574.884C71.7802 574.884 52.5913 562.579 43.4406 554.071C34.2753 545.576 13.8061 527.497 13.8061 527.497L0.741943 509.883C0.741943 509.883 9.81995 498.655 24.95 507.673C44.5026 519.338 68.3469 536.195 84.2625 536.035C84.2625 536.035 81.1201 555.569 99.087 558.201" fill="#407BFF"/>
<path d="M318.996 164.066C318.996 164.066 306.601 182.799 304.361 188.864C302.106 194.93 300.287 203.904 300.753 208.224C301.218 212.543 305.728 235.684 308.07 236.353L310.267 238.841L308.856 248.644C308.856 248.644 318.545 265.399 347.03 253.124C347.03 253.124 348.136 233.561 351.598 227.437C355.061 221.299 360.24 228.601 365.419 210.871C370.598 193.141 354.071 174.581 354.071 174.581L318.981 164.066H318.996Z" fill="white"/>
<path opacity="0.5" d="M12.5259 504.4C12.5259 504.4 26.5502 506.829 31.1038 515.134C35.6573 523.439 44.4007 538.886 47.3831 546.347C50.3655 553.809 75.0536 571.83 75.0536 571.83L71.7802 574.87C71.7802 574.87 51.7039 562.463 39.5853 550.667C27.4813 538.871 0.741943 509.2 0.741943 509.2C0.741943 509.2 2.64774 507.294 12.5404 504.4H12.5259Z" fill="white"/>
<path opacity="0.5" d="M153.002 538.071L156.465 542.74L145.787 564.877L87.0559 585.982L84.3354 577.386C84.3354 577.386 83.4334 568.63 104.048 562.041C124.663 555.438 137.232 551.031 143.095 546.478C148.958 541.911 153.002 538.1 153.002 538.1V538.071Z" fill="white"/>
<path d="M346.885 373.657C346.885 373.657 364.866 370.951 373.26 385.671C381.655 400.375 380.796 406.746 380.796 406.746C380.796 406.746 368.925 417.538 352.588 416.986C336.25 416.433 312.435 397.612 304.681 391.518C296.927 385.423 277.374 367.984 264.033 371.591L262.564 358.981C262.564 358.981 263.859 353.323 275.279 354.85C286.699 356.377 291.166 362.879 294.832 362.879C298.498 362.879 301.989 359.344 309.423 371.969C309.423 371.969 335.363 376.566 346.885 373.671V373.657Z" fill="white"/>
<path d="M323.506 191.003C323.128 193.359 322.589 195.686 321.876 197.97C321.527 199.075 321.134 200.195 320.349 201.038C318.981 202.551 316.77 202.871 314.748 203.177C314.413 203.22 314.05 203.293 313.846 203.555C313.657 203.787 313.628 204.122 313.628 204.427C313.628 206.696 314.326 208.965 315.592 210.856" stroke="#263238" stroke-linecap="round" stroke-linejoin="round"/>
<path opacity="0.1" d="M140.927 523.047L153.002 538.071C153.002 538.071 139.764 550.304 126.045 554.827C112.341 559.365 88.3507 567.946 84.3354 574.521L85.8775 566.623C85.8775 566.623 123.382 543.613 132.01 538.115C140.637 532.617 140.913 523.047 140.913 523.047H140.927Z" fill="black"/>
<path opacity="0.1" d="M99.0726 558.201L75.0537 571.844C75.0537 571.844 63.2261 563.757 57.3778 557.736C51.5294 551.714 44.4009 545.14 39.9928 531.73C33.8972 513.214 16.4395 504.4 16.4395 504.4C16.4395 504.4 40.7202 515.818 53.3625 524.806C66.0048 533.781 78.327 537.519 85.4847 536.908C85.4847 536.908 79.7382 555.103 99.0871 558.201H99.0726Z" fill="black"/>
<path d="M331.987 214.158C331.987 214.158 322.546 221.561 312.74 218.783C312.74 218.783 321.993 237.11 331.987 214.158Z" fill="white" stroke="#263238" stroke-linecap="round" stroke-linejoin="round"/>
<path d="M332.278 198.159C332.002 200.195 332.613 201.955 333.646 202.1C334.679 202.231 335.726 200.704 336.003 198.653C336.279 196.617 335.668 194.857 334.635 194.712C333.602 194.581 332.555 196.108 332.278 198.159Z" fill="#263238"/>
<path d="M311.78 194.464C311.504 196.5 312.115 198.26 313.148 198.406C314.181 198.537 315.228 197.01 315.504 194.959C315.781 192.922 315.17 191.163 314.137 191.017C313.104 190.886 312.056 192.413 311.78 194.464Z" fill="#263238"/>
<path d="M333.762 189.519C333.762 189.519 339.261 186.683 343.189 192.763" stroke="#263238" stroke-linecap="round" stroke-linejoin="round"/>
<path d="M319.68 185.737C319.68 185.737 313.875 180.748 310.5 185.737" stroke="#263238" stroke-linecap="round" stroke-linejoin="round"/>
<path d="M352.457 208.238C352.457 208.238 355.992 203.017 359.702 203.177C363.411 203.351 364.924 208.573 363.571 213.62C362.218 218.667 356.661 225.75 352.442 225.081C348.223 224.412 346.375 221.707 346.375 221.707" stroke="#263238" stroke-linecap="round" stroke-linejoin="round"/>
<path d="M318.574 168.298C314.588 171.585 310.398 175.192 308.318 180.05C306.543 184.181 306.135 188.748 304.521 192.952C302.789 197.417 300.884 202.1 300.738 206.973C300.607 211.409 301.611 216.02 302.498 220.339C303.255 224.078 303.851 227.932 305.19 231.524C307.139 236.746 310.776 239.96 315.635 242.433C319.171 244.237 325.063 246.826 328.889 244.382C331.115 242.957 334.461 238.768 337.239 234.942" stroke="#263238" stroke-linecap="round" stroke-linejoin="round"/>
<path d="M352.456 225.096C352.456 225.096 346.201 240.426 347.728 251.218" stroke="#263238" stroke-linecap="round" stroke-linejoin="round"/>
<path d="M354.071 205.664C352.398 204.457 351.438 202.318 351.642 200.268C351.875 197.911 353.519 195.73 353.184 193.388C353.024 192.239 352.398 191.206 351.933 190.144C350.216 186.261 350.492 181.548 352.689 177.912C352.689 177.912 332.817 178.843 323.506 172.923C314.195 167.004 307.11 151.862 312.726 144.634C318.356 137.39 329.325 147.266 337.443 148.357C345.561 149.448 374.511 154.059 379.123 165.244C383.735 176.429 376.708 180.385 376.49 191.017C376.272 201.649 376.286 221.794 360.371 219.947C360.371 219.947 366.321 212.253 362.189 204.326C359.381 200.951 354.057 205.678 354.057 205.678L354.071 205.664Z" fill="#263238"/>
<path d="M315.097 157.186C315.097 157.186 306.921 162.64 305.582 174.654C304.695 182.625 290.554 198.115 300.738 206.944C300.738 206.944 303.109 197.562 304.52 192.923C305.917 188.297 307.692 179.861 310.049 176.909C312.391 173.956 324.815 163.877 324.815 163.877L315.097 157.186Z" fill="#263238"/>
<path d="M350.623 250.884C350.623 250.884 340.818 257.327 322.604 257.603L320.48 282.024C320.48 282.024 340.949 280.468 356.195 266.461C356.195 266.461 360.312 255.567 359.221 250.898C358.13 246.215 348.383 241.575 348.383 241.575" stroke="#263238" stroke-linecap="round" stroke-linejoin="round"/>
<path d="M309.423 239.946L308.841 248.644C315.461 255.422 322.604 257.603 322.604 257.603L311.198 279.304C311.198 279.304 297.61 268.716 296.243 257.589C296.243 257.589 296.126 246.186 298.498 242.942C300.854 239.684 309.51 238.157 309.51 238.157" stroke="#263238" stroke-linecap="round" stroke-linejoin="round"/>
<path opacity="0.8" d="M364.619 172.458C363.149 168.807 359.178 166.698 355.293 166.044C351.409 165.389 347.423 165.869 343.495 165.767C338.098 165.622 332.642 164.327 328.074 161.433C323.506 158.538 319.898 153.971 318.763 148.692" stroke="white" stroke-linecap="round" stroke-linejoin="round"/>
<path opacity="0.8" d="M374.017 171.745C371.544 164.269 363.586 159.673 355.744 159.004C351.86 158.669 347.932 159.135 344.062 158.684C340.192 158.233 336.163 156.633 334.14 153.302" stroke="white" stroke-linecap="round" stroke-linejoin="round"/>
<path d="M378.134 408.84C397.017 418.644 403.768 408.564 414.3 400.215C424.833 391.867 417.937 376.987 420.105 353.017C422.287 329.062 416.832 288.395 416.832 288.395C416.832 288.395 412.118 287.304 399.039 279.304C385.961 271.305 358.436 259.116 358.436 259.116" stroke="#263238" stroke-linecap="round" stroke-linejoin="round"/>
<path d="M359.396 372.638C359.396 372.638 362.393 363.141 370.874 362.879C379.341 362.617 392.697 366.442 402.196 384.449" stroke="#263238" stroke-linecap="round" stroke-linejoin="round"/>
<path d="M372.809 362.312C373.333 362.312 373.842 362.123 374.337 361.948C381.262 359.446 388.958 359.097 396.072 360.973" stroke="#263238" stroke-linecap="round" stroke-linejoin="round"/>
<path d="M400.931 301.369C385.539 318.386 378.018 340.902 370.904 362.719" stroke="#263238" stroke-linecap="round" stroke-linejoin="round"/>
<path d="M296.243 255.32C296.243 255.32 268.311 261.981 254.664 263.567C241.018 265.152 238.807 267.058 238.807 267.058L236.276 276.57" stroke="#263238" stroke-linecap="round" stroke-linejoin="round"/>
<path d="M166.081 271.915L261.211 275.566L268.994 373.38H252.686L170.082 354.894L159.694 274.272L166.081 271.915Z" fill="white"/>
<path d="M264.033 376.289L160 276.57L170.082 354.894L264.033 376.289Z" fill="#407BFF"/>
<path opacity="0.7" d="M264.033 376.289L160 276.57L170.082 354.894L264.033 376.289Z" fill="white"/>
<path d="M264.033 373.657L255.726 279.304L159.694 274.272L170.082 354.894L264.033 373.657Z" stroke="#263238" stroke-linecap="round" stroke-linejoin="round"/>
<path d="M200.167 319.972C200.822 325.717 203.892 330.08 207.019 329.731C210.162 329.382 212.169 324.437 211.529 318.692C210.889 312.946 207.805 308.583 204.677 308.932C201.535 309.281 199.527 314.226 200.167 319.972Z" fill="#263238"/>
<path d="M170.082 354.894C170.082 354.894 126.117 353.643 112.369 362.719C98.6214 371.795 90.5618 417.306 92.453 441.479C94.3443 465.653 110.944 521.127 110.944 521.127L142.717 485.099C142.717 485.099 158.37 428.214 149.831 405.932C149.831 405.932 192.035 408.302 208.634 403.081C208.634 403.081 223.517 378.718 249.034 370.66L170.096 354.894H170.082Z" fill="#263238"/>
<path d="M104.237 522.072C117.665 509.913 130.613 493.186 134.468 487.237C149.845 463.485 171.1 440.636 192.966 422.905C210.598 408.608 214.584 385.336 236.319 373.671C272.311 354.37 303.444 392.725 315.082 400.492C326.721 408.244 346.885 417 346.885 417C346.885 417 339.538 444.577 317.919 447.908C296.301 451.239 274.421 436.272 264.033 443.486C253.631 450.671 246.037 482.83 211.878 501.666C183.961 517.054 145.917 532.079 126.292 542.187C121.898 544.456 118.669 546.842 116.196 548.194C109.416 551.889 102.171 556.252 95.3336 560.543L71.7803 574.884C71.7803 574.884 48.1397 560.907 39.0616 548.02C37.8396 546.289 35.3373 541.678 32.9805 537.228C27.8305 527.512 21.3712 518.785 12.3368 513.927C6.11024 510.582 0.552871 509.549 0.741996 509.214C1.33847 508.109 12.6278 502.335 20.2946 505.491C36.5303 512.182 68.9725 537.955 84.248 536.05C84.248 536.05 95.3773 530.115 104.252 522.087L104.237 522.072Z" stroke="#263238" stroke-miterlimit="10"/>
<path d="M104.237 522.072C118.392 527.788 124.095 536.602 126.277 542.173C145.903 532.064 183.946 517.039 211.864 501.651C246.023 482.801 253.617 450.657 264.019 443.472C274.421 436.257 296.301 451.224 317.905 447.893C339.509 444.563 346.855 416.971 346.855 416.971C346.855 416.971 326.692 408.23 315.053 400.477C303.415 392.725 276.574 354.341 236.29 373.656C214.046 384.318 210.569 408.608 192.937 422.891C171.071 440.621 149.816 463.471 134.439 487.223C130.598 493.171 117.68 509.942 104.208 522.057L104.237 522.072Z" fill="#263238"/>
<path d="M210.613 398.761C210.613 398.761 221.509 376.624 238.982 372.333" stroke="white" stroke-linecap="round" stroke-linejoin="round"/>
<path d="M267.728 354.69C279.745 352.072 292.94 365.351 298.498 362.864C302.629 361.017 309.423 371.955 309.423 371.955C309.423 371.955 327.012 374.675 343.204 373.657C359.396 372.638 367.063 375.78 372.795 384.449L380.796 405.626C380.796 405.626 359.701 424.563 337.152 413.524C314.602 402.499 284.662 369.308 264.033 369.424" stroke="#263238" stroke-linecap="round" stroke-linejoin="round"/>
<path d="M99.9891 557.634C99.9891 557.634 80.2473 559.263 84.8881 535.686" stroke="#263238" stroke-miterlimit="10"/>
<path d="M7.01226 521.127C8.51071 524.094 26.5649 539.424 42.1459 552.878C42.1022 552.674 37.8396 544.457 35.9629 540.951C31.8313 533.213 21.1239 511.992 0.727484 509.2C-2.16758 510.945 7.01226 521.127 7.01226 521.127Z" fill="#263238"/>
<path d="M14.7664 504.56C35.381 508.676 40.0509 535.075 47.3832 546.362C54.7008 557.649 75.0536 572.892 75.0536 572.892" stroke="#263238" stroke-miterlimit="10"/>
<path d="M86.1392 566.128C82.7932 572.281 84.3789 579.393 86.1392 583.858C87.6231 587.611 89.3689 590.214 89.3689 590.214C118.552 585.415 147.736 569.75 147.736 569.75L155.257 546.478L156.45 542.755L145.117 527.497" stroke="#263238" stroke-miterlimit="10"/>
<path d="M86.1394 583.858C87.6233 587.611 89.3691 590.214 89.3691 590.214C118.553 585.415 147.736 569.75 147.736 569.75L155.257 546.478C151.489 551.394 144.506 558.594 134.032 561.561C119.818 565.576 93.588 570.303 86.1394 583.873V583.858Z" fill="#263238"/>
<path d="M268.994 369.977L261.211 275.566L166.081 271.915L159.694 274.272" stroke="#263238" stroke-linecap="round" stroke-linejoin="round"/>
<path d="M85.0773 546.347C85.0773 546.347 72.0713 548.66 62.0768 540.515C52.0823 532.37 35.9775 513.941 35.9775 513.941" stroke="#263238" stroke-miterlimit="10"/>
<path d="M71.7803 534.595C71.7803 534.595 74.9227 539.322 71.7803 548.82" stroke="#263238" stroke-linecap="round" stroke-linejoin="round"/>
<path d="M62.5568 530.101C62.5568 530.101 65.0736 537.169 61.3784 544.326" stroke="#263238" stroke-linecap="round" stroke-linejoin="round"/>
<path d="M51.5586 523.73C51.5586 523.73 54.1918 531.628 51.5586 538.595" stroke="#263238" stroke-linecap="round" stroke-linejoin="round"/>
<path d="M142.557 525.519L153.002 538.071C153.002 538.071 142.484 549.547 127.674 554.303C112.864 559.074 86.3575 567.175 84.1753 575.801" stroke="#263238" stroke-miterlimit="10"/>
</g>
<defs>
<clipPath id="clip0_206_536">
<rect width="503" height="591" fill="white"/>
</clipPath>
</defs>
</svg>
