<svg width="563" height="516" viewBox="0 0 563 516" fill="none" xmlns="http://www.w3.org/2000/svg">
<g clip-path="url(#clip0_206_163)">
<path d="M643 467.669H-71V468.026H643V467.669Z" fill="#EBEBEB"/>
<path d="M267.45 403.971H-8.29656C-12.7948 403.971 -16.4504 400.315 -16.4504 395.816V8.15511C-16.4504 3.65623 -12.7948 0 -8.29656 0H267.45C271.948 0 275.604 3.65623 275.604 8.15511V395.816C275.604 400.315 271.948 403.971 267.45 403.971ZM-8.29656 0.357054C-12.5948 0.357054 -16.0934 3.85618 -16.0934 8.15511V395.816C-16.0934 400.115 -12.5948 403.614 -8.29656 403.614H267.45C271.748 403.614 275.247 400.115 275.247 395.816V8.15511C275.247 3.85618 271.748 0.357054 267.45 0.357054H-8.29656Z" fill="#EBEBEB"/>
<path d="M576.327 403.971H300.58C296.082 403.971 292.426 400.315 292.426 395.816V8.15511C292.426 3.65623 296.082 0 300.58 0H576.327C580.825 0 584.481 3.65623 584.481 8.15511V395.816C584.481 400.315 580.825 403.971 576.327 403.971ZM300.58 0.357054C296.282 0.357054 292.783 3.85618 292.783 8.15511V395.816C292.783 400.115 296.282 403.614 300.58 403.614H576.327C580.625 403.614 584.124 400.115 584.124 395.816V8.15511C584.124 3.85618 580.625 0.357054 576.327 0.357054H300.58Z" fill="#EBEBEB"/>
<path d="M571.457 481.266H526.375V481.623H571.457V481.266Z" fill="#EBEBEB"/>
<path d="M407.865 477.395H360.156V477.752H407.865V477.395Z" fill="#EBEBEB"/>
<path d="M584.481 494.534H495.331V494.891H584.481V494.534Z" fill="#EBEBEB"/>
<path d="M31.3733 492.134H3.91284V492.491H31.3733V492.134Z" fill="#EBEBEB"/>
<path d="M87.3508 492.134H44.0967V492.491H87.3508V492.134Z" fill="#EBEBEB"/>
<path d="M277.632 486.093H199.72V486.45H277.632V486.093Z" fill="#EBEBEB"/>
<path d="M463.986 467.655V219.488H401.782V467.655H463.986Z" fill="#F0F0F0"/>
<path d="M460.573 281.473V226.743H405.195V281.473H460.573Z" fill="#F5F5F5"/>
<path d="M445.151 226.015H420.632C420.632 229.143 423.174 231.685 426.301 231.685H439.467C442.594 231.685 445.136 229.143 445.136 226.015H445.151Z" fill="#E6E6E6"/>
<path d="M460.573 341.115V286.386H405.195V341.115H460.573Z" fill="#F5F5F5"/>
<path d="M460.573 400.771V346.042H405.195V400.771H460.573Z" fill="#F5F5F5"/>
<path d="M460.573 460.414V405.685H405.195V460.414H460.573Z" fill="#F5F5F5"/>
<path d="M445.151 285.672H420.632C420.632 288.799 423.174 291.342 426.301 291.342H439.467C442.594 291.342 445.136 288.799 445.136 285.672H445.151Z" fill="#E6E6E6"/>
<path d="M445.151 345.314H420.632C420.632 348.442 423.174 350.984 426.301 350.984H439.467C442.594 350.984 445.136 348.442 445.136 345.314H445.151Z" fill="#E6E6E6"/>
<path d="M445.151 404.956H420.632C420.632 408.084 423.174 410.626 426.301 410.626H439.467C442.594 410.626 445.136 408.084 445.136 404.956H445.151Z" fill="#E6E6E6"/>
<path d="M495.059 467.669V219.502H463.986V467.669H495.059Z" fill="#F5F5F5"/>
<path d="M531.802 467.669V219.502H469.598V467.669H531.802Z" fill="#F0F0F0"/>
<path d="M528.389 281.472V226.743H473.011V281.472H528.389Z" fill="#F5F5F5"/>
<path d="M512.966 226.015H488.448C488.448 229.143 490.989 231.685 494.117 231.685H507.283C510.41 231.685 512.952 229.143 512.952 226.015H512.966Z" fill="#E6E6E6"/>
<path d="M528.389 341.115V286.385H473.011V341.115H528.389Z" fill="#F5F5F5"/>
<path d="M528.389 400.757V346.028H473.011V400.757H528.389Z" fill="#F5F5F5"/>
<path d="M528.403 460.414V405.684H473.025V460.414H528.403Z" fill="#F5F5F5"/>
<path d="M512.966 285.671H488.448C488.448 288.799 490.989 291.341 494.117 291.341H507.283C510.41 291.341 512.952 288.799 512.952 285.671H512.966Z" fill="#E6E6E6"/>
<path d="M512.966 345.314H488.448C488.448 348.442 490.989 350.984 494.117 350.984H507.283C510.41 350.984 512.952 348.442 512.952 345.314H512.966Z" fill="#E6E6E6"/>
<path d="M512.966 404.956H488.448C488.448 408.084 490.989 410.626 494.117 410.626H507.283C510.41 410.626 512.952 408.084 512.952 404.956H512.966Z" fill="#E6E6E6"/>
<path d="M562.875 467.669V219.502H531.801V467.669H562.875Z" fill="#F5F5F5"/>
<path d="M523.991 169.943H505.826V219.502H523.991V169.943Z" fill="#E0E0E0"/>
<path d="M448.792 219.502H518.079L528.389 139.294H459.102L448.792 219.502Z" fill="#E6E6E6"/>
<path d="M440.881 219.502H516.308L526.632 139.294H451.191L440.881 219.502Z" fill="#F0F0F0"/>
<path d="M510.81 213.175L519.492 145.621H456.703L448.007 213.175H510.81Z" fill="white"/>
<path d="M494.784 191.171C502.176 184.238 503.227 173.347 497.131 166.845C491.035 160.343 480.1 160.693 472.708 167.627C465.315 174.56 464.264 185.451 470.36 191.953C476.456 198.455 487.391 198.105 494.784 191.171Z" fill="#E6E6E6"/>
<path d="M186.611 467.655H380.391L380.391 58.0569H186.611L186.611 467.655Z" fill="#E6E6E6"/>
<path d="M182.299 467.655H376.078L376.078 58.0569H182.299L182.299 467.655Z" fill="#F5F5F5"/>
<path d="M368.353 458.985V66.7546L190.038 66.7546L190.038 458.985H368.353Z" fill="white"/>
<path d="M193.294 458.971L193.294 66.7405H190.038L190.038 458.971H193.294Z" fill="#E6E6E6"/>
<path d="M185.512 193.966L372.894 193.966V182.312L185.512 182.312V193.966Z" fill="#F5F5F5"/>
<path d="M121.937 456.558H148.941L148.941 281.416H121.937L121.937 456.558Z" fill="#F0F0F0"/>
<path d="M10.5675 467.655H143.757V456.558H10.5675V467.655Z" fill="#F0F0F0"/>
<path d="M121.937 281.43H5.38379V456.572H121.937V281.43Z" fill="#F5F5F5"/>
<path d="M111.313 302.982H15.9939V360.425H111.313V302.982Z" fill="#F0F0F0"/>
<path d="M111.313 377.563H15.9939V435.006H111.313V377.563Z" fill="#F0F0F0"/>
<path d="M35.3147 341.815V321.591C35.3147 319.809 33.8698 318.364 32.0874 318.364H30.6594C28.877 318.364 27.4322 319.809 27.4322 321.591V341.815C27.4322 343.597 28.877 345.043 30.6594 345.043H32.0874C33.8698 345.043 35.3147 343.597 35.3147 341.815Z" fill="#F5F5F5"/>
<path d="M35.3289 416.411V396.187C35.3289 394.404 33.8839 392.959 32.1016 392.959H30.6736C28.8912 392.959 27.4463 394.404 27.4463 396.187V416.411C27.4463 418.193 28.8912 419.638 30.6736 419.638H32.1016C33.8839 419.638 35.3289 418.193 35.3289 416.411Z" fill="#F5F5F5"/>
<path d="M121.394 182.497C118.367 184.011 110.156 182.383 112.898 187.939C114.183 190.553 116.282 193.338 118.51 196.094C121.566 199.865 120.995 203.949 117.382 205.435C116.511 205.792 115.797 206.249 115.383 206.82C113.726 209.205 117.653 212.404 119.567 214.789C121.423 217.089 122.266 219.531 120.852 221.302C119.281 223.259 115.997 222.545 113.398 223.13C107.143 224.558 113.569 233.185 112.912 237.627C112.455 240.669 109.999 241.511 106.643 241.94C103.916 242.283 100.274 242.54 100.117 245.339C99.9887 247.753 103.145 250.509 103.959 253.051C104.758 255.522 104.487 257.922 103.359 259.764C102.345 261.406 100.66 262.506 98.4465 262.977C95.3477 263.634 90.6639 262.949 90.4354 266.448C90.3354 268.005 91.4207 269.39 90.6639 270.833C90.0213 272.047 88.579 272.661 87.0225 272.975C84.5377 273.475 80.9392 273.346 78.0832 272.818C74.4418 272.147 69.0725 268.947 71.0431 265.848C71.6001 264.977 72.6568 264.477 73.8563 264.234C74.7274 264.063 77.2692 264.334 77.5976 263.749C77.9261 263.163 77.0407 260.878 77.0122 260.05C76.8979 257.679 77.3263 255.436 78.0689 253.38C79.0828 250.581 80.6679 248.067 82.767 245.939C83.6238 245.068 85.009 244.425 85.1803 243.154C85.3517 241.94 84.552 240.483 83.6666 239.24C82.2672 237.284 80.1109 235.413 79.3398 233.313C78.1117 230.014 81.082 228.972 83.838 228.229C86.3227 227.558 89.6071 226.686 88.7503 223.659C88.1363 221.474 85.3945 219.688 84.5663 217.56C83.4667 214.704 86.1514 214.589 88.0935 213.575C90.6067 212.247 91.2351 209.891 90.3211 206.891C88.8217 201.95 79.7682 194.994 84.4092 191.781C85.5802 190.967 86.6797 190.695 87.3795 189.467C88.1363 188.153 88.2505 186.525 89.2359 185.34C90.7924 183.454 94.0197 183.14 95.7047 181.383C99.1605 177.799 91.692 171.429 98.5036 169.915C100.06 169.572 101.445 169.244 102.488 168.272C103.116 167.687 103.616 164.873 104.316 164.673C107.443 163.802 113.083 169.872 114.854 171.743C117.01 174.028 124.993 180.727 121.366 182.54L121.394 182.497Z" fill="#E0E0E0"/>
<path d="M67.7731 266.177C69.6295 262.735 77.7405 259.307 72.357 255.322C69.8294 253.451 66.4879 251.894 63.0464 250.466C58.334 248.51 56.649 243.954 59.048 240.197C59.6335 239.283 60.019 238.384 60.0619 237.541C60.2475 234.07 55.0782 233.228 52.1079 231.985C49.2234 230.785 47.1813 228.814 47.4955 226.115C47.8382 223.13 51.1083 221.83 53.0932 219.602C57.8485 214.261 47.5526 209.419 45.7676 204.463C44.5395 201.064 46.2674 198.679 48.9806 196.151C51.2083 194.095 54.2785 191.581 52.9219 188.624C51.7366 186.068 47.4955 185.211 45.3963 183.126C43.3686 181.098 42.3118 178.456 42.3404 175.885C42.3547 173.585 43.2543 171.4 44.9536 169.544C47.3384 166.944 51.8366 164.73 50.1658 161.003C49.4233 159.346 47.724 158.603 47.6097 156.661C47.524 155.019 48.4808 153.49 49.6803 152.205C51.6081 150.148 54.8497 148.049 57.6486 146.821C61.2186 145.235 67.6731 145.192 67.5874 149.577C67.5589 150.805 66.8877 151.991 65.9738 152.976C65.3026 153.705 62.9036 155.004 62.9322 155.804C62.9607 156.618 64.9456 158.389 65.4312 159.218C66.802 161.588 67.616 164.145 68.073 166.716C68.687 170.215 68.6299 173.771 67.9159 177.256C67.6303 178.684 66.7449 180.198 67.2733 181.612C67.7731 182.954 69.2582 183.968 70.7005 184.683C72.9853 185.825 75.8841 186.396 77.6977 188.067C80.5394 190.681 78.4831 193.595 76.4553 196.08C74.6275 198.322 72.1999 201.25 74.5561 203.821C76.2697 205.677 79.6398 205.792 81.5105 207.463C84.0095 209.705 81.6961 211.49 80.5394 213.732C79.04 216.646 79.7397 219.46 82.153 221.959C86.1229 226.087 97.8325 227.6 95.462 233.756C94.8622 235.327 94.0483 236.284 94.0768 237.969C94.1054 239.783 94.8908 241.526 94.648 243.354C94.2768 246.253 91.6064 248.581 91.0638 251.423C89.9356 257.25 99.9316 259.135 94.7337 264.92C93.5485 266.248 92.5061 267.433 92.1062 269.076C91.8635 270.061 92.9345 273.261 92.4061 273.889C90.1213 276.717 81.896 274.017 79.3256 273.189C76.2126 272.189 65.574 270.29 67.8016 266.191L67.7731 266.177Z" fill="#F5F5F5"/>
<path d="M46.9813 258.421C46.9813 258.421 47.9666 281.43 85.623 281.43C123.279 281.43 124.265 258.421 124.265 258.421H46.967H46.9813Z" fill="#F0F0F0"/>
<path d="M376.735 504.246L365.282 504.06L362.641 477.481L374.107 477.652L376.735 504.246Z" fill="white"/>
<path d="M435.712 504.289H424.245L415.305 477.738H426.772L435.712 504.289Z" fill="white"/>
<path d="M422.717 502.96H436.697C437.168 502.96 437.568 503.289 437.668 503.746L439.938 513.929C440.167 514.986 439.339 515.986 438.253 515.971C433.755 515.9 430.471 515.629 424.816 515.629C421.331 515.629 410.821 515.986 406.009 515.986C401.197 515.986 400.568 511.23 402.539 510.801C411.364 508.873 418.033 506.202 420.86 503.66C421.374 503.203 422.031 502.96 422.717 502.96Z" fill="#263238"/>
<path d="M365.382 502.746L377.892 502.946C378.363 502.946 378.763 503.289 378.848 503.746L380.948 513.972C381.162 515.029 380.348 516.014 379.263 515.986C374.75 515.843 368.224 515.471 362.555 515.386C355.915 515.286 350.188 515.557 342.406 515.429C337.708 515.357 336.465 510.573 338.45 510.173C347.447 508.359 354.772 508.259 362.598 503.603C363.455 503.103 364.383 502.732 365.368 502.76L365.382 502.746Z" fill="#263238"/>
<path d="M372.423 162.631C368.738 170.8 364.783 178.498 360.342 186.168C358.128 189.981 355.801 193.766 353.302 197.494C350.846 201.221 348.161 204.892 345.191 208.477L344.048 209.819L343.477 210.49C343.277 210.719 343.149 210.89 342.749 211.304C341.421 212.704 339.593 214.361 336.666 215.275C335.252 215.732 333.624 215.889 332.167 215.746C330.668 215.618 329.397 215.203 328.297 214.746C326.141 213.775 324.699 212.576 323.542 211.476C321.272 209.219 319.815 207.063 318.558 204.92C317.302 202.778 316.259 200.65 315.317 198.55C311.618 190.067 309.248 181.683 307.463 172.914L315.674 170.357C317.43 174.099 319.244 177.97 321.157 181.669C323.057 185.382 324.999 189.039 327.098 192.409C328.126 194.094 329.211 195.723 330.325 197.151C331.425 198.565 332.581 199.879 333.481 200.521C333.909 200.85 334.238 200.921 334.067 200.793C333.952 200.707 333.738 200.621 333.31 200.55C332.91 200.479 332.382 200.55 331.982 200.636C331.125 200.907 330.996 201.121 331.082 200.936L332.681 198.75C337.237 192.323 341.392 185.097 345.319 177.77C349.26 170.472 353.088 162.845 356.658 155.461L372.465 162.659L372.423 162.631Z" fill="white"/>
<path d="M377.192 155.447C380.277 165.959 358.528 194.637 358.528 194.637L336.594 180.512C336.594 180.512 343.049 165.887 351.802 154.733C360.784 143.279 373.808 143.907 377.206 155.447H377.192Z" fill="#407BFF"/>
<path opacity="0.2" d="M377.192 155.447C380.277 165.959 358.528 194.637 358.528 194.637L336.594 180.512C336.594 180.512 343.049 165.887 351.802 154.733C360.784 143.279 373.808 143.907 377.206 155.447H377.192Z" fill="black"/>
<path opacity="0.2" d="M363.812 167.801C359.299 169.729 352.659 180.598 349.203 188.653L358.514 194.637C358.514 194.637 366.896 183.597 372.508 172.7C369.566 169.472 366.196 166.787 363.812 167.801Z" fill="black"/>
<path d="M315.445 174.442L318.258 161.517L305.207 161.417C305.207 161.417 301.722 171.129 308.734 175.656L315.445 174.442Z" fill="white"/>
<path d="M316.773 149.391L306.32 153.162L305.221 161.417L318.258 161.517L316.773 149.391Z" fill="white"/>
<path opacity="0.2" d="M362.655 477.481L364.012 491.192L375.464 491.363L374.122 477.667L362.655 477.481Z" fill="black"/>
<path opacity="0.2" d="M426.787 477.752H415.305L419.918 491.435H431.385L426.787 477.752Z" fill="black"/>
<path d="M428.286 150.805C415.934 194.352 418.433 240.569 417.319 249.923C408.351 249.267 374.579 246.753 356.172 245.382C348.147 180.127 364.197 146.606 364.197 146.606C364.197 146.606 368.124 145.849 373.479 145.292C375.15 145.121 376.964 144.964 378.849 144.864C379.891 144.807 380.948 144.764 382.019 144.75C388.93 144.635 400.226 145.735 408.008 146.692C409.636 146.892 411.293 147.135 412.906 147.406C414.391 147.663 415.862 147.935 417.233 148.206C423.474 149.448 428.286 150.805 428.286 150.805Z" fill="#407BFF"/>
<path opacity="0.2" d="M428.286 150.805C415.934 194.352 418.433 240.569 417.319 249.923C408.351 249.267 374.579 246.753 356.172 245.382C348.147 180.127 364.197 146.606 364.197 146.606C364.197 146.606 368.124 145.849 373.479 145.292C375.15 145.121 376.964 144.964 378.849 144.864C379.891 144.807 380.948 144.764 382.019 144.75C388.93 144.635 400.226 145.735 408.008 146.692C409.636 146.892 411.293 147.135 412.906 147.406C414.391 147.663 415.862 147.935 417.233 148.206C423.474 149.448 428.286 150.805 428.286 150.805Z" fill="black"/>
<path opacity="0.2" d="M415.234 169.486C414.134 173.7 415.391 192.923 419.789 197.665C420.389 191.509 421.189 185.082 422.246 178.513L415.234 169.486Z" fill="black"/>
<path d="M407.608 117.228C405.352 125.469 402.568 140.665 408.008 146.692C403.124 150.877 396.798 155.647 386.845 155.261C376.892 154.876 379.134 148.163 382.019 144.764C391.515 143.236 391.786 136.295 390.644 129.668L407.608 117.228Z" fill="white"/>
<path d="M407.094 144.321C407.094 144.321 402.982 151.105 386.446 155.233C389.187 157.761 390.515 163.759 390.515 163.759C390.515 163.759 412.092 158.546 411.436 146.463C410.307 145.321 407.094 144.321 407.094 144.321Z" fill="#263238"/>
<path d="M380.562 162.245C380.562 162.245 382.733 157.018 386.445 155.233C384.718 153.433 382.119 148.049 383.675 144.078C381.105 143.964 379.834 144.321 379.834 144.321C379.834 144.321 373.294 152.562 380.562 162.245Z" fill="#263238"/>
<path d="M385.731 162.388C385.531 163.516 384.889 164.331 384.275 164.231C383.675 164.131 383.347 163.131 383.532 162.003C383.718 160.874 384.375 160.06 384.989 160.16C385.589 160.26 385.917 161.26 385.731 162.388Z" fill="#263238"/>
<path d="M384.761 168.829C384.661 169.958 384.089 170.843 383.475 170.786C382.861 170.729 382.447 169.772 382.547 168.629C382.647 167.501 383.218 166.616 383.832 166.673C384.446 166.73 384.86 167.687 384.761 168.829Z" fill="#263238"/>
<path opacity="0.2" d="M400.697 122.298L390.658 129.653C390.929 131.224 391.115 132.795 391.115 134.324C394.713 134.067 399.897 130.525 400.554 126.826C400.882 124.983 400.94 123.184 400.697 122.298Z" fill="black"/>
<path d="M384.675 86.0642C375.764 85.8785 373.979 107.402 379.748 111.158C385.517 114.914 401.354 86.4212 384.675 86.0642Z" fill="#263238"/>
<path d="M409.536 104.717C407.994 115.985 407.666 122.669 401.525 128.054C392.272 136.152 378.677 129.925 376.821 118.428C375.15 108.073 377.949 91.3772 389.359 87.6924C400.611 84.0648 411.079 93.4481 409.536 104.717Z" fill="white"/>
<path d="M407.923 115.757C402.182 118.77 395.613 87.5783 410.807 89.2064C429.814 91.2488 419.39 109.744 407.923 115.757Z" fill="#263238"/>
<path d="M382.49 89.1349C382.49 96.1189 405.152 103.06 412.921 100.675C420.689 98.2898 422.631 92.177 418.476 87.821C411.421 80.4371 382.49 75.4383 382.49 89.1349Z" fill="#263238"/>
<path d="M383.404 90.0775C383.404 90.0775 383.918 93.2196 386.674 96.2474C384.646 96.1332 382.633 93.2625 381.99 91.5772C381.348 89.9062 383.404 90.0633 383.404 90.0633V90.0775Z" fill="#263238"/>
<path d="M413.72 117.585C411.921 120.07 409.136 121.484 406.652 121.841C402.896 122.384 401.511 118.899 402.967 115.614C404.281 112.658 407.808 108.816 411.378 109.787C414.891 110.744 415.791 114.743 413.734 117.585H413.72Z" fill="white"/>
<path d="M359.756 488.478L379.163 488.778C379.163 488.778 372.694 412.097 374.436 376.42C374.964 365.566 377.149 350.384 380.019 334.117C383.647 313.622 385.389 305.438 390.058 279.53C393.4 261.049 396.37 248.381 396.37 248.381L356.172 245.396C356.172 245.396 339.121 337.802 339.521 372.793C339.921 409.169 359.756 488.493 359.756 488.493V488.478Z" fill="#263238"/>
<path opacity="0.2" d="M382.219 272.861C374.993 290.856 374.85 333.017 378.177 344.885C378.748 341.372 379.362 337.773 380.005 334.117C383.632 313.608 385.374 305.438 390.058 279.53C390.144 279.016 390.244 278.516 390.33 278.016C387.845 275.831 385.117 273.989 382.219 272.861Z" fill="black"/>
<path d="M377.863 246.996C377.863 246.996 381.419 343.672 384.104 377.149C387.059 413.811 414.534 488.778 414.534 488.778H435.526C435.526 488.778 421.517 420.167 417.219 384.561C412.321 344 417.305 249.938 417.305 249.938L377.849 246.996H377.863Z" fill="#263238"/>
<path d="M412.021 489.235H436.74V481.851L409.108 481.366L412.021 489.235Z" fill="#407BFF"/>
<path d="M357.314 488.893L380.434 489.25L380.548 481.78L354.701 480.98L357.314 488.893Z" fill="#407BFF"/>
<path d="M392.129 106.602C392.058 107.53 391.515 108.23 390.915 108.187C390.315 108.145 389.873 107.359 389.944 106.431C390.015 105.502 390.558 104.803 391.158 104.845C391.758 104.888 392.2 105.674 392.129 106.602Z" fill="#263238"/>
<path d="M381.704 105.831C381.633 106.759 381.09 107.459 380.491 107.416C379.891 107.373 379.448 106.588 379.52 105.659C379.591 104.731 380.134 104.031 380.733 104.074C381.333 104.117 381.776 104.902 381.704 105.831Z" fill="#263238"/>
<path d="M384.989 106.531C384.989 106.531 382.49 111.701 379.991 114.086C381.505 115.728 384.332 115.243 384.332 115.243L384.975 106.531H384.989Z" fill="white"/>
<path d="M388.045 117.999C391.586 117.785 393.4 115.471 393.471 115.371C393.557 115.257 393.543 115.086 393.414 114.986C393.3 114.9 393.129 114.914 393.029 115.043C393.014 115.071 390.901 117.756 386.86 117.456C386.717 117.456 386.574 117.556 386.574 117.714C386.574 117.871 386.674 117.999 386.831 117.999C387.259 118.028 387.659 118.028 388.031 117.999H388.045Z" fill="#263238"/>
<path d="M395.599 103.474C395.685 103.474 395.785 103.446 395.856 103.388C396.113 103.231 396.184 102.889 396.013 102.631C394.385 100.104 391.872 100.075 391.772 100.075C391.472 100.075 391.229 100.318 391.229 100.618C391.229 100.918 391.472 101.16 391.772 101.16C391.858 101.16 393.814 101.218 395.113 103.231C395.228 103.403 395.413 103.488 395.599 103.474Z" fill="#263238"/>
<path d="M377.478 101.903C377.649 101.903 377.82 101.803 377.92 101.632C379.12 99.5609 381.076 99.4181 381.162 99.4181C381.462 99.4038 381.69 99.1467 381.676 98.8468C381.662 98.5469 381.405 98.3184 381.105 98.3327C380.991 98.3327 378.492 98.4898 376.992 101.089C376.835 101.346 376.935 101.675 377.192 101.832C377.292 101.889 377.392 101.917 377.492 101.903H377.478Z" fill="#263238"/>
<path d="M418.918 504.96C419.975 504.96 421.117 504.746 421.917 504.546C422.017 504.517 422.103 504.431 422.117 504.331C422.131 504.217 422.088 504.117 421.988 504.06C421.574 503.803 417.876 501.532 416.605 502.175C416.405 502.275 416.162 502.489 416.134 502.946C416.091 503.56 416.291 504.032 416.691 504.374C417.205 504.817 418.019 504.96 418.904 504.96H418.918ZM421.132 504.16C419.19 504.546 417.69 504.474 417.062 503.96C416.791 503.732 416.662 503.403 416.691 502.975C416.691 502.76 416.791 502.689 416.862 502.661C417.519 502.318 419.632 503.303 421.132 504.174V504.16Z" fill="#407BFF"/>
<path d="M421.86 504.56C421.86 504.56 421.96 504.546 422.003 504.517C422.088 504.46 422.131 504.374 422.131 504.274C422.131 504.132 421.846 500.832 420.518 499.733C420.175 499.447 419.775 499.333 419.361 499.39C418.718 499.476 418.547 499.876 418.504 500.104C418.261 501.375 420.56 503.889 421.746 504.532C421.789 504.56 421.831 504.56 421.874 504.56H421.86ZM419.547 499.918C419.775 499.918 419.975 499.99 420.175 500.161C421.032 500.861 421.389 502.789 421.531 503.746C420.346 502.846 418.89 500.947 419.032 500.204C419.032 500.133 419.075 499.976 419.432 499.933C419.432 499.933 419.518 499.933 419.561 499.933L419.547 499.918Z" fill="#407BFF"/>
<path d="M364.226 504.303C364.326 504.274 364.397 504.189 364.411 504.089C364.426 503.975 364.369 503.86 364.269 503.803C363.755 503.532 359.185 501.118 357.771 501.875C357.5 502.018 357.343 502.275 357.314 502.589C357.271 503.132 357.428 503.575 357.8 503.917C359.042 505.046 362.327 504.646 364.183 504.317C364.183 504.317 364.211 504.317 364.226 504.317V504.303ZM358.128 502.318C358.999 502.032 361.484 503.018 363.283 503.917C360.741 504.303 358.856 504.16 358.171 503.517C357.928 503.289 357.828 503.003 357.857 502.646C357.857 502.503 357.928 502.418 358.028 502.361C358.057 502.346 358.085 502.332 358.128 502.318Z" fill="#407BFF"/>
<path d="M364.226 504.303C364.226 504.303 364.269 504.289 364.297 504.274C364.383 504.217 364.426 504.132 364.412 504.032C364.412 503.903 364.14 500.804 362.698 499.59C362.255 499.219 361.755 499.047 361.199 499.104C360.456 499.161 360.227 499.547 360.17 499.847C359.942 501.147 362.641 503.66 364.012 504.303C364.069 504.332 364.14 504.332 364.212 504.303H364.226ZM360.97 499.69C360.97 499.69 361.127 499.647 361.241 499.633C361.655 499.604 362.012 499.718 362.341 499.99C363.283 500.79 363.669 502.646 363.798 503.546C362.398 502.675 360.57 500.704 360.699 499.918C360.699 499.876 360.727 499.747 360.956 499.676L360.97 499.69Z" fill="#407BFF"/>
<path d="M431.227 157.946C435.226 165.973 438.81 173.999 442.109 182.283C443.78 186.411 445.322 190.581 446.835 194.809C447.578 196.922 448.292 199.05 448.977 201.207L449.492 202.821L450.048 204.678C450.448 205.949 450.691 207.22 450.977 208.491C452.862 218.674 451.748 228.329 449.663 237.369C448.606 241.897 447.235 246.296 445.65 250.58C444.836 252.723 443.965 254.822 443.037 256.907C442.109 259.021 441.166 261.006 440.01 263.149L432.113 259.721C433.212 255.822 434.326 251.623 435.112 247.524C435.968 243.411 436.625 239.283 437.082 235.198C437.482 231.114 437.753 227.058 437.568 223.13C437.468 219.202 436.939 215.403 435.997 211.933C435.726 211.09 435.511 210.219 435.183 209.419C435.012 208.991 434.912 208.648 434.712 208.162L434.098 206.691C433.298 204.735 432.427 202.778 431.599 200.821C429.928 196.894 428.129 192.995 426.372 189.067L415.591 165.602L431.227 158.018V157.946Z" fill="white"/>
<path d="M428.286 150.805C438.739 154.076 449.035 189.553 449.035 189.553L424.844 200.15C424.844 200.15 417.019 183.011 412.521 169.586C407.623 154.961 415.634 146.849 428.3 150.819L428.286 150.805Z" fill="#407BFF"/>
<path opacity="0.2" d="M428.286 150.805C438.739 154.076 449.035 189.553 449.035 189.553L424.844 200.15C424.844 200.15 417.019 183.011 412.521 169.586C407.623 154.961 415.634 146.849 428.3 150.819L428.286 150.805Z" fill="black"/>
<path d="M432.756 257.693L427.115 267.876L440.41 271.332C440.41 271.332 444.437 261.449 439.681 258.321L432.756 257.678V257.693Z" fill="white"/>
<path d="M426.13 279.445L438.339 280.459L440.41 271.347L427.115 267.876L426.13 279.445Z" fill="white"/>
<path opacity="0.19" d="M352.759 334.659H50.6228L71.9286 32.4917H374.065L352.759 334.659Z" fill="#407BFF"/>
<path opacity="0.2" d="M118.695 334.659H75.2415L183.498 32.4917H226.952L118.695 334.659Z" fill="white"/>
<path opacity="0.2" d="M224.239 334.659H128.392L236.648 32.4917H332.481L224.239 334.659Z" fill="white"/>
<path d="M72.7282 84.0932L63.8889 83.4648L67.7874 28.05H123.208V36.9336H76.0555L72.7282 84.0932Z" fill="#407BFF"/>
<path d="M101.902 339.087H45.8533L49.8088 283.072L58.6624 283.686L55.378 330.218H101.902V339.087Z" fill="#407BFF"/>
<path d="M374.864 84.0932L366.025 83.4648L369.295 36.9336H322.771V28.05H378.82L374.864 84.0932Z" fill="#407BFF"/>
<path d="M356.886 339.087H301.479V330.218H348.618L351.945 283.072L360.799 283.686L356.886 339.087Z" fill="#407BFF"/>
<g opacity="0.3">
<path d="M206.389 290.099C206.132 290.099 205.875 290.028 205.632 289.913C205.547 289.87 203.447 288.714 199.92 286.557C198.435 285.657 196.693 284.558 194.737 283.301C188.525 279.259 182.541 275.017 176.929 270.647C175.573 269.59 174.216 268.504 172.817 267.376C167.647 263.149 162.878 258.892 158.637 254.722C157.552 253.651 156.466 252.565 155.395 251.451C151.368 247.267 147.67 242.996 144.442 238.755C143.614 237.683 142.815 236.584 142.029 235.47C139.016 231.242 136.403 226.943 134.275 222.701C133.732 221.63 133.19 220.516 132.69 219.388C130.762 215.132 129.291 210.804 128.306 206.548C128.063 205.534 127.835 204.449 127.621 203.221C127.478 202.421 127.349 201.578 127.235 200.736C126.807 197.465 126.421 194.137 126.064 190.538C125.95 189.467 125.85 188.396 125.75 187.31C125.379 183.083 125.079 178.841 124.85 174.671L124.822 174.242C124.765 173.285 124.708 172.357 124.665 171.414C124.465 167.301 124.322 163.059 124.251 158.803L124.208 155.561C124.165 151.062 124.165 146.82 124.236 142.95C124.236 141.864 124.279 140.779 124.293 139.708C124.393 135.052 124.55 130.81 124.736 127.097V126.854C124.793 125.826 124.85 124.826 124.907 123.84C125.164 119.242 125.464 114.871 125.764 111.229C125.864 109.972 125.95 108.916 126.05 107.973C126.378 104.374 126.621 102.374 126.621 102.374C126.707 101.632 127.321 101.046 128.063 101.003C128.32 100.989 154.667 98.9609 182.741 94.0193C188.425 93.0195 193.966 91.9341 199.178 90.8058C206.875 89.1348 213.929 87.3067 220.126 85.3643C220.441 85.2643 220.769 85.2643 221.083 85.3643C227.009 87.2924 233.792 89.1205 241.261 90.8058C246.316 91.9484 251.7 93.0195 257.24 94.0193C284.601 98.9609 310.662 100.975 310.919 101.003C311.747 101.06 312.39 101.774 312.375 102.603C312.375 102.603 312.332 104.617 312.161 108.216C312.118 109.187 312.061 110.272 311.99 111.472C311.79 115.143 311.461 119.499 311.076 124.083C311.004 124.997 310.919 125.926 310.833 126.868L310.79 127.34C310.447 131.081 310.005 135.323 309.462 139.951C309.334 141.05 309.205 142.122 309.062 143.193C308.577 147.077 307.991 151.319 307.306 155.79L306.806 159.017C306.121 163.316 305.378 167.558 304.607 171.643C304.436 172.557 304.25 173.485 304.064 174.414L303.964 174.899C303.15 179.041 302.251 183.283 301.28 187.51C301.023 188.596 300.766 189.681 300.509 190.767C299.652 194.351 298.795 197.679 297.91 200.95C297.681 201.778 297.438 202.621 297.167 203.435C296.782 204.649 296.41 205.749 296.01 206.763C294.44 210.976 292.369 215.289 289.841 219.545C289.199 220.645 288.513 221.759 287.799 222.844C285.086 227.058 281.873 231.342 278.275 235.57C277.332 236.669 276.39 237.769 275.404 238.84C271.592 243.068 267.308 247.324 262.681 251.509C261.453 252.623 260.225 253.708 258.997 254.779C254.17 258.95 248.801 263.191 243.06 267.405C241.504 268.533 239.99 269.618 238.491 270.661C232.264 275.017 225.696 279.273 218.927 283.286C216.785 284.543 214.886 285.629 213.272 286.543C209.445 288.699 207.189 289.842 207.103 289.899C206.875 290.013 206.632 290.07 206.389 290.07V290.099ZM129.606 104.045C129.506 104.988 129.363 106.416 129.177 108.287C129.091 109.23 129.006 110.258 128.906 111.401C128.592 115.114 128.292 119.442 128.035 124.026C127.978 124.997 127.935 125.983 127.878 127.011V127.254C127.678 130.939 127.535 135.152 127.421 139.779C127.392 140.836 127.364 141.907 127.364 142.993C127.292 146.835 127.292 151.048 127.335 155.518L127.378 158.746C127.464 162.959 127.606 167.172 127.792 171.257C127.835 172.186 127.892 173.114 127.949 174.056L127.978 174.485C128.206 178.627 128.506 182.826 128.877 186.996C128.977 188.067 129.077 189.138 129.191 190.21C129.548 193.78 129.92 197.079 130.348 200.307C130.448 201.093 130.562 201.878 130.705 202.649C130.905 203.82 131.119 204.849 131.362 205.806C132.304 209.876 133.718 214.004 135.56 218.088C136.046 219.174 136.546 220.231 137.074 221.259C139.145 225.372 141.658 229.528 144.585 233.627C145.342 234.699 146.128 235.77 146.927 236.812C150.097 240.968 153.71 245.153 157.651 249.252C158.708 250.352 159.765 251.409 160.836 252.466C165.006 256.564 169.704 260.749 174.802 264.92C176.173 266.019 177.515 267.09 178.857 268.147C184.398 272.446 190.31 276.645 196.436 280.63C198.349 281.858 200.077 282.944 201.562 283.843C203.833 285.243 205.532 286.214 206.418 286.728C207.374 286.229 209.217 285.243 211.73 283.829C213.329 282.929 215.214 281.844 217.328 280.616C224.011 276.631 230.522 272.432 236.677 268.119C238.162 267.076 239.661 266.005 241.189 264.891C246.873 260.721 252.171 256.536 256.926 252.423C258.14 251.366 259.354 250.295 260.567 249.209C265.108 245.096 269.321 240.911 273.062 236.755C274.033 235.698 274.962 234.627 275.876 233.556C279.388 229.428 282.516 225.272 285.158 221.159C285.843 220.102 286.514 219.031 287.128 217.974C289.556 213.861 291.555 209.719 293.069 205.663C293.454 204.692 293.811 203.649 294.168 202.492C294.425 201.707 294.654 200.921 294.868 200.121C295.753 196.894 296.596 193.594 297.453 190.024C297.724 188.938 297.967 187.867 298.224 186.796C299.181 182.611 300.08 178.398 300.88 174.285L300.98 173.785C301.165 172.871 301.337 171.957 301.508 171.043C302.279 166.987 303.008 162.774 303.693 158.517L304.179 155.29C304.85 150.848 305.435 146.635 305.921 142.764C306.064 141.693 306.178 140.622 306.306 139.579C306.849 134.952 307.306 130.739 307.634 127.025L307.677 126.554C307.763 125.611 307.849 124.697 307.92 123.798C308.305 119.256 308.62 114.928 308.834 111.286C308.905 110.101 308.962 109.03 309.005 108.073C309.091 106.33 309.148 104.959 309.177 104.017C303.236 103.517 280.445 101.403 256.669 97.1185C251.071 96.1045 245.659 95.019 240.561 93.8765C233.207 92.2197 226.481 90.4202 220.583 88.5206C214.4 90.4345 207.432 92.234 199.849 93.8907C194.58 95.0333 189.01 96.133 183.284 97.1328C158.623 101.475 135.275 103.574 129.606 104.045Z" fill="#407BFF"/>
<path d="M228.455 166.92C236.166 159.474 236.791 147.61 229.851 140.42C222.911 133.23 211.034 133.436 203.323 140.882C195.612 148.327 194.987 160.191 201.927 167.381C208.867 174.571 220.744 174.365 228.455 166.92Z" fill="#407BFF"/>
<path d="M219.998 160.446H215.414H210.845L197.907 220.802H224.425L219.998 160.446Z" fill="#407BFF"/>
<g opacity="0.2">
<path d="M256.969 95.5761H183.013C188.496 94.6192 194.051 93.5338 199.52 92.3484H240.918C246.216 93.5338 251.628 94.6192 256.969 95.5761Z" fill="#407BFF"/>
<path d="M310.419 111.386H127.349C127.449 110.201 127.535 109.116 127.635 108.159H310.605C310.562 109.116 310.505 110.201 310.433 111.386H310.419Z" fill="#407BFF"/>
<path d="M309.505 123.94C309.419 124.997 309.32 126.068 309.22 127.182H126.321C126.378 126.068 126.421 124.983 126.493 123.94H309.519H309.505Z" fill="#407BFF"/>
<path d="M307.891 139.751C307.763 140.822 307.634 141.893 307.492 142.979H125.807C125.807 141.893 125.85 140.808 125.864 139.751H307.877H307.891Z" fill="#407BFF"/>
<path d="M305.749 155.547C305.578 156.618 305.421 157.689 305.25 158.775H125.821C125.821 157.689 125.793 156.618 125.779 155.547H305.735H305.749Z" fill="#407BFF"/>
<path d="M303.065 171.343C302.865 172.414 302.651 173.5 302.437 174.585H126.436C126.378 173.5 126.307 172.414 126.264 171.343H303.079H303.065Z" fill="#407BFF"/>
<path d="M299.752 187.153C299.495 188.224 299.252 189.31 298.981 190.381H127.649C127.535 189.31 127.435 188.224 127.335 187.153H299.766H299.752Z" fill="#407BFF"/>
<path d="M295.668 202.964C295.325 204.049 294.954 205.135 294.54 206.206H129.848C129.577 205.135 129.363 204.049 129.177 202.964H295.668Z" fill="#407BFF"/>
<path d="M288.485 218.76C287.857 219.845 287.171 220.945 286.486 222.002H135.689C135.146 220.931 134.618 219.845 134.147 218.76H288.499H288.485Z" fill="#407BFF"/>
<path d="M277.075 234.57C276.147 235.656 275.205 236.741 274.233 237.798H145.699C144.871 236.727 144.086 235.656 143.314 234.57H277.075Z" fill="#407BFF"/>
<path d="M261.624 250.366C260.41 251.466 259.182 252.551 257.954 253.608H159.736C158.651 252.537 157.594 251.466 156.523 250.366H261.61H261.624Z" fill="#407BFF"/>
<path d="M242.118 266.162C240.575 267.276 239.076 268.362 237.577 269.404H177.9C176.558 268.347 175.202 267.276 173.816 266.162H242.118Z" fill="#407BFF"/>
<path d="M218.127 281.973C216.014 283.215 214.115 284.301 212.515 285.2H200.749C199.263 284.301 197.536 283.215 195.594 281.973H218.127Z" fill="#407BFF"/>
</g>
</g>
</g>
<defs>
<clipPath id="clip0_206_163">
<rect width="563" height="516" fill="white"/>
</clipPath>
</defs>
</svg>
