<svg width="729" height="648" viewBox="0 0 729 648" fill="none" xmlns="http://www.w3.org/2000/svg">
<g clip-path="url(#clip0_206_310)">
<path d="M647.235 400.945H383.702C378.993 400.945 375.158 397.111 375.158 392.401V8.54377C375.158 3.83449 378.993 0 383.702 0H647.235C651.945 0 655.779 3.83449 655.779 8.54377V392.387C655.779 397.096 651.945 400.93 647.235 400.93V400.945ZM383.702 0.364495C379.197 0.364495 375.522 4.03861 375.522 8.54377V392.387C375.522 396.892 379.197 400.566 383.702 400.566H647.235C651.741 400.566 655.415 396.892 655.415 392.387V8.54377C655.415 4.03861 651.741 0.364495 647.235 0.364495H383.702Z" fill="#E0E0E0"/>
<path d="M343.344 400.945H79.8255C75.1162 400.945 71.2816 397.111 71.2816 392.401V8.54377C71.2816 3.83449 75.1162 0 79.8255 0H343.359C348.068 0 351.903 3.83449 351.903 8.54377V392.387C351.903 397.096 348.068 400.93 343.359 400.93L343.344 400.945ZM79.8255 0.364495C75.3203 0.364495 71.6461 4.03861 71.6461 8.54377V392.387C71.6461 396.892 75.3203 400.566 79.8255 400.566H343.359C347.864 400.566 351.538 396.892 351.538 392.387V8.54377C351.538 4.03861 347.864 0.364495 343.359 0.364495H79.8255Z" fill="#E0E0E0"/>
<path d="M729 489.984H0V490.348H729V489.984Z" fill="#E0E0E0"/>
<path d="M98.7503 510.775H75.3348V511.139H98.7503V510.775Z" fill="#E0E0E0"/>
<path d="M326.417 506.824H248.37V507.188H326.417V506.824Z" fill="#E0E0E0"/>
<path d="M153.061 524.319H100.208V524.684H153.061V524.319Z" fill="#E0E0E0"/>
<path d="M614.605 506.634H551.634V506.999H614.605V506.634Z" fill="#E0E0E0"/>
<path d="M636.825 506.634H627.596V506.999H636.825V506.634Z" fill="#E0E0E0"/>
<path d="M539.606 515.717H461.034V516.082H539.606V515.717Z" fill="#E0E0E0"/>
<path d="M413.576 54.0037H334.217V203.622H413.576V54.0037Z" fill="#E0E0E0"/>
<path d="M409.698 54.0037H316.474V203.622H409.698V54.0037Z" fill="#EBEBEB"/>
<path d="M395.468 67.3005H330.631V190.34H395.468V67.3005Z" fill="white"/>
<path d="M316.474 54.0037C317.625 54.0037 330.645 67.3005 330.645 67.3005H395.483L409.698 54.0037H316.474Z" fill="#E0E0E0"/>
<path d="M409.698 203.622C408.546 203.622 395.526 190.34 395.526 190.34H330.689L316.474 203.622H409.698Z" fill="#E0E0E0"/>
<path d="M375.887 99.3323H352.807V135.796H375.887V99.3323Z" fill="#E0E0E0"/>
<path d="M272.559 23.24H55.1708V488.351H272.559V23.24Z" fill="#F5F5F5"/>
<path d="M124.178 23.7214V488.001C124.178 488.701 125.271 488.701 125.271 488.001V23.7214C125.271 23.0216 124.178 23.0216 124.178 23.7214Z" fill="#E0E0E0"/>
<path d="M201.991 23.9985V489.59C201.991 490.29 203.085 490.29 203.085 489.59V23.9985C203.085 23.2987 201.991 23.2987 201.991 23.9985Z" fill="#E0E0E0"/>
<path d="M56.1914 83.3674H270.692C271.392 83.3674 271.392 82.2739 270.692 82.2739H56.1914C55.4915 82.2739 55.4915 83.3674 56.1914 83.3674Z" fill="#E0E0E0"/>
<path d="M56.1914 141.351H270.692C271.392 141.351 271.392 140.258 270.692 140.258H56.1914C55.4915 140.258 55.4915 141.351 56.1914 141.351Z" fill="#E0E0E0"/>
<path d="M56.1914 199.321H270.692C271.392 199.321 271.392 198.227 270.692 198.227H56.1914C55.4915 198.227 55.4915 199.321 56.1914 199.321Z" fill="#E0E0E0"/>
<path d="M56.1914 257.305H270.692C271.392 257.305 271.392 256.211 270.692 256.211H56.1914C55.4915 256.211 55.4915 257.305 56.1914 257.305Z" fill="#E0E0E0"/>
<path d="M56.1914 315.274H270.692C271.392 315.274 271.392 314.181 270.692 314.181H56.1914C55.4915 314.181 55.4915 315.274 56.1914 315.274Z" fill="#E0E0E0"/>
<path d="M56.1914 373.258H270.692C271.392 373.258 271.392 372.165 270.692 372.165H56.1914C55.4915 372.165 55.4915 373.258 56.1914 373.258Z" fill="#E0E0E0"/>
<path d="M56.1914 431.227H270.692C271.392 431.227 271.392 430.134 270.692 430.134H56.1914C55.4915 430.134 55.4915 431.227 56.1914 431.227Z" fill="#E0E0E0"/>
<path d="M65.7413 488.365L61.6589 29.9176C61.6589 29.9176 272.559 30.7049 272.559 29.8593V23.2546H55.1708V488.365H65.7413Z" fill="#E0E0E0"/>
<path opacity="0.3" d="M272.559 23.24C272.559 23.24 191.8 106.287 179.742 106.797C167.67 107.307 163.879 82.9881 140.42 99.0988C116.961 115.195 55.1853 185.018 55.1853 185.018V222.546C55.1853 222.546 140.041 116.609 153.863 121.275C167.685 125.94 169.041 151.251 188.651 136.904C208.261 122.558 272.573 66.6149 272.573 66.6149V23.24H272.559Z" fill="white"/>
<path opacity="0.3" d="M55.1708 332.828C55.1708 332.828 130.024 246.049 143.773 258.457C157.522 270.864 161.065 331.633 191.756 316.513C222.447 301.38 272.121 264.026 272.121 264.026V304.849C272.121 304.849 205.447 350.995 176.418 340.176C147.389 329.358 145.902 288.651 135.988 294.6C126.088 300.548 55.1708 389.719 55.1708 389.719V332.828Z" fill="white"/>
<path d="M676.614 627.617C676.614 638.873 540.262 648 372.082 648C203.901 648 67.5492 638.873 67.5492 627.617C67.5492 616.362 203.901 607.235 372.082 607.235C540.262 607.235 676.614 616.362 676.614 627.617Z" fill="#F5F5F5"/>
<path d="M645.865 556.949C645.646 557.503 644.917 556.439 645.15 553.217C645.296 551.278 645.705 548.857 646.2 546.977C648.139 539.512 647.177 534.365 649.116 526.9C652.82 512.656 660.241 494.927 672.226 486.397C676.381 483.438 682.986 481.921 685.989 486.047C688.249 489.138 686.995 493.439 685.654 497.026C683.554 502.654 681.469 508.296 679.37 513.924C676.075 522.774 672.75 531.711 667.516 539.585C662.282 547.443 654.905 554.252 645.85 556.949" fill="#407BFF"/>
<g opacity="0.3">
<path d="M645.865 556.949C645.646 557.503 644.917 556.439 645.15 553.217C645.296 551.278 645.705 548.857 646.2 546.977C648.139 539.512 647.177 534.365 649.116 526.9C652.82 512.656 660.241 494.927 672.226 486.397C676.381 483.438 682.986 481.921 685.989 486.047C688.249 489.138 686.995 493.439 685.654 497.026C683.554 502.654 681.469 508.296 679.37 513.924C676.075 522.774 672.75 531.711 667.516 539.585C662.282 547.443 654.905 554.252 645.85 556.949" fill="white"/>
</g>
<path d="M639.144 581.385C640.499 574.605 642.716 568.015 645.311 561.615C647.104 557.168 649.102 552.808 651.245 548.522C653.388 544.235 655.954 539.876 658.112 535.458C661.917 527.658 664.819 519.479 668.056 511.445C669.441 508.005 670.884 504.564 672.648 501.298C673.727 499.286 675.054 497.522 676.366 495.67C679.005 491.952 681.557 488.161 684.152 484.4C684.56 483.817 683.613 483.277 683.204 483.846C680.813 487.301 678.422 490.757 676.031 494.212C674.937 495.787 673.727 497.274 672.721 498.921C670.942 501.881 669.528 505.059 668.187 508.223C664.746 516.388 661.859 524.786 658.141 532.819C654.103 541.524 649.131 549.732 645.369 558.582C642.293 565.843 639.639 573.337 638.079 581.079C637.948 581.764 638.998 582.055 639.129 581.37L639.144 581.385Z" fill="#263238"/>
<path d="M619.533 572.273C623.222 556.002 620.889 538.433 613.06 523.693C605.245 508.952 592.006 497.172 576.464 491.092C573.329 489.867 569.786 488.876 566.681 490.159C563.357 491.53 561.476 495.247 561.33 498.834C561.184 502.421 562.482 505.905 563.969 509.171C568.431 518.983 574.773 527.804 581.057 536.552C587.239 545.14 593.406 553.727 599.588 562.3C601.556 565.026 603.583 567.826 606.382 569.677C609.182 571.529 616.588 573.891 619.519 572.258" fill="#407BFF"/>
<g opacity="0.3">
<path d="M619.533 572.273C623.222 556.002 620.889 538.433 613.06 523.693C605.245 508.952 592.006 497.172 576.464 491.092C573.329 489.867 569.786 488.876 566.681 490.159C563.357 491.53 561.476 495.247 561.33 498.834C561.184 502.421 562.482 505.905 563.969 509.171C568.431 518.983 574.773 527.804 581.057 536.552C587.239 545.14 593.406 553.727 599.588 562.3C601.556 565.026 603.583 567.826 606.382 569.677C609.182 571.529 616.588 573.891 619.519 572.258" fill="white"/>
</g>
<path d="M635.309 528.358C639.129 524.159 642.453 508.734 642.38 506.138C642.103 495.874 643.386 499.038 643.109 488.774C642.57 469.179 636.009 444.32 623.003 429.653C618.498 424.564 610.392 420.613 605.245 425.06C601.396 428.399 601.717 434.362 602.373 439.407C603.408 447.338 604.429 455.284 605.464 463.215C607.082 475.681 608.73 488.293 613.162 500.059C617.594 511.825 625.132 522.862 636.067 529.087" fill="#407BFF"/>
<g opacity="0.3">
<path d="M635.309 528.358C639.129 524.159 642.453 508.734 642.38 506.138C642.103 495.874 643.386 499.038 643.109 488.774C642.57 469.179 636.009 444.32 623.003 429.653C618.498 424.564 610.392 420.613 605.245 425.06C601.396 428.399 601.717 434.362 602.373 439.407C603.408 447.338 604.429 455.284 605.464 463.215C607.082 475.681 608.73 488.293 613.162 500.059C617.594 511.825 625.132 522.862 636.067 529.087" fill="white"/>
</g>
<path d="M634.594 610.53C637.627 601.155 633.632 591.314 628.15 583.689C622.056 575.218 614.357 568.219 609.677 558.743C605.085 549.441 602.868 539.293 599.369 529.568C596.774 522.366 592.458 515.98 587.282 510.396C580.59 503.164 572.338 497.172 562.948 494.023C562.278 493.804 561.986 494.854 562.657 495.072C571.186 497.945 578.739 503.237 585.022 509.609C590.417 515.091 595.214 521.535 597.926 528.781C601.221 537.558 603.248 546.758 606.951 555.404C608.948 560.084 611.369 564.531 614.43 568.598C617.201 572.287 620.321 575.684 623.266 579.227C630.337 587.683 637.219 598.822 633.53 610.253C633.311 610.924 634.376 611.215 634.58 610.545L634.594 610.53Z" fill="#263238"/>
<path d="M642.92 613.49C641.753 599.741 639.654 586.094 638.094 572.404C637.263 565.201 636.607 557.97 636.242 550.738C635.848 543.04 636.038 535.342 635.848 527.629C635.455 512.51 633.632 497.42 630.41 482.65C628.763 475.127 626.765 467.677 624.389 460.343C622.202 453.564 619.869 446.624 616.807 440.179C614.11 434.508 611.077 428.953 608.219 423.354C607.899 422.727 606.951 423.281 607.272 423.908C610.013 429.259 612.739 434.624 615.48 439.975C618.046 445.005 619.883 450.546 621.735 455.867C624.228 463.04 626.357 470.33 628.15 477.708C631.737 492.535 633.895 507.713 634.595 522.949C634.944 530.647 634.711 538.36 634.974 546.073C635.207 553.348 635.761 560.609 636.519 567.855C638.108 583.091 640.558 598.239 641.855 613.504C641.914 614.204 643.007 614.204 642.949 613.504L642.92 613.49Z" fill="#263238"/>
<path d="M606.441 579.008H667.254C667.254 579.008 671.686 590.104 662.821 593.209L657.266 629.615H615.32L610.654 593.88C610.654 593.88 603.772 590.993 606.441 579.008Z" fill="#263238"/>
<path d="M662.238 592.786H610.931C610.231 592.786 610.231 593.88 610.931 593.88H662.238C662.938 593.88 662.938 592.786 662.238 592.786Z" fill="black"/>
<path d="M84.112 552.385C84.3452 552.983 85.118 551.846 84.8701 548.42C84.7243 546.349 84.2724 543.783 83.7621 541.786C81.6917 533.854 82.7269 528.387 80.6565 520.456C76.7199 505.322 68.8467 486.47 56.0892 477.416C51.6715 474.267 44.6585 472.663 41.4509 477.037C39.0598 480.317 40.3865 484.895 41.8008 488.715C44.0315 494.708 46.2477 500.685 48.4784 506.678C51.9776 516.082 55.5206 525.588 61.0756 533.942C66.6306 542.296 74.4746 549.528 84.0974 552.4" fill="#407BFF"/>
<g opacity="0.3">
<path d="M84.112 552.385C84.3452 552.983 85.118 551.846 84.8701 548.42C84.7243 546.349 84.2724 543.783 83.7621 541.786C81.6917 533.854 82.7269 528.387 80.6565 520.456C76.7199 505.322 68.8467 486.47 56.0892 477.416C51.6715 474.267 44.6585 472.663 41.4509 477.037C39.0598 480.317 40.3865 484.895 41.8008 488.715C44.0315 494.708 46.2477 500.685 48.4784 506.678C51.9776 516.082 55.5206 525.588 61.0756 533.942C66.6306 542.296 74.4746 549.528 84.0974 552.4" fill="white"/>
</g>
<path d="M92.3496 578.061C90.8771 570.727 88.4568 563.583 85.6428 556.657C83.8349 552.21 81.852 547.851 79.7234 543.55C77.3322 538.739 74.5912 534.102 72.2292 529.276C68.0448 520.747 64.9101 511.766 61.3234 502.974C59.8946 499.475 58.422 495.991 56.6286 492.652C55.4622 490.494 54.048 488.599 52.6337 486.616C49.8344 482.679 47.1371 478.67 44.396 474.704C44.0024 474.136 43.0547 474.675 43.4483 475.258C45.9561 478.889 48.4638 482.519 50.9716 486.149C52.0359 487.68 53.2169 489.124 54.2084 490.698C56.3079 494.037 57.9263 497.682 59.4426 501.327C62.898 509.579 65.8432 518.035 69.5465 526.186C73.7747 535.517 79.1402 544.25 83.1934 553.668C86.6197 561.614 89.5649 569.852 91.2707 578.352C91.4165 579.037 92.4663 578.746 92.3205 578.061H92.3496Z" fill="#263238"/>
<path d="M112.12 568.671C108.198 551.379 110.691 532.717 118.987 517.044C127.298 501.385 141.353 488.861 157.872 482.402C161.196 481.105 164.973 480.055 168.268 481.411C171.796 482.869 173.808 486.82 173.954 490.625C174.1 494.431 172.729 498.134 171.155 501.618C166.416 512.043 159.68 521.418 152.988 530.72C146.427 539.847 139.866 548.974 133.305 558.086C131.22 560.987 129.062 563.962 126.073 565.93C123.084 567.898 115.226 570.406 112.106 568.671" fill="#407BFF"/>
<g opacity="0.3">
<path d="M112.12 568.671C108.198 551.379 110.691 532.717 118.987 517.044C127.298 501.385 141.353 488.861 157.872 482.402C161.196 481.105 164.973 480.055 168.268 481.411C171.796 482.869 173.808 486.82 173.954 490.625C174.1 494.431 172.729 498.134 171.155 501.618C166.416 512.043 159.68 521.418 152.988 530.72C146.427 539.847 139.866 548.974 133.305 558.086C131.22 560.987 129.062 563.962 126.073 565.93C123.084 567.898 115.226 570.406 112.106 568.671" fill="white"/>
</g>
<path d="M95.3386 522.001C91.2854 517.54 87.757 501.152 87.8299 498.396C88.1361 487.491 86.751 490.844 87.0572 479.938C87.6404 459.118 94.6096 432.685 108.431 417.114C113.228 411.705 121.845 407.506 127.313 412.244C131.41 415.787 131.06 422.129 130.36 427.495C129.266 435.936 128.173 444.364 127.079 452.805C125.359 466.058 123.609 479.457 118.9 491.967C114.191 504.476 106.186 516.213 94.5659 522.818" fill="#407BFF"/>
<g opacity="0.3">
<path d="M95.3386 522.001C91.2854 517.54 87.757 501.152 87.8299 498.396C88.1361 487.491 86.751 490.844 87.0572 479.938C87.6404 459.118 94.6096 432.685 108.431 417.114C113.228 411.705 121.845 407.506 127.313 412.244C131.41 415.787 131.06 422.129 130.36 427.495C129.266 435.936 128.173 444.364 127.079 452.805C125.359 466.058 123.609 479.457 118.9 491.967C114.191 504.476 106.186 516.213 94.5659 522.818" fill="white"/>
</g>
<path d="M97.1902 609.028C93.8077 598.574 98.9253 587.843 105.209 579.62C108.519 575.305 112.251 571.339 115.649 567.096C118.812 563.16 121.524 558.99 123.74 554.456C128.304 545.095 130.695 534.962 134.063 525.165C136.746 517.35 141.018 510.512 146.558 504.374C153.644 496.53 162.465 489.969 172.554 486.587C173.225 486.368 172.933 485.304 172.263 485.537C163.354 488.526 155.437 493.935 148.774 500.496C143.001 506.182 137.825 512.903 134.675 520.412C130.564 530.224 128.566 540.78 124.338 550.577C122.02 555.957 119.104 560.987 115.474 565.595C112.076 569.896 108.315 573.891 104.932 578.221C98.1817 586.852 92.5392 598.21 96.1405 609.334C96.3592 610.005 97.4089 609.713 97.1902 609.043V609.028Z" fill="#263238"/>
<path d="M88.384 612.483C89.6087 598.049 91.7957 583.732 93.4578 569.342C94.318 561.848 95.0324 554.354 95.4407 546.816C95.8781 538.666 95.7177 530.53 95.8927 522.38C96.2426 506.109 98.1526 489.882 101.608 473.975C103.314 466.102 105.399 458.316 107.848 450.647C110.298 442.979 112.66 435.747 116.013 428.807C118.914 422.8 122.093 416.895 125.126 410.961C125.446 410.334 124.499 409.78 124.178 410.407C121.262 416.122 118.331 421.852 115.415 427.568C112.762 432.773 110.852 438.502 108.927 443.999C106.186 451.799 103.853 459.745 101.9 467.779C98.1526 483.263 95.8635 499.096 95.0616 515.003C94.6388 523.386 94.8866 531.77 94.6242 540.153C94.3909 547.866 93.8223 555.564 93.035 563.247C91.3437 579.679 88.6901 595.994 87.2905 612.469C87.2321 613.169 88.3256 613.169 88.384 612.469V612.483Z" fill="#263238"/>
<path d="M126.029 575.83H61.3963C61.3963 575.83 56.6724 587.625 66.1202 590.935L72.0251 629.629H116.611L121.568 591.649C121.568 591.649 128.887 588.587 126.044 575.844L126.029 575.83Z" fill="#263238"/>
<path d="M66.718 591.605H121.247C121.947 591.605 121.947 590.512 121.247 590.512H66.718C66.0182 590.512 66.0182 591.605 66.718 591.605Z" fill="black"/>
<path d="M413.051 107.934C397.159 101.753 379.27 109.64 373.088 125.532C366.906 141.424 374.793 159.314 390.686 165.495C402.962 170.263 416.39 166.633 424.745 157.418L434.017 157.491L430.445 148.364C430.504 148.204 430.591 148.058 430.649 147.898C436.831 132.006 428.944 114.116 413.051 107.934Z" fill="#407BFF"/>
<path d="M366.993 131.175C368.043 121.187 374.444 111.929 383.425 107.439" stroke="#407BFF" stroke-width="0.5" stroke-linecap="round" stroke-linejoin="round"/>
<path d="M387.624 105.514C388.936 104.727 390.423 104.217 391.939 104.027" stroke="#407BFF" stroke-width="0.5" stroke-linecap="round" stroke-linejoin="round"/>
<path d="M400.804 149.385L386.661 138.844L390.336 133.916L399.827 140.972L412.862 125.416L417.586 129.381L400.804 149.385Z" fill="white"/>
<path d="M311.545 256.532C311.545 251.56 310.365 246.661 308.046 242.273L295.391 218.26C292.227 217.866 288.859 217.487 285.724 217.21C275.956 216.554 264.204 216.656 254.436 217.312C249.376 217.939 244.04 219.805 238.558 222.371C237.873 222.969 233.105 228.699 235.423 236.222C247.014 274.742 249.143 294.323 247.845 311.439C269.234 314.21 303.512 319.4 310.117 315.536C301.369 281.172 311.487 271.185 311.531 256.546L311.545 256.532Z" fill="#407BFF"/>
<path opacity="0.8" d="M311.545 256.532C311.545 251.56 310.365 246.661 308.046 242.273L295.391 218.26C292.227 217.866 288.859 217.487 285.724 217.21C275.956 216.554 264.204 216.656 254.436 217.312C249.376 217.939 244.04 219.805 238.558 222.371C237.873 222.969 233.105 228.699 235.423 236.222C247.014 274.742 249.143 294.323 247.845 311.439C269.234 314.21 303.512 319.4 310.117 315.536C301.369 281.172 311.487 271.185 311.531 256.546L311.545 256.532Z" fill="white"/>
<g opacity="0.3">
<path d="M274.177 278.737C281.146 278.022 287.547 273.284 290.273 266.825C290.638 270.514 288.815 274.8 285.127 277.366C281.438 279.932 277.909 279.306 274.162 278.722" fill="black"/>
</g>
<path d="M373.321 324.343C373.321 324.343 372.257 329.14 374.648 329.941C377.039 330.743 377.71 329.941 377.71 329.941C377.71 329.941 376.106 333.411 379.313 333.543C382.521 333.674 383.848 333.543 383.848 333.543C383.848 333.543 382.244 335.803 385.976 336.736C389.709 337.669 403.837 326.34 403.837 326.34L411.433 326.88L409.698 312.621C409.698 312.621 388.907 313.014 386.909 314.224C384.912 315.42 373.321 324.357 373.321 324.357V324.343Z" fill="white"/>
<path d="M366.133 312.621C366.133 312.621 368.67 314.487 371.6 313.554C374.531 312.621 384.387 312.606 388.12 313.816C391.852 315.026 400.513 323.687 400.513 323.687C400.513 323.687 400.381 326.078 395.716 324.751C391.05 323.424 385.583 318.89 385.583 318.89C385.583 318.89 379.722 326.486 376.252 327.288C372.781 328.09 366.118 327.288 366.118 327.288V312.635L366.133 312.621Z" fill="white"/>
<path d="M403.604 330.408C403.604 330.408 405.091 330.306 405.382 329.023C405.674 327.74 400.338 319.925 398.559 320.917C396.78 321.908 399.74 327.638 399.74 327.638C399.74 327.638 394.987 323.06 393.208 324.707C391.429 326.355 397.028 331.385 397.028 331.385C397.028 331.385 391.721 326.355 390.234 328.236C388.747 330.116 392.246 334.461 392.246 334.461L388.688 336.24C388.688 336.24 394.579 340.001 396.357 337.421C398.136 334.855 398.34 334.155 398.34 334.155C398.34 334.155 401.898 334.753 402.598 332.974C403.283 331.195 403.589 330.408 403.589 330.408H403.604Z" fill="white"/>
<path d="M470.992 200.371C470.059 201.26 458.22 202.878 449.56 208.608C449.56 208.608 449.093 196.244 449.56 181.431C450.026 166.618 445.2 145.142 466.414 141.526C466.414 141.526 481.694 130.242 500.502 144.34C519.311 158.439 512.37 200.968 509.148 211.101L470.992 200.356V200.371Z" fill="#263238"/>
<path d="M472.873 151.441C472.873 151.441 459.605 172.844 458.701 179.667C453.832 183.414 450.901 175.191 451.601 164.387C452.17 155.552 457.243 146.221 465.058 143.145C476.037 138.829 472.873 151.441 472.873 151.441Z" fill="#263238"/>
<path d="M490.938 189.042L475.293 197.498L472.086 200.662C472.859 203.009 473.471 205.43 473.631 207.719C473.879 210.708 471.094 212.967 468.951 214.907C465.875 216.437 471.794 230.609 471.794 230.609L492.06 209.629C488.284 200.356 489.232 192.862 490.923 189.027L490.938 189.042Z" fill="white"/>
<path opacity="0.2" d="M473.69 208.608C478.107 206.465 483.079 202.528 482.948 197.542C482.875 195.443 482.598 193.431 482.204 192.118L472.713 202.703C473.252 204.584 473.413 205.809 473.69 208.608Z" fill="black"/>
<path d="M497.615 167.187C494.845 182.758 494.014 189.392 485.208 196.944C471.969 208.302 453.584 202.543 451.674 186.709C449.953 172.465 454.765 149.385 470.73 144.092C486.462 138.873 500.371 151.616 497.615 167.187Z" fill="white"/>
<path d="M476.022 171.692C475.935 173.165 475.031 174.375 473.996 174.404C472.961 174.418 472.188 173.252 472.275 171.765C472.363 170.292 473.267 169.082 474.302 169.053C475.337 169.039 476.11 170.205 476.022 171.692Z" fill="#263238"/>
<path d="M461.107 169.826C461.107 171.254 460.276 172.479 459.241 172.567C458.206 172.654 457.375 171.561 457.375 170.117C457.375 168.688 458.206 167.464 459.241 167.376C460.276 167.289 461.107 168.382 461.107 169.826Z" fill="#263238"/>
<path d="M480.44 166.822C480.236 166.822 480.047 166.749 479.901 166.589C477.699 164.125 474.9 164.65 474.871 164.664C474.462 164.737 474.069 164.475 474.01 164.052C473.952 163.629 474.258 163.221 474.681 163.134C474.827 163.104 478.341 162.434 481.067 165.495C481.344 165.802 481.3 166.297 480.98 166.589C480.819 166.735 480.63 166.808 480.44 166.808V166.822Z" fill="#263238"/>
<path d="M456.223 162.434C456.048 162.361 455.887 162.23 455.815 162.055C455.654 161.676 455.844 161.238 456.252 161.063C460.32 159.343 463.323 161.151 463.454 161.224C463.819 161.442 463.892 161.909 463.644 162.259C463.396 162.609 462.9 162.711 462.55 162.492C462.434 162.419 460.072 161.049 456.85 162.419C456.646 162.507 456.412 162.507 456.223 162.434Z" fill="#263238"/>
<path d="M458.22 148.16C461.88 141.41 475.745 135.636 491.011 143.057C513.872 152.053 500.91 189.217 494.306 181.417C492.512 179.303 491.011 177.203 489.757 175.206C482.233 163.192 471.371 153.613 458.279 148.175H458.235L458.22 148.16Z" fill="#263238"/>
<path d="M501.275 180.381C499.146 183.443 495.968 185.207 493.139 185.674C488.897 186.359 487.322 179.507 489.086 175.453C490.675 171.809 494.976 169.68 498.942 170.832C502.864 171.969 503.695 176.868 501.26 180.367L501.275 180.381Z" fill="white"/>
<path d="M465.641 168.82C465.641 168.82 462.682 174.491 459.605 177.918C459.066 178.515 459.285 179.478 460.014 179.813C461.894 180.688 464.213 180.236 464.213 180.236L465.627 168.82H465.641Z" fill="white"/>
<path d="M474.608 169.024L470.992 168.164C470.992 168.164 472.961 170.861 474.608 169.024Z" fill="#263238"/>
<path d="M459.766 167.42L456.106 166.779C457.797 168.834 459.27 168.047 459.766 167.42Z" fill="#263238"/>
<path opacity="0.2" d="M495.764 174.623C497.12 174.171 498.461 175.118 498.84 176.241C499.307 177.597 498.417 180.659 494.291 181.431" stroke="black" stroke-width="0.5" stroke-linecap="round" stroke-linejoin="round"/>
<path d="M462.536 185.31C463.629 187.103 464.912 190.544 464.912 190.544C465.248 190.486 465.583 190.427 465.904 190.34C470.409 189.407 472.188 187.497 472.8 185.645C473.136 184.639 473.092 183.633 472.961 182.846C472.815 181.927 472.509 181.3 472.509 181.3C470.409 183.21 466.283 184.406 464.052 184.945C463.119 185.179 462.521 185.281 462.521 185.281L462.536 185.31Z" fill="#263238"/>
<path d="M464.067 184.96L464.81 186.491C469.053 185.601 471.911 184.42 472.975 182.86C472.829 181.942 472.523 181.315 472.523 181.315C470.424 183.225 466.298 184.42 464.067 184.96Z" fill="white"/>
<path d="M465.904 190.354C470.409 189.421 472.188 187.511 472.8 185.66C471.284 186.039 469.491 186.651 468.003 187.686C466.866 188.459 466.254 189.436 465.904 190.354Z" fill="white"/>
<path d="M498.126 186.651C498.126 188.794 496.391 190.544 494.233 190.544C492.075 190.544 490.34 188.809 490.34 186.651C490.34 184.493 492.075 182.758 494.233 182.758C496.391 182.758 498.126 184.493 498.126 186.651Z" fill="#407BFF"/>
<g opacity="0.2">
<path d="M465.773 145.711C478.195 157.054 493.067 165.466 509.192 170.263C509.863 170.467 510.154 169.403 509.484 169.213C493.548 164.46 478.836 156.15 466.546 144.938C466.021 144.472 465.248 145.23 465.773 145.711Z" fill="white"/>
</g>
<g opacity="0.2">
<path d="M465.641 145.128C477.087 154.415 490.996 160.218 505.649 161.836C506.349 161.909 506.349 160.815 505.649 160.743C491.317 159.168 477.612 153.438 466.414 144.355C465.875 143.917 465.087 144.69 465.641 145.128Z" fill="white"/>
</g>
<path d="M365.214 458.506L368.116 465.257L458.862 476.935L460.043 469.98L365.214 458.506Z" fill="#407BFF"/>
<path opacity="0.2" d="M365.214 458.506L368.116 465.257L458.862 476.935L460.043 469.98L365.214 458.506Z" fill="black"/>
<path d="M405.455 393.889C405.455 393.889 411.01 380.81 421.202 381.437C431.379 382.064 434.936 397.767 434.936 397.767L429.192 396.907C429.192 396.907 428.783 385.097 421.566 384.762C414.349 384.426 409.596 394.895 409.596 394.895L406.184 393.845" fill="#263238"/>
<path d="M365.214 458.506L366.731 450.298L377.666 390.9L464.621 400.26L460.043 469.981L365.214 458.506Z" fill="#407BFF"/>
<path d="M419.481 365.006C418.315 365.662 412.847 375.46 411.885 378.128C410.923 380.796 411.054 382.414 412.293 383.041C413.533 383.668 414.932 384.266 415.268 384.207C415.603 384.149 414.568 386.919 416.711 387.809C418.854 388.698 419.802 388.261 419.802 388.261C419.802 388.261 419.992 392.008 422.674 392.533C425.357 393.057 426.217 391.701 426.655 391.789C427.107 391.876 428.55 387.225 428.55 387.225L432.297 391.162C432.297 391.162 433.376 389.587 434.236 386.846C435.096 384.105 433.682 377.063 433.682 377.063L431.16 370.998L431.699 361.521C431.699 361.521 420.458 362.09 420.414 362.352C420.385 362.615 419.452 365.02 419.452 365.02L419.481 365.006Z" fill="white"/>
<path opacity="0.2" d="M377.666 390.9C377.666 390.9 389.315 425.396 413.795 423.442C438.275 421.474 464.606 400.26 464.606 400.26" fill="black"/>
<path opacity="0.2" d="M422.893 395.769C422.893 395.769 410.587 446.959 409.567 457.267C408.532 467.56 411.258 470.812 411.258 470.812L436.846 474.763L444.049 397.767L422.893 395.769Z" fill="black"/>
<path d="M524.938 607.045L523.247 609.407L519.894 607.964L517.809 618.315L503.652 638.086C503.652 638.086 498.272 638.946 502.514 627.719C502.704 627.209 502.864 626.641 502.966 626.014C504.22 619.292 501.45 606.404 501.45 606.404L509.221 595.556C509.221 595.556 510.038 595.556 511.408 595.79C514.63 596.329 521.06 597.889 524.953 607.045H524.938Z" fill="#263238"/>
<path opacity="0.2" d="M524.938 607.045L523.247 609.407L519.894 607.964L517.809 618.315L503.652 638.086C503.652 638.086 498.272 638.946 502.514 627.719C502.704 627.209 502.864 626.641 502.966 626.014C504.22 619.292 501.45 606.404 501.45 606.404L509.221 595.556C509.221 595.556 510.038 595.556 511.408 595.79C514.63 596.329 521.06 597.889 524.953 607.045H524.938Z" fill="black"/>
<path d="M511.394 595.79L511.423 595.819C508.813 596.096 511.102 607.687 510.052 614.175C509.105 619.978 506.611 625.445 502.952 626.014C504.206 619.292 499.671 603.984 499.671 603.984L505.912 595.265C505.912 595.265 510.008 595.586 511.394 595.804V595.79Z" fill="white"/>
<path d="M503.272 637.342H500.386L499.584 633.756L490.034 638.101H465.846C465.846 638.101 461.996 634.208 473.515 631.102C474.04 630.956 474.579 630.752 475.148 630.475C481.286 627.574 490.034 617.762 490.034 617.762H503.302C503.302 617.762 503.768 618.432 504.395 619.686C505.839 622.631 508.346 628.813 503.272 637.357V637.342Z" fill="#263238"/>
<path d="M504.395 619.672V619.715C502.646 617.747 494.67 626.393 488.824 629.338C483.604 631.962 477.743 633.114 475.148 630.461C481.286 627.559 491.04 614.219 491.04 614.219L501.698 614.54C501.698 614.54 503.754 618.418 504.381 619.672H504.395Z" fill="white"/>
<path d="M479.084 512.554C472.494 495.772 464.446 479.253 454.75 465.898C494.335 360.851 493.096 313.86 493.096 313.86L445.419 313.831L440.345 331.399C440.345 331.399 428.433 375.139 424.963 400.245L415.02 456.057V456.217C414.349 467.808 417.105 479.326 423.039 489.518C429.512 500.657 440.972 513.881 447.256 525.88C455.523 541.728 463.338 557.605 470.001 571.806C477.028 586.78 482.744 599.872 486.316 608.956C489.698 609.305 499.89 603.648 502.82 598.502C502.82 598.502 495.603 554.689 479.084 512.568V512.554Z" fill="#263238"/>
<path opacity="0.2" d="M464.14 440.019C469.943 420.716 475.775 407.565 478.72 393.233C478.749 389.879 468.31 377.72 462.638 371.946C462.638 371.946 455.829 399.327 464.125 440.019H464.14Z" fill="black"/>
<path opacity="0.2" d="M470.001 571.777C477.028 586.75 482.744 599.843 486.316 608.926C489.698 609.276 499.89 603.619 502.82 598.473C502.82 598.473 495.603 554.66 479.084 512.539C475.731 529.933 471.969 551.919 470.015 571.777H470.001Z" fill="black"/>
<path d="M457.462 314.808C457.462 314.808 475.6 430.848 477.714 456.975C477.714 456.975 488.926 583.703 486.914 615.56L511.918 616.683C511.918 616.683 528.729 520.704 520.229 459.104C519.485 451.071 527.227 398.7 528.452 377.836C531.397 327.638 509.382 313.86 509.382 313.86L457.462 314.822V314.808Z" fill="#263238"/>
<path d="M453.205 220.841C453.205 220.841 443.159 222.488 438.887 233.627C435.971 241.223 425.503 343.049 417.761 362.819L436.015 365.925L460.014 258.603L453.205 220.855V220.841Z" fill="#263238"/>
<path opacity="0.3" d="M453.205 220.841C453.205 220.841 443.159 222.488 438.887 233.627C435.971 241.223 425.503 343.049 417.761 362.819L436.015 365.925L460.014 258.603L453.205 220.855V220.841Z" fill="black"/>
<path d="M502.821 331.56C504.22 315.755 510.592 276.244 520.244 245.816C523.393 235.931 515.272 221.759 515.272 221.759C515.272 221.759 507.69 221.716 506.349 221.57C504.891 221.395 503.389 221.249 501.902 221.118C498.913 220.87 492.367 213.143 490.923 202.674C490.748 201.362 482.277 206.757 472.567 207.486C473.792 211.889 466.793 215.257 465.088 220.214C464.271 220.301 457.448 220.812 456.646 220.899C456.646 220.899 442.168 237.826 441.395 249.782C440.972 256.459 437.75 259.331 438.1 275.311C438.158 286.158 442.139 315.697 442.853 330.948L502.806 331.531L502.821 331.56Z" fill="#407BFF"/>
<g opacity="0.7">
<path d="M502.821 331.56C504.22 315.755 510.592 276.244 520.244 245.816C523.393 235.931 515.272 221.759 515.272 221.759C515.272 221.759 507.69 221.716 506.349 221.57C504.891 221.395 503.389 221.249 501.902 221.118C498.913 220.87 492.367 213.143 490.923 202.674C490.748 201.362 482.277 206.757 472.567 207.486C473.792 211.889 466.793 215.257 465.088 220.214C464.271 220.301 457.448 220.812 456.646 220.899C456.646 220.899 442.168 237.826 441.395 249.782C440.972 256.459 437.75 259.331 438.1 275.311C438.158 286.158 442.139 315.697 442.853 330.948L502.806 331.531L502.821 331.56Z" fill="white"/>
</g>
<path opacity="0.2" d="M472.713 312.621L486.622 375.591C487.147 377.938 489.363 379.513 491.754 379.236L528.729 374.833V368.432L496.245 300.665L472.698 312.635L472.713 312.621Z" fill="black"/>
<path d="M510.475 295.183L523.043 243.133C525.667 221.541 502.835 217.152 502.835 217.152L492.337 215.854C492.337 215.854 477.962 252.625 476.97 285.021C475.979 317.403 495.122 374.002 495.122 374.002L537.054 369.613L510.49 295.169L510.475 295.183Z" fill="#263238"/>
<path opacity="0.3" d="M510.475 295.183L523.043 243.133C525.667 221.541 502.835 217.152 502.835 217.152L492.337 215.854C492.337 215.854 477.962 252.625 476.97 285.021C475.979 317.403 495.122 374.002 495.122 374.002L537.054 369.613L510.49 295.169L510.475 295.183Z" fill="black"/>
<path d="M469.228 215.009C469.228 215.009 450.056 239.445 444.865 257.815C441.453 269.887 448.175 304.689 447.387 313.889C446.09 329.067 439.398 347.627 430.708 374.833L424.963 374.016L440.783 313.816C440.783 313.816 433.464 268.458 435.403 257.101C437.356 245.743 453.19 220.841 453.19 220.841L460.655 218.479L469.199 215.009H469.228Z" fill="#263238"/>
<path opacity="0.3" d="M469.228 215.009C469.228 215.009 450.056 239.445 444.865 257.815C441.453 269.887 448.175 304.689 447.387 313.889C446.09 329.067 439.398 347.627 430.708 374.833L424.963 374.016L440.783 313.816C440.783 313.816 433.464 268.458 435.403 257.101C437.356 245.743 453.19 220.841 453.19 220.841L460.655 218.479L469.199 215.009H469.228Z" fill="black"/>
<path opacity="0.3" d="M427.471 364.467L440.797 313.802L434.936 272.439L434.134 316.907L422.893 363.679L424.963 364.029" fill="black"/>
<path d="M444.369 278.416C444.369 278.416 440.841 268.021 441.483 258.427C442.124 248.834 442.284 241.675 442.284 241.675L453.161 233.627L451.732 223.829C451.732 223.829 456.981 220.607 461.851 217.312C465.175 215.052 471.372 210.635 472.232 210.897C472.232 210.897 444.778 247.084 444.646 261.475C444.515 275.355 444.369 278.416 444.369 278.416Z" fill="#263238"/>
<path d="M503.214 216.102C503.214 216.102 495.443 210.46 492.046 207.704C492.046 207.704 478.166 242.069 478.676 272.439L501.348 240.494L495.647 231.236L503.214 216.102Z" fill="#263238"/>
<path opacity="0.2" d="M424.453 332.201C424.453 332.201 475.308 327.478 480.878 320.829C486.462 314.181 510.388 279.991 511.714 262.699L465.773 312.621L424.963 326.238L424.453 332.201Z" fill="black"/>
<path d="M408.328 309.471L461.647 294.935C461.647 294.935 497.076 225.798 504.687 220.432C512.298 215.053 526.105 227.591 522.679 239.969C520.331 248.426 485.223 312.941 477.553 318.336C469.884 323.73 411.185 329.592 411.185 329.592L408.313 309.486L408.328 309.471Z" fill="#263238"/>
<path opacity="0.3" d="M408.328 309.471L461.647 294.935C461.647 294.935 497.076 225.798 504.687 220.432C512.298 215.053 526.105 227.591 522.679 239.969C520.331 248.426 485.223 312.941 477.553 318.336C469.884 323.73 411.185 329.592 411.185 329.592L408.313 309.486L408.328 309.471Z" fill="black"/>
<path d="M237.887 337.304C225.378 362.119 238.062 386.861 238.062 386.861C231.589 404.473 229.139 428.851 228.25 447.294C227.535 462.574 228.848 467.225 227.856 473.786C226.719 481.236 221.426 491.15 219.254 500.394C213.466 526.856 209.937 553.756 208.684 580.802L208.129 585.905L207.109 603.298L217.169 606.739L221.179 590.293L222.403 585.234L222.535 585.263L257.41 476.264L289.734 338.835L237.916 337.319L237.887 337.304Z" fill="white"/>
<path opacity="0.3" d="M237.887 337.304C225.378 362.119 238.062 386.861 238.062 386.861C231.589 404.473 229.139 428.851 228.25 447.294C227.535 462.574 228.848 467.225 227.856 473.786C226.719 481.236 221.426 491.15 219.254 500.394C213.466 526.856 209.937 553.756 208.684 580.802L208.129 585.905L207.109 603.298L217.169 606.739L221.179 590.293L222.403 585.234L222.535 585.263L257.41 476.264L289.734 338.835L237.916 337.319L237.887 337.304Z" fill="black"/>
<path d="M226.617 630.752C225.334 629.032 223.759 627.559 221.951 626.407C221.951 626.407 217.548 619.074 219.239 600.791L212.052 596.81C209.544 595.484 206.467 595.848 204.339 597.743C204.047 598.006 203.799 598.297 203.595 598.633C202.72 600.382 201.977 602.19 201.35 604.057C199.279 610.37 197.588 616.799 196.291 623.316L197.661 623.71L201.306 611.755C202.502 607.672 204.499 613.329 204.28 617.966C204.062 622.602 204.762 627.924 213.714 630.373C224.124 633.274 228.614 633.974 226.602 630.738L226.617 630.752Z" fill="#263238"/>
<path d="M219.487 594.157C219.487 594.157 219.064 602.599 219.487 612.178C219.429 617.033 220.289 621.859 222.039 626.393C222.039 626.393 214.967 625.868 213.218 620.576C211.468 615.283 211.425 598.764 204.368 597.816C205.199 596.825 206.132 595.921 207.153 595.134C208.727 593.865 219.487 594.157 219.487 594.157Z" fill="white"/>
<path opacity="0.3" d="M219.487 594.157C219.487 594.157 219.064 602.599 219.487 612.178C219.429 617.033 220.289 621.859 222.039 626.393C222.039 626.393 214.967 625.868 213.218 620.576C211.468 615.283 211.425 598.764 204.368 597.816C205.199 596.825 206.132 595.921 207.153 595.134C208.727 593.865 219.487 594.157 219.487 594.157Z" fill="black"/>
<path d="M319.083 586.94H319.156L321.533 472.488L313.266 331.56L263.081 344.959C258.168 372.31 277.384 392.372 277.384 392.372C276.306 411.093 280.927 435.179 285.345 453.097C288.99 467.939 291.6 472.036 292.518 478.597C293.554 485.989 291.308 496.997 291.862 506.474C293.874 533.651 298.205 560.594 304.78 587.042L305.626 591.664L309.606 608.605L320.22 609.043L319.36 592.116L319.098 586.925L319.083 586.94Z" fill="white"/>
<path opacity="0.3" d="M319.083 586.94H319.156L321.533 472.488L313.266 331.56L263.081 344.959C258.168 372.31 277.384 392.372 277.384 392.372C276.306 411.093 280.927 435.179 285.345 453.097C288.99 467.939 291.6 472.036 292.518 478.597C293.554 485.989 291.308 496.997 291.862 506.474C293.874 533.651 298.205 560.594 304.78 587.042L305.626 591.664L309.606 608.605L320.22 609.043L319.36 592.116L319.098 586.925L319.083 586.94Z" fill="black"/>
<path d="M336.142 629.367C334.436 628.07 332.497 627.107 330.427 626.539C330.427 626.539 324.128 620.765 320.468 602.759L312.508 601.009C309.723 600.441 306.88 601.68 305.393 604.115C305.174 604.436 305.014 604.8 304.941 605.194C304.605 607.118 304.401 609.057 304.328 611.011C304.153 617.66 304.372 624.308 304.984 630.927H306.413V618.418C306.413 614.16 309.912 619.016 311.021 623.535C312.114 628.055 314.301 632.852 323.632 632.721C334.509 632.502 339.014 631.831 336.156 629.382L336.142 629.367Z" fill="#263238"/>
<path d="M318.864 596.329C318.864 596.329 320.862 604.552 323.924 613.621C325.236 618.301 327.438 622.69 330.412 626.553C330.412 626.553 323.501 628.07 320.293 623.492C317.086 618.913 312.333 603.094 305.334 604.217C305.859 603.007 306.53 601.87 307.332 600.835C308.44 599.143 318.864 596.358 318.864 596.358V596.329Z" fill="white"/>
<path opacity="0.3" d="M318.864 596.329C318.864 596.329 320.862 604.552 323.924 613.621C325.236 618.301 327.438 622.69 330.412 626.553C330.412 626.553 323.501 628.07 320.293 623.492C317.086 618.913 312.333 603.094 305.334 604.217C305.859 603.007 306.53 601.87 307.332 600.835C308.44 599.143 318.864 596.358 318.864 596.358V596.329Z" fill="black"/>
<path d="M324.011 416.356L326.3 461.276C326.3 461.276 281.088 465.607 259.874 465.607H222.024C222.024 465.607 221.514 377.136 230.16 346.635C238.121 318.598 247.845 311.44 247.845 311.44C247.845 311.44 310.919 310.346 310.919 314.239C319.185 335.409 323.282 377.297 323.997 416.356H324.011Z" fill="#263238"/>
<path opacity="0.2" d="M228.192 465.607V470.199L258.853 469.981L259.888 465.607H228.192Z" fill="black"/>
<path opacity="0.2" d="M288.451 464.353L289.719 468.275L321.183 466.7L320.891 461.772L288.451 464.353Z" fill="black"/>
<path d="M228.498 320.552C228.498 320.552 158.878 292.515 157.96 294.352C157.041 296.189 163.442 317.724 209.15 328.483C209.15 328.483 213.714 321.164 215.245 321.019C216.761 320.873 225.523 325.48 225.523 325.48L228.498 320.552Z" fill="#407BFF"/>
<path opacity="0.6" d="M228.498 320.552C228.498 320.552 158.878 292.515 157.96 294.352C157.041 296.189 163.442 317.724 209.15 328.483C209.15 328.483 213.714 321.164 215.245 321.019C216.761 320.873 225.523 325.48 225.523 325.48L228.498 320.552Z" fill="white"/>
<path d="M221.893 316.44C221.441 316.892 218.627 323.045 218.933 323.657C219.239 324.27 237.61 333.615 240.045 332.085C242.48 330.568 243.778 325.553 242.713 324.343C241.649 323.118 221.893 316.455 221.893 316.455V316.44Z" fill="#263238"/>
<path opacity="0.6" d="M170.805 298.172C170.805 298.172 180.282 301.773 180.646 307.328C181.011 312.883 187.922 322.768 209.821 327.419L214.443 321.441C214.443 321.441 205.039 324.226 198.638 321.573C192.237 318.919 184.991 315.537 184.991 308.888C184.991 302.24 183.97 303.056 183.97 303.056L170.805 298.157V298.172Z" fill="white"/>
<path d="M258.139 195.166C258.008 194.874 246.708 190.908 242.699 178.282C238.689 165.656 239.637 150.303 246.679 144.676C270.051 125.984 283.668 137.05 287.255 141.133C289.792 144.02 296.251 151.411 298.35 157.345C301.471 166.137 298.409 180.396 295.493 185.572C292.562 190.748 258.139 195.18 258.139 195.18V195.166Z" fill="#263238"/>
<path d="M258.358 184.187C260.909 193.562 264.029 210.941 257.92 217.225C257.92 217.225 264.452 223.159 281.642 229.414C286.759 228.101 287.182 217.225 287.182 217.225C276.451 214.717 276.145 206.902 277.443 199.583L258.358 184.187Z" fill="white"/>
<path opacity="0.2" d="M266.333 190.456L277.662 199.554C277.341 201.275 277.18 203.024 277.166 204.774C273.185 204.19 267.208 199.773 266.493 195.559C266.143 193.883 266.085 192.162 266.333 190.456Z" fill="black"/>
<path d="M250.397 165.248C253.269 180.484 254.159 187.001 262.907 194.305C276.014 205.24 293.991 199.481 295.755 183.954C297.33 170.015 292.373 147.373 276.656 142.328C266.318 138.581 254.888 143.932 251.155 154.269C249.887 157.783 249.624 161.588 250.412 165.248H250.397Z" fill="white"/>
<path d="M249.391 181.431C251.753 184.231 255.019 185.674 257.803 185.893C261.988 186.214 262.819 179.434 260.705 175.672C258.795 172.275 254.421 170.555 250.688 171.998C247.014 173.427 246.694 178.238 249.391 181.431Z" fill="white"/>
<path opacity="0.2" d="M258.11 179.098C257.745 177.684 256.797 176.416 255.544 175.658C254.29 174.899 252.744 174.652 251.33 174.987" stroke="black" stroke-width="0.5" stroke-linecap="round" stroke-linejoin="round"/>
<path d="M272.442 162.652C272.631 162.725 272.836 162.711 273.011 162.609C275.795 161.049 278.186 162.448 278.216 162.478C278.566 162.682 279.003 162.565 279.192 162.2C279.367 161.836 279.222 161.355 278.872 161.136C278.74 161.063 275.737 159.299 272.296 161.238C271.946 161.428 271.844 161.894 272.034 162.273C272.136 162.463 272.282 162.594 272.456 162.652H272.442Z" fill="#263238"/>
<path d="M293.525 157.433C293.67 157.36 293.772 157.214 293.802 157.039C293.875 156.675 293.627 156.267 293.248 156.135C289.428 154.779 287.168 156.689 287.066 156.777C286.803 157.01 286.803 157.448 287.08 157.768C287.357 158.074 287.809 158.147 288.072 157.914C288.159 157.841 289.952 156.383 292.985 157.462C293.175 157.535 293.379 157.52 293.525 157.433Z" fill="#263238"/>
<path d="M284.908 165.816C284.908 165.816 288.334 171.065 291.673 174.141C292.256 174.681 292.14 175.629 291.469 176.022C289.734 177.028 287.445 176.78 287.445 176.78L284.922 165.831L284.908 165.816Z" fill="white"/>
<path d="M275.752 165.51C275.752 165.51 275.708 165.496 275.679 165.466L278.988 164.052C278.988 164.052 278.391 165.277 277.443 165.714C278.011 166.166 278.493 166.954 278.711 167.901C279.09 169.491 278.595 170.89 277.589 171.036C276.597 171.182 275.475 170.015 275.11 168.441C274.804 167.129 275.095 165.962 275.752 165.51Z" fill="#263238"/>
<path d="M289.384 162.93C289.384 162.93 289.384 162.93 289.369 162.93L292.679 161.515C292.679 161.515 291.994 162.886 290.944 163.25C291.498 163.688 291.965 164.446 292.183 165.35C292.548 166.881 292.052 168.251 291.061 168.397C290.069 168.543 288.961 167.42 288.597 165.889C288.276 164.533 288.626 163.323 289.399 162.944L289.384 162.93Z" fill="#263238"/>
<path d="M288.465 181.052C287.634 182.744 286.759 185.922 286.759 185.922C286.453 185.893 286.147 185.864 285.841 185.805C281.715 185.266 279.951 183.662 279.251 182.044C278.872 181.154 278.813 180.25 278.872 179.536C278.915 178.705 279.149 178.122 279.149 178.122C281.19 179.711 285.01 180.498 287.066 180.834C287.926 180.979 288.465 181.038 288.465 181.038V181.052Z" fill="#263238"/>
<path d="M287.066 180.848L286.526 182.277C282.633 181.767 279.965 180.877 278.872 179.55C278.915 178.719 279.149 178.136 279.149 178.136C281.19 179.725 285.01 180.513 287.066 180.848Z" fill="white"/>
<path d="M285.856 185.82C281.729 185.28 279.965 183.677 279.265 182.058C280.665 182.292 282.327 182.729 283.756 183.56C284.835 184.187 285.476 185.018 285.87 185.82H285.856Z" fill="white"/>
<path d="M273.725 151.936C275.154 195.618 257.847 184.07 262.571 203.097C256.025 193.139 252.409 181.052 250.616 169.097C249.464 163.148 248.327 157.375 249.96 151.543C251.957 145.813 258.037 140.389 263.811 139.879C265.895 139.616 276.014 141.351 277.647 142.664C279.324 143.932 274.746 150.056 273.71 151.922L273.725 151.936Z" fill="#263238"/>
<path d="M277.953 210.401L277.661 218.683L259.976 210.314L254.45 217.298C256.185 220.622 268.039 225.142 282.808 230.536C286.759 225.929 287.518 221.832 287.182 217.225L277.953 210.401Z" fill="#407BFF"/>
<path opacity="0.8" d="M277.953 210.401L277.661 218.683L259.976 210.314L254.45 217.298C256.185 220.622 268.039 225.142 282.808 230.536C286.759 225.929 287.518 221.832 287.182 217.225L277.953 210.401Z" fill="white"/>
<path d="M249.58 187.715L242.524 167.551C242.757 164.49 239.404 161.807 235.729 161.603C232.055 161.399 228.469 163.323 226.471 165.948C224.474 168.572 223.92 171.779 224.167 174.841C224.576 179.9 227.083 184.697 230.626 188.75C232.405 190.792 234.49 192.701 237.187 193.853C239.87 195.005 243.253 195.297 245.994 194.13C248.749 192.949 250.543 190.121 249.58 187.715Z" fill="#263238"/>
<g opacity="0.3">
<path d="M274.804 141.556C270.955 146.513 266.727 151.149 262.119 155.421C257.847 159.387 251.68 165.306 245.381 162.128C244.754 161.807 244.2 162.755 244.827 163.075C250.776 166.064 256.55 161.851 260.88 158.031C266.26 153.278 271.173 148.014 275.577 142.343C275.999 141.789 275.241 141.016 274.804 141.57V141.556Z" fill="black"/>
</g>
<path d="M297.476 217.91C297.476 217.91 317.042 219.091 319.9 253.018C322.218 280.53 326.315 290.605 326.315 290.605L371.046 311.104L370.419 332.201C370.419 332.201 315.905 321.922 312.231 308.538C308.557 295.168 297.476 220.68 297.476 220.68" fill="#407BFF"/>
<path d="M280.927 211.99C280.927 211.99 302.17 237.636 307.39 256.124C310.816 268.283 304.051 303.333 304.839 312.606C306.136 327.885 312.887 346.591 321.635 373.987L327.423 373.17L311.487 312.533C311.487 312.533 318.865 266.84 316.896 255.409C314.928 243.979 297.869 217.91 297.869 217.91L290.127 215.723L280.927 211.99Z" fill="#407BFF"/>
<path opacity="0.2" d="M225.655 374.002L261.492 377.195C261.492 377.195 266.552 321.164 266.989 308.072C267.426 294.979 266.989 271.695 266.989 271.695L226.063 370.225L225.655 374.002Z" fill="black"/>
<path d="M258.27 373.579L216.032 369.161L242.801 294.177C242.713 293.871 240.206 287.018 236.488 273.036C234.636 266.053 232.974 264.682 231.326 258.077C228.95 248.557 227.156 240.684 227.04 238.103C226.617 230.07 238.135 217.166 238.135 217.166L252.263 215.927L260.049 209.891C266.26 219.995 267.514 240.523 266.799 263.982C265.793 296.597 258.27 373.564 258.27 373.564V373.579Z" fill="#407BFF"/>
<path opacity="0.2" d="M240.614 273.765C239.914 275.558 238.835 276.812 237.537 277.643C235.686 270.66 233.761 263.239 232.114 256.648C236.4 251.414 240.045 247.055 240.045 247.055C240.045 247.055 245.002 262.553 240.614 273.78V273.765Z" fill="black"/>
<path d="M239.404 217.064C226.427 216.16 206.22 261.679 197.807 283.519C195.314 289.993 201.291 297.093 205.607 299.615C215.39 305.331 234.519 317.388 234.519 317.388L242.32 295.518L226.5 279.874L241.197 257.713C241.197 257.713 246.694 246.545 245.673 236.178C244.652 225.812 239.404 217.064 239.404 217.064Z" fill="#407BFF"/>
<path d="M260.063 209.906C256.637 212.676 249.58 216.321 249.58 216.321L256.244 233.583L250.499 242.914L266.377 277.031C272.559 227.62 260.063 209.906 260.063 209.906Z" fill="#407BFF"/>
<path opacity="0.3" d="M260.063 209.906C256.637 212.676 249.58 216.321 249.58 216.321L256.244 233.583L250.499 242.914L266.377 277.031C272.559 227.62 260.063 209.906 260.063 209.906Z" fill="black"/>
<path opacity="0.2" d="M226.5 279.874C226.5 279.874 219.706 278.824 215.376 282.426C215.376 282.426 220.027 274.975 228.381 277.031L226.486 279.874H226.5Z" fill="black"/>
<path d="M307.9 276.9C307.9 276.9 311.458 266.432 310.802 256.765C310.146 247.099 310 239.896 310 239.896L299.036 231.79L300.479 221.919C300.479 221.919 295.201 218.668 290.288 215.344C286.934 213.069 278.828 210.124 277.968 210.387C277.968 210.387 307.478 245.32 307.623 259.812C307.755 273.794 307.9 276.885 307.9 276.885V276.9Z" fill="#407BFF"/>
<path opacity="0.3" d="M307.9 276.9C307.9 276.9 311.458 266.432 310.802 256.765C310.146 247.099 310 239.896 310 239.896L299.036 231.79L300.479 221.919C300.479 221.919 295.201 218.668 290.288 215.344C286.934 213.069 278.828 210.124 277.968 210.387C277.968 210.387 307.478 245.32 307.623 259.812C307.755 273.794 307.9 276.885 307.9 276.885V276.9Z" fill="black"/>
<path opacity="0.3" d="M312.216 308.538L317.027 249.009L316.415 313.918C316.415 313.918 313.105 311.921 312.231 308.538H312.216Z" fill="black"/>
<path opacity="0.2" d="M240.789 294.017L229.023 313.947L234.519 317.388L242.32 295.518L240.789 294.017Z" fill="black"/>
</g>
<defs>
<clipPath id="clip0_206_310">
<rect width="729" height="648" fill="white"/>
</clipPath>
</defs>
</svg>
