<svg width="727" height="525" viewBox="0 0 727 525" fill="none" xmlns="http://www.w3.org/2000/svg">
<g clip-path="url(#clip0_206_942)">
<path d="M727 475.826H0V476.189H727V475.826Z" fill="#EBEBEB"/>
<path d="M481.594 503.16H468.958V503.523H481.594V503.16Z" fill="#EBEBEB"/>
<path d="M251.862 485.097H218.158V485.46H251.862V485.097Z" fill="#EBEBEB"/>
<path d="M667.051 492.886H584.653V493.249H667.051V492.886Z" fill="#EBEBEB"/>
<path d="M144.513 492.886H62.115V493.249H144.513V492.886Z" fill="#EBEBEB"/>
<path d="M344.613 411.017H63.8597C59.2796 411.017 55.5574 407.297 55.5574 402.719V8.29735C55.5574 3.72 59.2796 0 63.8597 0H344.627C349.207 0 352.929 3.72 352.929 8.29735V402.719C352.929 407.297 349.207 411.017 344.627 411.017H344.613ZM63.8597 0.363282C59.4832 0.363282 55.9209 3.92344 55.9209 8.29735V402.719C55.9209 407.093 59.4832 410.654 63.8597 410.654H344.627C349.004 410.654 352.566 407.093 352.566 402.719V8.29735C352.566 3.92344 349.004 0.363282 344.627 0.363282H63.8597Z" fill="#EBEBEB"/>
<path d="M659.113 411.017H378.345C373.765 411.017 370.043 407.297 370.043 402.719V8.29735C370.043 3.72 373.765 0 378.345 0H659.113C663.693 0 667.415 3.72 667.415 8.29735V402.719C667.415 407.297 663.693 411.017 659.113 411.017ZM378.345 0.363282C373.969 0.363282 370.406 3.92344 370.406 8.29735V402.719C370.406 407.093 373.969 410.654 378.345 410.654H659.113C663.489 410.654 667.052 407.093 667.052 402.719V8.29735C667.052 3.92344 663.489 0.363282 659.113 0.363282H378.345Z" fill="#EBEBEB"/>
<path d="M313.758 36.488H117.89V208.335H313.758V36.488Z" fill="#E6E6E6"/>
<path d="M334.754 29.8036H105.211C104.135 29.8036 103.263 30.6755 103.263 31.7508C103.263 32.8261 104.135 33.698 105.211 33.698H334.754C335.83 33.698 336.703 32.8261 336.703 31.7508C336.703 30.6755 335.83 29.8036 334.754 29.8036Z" fill="#F5F5F5"/>
<path d="M322.075 36.488H121.772V208.335H322.075V36.488Z" fill="#EBEBEB"/>
<path d="M310.443 196.71V48.113L133.419 48.113V196.71H310.443Z" fill="#FAFAFA"/>
<path d="M197.555 196.71L217.94 48.113H250.175L229.79 196.71H197.555Z" fill="white"/>
<path d="M236.726 196.71L257.096 48.113H269.673L249.288 196.71H236.726Z" fill="white"/>
<path d="M310.443 196.71V48.113H308.96V196.71H310.443Z" fill="#E6E6E6"/>
<g opacity="0.4">
<path d="M133.55 26.3161H113.528V305.215H133.55V26.3161Z" fill="#F0F0F0"/>
<path d="M141.358 26.3161H125.756V305.215H141.358V26.3161Z" fill="#E6E6E6"/>
<path d="M153.571 26.3161H133.55V305.215H153.571V26.3161Z" fill="#F0F0F0"/>
<path d="M161.379 26.3161H145.778V305.215H161.379V26.3161Z" fill="#E6E6E6"/>
<path d="M173.593 26.3161H153.571V305.215H173.593V26.3161Z" fill="#F0F0F0"/>
</g>
<g opacity="0.4">
<path d="M302.999 26.3161H291.454V305.215H302.999V26.3161Z" fill="#F0F0F0"/>
<path d="M307.477 26.3161H298.491V305.215H307.477V26.3161Z" fill="#E6E6E6"/>
<path d="M314.529 26.3161H302.984V305.215H314.529V26.3161Z" fill="#F0F0F0"/>
<path d="M319.022 26.3161H310.036V305.215H319.022V26.3161Z" fill="#E6E6E6"/>
<path d="M326.074 26.3161H314.529V305.215H326.074V26.3161Z" fill="#F0F0F0"/>
</g>
<path d="M638.262 475.826V147.972H533.08V475.826H638.262Z" fill="#F0F0F0"/>
<path d="M632.49 252.699V156.182H538.852V252.699H632.49Z" fill="#E6E6E6"/>
<path d="M632.49 357.876V261.359H538.852V357.876H632.49Z" fill="#E6E6E6"/>
<path d="M632.49 463.053V366.537H538.852V463.053H632.49Z" fill="#E6E6E6"/>
<path d="M632.49 252.713V156.197H595.66V252.713H632.49Z" fill="#E0E0E0"/>
<path d="M632.49 357.876V261.359H595.66V357.876H632.49Z" fill="#E0E0E0"/>
<path d="M618.444 214.147H592.927V252.699H618.444V214.147Z" fill="#F0F0F0"/>
<path d="M582.167 252.699H592.941V214.147H582.167V252.699Z" fill="#E0E0E0"/>
<path d="M587.547 224.174H554.774V252.699H587.547V224.174Z" fill="#F0F0F0"/>
<path d="M540.932 252.699H554.774V224.174H540.932V252.699Z" fill="#E0E0E0"/>
<path d="M632.49 463.053V366.537H595.66V463.053H632.49Z" fill="#E0E0E0"/>
<path d="M533.08 475.826V147.972H504.524V475.826H533.08Z" fill="#F5F5F5"/>
<path d="M622.007 406.454H552.447V463.039H622.007V406.454Z" fill="#F0F0F0"/>
<path d="M538.852 463.039H552.447V406.454H538.852V463.039Z" fill="#E0E0E0"/>
<path d="M609.808 312.974H547.998V357.876H609.808V312.974Z" fill="#FAFAFA"/>
<path d="M538.852 357.876H547.998V312.974H538.852V357.876Z" fill="#F0F0F0"/>
<path d="M527.598 475.812V147.957H422.416V475.812H527.598Z" fill="#F0F0F0"/>
<path d="M521.812 252.699V156.182H428.174V252.699H521.812Z" fill="#E6E6E6"/>
<path d="M521.812 357.876V261.359H428.174V357.876H521.812Z" fill="#E6E6E6"/>
<path d="M521.826 463.039V366.522H428.188V463.039H521.826Z" fill="#E6E6E6"/>
<path d="M521.812 252.713V156.197H484.982V252.713H521.812Z" fill="#E0E0E0"/>
<path d="M521.826 357.876V261.359H484.996V357.876H521.826Z" fill="#E0E0E0"/>
<path d="M468.493 329.86H442.976V357.876H468.493V329.86Z" fill="#F0F0F0"/>
<path d="M432.201 357.861H442.976V329.845H432.201V357.861Z" fill="#E0E0E0"/>
<path d="M491.568 301.829H466.051V329.845H491.568V301.829Z" fill="#F0F0F0"/>
<path d="M455.276 329.86H466.051V301.843H455.276V329.86Z" fill="#E0E0E0"/>
<path d="M509.714 329.86H484.197V357.876H509.714V329.86Z" fill="#F0F0F0"/>
<path d="M473.422 357.861H484.197V329.845H473.422V357.861Z" fill="#E0E0E0"/>
<path d="M521.812 463.053V366.537H484.982V463.053H521.812Z" fill="#E0E0E0"/>
<path d="M422.402 475.826V147.972H393.845V475.826H422.402Z" fill="#F5F5F5"/>
<path d="M496.963 386.43H439.428V463.053H496.963V386.43Z" fill="#F0F0F0"/>
<path d="M428.174 463.039H439.428V386.415H428.174V463.039Z" fill="#E0E0E0"/>
<path d="M515.458 191.885H439.428V252.699H515.458V191.885Z" fill="#FAFAFA"/>
<path d="M428.174 252.699H439.428V191.885H428.174V252.699Z" fill="#F0F0F0"/>
<path d="M500.156 112.402C502.002 105.112 497.585 97.7069 490.291 95.8623C482.996 94.0176 475.587 98.4319 473.741 105.722C471.895 113.012 476.312 120.417 483.607 122.262C490.901 124.106 498.311 119.692 500.156 112.402Z" fill="#F5F5F5"/>
<path d="M521.594 106.645C522.204 114.143 516.635 120.711 509.133 121.336C501.63 121.946 495.058 116.381 494.433 108.883C493.822 101.385 499.391 94.8165 506.894 94.1916C514.396 93.5813 520.968 99.1468 521.594 106.645Z" fill="#E0E0E0"/>
<path d="M523.967 113.986C531.486 113.702 537.351 107.379 537.066 99.8647C536.781 92.3503 530.455 86.4895 522.936 86.7742C515.417 87.0589 509.552 93.3814 509.837 100.896C510.122 108.41 516.449 114.271 523.967 113.986Z" fill="#F5F5F5"/>
<path d="M542.965 125.321C550.484 125.036 556.349 118.713 556.064 111.199C555.779 103.685 549.452 97.8237 541.934 98.1084C534.415 98.3932 528.55 104.716 528.835 112.23C529.12 119.744 535.446 125.605 542.965 125.321Z" fill="#E0E0E0"/>
<path d="M567.259 120.791C573.758 117.002 575.953 108.664 572.161 102.169C568.37 95.6738 560.027 93.4803 553.528 97.2697C547.029 101.059 544.834 109.397 548.626 115.892C552.418 122.387 560.76 124.58 567.259 120.791Z" fill="#E0E0E0"/>
<path d="M581.774 110.147C581.774 110.147 580.19 147.972 519.383 147.972C458.577 147.972 456.992 110.147 456.992 110.147H581.774Z" fill="#F0F0F0"/>
<path d="M105.546 320.705H88.7375V466.41H105.546V320.705Z" fill="#F0F0F0"/>
<path d="M352.551 466.41H95.1934V475.637H352.551V466.41Z" fill="#F0F0F0"/>
<path d="M105.531 466.41L358.993 466.41V320.705H105.531L105.531 466.41Z" fill="#F5F5F5"/>
<path d="M335.423 386.43H129.115C123.401 386.43 118.763 381.794 118.763 376.084V348.997C118.763 343.287 123.401 338.651 129.115 338.651H335.423C341.137 338.651 345.776 343.287 345.776 348.997V376.084C345.776 381.794 341.137 386.43 335.423 386.43Z" fill="#F0F0F0"/>
<path d="M335.423 448.478H129.115C123.401 448.478 118.763 443.843 118.763 438.132V411.046C118.763 405.335 123.401 400.7 129.115 400.7H335.423C341.137 400.7 345.776 405.335 345.776 411.046V438.132C345.776 443.843 341.137 448.478 335.423 448.478Z" fill="#F0F0F0"/>
<path d="M299.786 365.81H164.767C162.964 365.81 161.496 364.342 161.496 362.54C161.496 360.739 162.964 359.271 164.767 359.271H299.786C301.589 359.271 303.057 360.739 303.057 362.54C303.057 364.342 301.589 365.81 299.786 365.81Z" fill="#F5F5F5"/>
<path d="M299.786 427.858H164.767C162.964 427.858 161.496 426.391 161.496 424.589C161.496 422.787 162.964 421.319 164.767 421.319H299.786C301.589 421.319 303.057 422.787 303.057 424.589C303.057 426.391 301.589 427.858 299.786 427.858Z" fill="#F5F5F5"/>
<path d="M241.349 320.705H265.937V262.74H241.349V320.705Z" fill="#E0E0E0"/>
<path d="M281.102 262.74H265.937V320.705H281.102V262.74Z" fill="#EBEBEB"/>
<path d="M213.113 255.169H241.349L251.542 320.705H223.291L213.113 255.169Z" fill="#E6E6E6"/>
<path d="M253.563 255.169H241.35L251.542 320.705H263.756L253.563 255.169Z" fill="#F0F0F0"/>
<path d="M200.201 320.705H227.507V260.836H200.201V320.705Z" fill="#EBEBEB"/>
<path d="M241.349 260.836H227.507V320.705H241.349V260.836Z" fill="#F5F5F5"/>
<path d="M190.823 320.705H210.583V270.528H190.823V320.705Z" fill="#E0E0E0"/>
<path d="M224.425 270.528H210.583V320.705H224.425V270.528Z" fill="#E6E6E6"/>
<path d="M489.722 437.304H344.962C338.215 437.304 333.242 431.782 333.911 425.039L364.198 123.429C364.881 116.686 370.959 111.164 377.706 111.164H522.466C529.212 111.164 534.185 116.686 533.516 123.429L503.229 425.039C502.546 431.782 496.468 437.304 489.722 437.304Z" fill="#263238"/>
<path d="M454.055 440.937H421.122V442.39H454.055V440.937Z" fill="#407BFF"/>
<path d="M475.385 440.937H464.887V442.39H475.385V440.937Z" fill="#407BFF"/>
<path d="M486.043 437.304H341.283C334.536 437.304 329.564 431.782 330.232 425.039L360.519 123.429C361.203 116.686 367.28 111.164 374.027 111.164H518.787C525.534 111.164 530.506 116.686 529.838 123.429L499.551 425.039C498.867 431.782 492.79 437.304 486.043 437.304Z" fill="#407BFF"/>
<g opacity="0.4">
<path opacity="0.2" d="M482.117 431.811H346.299C339.858 431.811 335.118 426.551 335.772 420.113L365.085 128.34C365.724 121.903 371.526 116.642 377.967 116.642H513.785C520.226 116.642 524.967 121.903 524.312 128.34L495 420.113C494.36 426.551 488.558 431.811 482.117 431.811Z" fill="white"/>
<mask id="mask0_206_942" style="mask-type:luminance" maskUnits="userSpaceOnUse" x="335" y="116" width="190" height="316">
<path d="M482.117 431.811H346.299C339.858 431.811 335.118 426.551 335.772 420.113L365.085 128.34C365.724 121.903 371.526 116.642 377.967 116.642H513.785C520.226 116.642 524.967 121.903 524.312 128.34L495 420.113C494.36 426.551 488.558 431.811 482.117 431.811Z" fill="white"/>
</mask>
<g mask="url(#mask0_206_942)">
<path d="M272.29 342.313L266.344 339.363L418.766 74.0949L424.713 77.0593L272.29 342.313Z" fill="white"/>
<path d="M300.105 351.41L294.435 347.995L464.756 92.5497L470.441 95.95L300.105 351.41Z" fill="white"/>
<path d="M319.036 407.965L313.279 404.681L513.553 92.041L519.31 95.3251L319.036 407.965Z" fill="white"/>
<path d="M410.42 459.333L403.528 459.115L435.822 215.513L443.135 212.462L410.42 459.333Z" fill="white"/>
<path d="M381.515 504.845L375.771 501.561L576.045 188.921L581.803 192.205L381.515 504.845Z" fill="white"/>
<path d="M335.874 117.863L340.105 111.992L623.897 298.545L619.68 304.43L335.874 117.863Z" fill="white"/>
<path d="M345.02 82.0726L346.226 80.2417L638.248 254.907L637.041 256.738L345.02 82.0726Z" fill="white"/>
<path d="M388.683 213.421L390.413 210.805L426.792 232.573L425.062 235.174L388.683 213.421Z" fill="white"/>
<path d="M432.056 285.786L433.801 283.185L496.614 320.749L494.869 323.364L432.056 285.786Z" fill="white"/>
<path d="M326.219 386.532L327.95 383.931L411.627 433.976L409.897 436.592L326.219 386.532Z" fill="white"/>
<path d="M364.866 175.639L367.455 173.867L390.079 209.555L387.491 211.328L364.866 175.639Z" fill="white"/>
<path d="M381.544 36.5607L382.94 34.8605L649.313 243.994L647.917 245.695L381.544 36.5607Z" fill="white"/>
</g>
</g>
<path d="M447.294 363.064C445.84 377.508 432.943 389.22 418.49 389.22C404.037 389.22 393.496 377.508 394.95 363.064C397.596 336.733 425.237 322.056 425.237 322.056C425.237 322.056 449.94 336.733 447.294 363.064Z" fill="white"/>
<path opacity="0.4" d="M429.366 363.064C428.915 367.612 424.844 371.303 420.293 371.303C415.742 371.303 412.427 367.612 412.878 363.064C413.328 358.515 417.4 354.824 421.951 354.824C426.502 354.824 429.817 358.515 429.366 363.064Z" fill="#407BFF"/>
<path d="M426.225 313.788C426.225 313.788 426.196 313.788 426.182 313.788C425.382 313.759 424.815 313.091 424.917 312.291L437.087 217.431C437.392 215.077 438.265 212.723 439.602 210.66L472.172 160.469C472.623 159.771 472.463 158.885 471.808 158.492L438.468 138.265C437.814 137.873 437.654 136.972 438.119 136.289C438.584 135.591 439.5 135.344 440.155 135.751L473.495 155.964C475.443 157.127 475.938 159.786 474.585 161.864L442.016 212.055C440.94 213.726 440.227 215.615 439.995 217.518L427.825 312.379C427.723 313.163 427.011 313.788 426.225 313.788Z" fill="white"/>
<path d="M421.849 100.92C423.012 89.2801 433.408 79.8493 445.055 79.8493C456.701 79.8493 465.193 89.2801 464.015 100.92C461.878 122.135 439.617 133.949 439.617 133.949C439.617 133.949 419.726 122.121 421.849 100.92Z" fill="#407BFF"/>
<path opacity="0.3" d="M421.849 100.92C423.012 89.2801 433.408 79.8493 445.055 79.8493C456.701 79.8493 465.193 89.2801 464.015 100.92C461.878 122.135 439.617 133.949 439.617 133.949C439.617 133.949 419.726 122.121 421.849 100.92Z" fill="black"/>
<path d="M451.654 110.088C457.246 104.774 457.881 96.3683 453.072 91.3145C448.263 86.2608 439.832 86.4723 434.24 91.787C428.647 97.1017 428.012 105.507 432.821 110.561C437.63 115.615 446.062 115.403 451.654 110.088Z" fill="#407BFF"/>
<path d="M251.891 182.585C251.44 183.806 250.917 185.346 250.451 186.756C249.972 188.209 249.506 189.677 249.07 191.159C248.154 194.109 247.296 197.088 246.511 200.095C245.726 203.103 244.999 206.126 244.301 209.178L243.312 213.755L242.847 216.051L242.745 216.588L242.687 216.894C242.629 217.068 242.643 217.402 242.6 217.649C242.469 219.989 242.818 223.069 243.298 226.034C243.763 229.042 244.403 232.093 245.072 235.159C246.453 241.277 247.965 247.496 249.535 253.629L243.763 255.808C240.884 249.894 238.354 243.936 236.173 237.717C235.068 234.607 234.079 231.454 233.207 228.184C232.785 226.542 232.407 224.871 232.087 223.128C231.782 221.369 231.506 219.582 231.477 217.504C231.477 216.952 231.462 216.472 231.52 215.862L231.593 214.975L231.666 214.322L231.971 211.866C232.16 210.224 232.436 208.596 232.684 206.969C233.236 203.714 233.803 200.459 234.559 197.233C235.301 194.007 236.086 190.781 237.016 187.584C237.496 185.986 237.991 184.402 238.529 182.803C239.067 181.176 239.605 179.694 240.332 177.921L251.876 182.6L251.891 182.585Z" fill="white"/>
<path d="M243.501 254.878L241.466 263.495L246.875 269.86C246.875 269.86 254.043 249.051 246.482 250.054L243.516 254.878H243.501Z" fill="white"/>
<path d="M272.451 513.288C271.331 513.288 270.095 513.055 269.237 512.852C269.121 512.823 269.034 512.736 269.019 512.619C269.005 512.503 269.048 512.387 269.135 512.329C269.557 512.053 273.221 509.669 274.646 510.309C274.864 510.411 275.155 510.629 275.228 511.123C275.329 511.762 275.17 512.285 274.762 512.648C274.254 513.128 273.381 513.288 272.451 513.288ZM270.037 512.445C272.16 512.866 273.759 512.794 274.37 512.227C274.632 511.994 274.719 511.646 274.661 511.195C274.617 510.948 274.515 510.876 274.413 510.832C273.657 510.498 271.535 511.53 270.037 512.43V512.445Z" fill="#407BFF"/>
<path d="M269.31 512.852C269.31 512.852 269.208 512.852 269.164 512.808C269.077 512.75 269.019 512.663 269.019 512.561C269.019 512.416 269.005 508.914 270.313 507.737C270.662 507.432 271.069 507.301 271.534 507.345C272.261 507.432 272.465 507.882 272.509 508.144C272.799 509.51 270.604 512.14 269.455 512.794C269.412 512.823 269.368 512.837 269.31 512.837V512.852ZM271.331 507.911C271.098 507.911 270.88 507.998 270.691 508.158C269.906 508.856 269.659 510.832 269.601 511.995C270.749 511.065 272.116 509.103 271.942 508.26C271.913 508.129 271.825 507.955 271.462 507.911C271.418 507.911 271.375 507.911 271.331 507.911Z" fill="#407BFF"/>
<path d="M272.625 158.681C273.715 158.623 271.883 155.267 271.36 155.005C270.153 154.395 257.213 156.226 257.823 158.231C258.114 159.088 258.87 160.716 259.583 161.166C260.295 161.617 263.072 159.088 272.625 158.696V158.681Z" fill="#263238"/>
<path d="M263.857 166.601C263.494 167.633 260.775 164.959 260.659 164.378C260.397 163.055 265.689 151.096 267.449 152.244C268.205 152.753 269.557 153.93 269.79 154.729C270.022 155.528 266.838 157.519 263.857 166.601Z" fill="#263238"/>
<path d="M266.664 135.301C268.147 142.523 271.287 157.156 266.271 161.965C266.271 161.965 268.321 169.289 281.742 169.289C296.514 169.289 288.721 161.965 288.721 161.965C280.637 160.047 280.796 154.06 282.134 148.451L266.649 135.286L266.664 135.301Z" fill="white"/>
<path d="M262.825 164.857C260.717 164.93 263.625 158.173 264.57 157.563C266.765 156.153 291.934 157.272 291.12 161.239C290.727 162.939 289.564 166.194 288.299 167.182C287.02 168.17 281.233 163.84 262.825 164.857Z" fill="#263238"/>
<path d="M295.845 119.825C296.02 119.825 296.194 119.738 296.311 119.592C297.794 117.514 299.931 117.587 299.946 117.587C300.265 117.602 300.527 117.354 300.542 117.035C300.542 116.715 300.309 116.454 299.989 116.424C299.873 116.424 297.212 116.323 295.365 118.909C295.176 119.171 295.249 119.534 295.496 119.709C295.598 119.781 295.714 119.825 295.831 119.825H295.845Z" fill="#263238"/>
<path d="M299.131 126.756C299.131 126.756 300.673 131.043 302.446 133.15C301.109 134.312 298.928 133.673 298.928 133.673L299.131 126.756Z" fill="#FF5652"/>
<path d="M298.302 125.042C298.273 126.03 298.768 126.843 299.408 126.858C300.047 126.872 300.6 126.102 300.629 125.129C300.658 124.141 300.164 123.327 299.524 123.312C298.884 123.283 298.332 124.068 298.302 125.042Z" fill="#263238"/>
<path d="M299.233 123.356L301.618 122.775C301.618 122.775 300.353 124.562 299.233 123.356Z" fill="#263238"/>
<path d="M255.133 512.561H267.318L266.082 484.385H253.912L255.133 512.561Z" fill="white"/>
<path d="M268.263 511.152H254.581C254.086 511.152 253.679 511.5 253.621 511.98L252.167 522.806C252.022 523.925 252.996 524.985 254.144 524.971C258.914 524.884 261.211 524.608 267.23 524.608C270.938 524.608 276.347 524.985 281.451 524.985C286.554 524.985 286.787 519.929 284.649 519.478C275.082 517.429 273.555 514.596 270.313 511.893C269.731 511.413 269.004 511.152 268.263 511.152Z" fill="#263238"/>
<g opacity="0.2">
<path d="M253.897 484.385H266.082L266.722 498.916H254.537L253.897 484.385Z" fill="black"/>
</g>
<path d="M316.172 176.991C318.76 182.934 321.538 189.023 324.373 194.922C327.281 200.778 330.276 206.649 333.664 211.851C334.086 212.505 334.507 213.159 334.943 213.755L336.092 215.339C336.427 215.746 336.47 215.847 337.023 216.036C338.171 216.4 341.007 215.702 343.566 214.423C348.873 211.88 354.223 207.753 359.138 203.67L363.718 207.797C362.628 209.279 361.552 210.602 360.388 211.938C359.24 213.261 358.062 214.583 356.783 215.818C354.238 218.289 351.563 220.715 348.349 222.793C346.735 223.825 345.005 224.799 342.984 225.569C340.963 226.31 338.622 226.92 335.801 226.717C334.405 226.601 332.908 226.237 331.527 225.583C330.131 224.929 328.895 223.999 327.906 222.982C327.688 222.75 327.368 222.416 327.237 222.256L326.787 221.718L325.9 220.628C325.289 219.902 324.751 219.175 324.213 218.448C319.895 212.607 316.521 206.576 313.322 200.459C310.138 194.327 307.259 188.18 304.642 181.728L316.158 176.991H316.172Z" fill="white"/>
<path d="M359.254 203.321L364.998 200.56L368.415 209.643C368.415 209.643 359.894 212.621 355.837 209.294L356.041 207.739C356.303 205.821 357.51 204.164 359.254 203.321Z" fill="white"/>
<path d="M373.474 200.43L374.507 207.129L368.414 209.643L364.998 200.56L373.474 200.43Z" fill="white"/>
<path d="M265.384 120.377C265.777 132.452 265.675 137.567 271.578 143.99C280.462 153.654 295.22 150.689 298.448 138.774C301.356 128.049 300.236 110.103 288.575 104.843C277.089 99.6699 264.991 108.302 265.369 120.377H265.384Z" fill="white"/>
<path d="M262.069 106.035C267.158 96.8363 289.433 96.3277 296.98 106.63C304.526 116.919 293.693 116.642 290.771 126.756C291.134 136.056 294.915 140.052 300.426 145.356C291.949 155.412 257.242 156.996 251.789 145.371C246.337 133.746 245.959 104.582 262.069 106.035Z" fill="#263238"/>
<path d="M262.476 107.095C262.476 107.095 263.29 103.332 258.594 103.695C260.702 104.858 262.476 107.095 262.476 107.095Z" fill="#263238"/>
<path d="M288.619 125.972C288.793 128.311 290 130.549 291.454 132.031C293.621 134.254 295.845 132.961 296.18 130.331C296.5 127.962 295.743 123.952 293.112 122.687C290.524 121.438 288.415 123.283 288.619 125.972Z" fill="white"/>
<path d="M291.178 238.56C291.178 238.56 284.926 322.1 278.063 369.181C272.509 407.21 268.714 496.097 268.714 496.097H252.109C252.109 496.097 243.356 410.247 245.988 372.64C252.661 277.46 239.154 260.618 254.77 238.56H291.178Z" fill="#263238"/>
<path opacity="0.2" d="M272.319 288.024C271.985 307.976 279.299 326.372 282.628 332.461C284.417 316.157 286.031 299.141 287.383 284.13C282.105 267.128 272.625 269.206 272.305 288.024H272.319Z" fill="black"/>
<path d="M270.997 496.432H249.841L248.663 489.021L271.04 488.25L270.997 496.432Z" fill="#407BFF"/>
<path d="M273.73 490.895C273.672 490.808 273.657 490.706 273.701 490.605C273.745 490.488 273.861 490.43 273.992 490.43C274.602 490.474 280.04 490.953 280.884 492.435C281.044 492.726 281.058 493.031 280.898 493.351C280.636 493.86 280.244 494.179 279.72 494.266C277.976 494.572 275.242 492.305 273.774 490.924C273.774 490.924 273.745 490.895 273.73 490.881V490.895ZM280.346 492.682C279.779 491.898 276.958 491.346 274.806 491.099C276.871 492.915 278.644 493.874 279.619 493.7C279.953 493.642 280.215 493.438 280.389 493.089C280.462 492.959 280.462 492.842 280.389 492.726C280.389 492.712 280.36 492.683 280.346 492.668V492.682Z" fill="#407BFF"/>
<path d="M273.73 490.895C273.73 490.895 273.701 490.866 273.701 490.837C273.657 490.75 273.672 490.634 273.73 490.546C273.817 490.43 275.766 487.815 277.743 487.538C278.354 487.451 278.892 487.597 279.371 487.96C280.011 488.454 279.997 488.919 279.866 489.224C279.342 490.517 275.518 491.215 273.934 490.997C273.846 490.997 273.788 490.939 273.73 490.881V490.895ZM279.255 488.672C279.255 488.672 279.124 488.512 279.008 488.425C278.659 488.149 278.266 488.047 277.816 488.12C276.522 488.294 275.155 489.747 274.53 490.474C276.26 490.503 279.008 489.791 279.313 489.006C279.328 488.962 279.386 488.846 279.255 488.672Z" fill="#407BFF"/>
<path d="M261.197 485.896L272.421 490.735L277.191 480.36L283.399 466.773L284.126 465.204L272.901 460.35L272.087 462.138L266.053 475.289L261.197 485.896Z" fill="white"/>
<path opacity="0.2" d="M266.053 475.289L277.19 480.36L283.399 466.773L272.087 462.138L266.053 475.289Z" fill="black"/>
<path d="M304.249 238.56C304.249 238.56 323.282 321.591 323.704 364.313C324.082 402.937 281.902 476.364 281.902 476.364L266.664 469.462C266.664 469.462 293.999 381.053 291.28 368.673C283.385 332.751 270.037 255.329 270.022 238.56H304.264H304.249Z" fill="#263238"/>
<path d="M274.021 489.108L262.36 481.842C261.938 481.581 261.415 481.653 261.095 482.031L254.101 490.372C253.374 491.244 253.65 492.653 254.639 493.249C258.754 495.705 260.862 496.693 265.98 499.89C269.135 501.852 275.46 506.24 279.822 508.957C284.083 511.617 287.049 507.533 285.478 506.022C278.412 499.222 276.696 494.833 275.359 490.837C275.126 490.11 274.632 489.515 274.021 489.122V489.108Z" fill="#263238"/>
<path d="M283.006 479.488L263.377 471.423L265.457 463.504L286.482 472.106L283.006 479.488Z" fill="#407BFF"/>
<path d="M260.31 178.386C260.557 171.382 256.006 162.518 245.275 164.755C240.215 165.802 234.995 184.053 234.995 184.053L248.663 200.066C253.359 197.887 260.135 182.818 260.295 178.386H260.31Z" fill="#407BFF"/>
<path opacity="0.2" d="M250.931 180.26C250.931 180.26 251.062 189.618 248.619 199.994L248.692 200.066C251.484 198.773 255.002 192.917 257.431 187.468L250.931 180.26Z" fill="black"/>
<path d="M309.338 165.09C309.338 165.09 315.154 167.139 304.235 238.56H254.77C255.395 218.434 255.308 206.039 245.275 164.741C245.275 164.741 255.613 162.489 266.256 161.98C274.573 161.573 281.393 161.312 288.721 161.98C298.375 162.866 309.338 165.104 309.338 165.104V165.09Z" fill="#407BFF"/>
<path opacity="0.2" d="M309.004 189.546L301.356 190.519C301.836 196.317 305.573 203.249 308.582 206.925C309.208 201.607 309.673 196.971 310.022 192.932C309.484 190.839 309.004 189.546 309.004 189.546Z" fill="black"/>
<path d="M309.338 165.09C315.402 166.572 323.021 183.167 323.021 183.167L310.894 202.275C310.894 202.275 295.482 190.766 295.627 174.128C295.685 167.139 301.981 163.288 309.338 165.075V165.09Z" fill="#407BFF"/>
<path d="M254.014 235.654L251.833 240.086C251.658 240.434 252.08 240.783 252.647 240.783H304.526C304.977 240.783 305.34 240.565 305.369 240.289L305.776 235.857C305.805 235.552 305.413 235.29 304.933 235.29H254.843C254.479 235.29 254.145 235.436 254.043 235.668L254.014 235.654Z" fill="#407BFF"/>
<path opacity="0.2" d="M254.014 235.654L251.833 240.086C251.658 240.434 252.08 240.783 252.647 240.783H304.526C304.977 240.783 305.34 240.565 305.369 240.289L305.776 235.857C305.805 235.552 305.413 235.29 304.933 235.29H254.843C254.479 235.29 254.145 235.436 254.043 235.668L254.014 235.654Z" fill="white"/>
<path d="M260.789 241.248H259.452C259.19 241.248 258.986 241.117 259.001 240.943L259.568 235.188C259.583 235.014 259.815 234.883 260.077 234.883H261.415C261.676 234.883 261.88 235.014 261.865 235.188L261.298 240.943C261.284 241.117 261.051 241.248 260.789 241.248Z" fill="#263238"/>
<path d="M293.315 241.248H291.978C291.716 241.248 291.512 241.117 291.527 240.943L292.094 235.188C292.108 235.014 292.341 234.883 292.617 234.883H293.955C294.217 234.883 294.42 235.014 294.406 235.188L293.839 240.943C293.824 241.117 293.592 241.248 293.315 241.248Z" fill="#263238"/>
</g>
<defs>
<clipPath id="clip0_206_942">
<rect width="727" height="525" fill="white"/>
</clipPath>
</defs>
</svg>
