<svg width="714" height="516" viewBox="0 0 714 516" fill="none" xmlns="http://www.w3.org/2000/svg">
<g clip-path="url(#clip0_206_163)">
<path d="M714 467.669H0V468.026H714V467.669Z" fill="#EBEBEB"/>
<path d="M338.45 403.971H62.7034C58.2052 403.971 54.5496 400.315 54.5496 395.816V8.15511C54.5496 3.65623 58.2052 0 62.7034 0H338.45C342.948 0 346.604 3.65623 346.604 8.15511V395.816C346.604 400.315 342.948 403.971 338.45 403.971ZM62.7034 0.357054C58.4052 0.357054 54.9066 3.85618 54.9066 8.15511V395.816C54.9066 400.115 58.4052 403.614 62.7034 403.614H338.45C342.748 403.614 346.247 400.115 346.247 395.816V8.15511C346.247 3.85618 342.748 0.357054 338.45 0.357054H62.7034Z" fill="#EBEBEB"/>
<path d="M647.327 403.971H371.58C367.082 403.971 363.426 400.315 363.426 395.816V8.15511C363.426 3.65623 367.082 0 371.58 0H647.327C651.825 0 655.481 3.65623 655.481 8.15511V395.816C655.481 400.315 651.825 403.971 647.327 403.971ZM371.58 0.357054C367.282 0.357054 363.783 3.85618 363.783 8.15511V395.816C363.783 400.115 367.282 403.614 371.58 403.614H647.327C651.625 403.614 655.124 400.115 655.124 395.816V8.15511C655.124 3.85618 651.625 0.357054 647.327 0.357054H371.58Z" fill="#EBEBEB"/>
<path d="M642.457 481.266H597.375V481.623H642.457V481.266Z" fill="#EBEBEB"/>
<path d="M478.865 477.395H431.156V477.752H478.865V477.395Z" fill="#EBEBEB"/>
<path d="M655.481 494.534H566.331V494.891H655.481V494.534Z" fill="#EBEBEB"/>
<path d="M102.373 492.134H74.9128V492.491H102.373V492.134Z" fill="#EBEBEB"/>
<path d="M158.351 492.134H115.097V492.491H158.351V492.134Z" fill="#EBEBEB"/>
<path d="M348.632 486.093H270.72V486.45H348.632V486.093Z" fill="#EBEBEB"/>
<path d="M534.986 467.655V219.488H472.782V467.655H534.986Z" fill="#F0F0F0"/>
<path d="M531.573 281.473V226.743H476.195V281.473H531.573Z" fill="#F5F5F5"/>
<path d="M516.151 226.015H491.632C491.632 229.143 494.174 231.685 497.301 231.685H510.467C513.594 231.685 516.136 229.143 516.136 226.015H516.151Z" fill="#E6E6E6"/>
<path d="M531.573 341.115V286.386H476.195V341.115H531.573Z" fill="#F5F5F5"/>
<path d="M531.573 400.771V346.042H476.195V400.771H531.573Z" fill="#F5F5F5"/>
<path d="M531.573 460.414V405.685H476.195V460.414H531.573Z" fill="#F5F5F5"/>
<path d="M516.151 285.672H491.632C491.632 288.799 494.174 291.342 497.301 291.342H510.467C513.594 291.342 516.136 288.799 516.136 285.672H516.151Z" fill="#E6E6E6"/>
<path d="M516.151 345.314H491.632C491.632 348.442 494.174 350.984 497.301 350.984H510.467C513.594 350.984 516.136 348.442 516.136 345.314H516.151Z" fill="#E6E6E6"/>
<path d="M516.151 404.956H491.632C491.632 408.084 494.174 410.626 497.301 410.626H510.467C513.594 410.626 516.136 408.084 516.136 404.956H516.151Z" fill="#E6E6E6"/>
<path d="M566.059 467.669V219.502H534.986V467.669H566.059Z" fill="#F5F5F5"/>
<path d="M602.802 467.669V219.502H540.598V467.669H602.802Z" fill="#F0F0F0"/>
<path d="M599.389 281.472V226.743H544.011V281.472H599.389Z" fill="#F5F5F5"/>
<path d="M583.966 226.015H559.448C559.448 229.143 561.989 231.685 565.117 231.685H578.283C581.41 231.685 583.952 229.143 583.952 226.015H583.966Z" fill="#E6E6E6"/>
<path d="M599.389 341.115V286.385H544.011V341.115H599.389Z" fill="#F5F5F5"/>
<path d="M599.389 400.757V346.028H544.011V400.757H599.389Z" fill="#F5F5F5"/>
<path d="M599.403 460.414V405.684H544.025V460.414H599.403Z" fill="#F5F5F5"/>
<path d="M583.966 285.671H559.448C559.448 288.799 561.989 291.341 565.117 291.341H578.283C581.41 291.341 583.952 288.799 583.952 285.671H583.966Z" fill="#E6E6E6"/>
<path d="M583.966 345.314H559.448C559.448 348.442 561.989 350.984 565.117 350.984H578.283C581.41 350.984 583.952 348.442 583.952 345.314H583.966Z" fill="#E6E6E6"/>
<path d="M583.966 404.956H559.448C559.448 408.084 561.989 410.626 565.117 410.626H578.283C581.41 410.626 583.952 408.084 583.952 404.956H583.966Z" fill="#E6E6E6"/>
<path d="M633.875 467.669V219.502H602.801V467.669H633.875Z" fill="#F5F5F5"/>
<path d="M594.991 169.943H576.826V219.502H594.991V169.943Z" fill="#E0E0E0"/>
<path d="M519.792 219.502H589.079L599.389 139.294H530.102L519.792 219.502Z" fill="#E6E6E6"/>
<path d="M511.881 219.502H587.308L597.632 139.294H522.191L511.881 219.502Z" fill="#F0F0F0"/>
<path d="M581.81 213.175L590.492 145.621H527.703L519.007 213.175H581.81Z" fill="white"/>
<path d="M565.784 191.171C573.176 184.238 574.227 173.347 568.131 166.845C562.035 160.343 551.1 160.693 543.708 167.627C536.315 174.56 535.264 185.451 541.36 191.953C547.456 198.455 558.391 198.105 565.784 191.171Z" fill="#E6E6E6"/>
<path d="M257.611 467.655H451.391L451.391 58.0569H257.611L257.611 467.655Z" fill="#E6E6E6"/>
<path d="M253.299 467.655H447.078L447.078 58.0569H253.299L253.299 467.655Z" fill="#F5F5F5"/>
<path d="M439.353 458.985V66.7546L261.038 66.7546V458.985H439.353Z" fill="white"/>
<path d="M264.294 458.971V66.7405H261.038V458.971H264.294Z" fill="#E6E6E6"/>
<path d="M256.512 193.966L443.894 193.966V182.312L256.512 182.312V193.966Z" fill="#F5F5F5"/>
<path d="M192.937 456.558H219.941L219.941 281.416H192.937L192.937 456.558Z" fill="#F0F0F0"/>
<path d="M81.5675 467.655H214.757V456.558H81.5675V467.655Z" fill="#F0F0F0"/>
<path d="M192.937 281.43H76.3838V456.572H192.937V281.43Z" fill="#F5F5F5"/>
<path d="M182.313 302.982H86.9939V360.425H182.313V302.982Z" fill="#F0F0F0"/>
<path d="M182.313 377.563H86.9939V435.006H182.313V377.563Z" fill="#F0F0F0"/>
<path d="M106.315 341.815V321.591C106.315 319.809 104.87 318.364 103.087 318.364H101.659C99.877 318.364 98.4322 319.809 98.4322 321.591V341.815C98.4322 343.597 99.877 345.043 101.659 345.043H103.087C104.87 345.043 106.315 343.597 106.315 341.815Z" fill="#F5F5F5"/>
<path d="M106.329 416.411V396.187C106.329 394.404 104.884 392.959 103.102 392.959H101.674C99.8912 392.959 98.4463 394.404 98.4463 396.187V416.411C98.4463 418.193 99.8912 419.638 101.674 419.638H103.102C104.884 419.638 106.329 418.193 106.329 416.411Z" fill="#F5F5F5"/>
<path d="M192.394 182.497C189.367 184.011 181.156 182.383 183.898 187.939C185.183 190.553 187.282 193.338 189.51 196.094C192.566 199.865 191.995 203.949 188.382 205.435C187.511 205.792 186.797 206.249 186.383 206.82C184.726 209.205 188.653 212.404 190.567 214.789C192.423 217.089 193.266 219.531 191.852 221.302C190.281 223.259 186.997 222.545 184.398 223.13C178.143 224.558 184.569 233.185 183.912 237.627C183.455 240.669 180.999 241.511 177.643 241.94C174.916 242.283 171.274 242.54 171.117 245.339C170.989 247.753 174.145 250.509 174.959 253.051C175.758 255.522 175.487 257.922 174.359 259.764C173.345 261.406 171.66 262.506 169.446 262.977C166.348 263.634 161.664 262.949 161.435 266.448C161.335 268.005 162.421 269.39 161.664 270.833C161.021 272.047 159.579 272.661 158.022 272.975C155.538 273.475 151.939 273.346 149.083 272.818C145.442 272.147 140.072 268.947 142.043 265.848C142.6 264.977 143.657 264.477 144.856 264.234C145.727 264.063 148.269 264.334 148.598 263.749C148.926 263.163 148.041 260.878 148.012 260.05C147.898 257.679 148.326 255.436 149.069 253.38C150.083 250.581 151.668 248.067 153.767 245.939C154.624 245.068 156.009 244.425 156.18 243.154C156.352 241.94 155.552 240.483 154.667 239.24C153.267 237.284 151.111 235.413 150.34 233.313C149.112 230.014 152.082 228.972 154.838 228.229C157.323 227.558 160.607 226.686 159.75 223.659C159.136 221.474 156.395 219.688 155.566 217.56C154.467 214.704 157.151 214.589 159.093 213.575C161.607 212.247 162.235 209.891 161.321 206.891C159.822 201.95 150.768 194.994 155.409 191.781C156.58 190.967 157.68 190.695 158.379 189.467C159.136 188.153 159.251 186.525 160.236 185.34C161.792 183.454 165.02 183.14 166.705 181.383C170.16 177.799 162.692 171.429 169.504 169.915C171.06 169.572 172.445 169.244 173.488 168.272C174.116 167.687 174.616 164.873 175.316 164.673C178.443 163.802 184.083 169.872 185.854 171.743C188.01 174.028 195.993 180.727 192.366 182.54L192.394 182.497Z" fill="#E0E0E0"/>
<path d="M138.773 266.177C140.629 262.735 148.741 259.307 143.357 255.322C140.829 253.451 137.488 251.894 134.046 250.466C129.334 248.51 127.649 243.954 130.048 240.197C130.633 239.283 131.019 238.384 131.062 237.541C131.248 234.07 126.078 233.228 123.108 231.985C120.223 230.785 118.181 228.814 118.495 226.115C118.838 223.13 122.108 221.83 124.093 219.602C128.848 214.261 118.553 209.419 116.768 204.463C115.54 201.064 117.267 198.679 119.981 196.151C122.208 194.095 125.278 191.581 123.922 188.624C122.737 186.068 118.495 185.211 116.396 183.126C114.369 181.098 113.312 178.456 113.34 175.885C113.355 173.585 114.254 171.4 115.954 169.544C118.338 166.944 122.837 164.73 121.166 161.003C120.423 159.346 118.724 158.603 118.61 156.661C118.524 155.019 119.481 153.49 120.68 152.205C122.608 150.148 125.85 148.049 128.649 146.821C132.219 145.235 138.673 145.192 138.587 149.577C138.559 150.805 137.888 151.991 136.974 152.976C136.303 153.705 133.904 155.004 133.932 155.804C133.961 156.618 135.946 158.389 136.431 159.218C137.802 161.588 138.616 164.145 139.073 166.716C139.687 170.215 139.63 173.771 138.916 177.256C138.63 178.684 137.745 180.198 138.273 181.612C138.773 182.954 140.258 183.968 141.7 184.683C143.985 185.825 146.884 186.396 148.698 188.067C151.539 190.681 149.483 193.595 147.455 196.08C145.627 198.322 143.2 201.25 145.556 203.821C147.27 205.677 150.64 205.792 152.51 207.463C155.009 209.705 152.696 211.49 151.539 213.732C150.04 216.646 150.74 219.46 153.153 221.959C157.123 226.087 168.832 227.6 166.462 233.756C165.862 235.327 165.048 236.284 165.077 237.969C165.105 239.783 165.891 241.526 165.648 243.354C165.277 246.253 162.606 248.581 162.064 251.423C160.936 257.25 170.932 259.135 165.734 264.92C164.548 266.248 163.506 267.433 163.106 269.076C162.863 270.061 163.934 273.261 163.406 273.889C161.121 276.717 152.896 274.017 150.326 273.189C147.213 272.189 136.574 270.29 138.802 266.191L138.773 266.177Z" fill="#F5F5F5"/>
<path d="M117.981 258.421C117.981 258.421 118.967 281.43 156.623 281.43C194.279 281.43 195.265 258.421 195.265 258.421H117.967H117.981Z" fill="#F0F0F0"/>
<path d="M447.735 504.246L436.282 504.06L433.641 477.481L445.107 477.652L447.735 504.246Z" fill="white"/>
<path d="M506.712 504.289H495.245L486.305 477.738H497.772L506.712 504.289Z" fill="white"/>
<path d="M493.717 502.96H507.697C508.168 502.96 508.568 503.289 508.668 503.746L510.938 513.929C511.167 514.986 510.339 515.986 509.253 515.971C504.755 515.9 501.471 515.629 495.816 515.629C492.331 515.629 481.821 515.986 477.009 515.986C472.197 515.986 471.568 511.23 473.539 510.801C482.364 508.873 489.033 506.202 491.86 503.66C492.374 503.203 493.031 502.96 493.717 502.96Z" fill="#263238"/>
<path d="M436.382 502.746L448.892 502.946C449.363 502.946 449.763 503.289 449.848 503.746L451.948 513.972C452.162 515.029 451.348 516.014 450.263 515.986C445.75 515.843 439.224 515.471 433.555 515.386C426.915 515.286 421.188 515.557 413.406 515.429C408.708 515.357 407.465 510.573 409.45 510.173C418.447 508.359 425.772 508.259 433.598 503.603C434.455 503.103 435.383 502.732 436.368 502.76L436.382 502.746Z" fill="#263238"/>
<path d="M443.423 162.631C439.738 170.8 435.783 178.498 431.342 186.168C429.128 189.981 426.801 193.766 424.302 197.494C421.846 201.221 419.161 204.892 416.191 208.477L415.048 209.819L414.477 210.49C414.277 210.719 414.149 210.89 413.749 211.304C412.421 212.704 410.593 214.361 407.666 215.275C406.252 215.732 404.624 215.889 403.167 215.746C401.668 215.618 400.397 215.203 399.297 214.746C397.141 213.775 395.699 212.576 394.542 211.476C392.272 209.219 390.815 207.063 389.558 204.92C388.302 202.778 387.259 200.65 386.317 198.55C382.618 190.067 380.248 181.683 378.463 172.914L386.674 170.357C388.43 174.099 390.244 177.97 392.157 181.669C394.057 185.382 395.999 189.039 398.098 192.409C399.126 194.094 400.211 195.723 401.325 197.151C402.425 198.565 403.581 199.879 404.481 200.521C404.909 200.85 405.238 200.921 405.067 200.793C404.952 200.707 404.738 200.621 404.31 200.55C403.91 200.479 403.382 200.55 402.982 200.636C402.125 200.907 401.996 201.121 402.082 200.936L403.681 198.75C408.237 192.323 412.392 185.097 416.319 177.77C420.26 170.472 424.088 162.845 427.658 155.461L443.465 162.659L443.423 162.631Z" fill="white"/>
<path d="M448.192 155.447C451.277 165.959 429.528 194.637 429.528 194.637L407.594 180.512C407.594 180.512 414.049 165.887 422.802 154.733C431.784 143.279 444.808 143.907 448.206 155.447H448.192Z" fill="#407BFF"/>
<path opacity="0.2" d="M448.192 155.447C451.277 165.959 429.528 194.637 429.528 194.637L407.594 180.512C407.594 180.512 414.049 165.887 422.802 154.733C431.784 143.279 444.808 143.907 448.206 155.447H448.192Z" fill="black"/>
<path opacity="0.2" d="M434.812 167.801C430.299 169.729 423.659 180.598 420.203 188.653L429.514 194.637C429.514 194.637 437.896 183.597 443.508 172.7C440.566 169.472 437.196 166.787 434.812 167.801Z" fill="black"/>
<path d="M386.445 174.442L389.258 161.517L376.207 161.417C376.207 161.417 372.722 171.129 379.734 175.656L386.445 174.442Z" fill="white"/>
<path d="M387.773 149.391L377.32 153.162L376.221 161.417L389.258 161.517L387.773 149.391Z" fill="white"/>
<path opacity="0.2" d="M433.655 477.481L435.012 491.192L446.464 491.363L445.122 477.667L433.655 477.481Z" fill="black"/>
<path opacity="0.2" d="M497.787 477.752H486.305L490.918 491.435H502.385L497.787 477.752Z" fill="black"/>
<path d="M499.286 150.805C486.934 194.352 489.433 240.569 488.319 249.923C479.351 249.267 445.579 246.753 427.172 245.382C419.147 180.127 435.197 146.606 435.197 146.606C435.197 146.606 439.124 145.849 444.479 145.292C446.15 145.121 447.964 144.964 449.849 144.864C450.891 144.807 451.948 144.764 453.019 144.75C459.93 144.635 471.226 145.735 479.008 146.692C480.636 146.892 482.293 147.135 483.906 147.406C485.391 147.663 486.862 147.935 488.233 148.206C494.474 149.448 499.286 150.805 499.286 150.805Z" fill="#407BFF"/>
<path opacity="0.2" d="M499.286 150.805C486.934 194.352 489.433 240.569 488.319 249.923C479.351 249.267 445.579 246.753 427.172 245.382C419.147 180.127 435.197 146.606 435.197 146.606C435.197 146.606 439.124 145.849 444.479 145.292C446.15 145.121 447.964 144.964 449.849 144.864C450.891 144.807 451.948 144.764 453.019 144.75C459.93 144.635 471.226 145.735 479.008 146.692C480.636 146.892 482.293 147.135 483.906 147.406C485.391 147.663 486.862 147.935 488.233 148.206C494.474 149.448 499.286 150.805 499.286 150.805Z" fill="black"/>
<path opacity="0.2" d="M486.234 169.486C485.134 173.7 486.391 192.923 490.789 197.665C491.389 191.509 492.189 185.082 493.246 178.513L486.234 169.486Z" fill="black"/>
<path d="M478.608 117.228C476.352 125.469 473.568 140.665 479.008 146.692C474.124 150.877 467.798 155.647 457.845 155.261C447.892 154.876 450.134 148.163 453.019 144.764C462.515 143.236 462.786 136.295 461.644 129.668L478.608 117.228Z" fill="white"/>
<path d="M478.094 144.321C478.094 144.321 473.982 151.105 457.446 155.233C460.187 157.761 461.515 163.759 461.515 163.759C461.515 163.759 483.092 158.546 482.436 146.463C481.307 145.321 478.094 144.321 478.094 144.321Z" fill="#263238"/>
<path d="M451.562 162.245C451.562 162.245 453.733 157.018 457.445 155.233C455.718 153.433 453.119 148.049 454.675 144.078C452.105 143.964 450.834 144.321 450.834 144.321C450.834 144.321 444.294 152.562 451.562 162.245Z" fill="#263238"/>
<path d="M456.731 162.388C456.531 163.516 455.889 164.331 455.275 164.231C454.675 164.131 454.347 163.131 454.532 162.003C454.718 160.874 455.375 160.06 455.989 160.16C456.589 160.26 456.917 161.26 456.731 162.388Z" fill="#263238"/>
<path d="M455.761 168.829C455.661 169.958 455.089 170.843 454.475 170.786C453.861 170.729 453.447 169.772 453.547 168.629C453.647 167.501 454.218 166.616 454.832 166.673C455.446 166.73 455.86 167.687 455.761 168.829Z" fill="#263238"/>
<path opacity="0.2" d="M471.697 122.298L461.658 129.653C461.929 131.224 462.115 132.795 462.115 134.324C465.713 134.067 470.897 130.525 471.554 126.826C471.882 124.983 471.94 123.184 471.697 122.298Z" fill="black"/>
<path d="M455.675 86.0642C446.764 85.8785 444.979 107.402 450.748 111.158C456.517 114.914 472.354 86.4212 455.675 86.0642Z" fill="#263238"/>
<path d="M480.536 104.717C478.994 115.985 478.666 122.669 472.525 128.054C463.272 136.152 449.677 129.925 447.821 118.428C446.15 108.073 448.949 91.3772 460.359 87.6924C471.611 84.0648 482.079 93.4481 480.536 104.717Z" fill="white"/>
<path d="M478.923 115.757C473.182 118.77 466.613 87.5783 481.807 89.2064C500.814 91.2488 490.39 109.744 478.923 115.757Z" fill="#263238"/>
<path d="M453.49 89.1349C453.49 96.1189 476.152 103.06 483.921 100.675C491.689 98.2898 493.631 92.177 489.476 87.821C482.421 80.4371 453.49 75.4383 453.49 89.1349Z" fill="#263238"/>
<path d="M454.404 90.0775C454.404 90.0775 454.918 93.2196 457.674 96.2474C455.646 96.1332 453.633 93.2625 452.99 91.5772C452.348 89.9062 454.404 90.0633 454.404 90.0633V90.0775Z" fill="#263238"/>
<path d="M484.72 117.585C482.921 120.07 480.136 121.484 477.652 121.841C473.896 122.384 472.511 118.899 473.967 115.614C475.281 112.658 478.808 108.816 482.378 109.787C485.891 110.744 486.791 114.743 484.734 117.585H484.72Z" fill="white"/>
<path d="M430.756 488.478L450.163 488.778C450.163 488.778 443.694 412.097 445.436 376.42C445.964 365.566 448.149 350.384 451.019 334.117C454.647 313.622 456.389 305.438 461.058 279.53C464.4 261.049 467.37 248.381 467.37 248.381L427.172 245.396C427.172 245.396 410.121 337.802 410.521 372.793C410.921 409.169 430.756 488.493 430.756 488.493V488.478Z" fill="#263238"/>
<path opacity="0.2" d="M453.219 272.861C445.993 290.856 445.85 333.017 449.177 344.885C449.748 341.372 450.362 337.773 451.005 334.117C454.632 313.608 456.374 305.438 461.058 279.53C461.144 279.016 461.244 278.516 461.33 278.016C458.845 275.831 456.117 273.989 453.219 272.861Z" fill="black"/>
<path d="M448.863 246.996C448.863 246.996 452.419 343.672 455.104 377.149C458.059 413.811 485.534 488.778 485.534 488.778H506.526C506.526 488.778 492.517 420.167 488.219 384.561C483.321 344 488.305 249.938 488.305 249.938L448.849 246.996H448.863Z" fill="#263238"/>
<path d="M483.021 489.235H507.74V481.851L480.108 481.366L483.021 489.235Z" fill="#407BFF"/>
<path d="M428.314 488.893L451.434 489.25L451.548 481.78L425.701 480.98L428.314 488.893Z" fill="#407BFF"/>
<path d="M463.129 106.602C463.058 107.53 462.515 108.23 461.915 108.187C461.315 108.145 460.873 107.359 460.944 106.431C461.015 105.502 461.558 104.803 462.158 104.845C462.758 104.888 463.2 105.674 463.129 106.602Z" fill="#263238"/>
<path d="M452.704 105.831C452.633 106.759 452.09 107.459 451.491 107.416C450.891 107.373 450.448 106.588 450.52 105.659C450.591 104.731 451.134 104.031 451.733 104.074C452.333 104.117 452.776 104.902 452.704 105.831Z" fill="#263238"/>
<path d="M455.989 106.531C455.989 106.531 453.49 111.701 450.991 114.086C452.505 115.728 455.332 115.243 455.332 115.243L455.975 106.531H455.989Z" fill="white"/>
<path d="M459.045 117.999C462.586 117.785 464.4 115.471 464.471 115.371C464.557 115.257 464.543 115.086 464.414 114.986C464.3 114.9 464.129 114.914 464.029 115.043C464.014 115.071 461.901 117.756 457.86 117.456C457.717 117.456 457.574 117.556 457.574 117.714C457.574 117.871 457.674 117.999 457.831 117.999C458.259 118.028 458.659 118.028 459.031 117.999H459.045Z" fill="#263238"/>
<path d="M466.599 103.474C466.685 103.474 466.785 103.446 466.856 103.388C467.113 103.231 467.184 102.889 467.013 102.631C465.385 100.104 462.872 100.075 462.772 100.075C462.472 100.075 462.229 100.318 462.229 100.618C462.229 100.918 462.472 101.16 462.772 101.16C462.858 101.16 464.814 101.218 466.113 103.231C466.228 103.403 466.413 103.488 466.599 103.474Z" fill="#263238"/>
<path d="M448.478 101.903C448.649 101.903 448.82 101.803 448.92 101.632C450.12 99.5609 452.076 99.4181 452.162 99.4181C452.462 99.4038 452.69 99.1467 452.676 98.8468C452.662 98.5469 452.405 98.3184 452.105 98.3327C451.991 98.3327 449.492 98.4898 447.992 101.089C447.835 101.346 447.935 101.675 448.192 101.832C448.292 101.889 448.392 101.917 448.492 101.903H448.478Z" fill="#263238"/>
<path d="M489.918 504.96C490.975 504.96 492.117 504.746 492.917 504.546C493.017 504.517 493.103 504.431 493.117 504.331C493.131 504.217 493.088 504.117 492.988 504.06C492.574 503.803 488.876 501.532 487.605 502.175C487.405 502.275 487.162 502.489 487.134 502.946C487.091 503.56 487.291 504.032 487.691 504.374C488.205 504.817 489.019 504.96 489.904 504.96H489.918ZM492.132 504.16C490.19 504.546 488.69 504.474 488.062 503.96C487.791 503.732 487.662 503.403 487.691 502.975C487.691 502.76 487.791 502.689 487.862 502.661C488.519 502.318 490.632 503.303 492.132 504.174V504.16Z" fill="#407BFF"/>
<path d="M492.86 504.56C492.86 504.56 492.96 504.546 493.003 504.517C493.088 504.46 493.131 504.374 493.131 504.274C493.131 504.132 492.846 500.832 491.518 499.733C491.175 499.447 490.775 499.333 490.361 499.39C489.718 499.476 489.547 499.876 489.504 500.104C489.261 501.375 491.56 503.889 492.746 504.532C492.789 504.56 492.831 504.56 492.874 504.56H492.86ZM490.547 499.918C490.775 499.918 490.975 499.99 491.175 500.161C492.032 500.861 492.389 502.789 492.531 503.746C491.346 502.846 489.89 500.947 490.032 500.204C490.032 500.133 490.075 499.976 490.432 499.933C490.432 499.933 490.518 499.933 490.561 499.933L490.547 499.918Z" fill="#407BFF"/>
<path d="M435.226 504.303C435.326 504.274 435.397 504.189 435.411 504.089C435.426 503.975 435.369 503.86 435.269 503.803C434.755 503.532 430.185 501.118 428.771 501.875C428.5 502.018 428.343 502.275 428.314 502.589C428.271 503.132 428.428 503.575 428.8 503.917C430.042 505.046 433.327 504.646 435.183 504.317C435.183 504.317 435.211 504.317 435.226 504.317V504.303ZM429.128 502.318C429.999 502.032 432.484 503.018 434.283 503.917C431.741 504.303 429.856 504.16 429.171 503.517C428.928 503.289 428.828 503.003 428.857 502.646C428.857 502.503 428.928 502.418 429.028 502.361C429.057 502.346 429.085 502.332 429.128 502.318Z" fill="#407BFF"/>
<path d="M435.226 504.303C435.226 504.303 435.269 504.289 435.297 504.274C435.383 504.217 435.426 504.132 435.412 504.032C435.412 503.903 435.14 500.804 433.698 499.59C433.255 499.219 432.755 499.047 432.199 499.104C431.456 499.161 431.227 499.547 431.17 499.847C430.942 501.147 433.641 503.66 435.012 504.303C435.069 504.332 435.14 504.332 435.212 504.303H435.226ZM431.97 499.69C431.97 499.69 432.127 499.647 432.241 499.633C432.655 499.604 433.012 499.718 433.341 499.99C434.283 500.79 434.669 502.646 434.798 503.546C433.398 502.675 431.57 500.704 431.699 499.918C431.699 499.876 431.727 499.747 431.956 499.676L431.97 499.69Z" fill="#407BFF"/>
<path d="M502.227 157.946C506.226 165.973 509.81 173.999 513.109 182.283C514.78 186.411 516.322 190.581 517.835 194.809C518.578 196.922 519.292 199.05 519.977 201.207L520.492 202.821L521.048 204.678C521.448 205.949 521.691 207.22 521.977 208.491C523.862 218.674 522.748 228.329 520.663 237.369C519.606 241.897 518.235 246.296 516.65 250.58C515.836 252.723 514.965 254.822 514.037 256.907C513.109 259.021 512.166 261.006 511.01 263.149L503.113 259.721C504.212 255.822 505.326 251.623 506.112 247.524C506.968 243.411 507.625 239.283 508.082 235.198C508.482 231.114 508.753 227.058 508.568 223.13C508.468 219.202 507.939 215.403 506.997 211.933C506.726 211.09 506.511 210.219 506.183 209.419C506.012 208.991 505.912 208.648 505.712 208.162L505.098 206.691C504.298 204.735 503.427 202.778 502.599 200.821C500.928 196.894 499.129 192.995 497.372 189.067L486.591 165.602L502.227 158.018V157.946Z" fill="white"/>
<path d="M499.286 150.805C509.739 154.076 520.035 189.553 520.035 189.553L495.844 200.15C495.844 200.15 488.019 183.011 483.521 169.586C478.623 154.961 486.634 146.849 499.3 150.819L499.286 150.805Z" fill="#407BFF"/>
<path opacity="0.2" d="M499.286 150.805C509.739 154.076 520.035 189.553 520.035 189.553L495.844 200.15C495.844 200.15 488.019 183.011 483.521 169.586C478.623 154.961 486.634 146.849 499.3 150.819L499.286 150.805Z" fill="black"/>
<path d="M503.756 257.693L498.115 267.876L511.41 271.332C511.41 271.332 515.437 261.449 510.681 258.321L503.756 257.678V257.693Z" fill="white"/>
<path d="M497.13 279.445L509.339 280.459L511.41 271.347L498.115 267.876L497.13 279.445Z" fill="white"/>
<path opacity="0.19" d="M423.759 334.659H121.623L142.929 32.4917H445.065L423.759 334.659Z" fill="#407BFF"/>
<path opacity="0.2" d="M189.695 334.659H146.241L254.498 32.4917H297.952L189.695 334.659Z" fill="white"/>
<path opacity="0.2" d="M295.239 334.659H199.392L307.648 32.4917H403.481L295.239 334.659Z" fill="white"/>
<path d="M143.728 84.0932L134.889 83.4648L138.787 28.05H194.208V36.9336H147.055L143.728 84.0932Z" fill="#407BFF"/>
<path d="M172.902 339.087H116.853L120.809 283.072L129.662 283.686L126.378 330.218H172.902V339.087Z" fill="#407BFF"/>
<path d="M445.864 84.0932L437.025 83.4648L440.295 36.9336H393.771V28.05H449.82L445.864 84.0932Z" fill="#407BFF"/>
<path d="M427.886 339.087H372.479V330.218H419.618L422.945 283.072L431.799 283.686L427.886 339.087Z" fill="#407BFF"/>
<g opacity="0.3">
<path d="M277.389 290.099C277.132 290.099 276.875 290.028 276.632 289.913C276.547 289.87 274.447 288.714 270.92 286.557C269.435 285.657 267.693 284.558 265.737 283.301C259.525 279.259 253.542 275.017 247.929 270.647C246.573 269.59 245.216 268.504 243.817 267.376C238.647 263.149 233.878 258.892 229.637 254.722C228.552 253.651 227.466 252.565 226.395 251.451C222.368 247.267 218.67 242.996 215.442 238.755C214.614 237.683 213.815 236.584 213.029 235.47C210.016 231.242 207.403 226.943 205.275 222.701C204.732 221.63 204.19 220.516 203.69 219.388C201.762 215.132 200.291 210.804 199.306 206.548C199.063 205.534 198.835 204.449 198.621 203.221C198.478 202.421 198.349 201.578 198.235 200.736C197.807 197.465 197.421 194.137 197.064 190.538C196.95 189.467 196.85 188.396 196.75 187.31C196.379 183.083 196.079 178.841 195.85 174.671L195.822 174.242C195.765 173.285 195.708 172.357 195.665 171.414C195.465 167.301 195.322 163.059 195.251 158.803L195.208 155.561C195.165 151.062 195.165 146.82 195.236 142.95C195.236 141.864 195.279 140.779 195.293 139.708C195.393 135.052 195.55 130.81 195.736 127.097V126.854C195.793 125.826 195.85 124.826 195.907 123.84C196.164 119.242 196.464 114.871 196.764 111.229C196.864 109.972 196.95 108.916 197.05 107.973C197.378 104.374 197.621 102.374 197.621 102.374C197.707 101.632 198.321 101.046 199.063 101.003C199.32 100.989 225.667 98.9609 253.741 94.0193C259.425 93.0195 264.965 91.9341 270.178 90.8058C277.875 89.1348 284.929 87.3067 291.126 85.3643C291.441 85.2643 291.769 85.2643 292.083 85.3643C298.009 87.2924 304.792 89.1205 312.261 90.8058C317.316 91.9484 322.7 93.0195 328.24 94.0193C355.601 98.9609 381.662 100.975 381.919 101.003C382.747 101.06 383.39 101.774 383.375 102.603C383.375 102.603 383.332 104.617 383.161 108.216C383.118 109.187 383.061 110.272 382.99 111.472C382.79 115.143 382.461 119.499 382.076 124.083C382.004 124.997 381.919 125.926 381.833 126.868L381.79 127.34C381.447 131.081 381.005 135.323 380.462 139.951C380.334 141.05 380.205 142.122 380.062 143.193C379.577 147.077 378.991 151.319 378.306 155.79L377.806 159.017C377.121 163.316 376.378 167.558 375.607 171.643C375.436 172.557 375.25 173.485 375.064 174.414L374.964 174.899C374.15 179.041 373.251 183.283 372.28 187.51C372.023 188.596 371.766 189.681 371.509 190.767C370.652 194.351 369.795 197.679 368.91 200.95C368.681 201.778 368.438 202.621 368.167 203.435C367.782 204.649 367.41 205.749 367.01 206.763C365.44 210.976 363.369 215.289 360.841 219.545C360.199 220.645 359.513 221.759 358.799 222.844C356.086 227.058 352.873 231.342 349.275 235.57C348.332 236.669 347.39 237.769 346.404 238.84C342.592 243.068 338.308 247.324 333.681 251.509C332.453 252.623 331.225 253.708 329.997 254.779C325.17 258.95 319.801 263.191 314.06 267.405C312.504 268.533 310.99 269.618 309.491 270.661C303.264 275.017 296.696 279.273 289.927 283.286C287.785 284.543 285.886 285.629 284.272 286.543C280.445 288.699 278.189 289.842 278.103 289.899C277.875 290.013 277.632 290.07 277.389 290.07V290.099ZM200.606 104.045C200.506 104.988 200.363 106.416 200.177 108.287C200.091 109.23 200.006 110.258 199.906 111.401C199.592 115.114 199.292 119.442 199.035 124.026C198.978 124.997 198.935 125.983 198.878 127.011V127.254C198.678 130.939 198.535 135.152 198.421 139.779C198.392 140.836 198.364 141.907 198.364 142.993C198.292 146.835 198.292 151.048 198.335 155.518L198.378 158.746C198.464 162.959 198.606 167.172 198.792 171.257C198.835 172.186 198.892 173.114 198.949 174.056L198.978 174.485C199.206 178.627 199.506 182.826 199.877 186.996C199.977 188.067 200.077 189.138 200.191 190.21C200.548 193.78 200.92 197.079 201.348 200.307C201.448 201.093 201.562 201.878 201.705 202.649C201.905 203.82 202.119 204.849 202.362 205.806C203.304 209.876 204.718 214.004 206.56 218.088C207.046 219.174 207.546 220.231 208.074 221.259C210.145 225.372 212.658 229.528 215.585 233.627C216.342 234.699 217.128 235.77 217.927 236.812C221.097 240.968 224.71 245.153 228.651 249.252C229.708 250.352 230.765 251.409 231.836 252.466C236.006 256.564 240.704 260.749 245.802 264.92C247.173 266.019 248.515 267.09 249.857 268.147C255.398 272.446 261.31 276.645 267.436 280.63C269.349 281.858 271.077 282.944 272.562 283.843C274.833 285.243 276.532 286.214 277.418 286.728C278.374 286.229 280.217 285.243 282.73 283.829C284.329 282.929 286.214 281.844 288.328 280.616C295.011 276.631 301.522 272.432 307.677 268.119C309.162 267.076 310.661 266.005 312.189 264.891C317.873 260.721 323.171 256.536 327.926 252.423C329.14 251.366 330.354 250.295 331.567 249.209C336.108 245.096 340.321 240.911 344.062 236.755C345.033 235.698 345.962 234.627 346.876 233.556C350.388 229.428 353.516 225.272 356.158 221.159C356.843 220.102 357.514 219.031 358.128 217.974C360.556 213.861 362.555 209.719 364.069 205.663C364.454 204.692 364.811 203.649 365.168 202.492C365.425 201.707 365.654 200.921 365.868 200.121C366.753 196.894 367.596 193.594 368.453 190.024C368.724 188.938 368.967 187.867 369.224 186.796C370.181 182.611 371.08 178.398 371.88 174.285L371.98 173.785C372.165 172.871 372.337 171.957 372.508 171.043C373.279 166.987 374.008 162.774 374.693 158.517L375.179 155.29C375.85 150.848 376.435 146.635 376.921 142.764C377.064 141.693 377.178 140.622 377.306 139.579C377.849 134.952 378.306 130.739 378.634 127.025L378.677 126.554C378.763 125.611 378.849 124.697 378.92 123.798C379.305 119.256 379.62 114.928 379.834 111.286C379.905 110.101 379.962 109.03 380.005 108.073C380.091 106.33 380.148 104.959 380.177 104.017C374.236 103.517 351.445 101.403 327.669 97.1185C322.071 96.1045 316.659 95.019 311.561 93.8765C304.207 92.2197 297.481 90.4202 291.583 88.5206C285.4 90.4345 278.432 92.234 270.849 93.8907C265.58 95.0333 260.01 96.133 254.284 97.1328C229.623 101.475 206.275 103.574 200.606 104.045Z" fill="#407BFF"/>
<path d="M299.455 166.92C307.166 159.474 307.791 147.61 300.851 140.42C293.911 133.23 282.034 133.436 274.323 140.882C266.612 148.327 265.987 160.191 272.927 167.381C279.867 174.571 291.744 174.365 299.455 166.92Z" fill="#407BFF"/>
<path d="M290.998 160.446H286.414H281.845L268.907 220.802H295.425L290.998 160.446Z" fill="#407BFF"/>
<g opacity="0.2">
<path d="M327.969 95.5761H254.013C259.496 94.6192 265.051 93.5338 270.52 92.3484H311.918C317.216 93.5338 322.628 94.6192 327.969 95.5761Z" fill="#407BFF"/>
<path d="M381.419 111.386H198.349C198.449 110.201 198.535 109.116 198.635 108.159H381.605C381.562 109.116 381.505 110.201 381.433 111.386H381.419Z" fill="#407BFF"/>
<path d="M380.505 123.94C380.419 124.997 380.32 126.068 380.22 127.182H197.321C197.378 126.068 197.421 124.983 197.493 123.94H380.519H380.505Z" fill="#407BFF"/>
<path d="M378.891 139.751C378.763 140.822 378.634 141.893 378.492 142.979H196.807C196.807 141.893 196.85 140.808 196.864 139.751H378.877H378.891Z" fill="#407BFF"/>
<path d="M376.749 155.547C376.578 156.618 376.421 157.689 376.25 158.775H196.821C196.821 157.689 196.793 156.618 196.779 155.547H376.735H376.749Z" fill="#407BFF"/>
<path d="M374.065 171.343C373.865 172.414 373.651 173.5 373.437 174.585H197.436C197.378 173.5 197.307 172.414 197.264 171.343H374.079H374.065Z" fill="#407BFF"/>
<path d="M370.752 187.153C370.495 188.224 370.252 189.31 369.981 190.381H198.649C198.535 189.31 198.435 188.224 198.335 187.153H370.766H370.752Z" fill="#407BFF"/>
<path d="M366.668 202.964C366.325 204.049 365.954 205.135 365.54 206.206H200.848C200.577 205.135 200.363 204.049 200.177 202.964H366.668Z" fill="#407BFF"/>
<path d="M359.485 218.76C358.857 219.845 358.171 220.945 357.486 222.002H206.689C206.146 220.931 205.618 219.845 205.147 218.76H359.499H359.485Z" fill="#407BFF"/>
<path d="M348.075 234.57C347.147 235.656 346.205 236.741 345.233 237.798H216.699C215.871 236.727 215.086 235.656 214.314 234.57H348.075Z" fill="#407BFF"/>
<path d="M332.624 250.366C331.41 251.466 330.182 252.551 328.954 253.608H230.736C229.651 252.537 228.594 251.466 227.523 250.366H332.61H332.624Z" fill="#407BFF"/>
<path d="M313.118 266.162C311.575 267.276 310.076 268.362 308.577 269.404H248.9C247.558 268.347 246.202 267.276 244.816 266.162H313.118Z" fill="#407BFF"/>
<path d="M289.127 281.973C287.014 283.215 285.115 284.301 283.515 285.2H271.749C270.263 284.301 268.536 283.215 266.594 281.973H289.127Z" fill="#407BFF"/>
</g>
</g>
</g>
<defs>
<clipPath id="clip0_206_163">
<rect width="714" height="516" fill="white"/>
</clipPath>
</defs>
</svg>
