<svg width="647" height="648" viewBox="0 0 647 648" fill="none" xmlns="http://www.w3.org/2000/svg">
<g clip-path="url(#clip0_206_310)">
<path d="M689 489.984H-40V490.348H689V489.984Z" fill="#E0E0E0"/>
<path d="M58.7503 510.775H35.3348V511.139H58.7503V510.775Z" fill="#E0E0E0"/>
<path d="M286.417 506.823H208.37V507.188H286.417V506.823Z" fill="#E0E0E0"/>
<path d="M113.061 524.319H60.2084V524.684H113.061V524.319Z" fill="#E0E0E0"/>
<path d="M574.605 506.634H511.634V506.999H574.605V506.634Z" fill="#E0E0E0"/>
<path d="M596.825 506.634H587.596V506.999H596.825V506.634Z" fill="#E0E0E0"/>
<path d="M499.606 515.717H421.034V516.082H499.606V515.717Z" fill="#E0E0E0"/>
<path d="M373.576 54.0037H294.217V203.622H373.576V54.0037Z" fill="#E0E0E0"/>
<path d="M369.698 54.0037H276.474V203.622H369.698V54.0037Z" fill="#EBEBEB"/>
<path d="M355.468 67.3005H290.631V190.34H355.468V67.3005Z" fill="white"/>
<path d="M276.474 54.0037C277.625 54.0037 290.645 67.3005 290.645 67.3005H355.483L369.698 54.0037H276.474Z" fill="#E0E0E0"/>
<path d="M369.698 203.622C368.546 203.622 355.526 190.34 355.526 190.34H290.689L276.474 203.622H369.698Z" fill="#E0E0E0"/>
<path d="M335.887 99.3323H312.807V135.796H335.887V99.3323Z" fill="#E0E0E0"/>
<path d="M232.559 23.24H15.1708V488.351H232.559V23.24Z" fill="#F5F5F5"/>
<path d="M84.1779 23.7214V488.001C84.1779 488.701 85.2714 488.701 85.2714 488.001V23.7214C85.2714 23.0216 84.1779 23.0216 84.1779 23.7214Z" fill="#E0E0E0"/>
<path d="M161.991 23.9985V489.59C161.991 490.29 163.085 490.29 163.085 489.59V23.9985C163.085 23.2987 161.991 23.2987 161.991 23.9985Z" fill="#E0E0E0"/>
<path d="M16.1914 83.3674H230.692C231.392 83.3674 231.392 82.2739 230.692 82.2739H16.1914C15.4915 82.2739 15.4915 83.3674 16.1914 83.3674Z" fill="#E0E0E0"/>
<path d="M16.1914 141.351H230.692C231.392 141.351 231.392 140.258 230.692 140.258H16.1914C15.4915 140.258 15.4915 141.351 16.1914 141.351Z" fill="#E0E0E0"/>
<path d="M16.1914 199.321H230.692C231.392 199.321 231.392 198.227 230.692 198.227H16.1914C15.4915 198.227 15.4915 199.321 16.1914 199.321Z" fill="#E0E0E0"/>
<path d="M16.1914 257.305H230.692C231.392 257.305 231.392 256.211 230.692 256.211H16.1914C15.4915 256.211 15.4915 257.305 16.1914 257.305Z" fill="#E0E0E0"/>
<path d="M16.1914 315.274H230.692C231.392 315.274 231.392 314.181 230.692 314.181H16.1914C15.4915 314.181 15.4915 315.274 16.1914 315.274Z" fill="#E0E0E0"/>
<path d="M16.1914 373.258H230.692C231.392 373.258 231.392 372.165 230.692 372.165H16.1914C15.4915 372.165 15.4915 373.258 16.1914 373.258Z" fill="#E0E0E0"/>
<path d="M16.1914 431.227H230.692C231.392 431.227 231.392 430.134 230.692 430.134H16.1914C15.4915 430.134 15.4915 431.227 16.1914 431.227Z" fill="#E0E0E0"/>
<path d="M25.7413 488.365L21.6589 29.9176C21.6589 29.9176 232.559 30.7049 232.559 29.8593V23.2546H15.1708V488.365H25.7413Z" fill="#E0E0E0"/>
<path opacity="0.3" d="M232.559 23.24C232.559 23.24 151.8 106.287 139.742 106.797C127.67 107.307 123.879 82.9881 100.42 99.0988C76.9608 115.195 15.1853 185.018 15.1853 185.018V222.546C15.1853 222.546 100.041 116.609 113.863 121.275C127.685 125.94 129.041 151.251 148.651 136.904C168.261 122.558 232.573 66.6149 232.573 66.6149V23.24H232.559Z" fill="white"/>
<path opacity="0.3" d="M15.1708 332.828C15.1708 332.828 90.0245 246.049 103.773 258.457C117.522 270.864 121.065 331.633 151.756 316.513C182.447 301.38 232.121 264.026 232.121 264.026V304.849C232.121 304.849 165.447 350.995 136.418 340.176C107.389 329.358 105.902 288.651 95.9877 294.6C86.0879 300.548 15.1708 389.719 15.1708 389.719V332.828Z" fill="white"/>
<path d="M636.614 627.617C636.614 638.873 500.262 648 332.082 648C163.901 648 27.5492 638.873 27.5492 627.617C27.5492 616.362 163.901 607.235 332.082 607.235C500.262 607.235 636.614 616.362 636.614 627.617Z" fill="#F5F5F5"/>
<path d="M605.865 556.949C605.646 557.503 604.917 556.439 605.15 553.217C605.296 551.278 605.705 548.857 606.2 546.977C608.139 539.512 607.177 534.365 609.116 526.9C612.82 512.656 620.241 494.927 632.226 486.397C636.381 483.438 642.986 481.921 645.989 486.047C648.249 489.138 646.995 493.439 645.654 497.026C643.554 502.654 641.469 508.296 639.37 513.924C636.075 522.774 632.75 531.711 627.516 539.585C622.282 547.443 614.905 554.252 605.85 556.949" fill="#407BFF"/>
<g opacity="0.3">
<path d="M605.865 556.949C605.646 557.503 604.917 556.439 605.15 553.217C605.296 551.278 605.705 548.857 606.2 546.977C608.139 539.512 607.177 534.365 609.116 526.9C612.82 512.656 620.241 494.927 632.226 486.397C636.381 483.438 642.986 481.921 645.989 486.047C648.249 489.138 646.995 493.439 645.654 497.026C643.554 502.654 641.469 508.296 639.37 513.924C636.075 522.774 632.75 531.711 627.516 539.585C622.282 547.443 614.905 554.252 605.85 556.949" fill="white"/>
</g>
<path d="M599.144 581.385C600.499 574.605 602.716 568.015 605.311 561.615C607.104 557.168 609.102 552.808 611.245 548.522C613.388 544.235 615.954 539.876 618.112 535.458C621.917 527.658 624.819 519.479 628.056 511.445C629.441 508.005 630.884 504.564 632.648 501.298C633.727 499.286 635.054 497.522 636.366 495.67C639.005 491.952 641.557 488.161 644.152 484.4C644.56 483.817 643.613 483.277 643.204 483.846C640.813 487.301 638.422 490.757 636.031 494.212C634.937 495.787 633.727 497.274 632.721 498.921C630.942 501.881 629.528 505.059 628.187 508.223C624.746 516.388 621.859 524.786 618.141 532.819C614.103 541.524 609.131 549.732 605.369 558.582C602.293 565.843 599.639 573.337 598.079 581.079C597.948 581.764 598.998 582.055 599.129 581.37L599.144 581.385Z" fill="#263238"/>
<path d="M579.533 572.273C583.222 556.002 580.889 538.433 573.06 523.693C565.245 508.952 552.006 497.172 536.464 491.092C533.329 489.867 529.786 488.876 526.681 490.159C523.357 491.53 521.476 495.247 521.33 498.834C521.184 502.421 522.482 505.905 523.969 509.171C528.431 518.983 534.773 527.804 541.057 536.552C547.239 545.14 553.406 553.727 559.588 562.3C561.556 565.026 563.583 567.826 566.382 569.677C569.182 571.529 576.588 573.891 579.519 572.258" fill="#407BFF"/>
<g opacity="0.3">
<path d="M579.533 572.273C583.222 556.002 580.889 538.433 573.06 523.693C565.245 508.952 552.006 497.172 536.464 491.092C533.329 489.867 529.786 488.876 526.681 490.159C523.357 491.53 521.476 495.247 521.33 498.834C521.184 502.421 522.482 505.905 523.969 509.171C528.431 518.983 534.773 527.804 541.057 536.552C547.239 545.14 553.406 553.727 559.588 562.3C561.556 565.026 563.583 567.826 566.382 569.677C569.182 571.529 576.588 573.891 579.519 572.258" fill="white"/>
</g>
<path d="M595.309 528.358C599.129 524.159 602.453 508.734 602.38 506.138C602.103 495.874 603.386 499.038 603.109 488.774C602.57 469.179 596.009 444.32 583.003 429.653C578.498 424.564 570.392 420.613 565.245 425.06C561.396 428.399 561.717 434.362 562.373 439.407C563.408 447.338 564.429 455.284 565.464 463.215C567.082 475.681 568.73 488.293 573.162 500.059C577.594 511.825 585.132 522.862 596.067 529.087" fill="#407BFF"/>
<g opacity="0.3">
<path d="M595.309 528.358C599.129 524.159 602.453 508.734 602.38 506.138C602.103 495.874 603.386 499.038 603.109 488.774C602.57 469.179 596.009 444.32 583.003 429.653C578.498 424.564 570.392 420.613 565.245 425.06C561.396 428.399 561.717 434.362 562.373 439.407C563.408 447.338 564.429 455.284 565.464 463.215C567.082 475.681 568.73 488.293 573.162 500.059C577.594 511.825 585.132 522.862 596.067 529.087" fill="white"/>
</g>
<path d="M594.594 610.53C597.627 601.155 593.632 591.314 588.15 583.689C582.056 575.218 574.357 568.219 569.677 558.743C565.085 549.441 562.868 539.293 559.369 529.568C556.774 522.366 552.458 515.98 547.282 510.396C540.59 503.164 532.338 497.172 522.948 494.023C522.278 493.804 521.986 494.854 522.657 495.072C531.186 497.945 538.739 503.237 545.022 509.609C550.417 515.091 555.214 521.535 557.926 528.781C561.221 537.558 563.248 546.758 566.951 555.404C568.948 560.084 571.369 564.531 574.43 568.598C577.201 572.287 580.321 575.684 583.266 579.227C590.337 587.683 597.219 598.822 593.53 610.253C593.311 610.924 594.376 611.215 594.58 610.545L594.594 610.53Z" fill="#263238"/>
<path d="M602.92 613.49C601.753 599.741 599.654 586.094 598.094 572.404C597.263 565.201 596.607 557.97 596.242 550.738C595.848 543.04 596.038 535.342 595.848 527.629C595.455 512.51 593.632 497.42 590.41 482.65C588.763 475.127 586.765 467.677 584.389 460.343C582.202 453.564 579.869 446.624 576.807 440.179C574.11 434.508 571.077 428.953 568.219 423.354C567.899 422.727 566.951 423.281 567.272 423.908C570.013 429.259 572.739 434.624 575.48 439.975C578.046 445.005 579.883 450.546 581.735 455.867C584.228 463.04 586.357 470.33 588.15 477.708C591.737 492.535 593.895 507.713 594.595 522.949C594.944 530.647 594.711 538.36 594.974 546.073C595.207 553.348 595.761 560.609 596.519 567.855C598.108 583.091 600.558 598.239 601.855 613.504C601.914 614.204 603.007 614.204 602.949 613.504L602.92 613.49Z" fill="#263238"/>
<path d="M566.441 579.008H627.254C627.254 579.008 631.686 590.104 622.821 593.209L617.266 629.615H575.32L570.654 593.88C570.654 593.88 563.772 590.993 566.441 579.008Z" fill="#263238"/>
<path d="M622.238 592.786H570.931C570.231 592.786 570.231 593.88 570.931 593.88H622.238C622.938 593.88 622.938 592.786 622.238 592.786Z" fill="black"/>
<path d="M44.112 552.386C44.3452 552.983 45.118 551.846 44.8701 548.42C44.7243 546.35 44.2724 543.784 43.7621 541.786C41.6917 533.855 42.7269 528.387 40.6565 520.456C36.7199 505.322 28.8467 486.47 16.0892 477.416C11.6715 474.267 4.65849 472.663 1.45089 477.037C-0.94023 480.318 0.38655 484.896 1.80081 488.716C4.03155 494.708 6.24771 500.686 8.47845 506.678C11.9776 516.082 15.5206 525.588 21.0756 533.942C26.6306 542.296 34.4746 549.528 44.0974 552.4" fill="#407BFF"/>
<g opacity="0.3">
<path d="M44.112 552.386C44.3452 552.983 45.118 551.846 44.8701 548.42C44.7243 546.35 44.2724 543.784 43.7621 541.786C41.6917 533.855 42.7269 528.387 40.6565 520.456C36.7199 505.322 28.8467 486.47 16.0892 477.416C11.6715 474.267 4.65849 472.663 1.45089 477.037C-0.94023 480.318 0.38655 484.896 1.80081 488.716C4.03155 494.708 6.24771 500.686 8.47845 506.678C11.9776 516.082 15.5206 525.588 21.0756 533.942C26.6306 542.296 34.4746 549.528 44.0974 552.4" fill="white"/>
</g>
<path d="M52.3496 578.061C50.8771 570.727 48.4568 563.583 45.6428 556.658C43.8349 552.211 41.852 547.851 39.7234 543.55C37.3322 538.739 34.5912 534.103 32.2292 529.277C28.0448 520.747 24.9101 511.766 21.3234 502.975C19.8946 499.476 18.422 495.991 16.6286 492.652C15.4622 490.494 14.048 488.599 12.6337 486.616C9.83436 482.68 7.13706 478.67 4.39602 474.704C4.00236 474.136 3.05466 474.675 3.44832 475.258C5.95608 478.889 8.46384 482.519 10.9716 486.15C12.0359 487.68 13.2169 489.124 14.2084 490.699C16.3079 494.037 17.9263 497.682 19.4426 501.327C22.898 509.579 25.8432 518.036 29.5465 526.186C33.7747 535.517 39.1402 544.25 43.1934 553.669C46.6197 561.615 49.5649 569.852 51.2707 578.352C51.4165 579.038 52.4663 578.746 52.3205 578.061H52.3496Z" fill="#263238"/>
<path d="M72.1202 568.671C68.1982 551.38 70.6913 532.717 78.9874 517.044C87.298 501.385 101.353 488.861 117.872 482.403C121.196 481.105 124.973 480.055 128.268 481.411C131.796 482.869 133.808 486.82 133.954 490.626C134.1 494.431 132.729 498.134 131.155 501.619C126.416 512.043 119.68 521.418 112.988 530.72C106.427 539.847 99.8659 548.974 93.3049 558.086C91.22 560.988 89.0621 563.962 86.0732 565.93C83.0843 567.899 75.2257 570.406 72.1056 568.671" fill="#407BFF"/>
<g opacity="0.3">
<path d="M72.1202 568.671C68.1982 551.38 70.6913 532.717 78.9874 517.044C87.298 501.385 101.353 488.861 117.872 482.403C121.196 481.105 124.973 480.055 128.268 481.411C131.796 482.869 133.808 486.82 133.954 490.626C134.1 494.431 132.729 498.134 131.155 501.619C126.416 512.043 119.68 521.418 112.988 530.72C106.427 539.847 99.8659 548.974 93.3049 558.086C91.22 560.988 89.0621 563.962 86.0732 565.93C83.0843 567.899 75.2257 570.406 72.1056 568.671" fill="white"/>
</g>
<path d="M55.3386 522.001C51.2854 517.54 47.757 501.152 47.8299 498.397C48.1361 487.491 46.751 490.844 47.0572 479.939C47.6404 459.119 54.6096 432.685 68.4315 417.114C73.2283 411.705 81.8451 407.506 87.3126 412.245C91.4095 415.787 91.0596 422.13 90.3598 427.495C89.2663 435.937 88.1728 444.364 87.0793 452.806C85.3589 466.059 83.6093 479.457 78.8999 491.967C74.1906 504.476 66.1862 516.213 54.5659 522.818" fill="#407BFF"/>
<g opacity="0.3">
<path d="M55.3386 522.001C51.2854 517.54 47.757 501.152 47.8299 498.397C48.1361 487.491 46.751 490.844 47.0572 479.939C47.6404 459.119 54.6096 432.685 68.4315 417.114C73.2283 411.705 81.8451 407.506 87.3126 412.245C91.4095 415.787 91.0596 422.13 90.3598 427.495C89.2663 435.937 88.1728 444.364 87.0793 452.806C85.3589 466.059 83.6093 479.457 78.8999 491.967C74.1906 504.476 66.1862 516.213 54.5659 522.818" fill="white"/>
</g>
<path d="M57.1902 609.028C53.8077 598.574 58.9253 587.844 65.2092 579.621C68.5189 575.305 72.2514 571.339 75.6485 567.097C78.8124 563.16 81.5243 558.99 83.7404 554.456C88.304 545.096 90.6951 534.963 94.063 525.165C96.7458 517.35 101.018 510.512 106.558 504.374C113.644 496.53 122.465 489.969 132.554 486.587C133.225 486.368 132.933 485.304 132.263 485.537C123.354 488.526 115.437 493.935 108.774 500.496C103.001 506.182 97.8247 512.903 94.6754 520.412C90.5639 530.224 88.5664 540.78 84.3382 550.578C82.02 555.958 79.104 560.988 75.4735 565.595C72.0764 569.896 68.3148 573.891 64.9322 578.221C58.1817 586.852 52.5392 598.21 56.1405 609.334C56.3592 610.005 57.4089 609.713 57.1902 609.043V609.028Z" fill="#263238"/>
<path d="M48.384 612.484C49.6087 598.05 51.7957 583.732 53.4578 569.342C54.318 561.848 55.0324 554.354 55.4407 546.816C55.8781 538.666 55.7177 530.531 55.8927 522.38C56.2426 506.109 58.1526 489.882 61.608 473.975C63.3139 466.102 65.3988 458.317 67.8483 450.648C70.2977 442.979 72.6597 435.747 76.0131 428.807C78.9145 422.8 82.0929 416.895 85.1256 410.961C85.4463 410.335 84.4986 409.78 84.1779 410.407C81.2619 416.123 78.3313 421.853 75.4153 427.568C72.7617 432.773 70.8517 438.503 68.9272 443.999C66.1861 451.8 63.8533 459.746 61.8996 467.779C58.1526 483.263 55.8635 499.096 55.0616 515.003C54.6388 523.386 54.8866 531.77 54.6242 540.153C54.3909 547.866 53.8223 555.564 53.035 563.248C51.3437 579.679 48.6901 595.994 47.2905 612.469C47.2321 613.169 48.3256 613.169 48.384 612.469V612.484Z" fill="#263238"/>
<path d="M86.0295 575.83H21.3963C21.3963 575.83 16.6724 587.625 26.1202 590.935L32.0251 629.63H76.6108L81.568 591.649C81.568 591.649 88.8871 588.587 86.044 575.845L86.0295 575.83Z" fill="#263238"/>
<path d="M26.718 591.605H81.2472C81.947 591.605 81.947 590.512 81.2472 590.512H26.718C26.0182 590.512 26.0182 591.605 26.718 591.605Z" fill="black"/>
<path d="M373.051 107.934C357.159 101.753 339.27 109.64 333.088 125.532C326.906 141.424 334.793 159.314 350.686 165.495C362.962 170.263 376.39 166.633 384.745 157.418L394.017 157.491L390.445 148.364C390.504 148.204 390.591 148.058 390.649 147.898C396.831 132.006 388.944 114.116 373.051 107.934Z" fill="#407BFF"/>
<path d="M326.993 131.175C328.043 121.187 334.444 111.929 343.425 107.439" stroke="#407BFF" stroke-width="0.5" stroke-linecap="round" stroke-linejoin="round"/>
<path d="M347.624 105.514C348.936 104.727 350.423 104.217 351.939 104.027" stroke="#407BFF" stroke-width="0.5" stroke-linecap="round" stroke-linejoin="round"/>
<path d="M360.804 149.385L346.661 138.844L350.336 133.916L359.827 140.972L372.862 125.416L377.586 129.381L360.804 149.385Z" fill="white"/>
<path d="M271.545 256.532C271.545 251.56 270.364 246.661 268.046 242.273L255.391 218.26C252.227 217.866 248.859 217.487 245.724 217.21C235.956 216.554 224.204 216.656 214.436 217.312C209.376 217.939 204.04 219.805 198.558 222.371C197.873 222.969 193.105 228.699 195.423 236.222C207.014 274.742 209.143 294.323 207.845 311.439C229.234 314.21 263.512 319.4 270.117 315.536C261.369 281.172 271.487 271.185 271.531 256.546L271.545 256.532Z" fill="#407BFF"/>
<path opacity="0.8" d="M271.545 256.532C271.545 251.56 270.364 246.661 268.046 242.273L255.391 218.26C252.227 217.866 248.859 217.487 245.724 217.21C235.956 216.554 224.204 216.656 214.436 217.312C209.376 217.939 204.04 219.805 198.558 222.371C197.873 222.969 193.105 228.699 195.423 236.222C207.014 274.742 209.143 294.323 207.845 311.439C229.234 314.21 263.512 319.4 270.117 315.536C261.369 281.172 271.487 271.185 271.531 256.546L271.545 256.532Z" fill="white"/>
<g opacity="0.3">
<path d="M234.177 278.737C241.146 278.022 247.547 273.284 250.273 266.825C250.638 270.514 248.815 274.8 245.126 277.366C241.438 279.932 237.909 279.306 234.162 278.722" fill="black"/>
</g>
<path d="M333.321 324.343C333.321 324.343 332.257 329.14 334.648 329.941C337.039 330.743 337.71 329.941 337.71 329.941C337.71 329.941 336.106 333.411 339.313 333.543C342.521 333.674 343.848 333.543 343.848 333.543C343.848 333.543 342.244 335.803 345.976 336.736C349.709 337.669 363.837 326.34 363.837 326.34L371.433 326.88L369.698 312.621C369.698 312.621 348.907 313.014 346.909 314.224C344.912 315.42 333.321 324.357 333.321 324.357V324.343Z" fill="white"/>
<path d="M326.133 312.621C326.133 312.621 328.67 314.487 331.6 313.554C334.531 312.621 344.387 312.606 348.12 313.816C351.852 315.026 360.513 323.687 360.513 323.687C360.513 323.687 360.381 326.078 355.716 324.751C351.05 323.424 345.583 318.89 345.583 318.89C345.583 318.89 339.722 326.486 336.252 327.288C332.781 328.09 326.118 327.288 326.118 327.288V312.635L326.133 312.621Z" fill="white"/>
<path d="M363.604 330.408C363.604 330.408 365.091 330.306 365.382 329.023C365.674 327.74 360.338 319.925 358.559 320.917C356.78 321.908 359.74 327.638 359.74 327.638C359.74 327.638 354.987 323.06 353.208 324.707C351.429 326.355 357.028 331.385 357.028 331.385C357.028 331.385 351.721 326.355 350.234 328.236C348.747 330.116 352.246 334.461 352.246 334.461L348.688 336.24C348.688 336.24 354.579 340.001 356.357 337.421C358.136 334.855 358.34 334.155 358.34 334.155C358.34 334.155 361.898 334.753 362.598 332.974C363.283 331.195 363.589 330.408 363.589 330.408H363.604Z" fill="white"/>
<path d="M430.992 200.371C430.059 201.26 418.22 202.878 409.56 208.608C409.56 208.608 409.093 196.244 409.56 181.431C410.026 166.618 405.2 145.142 426.414 141.526C426.414 141.526 441.694 130.242 460.502 144.34C479.31 158.439 472.37 200.968 469.148 211.101L430.992 200.356V200.371Z" fill="#263238"/>
<path d="M432.873 151.441C432.873 151.441 419.605 172.844 418.701 179.667C413.832 183.414 410.901 175.191 411.601 164.387C412.169 155.552 417.243 146.221 425.058 143.145C436.037 138.829 432.873 151.441 432.873 151.441Z" fill="#263238"/>
<path d="M450.938 189.042L435.293 197.498L432.086 200.662C432.858 203.009 433.471 205.43 433.631 207.719C433.879 210.708 431.094 212.967 428.951 214.907C425.875 216.437 431.794 230.609 431.794 230.609L452.06 209.629C448.284 200.356 449.232 192.862 450.923 189.027L450.938 189.042Z" fill="white"/>
<path opacity="0.2" d="M433.69 208.608C438.107 206.465 443.079 202.528 442.948 197.542C442.875 195.443 442.598 193.431 442.204 192.118L432.713 202.703C433.252 204.584 433.413 205.809 433.69 208.608Z" fill="black"/>
<path d="M457.615 167.187C454.845 182.758 454.014 189.392 445.208 196.944C431.969 208.302 413.584 202.543 411.674 186.709C409.953 172.465 414.765 149.385 430.73 144.092C446.462 138.873 460.371 151.616 457.615 167.187Z" fill="white"/>
<path d="M436.022 171.692C435.935 173.165 435.031 174.375 433.996 174.404C432.961 174.418 432.188 173.252 432.275 171.765C432.363 170.292 433.267 169.082 434.302 169.053C435.337 169.039 436.11 170.205 436.022 171.692Z" fill="#263238"/>
<path d="M421.107 169.826C421.107 171.254 420.276 172.479 419.241 172.567C418.206 172.654 417.375 171.561 417.375 170.117C417.375 168.688 418.206 167.464 419.241 167.376C420.276 167.289 421.107 168.382 421.107 169.826Z" fill="#263238"/>
<path d="M440.44 166.822C440.236 166.822 440.046 166.749 439.901 166.589C437.699 164.125 434.9 164.65 434.871 164.664C434.462 164.737 434.069 164.475 434.01 164.052C433.952 163.629 434.258 163.221 434.681 163.134C434.827 163.104 438.341 162.434 441.067 165.495C441.344 165.802 441.3 166.297 440.98 166.589C440.819 166.735 440.63 166.808 440.44 166.808V166.822Z" fill="#263238"/>
<path d="M416.223 162.434C416.048 162.361 415.887 162.23 415.814 162.055C415.654 161.676 415.844 161.238 416.252 161.063C420.32 159.343 423.323 161.151 423.454 161.224C423.819 161.442 423.892 161.909 423.644 162.259C423.396 162.609 422.9 162.711 422.55 162.492C422.434 162.419 420.072 161.049 416.85 162.419C416.645 162.507 416.412 162.507 416.223 162.434Z" fill="#263238"/>
<path d="M418.22 148.16C421.88 141.41 435.745 135.636 451.011 143.057C473.872 152.053 460.91 189.217 454.306 181.417C452.512 179.303 451.011 177.203 449.757 175.206C442.233 163.192 431.371 153.613 418.278 148.175H418.235L418.22 148.16Z" fill="#263238"/>
<path d="M461.275 180.381C459.146 183.443 455.968 185.207 453.139 185.674C448.896 186.359 447.322 179.507 449.086 175.453C450.675 171.809 454.976 169.68 458.942 170.832C462.864 171.969 463.695 176.868 461.26 180.367L461.275 180.381Z" fill="white"/>
<path d="M425.641 168.82C425.641 168.82 422.682 174.491 419.605 177.918C419.066 178.515 419.284 179.478 420.013 179.813C421.894 180.688 424.212 180.236 424.212 180.236L425.627 168.82H425.641Z" fill="white"/>
<path d="M434.608 169.024L430.992 168.164C430.992 168.164 432.96 170.861 434.608 169.024Z" fill="#263238"/>
<path d="M419.766 167.42L416.106 166.779C417.797 168.834 419.27 168.047 419.766 167.42Z" fill="#263238"/>
<path opacity="0.2" d="M455.764 174.623C457.12 174.171 458.461 175.118 458.84 176.241C459.307 177.597 458.417 180.659 454.291 181.431" stroke="black" stroke-width="0.5" stroke-linecap="round" stroke-linejoin="round"/>
<path d="M422.536 185.31C423.629 187.103 424.912 190.544 424.912 190.544C425.248 190.486 425.583 190.427 425.904 190.34C430.409 189.407 432.188 187.497 432.8 185.645C433.135 184.639 433.092 183.633 432.961 182.846C432.815 181.927 432.509 181.3 432.509 181.3C430.409 183.21 426.283 184.406 424.052 184.945C423.119 185.179 422.521 185.281 422.521 185.281L422.536 185.31Z" fill="#263238"/>
<path d="M424.067 184.96L424.81 186.491C429.053 185.601 431.911 184.42 432.975 182.86C432.829 181.942 432.523 181.315 432.523 181.315C430.424 183.225 426.298 184.42 424.067 184.96Z" fill="white"/>
<path d="M425.904 190.354C430.409 189.421 432.188 187.511 432.8 185.66C431.284 186.039 429.49 186.651 428.003 187.686C426.866 188.459 426.254 189.436 425.904 190.354Z" fill="white"/>
<path d="M458.126 186.651C458.126 188.794 456.391 190.544 454.233 190.544C452.075 190.544 450.34 188.809 450.34 186.651C450.34 184.493 452.075 182.758 454.233 182.758C456.391 182.758 458.126 184.493 458.126 186.651Z" fill="#407BFF"/>
<g opacity="0.2">
<path d="M425.773 145.711C438.195 157.054 453.066 165.466 469.192 170.263C469.862 170.467 470.154 169.403 469.483 169.213C453.547 164.46 438.836 156.15 426.545 144.938C426.02 144.472 425.248 145.23 425.773 145.711Z" fill="white"/>
</g>
<g opacity="0.2">
<path d="M425.641 145.128C437.087 154.415 450.996 160.218 465.649 161.836C466.349 161.909 466.349 160.815 465.649 160.743C451.317 159.168 437.612 153.438 426.414 144.355C425.875 143.917 425.087 144.69 425.641 145.128Z" fill="white"/>
</g>
<path d="M325.214 458.506L328.116 465.257L418.862 476.935L420.043 469.98L325.214 458.506Z" fill="#407BFF"/>
<path opacity="0.2" d="M325.214 458.506L328.116 465.257L418.862 476.935L420.043 469.98L325.214 458.506Z" fill="black"/>
<path d="M365.455 393.889C365.455 393.889 371.01 380.81 381.202 381.437C391.378 382.064 394.936 397.767 394.936 397.767L389.191 396.907C389.191 396.907 388.783 385.097 381.566 384.762C374.349 384.426 369.596 394.895 369.596 394.895L366.184 393.845" fill="#263238"/>
<path d="M325.214 458.506L326.731 450.298L337.666 390.9L424.621 400.26L420.043 469.981L325.214 458.506Z" fill="#407BFF"/>
<path d="M379.481 365.006C378.315 365.662 372.847 375.46 371.885 378.128C370.923 380.796 371.054 382.414 372.293 383.041C373.533 383.668 374.932 384.266 375.268 384.207C375.603 384.149 374.568 386.919 376.711 387.809C378.854 388.698 379.802 388.261 379.802 388.261C379.802 388.261 379.991 392.008 382.674 392.533C385.357 393.057 386.217 391.701 386.655 391.789C387.106 391.876 388.55 387.225 388.55 387.225L392.297 391.162C392.297 391.162 393.376 389.587 394.236 386.846C395.096 384.105 393.682 377.063 393.682 377.063L391.16 370.998L391.699 361.521C391.699 361.521 380.458 362.09 380.414 362.352C380.385 362.615 379.452 365.02 379.452 365.02L379.481 365.006Z" fill="white"/>
<path opacity="0.2" d="M337.666 390.9C337.666 390.9 349.315 425.396 373.795 423.442C398.275 421.474 424.606 400.26 424.606 400.26" fill="black"/>
<path opacity="0.2" d="M382.893 395.769C382.893 395.769 370.587 446.959 369.567 457.267C368.532 467.56 371.258 470.812 371.258 470.812L396.846 474.763L404.048 397.767L382.893 395.769Z" fill="black"/>
<path d="M484.938 607.045L483.247 609.407L479.894 607.964L477.809 618.315L463.652 638.086C463.652 638.086 458.271 638.946 462.514 627.719C462.704 627.209 462.864 626.641 462.966 626.014C464.22 619.292 461.45 606.404 461.45 606.404L469.221 595.556C469.221 595.556 470.038 595.556 471.408 595.79C474.63 596.329 481.06 597.889 484.953 607.045H484.938Z" fill="#263238"/>
<path opacity="0.2" d="M484.938 607.045L483.247 609.407L479.894 607.964L477.809 618.315L463.652 638.086C463.652 638.086 458.271 638.946 462.514 627.719C462.704 627.209 462.864 626.641 462.966 626.014C464.22 619.292 461.45 606.404 461.45 606.404L469.221 595.556C469.221 595.556 470.038 595.556 471.408 595.79C474.63 596.329 481.06 597.889 484.953 607.045H484.938Z" fill="black"/>
<path d="M471.393 595.79L471.423 595.819C468.813 596.096 471.102 607.687 470.052 614.175C469.104 619.978 466.611 625.445 462.952 626.014C464.206 619.292 459.671 603.984 459.671 603.984L465.911 595.265C465.911 595.265 470.008 595.586 471.393 595.804V595.79Z" fill="white"/>
<path d="M463.272 637.342H460.386L459.584 633.756L450.034 638.101H425.846C425.846 638.101 421.996 634.208 433.515 631.102C434.039 630.956 434.579 630.752 435.148 630.475C441.286 627.574 450.034 617.762 450.034 617.762H463.302C463.302 617.762 463.768 618.432 464.395 619.686C465.838 622.631 468.346 628.813 463.272 637.357V637.342Z" fill="#263238"/>
<path d="M464.395 619.672V619.715C462.645 617.747 454.67 626.393 448.824 629.338C443.604 631.962 437.743 633.114 435.148 630.461C441.286 627.559 451.04 614.219 451.04 614.219L461.698 614.54C461.698 614.54 463.754 618.418 464.38 619.672H464.395Z" fill="white"/>
<path d="M439.084 512.554C432.494 495.772 424.446 479.253 414.75 465.898C454.335 360.851 453.096 313.86 453.096 313.86L405.419 313.831L400.345 331.399C400.345 331.399 388.433 375.139 384.963 400.245L375.02 456.057V456.217C374.349 467.808 377.105 479.326 383.039 489.518C389.512 500.657 400.972 513.881 407.256 525.88C415.523 541.728 423.338 557.605 430.001 571.806C437.028 586.78 442.744 599.872 446.316 608.956C449.698 609.305 459.89 603.648 462.82 598.502C462.82 598.502 455.603 554.689 439.084 512.568V512.554Z" fill="#263238"/>
<path opacity="0.2" d="M424.14 440.019C429.942 420.716 435.774 407.565 438.72 393.233C438.749 389.879 428.31 377.72 422.638 371.946C422.638 371.946 415.829 399.327 424.125 440.019H424.14Z" fill="black"/>
<path opacity="0.2" d="M430.001 571.777C437.028 586.75 442.744 599.843 446.316 608.926C449.698 609.276 459.89 603.619 462.82 598.473C462.82 598.473 455.603 554.66 439.084 512.539C435.731 529.933 431.969 551.919 430.015 571.777H430.001Z" fill="black"/>
<path d="M417.462 314.808C417.462 314.808 435.6 430.848 437.714 456.975C437.714 456.975 448.926 583.703 446.914 615.56L471.918 616.683C471.918 616.683 488.729 520.704 480.229 459.104C479.485 451.071 487.227 398.7 488.452 377.836C491.397 327.638 469.381 313.86 469.381 313.86L417.462 314.822V314.808Z" fill="#263238"/>
<path d="M413.205 220.841C413.205 220.841 403.159 222.488 398.887 233.627C395.971 241.223 385.503 343.049 377.761 362.819L396.015 365.925L420.014 258.603L413.205 220.855V220.841Z" fill="#263238"/>
<path opacity="0.3" d="M413.205 220.841C413.205 220.841 403.159 222.488 398.887 233.627C395.971 241.223 385.503 343.049 377.761 362.819L396.015 365.925L420.014 258.603L413.205 220.855V220.841Z" fill="black"/>
<path d="M462.82 331.56C464.22 315.755 470.592 276.244 480.244 245.816C483.393 235.931 475.272 221.759 475.272 221.759C475.272 221.759 467.69 221.716 466.349 221.57C464.891 221.395 463.389 221.249 461.902 221.118C458.913 220.87 452.367 213.143 450.923 202.674C450.748 201.362 442.277 206.757 432.567 207.486C433.792 211.889 426.793 215.257 425.087 220.214C424.271 220.301 417.448 220.812 416.646 220.899C416.646 220.899 402.168 237.826 401.395 249.782C400.972 256.459 397.75 259.331 398.1 275.311C398.158 286.158 402.139 315.697 402.853 330.948L462.806 331.531L462.82 331.56Z" fill="#407BFF"/>
<g opacity="0.7">
<path d="M462.82 331.56C464.22 315.755 470.592 276.244 480.244 245.816C483.393 235.931 475.272 221.759 475.272 221.759C475.272 221.759 467.69 221.716 466.349 221.57C464.891 221.395 463.389 221.249 461.902 221.118C458.913 220.87 452.367 213.143 450.923 202.674C450.748 201.362 442.277 206.757 432.567 207.486C433.792 211.889 426.793 215.257 425.087 220.214C424.271 220.301 417.448 220.812 416.646 220.899C416.646 220.899 402.168 237.826 401.395 249.782C400.972 256.459 397.75 259.331 398.1 275.311C398.158 286.158 402.139 315.697 402.853 330.948L462.806 331.531L462.82 331.56Z" fill="white"/>
</g>
<path opacity="0.2" d="M432.713 312.621L446.622 375.591C447.147 377.938 449.363 379.513 451.754 379.236L488.729 374.833V368.432L456.245 300.665L432.698 312.635L432.713 312.621Z" fill="black"/>
<path d="M470.475 295.183L483.043 243.133C485.667 221.541 462.835 217.152 462.835 217.152L452.337 215.854C452.337 215.854 437.962 252.625 436.97 285.021C435.979 317.403 455.122 374.002 455.122 374.002L497.054 369.613L470.489 295.169L470.475 295.183Z" fill="#263238"/>
<path opacity="0.3" d="M470.475 295.183L483.043 243.133C485.667 221.541 462.835 217.152 462.835 217.152L452.337 215.854C452.337 215.854 437.962 252.625 436.97 285.021C435.979 317.403 455.122 374.002 455.122 374.002L497.054 369.613L470.489 295.169L470.475 295.183Z" fill="black"/>
<path d="M429.228 215.009C429.228 215.009 410.055 239.445 404.865 257.815C401.453 269.887 408.175 304.689 407.387 313.889C406.09 329.067 399.397 347.627 390.708 374.833L384.963 374.016L400.783 313.816C400.783 313.816 393.463 268.458 395.403 257.101C397.356 245.743 413.19 220.841 413.19 220.841L420.655 218.479L429.199 215.009H429.228Z" fill="#263238"/>
<path opacity="0.3" d="M429.228 215.009C429.228 215.009 410.055 239.445 404.865 257.815C401.453 269.887 408.175 304.689 407.387 313.889C406.09 329.067 399.397 347.627 390.708 374.833L384.963 374.016L400.783 313.816C400.783 313.816 393.463 268.458 395.403 257.101C397.356 245.743 413.19 220.841 413.19 220.841L420.655 218.479L429.199 215.009H429.228Z" fill="black"/>
<path opacity="0.3" d="M387.471 364.467L400.797 313.802L394.936 272.439L394.134 316.907L382.893 363.679L384.963 364.029" fill="black"/>
<path d="M404.369 278.416C404.369 278.416 400.841 268.021 401.482 258.427C402.124 248.834 402.284 241.675 402.284 241.675L413.161 233.627L411.732 223.829C411.732 223.829 416.981 220.607 421.851 217.312C425.175 215.052 431.371 210.635 432.232 210.897C432.232 210.897 404.777 247.084 404.646 261.475C404.515 275.355 404.369 278.416 404.369 278.416Z" fill="#263238"/>
<path d="M463.214 216.102C463.214 216.102 455.443 210.46 452.046 207.704C452.046 207.704 438.166 242.069 438.676 272.439L461.348 240.494L455.647 231.236L463.214 216.102Z" fill="#263238"/>
<path opacity="0.2" d="M384.453 332.201C384.453 332.201 435.308 327.478 440.877 320.829C446.462 314.181 470.387 279.991 471.714 262.699L425.773 312.621L384.963 326.238L384.453 332.201Z" fill="black"/>
<path d="M368.327 309.471L421.647 294.935C421.647 294.935 457.076 225.798 464.687 220.432C472.297 215.053 486.105 227.591 482.678 239.969C480.331 248.426 445.222 312.941 437.553 318.336C429.884 323.73 371.185 329.592 371.185 329.592L368.313 309.486L368.327 309.471Z" fill="#263238"/>
<path opacity="0.3" d="M368.327 309.471L421.647 294.935C421.647 294.935 457.076 225.798 464.687 220.432C472.297 215.053 486.105 227.591 482.678 239.969C480.331 248.426 445.222 312.941 437.553 318.336C429.884 323.73 371.185 329.592 371.185 329.592L368.313 309.486L368.327 309.471Z" fill="black"/>
<path d="M197.887 337.304C185.378 362.119 198.062 386.861 198.062 386.861C191.589 404.473 189.139 428.851 188.25 447.294C187.535 462.574 188.848 467.225 187.856 473.786C186.719 481.236 181.426 491.15 179.254 500.394C173.466 526.856 169.937 553.756 168.684 580.802L168.129 585.905L167.109 603.298L177.169 606.739L181.179 590.293L182.403 585.234L182.535 585.263L217.41 476.264L249.734 338.835L197.916 337.319L197.887 337.304Z" fill="white"/>
<path opacity="0.3" d="M197.887 337.304C185.378 362.119 198.062 386.861 198.062 386.861C191.589 404.473 189.139 428.851 188.25 447.294C187.535 462.574 188.848 467.225 187.856 473.786C186.719 481.236 181.426 491.15 179.254 500.394C173.466 526.856 169.937 553.756 168.684 580.802L168.129 585.905L167.109 603.298L177.169 606.739L181.179 590.293L182.403 585.234L182.535 585.263L217.41 476.264L249.734 338.835L197.916 337.319L197.887 337.304Z" fill="black"/>
<path d="M186.617 630.752C185.334 629.032 183.759 627.559 181.951 626.407C181.951 626.407 177.548 619.074 179.239 600.791L172.052 596.81C169.544 595.484 166.467 595.848 164.339 597.743C164.047 598.006 163.799 598.297 163.595 598.633C162.72 600.382 161.977 602.19 161.35 604.057C159.279 610.37 157.588 616.799 156.291 623.316L157.661 623.71L161.306 611.755C162.502 607.672 164.499 613.329 164.28 617.966C164.062 622.602 164.762 627.924 173.714 630.373C184.124 633.274 188.614 633.974 186.602 630.738L186.617 630.752Z" fill="#263238"/>
<path d="M179.487 594.157C179.487 594.157 179.064 602.599 179.487 612.178C179.429 617.033 180.289 621.859 182.039 626.393C182.039 626.393 174.967 625.868 173.218 620.576C171.468 615.283 171.425 598.764 164.368 597.816C165.199 596.825 166.132 595.921 167.153 595.134C168.727 593.865 179.487 594.157 179.487 594.157Z" fill="white"/>
<path opacity="0.3" d="M179.487 594.157C179.487 594.157 179.064 602.599 179.487 612.178C179.429 617.033 180.289 621.859 182.039 626.393C182.039 626.393 174.967 625.868 173.218 620.576C171.468 615.283 171.425 598.764 164.368 597.816C165.199 596.825 166.132 595.921 167.153 595.134C168.727 593.865 179.487 594.157 179.487 594.157Z" fill="black"/>
<path d="M279.083 586.94H279.156L281.533 472.488L273.266 331.56L223.081 344.959C218.168 372.31 237.384 392.372 237.384 392.372C236.306 411.093 240.927 435.179 245.345 453.097C248.99 467.939 251.6 472.036 252.518 478.597C253.554 485.989 251.308 496.997 251.862 506.474C253.874 533.651 258.205 560.594 264.78 587.042L265.626 591.664L269.606 608.605L280.22 609.043L279.36 592.116L279.098 586.925L279.083 586.94Z" fill="white"/>
<path opacity="0.3" d="M279.083 586.94H279.156L281.533 472.488L273.266 331.56L223.081 344.959C218.168 372.31 237.384 392.372 237.384 392.372C236.306 411.093 240.927 435.179 245.345 453.097C248.99 467.939 251.6 472.036 252.518 478.597C253.554 485.989 251.308 496.997 251.862 506.474C253.874 533.651 258.205 560.594 264.78 587.042L265.626 591.664L269.606 608.605L280.22 609.043L279.36 592.116L279.098 586.925L279.083 586.94Z" fill="black"/>
<path d="M296.142 629.367C294.436 628.07 292.497 627.107 290.427 626.539C290.427 626.539 284.128 620.765 280.468 602.759L272.508 601.009C269.723 600.441 266.88 601.68 265.393 604.115C265.174 604.436 265.014 604.8 264.941 605.194C264.605 607.118 264.401 609.057 264.328 611.011C264.153 617.66 264.372 624.308 264.984 630.927H266.413V618.418C266.413 614.16 269.912 619.016 271.021 623.535C272.114 628.055 274.301 632.852 283.632 632.721C294.509 632.502 299.014 631.831 296.156 629.382L296.142 629.367Z" fill="#263238"/>
<path d="M278.864 596.329C278.864 596.329 280.862 604.552 283.924 613.621C285.236 618.301 287.438 622.69 290.412 626.553C290.412 626.553 283.501 628.07 280.293 623.492C277.086 618.913 272.333 603.094 265.334 604.217C265.859 603.007 266.53 601.87 267.332 600.835C268.44 599.143 278.864 596.358 278.864 596.358V596.329Z" fill="white"/>
<path opacity="0.3" d="M278.864 596.329C278.864 596.329 280.862 604.552 283.924 613.621C285.236 618.301 287.438 622.69 290.412 626.553C290.412 626.553 283.501 628.07 280.293 623.492C277.086 618.913 272.333 603.094 265.334 604.217C265.859 603.007 266.53 601.87 267.332 600.835C268.44 599.143 278.864 596.358 278.864 596.358V596.329Z" fill="black"/>
<path d="M284.011 416.356L286.3 461.276C286.3 461.276 241.088 465.607 219.874 465.607H182.024C182.024 465.607 181.514 377.136 190.16 346.635C198.121 318.598 207.845 311.44 207.845 311.44C207.845 311.44 270.919 310.346 270.919 314.239C279.185 335.409 283.282 377.297 283.997 416.356H284.011Z" fill="#263238"/>
<path opacity="0.2" d="M188.192 465.607V470.199L218.853 469.981L219.888 465.607H188.192Z" fill="black"/>
<path opacity="0.2" d="M248.451 464.353L249.719 468.275L281.183 466.7L280.891 461.772L248.451 464.353Z" fill="black"/>
<path d="M218.139 195.166C218.008 194.874 206.708 190.908 202.699 178.282C198.689 165.656 199.637 150.303 206.679 144.676C230.051 125.984 243.668 137.05 247.255 141.133C249.792 144.02 256.251 151.411 258.35 157.345C261.471 166.137 258.409 180.396 255.493 185.572C252.562 190.748 218.139 195.18 218.139 195.18V195.166Z" fill="#263238"/>
<path d="M218.358 184.187C220.909 193.562 224.029 210.941 217.92 217.225C217.92 217.225 224.452 223.159 241.642 229.414C246.759 228.101 247.182 217.225 247.182 217.225C236.451 214.717 236.145 206.902 237.443 199.583L218.358 184.187Z" fill="white"/>
<path opacity="0.2" d="M226.333 190.456L237.662 199.554C237.341 201.275 237.18 203.024 237.166 204.774C233.185 204.19 227.208 199.773 226.493 195.559C226.143 193.883 226.085 192.162 226.333 190.456Z" fill="black"/>
<path d="M210.397 165.248C213.269 180.484 214.159 187.001 222.907 194.305C236.014 205.24 253.991 199.481 255.755 183.954C257.33 170.015 252.373 147.373 236.656 142.328C226.318 138.581 214.888 143.932 211.155 154.269C209.887 157.783 209.624 161.588 210.412 165.248H210.397Z" fill="white"/>
<path d="M209.391 181.431C211.753 184.231 215.019 185.674 217.803 185.893C221.988 186.214 222.819 179.434 220.705 175.672C218.795 172.275 214.421 170.555 210.688 171.998C207.014 173.427 206.694 178.238 209.391 181.431Z" fill="white"/>
<path opacity="0.2" d="M218.11 179.098C217.745 177.684 216.797 176.416 215.544 175.658C214.29 174.899 212.744 174.652 211.33 174.987" stroke="black" stroke-width="0.5" stroke-linecap="round" stroke-linejoin="round"/>
<path d="M232.442 162.652C232.631 162.725 232.836 162.711 233.011 162.609C235.795 161.049 238.186 162.448 238.216 162.478C238.566 162.682 239.003 162.565 239.192 162.2C239.367 161.836 239.222 161.355 238.872 161.136C238.74 161.063 235.737 159.299 232.296 161.238C231.946 161.428 231.844 161.894 232.034 162.273C232.136 162.463 232.282 162.594 232.456 162.652H232.442Z" fill="#263238"/>
<path d="M253.525 157.433C253.67 157.36 253.772 157.214 253.802 157.039C253.875 156.675 253.627 156.267 253.248 156.135C249.428 154.779 247.168 156.689 247.066 156.777C246.803 157.01 246.803 157.448 247.08 157.768C247.357 158.074 247.809 158.147 248.072 157.914C248.159 157.841 249.952 156.383 252.985 157.462C253.175 157.535 253.379 157.52 253.525 157.433Z" fill="#263238"/>
<path d="M244.908 165.816C244.908 165.816 248.334 171.065 251.673 174.141C252.256 174.681 252.14 175.629 251.469 176.022C249.734 177.028 247.445 176.78 247.445 176.78L244.922 165.831L244.908 165.816Z" fill="white"/>
<path d="M235.752 165.51C235.752 165.51 235.708 165.496 235.679 165.466L238.988 164.052C238.988 164.052 238.391 165.277 237.443 165.714C238.011 166.166 238.493 166.954 238.711 167.901C239.09 169.491 238.595 170.89 237.589 171.036C236.597 171.182 235.475 170.015 235.11 168.441C234.804 167.129 235.095 165.962 235.752 165.51Z" fill="#263238"/>
<path d="M249.384 162.93C249.384 162.93 249.384 162.93 249.369 162.93L252.679 161.515C252.679 161.515 251.994 162.886 250.944 163.25C251.498 163.688 251.965 164.446 252.183 165.35C252.548 166.881 252.052 168.251 251.061 168.397C250.069 168.543 248.961 167.42 248.597 165.889C248.276 164.533 248.626 163.323 249.399 162.944L249.384 162.93Z" fill="#263238"/>
<path d="M248.465 181.052C247.634 182.744 246.759 185.922 246.759 185.922C246.453 185.893 246.147 185.864 245.841 185.805C241.715 185.266 239.951 183.662 239.251 182.044C238.872 181.154 238.813 180.25 238.872 179.536C238.915 178.705 239.149 178.122 239.149 178.122C241.19 179.711 245.01 180.498 247.066 180.834C247.926 180.979 248.465 181.038 248.465 181.038V181.052Z" fill="#263238"/>
<path d="M247.066 180.848L246.526 182.277C242.633 181.767 239.965 180.877 238.872 179.55C238.915 178.719 239.149 178.136 239.149 178.136C241.19 179.725 245.01 180.513 247.066 180.848Z" fill="white"/>
<path d="M245.856 185.82C241.729 185.28 239.965 183.677 239.265 182.058C240.665 182.292 242.327 182.729 243.756 183.56C244.835 184.187 245.476 185.018 245.87 185.82H245.856Z" fill="white"/>
<path d="M233.725 151.936C235.154 195.618 217.847 184.07 222.571 203.097C216.025 193.139 212.409 181.052 210.616 169.097C209.464 163.148 208.327 157.375 209.96 151.543C211.957 145.813 218.037 140.389 223.811 139.879C225.895 139.616 236.014 141.351 237.647 142.664C239.324 143.932 234.746 150.056 233.71 151.922L233.725 151.936Z" fill="#263238"/>
<path d="M237.953 210.401L237.661 218.683L219.976 210.314L214.45 217.298C216.185 220.622 228.039 225.142 242.808 230.536C246.759 225.929 247.518 221.832 247.182 217.225L237.953 210.401Z" fill="#407BFF"/>
<path opacity="0.8" d="M237.953 210.401L237.661 218.683L219.976 210.314L214.45 217.298C216.185 220.622 228.039 225.142 242.808 230.536C246.759 225.929 247.518 221.832 247.182 217.225L237.953 210.401Z" fill="white"/>
<path d="M209.58 187.715L202.524 167.551C202.757 164.49 199.404 161.807 195.729 161.603C192.055 161.399 188.469 163.323 186.471 165.948C184.474 168.572 183.92 171.779 184.167 174.841C184.576 179.9 187.083 184.697 190.626 188.75C192.405 190.792 194.49 192.701 197.187 193.853C199.87 195.005 203.253 195.297 205.994 194.13C208.749 192.949 210.543 190.121 209.58 187.715Z" fill="#263238"/>
<g opacity="0.3">
<path d="M234.804 141.556C230.955 146.513 226.727 151.149 222.119 155.421C217.847 159.387 211.68 165.306 205.381 162.128C204.754 161.807 204.2 162.755 204.827 163.075C210.776 166.064 216.55 161.851 220.88 158.031C226.26 153.278 231.173 148.014 235.577 142.343C235.999 141.789 235.241 141.016 234.804 141.57V141.556Z" fill="black"/>
</g>
<path d="M257.476 217.91C257.476 217.91 277.042 219.091 279.9 253.018C282.218 280.53 286.315 290.605 286.315 290.605L331.046 311.104L330.419 332.201C330.419 332.201 275.905 321.922 272.231 308.538C268.557 295.168 257.476 220.68 257.476 220.68" fill="#407BFF"/>
<path d="M240.927 211.99C240.927 211.99 262.17 237.636 267.39 256.124C270.816 268.283 264.051 303.333 264.839 312.606C266.136 327.885 272.887 346.591 281.635 373.987L287.423 373.17L271.487 312.533C271.487 312.533 278.865 266.84 276.896 255.409C274.928 243.979 257.869 217.91 257.869 217.91L250.127 215.723L240.927 211.99Z" fill="#407BFF"/>
<path opacity="0.2" d="M185.655 374.002L221.492 377.195C221.492 377.195 226.552 321.164 226.989 308.072C227.426 294.979 226.989 271.695 226.989 271.695L186.063 370.225L185.655 374.002Z" fill="black"/>
<path d="M218.27 373.579L176.032 369.161L202.801 294.177C202.713 293.871 200.206 287.018 196.488 273.036C194.636 266.053 192.974 264.682 191.326 258.077C188.95 248.557 187.156 240.684 187.04 238.103C186.617 230.07 198.135 217.166 198.135 217.166L212.263 215.927L220.049 209.891C226.26 219.995 227.514 240.523 226.799 263.982C225.793 296.597 218.27 373.564 218.27 373.564V373.579Z" fill="#407BFF"/>
<path opacity="0.2" d="M200.614 273.765C199.914 275.558 198.835 276.812 197.537 277.643C195.686 270.66 193.761 263.239 192.114 256.648C196.4 251.414 200.045 247.055 200.045 247.055C200.045 247.055 205.002 262.553 200.614 273.78V273.765Z" fill="black"/>
<path d="M199.404 217.064C186.427 216.16 166.22 261.679 157.807 283.519C155.314 289.993 161.291 297.093 165.607 299.615C175.39 305.331 194.519 317.388 194.519 317.388L202.32 295.518L186.5 279.874L201.197 257.713C201.197 257.713 206.694 246.545 205.673 236.178C204.652 225.812 199.404 217.064 199.404 217.064Z" fill="#407BFF"/>
<path d="M220.063 209.906C216.637 212.676 209.58 216.321 209.58 216.321L216.244 233.583L210.499 242.914L226.377 277.031C232.559 227.62 220.063 209.906 220.063 209.906Z" fill="#407BFF"/>
<path opacity="0.3" d="M220.063 209.906C216.637 212.676 209.58 216.321 209.58 216.321L216.244 233.583L210.499 242.914L226.377 277.031C232.559 227.62 220.063 209.906 220.063 209.906Z" fill="black"/>
<path opacity="0.2" d="M186.5 279.874C186.5 279.874 179.706 278.824 175.376 282.426C175.376 282.426 180.027 274.975 188.381 277.031L186.486 279.874H186.5Z" fill="black"/>
<path d="M267.9 276.9C267.9 276.9 271.458 266.432 270.802 256.765C270.146 247.099 270 239.896 270 239.896L259.036 231.79L260.479 221.919C260.479 221.919 255.201 218.668 250.288 215.344C246.934 213.069 238.828 210.124 237.968 210.387C237.968 210.387 267.478 245.32 267.623 259.812C267.755 273.794 267.9 276.885 267.9 276.885V276.9Z" fill="#407BFF"/>
<path opacity="0.3" d="M267.9 276.9C267.9 276.9 271.458 266.432 270.802 256.765C270.146 247.099 270 239.896 270 239.896L259.036 231.79L260.479 221.919C260.479 221.919 255.201 218.668 250.288 215.344C246.934 213.069 238.828 210.124 237.968 210.387C237.968 210.387 267.478 245.32 267.623 259.812C267.755 273.794 267.9 276.885 267.9 276.885V276.9Z" fill="black"/>
<path opacity="0.3" d="M272.216 308.538L277.027 249.009L276.415 313.918C276.415 313.918 273.105 311.921 272.231 308.538H272.216Z" fill="black"/>
<path opacity="0.2" d="M200.789 294.017L189.023 313.947L194.519 317.388L202.32 295.518L200.789 294.017Z" fill="black"/>
</g>
<defs>
<clipPath id="clip0_206_310">
<rect width="647" height="648" fill="white"/>
</clipPath>
</defs>
</svg>
