<svg width="289" height="25" viewBox="0 0 289 25" fill="none" xmlns="http://www.w3.org/2000/svg">
<path d="M147.611 4.43945V18.2724H145.289V5.178L146.046 5.21492L139.609 18.2724H137.009L130.569 5.23339L131.326 5.19646V18.2724H129V4.43945H132.726L138.922 17.2199H137.704L143.885 4.43945H147.611Z" fill="#242424"/>
<path d="M181.012 16.799L180.015 16.9097V4.43945H182.374V18.2724H179.276L169.575 5.80576L170.554 5.69498V18.2724H168.194V4.43945H171.366L181.012 16.7953V16.799Z" fill="#242424"/>
<path d="M188.464 11.3557L187.485 17.5336L186.322 16.1673H197.057V18.2684H184.993L186.1 11.352L184.993 4.43555H196.964V6.5367H186.322L187.485 5.1704L188.464 11.3483V11.3557ZM196.525 10.3402V12.3675H186.861V10.3402H196.525Z" fill="#242424"/>
<path d="M198.091 4.43945H211.961V6.57753H198.091V4.43945ZM203.807 5.56573H206.241V18.2724H203.807V5.56573Z" fill="#242424"/>
<path d="M219.652 4.43945L226.292 18.2724H223.692L217.662 5.36263H218.603L212.573 18.2724H209.974L216.609 4.43945H219.652ZM213.234 15.1003V13.0915H222.898V15.1003H213.234Z" fill="#242424"/>
<path d="M227.067 18.2724V16.4112L237.285 5.65805L238.855 6.47044H227.141V4.43945H239.811V6.28581L229.575 17.0759L228.227 16.2451H239.866V18.2724H227.067Z" fill="#242424"/>
<path d="M248.998 18.531C247.425 18.531 246.04 18.2282 244.848 17.6263C243.655 17.0244 242.728 16.1862 242.063 15.1079C241.399 14.0333 241.066 12.7815 241.066 11.3561C241.066 9.9307 241.399 8.67887 242.063 7.6043C242.728 6.52972 243.655 5.68778 244.848 5.08587C246.04 4.48395 247.425 4.18115 248.998 4.18115C250.571 4.18115 251.956 4.48395 253.149 5.08587C254.342 5.68778 255.269 6.52602 255.933 7.6043C256.598 8.67887 256.93 9.9307 256.93 11.3561C256.93 12.7815 256.598 14.0333 255.933 15.1079C255.269 16.1825 254.342 17.0244 253.149 17.6263C251.956 18.2282 250.571 18.531 248.998 18.531ZM248.998 16.356C250.117 16.356 251.081 16.1529 251.893 15.7467C252.706 15.3405 253.334 14.7645 253.784 14.0112C254.231 13.2615 254.456 12.3753 254.456 11.3561C254.456 10.3369 254.231 9.45065 253.784 8.70103C253.334 7.95141 252.706 7.37165 251.893 6.96546C251.081 6.55926 250.117 6.35616 248.998 6.35616C247.879 6.35616 246.93 6.55926 246.111 6.96546C245.295 7.37165 244.659 7.94772 244.213 8.70103C243.762 9.45065 243.541 10.3369 243.541 11.3561C243.541 12.3753 243.766 13.2615 244.213 14.0112C244.659 14.7608 245.295 15.3405 246.111 15.7467C246.927 16.1529 247.891 16.356 248.998 16.356Z" fill="#242424"/>
<path d="M272.107 16.799L271.11 16.9097V4.43945H273.47V18.2724H270.372L260.671 5.80576L261.65 5.69498V18.2724H259.29V4.43945H262.462L272.107 16.7953V16.799Z" fill="#242424"/>
<path d="M279.559 11.3557L278.58 17.5336L277.417 16.1673H288.152V18.2684H276.088L277.196 11.352L276.088 4.43555H288.06V6.5367H277.417L278.58 5.1704L279.559 11.3483V11.3557ZM287.62 10.3402V12.3675H277.956V10.3402H287.62Z" fill="#242424"/>
<path d="M155.126 6.25635C153.257 6.25635 151.74 7.77405 151.74 9.64256H166.415C166.415 7.77405 164.897 6.25635 163.028 6.25635H155.126ZM151.74 15.285V10.7688H166.415V15.285C166.415 17.1535 164.897 18.6712 163.028 18.6712H155.126C153.257 18.6712 151.74 17.1535 151.74 15.285ZM154.561 15.285C154.251 15.285 153.996 15.5361 153.996 15.85C153.996 16.1639 154.247 16.415 154.561 16.415H156.817C157.127 16.415 157.382 16.1639 157.382 15.85C157.382 15.5361 157.131 15.285 156.817 15.285H154.561Z" fill="#242424"/>
<path fill-rule="evenodd" clip-rule="evenodd" d="M149.484 7.38622C149.484 5.5177 151.001 4 152.87 4H160.772C161.921 4 162.933 4.56868 163.546 5.44385C163.376 5.42169 163.206 5.41431 163.029 5.41431H155.126C152.789 5.41431 150.894 7.30867 150.894 9.64616V15.2886C150.894 15.4622 150.905 15.6357 150.924 15.8056C150.052 15.1926 149.48 14.1808 149.48 13.0324V7.38991L149.484 7.38622Z" fill="#242424"/>
<path d="M6.498 19V12.466H9.9V19H6.498ZM0.162 5.5H3.924L8.964 11.908H7.398L12.438 5.5H16.2L9.288 14.284L7.092 14.32L0.162 5.5ZM23.7985 19L23.3485 15.274L23.8345 13.87L23.3485 12.484L23.7985 8.74H27.2725L26.6425 13.87L27.2725 19H23.7985ZM24.6265 13.87C24.4465 14.962 24.1045 15.916 23.6005 16.732C23.0965 17.536 22.4605 18.166 21.6925 18.622C20.9245 19.066 20.0605 19.288 19.1005 19.288C18.0925 19.288 17.2045 19.06 16.4365 18.604C15.6805 18.148 15.0865 17.518 14.6545 16.714C14.2225 15.898 14.0065 14.95 14.0065 13.87C14.0065 12.79 14.2225 11.848 14.6545 11.044C15.0865 10.228 15.6805 9.592 16.4365 9.136C17.2045 8.68 18.0925 8.452 19.1005 8.452C20.0605 8.452 20.9245 8.68 21.6925 9.136C22.4605 9.58 23.0965 10.204 23.6005 11.008C24.1165 11.812 24.4585 12.766 24.6265 13.87ZM17.3905 13.87C17.3905 14.422 17.5045 14.914 17.7325 15.346C17.9605 15.766 18.2725 16.102 18.6685 16.354C19.0765 16.594 19.5445 16.714 20.0725 16.714C20.6005 16.714 21.0985 16.594 21.5665 16.354C22.0465 16.102 22.4665 15.766 22.8265 15.346C23.1865 14.914 23.4565 14.422 23.6365 13.87C23.4565 13.318 23.1865 12.832 22.8265 12.412C22.4665 11.98 22.0465 11.644 21.5665 11.404C21.0985 11.152 20.6005 11.026 20.0725 11.026C19.5445 11.026 19.0765 11.152 18.6685 11.404C18.2725 11.644 17.9605 11.98 17.7325 12.412C17.5045 12.832 17.3905 13.318 17.3905 13.87ZM28.6838 8.74H32.0138L32.6798 12.736V19H29.3318V12.232L28.6838 8.74ZM36.5138 8.452C37.4978 8.452 38.3318 8.65 39.0158 9.046C39.7118 9.442 40.2398 10 40.5998 10.72C40.9718 11.428 41.1578 12.28 41.1578 13.276V19H37.8098V13.78C37.8098 12.928 37.5998 12.286 37.1798 11.854C36.7598 11.41 36.1598 11.188 35.3798 11.188C34.8278 11.188 34.3478 11.308 33.9398 11.548C33.5318 11.776 33.2198 12.106 33.0038 12.538C32.7878 12.958 32.6798 13.462 32.6798 14.05L31.6178 13.492C31.7498 12.4 32.0438 11.482 32.4998 10.738C32.9678 9.994 33.5438 9.43 34.2278 9.046C34.9238 8.65 35.6858 8.452 36.5138 8.452ZM43.273 5.5H46.675V19H43.273V5.5ZM54.001 5.5H57.385V19H54.001V5.5ZM45.163 10.666H55.441V13.654H45.163V10.666ZM68.9743 19L68.5243 15.274L69.0103 13.87L68.5243 12.484L68.9743 8.74H72.4483L71.8183 13.87L72.4483 19H68.9743ZM69.8023 13.87C69.6223 14.962 69.2803 15.916 68.7763 16.732C68.2723 17.536 67.6363 18.166 66.8683 18.622C66.1003 19.066 65.2363 19.288 64.2763 19.288C63.2683 19.288 62.3803 19.06 61.6123 18.604C60.8563 18.148 60.2623 17.518 59.8303 16.714C59.3983 15.898 59.1823 14.95 59.1823 13.87C59.1823 12.79 59.3983 11.848 59.8303 11.044C60.2623 10.228 60.8563 9.592 61.6123 9.136C62.3803 8.68 63.2683 8.452 64.2763 8.452C65.2363 8.452 66.1003 8.68 66.8683 9.136C67.6363 9.58 68.2723 10.204 68.7763 11.008C69.2923 11.812 69.6343 12.766 69.8023 13.87ZM62.5663 13.87C62.5663 14.422 62.6803 14.914 62.9083 15.346C63.1363 15.766 63.4483 16.102 63.8443 16.354C64.2523 16.594 64.7203 16.714 65.2483 16.714C65.7763 16.714 66.2743 16.594 66.7423 16.354C67.2223 16.102 67.6423 15.766 68.0023 15.346C68.3623 14.914 68.6323 14.422 68.8123 13.87C68.6323 13.318 68.3623 12.832 68.0023 12.412C67.6423 11.98 67.2223 11.644 66.7423 11.404C66.2743 11.152 65.7763 11.026 65.2483 11.026C64.7203 11.026 64.2523 11.152 63.8443 11.404C63.4483 11.644 63.1363 11.98 62.9083 12.412C62.6803 12.832 62.5663 13.318 62.5663 13.87ZM74.3456 8.596L76.0016 8.938L77.6756 8.596V19H74.3456V8.596ZM76.0196 7.66C75.4316 7.66 74.9516 7.51 74.5796 7.21C74.2076 6.898 74.0216 6.49 74.0216 5.986C74.0216 5.47 74.2076 5.062 74.5796 4.762C74.9516 4.462 75.4316 4.312 76.0196 4.312C76.6196 4.312 77.0996 4.462 77.4596 4.762C77.8196 5.062 77.9996 5.47 77.9996 5.986C77.9996 6.49 77.8196 6.898 77.4596 7.21C77.0996 7.51 76.6196 7.66 76.0196 7.66ZM78.84 11.224V9.766L80.964 8.992L82.386 6.004H84.312V8.74H88.74V11.224H84.312V14.608C84.312 15.376 84.468 15.916 84.78 16.228C85.092 16.528 85.65 16.678 86.454 16.678C86.958 16.678 87.408 16.636 87.804 16.552C88.2 16.456 88.572 16.33 88.92 16.174V18.712C88.56 18.856 88.086 18.988 87.498 19.108C86.922 19.228 86.322 19.288 85.698 19.288C84.606 19.288 83.706 19.114 82.998 18.766C82.302 18.418 81.786 17.932 81.45 17.308C81.126 16.672 80.964 15.928 80.964 15.076V11.224H78.84ZM102.476 19L107.264 13.222V14.32L102.746 8.74H106.472L109.532 12.448H108.47L111.53 8.74H115.184L110.54 14.374L110.378 12.934L115.472 19H111.674L108.362 15.022H109.478L106.202 19H102.476Z" fill="#242424"/>
</svg>
