<svg width="289" height="25" viewBox="0 0 289 25" fill="none" xmlns="http://www.w3.org/2000/svg">
<path d="M147.611 5.43933V19.2722H145.289V6.17787L146.046 6.2148L139.609 19.2722H137.009L130.569 6.23326L131.326 6.19634V19.2722H129V5.43933H132.726L138.922 18.2198H137.704L143.885 5.43933H147.611Z" fill="#D6D6D6"/>
<path d="M181.012 17.7988L180.015 17.9096V5.43933H182.374V19.2722H179.276L169.576 6.80563L170.554 6.69485V19.2722H168.194V5.43933H171.366L181.012 17.7951V17.7988Z" fill="#D6D6D6"/>
<path d="M188.464 12.3557L187.485 18.5336L186.322 17.1673H197.057V19.2684H184.993L186.1 12.352L184.993 5.43555H196.964V7.5367H186.322L187.485 6.1704L188.464 12.3483V12.3557ZM196.525 11.3402V13.3675H186.861V11.3402H196.525Z" fill="#D6D6D6"/>
<path d="M198.091 5.43933H211.961V7.57741H198.091V5.43933ZM203.807 6.56561H206.241V19.2722H203.807V6.56561Z" fill="#D6D6D6"/>
<path d="M219.652 5.43933L226.292 19.2722H223.692L217.662 6.36251H218.604L212.573 19.2722H209.974L216.61 5.43933H219.652ZM213.234 16.1002V14.0914H222.898V16.1002H213.234Z" fill="#D6D6D6"/>
<path d="M227.067 19.2722V17.4111L237.285 6.65793L238.855 7.47032H227.141V5.43933H239.811V7.28569L229.575 18.0758L228.227 17.2449H239.866V19.2722H227.067Z" fill="#D6D6D6"/>
<path d="M248.998 19.5308C247.425 19.5308 246.04 19.228 244.848 18.6261C243.655 18.0242 242.728 17.1859 242.063 16.1076C241.399 15.0331 241.066 13.7812 241.066 12.3558C241.066 10.9305 241.399 9.67863 242.063 8.60405C242.728 7.52947 243.655 6.68753 244.848 6.08562C246.04 5.48371 247.425 5.18091 248.998 5.18091C250.571 5.18091 251.956 5.48371 253.149 6.08562C254.342 6.68753 255.269 7.52578 255.933 8.60405C256.598 9.67863 256.93 10.9305 256.93 12.3558C256.93 13.7812 256.598 15.0331 255.933 16.1076C255.269 17.1822 254.342 18.0242 253.149 18.6261C251.956 19.228 250.571 19.5308 248.998 19.5308ZM248.998 17.3558C250.117 17.3558 251.081 17.1527 251.893 16.7465C252.706 16.3403 253.334 15.7642 253.784 15.0109C254.231 14.2613 254.456 13.375 254.456 12.3558C254.456 11.3367 254.231 10.4504 253.784 9.70079C253.334 8.95117 252.706 8.37141 251.893 7.96521C251.081 7.55901 250.117 7.35592 248.998 7.35592C247.879 7.35592 246.93 7.55901 246.111 7.96521C245.295 8.37141 244.659 8.94747 244.213 9.70079C243.762 10.4504 243.541 11.3367 243.541 12.3558C243.541 13.375 243.766 14.2613 244.213 15.0109C244.659 15.7605 245.295 16.3403 246.111 16.7465C246.927 17.1527 247.891 17.3558 248.998 17.3558Z" fill="#D6D6D6"/>
<path d="M272.107 17.7988L271.11 17.9096V5.43933H273.47V19.2722H270.372L260.671 6.80563L261.65 6.69485V19.2722H259.29V5.43933H262.462L272.107 17.7951V17.7988Z" fill="#D6D6D6"/>
<path d="M279.559 12.3557L278.581 18.5336L277.418 17.1673H288.152V19.2684H276.088L277.196 12.352L276.088 5.43555H288.06V7.5367H277.418L278.581 6.1704L279.559 12.3483V12.3557ZM287.62 11.3402V13.3675H277.957V11.3402H287.62Z" fill="#D6D6D6"/>
<path d="M155.126 7.25659C153.257 7.25659 151.74 8.7743 151.74 10.6428H166.415C166.415 8.7743 164.897 7.25659 163.028 7.25659H155.126ZM151.74 16.2853V11.7691H166.415V16.2853C166.415 18.1538 164.897 19.6715 163.028 19.6715H155.126C153.257 19.6715 151.74 18.1538 151.74 16.2853ZM154.561 16.2853C154.251 16.2853 153.996 16.5364 153.996 16.8503C153.996 17.1641 154.247 17.4152 154.561 17.4152H156.817C157.127 17.4152 157.382 17.1641 157.382 16.8503C157.382 16.5364 157.131 16.2853 156.817 16.2853H154.561Z" fill="#D6D6D6"/>
<path fill-rule="evenodd" clip-rule="evenodd" d="M149.483 8.38622C149.483 6.5177 151.001 5 152.87 5H160.772C161.92 5 162.932 5.56868 163.545 6.44385C163.375 6.42169 163.206 6.41431 163.028 6.41431H155.126C152.788 6.41431 150.894 8.30867 150.894 10.6462V16.2886C150.894 16.4622 150.905 16.6357 150.924 16.8056C150.052 16.1926 149.48 15.1808 149.48 14.0324V8.38991L149.483 8.38622Z" fill="#D6D6D6"/>
<path d="M6.498 19V12.466H9.9V19H6.498ZM0.162 5.5H3.924L8.964 11.908H7.398L12.438 5.5H16.2L9.288 14.284L7.092 14.32L0.162 5.5ZM23.7985 19L23.3485 15.274L23.8345 13.87L23.3485 12.484L23.7985 8.74H27.2725L26.6425 13.87L27.2725 19H23.7985ZM24.6265 13.87C24.4465 14.962 24.1045 15.916 23.6005 16.732C23.0965 17.536 22.4605 18.166 21.6925 18.622C20.9245 19.066 20.0605 19.288 19.1005 19.288C18.0925 19.288 17.2045 19.06 16.4365 18.604C15.6805 18.148 15.0865 17.518 14.6545 16.714C14.2225 15.898 14.0065 14.95 14.0065 13.87C14.0065 12.79 14.2225 11.848 14.6545 11.044C15.0865 10.228 15.6805 9.592 16.4365 9.136C17.2045 8.68 18.0925 8.452 19.1005 8.452C20.0605 8.452 20.9245 8.68 21.6925 9.136C22.4605 9.58 23.0965 10.204 23.6005 11.008C24.1165 11.812 24.4585 12.766 24.6265 13.87ZM17.3905 13.87C17.3905 14.422 17.5045 14.914 17.7325 15.346C17.9605 15.766 18.2725 16.102 18.6685 16.354C19.0765 16.594 19.5445 16.714 20.0725 16.714C20.6005 16.714 21.0985 16.594 21.5665 16.354C22.0465 16.102 22.4665 15.766 22.8265 15.346C23.1865 14.914 23.4565 14.422 23.6365 13.87C23.4565 13.318 23.1865 12.832 22.8265 12.412C22.4665 11.98 22.0465 11.644 21.5665 11.404C21.0985 11.152 20.6005 11.026 20.0725 11.026C19.5445 11.026 19.0765 11.152 18.6685 11.404C18.2725 11.644 17.9605 11.98 17.7325 12.412C17.5045 12.832 17.3905 13.318 17.3905 13.87ZM28.6838 8.74H32.0138L32.6798 12.736V19H29.3318V12.232L28.6838 8.74ZM36.5138 8.452C37.4978 8.452 38.3318 8.65 39.0158 9.046C39.7118 9.442 40.2398 10 40.5998 10.72C40.9718 11.428 41.1578 12.28 41.1578 13.276V19H37.8098V13.78C37.8098 12.928 37.5998 12.286 37.1798 11.854C36.7598 11.41 36.1598 11.188 35.3798 11.188C34.8278 11.188 34.3478 11.308 33.9398 11.548C33.5318 11.776 33.2198 12.106 33.0038 12.538C32.7878 12.958 32.6798 13.462 32.6798 14.05L31.6178 13.492C31.7498 12.4 32.0438 11.482 32.4998 10.738C32.9678 9.994 33.5438 9.43 34.2278 9.046C34.9238 8.65 35.6858 8.452 36.5138 8.452ZM43.273 5.5H46.675V19H43.273V5.5ZM54.001 5.5H57.385V19H54.001V5.5ZM45.163 10.666H55.441V13.654H45.163V10.666ZM68.9743 19L68.5243 15.274L69.0103 13.87L68.5243 12.484L68.9743 8.74H72.4483L71.8183 13.87L72.4483 19H68.9743ZM69.8023 13.87C69.6223 14.962 69.2803 15.916 68.7763 16.732C68.2723 17.536 67.6363 18.166 66.8683 18.622C66.1003 19.066 65.2363 19.288 64.2763 19.288C63.2683 19.288 62.3803 19.06 61.6123 18.604C60.8563 18.148 60.2623 17.518 59.8303 16.714C59.3983 15.898 59.1823 14.95 59.1823 13.87C59.1823 12.79 59.3983 11.848 59.8303 11.044C60.2623 10.228 60.8563 9.592 61.6123 9.136C62.3803 8.68 63.2683 8.452 64.2763 8.452C65.2363 8.452 66.1003 8.68 66.8683 9.136C67.6363 9.58 68.2723 10.204 68.7763 11.008C69.2923 11.812 69.6343 12.766 69.8023 13.87ZM62.5663 13.87C62.5663 14.422 62.6803 14.914 62.9083 15.346C63.1363 15.766 63.4483 16.102 63.8443 16.354C64.2523 16.594 64.7203 16.714 65.2483 16.714C65.7763 16.714 66.2743 16.594 66.7423 16.354C67.2223 16.102 67.6423 15.766 68.0023 15.346C68.3623 14.914 68.6323 14.422 68.8123 13.87C68.6323 13.318 68.3623 12.832 68.0023 12.412C67.6423 11.98 67.2223 11.644 66.7423 11.404C66.2743 11.152 65.7763 11.026 65.2483 11.026C64.7203 11.026 64.2523 11.152 63.8443 11.404C63.4483 11.644 63.1363 11.98 62.9083 12.412C62.6803 12.832 62.5663 13.318 62.5663 13.87ZM74.3456 8.596L76.0016 8.938L77.6756 8.596V19H74.3456V8.596ZM76.0196 7.66C75.4316 7.66 74.9516 7.51 74.5796 7.21C74.2076 6.898 74.0216 6.49 74.0216 5.986C74.0216 5.47 74.2076 5.062 74.5796 4.762C74.9516 4.462 75.4316 4.312 76.0196 4.312C76.6196 4.312 77.0996 4.462 77.4596 4.762C77.8196 5.062 77.9996 5.47 77.9996 5.986C77.9996 6.49 77.8196 6.898 77.4596 7.21C77.0996 7.51 76.6196 7.66 76.0196 7.66ZM78.84 11.224V9.766L80.964 8.992L82.386 6.004H84.312V8.74H88.74V11.224H84.312V14.608C84.312 15.376 84.468 15.916 84.78 16.228C85.092 16.528 85.65 16.678 86.454 16.678C86.958 16.678 87.408 16.636 87.804 16.552C88.2 16.456 88.572 16.33 88.92 16.174V18.712C88.56 18.856 88.086 18.988 87.498 19.108C86.922 19.228 86.322 19.288 85.698 19.288C84.606 19.288 83.706 19.114 82.998 18.766C82.302 18.418 81.786 17.932 81.45 17.308C81.126 16.672 80.964 15.928 80.964 15.076V11.224H78.84ZM102.476 19L107.264 13.222V14.32L102.746 8.74H106.472L109.532 12.448H108.47L111.53 8.74H115.184L110.54 14.374L110.378 12.934L115.472 19H111.674L108.362 15.022H109.478L106.202 19H102.476Z" fill="#D6D6D6"/>
</svg>
