<svg width="142" height="16" viewBox="0 0 142 16" fill="none" xmlns="http://www.w3.org/2000/svg">
<path d="M16.6055 1.21045V14.736H14.5331V1.93258L15.2085 1.96869L9.46579 14.736H7.14629L1.40026 1.98674L2.07569 1.95064V14.736H0V1.21045H3.32439L8.85297 13.707H7.7657L13.2811 1.21045H16.6055Z" fill="#242424"/>
<path d="M46.4064 13.2954L45.5168 13.4037V1.21045H47.6222V14.736H44.8579L36.2026 2.5464L37.0757 2.43808V14.736H34.9704V1.21045H37.8006L46.4064 13.2918V13.2954Z" fill="#242424"/>
<path d="M53.0552 7.97392L52.1821 14.0146L51.1442 12.6786H60.722V14.7331H49.9581L50.9466 7.97031L49.9581 1.20752H60.6397V3.26199H51.1442L52.1821 1.92604L53.0552 7.9667V7.97392ZM60.2476 6.98099V8.96325H51.6253V6.98099H60.2476Z" fill="#242424"/>
<path d="M61.6446 1.21045H74.0196V3.30103H61.6446V1.21045ZM66.7448 2.3117H68.9161V14.736H66.7448V2.3117Z" fill="#242424"/>
<path d="M80.8826 1.21045L86.8065 14.736H84.487L79.1067 2.11312H79.9469L74.5666 14.736H72.2471L78.1677 1.21045H80.8826ZM75.1563 11.6345V9.67026H83.7787V11.6345H75.1563Z" fill="#242424"/>
<path d="M87.4984 14.736V12.9163L96.615 2.40197L98.0152 3.19632H87.5643V1.21045H98.8686V3.01579L89.7355 13.5662L88.533 12.7538H98.918V14.736H87.4984Z" fill="#242424"/>
<path d="M107.066 14.9891C105.662 14.9891 104.427 14.693 103.363 14.1045C102.298 13.5159 101.471 12.6963 100.878 11.642C100.285 10.5913 99.9888 9.36727 99.9888 7.97355C99.9888 6.57983 100.285 5.35581 100.878 4.3051C101.471 3.2544 102.298 2.43116 103.363 1.84262C104.427 1.25408 105.662 0.958008 107.066 0.958008C108.469 0.958008 109.705 1.25408 110.769 1.84262C111.833 2.43116 112.66 3.25079 113.253 4.3051C113.846 5.35581 114.143 6.57983 114.143 7.97355C114.143 9.36727 113.846 10.5913 113.253 11.642C112.66 12.6927 111.833 13.5159 110.769 14.1045C109.705 14.693 108.469 14.9891 107.066 14.9891ZM107.066 12.8624C108.064 12.8624 108.924 12.6638 109.649 12.2666C110.374 11.8695 110.934 11.3062 111.336 10.5696C111.735 9.83666 111.936 8.97009 111.936 7.97355C111.936 6.977 111.735 6.11044 111.336 5.37747C110.934 4.64451 110.374 4.07763 109.649 3.68046C108.924 3.28328 108.064 3.0847 107.066 3.0847C106.068 3.0847 105.221 3.28328 104.489 3.68046C103.761 4.07763 103.195 4.6409 102.796 5.37747C102.394 6.11044 102.196 6.977 102.196 7.97355C102.196 8.97009 102.397 9.83666 102.796 10.5696C103.195 11.3026 103.761 11.8695 104.489 12.2666C105.218 12.6638 106.077 12.8624 107.066 12.8624Z" fill="#242424"/>
<path d="M127.684 13.2954L126.795 13.4037V1.21045H128.9V14.736H126.136L117.481 2.5464L118.354 2.43808V14.736H116.248V1.21045H119.078L127.684 13.2918V13.2954Z" fill="#242424"/>
<path d="M134.333 7.97392L133.46 14.0146L132.422 12.6786H142V14.7331H131.236L132.225 7.97031L131.236 1.20752H141.918V3.26199H132.422L133.46 1.92604L134.333 7.9667V7.97392ZM141.526 6.98099V8.96325H132.903V6.98099H141.526Z" fill="#242424"/>
<path d="M23.3103 2.98682C21.6431 2.98682 20.289 4.4708 20.289 6.2978H33.3823C33.3823 4.4708 32.0282 2.98682 30.361 2.98682H23.3103ZM20.289 11.8149V7.39906H33.3823V11.8149C33.3823 13.6419 32.0282 15.1259 30.361 15.1259H23.3103C21.6431 15.1259 20.289 13.6419 20.289 11.8149ZM22.8062 11.8149C22.5294 11.8149 22.3021 12.0604 22.3021 12.3673C22.3021 12.6743 22.5261 12.9198 22.8062 12.9198H24.8193C25.096 12.9198 25.3234 12.6743 25.3234 12.3673C25.3234 12.0604 25.0993 11.8149 24.8193 11.8149H22.8062Z" fill="#1E9FFF"/>
<path fill-rule="evenodd" clip-rule="evenodd" d="M18.2759 4.09175C18.2759 2.26475 19.63 0.780762 21.2972 0.780762H28.3479C29.3726 0.780762 30.2753 1.33681 30.8222 2.19254C30.6707 2.17087 30.5191 2.16365 30.361 2.16365H23.3102C21.2247 2.16365 19.5345 4.01593 19.5345 6.30148V11.8186C19.5345 11.9883 19.5444 12.158 19.5608 12.3241C18.7833 11.7247 18.2726 10.7354 18.2726 9.61247V4.09536L18.2759 4.09175Z" fill="#057DD7"/>
</svg>
