<svg width="578" height="450" viewBox="0 0 578 450" fill="none" xmlns="http://www.w3.org/2000/svg">
<g clip-path="url(#clip0_118_3377)">
<path d="M376.154 63.2576C376.154 63.2576 371.734 61.694 370.73 65.6804C369.726 69.6788 375.581 71.0991 376.297 71.0991C377.014 71.0991 378.149 70.0965 377.444 67.8169C376.727 65.5372 376.154 63.2576 376.154 63.2576Z" fill="#263238" stroke="#263238" stroke-linecap="round" stroke-linejoin="round"/>
<path d="M401.279 53.566C401.279 53.566 400.849 59.2711 400.849 61.5508C400.849 63.8304 403.274 64.6898 404.421 64.6898C405.568 64.6898 406.129 67.3991 405.424 70.2517C404.708 73.1042 402.282 74.811 396.428 74.811C390.574 74.811 387.014 72.2449 386.871 70.3949C386.727 68.5449 388.161 60.5601 390.586 58.4118C393.011 56.2634 401.291 53.566 401.291 53.566H401.279Z" fill="#263238" stroke="#263238" stroke-linecap="round" stroke-linejoin="round"/>
<path d="M379.87 71.111V73.2594C379.87 73.9636 380.288 74.6081 380.933 74.9065C381.614 75.2168 382.653 75.551 384.159 75.6823C386.393 75.8852 389.2 74.8587 390.634 74.262C391.207 74.0233 391.578 73.4504 391.578 72.8297V70.5262C391.578 69.8817 390.909 69.4759 390.335 69.7623L389.869 70.001C389.869 70.001 382.88 71.0036 379.881 71.1468L379.87 71.111Z" fill="#407BFF" stroke="#263238" stroke-linecap="round" stroke-linejoin="round"/>
<path d="M376.727 52.4202C376.727 52.4202 375.58 56.6931 375.162 61.9685C374.732 67.244 375.162 72.0897 377.301 72.233C379.439 72.3762 381.435 71.0872 381.435 71.0872C381.435 71.0872 386.428 71.6601 388.137 70.8007L389.845 69.9414L391.136 61.5269C391.136 61.5269 391.279 48.5532 388.854 47.6938C386.428 46.8345 376.727 52.3964 376.727 52.3964V52.4202Z" fill="white" stroke="#263238" stroke-linecap="round" stroke-linejoin="round"/>
<path d="M380.574 58.2686L379.427 61.2643C379.427 61.2643 377.146 61.8372 377.432 62.9711C377.719 64.1169 379.224 63.9259 379.224 63.9259" stroke="#263238" stroke-linecap="round" stroke-linejoin="round"/>
<path d="M384.254 59.5695C384.015 60.2021 383.561 60.6079 383.227 60.4766C382.892 60.3572 382.82 59.7485 383.047 59.116C383.274 58.4834 383.74 58.0776 384.075 58.2089C384.409 58.3282 384.481 58.9369 384.254 59.5695Z" fill="#263238"/>
<path d="M378.866 58.1254C378.627 58.7579 378.173 59.1637 377.838 59.0324C377.504 58.9131 377.432 58.3044 377.659 57.6718C377.898 57.0392 378.352 56.6334 378.687 56.7647C379.021 56.8841 379.093 57.4928 378.866 58.1254Z" fill="#263238"/>
<path d="M383.155 55.5592C383.155 55.5592 385.867 54.8431 386.154 57.4092" stroke="#263238" stroke-linecap="round" stroke-linejoin="round"/>
<path d="M379.583 54.8551C379.583 54.8551 377.157 53.9957 376.441 56.0009" stroke="#263238" stroke-linecap="round" stroke-linejoin="round"/>
<path d="M381.435 71.1111L385.293 69.5356" stroke="#263238" stroke-linecap="round" stroke-linejoin="round"/>
<path d="M378.579 45.8677C378.579 45.8677 374.015 40.449 370.587 44.4474C367.158 48.4457 368.161 54.4254 374.302 54.7118C380.443 54.9983 387.289 49.0067 387.289 49.0067C387.289 49.0067 386.572 56.8482 388.292 59.5576C390.013 62.2669 391.291 64.1169 391.291 64.1169C391.291 64.1169 393.716 65.6804 397.718 62.5534C401.721 59.4143 402.712 51.8593 399.857 46.727C397.002 41.5948 392.008 38.7423 386.01 40.7355C380.013 42.7287 378.591 45.8677 378.591 45.8677H378.579Z" fill="#263238" stroke="#263238" stroke-linecap="round" stroke-linejoin="round"/>
<path d="M388.436 63.9737C388.436 63.9737 393.573 59.2711 393.573 61.9805C393.573 64.6898 391.148 67.1127 389.296 66.5398" fill="white"/>
<path d="M388.436 63.9737C388.436 63.9737 393.573 59.2711 393.573 61.9805C393.573 64.6898 391.148 67.1127 389.296 66.5398" stroke="#263238" stroke-linecap="round" stroke-linejoin="round"/>
<path d="M377.432 66.134C377.432 66.134 379.69 67.8527 382.08 66.134" stroke="#263238" stroke-linecap="round" stroke-linejoin="round"/>
<path d="M403.942 75.1721C413.065 65.4737 412.59 50.2233 402.882 41.1095C393.174 31.9956 377.909 32.4696 368.786 42.168C359.663 51.8665 360.138 67.1169 369.846 76.2307C379.554 85.3445 394.819 84.8706 403.942 75.1721Z" stroke="#263238" stroke-linecap="round" stroke-linejoin="round"/>
<path d="M550.517 254.686C564.228 251.483 572.744 237.783 569.538 224.086C566.333 210.388 552.619 201.881 538.908 205.083C525.198 208.286 516.682 221.986 519.887 235.683C523.093 249.38 536.807 257.888 550.517 254.686Z" stroke="#263238" stroke-linecap="round" stroke-linejoin="round"/>
<path d="M553.413 237.395C553.413 242.074 549.614 245.869 544.93 245.869C540.247 245.869 536.448 242.074 536.448 237.395C536.448 232.716 540.247 228.921 544.93 228.921C549.614 228.921 553.413 232.716 553.413 237.395Z" fill="#407BFF" stroke="#263238" stroke-linecap="round" stroke-linejoin="round"/>
<path d="M557.057 243.04C559.171 240.391 560.45 237.037 560.45 233.373C560.45 224.815 553.508 217.869 544.93 217.869C536.352 217.869 529.411 224.803 529.411 233.373C529.411 237.025 530.678 240.391 532.804 243.04H557.057Z" fill="white" stroke="#263238" stroke-linecap="round" stroke-linejoin="round"/>
<path d="M551 238.648H538.491C535.421 238.648 532.924 236.154 532.924 233.086C532.924 230.019 535.421 227.524 538.491 227.524H551C554.07 227.524 556.567 230.019 556.567 233.086C556.567 236.154 554.07 238.648 551 238.648Z" fill="#407BFF" stroke="#263238" stroke-linecap="round" stroke-linejoin="round"/>
<path d="M535.48 232.633C536.006 231.177 537.404 230.126 539.04 230.126C540.677 230.126 541.944 231.081 542.529 232.43" stroke="#263238" stroke-width="2" stroke-linecap="round" stroke-linejoin="round"/>
<path d="M547.165 232.633C547.69 231.177 549.088 230.126 550.725 230.126C552.362 230.126 553.628 231.081 554.213 232.43" stroke="#263238" stroke-width="2" stroke-linecap="round" stroke-linejoin="round"/>
<path d="M542.887 235.211C543.019 236.261 543.927 237.085 545.014 237.085C546.101 237.085 547.009 236.273 547.141 235.211H542.887Z" fill="white" stroke="#263238" stroke-linecap="round" stroke-linejoin="round"/>
<path d="M565.013 236.094C564.117 236.094 563.389 235.366 563.389 234.471V230.783C563.389 229.888 564.117 229.159 565.013 229.159C565.909 229.159 566.638 229.888 566.638 230.783V234.471C566.638 235.366 565.909 236.094 565.013 236.094Z" fill="#263238" stroke="#263238" stroke-linecap="round" stroke-linejoin="round"/>
<path d="M524.417 236.094C523.521 236.094 522.792 235.366 522.792 234.471V230.783C522.792 229.888 523.521 229.159 524.417 229.159C525.313 229.159 526.042 229.888 526.042 230.783V234.471C526.042 235.366 525.313 236.094 524.417 236.094Z" fill="#263238" stroke="#263238" stroke-linecap="round" stroke-linejoin="round"/>
<path d="M527.428 231.009C526.484 231.009 525.719 230.246 525.719 229.303V226.629C525.719 223.717 526.58 220.9 528.204 218.501C528.73 217.725 529.793 217.511 530.57 218.048C531.347 218.573 531.562 219.635 531.024 220.411C529.781 222.249 529.124 224.409 529.124 226.629V229.303C529.124 230.246 528.36 231.009 527.416 231.009H527.428Z" fill="#263238"/>
<path d="M560.426 220.315C560.151 220.315 559.888 220.184 559.721 219.945C557.487 216.627 553.759 214.646 549.769 214.646H540.283C536.293 214.646 532.577 216.627 530.331 219.933C530.068 220.327 529.543 220.423 529.148 220.16C528.754 219.898 528.658 219.372 528.921 218.979C531.478 215.195 535.719 212.939 540.283 212.939H549.769C554.333 212.939 558.586 215.195 561.143 218.991C561.405 219.384 561.298 219.91 560.916 220.172C560.772 220.268 560.605 220.315 560.438 220.315H560.426Z" fill="#263238"/>
<path d="M562.612 231.009C561.668 231.009 560.904 230.246 560.904 229.303V226.629C560.904 224.397 560.247 222.249 559.004 220.411C558.478 219.635 558.681 218.573 559.47 218.048C560.247 217.522 561.31 217.725 561.835 218.513C563.46 220.912 564.32 223.729 564.32 226.629V229.303C564.32 230.246 563.556 231.009 562.612 231.009Z" fill="#263238"/>
<path d="M527.631 238.505C525.767 238.505 524.262 237.001 524.262 235.139V229.78C524.262 227.918 525.767 226.414 527.631 226.414C529.495 226.414 531 227.918 531 229.78V235.139C531 237.001 529.495 238.505 527.631 238.505Z" fill="white" stroke="#263238" stroke-linecap="round" stroke-linejoin="round"/>
<path d="M527.977 226.426H527.285V238.505H527.977V226.426Z" fill="#407BFF" stroke="#263238" stroke-linecap="round" stroke-linejoin="round"/>
<path d="M565.36 229.792C565.36 227.933 563.852 226.426 561.991 226.426C560.13 226.426 558.622 227.933 558.622 229.792V235.139C558.622 236.998 560.13 238.505 561.991 238.505C563.852 238.505 565.36 236.998 565.36 235.139V229.792Z" fill="white" stroke="#263238" stroke-linecap="round" stroke-linejoin="round"/>
<path d="M562.337 226.426H561.644V238.505H562.337V226.426Z" fill="#407BFF" stroke="#263238" stroke-linecap="round" stroke-linejoin="round"/>
<path d="M544.99 225.328C547.404 225.328 549.65 224.111 550.964 222.082L552.433 219.814C550.211 218.585 547.654 217.881 544.93 217.881C542.207 217.881 539.495 218.632 537.225 219.933L539.435 222.679C540.785 224.361 542.828 225.34 544.978 225.34L544.99 225.328Z" fill="#407BFF" stroke="#263238" stroke-linecap="round" stroke-linejoin="round"/>
<path d="M545.11 240.021C545.248 240.021 545.36 239.908 545.36 239.77C545.36 239.632 545.248 239.519 545.11 239.519C544.971 239.519 544.859 239.632 544.859 239.77C544.859 239.908 544.971 240.021 545.11 240.021Z" fill="#263238"/>
<path d="M545.36 240.653C545.36 240.51 545.253 240.403 545.11 240.403C544.966 240.403 544.859 240.51 544.859 240.653C544.859 240.797 544.966 240.904 545.11 240.904C545.253 240.904 545.36 240.797 545.36 240.653Z" fill="#263238"/>
<path d="M544.369 240.51C544.5 240.474 544.572 240.331 544.536 240.2C544.5 240.068 544.357 239.997 544.226 240.033C544.094 240.068 544.022 240.212 544.058 240.343C544.094 240.474 544.237 240.546 544.369 240.51Z" fill="#263238"/>
<path d="M545.934 240.51C546.065 240.474 546.137 240.331 546.101 240.2C546.065 240.068 545.922 239.997 545.791 240.033C545.659 240.068 545.587 240.212 545.623 240.343C545.659 240.474 545.803 240.546 545.934 240.51Z" fill="#263238"/>
<path d="M513.39 99.7441H418.339V57.445V46.2138L429.569 57.445H513.39V99.7441Z" fill="#D6D6D6" stroke="#263238" stroke-linecap="round" stroke-linejoin="round"/>
<path d="M513.39 161.032H418.339V118.733V107.514L429.569 118.733H513.39V161.032Z" fill="#D6D6D6" stroke="#263238" stroke-linecap="round" stroke-linejoin="round"/>
<path d="M481.814 71.9943H504.179" stroke="#263238" stroke-linecap="round" stroke-linejoin="round"/>
<path d="M450.489 71.9943H476.055" stroke="#263238" stroke-linecap="round" stroke-linejoin="round"/>
<path d="M431.314 71.9943H446.02" stroke="#263238" stroke-linecap="round" stroke-linejoin="round"/>
<path d="M471.587 79.0242H504.179" stroke="#263238" stroke-linecap="round" stroke-linejoin="round"/>
<path d="M431.314 79.0242H465.829" stroke="#263238" stroke-linecap="round" stroke-linejoin="round"/>
<path d="M497.787 86.0422H504.179" stroke="#263238" stroke-linecap="round" stroke-linejoin="round"/>
<path d="M461.994 86.0422H492.674" stroke="#263238" stroke-linecap="round" stroke-linejoin="round"/>
<path d="M431.314 86.0422H456.88" stroke="#263238" stroke-linecap="round" stroke-linejoin="round"/>
<path d="M481.814 131.373H504.179" stroke="#263238" stroke-linecap="round" stroke-linejoin="round"/>
<path d="M450.489 131.373H476.055" stroke="#263238" stroke-linecap="round" stroke-linejoin="round"/>
<path d="M431.314 131.373H446.02" stroke="#263238" stroke-linecap="round" stroke-linejoin="round"/>
<path d="M471.587 138.403H504.179" stroke="#263238" stroke-linecap="round" stroke-linejoin="round"/>
<path d="M431.314 138.403H465.829" stroke="#263238" stroke-linecap="round" stroke-linejoin="round"/>
<path d="M497.787 145.421H504.179" stroke="#263238" stroke-linecap="round" stroke-linejoin="round"/>
<path d="M461.994 145.421H492.674" stroke="#263238" stroke-linecap="round" stroke-linejoin="round"/>
<path d="M431.314 145.421H456.88" stroke="#263238" stroke-linecap="round" stroke-linejoin="round"/>
<path d="M418.339 333.391H513.39V231.069V219.85L502.16 231.069H418.339V333.391Z" fill="#407BFF" stroke="#263238" stroke-linecap="round" stroke-linejoin="round"/>
<path d="M481.814 245.034H504.179" stroke="#263238" stroke-linecap="round" stroke-linejoin="round"/>
<path d="M450.489 245.034H476.055" stroke="#263238" stroke-linecap="round" stroke-linejoin="round"/>
<path d="M431.314 245.034H446.02" stroke="#263238" stroke-linecap="round" stroke-linejoin="round"/>
<path d="M471.587 252.052H504.179" stroke="#263238" stroke-linecap="round" stroke-linejoin="round"/>
<path d="M431.314 252.052H465.829" stroke="#263238" stroke-linecap="round" stroke-linejoin="round"/>
<path d="M497.787 259.082H504.179" stroke="#263238" stroke-linecap="round" stroke-linejoin="round"/>
<path d="M461.994 259.082H492.674" stroke="#263238" stroke-linecap="round" stroke-linejoin="round"/>
<path d="M431.314 259.082H456.88" stroke="#263238" stroke-linecap="round" stroke-linejoin="round"/>
<path d="M481.814 264.822H504.179" stroke="#263238" stroke-linecap="round" stroke-linejoin="round"/>
<path d="M450.489 264.822H476.055" stroke="#263238" stroke-linecap="round" stroke-linejoin="round"/>
<path d="M431.314 264.822H446.02" stroke="#263238" stroke-linecap="round" stroke-linejoin="round"/>
<path d="M471.587 271.852H504.179" stroke="#263238" stroke-linecap="round" stroke-linejoin="round"/>
<path d="M431.314 271.852H465.829" stroke="#263238" stroke-linecap="round" stroke-linejoin="round"/>
<path d="M497.787 278.87H504.179" stroke="#263238" stroke-linecap="round" stroke-linejoin="round"/>
<path d="M461.994 278.87H492.674" stroke="#263238" stroke-linecap="round" stroke-linejoin="round"/>
<path d="M431.314 278.87H456.88" stroke="#263238" stroke-linecap="round" stroke-linejoin="round"/>
<path d="M481.814 284.623H504.179" stroke="#263238" stroke-linecap="round" stroke-linejoin="round"/>
<path d="M450.489 284.623H476.055" stroke="#263238" stroke-linecap="round" stroke-linejoin="round"/>
<path d="M431.314 284.623H446.02" stroke="#263238" stroke-linecap="round" stroke-linejoin="round"/>
<path d="M471.587 291.641H504.179" stroke="#263238" stroke-linecap="round" stroke-linejoin="round"/>
<path d="M431.314 291.641H465.829" stroke="#263238" stroke-linecap="round" stroke-linejoin="round"/>
<path d="M497.787 298.671H504.179" stroke="#263238" stroke-linecap="round" stroke-linejoin="round"/>
<path d="M461.994 298.671H492.674" stroke="#263238" stroke-linecap="round" stroke-linejoin="round"/>
<path d="M431.314 298.671H456.88" stroke="#263238" stroke-linecap="round" stroke-linejoin="round"/>
<path d="M481.814 304.412H504.179" stroke="#263238" stroke-linecap="round" stroke-linejoin="round"/>
<path d="M450.489 304.412H476.055" stroke="#263238" stroke-linecap="round" stroke-linejoin="round"/>
<path d="M431.314 304.412H446.02" stroke="#263238" stroke-linecap="round" stroke-linejoin="round"/>
<path d="M471.587 311.442H504.179" stroke="#263238" stroke-linecap="round" stroke-linejoin="round"/>
<path d="M431.314 311.442H465.829" stroke="#263238" stroke-linecap="round" stroke-linejoin="round"/>
<path d="M497.787 318.46H504.179" stroke="#263238" stroke-linecap="round" stroke-linejoin="round"/>
<path d="M461.994 318.46H492.674" stroke="#263238" stroke-linecap="round" stroke-linejoin="round"/>
<path d="M431.314 318.46H456.88" stroke="#263238" stroke-linecap="round" stroke-linejoin="round"/>
<path d="M544.715 390.287C558.796 390.287 570.21 378.884 570.21 364.817C570.21 350.75 558.796 339.347 544.715 339.347C530.635 339.347 519.22 350.75 519.22 364.817C519.22 378.884 530.635 390.287 544.715 390.287Z" stroke="#263238" stroke-linecap="round" stroke-linejoin="round"/>
<path d="M553.413 372.336C553.413 377.015 549.614 380.811 544.93 380.811C540.247 380.811 536.448 377.015 536.448 372.336C536.448 367.658 540.247 363.862 544.93 363.862C549.614 363.862 553.413 367.658 553.413 372.336Z" fill="#407BFF" stroke="#263238" stroke-linecap="round" stroke-linejoin="round"/>
<path d="M557.057 377.97C559.171 375.32 560.45 371.966 560.45 368.302C560.45 359.745 553.508 352.798 544.93 352.798C536.352 352.798 529.411 359.733 529.411 368.302C529.411 371.954 530.678 375.32 532.804 377.97H557.057Z" fill="white" stroke="#263238" stroke-linecap="round" stroke-linejoin="round"/>
<path d="M551 373.578H538.491C535.421 373.578 532.924 371.083 532.924 368.016C532.924 364.948 535.421 362.454 538.491 362.454H551C554.07 362.454 556.567 364.948 556.567 368.016C556.567 371.083 554.07 373.578 551 373.578Z" fill="#407BFF" stroke="#263238" stroke-linecap="round" stroke-linejoin="round"/>
<path d="M535.48 367.562C536.006 366.106 537.404 365.056 539.04 365.056C540.677 365.056 541.944 366.011 542.529 367.359" stroke="#263238" stroke-width="2" stroke-linecap="round" stroke-linejoin="round"/>
<path d="M547.165 367.562C547.69 366.106 549.088 365.056 550.725 365.056C552.362 365.056 553.628 366.011 554.213 367.359" stroke="#263238" stroke-width="2" stroke-linecap="round" stroke-linejoin="round"/>
<path d="M542.887 370.14C543.019 371.191 543.927 372.014 545.014 372.014C546.101 372.014 547.009 371.203 547.141 370.14H542.887Z" fill="white" stroke="#263238" stroke-linecap="round" stroke-linejoin="round"/>
<path d="M565.013 371.024C564.117 371.024 563.389 370.295 563.389 369.4V365.712C563.389 364.817 564.117 364.089 565.013 364.089C565.909 364.089 566.638 364.817 566.638 365.712V369.4C566.638 370.295 565.909 371.024 565.013 371.024Z" fill="#263238" stroke="#263238" stroke-linecap="round" stroke-linejoin="round"/>
<path d="M524.417 371.024C523.521 371.024 522.792 370.295 522.792 369.4V365.712C522.792 364.817 523.521 364.089 524.417 364.089C525.313 364.089 526.042 364.817 526.042 365.712V369.4C526.042 370.295 525.313 371.024 524.417 371.024Z" fill="#263238" stroke="#263238" stroke-linecap="round" stroke-linejoin="round"/>
<path d="M527.428 365.951C526.484 365.951 525.719 365.187 525.719 364.244V361.571C525.719 358.658 526.58 355.842 528.204 353.443C528.73 352.667 529.793 352.452 530.57 352.989C531.347 353.514 531.562 354.577 531.024 355.352C529.781 357.19 529.124 359.351 529.124 361.571V364.244C529.124 365.187 528.36 365.951 527.416 365.951H527.428Z" fill="#263238"/>
<path d="M560.426 355.245C560.151 355.245 559.888 355.114 559.721 354.875C557.487 351.557 553.759 349.576 549.769 349.576H540.283C536.293 349.576 532.577 351.557 530.331 354.863C530.068 355.257 529.543 355.352 529.148 355.09C528.754 354.827 528.658 354.302 528.921 353.908C531.478 350.125 535.719 347.869 540.283 347.869H549.769C554.333 347.869 558.586 350.125 561.143 353.92C561.405 354.314 561.298 354.839 560.916 355.102C560.772 355.197 560.605 355.245 560.438 355.245H560.426Z" fill="#263238"/>
<path d="M562.612 365.951C561.668 365.951 560.904 365.187 560.904 364.244V361.571C560.904 359.339 560.247 357.19 559.004 355.352C558.478 354.577 558.681 353.514 559.47 352.989C560.247 352.464 561.31 352.667 561.835 353.455C563.46 355.854 564.32 358.67 564.32 361.571V364.244C564.32 365.187 563.556 365.951 562.612 365.951Z" fill="#263238"/>
<path d="M527.631 373.446C525.767 373.446 524.262 371.943 524.262 370.081V364.722C524.262 362.86 525.767 361.356 527.631 361.356C529.495 361.356 531 362.86 531 364.722V370.081C531 371.943 529.495 373.446 527.631 373.446Z" fill="white" stroke="#263238" stroke-linecap="round" stroke-linejoin="round"/>
<path d="M527.977 361.356H527.285V373.434H527.977V361.356Z" fill="#407BFF" stroke="#263238" stroke-linecap="round" stroke-linejoin="round"/>
<path d="M561.991 361.356C563.855 361.356 565.36 362.86 565.36 364.722V370.081C565.36 371.943 563.855 373.446 561.991 373.446C560.127 373.446 558.622 371.943 558.622 370.081V364.722C558.622 362.86 560.127 361.356 561.991 361.356Z" fill="white" stroke="#263238" stroke-linecap="round" stroke-linejoin="round"/>
<path d="M562.337 361.356H561.644V373.434H562.337V361.356Z" fill="#407BFF" stroke="#263238" stroke-linecap="round" stroke-linejoin="round"/>
<path d="M544.99 360.258C547.404 360.258 549.65 359.04 550.964 357.011L552.433 354.744C550.211 353.514 547.654 352.81 544.93 352.81C542.207 352.81 539.495 353.562 537.225 354.863L539.435 357.608C540.785 359.291 542.828 360.27 544.978 360.27L544.99 360.258Z" fill="#407BFF" stroke="#263238" stroke-linecap="round" stroke-linejoin="round"/>
<path d="M545.11 374.95C545.248 374.95 545.36 374.838 545.36 374.7C545.36 374.561 545.248 374.449 545.11 374.449C544.971 374.449 544.859 374.561 544.859 374.7C544.859 374.838 544.971 374.95 545.11 374.95Z" fill="#263238"/>
<path d="M545.11 375.834C545.248 375.834 545.36 375.721 545.36 375.583C545.36 375.444 545.248 375.332 545.11 375.332C544.971 375.332 544.859 375.444 544.859 375.583C544.859 375.721 544.971 375.834 545.11 375.834Z" fill="#263238"/>
<path d="M544.369 375.44C544.5 375.404 544.572 375.261 544.536 375.129C544.5 374.998 544.357 374.926 544.226 374.962C544.094 374.998 544.022 375.141 544.058 375.273C544.094 375.404 544.237 375.475 544.369 375.44Z" fill="#263238"/>
<path d="M545.934 375.44C546.065 375.404 546.137 375.261 546.101 375.129C546.065 374.998 545.922 374.926 545.791 374.962C545.659 374.998 545.587 375.141 545.623 375.273C545.659 375.404 545.803 375.475 545.934 375.44Z" fill="#263238"/>
<path d="M418.339 426.392H513.39V365.999V354.779L502.16 365.999H418.339V426.392Z" fill="#407BFF" stroke="#263238" stroke-linecap="round" stroke-linejoin="round"/>
<path d="M481.814 379.963H504.179" stroke="#263238" stroke-linecap="round" stroke-linejoin="round"/>
<path d="M450.489 379.963H476.055" stroke="#263238" stroke-linecap="round" stroke-linejoin="round"/>
<path d="M431.314 379.963H446.02" stroke="#263238" stroke-linecap="round" stroke-linejoin="round"/>
<path d="M471.587 386.993H504.179" stroke="#263238" stroke-linecap="round" stroke-linejoin="round"/>
<path d="M431.314 386.993H465.829" stroke="#263238" stroke-linecap="round" stroke-linejoin="round"/>
<path d="M497.787 394.011H504.179" stroke="#263238" stroke-linecap="round" stroke-linejoin="round"/>
<path d="M461.994 394.011H492.674" stroke="#263238" stroke-linecap="round" stroke-linejoin="round"/>
<path d="M431.314 394.011H456.88" stroke="#263238" stroke-linecap="round" stroke-linejoin="round"/>
<path d="M481.814 399.764H504.179" stroke="#263238" stroke-linecap="round" stroke-linejoin="round"/>
<path d="M450.489 399.764H476.055" stroke="#263238" stroke-linecap="round" stroke-linejoin="round"/>
<path d="M431.314 399.764H446.02" stroke="#263238" stroke-linecap="round" stroke-linejoin="round"/>
<path d="M471.587 406.782H504.179" stroke="#263238" stroke-linecap="round" stroke-linejoin="round"/>
<path d="M431.314 406.782H465.829" stroke="#263238" stroke-linecap="round" stroke-linejoin="round"/>
<path d="M497.787 413.812H504.179" stroke="#263238" stroke-linecap="round" stroke-linejoin="round"/>
<path d="M461.994 413.812H492.674" stroke="#263238" stroke-linecap="round" stroke-linejoin="round"/>
<path d="M431.314 413.812H456.88" stroke="#263238" stroke-linecap="round" stroke-linejoin="round"/>
<path d="M561.262 1.19354H512.004C510.965 6.71963 506.126 10.909 500.284 10.909H429.689C423.847 10.909 419.008 6.71963 417.969 1.19354H368.711C360.121 1.19354 353.168 8.15188 353.168 16.7215V433.267C353.168 441.848 360.133 448.795 368.711 448.795H561.274C569.864 448.795 576.817 441.836 576.817 433.267V16.7215C576.817 8.13994 569.852 1.19354 561.274 1.19354H561.262Z" stroke="#263238" stroke-width="2" stroke-linecap="round" stroke-linejoin="round"/>
<path d="M576.805 29.3133V16.7334C576.805 8.1519 569.84 1.20551 561.262 1.20551H512.004C510.965 6.73159 506.126 10.9209 500.284 10.9209H429.689C423.847 10.9209 419.008 6.73159 417.969 1.20551H368.711C360.121 1.20551 353.168 8.16384 353.168 16.7334V29.3133H576.817H576.805Z" stroke="#263238" stroke-width="2" stroke-linecap="round" stroke-linejoin="round"/>
<path d="M373.657 12.4367C373.657 15.4921 370.228 16.5902 370.204 18.9176V19.0727H373.538V20.0992H369.093V19.2279C369.093 15.9576 372.522 15.325 372.522 12.4725C372.522 11.4341 372.176 10.8851 371.339 10.8851C370.503 10.8851 370.157 11.4818 370.157 12.377V13.2721H369.105V12.4486C369.105 10.897 369.81 9.87054 371.375 9.87054C372.94 9.87054 373.669 10.8851 373.669 12.4367H373.657Z" fill="#263238"/>
<path d="M379.201 12.4247V12.6873C379.201 13.7257 378.782 14.4657 377.97 14.776C378.818 15.0982 379.201 15.8621 379.201 16.8766V17.6524C379.201 19.204 378.472 20.2185 376.907 20.2185C375.342 20.2185 374.637 19.204 374.637 17.6524V16.9602H375.688V17.724C375.688 18.6311 376.07 19.1801 376.871 19.1801C377.671 19.1801 378.054 18.6431 378.054 17.6166V16.8408C378.054 15.8382 377.635 15.3608 376.775 15.3369H376.166V14.3224H376.835C377.588 14.2986 378.054 13.8212 378.054 12.9379V12.4725C378.054 11.4341 377.695 10.897 376.871 10.897C376.047 10.897 375.688 11.4579 375.688 12.377V12.9021H374.637V12.4366C374.637 10.885 375.366 9.89441 376.907 9.89441C378.448 9.89441 379.201 10.897 379.201 12.4366V12.4247Z" fill="#263238"/>
<path d="M381.399 13.1886V14.597H380.312V13.1886H381.399ZM381.399 18.7027V20.1111H380.312V18.7027H381.399Z" fill="#263238"/>
<path d="M383.681 14.0956C384.003 13.5466 384.505 13.2602 385.186 13.2602C386.488 13.2602 387.074 14.215 387.074 15.6592V17.6405C387.074 19.1921 386.333 20.2066 384.792 20.2066C383.25 20.2066 382.522 19.1921 382.522 17.6405V16.9601H383.573V17.7121C383.573 18.6192 383.955 19.1682 384.756 19.1682C385.556 19.1682 385.939 18.6192 385.939 17.7121V15.7427C385.939 14.8356 385.556 14.2866 384.756 14.2866C384.135 14.2866 383.716 14.6327 383.609 15.3727V15.5995H382.558L382.832 9.966H386.835V10.9805H383.848L383.693 14.0956H383.681Z" fill="#263238"/>
<path d="M392.713 12.4128V12.6038H391.661V12.3412C391.661 11.4341 391.279 10.897 390.455 10.897C389.63 10.897 389.224 11.446 389.224 12.5322V14.7999C389.499 14.1076 390.048 13.7138 390.861 13.7138C392.163 13.7138 392.748 14.6567 392.748 16.1128V17.6524C392.748 19.204 391.984 20.2186 390.431 20.2186C388.878 20.2186 388.101 19.204 388.101 17.6524V12.4844C388.101 10.8731 388.83 9.88251 390.431 9.88251C392.032 9.88251 392.725 10.8612 392.725 12.4128H392.713ZM389.224 16.2083V17.7241C389.224 18.6311 389.606 19.1802 390.431 19.1802C391.255 19.1802 391.637 18.6311 391.637 17.7241V16.2083C391.637 15.3012 391.243 14.7521 390.431 14.7521C389.618 14.7521 389.224 15.3012 389.224 16.2083Z" fill="#263238"/>
<path d="M517.93 12.8544H515.063V20.0037H517.93V12.8544Z" fill="#263238"/>
<path d="M521.741 11.4222H518.874V20.0037H521.741V11.4222Z" fill="#263238"/>
<path d="M525.564 10.4077H522.697V20.0037H525.564V10.4077Z" fill="#263238"/>
<path d="M529.375 8.62927H526.508V20.0037H529.375V8.62927Z" fill="#263238"/>
<path d="M564.798 19.8127H547.619V9.32153H564.798V19.8127ZM548.574 18.8579H563.843V10.2764H548.574V18.8579Z" fill="#263238"/>
<path d="M559.076 11.3148H550.008V17.8195H559.076V11.3148Z" fill="#263238"/>
<path d="M566.375 13.3318H564.213V15.8025H566.375V13.3318Z" fill="#263238"/>
<path d="M541.322 17.5212C541.215 17.5212 541.095 17.4973 541 17.4257C537.499 15.3489 535.194 17.2825 535.098 17.3541C534.835 17.5808 534.429 17.557 534.19 17.2944C533.963 17.0318 533.987 16.626 534.25 16.3992C534.369 16.2918 537.332 13.7615 541.657 16.3276C541.956 16.5067 542.063 16.9005 541.884 17.2108C541.765 17.4137 541.549 17.5212 541.334 17.5212H541.322Z" fill="#263238"/>
<path d="M542.625 15.3727C542.517 15.3727 542.398 15.3489 542.302 15.2773C537.249 12.2695 533.856 15.1818 533.82 15.2057C533.557 15.4444 533.151 15.4086 532.912 15.146C532.673 14.8834 532.697 14.4776 532.971 14.2389C533.007 14.2031 537.105 10.6941 542.959 14.1673C543.258 14.3463 543.365 14.7402 543.186 15.0505C543.067 15.2534 542.852 15.3608 542.637 15.3608L542.625 15.3727Z" fill="#263238"/>
<path d="M543.796 12.8783C543.688 12.8783 543.569 12.8544 543.473 12.7828C537.069 8.97541 532.816 12.556 532.637 12.7112C532.374 12.938 531.968 12.9141 531.729 12.6515C531.49 12.3889 531.526 11.9831 531.789 11.7444C531.836 11.6967 536.89 7.37607 544.13 11.6728C544.429 11.8518 544.536 12.2457 544.357 12.556C544.238 12.7589 544.023 12.8663 543.807 12.8663L543.796 12.8783Z" fill="#263238"/>
<path d="M539.399 18.5953C539.399 19.4786 538.682 20.2066 537.786 20.2066C536.89 20.2066 536.173 19.4905 536.173 18.5953C536.173 17.7002 536.89 16.9841 537.786 16.9841C538.682 16.9841 539.399 17.7002 539.399 18.5953Z" fill="#263238"/>
<path d="M233.96 200.312H209.158V415.614H233.96V200.312Z" fill="#263238" stroke="#263238" stroke-linecap="round" stroke-linejoin="round"/>
<path d="M37.3107 278.286V293.432H136.149V278.286H37.3107Z" fill="#263238" stroke="#263238" stroke-linecap="round" stroke-linejoin="round"/>
<path d="M47.4896 226.021H32.3288V286.616H47.4896V226.021Z" fill="#263238" stroke="#263238" stroke-linecap="round" stroke-linejoin="round"/>
<path d="M53.7977 286.855C53.7977 294.518 47.5733 300.736 39.9033 300.736C39.4493 300.736 38.9953 300.712 38.5413 300.676C31.5044 299.984 26.0088 294.064 26.0088 286.867C26.0088 279.205 32.2332 272.986 39.9033 272.986C46.3786 272.986 51.8264 277.426 53.3557 283.406C53.6424 284.516 53.7858 285.674 53.7858 286.855H53.7977Z" fill="white" stroke="#263238" stroke-linecap="round" stroke-linejoin="round"/>
<path d="M54.8132 235.354C54.8132 243.017 48.5888 249.235 40.9188 249.235C40.4648 249.235 40.0108 249.211 39.5568 249.175C32.52 248.483 27.0243 242.563 27.0243 235.366C27.0243 227.703 33.2487 221.485 40.9188 221.485C47.3941 221.485 52.8419 225.925 54.3712 231.905C54.6579 233.015 54.8013 234.172 54.8013 235.354H54.8132Z" fill="white" stroke="#263238" stroke-linecap="round" stroke-linejoin="round"/>
<path d="M79.6991 197.726L59.5023 208.59L63.688 216.356L83.8847 205.492L79.6991 197.726Z" fill="#263238" stroke="#263238" stroke-linecap="round" stroke-linejoin="round"/>
<path d="M87.2257 206.339L77.2618 211.698L70.9059 199.906L80.8698 194.547C84.1314 192.792 88.1934 194.01 89.9496 197.268C91.7058 200.527 90.4872 204.585 87.2257 206.339Z" fill="white" stroke="#263238" stroke-linecap="round" stroke-linejoin="round"/>
<path d="M43.6188 156.354L42.9139 197.471L34.085 197.34L34.7899 156.222L43.6188 156.354Z" fill="#263238" stroke="#263238" stroke-linecap="round" stroke-linejoin="round"/>
<path d="M46.0082 153.883L45.829 165.186L32.4244 164.983L32.6036 153.68C32.6633 149.98 35.7098 147.032 39.4134 147.092C43.117 147.151 46.0679 150.195 46.0082 153.895V153.883Z" fill="white" stroke="#263238" stroke-linecap="round" stroke-linejoin="round"/>
<path d="M76.5927 171.273L57.2385 207.568L49.437 203.439L68.7913 167.143L76.5927 171.273Z" fill="#263238" stroke="#263238" stroke-linecap="round" stroke-linejoin="round"/>
<path d="M79.8424 170.151L74.5379 180.141L62.6983 173.863L68.0028 163.873C69.7351 160.603 73.7971 159.361 77.0587 161.092C80.3322 162.823 81.5747 166.881 79.8424 170.139V170.151Z" fill="white" stroke="#263238" stroke-linecap="round" stroke-linejoin="round"/>
<path d="M12.3294 171.118L31.5045 207.497L23.715 211.626L4.52795 175.235L12.3294 171.118Z" fill="#263238" stroke="#263238" stroke-linecap="round" stroke-linejoin="round"/>
<path d="M30.3217 197.483C29.5213 192.792 25.065 189.63 20.3698 190.441C15.6746 191.241 12.5086 195.693 13.321 200.383C14.1215 205.074 18.5777 208.237 23.2729 207.425C27.9681 206.626 31.1341 202.174 30.3217 197.483Z" fill="white" stroke="#263238" stroke-linecap="round" stroke-linejoin="round"/>
<path d="M38.7683 198.629C43.5322 198.629 47.3941 194.771 47.3941 190.011C47.3941 185.252 43.5322 181.394 38.7683 181.394C34.0044 181.394 30.1425 185.252 30.1425 190.011C30.1425 194.771 34.0044 198.629 38.7683 198.629Z" fill="white" stroke="#263238" stroke-linecap="round" stroke-linejoin="round"/>
<path d="M66.9515 194.988C67.6802 190.286 64.4426 185.882 59.7354 185.154C55.0283 184.426 50.6198 187.66 49.891 192.363C49.1623 197.065 52.3999 201.469 57.1071 202.197C61.8142 202.926 66.2227 199.691 66.9515 194.988Z" fill="white" stroke="#263238" stroke-linecap="round" stroke-linejoin="round"/>
<path d="M13.2254 167.8L18.518 177.79L6.66647 184.056L1.37391 174.066C-0.358415 170.795 0.896029 166.749 4.16953 165.019C7.44303 163.288 11.4931 164.541 13.2254 167.812V167.8Z" fill="white" stroke="#263238" stroke-linecap="round" stroke-linejoin="round"/>
<path d="M65.2908 214.145C65.2908 227.584 54.3712 238.493 40.9188 238.493C40.1183 238.493 39.3298 238.445 38.5413 238.386C26.2 237.168 16.5587 226.784 16.5587 214.145C16.5587 200.706 27.4783 189.797 40.9307 189.797C52.2924 189.797 61.8381 197.578 64.5382 208.082C65.0399 210.015 65.2908 212.056 65.2908 214.145Z" fill="white" stroke="#263238" stroke-linecap="round" stroke-linejoin="round"/>
<path d="M65.2908 214.145C65.2908 227.584 54.3712 238.493 40.9188 238.493C40.1183 238.493 39.3298 238.445 38.5413 238.386C38.0395 236.452 37.7886 234.411 37.7886 232.322C37.7886 218.883 48.7083 207.974 62.1607 207.974C62.9611 207.974 63.7497 208.022 64.5382 208.082C65.0399 210.015 65.2908 212.056 65.2908 214.145Z" fill="white" stroke="#263238" stroke-linecap="round" stroke-linejoin="round"/>
<path d="M187.862 287.294C191.996 269.643 181.025 251.987 163.357 247.856C145.69 243.726 128.016 254.687 123.881 272.337C119.747 289.988 130.718 307.644 148.386 311.775C166.054 315.905 183.728 304.944 187.862 287.294Z" fill="white" stroke="#263238" stroke-linecap="round" stroke-linejoin="round"/>
<path d="M161.986 294.481C170.103 291.099 173.939 281.783 170.553 273.673C167.168 265.563 157.842 261.731 149.725 265.114C141.607 268.496 137.771 277.812 141.157 285.922C144.543 294.032 153.868 297.864 161.986 294.481Z" fill="#263238" stroke="#263238" stroke-linecap="round" stroke-linejoin="round"/>
<path d="M150.223 418.646H295.953L298.056 408.799C299.812 400.611 294.627 392.579 286.455 390.741C265.787 386.098 221.069 384.427 221.069 384.427C210.293 384.773 180.305 386.11 159.637 390.765C151.501 392.603 146.376 400.659 148.12 408.799L150.223 418.646Z" fill="white" stroke="#263238" stroke-linecap="round" stroke-linejoin="round"/>
<path d="M258.165 386.838C239.491 385.119 221.057 384.427 221.057 384.427C214.271 384.642 199.875 385.251 184.977 386.838C189.325 401.674 204.056 412.595 221.571 412.595C239.085 412.595 253.816 401.674 258.165 386.838Z" fill="#407BFF" stroke="#263238" stroke-linecap="round" stroke-linejoin="round"/>
<path d="M373.778 349.137L382.844 336.998L303.629 277.946L294.562 290.085L373.778 349.137Z" fill="#263238" stroke="#263238" stroke-linecap="round" stroke-linejoin="round"/>
<path d="M334.35 384.953L346.501 394.011L382.776 345.446L370.625 336.388L334.35 384.953Z" fill="#263238" stroke="#263238" stroke-linecap="round" stroke-linejoin="round"/>
<path d="M365.7 332.424C370.288 326.29 378.997 325.025 385.138 329.608C385.509 329.882 385.855 330.169 386.19 330.467C391.41 335.229 392.271 343.25 387.97 349.027C383.382 355.161 374.673 356.427 368.532 351.843C363.347 347.976 361.638 341.161 363.98 335.456C364.41 334.406 364.984 333.379 365.7 332.424Z" fill="white" stroke="#263238" stroke-linecap="round" stroke-linejoin="round"/>
<path d="M334.005 371.215C338.282 364.865 346.92 363.17 353.275 367.443C353.658 367.694 354.016 367.968 354.363 368.255C359.81 372.754 361.065 380.727 357.051 386.707C352.774 393.068 344.136 394.751 337.78 390.478C332.404 386.874 330.373 380.154 332.428 374.33C332.81 373.255 333.336 372.217 333.993 371.226L334.005 371.215Z" fill="white" stroke="#263238" stroke-linecap="round" stroke-linejoin="round"/>
<path d="M292.312 388.571L315.141 390.811L316.004 382.033L293.175 379.793L292.312 388.571Z" fill="#263238" stroke="#263238" stroke-linecap="round" stroke-linejoin="round"/>
<path d="M290.9 377.218L302.154 378.328L300.84 391.66L289.585 390.55C285.906 390.192 283.206 386.91 283.576 383.233C283.934 379.557 287.22 376.86 290.9 377.23V377.218Z" fill="white" stroke="#263238" stroke-linecap="round" stroke-linejoin="round"/>
<path d="M313.468 382.971C320.97 371.823 336.119 368.851 347.29 376.347C347.959 376.8 348.58 377.278 349.201 377.767C358.771 385.656 360.969 399.657 353.909 410.136C346.406 421.283 331.257 424.255 320.098 416.76C310.672 410.434 307.1 398.642 310.72 388.425C311.389 386.54 312.309 384.713 313.48 382.971H313.468Z" fill="white" stroke="#263238" stroke-linecap="round" stroke-linejoin="round"/>
<path d="M287.244 408.226L317.434 385.68L322.273 392.137L292.082 414.683L287.244 408.226Z" fill="#263238" stroke="#263238" stroke-linecap="round" stroke-linejoin="round"/>
<path d="M284.114 407.88L292.405 401.674L299.764 411.485L291.473 417.691C288.761 419.72 284.914 419.171 282.883 416.462C280.852 413.752 281.402 409.909 284.114 407.88Z" fill="white" stroke="#263238" stroke-linecap="round" stroke-linejoin="round"/>
<path d="M326.215 392.627C327.243 387.972 324.304 383.377 319.644 382.35C314.985 381.324 310.385 384.26 309.358 388.915C308.33 393.57 311.269 398.165 315.929 399.191C320.588 400.218 325.188 397.281 326.215 392.627Z" fill="white" stroke="#263238" stroke-linecap="round" stroke-linejoin="round"/>
<path d="M342.224 430.891L346.693 399.955L353.335 400.898L348.867 431.834L342.224 430.891Z" fill="#263238" stroke="#263238" stroke-linecap="round" stroke-linejoin="round"/>
<path d="M340.193 432.527L341.412 424.017L351.495 425.449L350.277 433.959C349.882 436.74 347.302 438.673 344.518 438.279C341.734 437.886 339.799 435.308 340.193 432.527Z" fill="white" stroke="#263238" stroke-linecap="round" stroke-linejoin="round"/>
<path d="M355.928 398.869C353.801 395.539 349.369 394.56 346.035 396.697C342.702 398.821 341.723 403.249 343.861 406.579C345.988 409.909 350.42 410.888 353.753 408.751C357.087 406.627 358.066 402.199 355.928 398.869Z" fill="white" stroke="#263238" stroke-linecap="round" stroke-linejoin="round"/>
<path d="M312.345 426.774L332.464 394.93L339.309 399.215L319.19 431.059L312.345 426.774Z" fill="#263238" stroke="#263238" stroke-linecap="round" stroke-linejoin="round"/>
<path d="M309.298 427.573L314.806 418.813L325.2 425.342L319.692 434.102C317.888 436.967 314.101 437.826 311.234 436.036C308.366 434.233 307.506 430.45 309.298 427.585V427.573Z" fill="white" stroke="#263238" stroke-linecap="round" stroke-linejoin="round"/>
<path d="M343.156 398.272C342.451 393.57 338.055 390.323 333.348 391.027C328.64 391.731 325.391 396.124 326.096 400.826C326.801 405.529 331.197 408.775 335.904 408.071C340.611 407.367 343.861 402.975 343.156 398.272Z" fill="white" stroke="#263238" stroke-linecap="round" stroke-linejoin="round"/>
<path d="M305.927 307.972C321.184 298.16 325.591 277.85 315.769 262.607C305.948 247.365 285.618 242.963 270.36 252.774C255.103 262.586 250.696 282.896 260.518 298.139C270.339 313.381 290.669 317.783 305.927 307.972Z" fill="white" stroke="#263238" stroke-linecap="round" stroke-linejoin="round"/>
<path d="M302.637 287.008C306.304 279.022 302.795 269.577 294.801 265.914C286.806 262.251 277.353 265.755 273.686 273.742C270.019 281.729 273.527 291.173 281.522 294.836C289.516 298.5 298.97 294.995 302.637 287.008Z" fill="#263238" stroke="#263238" stroke-linecap="round" stroke-linejoin="round"/>
<path d="M221.559 215.362C250.696 215.362 274.317 191.765 274.317 162.656C274.317 133.546 250.696 109.949 221.559 109.949C192.421 109.949 168.8 133.546 168.8 162.656C168.8 191.765 192.421 215.362 221.559 215.362Z" fill="#407BFF" stroke="#263238" stroke-linecap="round" stroke-linejoin="round"/>
<path d="M296.981 197.746C310.17 181.251 318.079 160.364 318.079 137.615C318.079 84.3594 274.867 41.1891 221.559 41.1891C168.251 41.1891 125.038 84.3594 125.038 137.615C125.038 160.364 132.947 181.263 146.137 197.746H296.981Z" fill="white" stroke="#263238" stroke-linecap="round" stroke-linejoin="round"/>
<path d="M284.09 101.224H156.567C151.169 101.224 146.794 105.595 146.794 110.987V160.65C146.794 166.042 151.169 170.414 156.567 170.414H284.09C289.487 170.414 293.862 166.042 293.862 160.65V110.987C293.862 105.595 289.487 101.224 284.09 101.224Z" fill="#407BFF" stroke="#263238" stroke-linecap="round" stroke-linejoin="round"/>
<path d="M162.707 133.02C165.969 123.949 174.643 117.456 184.845 117.456C195.048 117.456 202.945 123.376 206.505 131.803" stroke="#263238" stroke-width="5" stroke-linecap="round" stroke-linejoin="round"/>
<path d="M235.381 133.02C238.643 123.949 247.317 117.456 257.519 117.456C267.722 117.456 275.619 123.376 279.179 131.803" stroke="#263238" stroke-width="5" stroke-linecap="round" stroke-linejoin="round"/>
<path d="M208.811 149.061C209.647 155.614 215.251 160.686 222.037 160.686C228.823 160.686 234.414 155.614 235.262 149.061H208.823H208.811Z" fill="white" stroke="#263238" stroke-linecap="round" stroke-linejoin="round"/>
<path d="M346.43 154.539C340.85 154.539 336.322 150.016 336.322 144.442V121.502C336.322 115.928 340.85 111.405 346.43 111.405C352.009 111.405 356.537 115.928 356.537 121.502V144.442C356.537 150.016 352.009 154.539 346.43 154.539Z" fill="#263238" stroke="#263238" stroke-linecap="round" stroke-linejoin="round"/>
<path d="M93.8921 154.539C88.3129 154.539 83.7849 150.016 83.7849 144.442V121.502C83.7849 115.928 88.3129 111.405 93.8921 111.405C99.4714 111.405 103.999 115.928 103.999 121.502V144.442C103.999 150.016 99.4714 154.539 93.8921 154.539Z" fill="#263238" stroke="#263238" stroke-linecap="round" stroke-linejoin="round"/>
<path d="M126.245 51.0119C117.619 63.7589 112.589 79.1317 112.589 95.6622V112.324" stroke="#263238" stroke-width="14" stroke-linecap="round" stroke-linejoin="round"/>
<path d="M317.876 51.0716C303.516 29.7908 279.168 15.8025 251.546 15.8025H192.551C164.953 15.8025 140.629 29.7669 126.257 51.0119" stroke="#263238" stroke-width="7" stroke-linecap="round" stroke-linejoin="round"/>
<path d="M331.484 112.324V95.6622C331.484 79.1436 326.466 63.8066 317.876 51.0716" stroke="#263238" stroke-width="14" stroke-linecap="round" stroke-linejoin="round"/>
<path d="M124.381 94.3851H103.366C97.5994 94.3851 92.9244 99.0555 92.9244 104.817V159.123C92.9244 164.884 97.5994 169.554 103.366 169.554H124.381C130.148 169.554 134.823 164.884 134.823 159.123V104.817C134.823 99.0555 130.148 94.3851 124.381 94.3851Z" fill="white" stroke="#263238" stroke-linecap="round" stroke-linejoin="round"/>
<path d="M116.018 94.3851H111.741V169.554H116.018V94.3851Z" fill="#407BFF" stroke="#263238" stroke-linecap="round" stroke-linejoin="round"/>
<path d="M338.15 94.3851H317.135C311.369 94.3851 306.694 99.0555 306.694 104.817V159.123C306.694 164.884 311.369 169.554 317.135 169.554H338.15C343.917 169.554 348.592 164.884 348.592 159.123V104.817C348.592 99.0555 343.917 94.3851 338.15 94.3851Z" fill="white" stroke="#263238" stroke-linecap="round" stroke-linejoin="round"/>
<path d="M329.775 94.3851H325.498V169.554H329.775V94.3851Z" fill="#407BFF" stroke="#263238" stroke-linecap="round" stroke-linejoin="round"/>
<path d="M221.893 87.5581C236.911 87.5581 250.913 79.9552 259.073 67.3514L268.236 53.208C254.401 45.5574 238.5 41.1891 221.559 41.1891C204.618 41.1891 187.76 45.8439 173.627 53.9361L187.366 71.0275C195.765 81.4829 208.465 87.5581 221.893 87.5581Z" fill="#407BFF" stroke="#263238" stroke-linecap="round" stroke-linejoin="round"/>
<path d="M224.175 177.42C224.175 176.56 223.482 175.856 222.61 175.856C221.738 175.856 221.045 176.548 221.045 177.42C221.045 178.291 221.738 178.983 222.61 178.983C223.482 178.983 224.175 178.291 224.175 177.42Z" fill="#263238"/>
<path d="M224.175 182.874C224.175 182.015 223.482 181.311 222.61 181.311C221.738 181.311 221.045 182.003 221.045 182.874C221.045 183.745 221.738 184.438 222.61 184.438C223.482 184.438 224.175 183.745 224.175 182.874Z" fill="#263238"/>
<path d="M217.998 182.027C218.823 181.776 219.289 180.905 219.038 180.081C218.787 179.258 217.915 178.792 217.09 179.043C216.266 179.293 215.8 180.165 216.051 180.988C216.302 181.812 217.174 182.277 217.998 182.027Z" fill="#263238"/>
<path d="M227.747 182.027C228.572 181.776 229.038 180.905 228.787 180.081C228.536 179.258 227.664 178.792 226.839 179.043C226.015 179.293 225.549 180.165 225.8 180.988C226.051 181.812 226.923 182.277 227.747 182.027Z" fill="#263238"/>
<path d="M286.443 238.254C265.775 233.611 221.057 231.94 221.057 231.94C210.281 232.287 180.293 233.623 159.625 238.278C151.489 240.116 146.364 248.173 148.108 256.313L167.235 345.744C169.147 354.696 177.056 361.081 186.219 361.081H259.933C269.096 361.081 277.005 354.684 278.917 345.744L298.044 256.313C299.8 248.125 294.615 240.092 286.443 238.254Z" fill="white" stroke="#263238" stroke-linecap="round" stroke-linejoin="round"/>
<path d="M276.993 236.536C254.58 233.182 221.057 231.929 221.057 231.929C212.3 232.203 190.843 233.146 172.014 235.987L193.698 361.081H252.621L276.981 236.536H276.993Z" fill="#407BFF" stroke="#263238" stroke-linecap="round" stroke-linejoin="round"/>
<path d="M243.9 259.129H200.998C195.6 259.129 191.225 263.5 191.225 268.892V293.408C191.225 298.8 195.6 303.171 200.998 303.171H243.9C249.297 303.171 253.672 298.8 253.672 293.408V268.892C253.672 263.5 249.297 259.129 243.9 259.129Z" fill="white" stroke="#263238" stroke-linecap="round" stroke-linejoin="round"/>
<path d="M211.965 277.271H201.858V287.368H211.965V277.271Z" fill="white" stroke="#263238" stroke-linecap="round" stroke-linejoin="round"/>
<path d="M227.508 277.271H217.401V287.368H227.508V277.271Z" fill="white" stroke="#263238" stroke-linecap="round" stroke-linejoin="round"/>
<path d="M243.052 277.271H232.944V287.368H243.052V277.271Z" fill="white" stroke="#263238" stroke-linecap="round" stroke-linejoin="round"/>
<path d="M78.2534 332.806H262.406C265.703 332.806 268.379 335.48 268.379 338.774V441.872H72.2798V338.774C72.2798 335.48 74.956 332.806 78.2534 332.806Z" fill="white" stroke="#263238" stroke-linecap="round" stroke-linejoin="round"/>
<path d="M268.391 369.09C243.756 375.344 218.476 391.218 171.345 413.597C125.898 435.188 88.7071 434.818 72.2798 433.135V441.872H268.379V369.09H268.391Z" fill="#263238" stroke="#263238" stroke-linecap="round" stroke-linejoin="round"/>
<path d="M268.379 435.809H72.2798V441.872H268.379V435.809Z" fill="white" stroke="#263238" stroke-linecap="round" stroke-linejoin="round"/>
<path d="M180.449 387.339C180.449 392.913 175.921 397.437 170.341 397.437C164.762 397.437 160.234 392.913 160.234 387.339C160.234 381.765 164.762 377.242 170.341 377.242C175.921 377.242 180.449 381.765 180.449 387.339Z" fill="white" stroke="#263238" stroke-linecap="round" stroke-linejoin="round"/>
</g>
<defs>
<clipPath id="clip0_118_3377">
<rect width="578" height="450" fill="white"/>
</clipPath>
</defs>
</svg>
