<svg width="521" height="412" viewBox="0 0 521 412" fill="none" xmlns="http://www.w3.org/2000/svg">
<g clip-path="url(#clip0_65_1885)">
<path d="M260.5 412C404.37 412 521 405.198 521 396.808C521 388.417 404.37 381.616 260.5 381.616C116.63 381.616 0 388.417 0 396.808C0 405.198 116.63 412 260.5 412Z" fill="#F5F5F5"/>
<path d="M101.8 386.635V389.426C101.8 390.876 102.969 392.043 104.42 392.043H204.595C205.925 392.043 207.013 390.97 207.013 389.628V386.944C207.013 385.615 205.939 384.528 204.595 384.528H179.686C176.851 384.528 174.715 381.978 175.198 379.2L183.931 328.779H127.032L102.674 382.622C102.109 383.884 101.814 385.253 101.814 386.635H101.8Z" fill="#263238"/>
<path opacity="0.2" d="M207 386.944V389.641C207 390.97 205.925 392.043 204.595 392.043H104.42C102.969 392.043 101.787 390.862 101.787 389.426V386.635C101.787 385.897 101.868 385.159 102.042 384.434C102.19 383.803 102.392 383.199 102.66 382.609L127.032 328.765H183.931L175.185 379.186C175.131 379.495 175.104 379.79 175.118 380.072C175.158 382.179 176.69 384.004 178.732 384.421C179.041 384.488 179.35 384.514 179.672 384.514H204.582C205.912 384.514 206.987 385.602 206.987 386.917L207 386.944Z" fill="white"/>
<path d="M99.4358 382.622L123.794 328.778H127.019L102.66 382.622C102.096 383.884 101.8 385.252 101.8 386.635V389.426C101.8 390.876 102.969 392.043 104.42 392.043H101.196C99.7448 392.043 98.5759 390.876 98.5759 389.426V386.635C98.5759 385.252 98.8715 383.884 99.4358 382.622Z" fill="#263238"/>
<path opacity="0.3" d="M127.019 328.779H183.918L181.688 341.649H121.201L127.019 328.779Z" fill="black"/>
<path d="M282.615 334.429H39.863C34.959 334.429 30.6463 330.456 30.2163 325.558L14.8596 150.351C14.4297 145.453 18.0572 141.48 22.9612 141.48H265.713C270.617 141.48 274.943 145.453 275.36 150.351L290.703 325.571C291.133 330.47 287.505 334.442 282.601 334.442L282.615 334.429Z" fill="#263238"/>
<path d="M289.05 306.621L290.716 325.571C291.146 330.47 287.519 334.442 282.615 334.442H39.863C34.9591 334.442 30.6463 330.47 30.2163 325.571L28.5504 306.621H289.05Z" fill="#407BFF"/>
<path opacity="0.3" d="M289.05 306.621L290.716 325.571C291.146 330.47 287.519 334.442 282.615 334.442H39.863C34.9591 334.442 30.6463 330.47 30.2163 325.571L28.5504 306.621" fill="black"/>
<path d="M37.1222 301.266H279.552C282.212 301.266 284.173 299.119 283.945 296.462L271.262 151.64C271.033 148.982 268.682 146.835 266.022 146.835H23.5927C20.9325 146.835 18.9709 148.982 19.1993 151.64L31.8824 296.462C32.1108 299.119 34.462 301.266 37.1088 301.266H37.1222Z" fill="#407BFF"/>
<path opacity="0.6" d="M37.1222 301.266H279.552C282.212 301.266 284.173 299.119 283.945 296.462L271.262 151.64C271.033 148.982 268.682 146.835 266.022 146.835H23.5927C20.9325 146.835 18.9709 148.982 19.1993 151.64L31.8824 296.462C32.1108 299.119 34.462 301.266 37.1088 301.266H37.1222Z" fill="white"/>
<path d="M17.587 141.48H22.9612C18.0573 141.48 14.4297 145.453 14.8596 150.351L30.2029 325.571C30.6329 330.47 34.9591 334.442 39.8496 334.442H34.4888C29.5849 334.442 25.2721 330.47 24.8422 325.571L9.49889 150.338C9.06895 145.439 12.6965 141.467 17.6005 141.467L17.587 141.48Z" fill="#407BFF"/>
<path opacity="0.3" d="M17.587 141.48H22.9612C18.0573 141.48 14.4297 145.453 14.8596 150.351L30.2029 325.571C30.6329 330.47 34.9591 334.442 39.8496 334.442H34.4888C29.5849 334.442 25.2721 330.47 24.8422 325.571L9.49889 150.338C9.06895 145.439 12.6965 141.467 17.6005 141.467L17.587 141.48Z" fill="white"/>
<path d="M200.242 175.502C200.242 182.655 194.734 188.278 187.398 188.278H114.403C106.664 188.278 99.8256 182.011 99.1538 174.267C99.1135 173.851 99.1 173.421 99.1 173.019C99.1 165.879 104.622 160.256 111.944 160.256H184.939C192.691 160.256 199.53 166.523 200.188 174.253C200.229 174.669 200.242 175.099 200.242 175.502Z" fill="#407BFF"/>
<g opacity="0.1">
<path d="M197.232 175.502C197.232 182.655 191.711 188.278 184.375 188.278H114.376C106.637 188.278 99.7986 182.011 99.1268 174.267C99.0865 173.851 99.0731 173.421 99.0731 173.019C99.0731 165.879 104.595 160.256 111.917 160.256H181.916C189.655 160.256 196.494 166.523 197.165 174.253C197.206 174.669 197.219 175.099 197.219 175.502H197.232Z" fill="white"/>
</g>
<path d="M107.242 242.632L107.39 244.39H106.1L105.952 242.645C104.407 242.551 102.862 242.041 101.975 241.343L102.539 239.76C103.372 240.39 104.582 240.847 105.791 240.954L105.509 237.814C103.722 237.384 101.8 236.82 101.612 234.633C101.478 233.022 102.513 231.627 104.944 231.398L104.783 229.627H106.073L106.221 231.372C107.39 231.439 108.599 231.774 109.499 232.324L108.988 233.908C108.115 233.425 107.202 233.157 106.369 233.063L106.651 236.243C108.438 236.673 110.386 237.223 110.574 239.397C110.708 241.008 109.66 242.39 107.202 242.632H107.242ZM105.361 235.908L105.119 233.103C104.017 233.277 103.601 233.841 103.655 234.539C103.722 235.29 104.434 235.639 105.361 235.908ZM108.612 239.545C108.545 238.78 107.82 238.417 106.852 238.149L107.094 240.927C108.223 240.753 108.666 240.216 108.612 239.545Z" fill="#407BFF"/>
<path d="M119.844 239.129C120.019 241.061 118.756 242.672 115.787 242.672C114.228 242.672 112.616 242.202 111.528 241.397L112.253 239.813C113.113 240.471 114.349 240.9 115.585 240.9C117.05 240.9 117.856 240.256 117.762 239.223C117.668 238.163 116.929 237.505 114.658 237.505H111.998L112.038 231.519H118.514L118.662 233.237H113.919V235.787H114.967C118.232 235.787 119.656 237.21 119.831 239.156L119.844 239.129Z" fill="#407BFF"/>
<path d="M120.852 237.008C120.529 233.385 122.343 231.345 124.95 231.345C127.556 231.345 129.746 233.385 130.055 237.008C130.378 240.619 128.564 242.672 125.944 242.672C123.324 242.672 121.174 240.632 120.852 237.008ZM128 237.008C127.771 234.351 126.616 233.13 125.111 233.13C123.606 233.13 122.679 234.351 122.921 237.008C123.149 239.666 124.305 240.887 125.796 240.887C127.288 240.887 128.241 239.666 128.013 237.008H128Z" fill="#407BFF"/>
<path d="M131.453 237.008C131.13 233.385 132.944 231.345 135.55 231.345C138.157 231.345 140.347 233.385 140.656 237.008C140.978 240.619 139.164 242.672 136.545 242.672C133.925 242.672 131.775 240.632 131.453 237.008ZM138.6 237.008C138.372 234.351 137.216 233.13 135.712 233.13C134.207 233.13 133.28 234.351 133.522 237.008C133.75 239.666 134.905 240.887 136.397 240.887C137.888 240.887 138.842 239.666 138.6 237.008Z" fill="#407BFF"/>
<path d="M142.053 237.008C141.731 233.385 143.544 231.345 146.151 231.345C148.757 231.345 150.947 233.385 151.256 237.008C151.579 240.619 149.765 242.672 147.145 242.672C144.525 242.672 142.376 240.632 142.053 237.008ZM149.201 237.008C148.972 234.351 147.817 233.13 146.312 233.13C144.807 233.13 143.88 234.351 144.122 237.008C144.351 239.666 145.506 240.887 146.997 240.887C148.489 240.887 149.443 239.666 149.214 237.008H149.201Z" fill="#407BFF"/>
<path d="M155.354 241.316C155.381 241.665 155.327 241.947 155.112 242.672L154.508 244.886H153.231L153.648 242.484C153.191 242.296 152.855 241.893 152.801 241.316C152.734 240.525 153.231 240.015 153.957 240.015C154.682 240.015 155.274 240.551 155.341 241.316H155.354Z" fill="#407BFF"/>
<path d="M156.12 237.008C155.798 233.385 157.611 231.345 160.218 231.345C162.824 231.345 165.014 233.385 165.323 237.008C165.646 240.619 163.832 242.672 161.212 242.672C158.592 242.672 156.442 240.632 156.12 237.008ZM163.268 237.008C163.039 234.351 161.884 233.13 160.379 233.13C158.874 233.13 157.947 234.351 158.189 237.008C158.417 239.666 159.573 240.887 161.064 240.887C162.556 240.887 163.509 239.666 163.281 237.008H163.268Z" fill="#407BFF"/>
<path d="M166.721 237.008C166.398 233.385 168.212 231.345 170.818 231.345C173.425 231.345 175.615 233.385 175.924 237.008C176.246 240.619 174.433 242.672 171.813 242.672C169.193 242.672 167.043 240.632 166.721 237.008ZM173.868 237.008C173.64 234.351 172.484 233.13 170.98 233.13C169.475 233.13 168.548 234.351 168.79 237.008C169.018 239.666 170.173 240.887 171.665 240.887C173.156 240.887 174.11 239.666 173.882 237.008H173.868Z" fill="#407BFF"/>
<path d="M182.413 237.72L181.876 231.506H183.918L184.455 237.639C184.657 239.907 185.759 240.873 187.546 240.873C189.332 240.873 190.246 239.894 190.045 237.639L189.507 231.506H191.522L192.06 237.72C192.342 240.927 190.689 242.672 187.68 242.672C184.67 242.672 182.695 240.927 182.413 237.72Z" fill="#407BFF"/>
<path d="M194.33 241.343L194.895 239.759C195.835 240.471 197.286 240.967 198.643 240.967C200.363 240.967 201.035 240.35 200.954 239.531C200.753 237.156 194.33 238.713 193.981 234.619C193.82 232.848 195.11 231.331 198.133 231.331C199.449 231.331 200.873 231.68 201.881 232.311L201.371 233.895C200.323 233.318 199.221 233.036 198.254 233.036C196.547 233.036 195.916 233.693 195.996 234.525C196.198 236.874 202.607 235.344 202.956 239.384C203.104 241.142 201.814 242.658 198.791 242.658C197.071 242.658 195.311 242.121 194.33 241.343Z" fill="#407BFF"/>
<path d="M204.313 231.506H209.136C212.71 231.506 215.343 233.707 215.639 237.008C215.935 240.31 213.677 242.511 210.104 242.511H205.28L204.313 231.506ZM209.848 240.78C212.307 240.78 213.758 239.29 213.57 237.008C213.368 234.727 211.649 233.237 209.19 233.237H206.516L207.175 240.78H209.848Z" fill="#407BFF"/>
<path d="M217.009 241.316C216.942 240.525 217.48 240.015 218.192 240.015C218.904 240.015 219.522 240.538 219.602 241.316C219.67 242.068 219.132 242.618 218.42 242.618C217.708 242.618 217.077 242.068 217.009 241.316Z" fill="#407BFF"/>
<g opacity="0.2">
<path d="M130.203 169.221L127.852 178.83H125.957L122.961 171.717L121.161 178.83H119.253L115.222 169.221H117.077L120.113 176.522L121.954 169.221H123.606L126.683 176.562L128.497 169.221H130.203Z" fill="white"/>
<path d="M131.345 169.261C131.291 168.684 131.721 168.228 132.353 168.228C132.984 168.228 133.495 168.657 133.535 169.221C133.589 169.825 133.172 170.294 132.527 170.294C131.882 170.294 131.385 169.838 131.332 169.261H131.345ZM131.775 171.502H133.495L134.14 178.843H132.42L131.775 171.502Z" fill="white"/>
<path d="M140.763 178.427C140.374 178.763 139.782 178.924 139.164 178.924C137.552 178.924 136.558 178.078 136.424 176.454L136.115 172.925H134.905L134.784 171.556H135.994L135.846 169.878H137.566L137.713 171.556H139.675L139.796 172.925H137.834L138.143 176.414C138.211 177.125 138.6 177.515 139.258 177.515C139.621 177.515 139.944 177.421 140.199 177.206L140.79 178.427H140.763Z" fill="white"/>
<path d="M149.066 174.629L149.429 178.83H147.709L147.36 174.844C147.253 173.542 146.54 172.911 145.439 172.911C144.216 172.911 143.45 173.649 143.585 175.126L143.907 178.83H142.187L141.301 168.644H143.02L143.343 172.348C143.853 171.744 144.686 171.408 145.707 171.408C147.468 171.408 148.865 172.415 149.053 174.616L149.066 174.629Z" fill="white"/>
<path d="M157.988 168.644L158.874 178.83H157.222L157.141 177.877C156.631 178.575 155.798 178.924 154.803 178.924C152.667 178.924 150.961 177.447 150.759 175.166C150.558 172.884 152.009 171.422 154.145 171.422C155.099 171.422 155.959 171.73 156.59 172.415L156.254 168.657H157.974L157.988 168.644ZM156.872 175.166C156.751 173.77 155.717 172.871 154.481 172.871C153.245 172.871 152.372 173.77 152.492 175.166C152.613 176.562 153.634 177.461 154.884 177.461C156.133 177.461 156.993 176.575 156.872 175.166Z" fill="white"/>
<path d="M164.719 171.408L164.866 173.046C164.719 173.019 164.584 173.005 164.463 173.005C163.16 173.005 162.394 173.77 162.529 175.273L162.838 178.83H161.118L160.473 171.489H162.112L162.206 172.562C162.636 171.797 163.496 171.408 164.719 171.408Z" fill="white"/>
<path d="M172.552 174.535L172.928 178.83H171.302L171.221 177.931C170.859 178.561 170.093 178.924 169.005 178.924C167.325 178.924 166.183 177.998 166.076 176.723C165.968 175.501 166.707 174.535 168.937 174.535H170.832V174.428C170.738 173.421 170.079 172.831 168.857 172.831C168.037 172.831 167.204 173.113 166.694 173.556L165.914 172.307C166.64 171.703 167.755 171.408 168.937 171.408C171.047 171.408 172.363 172.415 172.552 174.522V174.535ZM171.006 176.535L170.926 175.689H169.152C167.983 175.689 167.701 176.132 167.755 176.669C167.809 177.286 168.373 177.689 169.246 177.689C170.12 177.689 170.778 177.3 171.006 176.548V176.535Z" fill="white"/>
<path d="M185.799 171.489L183.73 178.83H182.077L179.739 173.77L178.262 178.83H176.609L173.277 171.489H174.903L177.308 176.897L178.853 171.489H180.29L182.749 176.924L184.267 171.489H185.785H185.799Z" fill="white"/>
</g>
<path d="M109.58 219.481L109.915 223.36H107.873L107.537 219.508L102.58 212.355H104.77L108.464 217.723L111.259 212.355H113.274L109.58 219.481Z" fill="#407BFF"/>
<path d="M113.382 219.172C113.167 216.663 114.9 214.878 117.48 214.878C120.059 214.878 122.128 216.649 122.343 219.172C122.558 221.682 120.852 223.48 118.232 223.48C115.612 223.48 113.61 221.682 113.382 219.172ZM120.355 219.172C120.22 217.562 119.052 216.542 117.627 216.542C116.203 216.542 115.236 217.562 115.37 219.172C115.505 220.783 116.673 221.803 118.084 221.803C119.495 221.803 120.503 220.783 120.355 219.172Z" fill="#407BFF"/>
<path d="M132.003 214.972L132.742 223.373H130.875L130.781 222.299C130.216 223.064 129.263 223.48 128.174 223.48C126.011 223.48 124.453 222.299 124.224 219.763L123.808 214.972H125.769L126.172 219.494C126.307 221.024 127.099 221.749 128.335 221.749C129.706 221.749 130.566 220.904 130.418 219.213L130.042 214.972H132.003Z" fill="#407BFF"/>
<path d="M139.447 214.878L139.608 216.757C139.433 216.73 139.285 216.703 139.151 216.703C137.66 216.703 136.786 217.589 136.934 219.293L137.297 223.373H135.335L134.596 214.972H136.464L136.571 216.193C137.055 215.307 138.049 214.878 139.447 214.878Z" fill="#407BFF"/>
<path d="M145.506 212.355H147.548L148.516 223.36H146.473L145.506 212.355Z" fill="#407BFF"/>
<path d="M159.17 218.555L159.586 223.373H157.625L157.222 218.81C157.087 217.32 156.281 216.596 155.032 216.596C153.634 216.596 152.761 217.441 152.909 219.132L153.285 223.373H151.324L150.585 214.972H152.452L152.546 216.059C153.124 215.294 154.118 214.878 155.341 214.878C157.356 214.878 158.955 216.032 159.17 218.555Z" fill="#407BFF"/>
<path d="M161.118 219.172C160.903 216.663 162.636 214.878 165.296 214.878C166.936 214.878 168.306 215.549 169.058 216.824L167.621 217.709C167.043 216.904 166.264 216.542 165.431 216.542C163.98 216.542 162.972 217.548 163.106 219.172C163.254 220.81 164.437 221.803 165.888 221.803C166.721 221.803 167.446 221.44 167.876 220.635L169.461 221.521C168.924 222.782 167.675 223.48 166.049 223.48C163.389 223.48 161.346 221.682 161.118 219.172Z" fill="#407BFF"/>
<path d="M170.147 219.172C169.932 216.663 171.665 214.878 174.244 214.878C176.824 214.878 178.893 216.649 179.108 219.172C179.323 221.682 177.617 223.48 174.997 223.48C172.377 223.48 170.375 221.682 170.147 219.172ZM177.12 219.172C176.985 217.562 175.816 216.542 174.392 216.542C172.968 216.542 172.001 217.562 172.135 219.172C172.269 220.783 173.438 221.803 174.849 221.803C176.26 221.803 177.267 220.783 177.12 219.172Z" fill="#407BFF"/>
<path d="M195.002 218.555L195.419 223.373H193.457L193.054 218.81C192.92 217.32 192.167 216.596 190.972 216.596C189.682 216.596 188.862 217.441 188.997 219.105L189.373 223.373H187.411L187.008 218.81C186.874 217.32 186.121 216.596 184.926 216.596C183.622 216.596 182.816 217.441 182.951 219.105L183.327 223.373H181.365L180.626 214.972H182.494L182.588 216.045C183.152 215.294 184.093 214.878 185.235 214.878C186.457 214.878 187.532 215.334 188.19 216.273C188.795 215.415 189.883 214.878 191.213 214.878C193.242 214.878 194.76 216.032 194.989 218.555H195.002Z" fill="#407BFF"/>
<path d="M205.589 219.803H198.993C199.342 221.024 200.43 221.816 201.895 221.816C202.835 221.816 203.547 221.521 204.098 220.904L205.253 222.111C204.582 223.011 203.44 223.48 201.989 223.48C199.167 223.48 197.192 221.669 196.964 219.172C196.749 216.676 198.428 214.878 200.927 214.878C203.426 214.878 205.334 216.596 205.562 219.213C205.576 219.374 205.576 219.602 205.576 219.79L205.589 219.803ZM198.858 218.501H203.628C203.359 217.293 202.365 216.461 201.075 216.461C199.785 216.461 198.939 217.28 198.858 218.501Z" fill="#407BFF"/>
<g opacity="0.1">
<path d="M123.526 146.835H114.201L81.3383 301.266H90.6625L123.526 146.835Z" fill="white"/>
<path d="M71.92 301.266L104.783 146.835H69.7434L36.8803 301.266H71.92Z" fill="white"/>
</g>
<path opacity="0.2" d="M119.105 386.957V389.52C119.105 390.916 120.234 392.043 121.631 392.043H204.595C205.925 392.043 207.014 390.97 207.014 389.628V386.944C207.014 385.615 205.939 384.541 204.609 384.541H179.686C179.363 384.541 179.054 384.514 178.759 384.447H121.645C120.247 384.447 119.119 385.575 119.119 386.97L119.105 386.957Z" fill="white"/>
<path opacity="0.2" d="M102.042 384.447H178.732C176.676 384.031 175.158 382.22 175.104 380.099H103.99L102.029 384.447H102.042Z" fill="black"/>
<path d="M198.159 192.787H186.041L190.233 182.118L198.159 192.787Z" fill="white"/>
<path d="M194.948 200.102H192.114L189.588 185.648H192.409L194.948 200.102Z" fill="white"/>
<path d="M101.8 386.635V389.426C101.8 390.876 102.969 392.043 104.42 392.043H204.595C205.925 392.043 207.013 390.97 207.013 389.628V386.944C207.013 385.615 205.939 384.528 204.595 384.528H179.686C176.851 384.528 174.715 381.978 175.198 379.2L183.931 328.779H127.032L102.674 382.622C102.109 383.884 101.814 385.253 101.814 386.635H101.8Z" fill="#263238"/>
<path opacity="0.2" d="M207 386.944V389.641C207 390.97 205.925 392.043 204.595 392.043H104.42C102.969 392.043 101.787 390.862 101.787 389.426V386.635C101.787 385.897 101.868 385.159 102.042 384.434C102.19 383.803 102.392 383.199 102.66 382.609L127.032 328.765H183.931L175.185 379.186C175.131 379.495 175.104 379.79 175.118 380.072C175.158 382.179 176.69 384.004 178.732 384.421C179.041 384.488 179.35 384.514 179.672 384.514H204.582C205.912 384.514 206.987 385.602 206.987 386.917L207 386.944Z" fill="white"/>
<path d="M99.4358 382.622L123.794 328.778H127.019L102.66 382.622C102.096 383.884 101.8 385.252 101.8 386.635V389.426C101.8 390.876 102.969 392.043 104.42 392.043H101.196C99.7448 392.043 98.5759 390.876 98.5759 389.426V386.635C98.5759 385.252 98.8715 383.884 99.4358 382.622Z" fill="#263238"/>
<path opacity="0.3" d="M127.019 328.779H183.918L181.688 341.649H121.201L127.019 328.779Z" fill="black"/>
<path d="M282.615 334.429H39.863C34.959 334.429 30.6463 330.456 30.2163 325.558L14.8596 150.351C14.4297 145.453 18.0572 141.48 22.9612 141.48H265.713C270.617 141.48 274.943 145.453 275.36 150.351L290.703 325.571C291.133 330.47 287.505 334.442 282.601 334.442L282.615 334.429Z" fill="#263238"/>
<path d="M289.05 306.621L290.716 325.571C291.146 330.47 287.519 334.442 282.615 334.442H39.863C34.9591 334.442 30.6463 330.47 30.2163 325.571L28.5504 306.621H289.05Z" fill="#407BFF"/>
<path opacity="0.3" d="M289.05 306.621L290.716 325.571C291.146 330.47 287.519 334.442 282.615 334.442H39.863C34.9591 334.442 30.6463 330.47 30.2163 325.571L28.5504 306.621" fill="black"/>
<path d="M37.1222 301.266H279.552C282.212 301.266 284.173 299.119 283.945 296.462L271.262 151.64C271.033 148.982 268.682 146.835 266.022 146.835H23.5927C20.9325 146.835 18.9709 148.982 19.1993 151.64L31.8824 296.462C32.1108 299.119 34.462 301.266 37.1088 301.266H37.1222Z" fill="#407BFF"/>
<path opacity="0.6" d="M37.1222 301.266H279.552C282.212 301.266 284.173 299.119 283.945 296.462L271.262 151.64C271.033 148.982 268.682 146.835 266.022 146.835H23.5927C20.9325 146.835 18.9709 148.982 19.1993 151.64L31.8824 296.462C32.1108 299.119 34.462 301.266 37.1088 301.266H37.1222Z" fill="white"/>
<path d="M17.587 141.48H22.9612C18.0573 141.48 14.4297 145.453 14.8596 150.351L30.2029 325.571C30.6329 330.47 34.9591 334.442 39.8496 334.442H34.4888C29.5849 334.442 25.2721 330.47 24.8422 325.571L9.49889 150.338C9.06895 145.439 12.6965 141.467 17.6005 141.467L17.587 141.48Z" fill="#407BFF"/>
<path opacity="0.3" d="M17.587 141.48H22.9612C18.0573 141.48 14.4297 145.453 14.8596 150.351L30.2029 325.571C30.6329 330.47 34.9591 334.442 39.8496 334.442H34.4888C29.5849 334.442 25.2721 330.47 24.8422 325.571L9.49889 150.338C9.06895 145.439 12.6965 141.467 17.6005 141.467L17.587 141.48Z" fill="white"/>
<path d="M200.242 175.502C200.242 182.655 194.734 188.278 187.398 188.278H114.403C106.664 188.278 99.8256 182.011 99.1538 174.267C99.1135 173.851 99.1 173.421 99.1 173.019C99.1 165.879 104.622 160.256 111.944 160.256H184.939C192.691 160.256 199.53 166.523 200.188 174.253C200.229 174.669 200.242 175.099 200.242 175.502Z" fill="#407BFF"/>
<g opacity="0.1">
<path d="M197.232 175.502C197.232 182.655 191.711 188.278 184.375 188.278H114.376C106.637 188.278 99.7986 182.011 99.1268 174.267C99.0865 173.851 99.0731 173.421 99.0731 173.019C99.0731 165.879 104.595 160.256 111.917 160.256H181.916C189.655 160.256 196.494 166.523 197.165 174.253C197.206 174.669 197.219 175.099 197.219 175.502H197.232Z" fill="white"/>
</g>
<path d="M107.242 242.632L107.39 244.39H106.1L105.952 242.645C104.407 242.551 102.862 242.041 101.975 241.343L102.539 239.76C103.372 240.39 104.582 240.847 105.791 240.954L105.509 237.814C103.722 237.384 101.8 236.82 101.612 234.633C101.478 233.022 102.513 231.627 104.944 231.398L104.783 229.627H106.073L106.221 231.372C107.39 231.439 108.599 231.774 109.499 232.324L108.988 233.908C108.115 233.425 107.202 233.157 106.369 233.063L106.651 236.243C108.438 236.673 110.386 237.223 110.574 239.397C110.708 241.008 109.66 242.39 107.202 242.632H107.242ZM105.361 235.908L105.119 233.103C104.017 233.277 103.601 233.841 103.655 234.539C103.722 235.29 104.434 235.639 105.361 235.908ZM108.612 239.545C108.545 238.78 107.82 238.417 106.852 238.149L107.094 240.927C108.223 240.753 108.666 240.216 108.612 239.545Z" fill="#407BFF"/>
<path d="M119.844 239.129C120.019 241.061 118.756 242.672 115.787 242.672C114.228 242.672 112.616 242.202 111.528 241.397L112.253 239.813C113.113 240.471 114.349 240.9 115.585 240.9C117.05 240.9 117.856 240.256 117.762 239.223C117.668 238.163 116.929 237.505 114.658 237.505H111.998L112.038 231.519H118.514L118.662 233.237H113.919V235.787H114.967C118.232 235.787 119.656 237.21 119.831 239.156L119.844 239.129Z" fill="#407BFF"/>
<path d="M120.852 237.008C120.529 233.385 122.343 231.345 124.95 231.345C127.556 231.345 129.746 233.385 130.055 237.008C130.378 240.619 128.564 242.672 125.944 242.672C123.324 242.672 121.174 240.632 120.852 237.008ZM128 237.008C127.771 234.351 126.616 233.13 125.111 233.13C123.606 233.13 122.679 234.351 122.921 237.008C123.149 239.666 124.305 240.887 125.796 240.887C127.288 240.887 128.241 239.666 128.013 237.008H128Z" fill="#407BFF"/>
<path d="M131.453 237.008C131.13 233.385 132.944 231.345 135.55 231.345C138.157 231.345 140.347 233.385 140.656 237.008C140.978 240.619 139.164 242.672 136.545 242.672C133.925 242.672 131.775 240.632 131.453 237.008ZM138.6 237.008C138.372 234.351 137.216 233.13 135.712 233.13C134.207 233.13 133.28 234.351 133.522 237.008C133.75 239.666 134.905 240.887 136.397 240.887C137.888 240.887 138.842 239.666 138.6 237.008Z" fill="#407BFF"/>
<path d="M142.053 237.008C141.731 233.385 143.544 231.345 146.151 231.345C148.757 231.345 150.947 233.385 151.256 237.008C151.579 240.619 149.765 242.672 147.145 242.672C144.525 242.672 142.376 240.632 142.053 237.008ZM149.201 237.008C148.972 234.351 147.817 233.13 146.312 233.13C144.807 233.13 143.88 234.351 144.122 237.008C144.351 239.666 145.506 240.887 146.997 240.887C148.489 240.887 149.443 239.666 149.214 237.008H149.201Z" fill="#407BFF"/>
<path d="M155.354 241.316C155.381 241.665 155.327 241.947 155.112 242.672L154.508 244.886H153.231L153.648 242.484C153.191 242.296 152.855 241.893 152.801 241.316C152.734 240.525 153.231 240.015 153.957 240.015C154.682 240.015 155.274 240.551 155.341 241.316H155.354Z" fill="#407BFF"/>
<path d="M156.12 237.008C155.798 233.385 157.611 231.345 160.218 231.345C162.824 231.345 165.014 233.385 165.323 237.008C165.646 240.619 163.832 242.672 161.212 242.672C158.592 242.672 156.442 240.632 156.12 237.008ZM163.268 237.008C163.039 234.351 161.884 233.13 160.379 233.13C158.874 233.13 157.947 234.351 158.189 237.008C158.417 239.666 159.573 240.887 161.064 240.887C162.556 240.887 163.509 239.666 163.281 237.008H163.268Z" fill="#407BFF"/>
<path d="M166.721 237.008C166.398 233.385 168.212 231.345 170.818 231.345C173.425 231.345 175.615 233.385 175.924 237.008C176.246 240.619 174.433 242.672 171.813 242.672C169.193 242.672 167.043 240.632 166.721 237.008ZM173.868 237.008C173.64 234.351 172.484 233.13 170.98 233.13C169.475 233.13 168.548 234.351 168.79 237.008C169.018 239.666 170.173 240.887 171.665 240.887C173.156 240.887 174.11 239.666 173.882 237.008H173.868Z" fill="#407BFF"/>
<path d="M182.413 237.72L181.876 231.506H183.918L184.455 237.639C184.657 239.907 185.759 240.873 187.546 240.873C189.332 240.873 190.246 239.894 190.045 237.639L189.507 231.506H191.522L192.06 237.72C192.342 240.927 190.689 242.672 187.68 242.672C184.67 242.672 182.695 240.927 182.413 237.72Z" fill="#407BFF"/>
<path d="M194.33 241.343L194.895 239.759C195.835 240.471 197.286 240.967 198.643 240.967C200.363 240.967 201.035 240.35 200.954 239.531C200.753 237.156 194.33 238.713 193.981 234.619C193.82 232.848 195.11 231.331 198.133 231.331C199.449 231.331 200.873 231.68 201.881 232.311L201.371 233.895C200.323 233.318 199.221 233.036 198.254 233.036C196.547 233.036 195.916 233.693 195.996 234.525C196.198 236.874 202.607 235.344 202.956 239.384C203.104 241.142 201.814 242.658 198.791 242.658C197.071 242.658 195.311 242.121 194.33 241.343Z" fill="#407BFF"/>
<path d="M204.313 231.506H209.136C212.71 231.506 215.343 233.707 215.639 237.008C215.935 240.31 213.677 242.511 210.104 242.511H205.28L204.313 231.506ZM209.848 240.78C212.307 240.78 213.758 239.29 213.57 237.008C213.368 234.727 211.649 233.237 209.19 233.237H206.516L207.175 240.78H209.848Z" fill="#407BFF"/>
<path d="M217.009 241.316C216.942 240.525 217.48 240.015 218.192 240.015C218.904 240.015 219.522 240.538 219.602 241.316C219.67 242.068 219.132 242.618 218.42 242.618C217.708 242.618 217.077 242.068 217.009 241.316Z" fill="#407BFF"/>
<g opacity="0.2">
<path d="M130.203 169.221L127.852 178.83H125.957L122.961 171.717L121.161 178.83H119.253L115.222 169.221H117.077L120.113 176.522L121.954 169.221H123.606L126.683 176.562L128.497 169.221H130.203Z" fill="white"/>
<path d="M131.345 169.261C131.291 168.684 131.721 168.228 132.353 168.228C132.984 168.228 133.495 168.657 133.535 169.221C133.589 169.825 133.172 170.294 132.527 170.294C131.882 170.294 131.385 169.838 131.332 169.261H131.345ZM131.775 171.502H133.495L134.14 178.843H132.42L131.775 171.502Z" fill="white"/>
<path d="M140.763 178.427C140.374 178.763 139.782 178.924 139.164 178.924C137.552 178.924 136.558 178.078 136.424 176.454L136.115 172.925H134.905L134.784 171.556H135.994L135.846 169.878H137.566L137.713 171.556H139.675L139.796 172.925H137.834L138.143 176.414C138.211 177.125 138.6 177.515 139.258 177.515C139.621 177.515 139.944 177.421 140.199 177.206L140.79 178.427H140.763Z" fill="white"/>
<path d="M149.066 174.629L149.429 178.83H147.709L147.36 174.844C147.253 173.542 146.54 172.911 145.439 172.911C144.216 172.911 143.45 173.649 143.585 175.126L143.907 178.83H142.187L141.301 168.644H143.02L143.343 172.348C143.853 171.744 144.686 171.408 145.707 171.408C147.468 171.408 148.865 172.415 149.053 174.616L149.066 174.629Z" fill="white"/>
<path d="M157.988 168.644L158.874 178.83H157.222L157.141 177.877C156.631 178.575 155.798 178.924 154.803 178.924C152.667 178.924 150.961 177.447 150.759 175.166C150.558 172.884 152.009 171.422 154.145 171.422C155.099 171.422 155.959 171.73 156.59 172.415L156.254 168.657H157.974L157.988 168.644ZM156.872 175.166C156.751 173.77 155.717 172.871 154.481 172.871C153.245 172.871 152.372 173.77 152.492 175.166C152.613 176.562 153.634 177.461 154.884 177.461C156.133 177.461 156.993 176.575 156.872 175.166Z" fill="white"/>
<path d="M164.719 171.408L164.866 173.046C164.719 173.019 164.584 173.005 164.463 173.005C163.16 173.005 162.394 173.77 162.529 175.273L162.838 178.83H161.118L160.473 171.489H162.112L162.206 172.562C162.636 171.797 163.496 171.408 164.719 171.408Z" fill="white"/>
<path d="M172.552 174.535L172.928 178.83H171.302L171.221 177.931C170.859 178.561 170.093 178.924 169.005 178.924C167.325 178.924 166.183 177.998 166.076 176.723C165.968 175.501 166.707 174.535 168.937 174.535H170.832V174.428C170.738 173.421 170.079 172.831 168.857 172.831C168.037 172.831 167.204 173.113 166.694 173.556L165.914 172.307C166.64 171.703 167.755 171.408 168.937 171.408C171.047 171.408 172.363 172.415 172.552 174.522V174.535ZM171.006 176.535L170.926 175.689H169.152C167.983 175.689 167.701 176.132 167.755 176.669C167.809 177.286 168.373 177.689 169.246 177.689C170.12 177.689 170.778 177.3 171.006 176.548V176.535Z" fill="white"/>
<path d="M185.799 171.489L183.73 178.83H182.077L179.739 173.77L178.262 178.83H176.609L173.277 171.489H174.903L177.308 176.897L178.853 171.489H180.29L182.749 176.924L184.267 171.489H185.785H185.799Z" fill="white"/>
</g>
<path d="M109.58 219.481L109.915 223.36H107.873L107.537 219.508L102.58 212.355H104.77L108.464 217.723L111.259 212.355H113.274L109.58 219.481Z" fill="#407BFF"/>
<path d="M113.382 219.172C113.167 216.663 114.9 214.878 117.48 214.878C120.059 214.878 122.128 216.649 122.343 219.172C122.558 221.682 120.852 223.48 118.232 223.48C115.612 223.48 113.61 221.682 113.382 219.172ZM120.355 219.172C120.22 217.562 119.052 216.542 117.627 216.542C116.203 216.542 115.236 217.562 115.37 219.172C115.505 220.783 116.673 221.803 118.084 221.803C119.495 221.803 120.503 220.783 120.355 219.172Z" fill="#407BFF"/>
<path d="M132.003 214.972L132.742 223.373H130.875L130.781 222.299C130.216 223.064 129.263 223.48 128.174 223.48C126.011 223.48 124.453 222.299 124.224 219.763L123.808 214.972H125.769L126.172 219.494C126.307 221.024 127.099 221.749 128.335 221.749C129.706 221.749 130.566 220.904 130.418 219.213L130.042 214.972H132.003Z" fill="#407BFF"/>
<path d="M139.447 214.878L139.608 216.757C139.433 216.73 139.285 216.703 139.151 216.703C137.66 216.703 136.786 217.589 136.934 219.293L137.297 223.373H135.335L134.596 214.972H136.464L136.571 216.193C137.055 215.307 138.049 214.878 139.447 214.878Z" fill="#407BFF"/>
<path d="M145.506 212.355H147.548L148.516 223.36H146.473L145.506 212.355Z" fill="#407BFF"/>
<path d="M159.17 218.555L159.586 223.373H157.625L157.222 218.81C157.087 217.32 156.281 216.596 155.032 216.596C153.634 216.596 152.761 217.441 152.909 219.132L153.285 223.373H151.324L150.585 214.972H152.452L152.546 216.059C153.124 215.294 154.118 214.878 155.341 214.878C157.356 214.878 158.955 216.032 159.17 218.555Z" fill="#407BFF"/>
<path d="M161.118 219.172C160.903 216.663 162.636 214.878 165.296 214.878C166.936 214.878 168.306 215.549 169.058 216.824L167.621 217.709C167.043 216.904 166.264 216.542 165.431 216.542C163.98 216.542 162.972 217.548 163.106 219.172C163.254 220.81 164.437 221.803 165.888 221.803C166.721 221.803 167.446 221.44 167.876 220.635L169.461 221.521C168.924 222.782 167.675 223.48 166.049 223.48C163.389 223.48 161.346 221.682 161.118 219.172Z" fill="#407BFF"/>
<path d="M170.147 219.172C169.932 216.663 171.665 214.878 174.244 214.878C176.824 214.878 178.893 216.649 179.108 219.172C179.323 221.682 177.617 223.48 174.997 223.48C172.377 223.48 170.375 221.682 170.147 219.172ZM177.12 219.172C176.985 217.562 175.816 216.542 174.392 216.542C172.968 216.542 172.001 217.562 172.135 219.172C172.269 220.783 173.438 221.803 174.849 221.803C176.26 221.803 177.267 220.783 177.12 219.172Z" fill="#407BFF"/>
<path d="M195.002 218.555L195.419 223.373H193.457L193.054 218.81C192.92 217.32 192.167 216.596 190.972 216.596C189.682 216.596 188.862 217.441 188.997 219.105L189.373 223.373H187.411L187.008 218.81C186.874 217.32 186.121 216.596 184.926 216.596C183.622 216.596 182.816 217.441 182.951 219.105L183.327 223.373H181.365L180.626 214.972H182.494L182.588 216.045C183.152 215.294 184.093 214.878 185.235 214.878C186.457 214.878 187.532 215.334 188.19 216.273C188.795 215.415 189.883 214.878 191.213 214.878C193.242 214.878 194.76 216.032 194.989 218.555H195.002Z" fill="#407BFF"/>
<path d="M205.589 219.803H198.993C199.342 221.024 200.43 221.816 201.895 221.816C202.835 221.816 203.547 221.521 204.098 220.904L205.253 222.111C204.582 223.011 203.44 223.48 201.989 223.48C199.167 223.48 197.192 221.669 196.964 219.172C196.749 216.676 198.428 214.878 200.927 214.878C203.426 214.878 205.334 216.596 205.562 219.213C205.576 219.374 205.576 219.602 205.576 219.79L205.589 219.803ZM198.858 218.501H203.628C203.359 217.293 202.365 216.461 201.075 216.461C199.785 216.461 198.939 217.28 198.858 218.501Z" fill="#407BFF"/>
<g opacity="0.1">
<path d="M123.526 146.835H114.201L81.3383 301.266H90.6625L123.526 146.835Z" fill="white"/>
<path d="M71.92 301.266L104.783 146.835H69.7434L36.8803 301.266H71.92Z" fill="white"/>
</g>
<path opacity="0.2" d="M119.105 386.957V389.52C119.105 390.916 120.234 392.043 121.631 392.043H204.595C205.925 392.043 207.014 390.97 207.014 389.628V386.944C207.014 385.615 205.939 384.541 204.609 384.541H179.686C179.363 384.541 179.054 384.514 178.759 384.447H121.645C120.247 384.447 119.119 385.575 119.119 386.97L119.105 386.957Z" fill="white"/>
<path opacity="0.2" d="M102.042 384.447H178.732C176.676 384.031 175.158 382.22 175.104 380.099H103.99L102.029 384.447H102.042Z" fill="black"/>
<path d="M198.159 192.787H186.041L190.233 182.118L198.159 192.787Z" fill="white"/>
<path d="M194.948 200.102H192.114L189.588 185.648H192.409L194.948 200.102Z" fill="white"/>
<path d="M198.159 192.787H186.041L190.233 182.118L198.159 192.787Z" fill="white"/>
<path d="M194.948 200.102H192.114L189.588 185.648H192.409L194.948 200.102Z" fill="white"/>
<path d="M78.3287 342.374C77.0254 342.494 75.7222 342.615 74.419 342.736C73.8412 342.79 73.8412 341.891 74.419 341.837C75.7222 341.716 77.0254 341.595 78.3287 341.474C78.9064 341.421 78.9064 342.32 78.3287 342.374Z" fill="#263238"/>
<path d="M78.5571 355.123C79.3229 355.7 80.1022 356.277 80.868 356.855C81.3248 357.203 80.868 357.982 80.4112 357.633C79.6454 357.056 78.8661 356.479 78.1003 355.902C77.6435 355.553 78.1003 354.774 78.5571 355.123Z" fill="#263238"/>
<path d="M84.3209 350.225C85.5973 350.48 86.8736 350.748 88.15 351.003C88.7143 351.124 88.4724 351.996 87.9082 351.875C86.6318 351.62 85.3554 351.352 84.079 351.097C83.5148 350.976 83.7566 350.104 84.3209 350.225Z" fill="#263238"/>
<path d="M80.9889 345.957C80.3574 345.017 79.726 344.078 79.0945 343.139C78.7721 342.655 79.5513 342.199 79.8738 342.682C80.5052 343.622 81.1367 344.561 81.7682 345.501C82.0906 345.984 81.3114 346.44 80.9889 345.957Z" fill="#263238"/>
<path d="M74.5399 349.876C75.561 350.104 76.5955 350.332 77.6166 350.56C78.1809 350.681 77.9391 351.553 77.3748 351.433C76.3537 351.204 75.3191 350.976 74.298 350.748C73.7338 350.627 73.9756 349.755 74.5399 349.876Z" fill="#263238"/>
<path d="M48.1795 353.647C46.9031 353.795 45.6268 353.942 44.3504 354.09C43.7727 354.157 43.7727 353.258 44.3504 353.191C45.6268 353.043 46.9031 352.895 48.1795 352.748C48.7572 352.681 48.7572 353.58 48.1795 353.647Z" fill="#263238"/>
<path d="M76.7568 331.624C75.8028 332.067 74.8489 332.51 73.895 332.952C73.371 333.194 72.9142 332.416 73.4382 332.174C74.3921 331.731 75.346 331.288 76.2999 330.845C76.8239 330.604 77.2807 331.382 76.7568 331.624Z" fill="#263238"/>
<path d="M69.2598 322.028C68.7761 323.276 68.2924 324.538 67.8222 325.786C67.6206 326.322 66.7473 326.094 66.9489 325.544C67.4325 324.296 67.9162 323.034 68.3865 321.786C68.588 321.25 69.4613 321.478 69.2598 322.028Z" fill="#263238"/>
<path d="M47.7899 349.58H44.3638C43.7861 349.58 43.7861 348.681 44.3638 348.681H47.7899C48.3676 348.681 48.3676 349.58 47.7899 349.58Z" fill="#263238"/>
<path d="M47.6689 340.656L44.8072 340.025C44.2429 339.904 44.4847 339.032 45.049 339.153C46.003 339.367 46.9569 339.569 47.9108 339.783C48.4751 339.904 48.2332 340.777 47.6689 340.656Z" fill="#263238"/>
<path d="M58.7935 324.229L57.9202 321.223C57.759 320.659 58.6323 320.431 58.7935 320.981L59.6668 323.987C59.8281 324.551 58.9547 324.779 58.7935 324.229Z" fill="#263238"/>
<path d="M71.8259 360.653C71.8259 360.653 92.5165 352.023 86.269 344.655C80.3037 337.636 77.6972 353.902 71.8259 356.009C65.9546 358.116 71.8259 360.653 71.8259 360.653Z" fill="#407BFF"/>
<path opacity="0.1" d="M71.8259 360.653C71.8259 360.653 92.5165 352.023 86.269 344.655C80.3037 337.636 77.6972 353.902 71.8259 356.009C65.9546 358.116 71.8259 360.653 71.8259 360.653Z" fill="white"/>
<path d="M72.6052 365.135C72.6052 365.135 86.6587 322.364 61.5613 323.035C36.4504 323.706 50.1814 367.712 50.1814 367.712L72.6052 365.135Z" fill="#407BFF"/>
<path opacity="0.3" d="M72.6052 365.135C72.6052 365.135 86.6587 322.364 61.5613 323.035C36.4504 323.706 50.1814 367.712 50.1814 367.712L72.6052 365.135Z" fill="white"/>
<path opacity="0.2" d="M50.1814 367.712C50.1814 367.712 45.9492 354.117 46.4866 341.917C47.4808 361.713 64.7185 360.653 64.7185 360.653L65.9009 365.9L50.1814 367.712Z" fill="#263238"/>
<path d="M84.9926 359.069L81.7816 385.091C81.3248 388.796 78.1809 391.574 74.4324 391.574H53.2044C49.4693 391.574 46.3254 388.796 45.8552 385.091L42.6441 359.069H84.9926Z" fill="#263238"/>
<g opacity="0.2">
<path d="M70.039 358.277C71.7185 347.715 71.4497 329.49 57.8396 327.611C56.8857 327.477 57.2888 326.027 58.2427 326.161C72.8067 328.175 73.2904 347.406 71.49 358.68C71.3423 359.633 69.8912 359.23 70.039 358.277Z" fill="white"/>
</g>
<g opacity="0.5">
<path d="M64.6514 357.351C65.3903 348.816 63.684 339.112 57.9068 332.55C57.2753 331.825 58.3367 330.751 58.9682 331.489C65.0007 338.347 66.9354 348.413 66.1561 357.364C66.0755 358.317 64.5708 358.331 64.6514 357.364V357.351Z" fill="white"/>
</g>
<g opacity="0.2">
<path d="M58.6591 357.552C56.9125 350.453 55.663 343.219 54.5748 335.985C54.427 335.033 55.878 334.63 56.0258 335.583C57.1141 342.803 58.3636 350.05 60.1102 357.15C60.3386 358.089 58.8875 358.492 58.6591 357.552Z" fill="white"/>
</g>
<g opacity="0.5">
<path d="M51.9683 357.552C49.5902 351.097 48.6766 343.917 49.1334 337.086C49.2006 336.12 50.7054 336.12 50.6382 337.086C50.1948 343.823 51.0816 350.802 53.4193 357.163C53.7552 358.076 52.3042 358.465 51.9683 357.566V357.552Z" fill="white"/>
</g>
<g opacity="0.3">
<path d="M76.1521 355.66C79.2692 353.862 83.4207 351.043 84.2671 347.339C84.4821 346.4 85.9331 346.789 85.7182 347.742C84.7777 351.849 80.3709 354.976 76.9045 356.962C76.0581 357.445 75.3057 356.143 76.1387 355.66H76.1521Z" fill="white"/>
</g>
<g opacity="0.2">
<path d="M83.0445 347.406C81.8757 349.03 80.7068 350.668 79.5244 352.292C78.9602 353.07 77.6569 352.318 78.2212 351.527C79.3901 349.903 80.559 348.265 81.7413 346.641C82.3056 345.863 83.6088 346.615 83.0445 347.406Z" fill="white"/>
</g>
<path d="M53.3656 326.886C53.3656 326.886 56.523 325.558 56.6304 324.564C56.7782 323.115 54.1449 320.095 52.6939 320.283C51.4981 320.444 50.4367 324.564 50.4367 324.564C50.4367 324.564 49.3753 320.417 48.1795 320.283C46.5807 320.109 43.7593 323.544 43.9877 325.128C44.122 326.054 47.1316 327.155 47.1316 327.155C47.1316 327.155 43.8265 327.195 43.41 328.054C42.8054 329.275 44.2429 332.778 45.5865 333.046C46.621 333.248 48.596 330.067 48.596 330.067C48.596 330.067 46.7957 333.019 47.3465 333.852C47.9646 334.804 51.095 335.073 51.8608 334.241C52.5864 333.476 51.2159 330.067 51.2159 330.067C51.2159 330.067 52.9357 333.073 53.9433 333.046C55.3003 333.019 57.7321 330.228 57.4634 328.899C57.235 327.785 53.3656 326.9 53.3656 326.9V326.886Z" fill="#407BFF"/>
<path opacity="0.6" d="M53.3656 326.886C53.3656 326.886 56.523 325.558 56.6304 324.564C56.7782 323.115 54.1449 320.095 52.6939 320.283C51.4981 320.444 50.4367 324.564 50.4367 324.564C50.4367 324.564 49.3753 320.417 48.1795 320.283C46.5807 320.109 43.7593 323.544 43.9877 325.128C44.122 326.054 47.1316 327.155 47.1316 327.155C47.1316 327.155 43.8265 327.195 43.41 328.054C42.8054 329.275 44.2429 332.778 45.5865 333.046C46.621 333.248 48.596 330.067 48.596 330.067C48.596 330.067 46.7957 333.019 47.3465 333.852C47.9646 334.804 51.095 335.073 51.8608 334.241C52.5864 333.476 51.2159 330.067 51.2159 330.067C51.2159 330.067 52.9357 333.073 53.9433 333.046C55.3003 333.019 57.7321 330.228 57.4634 328.899C57.235 327.785 53.3656 326.9 53.3656 326.9V326.886Z" fill="white"/>
<path d="M77.4957 347.245C76.4746 347.165 75.44 347.084 74.419 347.004C73.8412 346.963 73.8412 346.051 74.419 346.105C75.44 346.185 76.4746 346.266 77.4957 346.346C78.0734 346.386 78.0734 347.299 77.4957 347.245Z" fill="#263238"/>
<path d="M77.9256 336.791C76.9448 337.019 75.964 337.233 74.9698 337.462C74.4055 337.596 74.1637 336.724 74.728 336.589L77.6838 335.918C78.2481 335.784 78.4899 336.656 77.9256 336.791Z" fill="#263238"/>
<path d="M73.9756 325.987C73.1426 326.886 72.2961 327.785 71.4631 328.685C71.0601 329.114 70.4286 328.47 70.8182 328.04C71.6512 327.141 72.4977 326.242 73.3307 325.343C73.7337 324.913 74.3652 325.558 73.9756 325.987Z" fill="#263238"/>
<path d="M49.1334 357.499C47.763 357.834 46.406 358.156 45.0356 358.492C44.4713 358.626 44.2295 357.754 44.7938 357.619C46.1642 357.284 47.5212 356.962 48.8916 356.626C49.4559 356.492 49.6977 357.364 49.1334 357.499Z" fill="#263238"/>
<path d="M47.1853 345.085C46.2045 344.843 45.2237 344.601 44.2295 344.346C43.6652 344.212 43.907 343.34 44.4713 343.474C45.4521 343.716 46.4329 343.957 47.4271 344.212C47.9914 344.346 47.7496 345.219 47.1853 345.085Z" fill="#263238"/>
<path d="M47.6689 337.126L44.8072 336.522C44.2429 336.401 44.4847 335.529 45.049 335.65C46.003 335.851 46.9569 336.052 47.9108 336.254C48.4751 336.375 48.2332 337.247 47.6689 337.126Z" fill="#263238"/>
<path d="M62.9182 324.108V321.411C62.9182 320.834 63.8184 320.834 63.8184 321.411V324.108C63.8184 324.685 62.9182 324.685 62.9182 324.108Z" fill="#263238"/>
<path d="M74.0965 353.701C74.943 353.929 75.8028 354.157 76.6493 354.385C77.2135 354.533 76.9717 355.405 76.4074 355.257C75.561 355.029 74.7011 354.801 73.8547 354.573C73.2904 354.425 73.5322 353.553 74.0965 353.701Z" fill="#263238"/>
<path d="M73.4651 356.814C74.3384 357.029 75.1982 357.23 76.0715 357.445C76.6358 357.579 76.394 358.451 75.8297 358.317C74.9564 358.103 74.0965 357.901 73.2232 357.686C72.6589 357.552 72.9008 356.68 73.4651 356.814Z" fill="#263238"/>
<path d="M81.6069 353.03C82.6549 353.607 83.7029 354.184 84.7508 354.747C85.2614 355.029 84.8046 355.808 84.294 355.526C83.2461 354.949 82.1981 354.372 81.1501 353.808C80.6396 353.526 81.0964 352.748 81.6069 353.03Z" fill="#263238"/>
<path d="M85.0464 346.816C86.1615 346.212 87.2632 345.595 88.3784 344.991C88.8889 344.709 89.3457 345.487 88.8352 345.769C87.72 346.373 86.6183 346.99 85.5032 347.594C84.9926 347.876 84.5358 347.098 85.0464 346.816Z" fill="#263238"/>
<path d="M83.3267 344.159C83.5819 342.91 83.8238 341.662 84.079 340.401C84.2 339.837 85.0598 340.079 84.9523 340.642C84.6971 341.89 84.4552 343.139 84.2 344.4C84.079 344.964 83.2192 344.722 83.3267 344.159Z" fill="#263238"/>
<path d="M79.1617 347.809C78.5974 347.219 78.0465 346.641 77.4822 346.051C77.0792 345.635 77.7241 344.991 78.1271 345.407C78.6914 345.997 79.2423 346.574 79.8066 347.165C80.2096 347.581 79.5647 348.225 79.1617 347.809Z" fill="#263238"/>
<path d="M363.496 220.541L367.473 220.487C367.89 220.487 368.225 220.165 368.225 219.79L368.172 215.951C368.172 215.576 367.822 215.267 367.406 215.267L364.558 215.307C364.208 215.307 363.913 215.522 363.832 215.831L362.771 219.682C362.65 220.125 363.013 220.555 363.523 220.541H363.496Z" fill="#263238"/>
<path d="M358.001 220.622L361.978 220.568C362.394 220.568 362.73 220.246 362.73 219.87L362.677 216.032C362.677 215.656 362.327 215.347 361.911 215.347L359.062 215.388C358.713 215.388 358.418 215.602 358.337 215.911L357.276 219.763C357.155 220.206 357.517 220.635 358.028 220.622H358.001Z" fill="#263238"/>
<path d="M352.506 220.702L356.483 220.648C356.899 220.648 357.235 220.326 357.235 219.951L357.181 216.112C357.181 215.737 356.832 215.428 356.416 215.428L353.567 215.468C353.218 215.468 352.922 215.683 352.842 215.992L351.78 219.843C351.659 220.286 352.022 220.716 352.533 220.702H352.506Z" fill="#263238"/>
<path d="M347.011 220.796L350.988 220.742C351.404 220.742 351.74 220.42 351.74 220.045L351.686 216.206C351.686 215.831 351.337 215.522 350.921 215.522L348.072 215.562C347.723 215.562 347.427 215.777 347.347 216.086L346.285 219.937C346.164 220.38 346.527 220.81 347.038 220.796H347.011Z" fill="#263238"/>
<path d="M341.516 220.877L345.493 220.823C345.909 220.823 346.245 220.501 346.245 220.125L346.191 216.287C346.191 215.911 345.842 215.602 345.425 215.602L342.577 215.643C342.228 215.643 341.932 215.857 341.852 216.166L340.79 220.018C340.669 220.461 341.032 220.89 341.543 220.877H341.516Z" fill="#263238"/>
<path d="M336.021 220.957L339.998 220.903C340.414 220.903 340.75 220.581 340.75 220.206L340.696 216.367C340.696 215.992 340.347 215.683 339.93 215.683L337.082 215.723C336.733 215.723 336.437 215.938 336.357 216.247L335.295 220.098C335.174 220.541 335.537 220.971 336.047 220.957H336.021Z" fill="#263238"/>
<path d="M330.526 221.038L334.502 220.984C334.919 220.984 335.255 220.662 335.255 220.286L335.201 216.448C335.201 216.072 334.852 215.763 334.435 215.763L331.587 215.804C331.238 215.804 330.942 216.018 330.861 216.327L329.8 220.179C329.679 220.622 330.042 221.051 330.552 221.038H330.526Z" fill="#263238"/>
<path d="M325.03 221.118L329.007 221.065C329.424 221.065 329.76 220.743 329.76 220.367L329.706 216.528C329.706 216.153 329.357 215.844 328.94 215.844L326.092 215.884C325.743 215.884 325.447 216.099 325.366 216.408L324.305 220.259C324.184 220.702 324.547 221.132 325.057 221.118H325.03Z" fill="#263238"/>
<path d="M319.549 221.212L323.526 221.158C323.942 221.158 324.278 220.836 324.278 220.461L324.224 216.622C324.224 216.247 323.875 215.938 323.459 215.938L320.61 215.978C320.261 215.978 319.965 216.193 319.885 216.502L318.823 220.353C318.702 220.796 319.065 221.226 319.576 221.212H319.549Z" fill="#263238"/>
<path d="M314.054 221.293L318.031 221.239C318.447 221.239 318.783 220.917 318.783 220.541L318.729 216.703C318.729 216.327 318.38 216.018 317.963 216.018L315.115 216.059C314.766 216.059 314.47 216.273 314.39 216.582L313.328 220.434C313.207 220.877 313.57 221.306 314.081 221.293H314.054Z" fill="#263238"/>
<path d="M308.559 221.373L312.535 221.32C312.952 221.32 313.288 220.998 313.288 220.622L313.234 216.783C313.234 216.408 312.885 216.099 312.468 216.099L309.62 216.139C309.271 216.139 308.975 216.354 308.894 216.663L307.833 220.514C307.712 220.957 308.075 221.387 308.585 221.373H308.559Z" fill="#263238"/>
<path d="M303.063 221.454L307.04 221.4C307.457 221.4 307.793 221.078 307.793 220.702L307.739 216.864C307.739 216.488 307.39 216.179 306.973 216.179L304.125 216.22C303.776 216.22 303.48 216.434 303.399 216.743L302.338 220.595C302.217 221.038 302.58 221.467 303.09 221.454H303.063Z" fill="#263238"/>
<path d="M297.568 221.534L301.545 221.481C301.962 221.481 302.298 221.159 302.298 220.783L302.244 216.944C302.244 216.569 301.895 216.26 301.478 216.26L298.63 216.3C298.28 216.3 297.985 216.515 297.904 216.824L296.843 220.675C296.722 221.118 297.085 221.548 297.595 221.534H297.568Z" fill="#263238"/>
<path d="M292.073 221.615L296.05 221.561C296.467 221.561 296.803 221.239 296.803 220.863L296.749 217.025C296.749 216.649 296.4 216.34 295.983 216.34L293.135 216.381C292.785 216.381 292.49 216.595 292.409 216.904L291.348 220.756C291.227 221.199 291.59 221.628 292.1 221.615H292.073Z" fill="#263238"/>
<path d="M286.578 221.709L290.555 221.655C290.972 221.655 291.307 221.333 291.307 220.957L291.254 217.119C291.254 216.743 290.904 216.434 290.488 216.434L287.64 216.475C287.29 216.475 286.995 216.689 286.914 216.998L285.853 220.85C285.732 221.293 286.095 221.722 286.605 221.709H286.578Z" fill="#263238"/>
<path d="M282.588 222.179C282.615 223.843 284.133 225.171 285.947 225.144L368.199 223.91C370.026 223.883 371.49 222.514 371.463 220.85C371.463 220.018 371.074 219.266 370.469 218.729C369.878 218.206 369.072 217.884 368.185 217.884L285.853 219.132C285.53 219.132 285.221 219.186 284.939 219.266C283.569 219.655 282.574 220.823 282.588 222.205V222.179Z" fill="#263238"/>
<path opacity="0.2" d="M282.588 222.179C282.615 223.843 284.133 225.171 285.947 225.144L368.199 223.91C370.026 223.883 371.49 222.514 371.463 220.85C371.463 220.018 371.074 219.266 370.469 218.729C369.878 218.206 369.072 217.884 368.185 217.884L285.853 219.132C285.53 219.132 285.221 219.186 284.939 219.266C283.569 219.655 282.574 220.823 282.588 222.205V222.179Z" fill="white"/>
<path d="M282.588 222.179C282.615 223.843 284.133 225.171 285.947 225.144L313.798 224.728C315.128 224.312 316.069 223.158 316.056 221.803C316.056 221.615 316.029 221.44 316.002 221.266C315.867 220.649 315.532 220.098 315.048 219.682C314.833 219.494 314.591 219.333 314.336 219.199C314.201 219.145 314.081 219.092 313.946 219.025C313.543 218.89 313.127 218.823 312.67 218.823L284.952 219.239C283.582 219.629 282.588 220.796 282.601 222.179H282.588Z" fill="#263238"/>
<path d="M317.977 368.638L307.632 366.665L308.223 342.682L321.027 345.823L317.977 368.638Z" fill="white"/>
<path opacity="0.2" d="M322.008 339.3L308.491 335.771L308.035 352.157L320.046 353.714L322.008 339.3Z" fill="black"/>
<path d="M372.471 218.179C372.471 218.179 305.213 229.479 307.86 259.595C307.86 259.595 306.543 290.208 306.369 345.501L323.969 348.212C323.969 348.212 342.013 290.892 338.882 267.097C367.285 262.32 397.233 269.365 408.881 254.723C417.883 243.235 411.058 217.521 411.058 217.521L372.471 218.179Z" fill="#263238"/>
<path d="M326.858 351.513L303.87 348.306L303.937 338.186L327.758 342.709L326.858 351.513Z" fill="#263238"/>
<path d="M307.255 366.115L319.011 368.061C319.428 368.101 319.737 368.53 319.71 369.027L319.079 380.086C318.944 381.28 318.017 382.112 316.996 381.965C312.912 381.2 310.977 380.609 305.818 379.75C302.634 379.227 295.365 377.925 290.945 377.576C286.538 377.227 286.901 372.06 288.795 371.738C297.3 370.342 302.123 368.826 305.374 366.571C305.939 366.168 306.61 366.007 307.269 366.101L307.255 366.115Z" fill="#263238"/>
<path d="M302.069 368.276C302.996 368.369 303.923 368.369 304.85 368.276C304.944 368.276 305.025 368.208 305.052 368.114C305.092 368.034 305.092 367.927 305.052 367.846C304.756 367.564 302.056 365.162 300.712 365.484C300.403 365.551 300.148 365.779 300.054 366.088C299.839 366.544 299.893 367.068 300.175 367.47C300.685 367.967 301.371 368.249 302.069 368.276ZM304.286 367.833C302.351 367.886 300.994 367.712 300.578 367.162C300.403 366.893 300.403 366.558 300.551 366.276C300.591 366.128 300.712 366.007 300.86 365.967C301.559 365.793 303.184 366.907 304.286 367.846V367.833Z" fill="#407BFF"/>
<path d="M304.864 368.262C304.864 368.262 304.931 368.262 304.971 368.262C305.052 368.235 305.106 368.155 305.132 368.074C305.132 367.953 305.804 364.974 304.877 363.82C304.649 363.511 304.273 363.323 303.896 363.337C303.466 363.283 303.063 363.538 302.916 363.954C302.526 365.068 303.789 367.457 304.743 368.208C304.783 368.235 304.823 368.262 304.864 368.262ZM304.004 363.833C304.205 363.86 304.38 363.967 304.501 364.129C304.944 365.216 305.025 366.397 304.729 367.537C303.856 366.611 303.372 365.39 303.372 364.129C303.372 363.994 303.52 363.833 303.883 363.833H304.004Z" fill="#407BFF"/>
<path d="M274.083 374.301L263.872 371.926L267.742 348.145L279.713 351.768L274.083 374.301Z" fill="white"/>
<path opacity="0.2" d="M281.406 344.561L268.884 340.495L266.533 355.647L277.872 358.787L281.406 344.561Z" fill="black"/>
<path d="M356.308 217.535C356.214 217.535 353.675 224.54 348.408 224.272C304.138 221.991 270.039 224.406 270.039 251.489C267.863 298.891 265.082 349.071 265.082 349.071L281.661 352.909C281.661 352.909 302.351 295.214 300.9 261.38C338.923 269.245 380.532 270.748 393.404 251.704C402.983 234.539 394.814 217.924 394.814 217.924L356.295 217.535H356.308Z" fill="#263238"/>
<path d="M283.676 356.076L263.214 350.923L264.746 341.662L285.597 348.051L283.676 356.076Z" fill="#263238"/>
<path d="M264.611 366.155L276.394 368.222C276.797 368.289 277.106 368.745 277.079 369.282L276.542 381.441C276.421 382.756 275.507 383.696 274.486 383.521C270.402 382.716 268.467 382.045 263.308 381.146C260.124 380.596 251.444 378.77 247.065 377.777C242.685 376.784 243.491 371.228 245.466 371.121C254.051 370.731 259.573 369.148 262.797 366.652C263.335 366.222 263.98 366.048 264.611 366.142V366.155Z" fill="#263238"/>
<path d="M259.882 368.92C260.688 368.45 261.427 367.9 262.112 367.269C262.193 367.202 262.22 367.094 262.179 367C262.153 366.907 262.072 366.853 261.978 366.839C261.575 366.786 257.974 366.437 257.074 367.497C256.872 367.739 256.819 368.074 256.913 368.369C257.007 368.853 257.356 369.255 257.826 369.416C258.552 369.51 259.277 369.322 259.869 368.906L259.882 368.92ZM261.4 367.255C259.936 368.477 258.686 369.094 258.014 368.92C257.719 368.799 257.504 368.53 257.464 368.208C257.41 368.061 257.437 367.9 257.531 367.779C258.014 367.269 259.949 367.162 261.4 367.255Z" fill="#407BFF"/>
<path d="M262.112 367.282L262.206 367.202C262.206 367.202 262.26 367.054 262.22 366.974C262.139 366.88 260.917 364.075 259.492 363.686C259.116 363.578 258.727 363.659 258.418 363.887C258.041 364.102 257.867 364.558 257.988 364.974C258.323 366.101 260.755 367.269 261.991 367.323C262.032 367.323 262.072 367.309 262.099 367.282H262.112ZM258.794 364.222C258.968 364.115 259.17 364.088 259.371 364.142C260.366 364.759 261.145 365.672 261.588 366.759C260.339 366.531 259.21 365.833 258.458 364.813C258.377 364.706 258.404 364.491 258.7 364.276L258.794 364.222Z" fill="#407BFF"/>
<path d="M381.661 122.087C383.703 127.469 385.329 132.958 377.55 135.817C377.55 135.817 369.031 148.727 382.359 165.798C389.427 155.639 396.561 144.768 401.102 133.253C397.837 130.797 396.547 126.154 396.158 121.255C395.822 117.149 391.119 115.001 387.814 117.471L381.647 122.087H381.661Z" fill="white"/>
<path d="M369.153 97.2861C368.521 97.2458 367.943 98.0108 367.903 98.9905C367.863 99.9702 368.346 100.789 368.978 100.816C369.609 100.856 370.187 100.131 370.227 99.1113C370.281 98.145 369.784 97.3129 369.153 97.2861Z" fill="#263238"/>
<path d="M369.126 107.526C369.126 107.526 366.855 107.593 365.847 106.13C368.091 104.56 370.617 100.816 370.617 100.816L369.112 107.539L369.126 107.526Z" fill="#FFBEBC"/>
<path d="M369.555 93.488C371.02 93.5149 372.39 94.2396 373.223 95.434C373.237 95.4743 373.264 95.5011 373.277 95.528C373.465 95.783 373.828 95.8366 374.083 95.6487C374.338 95.4609 374.392 95.0985 374.204 94.8435C373.17 93.3001 371.45 92.3607 369.596 92.3204C369.273 92.3204 369.005 92.5486 368.991 92.8707C368.991 93.072 369.085 93.2733 369.26 93.3807C369.341 93.4343 369.448 93.4746 369.542 93.4746L369.555 93.488Z" fill="#263238"/>
<path d="M403.44 97.3129C402.069 109.284 401.76 114.371 395.379 120.235C391.643 123.658 387.183 125.094 383.004 124.892C382.978 124.892 382.937 124.892 382.91 124.892C381.54 124.825 380.21 124.57 378.934 124.141C377.818 123.778 376.757 123.268 375.763 122.664C372.417 120.598 369.891 117.175 369.058 112.639C367.03 101.701 369.596 83.9459 381.607 79.7855C390.179 76.7391 399.584 81.2484 402.62 89.8108C403.467 92.2265 403.749 94.7898 403.426 97.3263L403.44 97.3129Z" fill="white"/>
<path d="M399.49 79.3561C395.163 77.5175 390.26 77.6517 385.584 78.1348C380.908 78.618 376.206 79.45 371.531 78.9669C369.797 78.7924 368.239 77.0075 365.847 78.8327C362.73 81.1947 364.302 91.2334 371.665 89.4618C379.686 87.5293 375.682 96.7627 375.682 98.2389C375.682 98.2389 376.314 100.762 377.267 101.514C380.452 108.546 385.691 119.081 387.223 122.383C391.455 123 395.822 122.034 395.822 122.034C402.58 112.948 417.05 86.8448 399.476 79.3695L399.49 79.3561Z" fill="#263238"/>
<path d="M379.256 98.0644C376.314 98.7355 375.225 102.842 375.427 105.459C375.628 108.385 377.953 110.358 380.452 108.533C382.333 107.15 383.582 105.07 383.931 102.775C384.335 99.9567 382.198 97.3934 379.256 98.0644Z" fill="white"/>
<path opacity="0.2" d="M382.897 124.879C381.527 124.812 380.196 124.557 378.92 124.127C377.805 123.765 376.744 123.255 375.749 122.651C375.749 122.651 375.722 122.571 375.709 122.557C377.227 122.973 378.88 122.879 380.358 122.302C380.774 122.128 381.231 121.913 381.647 122.087C382.104 122.262 382.292 122.799 382.427 123.268C382.588 123.792 382.736 124.356 382.897 124.879Z" fill="black"/>
<path d="M372.135 137.293C373.64 134.824 375.991 132.971 378.745 132.113C383.475 130.583 401.639 130.824 403.386 132.166C405.2 133.428 406.53 135.253 407.175 137.36L372.135 137.293Z" fill="#263238"/>
<path d="M408.613 211.858C394.237 212.811 374.688 215.092 373.774 215.696C373.962 215.307 376.797 209.335 370.832 207.765L405.401 196.679C405.482 184.346 405.684 153.706 405.697 150.794C405.697 149.814 405.697 148.835 405.684 147.842C405.63 143.386 409.056 139.655 413.516 139.36C413.705 139.36 413.893 139.36 414.081 139.36C418.891 139.36 422.397 143.386 422.464 148.271C422.921 183.594 424.439 210.838 408.613 211.871V211.858Z" fill="white"/>
<path d="M373.774 215.696C373.667 215.79 373.546 215.79 373.425 215.71C372.297 214.985 370.845 207.765 370.845 207.765C376.811 209.335 373.976 215.307 373.788 215.696H373.774Z" fill="white"/>
<path d="M373.774 215.696L373.425 215.71L360.849 215.589L352.479 216.636C350.773 216.85 349.281 215.535 349.281 213.817V213.777C349.281 212.918 349.711 212.1 350.397 211.576L358.23 205.564C358.915 205.027 359.828 204.852 360.675 205.081L370.845 207.765C376.811 209.335 373.976 215.307 373.788 215.696H373.774Z" fill="white"/>
<path opacity="0.2" d="M405.401 158.994C407.202 163.248 409.419 167.315 412.025 171.126L421.027 164.792C420.14 163.114 419.106 161.517 417.937 160.027C413.718 155.156 409.029 156.189 405.401 158.994Z" fill="black"/>
<path d="M404.515 146.191C400.323 152.015 404.38 168.791 404.38 168.791L426.038 163.369C426.038 163.369 425.823 143.091 421.443 139.467C416.445 135.347 408.827 140.138 404.528 146.191H404.515Z" fill="#407BFF"/>
<g opacity="0.1">
<path d="M404.515 146.191C400.323 152.015 404.38 168.791 404.38 168.791L426.038 163.369C426.038 163.369 425.823 143.091 421.443 139.467C416.445 135.347 408.827 140.138 404.528 146.191H404.515Z" fill="black"/>
</g>
<path d="M375.937 134.3C383.864 133.79 391.227 134.26 400.202 134.931C405.227 135.334 410.225 136.005 415.182 136.931C415.33 136.957 415.491 136.998 415.639 137.025C419.535 138.004 421.9 141.963 420.919 145.855C411.206 184.373 410.937 197.444 411.246 217.938L357.826 216.515C356.658 207.953 356.94 150.888 357.638 144.473C356.523 135.575 369.421 134.703 375.937 134.287V134.3Z" fill="#407BFF"/>
<path d="M410.856 214.368L357.786 212.945C357.262 212.945 356.832 213.213 356.859 213.536L356.241 217.938C356.268 218.743 356.59 218.998 357.074 219.011L411.34 220.219C411.944 220.219 412.401 219.87 412.227 219.481L411.743 214.784C411.541 214.502 411.205 214.341 410.856 214.368Z" fill="#263238"/>
<path d="M356.093 199.94C348.999 204.839 322.384 215.079 321.47 215.683C321.658 215.294 324.493 209.321 318.528 207.751L347.79 188.801C351.001 186.251 352.896 182.413 352.949 178.32C353.097 167.825 353.379 153.196 353.393 150.781C353.393 149.801 353.393 148.821 353.379 147.828C353.326 143.373 356.752 139.642 361.212 139.346C361.4 139.346 361.588 139.346 361.776 139.346C366.586 139.346 370.093 143.373 370.16 148.258C370.617 183.581 369.139 190.949 356.093 199.954V199.94Z" fill="white"/>
<path d="M321.47 215.696C321.363 215.79 321.242 215.79 321.121 215.71C319.992 214.985 318.541 207.765 318.541 207.765C324.506 209.335 321.672 215.307 321.484 215.696H321.47Z" fill="white"/>
<path d="M321.47 215.696L321.121 215.71L308.545 215.589L300.175 216.636C298.469 216.85 296.977 215.535 296.977 213.817V213.777C296.977 212.918 297.407 212.1 298.092 211.576L305.925 205.564C306.61 205.027 307.524 204.852 308.371 205.081L318.541 207.765C324.506 209.335 321.672 215.307 321.484 215.696H321.47Z" fill="white"/>
<path d="M357.598 138.3C349.577 141.762 350.437 152.445 350.84 166.657C366.868 162.9 372.901 166.201 372.753 166.631C373.479 161.906 375.87 149.036 369.529 141.078C366.546 137.333 361.884 136.179 357.598 138.3Z" fill="#407BFF"/>
<path d="M329.115 273.779C318.548 274.005 308.544 276.636 300.858 282.566C299.467 275.887 299.003 269.118 299.478 262.449L299.478 262.448C299.706 259.159 300.349 255.821 303.051 253.968L303.051 253.968C304.708 252.83 306.905 252.478 309.183 252.751C311.457 253.023 313.76 253.912 315.581 255.187C319.251 257.757 321.459 261.536 323.602 265.279L323.602 265.279C323.746 265.53 323.894 265.79 324.047 266.058C325.431 268.487 327.166 271.531 329.115 273.779ZM329.115 273.779C329.334 273.775 329.553 273.771 329.773 273.768C327.749 271.542 325.938 268.365 324.478 265.804C324.327 265.539 324.18 265.281 324.036 265.031C321.9 261.3 319.643 257.421 315.868 254.777C312.092 252.133 306.342 251.1 302.768 253.556L329.115 273.779Z" fill="#DCF0FF" stroke="black"/>
<path d="M322.83 266.8C322.705 266.887 322.592 266.968 322.493 267.04C319.272 260.344 315.103 256.58 311.685 254.485C309.98 253.44 308.466 252.813 307.355 252.444C312.509 251.55 318.072 254.025 322.594 256.998C325.108 258.651 327.261 260.431 328.786 261.8C329.494 262.435 330.066 262.981 330.475 263.383C328.467 263.703 326.509 264.593 324.999 265.438C324.106 265.939 323.357 266.432 322.83 266.8Z" fill="#407BFF" stroke="black"/>
<path opacity="0.2" d="M350.078 276.132C339.512 276.358 329.508 278.988 321.822 284.919C320.431 278.24 319.967 271.471 320.442 264.802L320.442 264.801C320.67 261.511 321.313 258.174 324.015 256.321L324.015 256.321C325.672 255.182 327.869 254.831 330.147 255.103C332.421 255.375 334.724 256.265 336.544 257.539C340.215 260.11 342.423 263.888 344.566 267.632L344.566 267.632C344.71 267.883 344.858 268.143 345.011 268.41C346.395 270.839 348.13 273.883 350.078 276.132Z" stroke="#FFFBFB"/>
<path d="M296.278 286.417C297.737 288.627 297.118 291.605 294.902 293.065C292.688 294.523 289.706 293.904 288.245 291.69C286.786 289.48 287.405 286.502 289.621 285.042C291.835 283.584 294.817 284.203 296.278 286.417Z" fill="#407BFF" stroke="black"/>
<path opacity="0.2" d="M296.278 286.417C297.737 288.627 297.118 291.605 294.902 293.065C292.688 294.523 289.706 293.904 288.245 291.69C286.786 289.48 287.405 286.502 289.621 285.042C291.835 283.584 294.817 284.203 296.278 286.417Z" fill="black" stroke="black"/>
<path d="M333.259 392.121C329.535 392.28 325.122 391.788 321.322 390.251C318.862 389.254 317.208 386.873 316.929 384.208C316.929 384.208 316.929 384.208 316.929 384.208L314.794 363.335C315.174 363.076 315.753 362.822 316.526 362.598C317.437 362.334 318.572 362.125 319.867 361.989C322.455 361.717 325.643 361.743 328.881 362.186C332.12 362.63 335.386 363.489 338.143 364.871C340.84 366.222 343.018 368.057 344.235 370.461L344.223 370.504C344.183 370.655 344.122 370.882 344.041 371.186C343.879 371.794 343.636 372.71 343.314 373.944C342.671 376.411 341.71 380.151 340.439 385.239L340.439 385.239C339.575 388.713 338.699 390.335 337.652 391.149C336.7 391.888 335.533 392.025 333.78 392.111V392.099L333.259 392.121Z" fill="#407BFF" stroke="black"/>
<path opacity="0.2" d="M333.259 392.121C329.535 392.28 325.122 391.788 321.322 390.251C318.862 389.254 317.208 386.873 316.929 384.208C316.929 384.208 316.929 384.208 316.929 384.208L314.794 363.335C315.174 363.076 315.753 362.822 316.526 362.598C317.437 362.334 318.572 362.125 319.867 361.989C322.455 361.717 325.643 361.743 328.881 362.186C332.12 362.63 335.386 363.489 338.143 364.871C340.84 366.222 343.018 368.057 344.235 370.461L344.223 370.504C344.183 370.655 344.122 370.882 344.041 371.186C343.879 371.794 343.636 372.71 343.314 373.944C342.671 376.411 341.71 380.151 340.439 385.239L340.439 385.239C339.575 388.713 338.699 390.335 337.652 391.149C336.7 391.888 335.533 392.025 333.78 392.111V392.099L333.259 392.121Z" fill="black" stroke="black"/>
<path d="M454.404 394.14L454.403 394.14C450.72 394.722 446.281 394.719 442.336 393.615L442.335 393.615C439.777 392.905 437.871 390.727 437.288 388.098C437.288 388.098 437.288 388.097 437.288 388.097L433.64 371.365C433.828 370.936 434.2 370.472 434.771 369.998C435.395 369.482 436.228 368.978 437.235 368.517C439.25 367.596 441.919 366.868 444.893 366.546C450.767 365.912 457.736 366.869 463.153 370.916C463.145 370.975 463.137 371.044 463.127 371.12C463.088 371.436 463.03 371.891 462.958 372.453C462.813 373.576 462.609 375.122 462.371 376.812C461.896 380.2 461.29 384.145 460.765 386.443L460.765 386.444C460.185 389.001 459.503 390.774 458.526 391.98C457.569 393.163 456.291 393.846 454.404 394.14Z" fill="#407BFF" stroke="black"/>
<path opacity="0.2" d="M454.404 394.14L454.403 394.14C450.72 394.722 446.281 394.719 442.336 393.615L442.335 393.615C439.777 392.905 437.871 390.727 437.288 388.098C437.288 388.098 437.288 388.097 437.288 388.097L433.64 371.365C433.828 370.936 434.2 370.472 434.771 369.998C435.395 369.482 436.228 368.978 437.235 368.517C439.25 367.596 441.919 366.868 444.893 366.546C450.767 365.912 457.736 366.869 463.153 370.916C463.145 370.975 463.137 371.044 463.127 371.12C463.088 371.436 463.03 371.891 462.958 372.453C462.813 373.576 462.609 375.122 462.371 376.812C461.896 380.2 461.29 384.145 460.765 386.443L460.765 386.444C460.185 389.001 459.503 390.774 458.526 391.98C457.569 393.163 456.291 393.846 454.404 394.14Z" fill="black" stroke="black"/>
<path d="M389.412 375.911L389.412 375.911C357.437 372.551 337.817 368.951 323.439 365.238C312.709 362.467 304.901 359.635 297.03 356.781C294.35 355.809 291.663 354.835 288.851 353.859L288.851 353.859C286.999 353.217 285.088 352.591 283.152 351.956C278.045 350.283 272.757 348.551 267.884 346.308C261.173 343.22 255.347 339.204 251.975 333.152C249.641 328.956 248.101 322.963 248.27 317.586C248.439 312.189 250.311 307.605 254.585 305.905C271.487 299.192 287.487 290.245 302.059 279.375L302.059 279.375C303.459 278.33 304.847 277.268 306.233 276.208C312.196 271.644 318.126 267.106 324.887 264.037C329.009 262.175 335.933 260.746 343.907 260.808C351.873 260.87 360.845 262.419 369.066 266.472L369.195 266.536L369.338 266.521C373.278 266.115 378.137 265.33 383.691 264.433C385.228 264.185 386.817 263.928 388.455 263.668C396.026 262.468 404.658 261.2 413.935 260.407C432.494 258.821 453.61 259.14 473.943 265.694C492.9 271.812 506.763 291.259 508.881 311.103C511.041 331.357 504.115 349.432 488.618 362.675C484.808 365.927 478.01 368.543 469.547 370.587C461.107 372.625 451.089 374.077 440.908 375.047C420.54 376.986 399.586 376.987 389.412 375.911Z" fill="#407BFF" stroke="black"/>
<path opacity="0.5" d="M473.782 266.95C474.468 267.222 475.169 267.504 475.85 267.784C462.679 264.732 444.112 262.058 430.041 263.961C428.983 263.329 427.62 262.618 426.276 261.918L426.205 261.881C425.38 261.452 424.564 261.027 423.822 260.623C442.154 259.308 457.129 262.459 468.488 264.921L468.569 264.951C468.644 264.979 468.754 265.02 468.895 265.073C469.177 265.178 469.582 265.329 470.073 265.516C471.057 265.888 472.389 266.398 473.782 266.95Z" fill="black" stroke="black"/>
<path opacity="0.2" d="M329.114 289.301C329.114 291.95 326.96 294.102 324.307 294.102C321.654 294.102 319.5 291.95 319.5 289.301C319.5 286.652 321.654 284.5 324.307 284.5C326.96 284.5 329.114 286.652 329.114 289.301Z" fill="white" stroke="#070707"/>
<path d="M497.697 391.274C496.884 392.27 495.708 392.63 493.769 393.14H493.756L493.694 393.157C490.091 394.096 485.665 394.528 481.628 393.806L481.627 393.806C479.033 393.347 476.924 391.391 476.092 388.849L470.856 344.963C472.225 343.285 475.105 341.651 478.706 340.639C482.398 339.601 486.755 339.246 490.812 340.124C493.102 340.623 495.892 341.459 498.06 342.719C500.246 343.989 501.645 345.594 501.517 347.602C501.426 348.974 501.315 351.009 501.165 353.777C501.069 355.535 500.957 357.59 500.824 359.959C500.482 366.062 499.998 374.263 499.286 384.897C499.045 388.479 498.53 390.254 497.697 391.274Z" fill="#407BFF" stroke="black"/>
<path d="M385.44 394.403C384.502 395.355 383.17 395.633 381.182 396.026H381.169L381.122 396.035C377.463 396.75 373.024 396.931 369.04 395.986L369.039 395.986C366.466 395.377 364.479 393.29 363.801 390.703L359.397 352.417C360.866 350.827 363.829 349.368 367.472 348.571C371.217 347.751 375.587 347.652 379.591 348.774L379.591 348.774C381.849 349.406 384.586 350.402 386.677 351.786C388.786 353.182 390.09 354.865 389.844 356.86C389.291 361.33 387.423 383.405 387.181 388.166L387.181 388.166C387 391.731 386.376 393.453 385.44 394.403Z" fill="#407BFF" stroke="black"/>
<path d="M384.414 290.998C387.155 283.116 388.278 271.447 382.109 256.068C382.406 256.155 382.766 256.269 383.174 256.415C384.403 256.854 386.069 257.582 387.81 258.738C391.284 261.046 395.063 265.058 396.283 271.909C396.882 275.274 395.99 278.848 394.26 282.354C392.531 285.856 389.987 289.245 387.35 292.214C384.906 294.965 382.394 297.344 380.401 299.105C381.726 297.13 383.221 294.426 384.414 290.998Z" fill="#407BFF" stroke="black"/>
<path opacity="0.1" d="M384.414 290.998C387.155 283.116 388.278 271.447 382.109 256.068C382.406 256.155 382.766 256.269 383.174 256.415C384.403 256.854 386.069 257.582 387.81 258.738C391.284 261.046 395.063 265.058 396.283 271.909C396.882 275.274 395.99 278.848 394.26 282.354C392.531 285.856 389.987 289.245 387.35 292.214C384.906 294.965 382.394 297.344 380.401 299.105C381.726 297.13 383.221 294.426 384.414 290.998Z" fill="white" stroke="black"/>
<path d="M389.39 278.452C387.982 287.156 383.688 295.379 377.367 301.518C377.339 301.233 377.299 300.927 377.261 300.632L377.26 300.619C377.2 300.156 377.144 299.72 377.125 299.372C377.115 299.198 377.116 299.065 377.125 298.972C377.131 298.917 377.138 298.895 377.138 298.895C377.138 298.895 377.129 298.923 377.098 298.96L376.759 298.647L377.203 298.63C376.706 286.035 368.942 274.007 357.702 268.3C359.665 265.414 361.946 262.106 364.572 259.398C367.348 256.536 370.442 254.415 373.871 254.121C379.311 253.659 384.638 257.24 387.308 262.116C389.964 266.99 390.293 272.892 389.39 278.452L389.39 278.452Z" fill="#F0F9FF" stroke="black"/>
<path opacity="0.2" d="M389.39 278.452C387.982 287.156 383.688 295.379 377.367 301.518C377.339 301.233 377.299 300.927 377.261 300.632L377.26 300.619C377.2 300.156 377.144 299.72 377.125 299.372C377.115 299.198 377.116 299.065 377.125 298.972C377.131 298.917 377.138 298.895 377.138 298.895C377.138 298.895 377.129 298.923 377.098 298.96L376.759 298.647L377.203 298.63C376.706 286.035 368.942 274.007 357.702 268.3C359.665 265.414 361.946 262.106 364.572 259.398C367.348 256.536 370.442 254.415 373.871 254.121C379.311 253.659 384.638 257.24 387.308 262.116C389.964 266.99 390.293 272.892 389.39 278.452L389.39 278.452Z" fill="#FFCDCD" stroke="#FFE3E3"/>
<path opacity="0.5" d="M258.603 322.189C258.603 324.956 258.359 327.445 257.974 329.23C257.781 330.127 257.557 330.819 257.325 331.274C257.209 331.503 257.103 331.647 257.018 331.728C256.968 331.775 256.938 331.79 256.926 331.794C256.914 331.79 256.884 331.775 256.834 331.728C256.749 331.647 256.644 331.503 256.527 331.274C256.295 330.819 256.072 330.127 255.878 329.23C255.493 327.445 255.25 324.956 255.25 322.189C255.25 319.422 255.493 316.933 255.878 315.148C256.072 314.252 256.295 313.56 256.527 313.104C256.644 312.875 256.749 312.731 256.834 312.651C256.884 312.603 256.914 312.589 256.926 312.584C256.938 312.589 256.968 312.603 257.018 312.651C257.103 312.731 257.209 312.875 257.325 313.104C257.557 313.56 257.781 314.252 257.974 315.148C258.359 316.933 258.603 319.422 258.603 322.189ZM256.92 331.795C256.92 331.795 256.921 331.795 256.923 331.795L256.92 331.795ZM256.93 331.795C256.931 331.795 256.932 331.795 256.932 331.795L256.93 331.795ZM256.932 312.583C256.932 312.583 256.931 312.583 256.93 312.583L256.932 312.583ZM256.923 312.583C256.921 312.583 256.92 312.583 256.92 312.583L256.923 312.583Z" fill="black" stroke="black"/>
<path opacity="0.5" d="M269.002 322.189C269.002 324.955 268.76 327.445 268.375 329.23C268.182 330.126 267.959 330.818 267.727 331.274C267.61 331.502 267.504 331.646 267.419 331.727C267.368 331.776 267.337 331.79 267.325 331.794C267.314 331.79 267.283 331.776 267.231 331.727C267.146 331.646 267.04 331.502 266.924 331.274C266.692 330.818 266.468 330.126 266.275 329.23C265.891 327.445 265.649 324.955 265.649 322.189C265.649 319.423 265.891 316.933 266.275 315.149C266.468 314.252 266.692 313.56 266.924 313.104C267.04 312.876 267.146 312.732 267.231 312.651C267.283 312.602 267.314 312.588 267.325 312.584C267.337 312.588 267.368 312.602 267.419 312.651C267.504 312.732 267.61 312.876 267.727 313.104C267.959 313.56 268.182 314.252 268.375 315.149C268.76 316.933 269.002 319.423 269.002 322.189ZM267.32 331.795C267.32 331.795 267.321 331.795 267.322 331.795L267.32 331.795ZM267.328 331.795C267.33 331.795 267.33 331.795 267.33 331.795L267.328 331.795ZM267.33 312.583C267.33 312.583 267.33 312.583 267.328 312.583L267.33 312.583ZM267.322 312.583C267.321 312.583 267.32 312.583 267.32 312.583L267.322 312.583Z" fill="black" stroke="black"/>
<path opacity="0.2" d="M283.201 347.918C283.214 347.916 283.227 347.914 283.24 347.912C284.756 347.697 286.729 347.356 288.838 346.883C293.026 345.942 297.85 344.455 300.639 342.329C301.188 341.911 301.61 341.651 301.912 341.508C301.909 341.512 301.907 341.516 301.905 341.52C301.711 341.832 301.375 342.243 300.887 342.713C298.933 344.588 294.741 347.198 288.506 347.957L288.506 347.957C286.326 348.223 284.532 348.119 283.201 347.918ZM302.085 341.124C302.085 341.124 302.085 341.125 302.084 341.128C302.084 341.125 302.085 341.124 302.085 341.124Z" fill="black" stroke="black"/>
<path d="M449.241 66.3917C448.368 55.2929 441.61 46.1132 429.182 45.8984L398.066 59.923C407.121 61.359 414.846 69.0088 416.351 78.0543C418.38 90.4415 424.842 104.117 436.209 109.432C446.514 105.902 469.865 95.1253 470.389 94.8837C465.606 91.958 450.638 84.2412 449.241 66.3783V66.3917ZM403.48 59.7217C403.48 59.7217 403.507 59.5741 403.453 59.5338C403.52 59.5472 403.588 59.5606 403.655 59.5741C403.601 59.6277 403.534 59.668 403.493 59.7083L403.48 59.7217ZM461.293 95.2461C456.16 97.5679 446.406 101.916 439.608 104.547C437.942 103.285 435.604 103.339 433.696 104.359C424.063 97.7423 420.516 85.5296 418.595 75.1554C417.453 68.9819 413.772 63.1708 408.303 60.6343C408.572 60.2183 408.653 59.668 408.518 59.1849C408.371 58.6749 407.981 58.2588 407.497 58.0575L427.288 49.012C428.806 49.267 430.781 49.0657 432.218 48.2605C441.046 49.9515 446.635 59.0238 446.877 65.2376C447.401 78.43 454.844 86.8179 460.849 91.2065C460.325 92.4278 460.54 94.0517 461.279 95.2193L461.293 95.2461Z" fill="#407BFF"/>
<path d="M403.48 59.7212C403.48 59.7212 403.507 59.574 403.453 59.5338C403.52 59.5472 403.587 59.5606 403.654 59.574C403.601 59.6275 403.534 59.6677 403.493 59.7078L403.48 59.7212Z" fill="#407BFF"/>
<path d="M461.293 95.2327C456.16 97.5545 446.406 101.903 439.608 104.533C437.942 103.272 435.604 103.325 433.696 104.345C424.063 97.7289 420.516 85.5162 418.595 75.142C417.453 68.9685 413.772 63.1574 408.303 60.6209C408.572 60.2049 408.653 59.6546 408.518 59.1715C408.371 58.6615 407.981 58.2454 407.497 58.0441L427.288 48.9986C428.806 49.2536 430.781 49.0523 432.218 48.2471C441.046 49.9381 446.635 59.0104 446.877 65.2242C447.4 78.4167 454.844 86.8045 460.849 91.1931C460.325 92.4144 460.54 94.0383 461.279 95.2059L461.293 95.2327Z" fill="#407BFF"/>
<g opacity="0.3">
<path d="M461.293 95.2327C456.16 97.5545 446.406 101.903 439.608 104.533C437.942 103.272 435.604 103.325 433.696 104.345C424.063 97.7289 420.516 85.5162 418.595 75.142C417.453 68.9685 413.772 63.1574 408.303 60.6209C408.572 60.2049 408.653 59.6546 408.518 59.1715C408.371 58.6615 407.981 58.2454 407.497 58.0441L427.288 48.9986C428.806 49.2536 430.781 49.0523 432.218 48.2471C441.046 49.9381 446.635 59.0104 446.877 65.2242C447.4 78.4167 454.844 86.8045 460.849 91.1931C460.325 92.4144 460.54 94.0383 461.279 95.2059L461.293 95.2327Z" fill="white"/>
</g>
<path opacity="0.4" d="M436.021 73.3035C435.792 73.384 435.645 73.5316 435.564 73.7464C435.483 73.9611 435.456 74.2564 435.47 74.6187C436.115 74.404 436.76 74.1893 437.405 73.9611C437.19 73.6524 436.975 73.4377 436.733 73.3303C436.491 73.223 436.263 73.223 436.021 73.2901V73.3035Z" fill="white"/>
<path opacity="0.4" d="M433.643 76.7526C433.011 76.9673 432.393 77.1686 431.762 77.3833C431.95 77.6786 432.165 77.8799 432.393 77.9873C432.621 78.0946 432.85 78.108 433.065 78.0275C433.293 77.947 433.441 77.7994 433.522 77.5846C433.602 77.3699 433.643 77.0881 433.629 76.7391L433.643 76.7526Z" fill="white"/>
<path opacity="0.4" d="M444.687 72.1358C442.671 66.5528 436.115 63.6943 430.485 65.5866C424.923 67.4654 422.397 73.3974 424.412 78.9804C426.428 84.5633 432.984 87.4219 438.614 85.5296C444.176 83.6507 446.702 77.7188 444.687 72.1358ZM431.842 79.9869C431.103 79.6245 430.485 78.9669 429.975 77.9872C429.464 78.1617 428.954 78.3362 428.456 78.4972C428.282 78.0409 428.121 77.598 427.946 77.1417C428.443 76.9807 428.927 76.8062 429.424 76.6452C429.209 75.9607 429.088 75.2897 429.061 74.6186C429.034 73.9476 429.088 73.384 429.236 72.9142C429.881 72.9679 430.539 73.035 431.184 73.0887C431.063 73.5182 430.996 73.9879 430.996 74.4979C430.996 75.0213 431.063 75.5178 431.197 76.0278C431.95 75.7728 432.716 75.5178 433.468 75.2628C433.387 74.5784 433.347 73.9745 433.374 73.4645C433.401 72.9545 433.535 72.4982 433.79 72.0821C434.046 71.6661 434.476 71.344 435.08 71.1427C435.833 70.8877 436.585 70.9414 437.337 71.3038C438.09 71.6661 438.708 72.3371 439.218 73.3303C439.715 73.1558 440.226 72.9947 440.723 72.8203C440.898 73.2766 441.059 73.7195 441.234 74.1758C440.737 74.3368 440.239 74.5113 439.756 74.6723C440.078 75.8131 440.145 76.8196 439.971 77.692C439.326 77.6517 438.681 77.6249 438.036 77.5846C438.17 76.7794 438.143 76.0144 437.969 75.2897C437.203 75.5447 436.424 75.8131 435.658 76.0681C435.752 76.7525 435.779 77.3296 435.765 77.8396C435.739 78.3362 435.618 78.7925 435.362 79.2219C435.107 79.638 434.691 79.9466 434.086 80.148C433.347 80.4029 432.595 80.3493 431.869 79.9869H431.842Z" fill="white"/>
<path d="M387.452 47.4282C387.331 47.4148 387.196 47.3746 387.062 47.3343C384.55 46.5022 380.72 42.57 377.469 37.242C374.218 31.8871 372.485 26.6934 372.914 24.0629C372.995 23.5261 373.17 23.1235 373.425 22.8282C373.438 22.8014 373.452 22.788 373.465 22.7745C373.559 22.6672 373.653 22.5732 373.774 22.5061C373.909 22.4256 374.043 22.3719 374.177 22.3317C374.554 22.2377 374.997 22.278 375.494 22.439C375.964 22.5732 376.488 22.8416 377.026 23.1906C377.388 23.4187 377.765 23.7006 378.141 24.0092C378.356 24.1837 378.584 24.3716 378.799 24.5863C380.815 26.3981 383.085 29.203 385.141 32.5716C387.183 35.9268 388.621 39.2014 389.306 41.8453C389.386 42.1405 389.44 42.4358 389.507 42.7176C389.628 43.2544 389.695 43.7376 389.736 44.1939C389.789 44.8381 389.776 45.4017 389.682 45.8714C389.588 46.4083 389.386 46.8243 389.091 47.0793C389.024 47.1598 388.943 47.2269 388.849 47.2806C388.768 47.3343 388.674 47.3745 388.58 47.4014C388.258 47.5222 387.882 47.5222 387.452 47.4282Z" fill="#407BFF"/>
<path d="M387.452 47.4283L387.237 47.0928L380.196 35.5242C380.008 35.2155 379.834 34.9203 379.659 34.625L373.076 23.8214C373.129 23.4188 373.25 23.0967 373.412 22.8283C373.465 22.7209 373.546 22.627 373.627 22.533L374.339 22.1036L376.488 20.8018L377.469 22.3988L377.644 22.6806L378.316 23.7946L378.799 24.5998L389.306 41.8453L389.682 42.4761L390.421 43.6974L390.596 43.9792L391.576 45.5762L389.091 47.0928L388.58 47.4149C388.258 47.5357 387.882 47.5357 387.452 47.4417V47.4283Z" fill="#407BFF"/>
<path d="M376.515 20.8018C374.392 22.0901 376.045 28.6797 380.21 35.5242C384.375 42.3687 389.467 46.8646 391.59 45.5762C393.713 44.2879 392.06 37.6983 387.895 30.8538C383.73 24.0093 378.638 19.5 376.515 20.7883V20.8018Z" fill="#407BFF"/>
<path opacity="0.4" d="M376.515 20.8018C374.392 22.0901 376.045 28.6797 380.21 35.5242C384.375 42.3687 389.467 46.8646 391.59 45.5762C393.713 44.2879 392.06 37.6983 387.895 30.8538C383.73 24.0093 378.638 19.5 376.515 20.7883V20.8018Z" fill="white"/>
<path d="M377.617 22.2915C377.496 22.372 377.375 22.5062 377.321 22.6404C379.081 22.6404 382.79 26.5593 386.081 31.9678C389.386 37.4031 391.146 42.4761 390.327 44.0329C390.475 44.0329 390.649 44.0061 390.77 43.9256C392.208 43.0532 390.461 37.4971 386.82 31.5115C383.193 25.5527 379.054 21.4192 377.617 22.2915Z" fill="#407BFF"/>
<path opacity="0.4" d="M377.617 22.2915C377.496 22.372 377.375 22.5062 377.321 22.6404C379.081 22.6404 382.79 26.5593 386.081 31.9678C389.386 37.4031 391.146 42.4761 390.327 44.0329C390.475 44.0329 390.649 44.0061 390.77 43.9256C392.208 43.0532 390.461 37.4971 386.82 31.5115C383.193 25.5527 379.054 21.4192 377.617 22.2915Z" fill="#407BFF"/>
<path opacity="0.4" d="M377.321 22.627C376.515 24.1972 378.275 29.2836 381.567 34.6921C384.872 40.1275 388.567 44.0329 390.327 44.0194C391.146 42.4626 389.386 37.3896 386.081 31.9543C382.79 26.5458 379.081 22.627 377.321 22.627Z" fill="#407BFF"/>
<path d="M250.571 17.1782C256.751 19.3389 258.592 28.116 253.729 36.4637C248.878 44.8113 240.293 47.6162 235.335 43.3753C231.049 39.7115 230.996 31.9275 234.704 25.5393C238.412 19.1511 245.237 15.3128 250.571 17.1782Z" fill="#407BFF"/>
<path d="M248.368 16.4132C254.185 18.4532 255.798 26.8813 251.095 34.9605C246.406 43.0398 238.237 45.8581 233.562 41.8722C229.504 38.4096 229.531 30.8807 233.145 24.6535C236.76 18.4263 243.316 14.6551 248.354 16.4132H248.368Z" fill="#407BFF"/>
<path opacity="0.4" d="M248.368 16.4132C254.185 18.4532 255.798 26.8813 251.095 34.9605C246.406 43.0398 238.237 45.8581 233.562 41.8722C229.504 38.4096 229.531 30.8807 233.145 24.6535C236.76 18.4263 243.316 14.6551 248.354 16.4132H248.368Z" fill="white"/>
<path d="M246.339 19.5268C246.594 19.6207 246.836 19.7549 247.051 19.8623C247.051 19.8891 247.091 19.8757 247.105 19.8891C250.611 22.023 251.229 27.8207 248.086 33.2158C244.928 38.6377 239.568 40.9998 235.953 39.0538C235.94 39.0538 235.927 39.0001 235.9 39.0135C235.685 38.8793 235.456 38.7317 235.241 38.5706C232.071 36.1147 231.99 30.3975 234.785 25.5929C237.566 20.8151 242.591 18.0371 246.312 19.5268H246.339Z" fill="#407BFF"/>
<path opacity="0.3" d="M247.051 19.8624C247.051 19.8624 247.091 19.8758 247.105 19.8892C250.611 22.0231 251.23 27.8208 248.086 33.2159C244.928 38.6378 239.568 40.9999 235.953 39.0539C235.94 39.0539 235.927 39.0002 235.9 39.0136C233.266 36.2087 233.333 30.827 235.98 26.2774C238.614 21.7413 243.262 19.0034 247.038 19.8624H247.051Z" fill="white"/>
<path d="M485.853 136.837C488.782 142.795 485.248 150.512 477.966 154.082C470.684 157.652 462.408 155.733 459.479 149.774C456.55 143.829 460.084 136.098 467.366 132.529C474.648 128.959 482.924 130.878 485.853 136.837Z" fill="#407BFF"/>
<path d="M484.684 134.461C487.613 140.406 484.079 148.137 476.797 151.707C469.515 155.276 461.239 153.357 458.31 147.399C455.381 141.453 458.915 133.723 466.197 130.153C473.479 126.583 481.755 128.502 484.684 134.461Z" fill="#407BFF"/>
<path opacity="0.4" d="M484.684 134.461C487.613 140.406 484.079 148.137 476.797 151.707C469.515 155.276 461.239 153.357 458.31 147.399C455.381 141.453 458.915 133.723 466.197 130.153C473.479 126.583 481.755 128.502 484.684 134.461Z" fill="white"/>
<path d="M481.285 135.897C481.419 136.179 481.54 136.474 481.648 136.743C481.648 136.769 481.674 136.783 481.674 136.81C483.099 141.144 480.438 146.325 475.373 148.821C470.281 151.317 464.544 150.257 461.978 146.472C461.978 146.446 461.978 146.419 461.951 146.405C461.803 146.15 461.642 145.882 461.494 145.6C459.304 141.144 461.951 135.347 467.419 132.663C472.861 129.992 479.081 131.441 481.271 135.897H481.285Z" fill="#407BFF"/>
<path opacity="0.3" d="M481.661 136.743C481.661 136.743 481.688 136.783 481.688 136.81C483.112 141.145 480.452 146.325 475.387 148.821C470.295 151.317 464.558 150.257 461.992 146.473C461.992 146.446 461.992 146.419 461.965 146.405C460.541 142.084 463.201 136.89 468.293 134.381C473.358 131.898 479.108 132.971 481.661 136.743Z" fill="white"/>
<path d="M356.322 6.92482C347.36 11.5952 337.028 16.9903 328.067 21.6607C318.165 14.9906 309.848 14.1451 299.866 20.681C297.662 22.117 293.686 24.1166 289.897 25.7271C287.237 26.8813 284.684 27.8342 282.91 28.3039C278.356 29.4849 273.183 27.7805 270.241 24.1301C283.098 17.7284 288.822 12.7762 301.666 6.38799C303.735 9.75657 307.645 9.78341 311.729 8.58898C317.413 6.9114 323.432 2.84494 325.232 2.12023C335.443 -1.94622 347.817 -0.0404922 356.322 6.92482Z" fill="#407BFF"/>
<path opacity="0.3" d="M350.8 6.48187C342.282 -0.483438 330.284 1.98596 324.601 4.2272C321.497 5.44848 305.885 15.4603 301.169 8.50839C288.311 14.8966 287.277 17.6613 274.433 24.0629C276.488 25.7942 282.306 29.619 295.311 20.5199C305.092 13.6753 317.789 12.3198 327.691 18.9899C336.652 14.3195 341.852 11.1523 350.813 6.48187H350.8Z" fill="white"/>
<path d="M276.421 22.3721C275.427 22.976 274.553 23.6336 273.559 24.2375C274.661 24.8146 275.763 25.3783 276.864 25.9554C277.711 24.8683 277.415 23.3384 276.421 22.3855V22.3721Z" fill="#407BFF"/>
<path d="M303.48 9.609C302.096 10.2129 300.376 9.91767 299.275 8.88429C299.906 8.26694 300.632 7.73011 301.492 7.51538C302.11 8.18641 302.701 9.13928 303.48 9.609Z" fill="#407BFF"/>
<path d="M331.6 17.9296C329.706 16.9633 327.261 17.1781 325.568 18.453C326.387 18.9362 327.153 19.3925 327.973 19.8756C328.94 18.8959 330.284 18.292 331.614 17.9296H331.6Z" fill="#407BFF"/>
<path d="M353.393 6.53554C351.861 6.8979 350.276 7.62261 349.093 8.656C348.677 8.07891 348.516 7.30052 348.677 6.60264C348.838 5.90477 349.322 5.28742 349.967 4.9519C351.149 5.44847 352.358 5.78398 353.393 6.52212V6.53554Z" fill="#407BFF"/>
<path opacity="0.1" d="M311.729 8.58892C310.238 10.7899 295.62 21.5667 289.897 25.7271C287.237 26.8812 284.684 27.8341 282.91 28.3038C278.356 29.4848 273.183 27.7804 270.241 24.13C283.098 17.7284 288.822 12.7762 301.666 6.38794C303.735 9.75652 307.645 9.78336 311.729 8.58892Z" fill="black"/>
<path opacity="0.4" d="M302.459 15.4603C302.755 16.2387 307.833 15.0711 313.798 12.8432C319.777 10.6154 324.372 8.17286 324.09 7.39446C323.794 6.61606 318.716 7.78366 312.75 10.0115C306.772 12.2393 302.177 14.6819 302.459 15.4603Z" fill="white"/>
<path d="M427.704 257.555C414.551 227.493 451.713 203.953 438.56 173.891C454.091 175.904 469.623 177.917 485.141 179.917C498.294 209.979 461.132 233.519 474.285 263.581C458.753 261.568 443.222 259.555 427.704 257.555Z" fill="#407BFF"/>
<path opacity="0.3" d="M433.549 254.495C444.189 255.877 454.83 257.246 465.471 258.629C464.84 256.548 466.183 255.099 468.158 255.354C463.94 231.412 487.962 211.133 483.743 187.191C481.768 186.936 479.914 185.07 479.283 182.99C468.642 181.608 458.001 180.239 447.36 178.856C447.992 180.937 446.648 182.386 444.673 182.131C448.892 206.073 424.869 226.352 429.088 250.294C431.063 250.549 432.917 252.415 433.549 254.495Z" fill="white"/>
<path opacity="0.4" d="M459.963 217.132C459.667 217.092 459.385 217.172 459.103 217.36C458.821 217.548 458.525 217.843 458.216 218.219C459.049 218.327 459.869 218.434 460.702 218.541C460.782 218.098 460.755 217.763 460.621 217.535C460.487 217.307 460.258 217.172 459.963 217.132Z" fill="white"/>
<path opacity="0.4" d="M454.441 219.508C453.635 219.4 452.828 219.293 452.022 219.199C451.942 219.615 451.955 219.937 452.076 220.165C452.197 220.393 452.399 220.528 452.694 220.568C452.99 220.608 453.272 220.527 453.554 220.353C453.836 220.165 454.132 219.897 454.441 219.521V219.508Z" fill="white"/>
<path opacity="0.4" d="M469.488 220.42C472.686 213.509 468.924 207.08 461.655 206.141C454.481 205.215 446.554 210.127 443.356 217.038C440.172 223.95 443.921 230.378 451.189 231.318C458.364 232.244 466.304 227.332 469.488 220.42ZM449.698 221.964C449.308 221.199 449.322 220.179 449.725 218.89C449.067 218.81 448.422 218.716 447.763 218.635C448.019 218.072 448.26 217.508 448.516 216.958C449.147 217.038 449.792 217.119 450.423 217.199C450.84 216.381 451.351 215.602 451.942 214.891C452.533 214.166 453.111 213.602 453.688 213.2C454.266 213.602 454.844 214.005 455.421 214.408C454.911 214.797 454.414 215.253 453.944 215.803C453.473 216.34 453.07 216.917 452.734 217.521C453.715 217.642 454.682 217.776 455.663 217.897C456.214 217.132 456.738 216.488 457.222 215.964C457.719 215.441 458.27 215.038 458.901 214.73C459.533 214.421 460.245 214.314 461.024 214.421C461.991 214.542 462.677 214.998 463.08 215.763C463.483 216.528 463.469 217.562 463.039 218.863C463.684 218.944 464.343 219.038 464.987 219.118C464.732 219.682 464.49 220.246 464.235 220.796C463.604 220.715 462.959 220.635 462.327 220.554C461.588 221.923 460.728 223.01 459.748 223.829C459.157 223.453 458.552 223.077 457.961 222.715C458.834 221.937 459.519 221.118 460.016 220.259C459.022 220.125 458.028 220.004 457.034 219.87C456.496 220.635 455.986 221.266 455.502 221.776C455.018 222.286 454.468 222.702 453.836 223.01C453.205 223.319 452.493 223.426 451.727 223.319C450.773 223.198 450.088 222.755 449.711 221.99L449.698 221.964Z" fill="white"/>
<path d="M455.126 262.279C447.186 258.776 443.585 249.503 447.091 241.571C450.598 233.64 459.882 230.043 467.822 233.546C475.763 237.048 479.363 246.322 475.857 254.254C472.35 262.185 463.066 265.782 455.126 262.279Z" fill="#407BFF"/>
<path d="M454.36 263.997C446.42 260.494 442.819 251.221 446.326 243.289C449.832 235.357 459.116 231.761 467.057 235.263C474.997 238.766 478.598 248.04 475.091 255.971C471.584 263.903 462.3 267.5 454.36 263.997Z" fill="#407BFF"/>
<path opacity="0.4" d="M454.36 263.997C446.42 260.494 442.819 251.221 446.326 243.289C449.832 235.357 459.116 231.761 467.057 235.263C474.997 238.766 478.598 248.04 475.091 255.971C471.584 263.903 462.3 267.5 454.36 263.997Z" fill="white"/>
<path d="M471.477 254.388C471.302 254.791 471.101 255.18 470.872 255.556C467.903 260.669 461.508 262.843 455.959 260.387C450.021 257.77 447.32 250.831 449.953 244.886C450.343 244.014 450.827 243.195 451.391 242.47C454.602 238.27 460.406 236.659 465.471 238.887C471.41 241.504 474.11 248.443 471.477 254.388Z" fill="#407BFF"/>
<path opacity="0.3" d="M471.477 254.388C471.302 254.791 471.101 255.18 470.872 255.556C467.634 259.702 461.884 261.3 456.846 259.072C450.894 256.455 448.207 249.516 450.827 243.571C451.001 243.195 451.176 242.819 451.391 242.47C454.602 238.27 460.406 236.659 465.471 238.887C471.41 241.504 474.11 248.443 471.477 254.388Z" fill="white"/>
<g opacity="0.4">
<path d="M456.335 253.341C453.769 252.71 452.896 250.375 453.957 247.315L452.009 246.403L452.802 244.618L454.75 245.53C455.677 243.88 456.913 242.511 458.055 241.786L459.922 243.571C458.754 244.336 457.746 245.41 457.061 246.617L460.043 248.027C461.32 246.497 462.838 244.846 465.176 245.423C467.742 246.054 468.615 248.429 467.5 251.529L469.448 252.442L468.655 254.227L466.694 253.301C465.995 254.536 465.095 255.609 464.141 256.321L462.233 254.643C463.133 254.012 463.872 253.167 464.41 252.227L461.293 250.764C460.043 252.281 458.565 253.878 456.349 253.328L456.335 253.341ZM462.569 249.208L465.122 250.415C465.364 249.342 465.014 248.631 464.289 248.429C463.684 248.282 463.147 248.644 462.569 249.221V249.208ZM457.114 250.322C457.679 250.456 458.203 250.134 458.727 249.57L456.295 248.429C456.08 249.449 456.375 250.134 457.101 250.308L457.114 250.322Z" fill="white"/>
</g>
<path d="M184.308 78.2152C180.29 71.4512 182.534 62.7144 189.306 58.715C196.077 54.7023 204.823 56.9435 208.827 63.7075C212.844 70.4715 210.601 79.2083 203.829 83.2077C197.058 87.2205 188.311 84.9792 184.308 78.2152Z" fill="#407BFF"/>
<path d="M182.83 79.0741C178.812 72.3101 181.056 63.5733 187.828 59.5739C194.599 55.5612 203.346 57.8024 207.349 64.5664C211.367 71.3304 209.123 80.0672 202.351 84.0666C195.58 88.0794 186.833 85.8381 182.83 79.0741Z" fill="#407BFF"/>
<path opacity="0.4" d="M182.83 79.0741C178.812 72.3101 181.056 63.5733 187.828 59.5739C194.599 55.5612 203.346 57.8024 207.349 64.5664C211.367 71.3304 209.123 80.0672 202.351 84.0666C195.58 88.0794 186.833 85.8381 182.83 79.0741Z" fill="white"/>
<path d="M200.524 80.9932C200.188 81.1946 199.825 81.3824 199.463 81.5301C194.572 83.7445 188.714 81.973 185.92 77.2489C182.924 72.1893 184.59 65.6535 189.668 62.6607C190.421 62.2178 191.2 61.8688 192.006 61.6407C196.588 60.2315 201.72 62.097 204.286 66.405C207.282 71.4646 205.616 78.0004 200.538 80.9932H200.524Z" fill="#407BFF"/>
<path opacity="0.3" d="M200.524 80.9932C200.188 81.1946 199.825 81.3824 199.463 81.5301C194.881 82.8856 189.803 81.0335 187.263 76.7389C184.254 71.6793 185.933 65.1435 190.998 62.1373C191.321 61.9494 191.657 61.7615 191.993 61.6273C196.574 60.2181 201.706 62.0836 204.273 66.3916C207.269 71.4512 205.603 77.987 200.524 80.9798V80.9932Z" fill="white"/>
<g opacity="0.4">
<path d="M189.91 72.2565C188.352 70.4447 188.943 68.2571 191.334 66.5661L190.38 64.8617L191.912 63.9625L192.866 65.6669C194.424 64.9288 196.05 64.5799 197.273 64.647L197.703 66.9419C196.44 66.8882 195.123 67.1566 193.994 67.68L195.459 70.2971C197.206 69.8408 199.194 69.4247 200.605 71.0755C202.163 72.8872 201.545 75.1016 199.1 76.8061L200.054 78.5105L198.522 79.4097L197.555 77.6918C196.386 78.2421 195.163 78.5508 194.075 78.5776L193.551 76.3363C194.545 76.3363 195.54 76.1082 196.426 75.7056L194.895 72.9812C193.175 73.4375 191.24 73.8401 189.897 72.2699L189.91 72.2565ZM196.682 72.4846L197.931 74.7124C198.67 74.0414 198.791 73.3301 198.361 72.8067C197.998 72.3773 197.407 72.3638 196.682 72.4846ZM192.073 70.4313C192.409 70.8339 192.973 70.8607 193.659 70.7265L192.463 68.6061C191.764 69.2503 191.616 69.9079 192.073 70.4179V70.4313Z" fill="white"/>
</g>
<path d="M171.329 160.551C193.282 137.467 174.432 114.33 196.399 91.2467C183.81 91.2198 171.221 91.2064 158.619 91.1796C136.665 114.263 155.515 137.4 133.548 160.484C146.137 160.511 158.726 160.524 171.329 160.551Z" fill="#407BFF"/>
<path opacity="0.3" d="M168.104 157.437L142.214 157.397C143.518 155.773 143.074 154.444 141.489 154.444C154.226 135.401 144.055 116.303 156.792 97.2591C158.391 97.2591 160.54 95.9438 161.857 94.3065C170.482 94.3199 179.121 94.3334 187.747 94.3468C186.444 95.9707 186.887 97.2993 188.473 97.2993C175.736 116.343 185.906 135.441 173.17 154.485C171.571 154.485 169.421 155.8 168.104 157.437Z" fill="white"/>
<path opacity="0.4" d="M162.932 124.181C163.174 124.181 163.362 124.275 163.496 124.463C163.63 124.651 163.738 124.919 163.818 125.255C163.147 125.255 162.475 125.255 161.803 125.255C161.911 124.892 162.072 124.61 162.26 124.449C162.461 124.275 162.676 124.194 162.918 124.194L162.932 124.181Z" fill="white"/>
<path opacity="0.4" d="M166.17 126.718C166.828 126.718 167.473 126.718 168.131 126.718C168.037 127.066 167.889 127.321 167.715 127.496C167.527 127.67 167.325 127.751 167.083 127.751C166.841 127.751 166.653 127.657 166.519 127.482C166.385 127.308 166.264 127.04 166.17 126.704V126.718Z" fill="white"/>
<path opacity="0.4" d="M163.939 136.689C169.824 136.689 175.239 131.871 175.574 125.885C175.897 119.913 171.839 115.068 166.022 115.055C160.137 115.055 154.723 119.873 154.387 125.859C154.051 131.831 158.122 136.676 163.939 136.689ZM166.734 130.099C166.116 130.099 165.619 129.938 165.256 129.616C164.893 129.294 164.638 128.905 164.477 128.435C164.316 127.966 164.181 127.388 164.074 126.717C163.268 126.717 162.461 126.717 161.655 126.717C161.682 127.469 161.884 128.207 162.233 128.932C161.628 129.173 161.037 129.415 160.433 129.657C160.016 128.878 159.788 127.898 159.774 126.717C159.264 126.717 158.74 126.717 158.229 126.717C158.256 126.234 158.296 125.751 158.323 125.268C158.847 125.268 159.371 125.268 159.895 125.268C160.097 124.168 160.5 123.322 161.105 122.745C161.709 122.154 162.408 121.873 163.2 121.873C163.832 121.873 164.329 122.034 164.692 122.356C165.055 122.678 165.31 123.067 165.471 123.55C165.632 124.02 165.78 124.61 165.888 125.295C166.68 125.295 167.473 125.295 168.266 125.295C168.266 124.771 168.172 124.261 168.024 123.778C167.876 123.282 167.688 122.852 167.446 122.49C168.051 122.222 168.642 121.967 169.246 121.698C169.515 122.101 169.73 122.611 169.891 123.268C170.053 123.913 170.133 124.597 170.12 125.308C170.63 125.308 171.154 125.308 171.665 125.308C171.638 125.791 171.598 126.275 171.571 126.758C171.047 126.758 170.509 126.758 169.985 126.758C169.784 127.845 169.381 128.69 168.776 129.267C168.185 129.844 167.486 130.14 166.707 130.14L166.734 130.099Z" fill="white"/>
</g>
<defs>
<clipPath id="clip0_65_1885">
<rect width="521" height="412" fill="white"/>
</clipPath>
</defs>
</svg>
