<svg width="626" height="447" viewBox="0 0 626 447" fill="none" xmlns="http://www.w3.org/2000/svg">
<g clip-path="url(#clip0_27_302)">
<path d="M49.1692 365.861C48.5935 366.417 48.059 366.89 47.5758 367.292C47.0926 367.693 46.63 368.063 46.188 368.393C45.7357 368.732 45.2628 369.051 44.7488 369.35C44.2348 369.658 43.6797 369.967 43.0732 370.307C42.2405 370.729 41.3358 371.171 40.349 371.614C39.3621 372.066 38.6014 372.55 38.0462 373.075C37.5631 373.538 37.3266 373.949 37.3369 374.31C37.3369 374.67 37.45 375.092 37.6659 375.565L36.9463 376.254L27.0261 365.882L27.5607 365.378C30.4082 367.333 32.9474 368.578 35.1473 369.113C37.3575 369.648 39.2901 369.761 40.9658 369.453C42.6414 369.144 44.0909 368.568 45.3245 367.724C46.5581 366.88 47.6169 366.036 48.5216 365.172L33.5231 349.489L29.9456 351.352C26.5738 353.101 23.5823 353.935 20.9712 353.852C18.3601 353.76 16.0059 352.628 13.9191 350.436C12.5313 348.985 11.5033 347.4 10.8351 345.672C10.1669 343.943 9.86879 342.183 9.96131 340.413C10.0436 338.633 10.4959 336.863 11.308 335.104C12.1201 333.344 13.292 331.718 14.834 330.247L14.9779 330.113L12.1612 327.17L12.8397 326.521L15.6564 329.465C16.6844 328.61 17.6199 327.952 18.4629 327.52C19.3058 327.077 20.0871 326.738 20.7964 326.48C21.5057 326.233 22.1534 325.997 22.7188 325.791C23.2945 325.585 23.7879 325.276 24.1991 324.875C24.6206 324.474 24.8467 324.144 24.8776 323.897C24.9187 323.65 24.8467 323.177 24.672 322.477L25.3505 321.829L33.6567 330.514L33.081 331.07C31.8474 330.164 30.5213 329.392 29.1232 328.765C27.7251 328.137 26.2962 327.746 24.857 327.581C23.4178 327.427 21.9581 327.53 20.5086 327.911C19.0488 328.291 17.6507 329.032 16.3041 330.133L29.3597 343.789L34.4688 341.113C35.0445 340.815 35.9491 340.393 37.1827 339.847C38.4266 339.312 39.8247 338.932 41.3872 338.736C42.9498 338.53 44.5946 338.643 46.3114 339.055C48.0281 339.467 49.6832 340.496 51.2458 342.142C52.6644 343.624 53.7438 345.312 54.484 347.226C55.2344 349.129 55.5839 351.105 55.5325 353.153C55.4914 355.201 55.0082 357.259 54.1036 359.337C53.1887 361.416 51.77 363.371 49.8477 365.223L53.0756 368.598L52.3971 369.247L49.1692 365.872V365.861ZM15.6256 330.771L15.4817 330.905C14.7107 331.646 13.9602 332.562 13.2303 333.663C12.5005 334.764 11.9659 335.947 11.637 337.223C11.308 338.489 11.2874 339.806 11.5753 341.165C11.8631 342.523 12.6033 343.83 13.806 345.085C14.7929 346.114 15.8312 346.804 16.9209 347.143C18.0105 347.483 19.1413 347.596 20.2927 347.473C21.4441 347.359 22.5954 347.061 23.7365 346.577C24.8776 346.104 25.9775 345.569 27.0261 344.993L28.5064 344.221L15.6359 330.761L15.6256 330.771ZM49.2 364.534C50.9065 362.898 52.0579 361.303 52.6541 359.739C53.2504 358.174 53.5074 356.703 53.4148 355.314C53.3223 353.925 52.9625 352.649 52.3457 351.486C51.7289 350.323 51.0504 349.356 50.3103 348.584C49.2 347.421 48.0692 346.629 46.9179 346.197C45.7665 345.764 44.6357 345.569 43.5358 345.6C42.4358 345.641 41.377 345.836 40.3592 346.197C39.3415 346.557 38.4266 346.937 37.5939 347.359L34.3968 349.037L49.2103 364.524L49.2 364.534Z" fill="#263238"/>
<path d="M66.5436 349.854C66.741 331.601 52.1185 316.644 33.8835 316.446C15.6485 316.249 0.70615 330.886 0.50882 349.139C0.311491 367.392 14.9339 382.35 33.1689 382.547C51.4039 382.745 66.3463 368.108 66.5436 349.854Z" stroke="#263238" stroke-miterlimit="10"/>
<path d="M612.204 217.486C611.865 217.723 611.557 217.918 611.279 218.083C611.002 218.247 610.734 218.402 610.477 218.535C610.22 218.669 609.953 218.793 609.665 218.906C609.377 219.019 609.069 219.132 608.73 219.256C608.277 219.41 607.774 219.554 607.239 219.709C606.694 219.863 606.273 220.048 605.944 220.264C605.656 220.46 605.502 220.655 605.481 220.841C605.461 221.026 605.481 221.252 605.543 221.509L605.121 221.808L600.896 215.706L601.205 215.49C602.5 216.714 603.692 217.558 604.782 218.011C605.862 218.463 606.848 218.68 607.732 218.659C608.617 218.638 609.398 218.463 610.097 218.134C610.796 217.805 611.402 217.455 611.937 217.085L605.543 207.854L603.559 208.513C601.698 209.13 600.094 209.315 598.768 209.058C597.442 208.801 596.332 208.029 595.438 206.743C594.852 205.889 594.451 204.993 594.245 204.057C594.04 203.121 594.04 202.194 594.225 201.299C594.41 200.394 594.78 199.529 595.335 198.696C595.89 197.862 596.62 197.132 597.535 196.494L597.617 196.432L596.414 194.703L596.815 194.425L598.018 196.154C598.614 195.794 599.138 195.547 599.611 195.382C600.074 195.228 600.506 195.115 600.886 195.043C601.266 194.971 601.616 194.909 601.924 194.847C602.233 194.785 602.51 194.672 602.757 194.497C603.004 194.322 603.148 194.178 603.189 194.055C603.23 193.931 603.23 193.684 603.189 193.314L603.59 193.036L607.126 198.15L606.787 198.387C606.232 197.821 605.615 197.327 604.947 196.885C604.278 196.453 603.59 196.134 602.86 195.938C602.14 195.742 601.39 195.681 600.608 195.753C599.837 195.825 599.056 196.092 598.285 196.545L603.857 204.582L606.684 203.625C607.003 203.522 607.496 203.378 608.175 203.203C608.853 203.028 609.593 202.956 610.416 202.977C611.228 202.997 612.06 203.193 612.903 203.543C613.746 203.892 614.507 204.551 615.175 205.518C615.782 206.393 616.193 207.34 616.419 208.379C616.645 209.418 616.666 210.447 616.481 211.497C616.296 212.536 615.885 213.555 615.247 214.543C614.61 215.531 613.726 216.416 612.595 217.208L613.972 219.194L613.572 219.472L612.194 217.486H612.204ZM597.905 196.844L597.823 196.905C597.37 197.224 596.908 197.626 596.445 198.13C595.982 198.634 595.612 199.2 595.345 199.817C595.078 200.435 594.954 201.114 594.996 201.824C595.026 202.544 595.304 203.275 595.818 204.006C596.239 204.613 596.712 205.045 597.247 205.302C597.781 205.559 598.347 205.714 598.943 205.745C599.539 205.776 600.146 205.724 600.773 205.57C601.4 205.415 601.996 205.24 602.582 205.024L603.405 204.746L597.915 196.823L597.905 196.844ZM612.328 216.807C613.325 216.107 614.044 215.387 614.476 214.635C614.908 213.884 615.155 213.154 615.216 212.433C615.278 211.713 615.196 211.034 614.98 210.396C614.754 209.748 614.486 209.202 614.178 208.749C613.705 208.07 613.191 207.566 612.636 207.257C612.081 206.938 611.516 206.753 610.95 206.681C610.385 206.609 609.83 206.63 609.285 206.722C608.74 206.825 608.236 206.949 607.784 207.093L606.016 207.69L612.328 216.807Z" fill="#263238"/>
<path d="M615.424 221.8C623.112 216.333 624.917 205.663 619.455 197.968C613.994 190.272 603.334 188.465 595.647 193.932C587.959 199.399 586.154 210.07 591.615 217.765C597.077 225.461 607.736 227.267 615.424 221.8Z" stroke="#263238" stroke-miterlimit="10"/>
<path d="M20.8067 196.812C20.3955 196.812 20.0254 196.802 19.7067 196.781C19.3881 196.761 19.0797 196.73 18.7918 196.699C18.504 196.668 18.2059 196.617 17.9077 196.545C17.6096 196.473 17.2909 196.39 16.9414 196.298C16.4788 196.164 15.9854 195.999 15.4611 195.814C14.9368 195.629 14.4742 195.536 14.0836 195.536C13.7341 195.536 13.4976 195.608 13.3743 195.742C13.2509 195.876 13.1378 196.071 13.0453 196.329H12.5313V188.899H12.9117C13.2818 190.648 13.7752 192.017 14.4126 193.015C15.0499 194.003 15.7284 194.744 16.4685 195.228C17.2087 195.711 17.9489 196.02 18.7096 196.143C19.4703 196.267 20.1693 196.329 20.817 196.329V185.102L18.8124 184.515C16.9209 183.96 15.5125 183.198 14.5667 182.231C13.621 181.264 13.1481 179.998 13.1481 178.434C13.1481 177.395 13.3332 176.438 13.7032 175.553C14.0733 174.668 14.5873 173.906 15.2555 173.268C15.9237 172.63 16.7255 172.136 17.6507 171.766C18.5862 171.395 19.6039 171.21 20.7039 171.21H20.8067V169.101H21.2899V171.21C21.9786 171.262 22.5646 171.344 23.0375 171.488C23.5103 171.622 23.9215 171.776 24.2813 171.941C24.6411 172.105 24.9598 172.249 25.2477 172.373C25.5355 172.496 25.8336 172.558 26.1317 172.558C26.4299 172.558 26.6355 172.517 26.7383 172.435C26.8411 172.352 26.985 172.157 27.17 171.828H27.6532V178.043H27.242C27.1083 177.261 26.8822 176.499 26.5841 175.758C26.2859 175.018 25.8953 174.369 25.4121 173.793C24.929 173.217 24.343 172.743 23.6645 172.363C22.9861 171.982 22.1945 171.755 21.3001 171.694V181.47L24.1683 182.303C24.4869 182.396 24.9804 182.56 25.6383 182.807C26.2962 183.054 26.9541 183.414 27.6018 183.898C28.2597 184.382 28.8354 185.009 29.3288 185.781C29.8223 186.553 30.069 187.531 30.069 188.704C30.069 189.763 29.8634 190.782 29.4625 191.76C29.0615 192.737 28.4859 193.602 27.7354 194.353C26.985 195.104 26.0701 195.701 24.9907 196.154C23.9113 196.607 22.6777 196.823 21.3001 196.823V199.241H20.817V196.823L20.8067 196.812ZM20.8067 171.694H20.7039C20.1488 171.694 19.5423 171.766 18.8741 171.92C18.2059 172.074 17.5891 172.321 17.0134 172.682C16.4377 173.042 15.9648 173.525 15.5845 174.133C15.2041 174.74 15.0191 175.501 15.0191 176.396C15.0191 177.137 15.163 177.765 15.4508 178.28C15.7387 178.794 16.119 179.247 16.5919 179.607C17.0648 179.977 17.5993 180.276 18.1956 180.502C18.7918 180.729 19.3881 180.924 19.9946 181.089L20.8273 181.336V171.694H20.8067ZM21.2899 196.329C22.5132 196.329 23.5103 196.143 24.2916 195.773C25.0729 195.403 25.6897 194.94 26.1523 194.394C26.6149 193.838 26.9336 193.242 27.1186 192.583C27.3037 191.924 27.3962 191.317 27.3962 190.772C27.3962 189.938 27.2625 189.239 26.985 188.662C26.7074 188.086 26.3579 187.613 25.9364 187.232C25.5149 186.851 25.0421 186.543 24.5383 186.316C24.0346 186.09 23.5515 185.905 23.0889 185.761L21.2899 185.246V196.339V196.329Z" fill="#263238"/>
<path d="M32.8797 197.173C39.5479 190.498 39.5479 179.676 32.8797 173.001C26.2115 166.326 15.4001 166.326 8.73192 173.001C2.06369 179.676 2.06369 190.498 8.73192 197.173C15.4001 203.848 26.2115 203.848 32.8797 197.173Z" stroke="#263238" stroke-miterlimit="10"/>
<path d="M345.881 39.5045C345.367 39.206 344.925 38.9179 344.544 38.6607C344.164 38.3931 343.804 38.1461 343.475 37.8889C343.146 37.6419 342.817 37.3641 342.498 37.0554C342.18 36.757 341.84 36.4174 341.481 36.0572C341.008 35.553 340.514 34.9973 339.99 34.3799C339.466 33.7728 338.962 33.32 338.479 33.0422C338.047 32.7952 337.708 32.7026 337.451 32.7849C337.194 32.8672 336.916 33.0319 336.618 33.2788L335.981 32.9084L341.347 23.7192L341.82 23.997C341.008 26.4255 340.638 28.4836 340.71 30.1712C340.771 31.8588 341.09 33.2583 341.655 34.3902C342.221 35.5221 342.92 36.438 343.773 37.148C344.616 37.858 345.438 38.4446 346.24 38.9076L354.362 25.0157L352.306 22.8445C350.373 20.7967 349.17 18.8313 348.697 16.9481C348.224 15.065 348.564 13.1613 349.694 11.2267C350.445 9.94046 351.37 8.89085 352.46 8.05733C353.56 7.22382 354.742 6.65785 356.027 6.35943C357.312 6.06102 358.659 6.01985 360.077 6.23595C361.496 6.45205 362.894 6.96656 364.251 7.7692L364.374 7.84124L365.896 5.23779L366.492 5.58766L364.97 8.19111C365.793 8.74678 366.441 9.28188 366.924 9.79639C367.407 10.3109 367.808 10.7946 368.137 11.2473C368.455 11.7001 368.754 12.1117 369.021 12.4822C369.288 12.8423 369.607 13.1407 369.977 13.3568C370.347 13.5729 370.624 13.6655 370.81 13.645C370.995 13.6244 371.324 13.47 371.776 13.2128L372.372 13.5626L367.88 21.2598L367.366 20.9614C367.756 19.8912 368.044 18.7901 368.198 17.6685C368.363 16.5365 368.353 15.4458 368.168 14.3859C367.983 13.326 367.612 12.3072 367.047 11.3502C366.482 10.3932 365.67 9.53913 364.611 8.80852L357.548 20.8996L360.488 23.997C360.817 24.3469 361.301 24.9025 361.938 25.6743C362.575 26.4461 363.12 27.3722 363.583 28.4424C364.045 29.5126 364.302 30.7063 364.354 32.0234C364.405 33.3406 364.014 34.7195 363.161 36.1704C362.39 37.4773 361.414 38.5989 360.201 39.5148C358.998 40.4306 357.661 41.0892 356.191 41.4699C354.721 41.8506 353.159 41.933 351.504 41.7066C349.838 41.4802 348.152 40.8628 346.446 39.8646L344.698 42.8591L344.102 42.5092L345.85 39.5148L345.881 39.5045ZM364.035 8.42778L363.912 8.35575C363.233 7.95443 362.421 7.60456 361.486 7.30614C360.55 7.00772 359.604 6.87395 358.628 6.89453C357.661 6.91511 356.716 7.17237 355.811 7.65601C354.896 8.13966 354.125 8.93201 353.467 10.0434C352.933 10.9592 352.655 11.8339 352.645 12.688C352.624 13.5421 352.778 14.3653 353.097 15.1576C353.416 15.9603 353.858 16.7115 354.433 17.4318C355.009 18.1521 355.605 18.821 356.232 19.459L357.086 20.3542L364.056 8.42778H364.035ZM346.826 39.2575C348.337 40.1425 349.705 40.6364 350.938 40.7496C352.172 40.8628 353.272 40.7496 354.238 40.3894C355.204 40.0396 356.047 39.525 356.746 38.8459C357.446 38.1667 358.001 37.4876 358.402 36.7981C358.998 35.7691 359.337 34.8018 359.409 33.886C359.481 32.9701 359.399 32.1263 359.142 31.3546C358.895 30.5725 358.535 29.8625 358.073 29.2142C357.61 28.5659 357.147 27.9896 356.675 27.4751L354.824 25.5302L346.806 39.2472L346.826 39.2575Z" fill="#263238"/>
<path d="M374.158 39.3304C382.066 28.3628 379.594 13.0546 368.638 5.13869C357.681 -2.77725 342.388 -0.303359 334.48 10.6643C326.572 21.6319 329.044 36.9401 340 44.856C350.957 52.772 366.25 50.2981 374.158 39.3304Z" stroke="#263238" stroke-miterlimit="10"/>
<path d="M529.666 138.827V78.4639H346.23V138.827L349.386 143.612C351.411 146.616 354.567 148.88 358.299 150.105C363.727 151.885 369.638 150.506 374.336 147.347C377.82 144.991 381.953 143.612 386.322 143.612C399.121 143.612 409.411 155.127 409.411 169.481C409.411 183.836 399.121 195.269 386.322 195.269C381.943 195.269 377.81 193.89 374.336 191.534C369.555 188.292 363.644 186.913 358.217 188.776C354.485 189.99 351.329 192.182 349.386 195.187L346.23 199.972V261.209H407.406L412.186 258.05C415.188 256.105 417.368 252.936 418.591 249.211C420.452 243.777 419.074 237.861 415.836 233.076C413.482 229.587 412.104 225.45 412.104 221.077C412.104 208.266 423.608 197.965 437.866 197.965C452.124 197.965 463.71 208.266 463.71 221.077C463.71 225.461 462.332 229.597 459.978 233.076C456.822 237.778 455.445 243.705 457.223 249.139C458.436 252.874 460.708 256.033 463.71 258.06L468.49 261.219H529.666V199.982L529.779 199.807L529.718 138.919L529.656 138.827H529.666Z" fill="white" stroke="black" stroke-linecap="round" stroke-linejoin="round"/>
<path d="M404.857 124.225C403.654 125.161 401.31 125.624 397.846 125.624C394.382 125.624 390.969 124.894 387.628 123.422C384.287 121.961 380.545 120.284 376.412 118.411C372.269 116.548 367.458 114.799 361.989 113.194C357.579 111.897 352.326 110.961 346.261 110.364V116.085C354.824 117.217 362.483 119.656 369.196 123.422C377.07 127.837 383.814 133.383 389.427 140.062C390.681 141.554 391.873 143.107 393.025 144.702C393.025 144.702 393.045 144.702 393.055 144.713C393.611 144.898 394.155 145.114 394.69 145.34C394.752 145.361 394.803 145.392 394.865 145.412C395.965 145.896 397.013 146.472 398.021 147.131C398.041 147.141 398.062 147.162 398.093 147.172C398.586 147.501 399.069 147.851 399.542 148.222C399.583 148.253 399.624 148.294 399.665 148.325C400.58 149.045 401.434 149.837 402.246 150.691C402.328 150.784 402.41 150.866 402.492 150.959C402.842 151.35 403.191 151.751 403.52 152.163C403.634 152.307 403.747 152.451 403.86 152.595C404.086 152.883 404.302 153.182 404.518 153.49C404.723 153.789 404.929 154.087 405.124 154.396C405.278 154.633 405.422 154.869 405.566 155.116C405.741 155.404 405.905 155.703 406.07 156.001C406.101 156.053 406.132 156.114 406.152 156.166C408.239 160.045 409.452 164.594 409.452 169.471C409.452 172.486 408.979 175.388 408.126 178.074C409.133 181.799 409.976 185.565 410.655 189.383H415.466V117.207H409.853C407.715 120.952 406.049 123.288 404.847 124.225H404.857Z" fill="#263238"/>
<path d="M346.23 261.209H407.406L412.186 258.05C412.855 257.618 413.471 257.114 414.057 256.568C406.718 251.258 399.388 247.235 392.048 244.529C384.441 241.719 378.756 239.785 375.024 238.714L346.271 230.39V261.209H346.23Z" fill="#263238"/>
<path d="M468.665 261.25L463.885 258.091C460.883 256.146 458.703 252.977 457.48 249.252C455.619 243.819 456.997 237.902 460.235 233.117C462.589 229.628 463.967 225.492 463.967 221.118C463.967 208.307 452.463 197.924 438.205 197.924C423.947 197.924 412.361 208.307 412.361 221.118C412.361 225.502 413.739 229.556 416.093 233.117C419.249 237.819 420.626 243.736 418.848 249.18C417.635 252.905 415.363 256.074 412.361 258.101L407.581 261.261H346.415V322.498L343.259 327.283C341.234 330.288 338.078 332.469 334.346 333.776C328.919 335.556 323.008 334.178 318.299 331.018C314.814 328.59 310.682 327.283 306.313 327.283C293.514 327.283 283.224 338.798 283.224 353.071C283.224 367.343 293.514 378.94 306.313 378.94C310.692 378.94 314.825 377.561 318.299 375.205C323.08 371.964 328.991 370.502 334.418 372.365C338.15 373.661 341.306 375.853 343.249 378.858L346.405 383.643V444.87L346.364 444.911L529.841 444.87V261.25H468.665Z" fill="#407BFF" stroke="black" stroke-linecap="round" stroke-linejoin="round"/>
<path d="M341.769 329.094C340.237 330.72 338.325 332.037 336.156 333.015V373.065C338.335 374.042 340.247 375.349 341.769 376.975V329.094Z" fill="#263238"/>
<path d="M325.341 334.085C323.326 333.622 321.373 332.84 319.564 331.79V374.412C321.383 373.342 323.337 372.529 325.341 372.046V334.085Z" fill="#263238"/>
<path d="M416.473 378.457C425.15 369.772 431.832 359.749 436.499 348.378C441.166 337.018 443.51 325.194 443.51 312.887C443.51 299.252 440.641 287.964 434.895 279.001C429.148 270.048 422.477 262.763 414.87 257.144C414.633 256.969 414.386 256.805 414.15 256.63C413.585 257.155 412.988 257.649 412.351 258.081L407.571 261.24H346.395V274.123L362.586 278.795C367.921 280.4 373.534 282.541 379.414 285.206C385.284 287.882 390.691 291.421 395.636 295.836C400.57 300.25 404.651 305.797 407.848 312.475C411.056 319.164 412.659 327.314 412.659 336.935C412.659 343.346 411.59 350.364 409.452 357.989C407.314 365.604 403.572 372.622 398.237 379.043C392.891 385.454 385.685 390.805 376.607 395.086C368.538 398.883 358.463 400.992 346.395 401.414V407.033C360.55 406.57 373.287 403.997 384.616 399.294C397.167 394.077 407.776 387.131 416.463 378.446L416.473 378.457Z" fill="#263238"/>
<path d="M306.251 327.221C310.63 327.221 314.763 328.6 318.238 330.956C322.936 334.198 328.847 335.577 334.357 333.796C338.006 332.5 341.162 330.308 343.187 327.313L346.343 322.529V261.291H285.167L280.387 258.132C277.385 256.187 275.206 253.018 273.9 249.293C272.039 243.859 273.499 237.942 276.737 233.157C279.091 229.669 280.459 225.532 280.459 221.159C280.459 208.347 268.873 198.047 254.615 198.047C240.356 198.047 228.853 208.347 228.853 221.159C228.853 225.543 230.148 229.679 232.585 233.157C235.741 237.86 237.118 243.787 235.34 249.22C234.044 252.946 231.855 256.115 228.853 258.142L224.073 261.301H162.897V444.921H346.333V383.684L343.177 378.899C341.152 375.894 337.996 373.63 334.264 372.416C328.754 370.636 322.925 372.015 318.145 375.174C314.66 377.53 310.61 378.909 306.231 378.909C293.432 378.909 283.059 367.394 283.059 353.122C283.059 338.849 293.432 327.252 306.231 327.252L306.251 327.221Z" fill="white" stroke="black" stroke-linecap="round" stroke-linejoin="round"/>
<path d="M346.364 401.425C344.863 401.476 343.331 401.507 341.769 401.507V377.098C340.237 375.442 338.325 374.104 336.156 373.126V401.507C332.691 401.507 329.083 401.342 325.341 401.023V372.046C323.337 372.488 321.383 373.27 319.564 374.299V400.427C317.014 400.118 314.403 399.747 311.73 399.295C302.92 397.833 294.234 394.283 285.691 388.665C277.138 383.046 269.202 374.495 261.852 363.001C254.502 351.506 248.694 335.608 244.427 315.285H240.017V401.497H246.021C247.09 398.554 248.354 396.28 249.824 394.685C251.284 393.079 254.029 392.277 258.038 392.277C262.571 392.277 267.917 393.347 274.065 395.487C280.202 397.628 285.948 399.5 291.294 401.106C295.303 402.176 299.035 403.112 302.509 403.915C305.974 404.718 309.387 405.314 312.728 405.716C314.917 405.983 317.199 406.21 319.564 406.415V435.619H325.341V406.837C328.59 407.023 332.177 407.115 336.156 407.115V435.187H341.769V407.115C343.321 407.115 344.842 407.084 346.364 407.033V401.414V401.425Z" fill="#263238"/>
<path d="M263.651 237.912C266.447 240.783 269.603 243.489 273.119 246.041C272.594 241.544 274.044 236.934 276.665 233.065C279.019 229.577 280.397 225.44 280.397 221.067C280.397 214.296 277.159 208.235 272.009 204.016C267.413 200.291 261.328 198.037 254.646 198.037C252.127 198.037 249.701 198.366 247.398 198.963C248.354 214.779 253.751 227.776 263.651 237.922V237.912Z" fill="#263238"/>
<path d="M312.923 264.368L319.553 266.313V331.78C321.363 332.85 323.316 333.643 325.331 334.106V268.011L336.145 271.181V333.046C338.294 332.058 340.216 330.72 341.758 329.074V272.786L346.353 274.113V261.281H303.373C306.436 262.362 309.602 263.401 312.923 264.368Z" fill="#263238"/>
<path d="M92.5405 184.423C90.0013 184.361 81.7876 188.539 81.7876 188.539L89.7135 213.802C89.7135 213.802 141.864 207.772 142.429 207.7C143.005 207.627 144.125 207.288 144.475 205.487C144.824 203.686 155.043 155.631 155.043 155.631L143.241 153.068L131.245 188.282C131.245 188.282 95.0796 184.485 92.5405 184.423Z" fill="#263238" stroke="#263238" stroke-miterlimit="10"/>
<path d="M166.669 132.354C166.186 132.416 162.609 132.879 162.609 132.879L157.099 134.443L161.344 130.615C161.344 130.615 165.6 128.732 166.269 128.279C166.937 127.826 166.536 126.54 166.176 126.591C165.816 126.643 161.982 127.013 160.83 127.528C159.679 128.042 153.634 131.983 153.634 131.983L157.829 126.818C157.829 126.818 162.444 123.062 162.814 122.156C163.185 121.261 162.814 120.211 161.643 120.602C160.481 120.993 156.379 124.081 155.536 125.038C154.693 125.995 150.026 130.368 150.026 130.368L150.571 128.958C150.571 128.958 155.012 122.907 155.485 121.878C155.958 120.849 155.804 119.645 155.3 119.47C154.786 119.296 153.686 120.17 152.884 121.487C152.082 122.805 145.883 130.296 145.596 130.944C145.308 131.592 144.855 147.82 144.855 147.82L143.241 153.068L153.974 155.394L154.847 149.93C154.847 149.93 155.958 148.201 156.451 147.295C156.945 146.39 158.302 140 158.302 140L162.886 136.007C162.886 136.007 166.258 134.844 167.255 134.103C168.253 133.362 167.142 132.292 166.669 132.354Z" fill="#263238" stroke="#263238" stroke-miterlimit="10"/>
<path d="M286.462 38.805C282.792 41.1923 280.078 44.5984 278.434 48.4676C276.213 53.6848 271.998 58.0581 266.468 59.5194C262.674 60.5278 258.727 60.3837 255.468 58.9328L250.215 56.6381L217.411 5.98926L63.4892 105.877L162.886 259.161L214.071 225.944L216.435 220.645C217.854 217.311 217.967 213.462 217.021 209.634C215.561 204.108 211.192 199.889 205.918 197.708C202.053 196.061 198.651 193.345 196.266 189.661C189.306 178.907 193.428 163.956 205.394 156.186C217.36 148.417 232.677 150.753 239.647 161.506C242.032 165.18 243.122 169.399 243.04 173.608C242.916 179.391 244.91 185.154 249.434 188.693C252.548 191.122 256.105 192.583 259.611 192.624H265.409L316.737 159.315L283.46 107.935L283.512 102.203C283.512 98.6225 284.972 95.0723 287.439 92.0161C290.975 87.4987 296.691 85.4303 302.468 85.5538C306.673 85.6258 310.815 84.5762 314.557 82.158C325.228 75.2326 327.675 59.9207 319.913 47.9428C312.111 35.8928 297.153 31.8796 286.472 38.805H286.462Z" fill="#407BFF" stroke="black" stroke-linecap="round" stroke-linejoin="round"/>
<path d="M176.877 147.594L169.455 153.151L164.233 167.392C164.233 167.392 149.43 218.525 147.693 221.149C145.955 223.762 141.309 225.8 141.309 225.8L133.763 214.758L163.37 149.961L170.041 148.221L176.877 147.604V147.594Z" fill="#263238" stroke="#263238" stroke-miterlimit="10"/>
<path d="M299.97 133.466L295.488 134.824L233.818 39.6078C235.165 38.8772 236.512 38.198 237.858 37.56L234.754 32.7648C233.448 33.4336 232.132 34.1437 230.775 34.8949L217.483 14.3657L212.775 17.4219L226.067 37.9408L225.06 38.5994C222.315 40.3796 219.704 42.2421 217.226 44.187L203.688 23.2771L198.836 26.4259L212.755 47.9224C207.419 52.6147 202.763 57.729 198.805 63.2858C192.051 72.7631 187.425 82.7035 184.927 93.0864C182.418 103.48 182.172 114.151 184.187 125.11C186.191 136.079 190.468 146.596 197.006 156.691C197.941 158.131 198.908 159.5 199.884 160.838C201.478 159.109 203.318 157.535 205.404 156.187C217.37 148.417 232.688 150.753 239.657 161.507C242.042 165.18 243.132 169.399 243.05 173.608C242.957 178.28 244.242 182.941 247.121 186.43C257.123 186.965 268.277 185.751 280.562 182.807L316.747 159.325L300.001 133.466H299.97ZM273.355 141.513C268.709 142.83 263.98 144.013 259.138 145.042C251.86 146.586 244.756 147.049 237.838 146.442C230.919 145.834 224.422 143.92 218.357 140.689C212.282 137.458 206.926 132.262 202.279 125.079C196.615 116.332 193.706 107.791 193.552 99.4459C193.397 91.1107 195.001 83.3827 198.342 76.2618C201.693 69.1512 206.145 62.761 211.696 57.0807C213.125 55.6195 214.543 54.2406 215.962 52.9234L273.355 141.523V141.513ZM289.916 136.532L280.325 139.413C279.934 139.537 279.523 139.66 279.133 139.784L220.362 49.0543C222.963 46.8933 225.543 44.9793 228.103 43.3123L229.11 42.6537L289.916 136.522V136.532Z" fill="#263238"/>
<path d="M292.64 36.099C298.973 38.5584 305.079 41.8307 310.949 45.9262C315.339 48.9927 319.502 52.3165 323.46 55.8769C322.709 53.1603 321.538 50.4745 319.893 47.9431C313.509 38.085 302.335 33.619 292.64 36.099Z" fill="#263238"/>
<path d="M108.032 182.262L112.813 183.785L113.234 191.709L109.646 188.622V191.709C109.646 191.709 115.033 205.065 120.163 224.843C125.293 244.621 126.064 257.206 125.55 269.277C125.036 281.347 124.008 289.569 124.008 289.569L118.107 269.791L104.506 191.451L103.735 185.288L108.032 182.262Z" fill="#BFBFBF" stroke="#263238" stroke-miterlimit="10"/>
<path d="M120.667 268.237C120.667 268.237 125.025 291.092 126.053 300.858C127.081 310.613 136.436 342.317 135.172 356.487C134.627 362.63 133.732 418.949 133.732 418.949L137.402 421.624L136.344 430.443C136.344 430.443 150.355 437.79 153.357 438.789C156.359 439.787 155.022 436.782 156.359 439.787C157.695 442.792 152.36 444.459 144.681 445.127C137.012 445.796 130.669 444.798 130.669 444.798L127.338 442.791L126.362 444.757C126.362 444.757 121.695 444.603 120.296 444.603C118.898 444.603 117.654 444.448 117.654 444.448C117.654 444.448 116.411 438.223 116.102 435.578C115.794 432.933 115.64 430.134 115.64 430.134C115.64 430.134 113.152 427.181 113.152 425.617C113.152 424.053 115.023 417.992 115.023 417.992L112.823 381.77L111.867 358.812L104.568 327.489C104.568 327.489 98.472 361.683 97.7524 363.248C97.0328 364.801 74.4168 423.693 74.4168 423.693L76.2878 425.247L74.2626 432.254L80.1736 438.943C80.1736 438.943 89.8163 443.615 89.8163 444.387C89.8163 445.158 88.5724 446.414 88.5724 446.414C88.5724 446.414 80.482 446.722 75.0439 446.105C69.6058 445.477 66.6452 444.706 64.7845 444.232C62.9238 443.759 60.2716 440.805 60.2716 440.805L58.4006 441.896L50.4747 437.379C50.4747 437.379 52.4999 426.955 53.4251 424.464C54.3606 421.974 56.2213 420.729 56.2213 420.729L60.2613 414.195L76.0308 353.976L76.7093 299.19L75.0336 289.137L78.2616 269.616L120.667 268.258V268.237Z" fill="#263238" stroke="#263238" stroke-miterlimit="10"/>
<path d="M106.922 135.544C106.922 135.544 111.6 140.473 111.846 142.696C112.093 144.919 110.983 147.131 111.6 148.119C112.216 149.107 118.004 154.777 117.757 155.518C117.511 156.259 114.56 158.358 114.56 158.358L105.205 182.149L83.2885 174.256L85.7557 166.858L75.9074 157.123C75.9074 157.123 75.2906 146.524 82.8053 139.125C90.32 131.726 106.943 135.554 106.943 135.554L106.922 135.544Z" fill="white" stroke="#263238" stroke-miterlimit="10"/>
<path d="M95.8403 140.72C95.8403 140.72 109.019 136.532 109.636 131.963C110.253 127.404 99.5411 124.811 90.1761 126.787C80.8213 128.763 69.9759 139.115 69.6161 147.738C69.246 156.372 81.6848 164.995 82.425 165.365C83.1651 165.736 83.0418 167.588 84.5221 168.082C86.0024 168.576 86.4958 168.946 88.4593 167.341C90.4331 165.736 89.9396 161.177 89.9396 161.177C89.9396 161.177 84.3987 160.313 83.6586 156.495C82.9184 152.677 86.2491 150.702 88.4593 151.937C90.6695 153.171 92.5199 157.73 93.0133 159.088C93.5068 160.447 93.5068 169.44 96.7039 171.663C99.9009 173.886 110.746 175.728 114.067 175.604C117.387 175.481 117.757 174.246 117.017 171.54C116.277 168.833 115.043 163.523 114.92 162.299C114.797 161.074 115.907 158.852 114.55 158.358C113.193 157.864 109.996 160.704 106.665 163.41C103.345 166.127 102.481 166.611 102.481 166.611C102.481 166.611 102.481 166.24 98.4206 159.582C94.36 152.924 92.633 149.848 92.633 149.477C92.633 149.107 99.9009 148.242 99.1608 145.166C98.4206 142.089 95.8403 140.73 95.8403 140.73V140.72Z" fill="#263238" stroke="#263238" stroke-miterlimit="10"/>
<path d="M109.749 145.896C109.749 145.896 107.529 144.167 105.812 147.625" stroke="#263238" stroke-miterlimit="10"/>
<path d="M109.143 163.4C109.143 163.4 111.24 164.635 113.82 164.141" stroke="white" stroke-miterlimit="10"/>
<path d="M109.616 151.093C109.842 152.122 109.708 153.027 109.307 153.12C108.906 153.212 108.402 152.441 108.176 151.412C107.95 150.383 108.084 149.477 108.485 149.384C108.886 149.292 109.389 150.064 109.616 151.093Z" fill="#263238"/>
<path d="M83.0315 171.663L108.032 182.262L106.182 189.897L80.811 176.592L83.0315 171.663Z" fill="white" stroke="#263238" stroke-miterlimit="10"/>
<path d="M106.182 189.897C106.182 189.897 115.023 204.283 117.079 228.939C119.135 253.594 120.667 268.237 120.667 268.237L109.893 269.524L106.182 189.897Z" fill="white" stroke="#263238" stroke-miterlimit="10"/>
<path d="M80.811 176.592L77.9737 182.88C77.9737 182.88 69.575 201.927 69.8114 206.146C70.0479 210.365 74.4888 252.998 74.4888 252.998L64.6611 298.728C64.6611 298.728 78.7036 308.185 92.047 309.358C105.39 310.531 113.81 307.721 113.81 307.721C113.81 307.721 115.218 278.312 113.81 259.573C112.401 240.835 110.53 207.329 108.896 200.538C107.261 193.746 106.172 189.929 106.172 189.929L80.8007 176.613L80.811 176.592Z" fill="#BFBFBF" stroke="#263238" stroke-miterlimit="10"/>
<path d="M77.984 182.879L98.9963 192.099L109.914 243.808" stroke="#263238" stroke-miterlimit="10"/>
<path d="M85.1389 190.638C85.1389 190.638 93.8152 187.551 96.3235 187.932C98.8318 188.323 134.216 196.72 134.216 196.72L150.612 163.328L161.992 167.382C161.992 167.382 145.719 213.729 145.143 215.469C144.567 217.208 143.406 217.403 142.83 217.403C142.255 217.403 89.7649 216.703 89.7649 216.703" fill="#BFBFBF"/>
<path d="M85.1389 190.638C85.1389 190.638 93.8152 187.551 96.3235 187.932C98.8318 188.323 134.216 196.72 134.216 196.72L150.612 163.328L161.992 167.382C161.992 167.382 145.719 213.729 145.143 215.469C144.567 217.208 143.406 217.403 142.83 217.403C142.254 217.403 89.7649 216.703 89.7649 216.703" stroke="#263238" stroke-miterlimit="10"/>
<path d="M150.622 163.328L152.894 158.327L162.537 161.712L160.974 167.012L150.622 163.328Z" fill="white" stroke="#263238" stroke-miterlimit="10"/>
<path d="M152.894 158.327C152.894 158.327 155.423 142.284 155.783 141.687C156.143 141.09 163.257 134.453 164.213 133.249C165.169 132.045 166.382 131.315 166.865 131.562C167.348 131.809 167.348 133.012 166.741 133.969C166.135 134.926 160.954 140.36 160.954 140.36L160.234 141.687C160.234 141.687 165.415 137.952 166.382 137.108C167.348 136.264 171.799 133.733 173.012 133.486C174.225 133.239 174.462 134.33 173.979 135.173C173.495 136.017 168.438 139.156 168.438 139.156L163.616 143.735C163.616 143.735 170.124 140.596 171.326 140.236C172.529 139.876 176.384 140 176.744 140C177.104 140 177.35 141.327 176.621 141.687C175.891 142.047 171.439 143.375 171.439 143.375L166.741 146.627L172.406 145.783H176.497C176.98 145.783 177.947 146.987 176.857 147.594C175.767 148.201 172.282 148.921 172.282 148.921L167.225 152.296C167.225 152.296 165.056 158.45 164.449 159.294C163.842 160.138 162.516 161.702 162.516 161.702L152.874 158.327H152.894Z" fill="white" stroke="#263238" stroke-miterlimit="10"/>
</g>
<defs>
<clipPath id="clip0_27_302">
<rect width="626" height="447" fill="white"/>
</clipPath>
</defs>
</svg>
