<svg width="20" height="20" viewBox="0 0 20 20" fill="none" xmlns="http://www.w3.org/2000/svg">
<path fill-rule="evenodd" clip-rule="evenodd" d="M0.625 5.55681C0.625 3.16747 2.59462 1.25 5 1.25H15C17.4054 1.25 19.375 3.16747 19.375 5.55684V12.3068C19.375 14.6962 17.4054 16.6137 15 16.6137H12.4711C12.4693 16.6137 12.468 16.614 12.4672 16.6144L12.4669 16.6146L10.937 18.3313C10.4394 18.8896 9.56059 18.8896 9.06303 18.3313L7.53313 16.6146L7.53281 16.6144C7.53281 16.6144 7.53159 16.614 7.53069 16.6138C7.53069 16.6138 7.52956 16.6137 7.52891 16.6137H5C2.59461 16.6137 0.625 14.6962 0.625 12.3068V5.55681ZM5 5C4.65481 5 4.375 5.27981 4.375 5.625C4.375 5.97019 4.65481 6.25 5 6.25H10C10.3452 6.25 10.625 5.97019 10.625 5.625C10.625 5.27981 10.3452 5 10 5H5ZM5 8.125C4.65481 8.125 4.375 8.40481 4.375 8.75C4.375 9.09519 4.65481 9.375 5 9.375H15C15.3452 9.375 15.625 9.09519 15.625 8.75C15.625 8.40481 15.3452 8.125 15 8.125H5ZM5 11.25C4.65481 11.25 4.375 11.5298 4.375 11.875C4.375 12.2202 4.65481 12.5 5 12.5H15C15.3452 12.5 15.625 12.2202 15.625 11.875C15.625 11.5298 15.3452 11.25 15 11.25H5Z" fill="#242424"/>
</svg>
