<svg width="618" height="565" viewBox="0 0 618 565" fill="none" xmlns="http://www.w3.org/2000/svg">
<g clip-path="url(#clip0_1351_1456)">
<path d="M47.693 241.023L564.735 241.023V16.6288L47.693 16.6288V241.023Z" fill="#E6E6E6"/>
<path d="M40.57 241.023L561.633 241.023V16.6288L40.57 16.6288V241.023Z" fill="#F5F5F5"/>
<path d="M548.843 228.1V29.5834L53.3441 29.5834V228.1L548.843 228.1Z" fill="#FAFAFA"/>
<path d="M264.03 228.1L207.52 29.5834H168.089L224.583 228.1H264.03Z" fill="white"/>
<path d="M213.408 228.1L156.914 29.5834H129.751L186.261 228.1H213.408Z" fill="white"/>
<path d="M501.26 228.1L444.75 29.5834H405.32L461.83 228.1H501.26Z" fill="white"/>
<path d="M450.655 228.1L394.145 29.5834H366.998L423.492 228.1H450.655Z" fill="white"/>
<path d="M162.882 228.1V29.5835H147.622V228.1H162.882Z" fill="#E6E6E6"/>
<path d="M464.79 228.1V29.5834H449.531V228.1H464.79Z" fill="#E6E6E6"/>
<path d="M160.111 236.304V19.9546H140.832V236.304H160.111Z" fill="#F5F5F5"/>
<path d="M462.036 236.319V19.9703H442.756V236.319H462.036Z" fill="#F5F5F5"/>
<path d="M54.7054 228.1L54.7054 29.5834H53.3441L53.3441 228.1H54.7054Z" fill="#E6E6E6"/>
<path d="M35.1881 0H578.617C579.519 0 580.263 0.744338 580.263 1.64705C580.263 2.54975 579.519 3.29409 578.617 3.29409H35.1881C34.2858 3.29409 33.5419 2.54975 33.5419 1.64705C33.5419 0.744338 34.2858 0 35.1881 0Z" fill="#E6E6E6"/>
<path d="M564.719 10.8959C565.938 10.8959 566.951 9.89816 566.951 8.66288V3.88011C566.951 2.66066 565.954 1.64709 564.719 1.64709C563.5 1.64709 562.487 2.64482 562.487 3.88011V8.66288C562.487 9.88232 563.485 10.8959 564.719 10.8959Z" fill="#E6E6E6"/>
<path d="M60.0556 10.8959C61.2745 10.8959 62.2875 9.89816 62.2875 8.66288V3.88011C62.2875 2.66066 61.2903 1.64709 60.0556 1.64709C58.8368 1.64709 57.8237 2.64482 57.8237 3.88011V8.66288C57.8237 9.88232 58.821 10.8959 60.0556 10.8959Z" fill="#E6E6E6"/>
<g opacity="0.6">
<path d="M35.7263 57.7733L556.567 57.7733V1.64708L35.7263 1.64708V57.7733Z" fill="#E0E0E0"/>
</g>
<path d="M219.471 413.187C225.074 411.286 229.158 405.87 225.596 400.311C219.692 391.126 234.461 389.178 230.313 373.8C224.457 352.104 206.317 370.902 201.805 350.076C198.529 334.92 173.091 324.991 172.094 344.945C171.002 366.784 160.064 352.515 157.626 376.809C155.948 393.596 179.834 396.051 172.696 401.293C167.488 405.126 164.401 411.809 171.682 416.386C181.576 422.61 172.236 427.472 178.964 431.811C185.596 436.087 186.799 429.23 197.246 432.603C206.586 435.612 214.5 426.379 212.648 420.598C210.907 415.214 213.835 415.087 219.471 413.171V413.187Z" fill="#E6E6E6"/>
<path d="M165.477 423.18C165.477 423.18 166.253 493.48 195.695 493.48C225.137 493.48 225.913 423.18 225.913 423.18H165.477Z" fill="#F0F0F0"/>
<path d="M137.428 413.187C143.032 411.286 147.116 405.87 143.554 400.311C137.65 391.126 152.418 389.178 148.271 373.8C142.414 352.104 124.274 370.902 119.763 350.076C116.486 334.92 91.049 324.991 90.0518 344.945C88.9596 366.784 78.0217 352.515 75.584 376.809C73.9061 393.596 97.7922 396.051 90.6533 401.293C85.4455 405.126 82.3588 411.809 89.6402 416.386C99.5334 422.61 90.1942 427.472 96.9216 431.811C103.554 436.087 104.757 429.23 115.204 432.603C124.543 435.612 132.458 426.379 130.606 420.598C128.865 415.214 131.793 415.087 137.428 413.171V413.187Z" fill="#E6E6E6"/>
<path d="M83.4352 423.18C83.4352 423.18 84.2109 493.48 113.653 493.48C143.095 493.48 143.871 423.18 143.871 423.18H83.4352Z" fill="#F0F0F0"/>
<path d="M395 345.389C399.258 298.384 402.202 222.114 399.907 196.6C399.827 195.713 399.384 194.921 398.719 194.399C396.741 192.863 393.971 194.399 394.05 197.028C394.461 209.666 394.92 241.26 392.404 295.755C391.153 322.884 389.333 341.461 390.583 345.389H395.015H395Z" fill="#F0F0F0"/>
<path d="M408.074 248.07C418.221 235.337 438.957 226.279 460.089 226.326C468.383 226.342 434.857 241.134 420.896 257.462C410.069 270.147 397.849 291.48 393.686 303.31C396.377 278.398 397.896 260.787 408.059 248.055L408.074 248.07Z" fill="#F0F0F0"/>
<path d="M386.848 247.944C376.796 233.944 353.606 223.175 328.501 221.955C318.656 221.48 356.139 239.043 370.116 257.05C380.975 271.034 392.119 294.204 395.189 306.921C395.918 280.552 396.883 261.944 386.832 247.944H386.848Z" fill="#F0F0F0"/>
<path d="M408.074 268.516C418.221 255.783 438.957 246.724 460.089 246.772C468.383 246.788 434.857 261.579 420.896 277.907C410.069 290.593 397.849 311.925 393.686 323.755C396.377 298.844 397.896 281.233 408.059 268.5L408.074 268.516Z" fill="#F0F0F0"/>
<path d="M386.848 269.53C376.796 255.53 353.606 244.76 328.501 243.541C318.656 243.066 356.139 260.629 370.116 278.636C380.975 292.62 392.119 315.789 395.189 328.506C395.918 302.138 396.883 283.529 386.832 269.53H386.848Z" fill="#F0F0F0"/>
<path d="M406.238 199.973C412.886 190.519 427.133 183.139 441.996 182.125C447.837 181.729 424.822 193.781 415.625 205.944C408.486 215.399 400.73 230.998 398.26 239.534C399.194 221.876 399.59 209.428 406.238 199.973Z" fill="#F0F0F0"/>
<path d="M393.021 203.98C385.945 194.114 369.594 186.528 351.913 185.673C344.964 185.34 371.382 197.725 381.244 210.41C388.905 220.261 396.757 236.604 398.909 245.552C399.432 226.976 400.096 213.847 393.021 203.98Z" fill="#F0F0F0"/>
<path d="M408.533 212.247C417.129 201.462 434.683 193.797 452.586 193.845C459.614 193.845 431.216 206.387 419.408 220.213C410.227 230.951 399.891 249.021 396.377 259.045C398.656 237.951 399.954 223.048 408.549 212.263L408.533 212.247Z" fill="#F0F0F0"/>
<path d="M391.074 217.98C382.558 206.118 362.93 197.012 341.671 195.983C333.329 195.571 365.067 210.458 376.923 225.709C386.119 237.555 395.553 257.177 398.149 267.93C398.767 245.6 399.574 229.842 391.074 217.996V217.98Z" fill="#F0F0F0"/>
<path d="M409.103 227.197C418.379 215.573 437.327 207.29 456.622 207.338C464.204 207.354 433.559 220.863 420.817 235.781C410.924 247.358 399.764 266.853 395.965 277.67C398.419 254.912 399.812 238.822 409.087 227.197H409.103Z" fill="#F0F0F0"/>
<path d="M389.728 233.58C380.278 220.419 358.466 210.299 334.881 209.143C325.621 208.7 360.856 225.218 374.01 242.147C384.22 255.292 394.699 277.084 397.58 289.025C398.276 264.24 399.163 246.74 389.728 233.58Z" fill="#F0F0F0"/>
<path d="M366.444 337.438L368.011 350.631C368.185 353.592 370.623 355.904 373.583 355.904H412.966C415.926 355.904 418.379 353.592 418.537 350.631L420.104 337.438C420.294 334.224 417.746 331.531 414.533 331.531H372.016C368.802 331.531 366.254 334.239 366.444 337.438Z" fill="#E6E6E6"/>
<path d="M364.101 340.226H422.495C423.349 340.226 424.078 339.576 424.173 338.721L425.566 326.147C425.676 325.149 424.901 324.278 423.888 324.278H362.724C361.727 324.278 360.935 325.149 361.046 326.147L362.439 338.721C362.534 339.576 363.246 340.226 364.117 340.226H364.101Z" fill="#F5F5F5"/>
<path d="M276.74 493.48H302.098V355.904H276.74V493.48Z" fill="#E6E6E6"/>
<path d="M284.338 493.48H276.724V467.159H292.3L284.338 493.48Z" fill="#F0F0F0"/>
<path d="M592.642 493.48H618V355.904H592.642V493.48Z" fill="#E6E6E6"/>
<path d="M276.74 477.326L599.29 477.326V355.904L276.74 355.904V477.326Z" fill="#F0F0F0"/>
<path d="M591.676 493.48H599.274V467.159H583.714L591.676 493.48Z" fill="#F0F0F0"/>
<path d="M282.629 413.028L593.386 413.028V364.44L282.629 364.44V413.028Z" fill="#E6E6E6"/>
<path d="M328.169 379.549H542.733C550.156 379.549 557.232 373.563 562.345 362.968H308.573C313.67 373.547 320.761 379.549 328.185 379.549H328.169Z" fill="#F0F0F0"/>
<path d="M282.629 469.471L593.386 469.471V420.883L282.629 420.883V469.471Z" fill="#E6E6E6"/>
<path d="M328.169 435.992H542.733C550.156 435.992 557.232 430.005 562.345 419.411H308.573C313.67 429.99 320.761 435.992 328.185 435.992H328.169Z" fill="#F0F0F0"/>
<path d="M595.364 323.66C595.364 323.66 593.971 355.904 540.833 355.904C487.695 355.904 486.302 323.66 486.302 323.66H595.364Z" fill="#F5F5F5"/>
<path d="M595.364 306.921C595.364 306.921 593.971 339.165 540.833 339.165C487.695 339.165 486.302 306.921 486.302 306.921H595.364Z" fill="#F5F5F5"/>
<path d="M306.911 565C476.413 565 613.821 556.974 613.821 547.072C613.821 537.171 476.413 529.145 306.911 529.145C137.409 529.145 0 537.171 0 547.072C0 556.974 137.409 565 306.911 565Z" fill="#F5F5F5"/>
<path d="M115.996 220.118H117.642V231.537H123.103V232.931H115.98V220.134L115.996 220.118Z" fill="black"/>
<path d="M132.949 228.243C132.949 231.648 130.59 233.12 128.374 233.12C125.889 233.12 123.974 231.299 123.974 228.385C123.974 225.313 125.984 223.507 128.532 223.507C131.081 223.507 132.949 225.424 132.949 228.243ZM125.651 228.338C125.651 230.349 126.807 231.869 128.437 231.869C130.068 231.869 131.223 230.365 131.223 228.306C131.223 226.754 130.448 224.774 128.469 224.774C126.49 224.774 125.636 226.596 125.636 228.338H125.651Z" fill="black"/>
<path d="M135.07 226.595C135.07 225.519 135.054 224.584 134.991 223.729H136.447L136.51 225.534H136.589C137.001 224.299 138.014 223.523 139.138 223.523C139.328 223.523 139.454 223.539 139.613 223.586V225.17C139.439 225.138 139.264 225.107 139.043 225.107C137.871 225.107 137.033 225.994 136.795 227.261C136.763 227.482 136.716 227.752 136.716 228.037V232.93H135.07V226.611V226.595Z" fill="black"/>
<path d="M142.019 228.623C142.05 230.887 143.507 231.806 145.169 231.806C146.372 231.806 147.084 231.6 147.717 231.331L148.002 232.534C147.416 232.804 146.403 233.105 144.947 233.105C142.114 233.105 140.436 231.236 140.436 228.464C140.436 225.693 142.066 223.507 144.741 223.507C147.749 223.507 148.54 226.152 148.54 227.831C148.54 228.179 148.509 228.433 148.477 228.607H142.019V228.623ZM146.91 227.419C146.926 226.358 146.467 224.695 144.599 224.695C142.905 224.695 142.161 226.247 142.035 227.419H146.91Z" fill="black"/>
<path d="M150.598 226.215C150.598 225.265 150.582 224.489 150.519 223.729H151.975L152.054 225.218H152.118C152.624 224.347 153.479 223.523 154.999 223.523C156.249 223.523 157.199 224.283 157.595 225.36H157.626C157.911 224.853 158.275 224.442 158.655 224.157C159.209 223.745 159.811 223.507 160.681 223.507C161.9 223.507 163.705 224.299 163.705 227.498V232.914H162.074V227.704C162.074 225.93 161.425 224.869 160.08 224.869C159.13 224.869 158.386 225.566 158.101 226.39C158.022 226.611 157.975 226.928 157.975 227.229V232.914H156.344V227.403C156.344 225.946 155.695 224.869 154.429 224.869C153.384 224.869 152.624 225.709 152.355 226.548C152.26 226.801 152.229 227.086 152.229 227.372V232.914H150.598V226.215Z" fill="black"/>
<path d="M172.331 221.148C172.347 221.718 171.936 222.177 171.271 222.177C170.685 222.177 170.258 221.718 170.258 221.148C170.258 220.577 170.701 220.102 171.303 220.102C171.904 220.102 172.331 220.562 172.331 221.148ZM170.464 232.93V223.745H172.142V232.93H170.464Z" fill="black"/>
<path d="M174.912 226.722C174.912 225.55 174.88 224.6 174.832 223.729H176.336L176.415 225.313H176.447C177.128 224.188 178.22 223.523 179.708 223.523C181.924 223.523 183.602 225.408 183.602 228.195C183.602 231.505 181.591 233.136 179.423 233.136C178.204 233.136 177.144 232.598 176.589 231.695H176.558V236.684H174.912V226.738V226.722ZM176.558 229.177C176.558 229.43 176.589 229.652 176.637 229.858C176.938 231.014 177.951 231.822 179.138 231.822C180.911 231.822 181.924 230.38 181.924 228.274C181.924 226.437 180.958 224.853 179.185 224.853C178.046 224.853 176.985 225.677 176.653 226.928C176.589 227.134 176.542 227.387 176.542 227.609V229.193L176.558 229.177Z" fill="black"/>
<path d="M185.501 231.204C185.992 231.521 186.863 231.869 187.702 231.869C188.92 231.869 189.49 231.267 189.49 230.507C189.49 229.715 189.015 229.272 187.781 228.813C186.134 228.227 185.343 227.308 185.343 226.215C185.343 224.727 186.546 223.523 188.509 223.523C189.443 223.523 190.25 223.792 190.772 224.093L190.361 225.313C189.997 225.091 189.332 224.774 188.477 224.774C187.496 224.774 186.942 225.344 186.942 226.025C186.942 226.785 187.496 227.134 188.683 227.577C190.282 228.179 191.089 228.987 191.089 230.349C191.089 231.964 189.838 233.104 187.654 233.104C186.641 233.104 185.723 232.851 185.074 232.471L185.485 231.204H185.501Z" fill="black"/>
<path d="M200.935 230.412C200.935 231.362 200.951 232.202 201.014 232.914H199.526L199.431 231.41H199.399C198.956 232.154 197.99 233.12 196.36 233.12C194.92 233.12 193.194 232.328 193.194 229.098V223.729H194.872V228.813C194.872 230.555 195.41 231.743 196.93 231.743C198.054 231.743 198.829 230.966 199.13 230.222C199.225 229.969 199.288 229.668 199.288 229.367V223.729H200.966V230.412H200.935Z" fill="black"/>
<path d="M203.705 226.215C203.705 225.265 203.689 224.489 203.626 223.729H205.082L205.161 225.218H205.224C205.731 224.347 206.586 223.523 208.105 223.523C209.356 223.523 210.305 224.283 210.701 225.36H210.733C211.018 224.853 211.382 224.442 211.762 224.157C212.316 223.745 212.917 223.507 213.788 223.507C215.007 223.507 216.811 224.299 216.811 227.498V232.914H215.181V227.704C215.181 225.93 214.532 224.869 213.186 224.869C212.237 224.869 211.493 225.566 211.208 226.39C211.129 226.611 211.081 226.928 211.081 227.229V232.914H209.451V227.403C209.451 225.946 208.802 224.869 207.535 224.869C206.491 224.869 205.731 225.709 205.462 226.548C205.367 226.801 205.335 227.086 205.335 227.372V232.914H203.705V226.215Z" fill="black"/>
<path d="M493.536 102.259C484.07 107.454 480.809 122.911 485.336 129.546C468.858 134.503 477.406 162.757 504.347 164.356C531.288 165.972 551.739 156.105 538.538 135.089C551.613 117.463 545.582 97.7775 534.137 99.963C521.806 75.3365 480.619 76.065 493.552 102.259H493.536Z" fill="#263238"/>
<path d="M522.123 166.288C518.261 166.288 514.24 165.291 510.346 162.994C510.156 162.883 510.093 162.646 510.204 162.456C510.315 162.266 510.552 162.202 510.742 162.313C521.601 168.759 533.647 164.562 539.456 157.34C543.761 151.987 545.708 143.388 538.237 135.375C538.095 135.216 538.095 134.963 538.253 134.82C538.411 134.678 538.664 134.678 538.807 134.836C546.642 143.23 544.6 152.225 540.073 157.831C536.132 162.725 529.42 166.288 522.107 166.288H522.123Z" fill="#263238"/>
<path d="M482.345 134.804C482.186 134.804 482.028 134.709 481.965 134.535C477.754 122.467 483.389 106.266 493.346 101.848C493.552 101.753 493.773 101.848 493.868 102.054C493.963 102.259 493.868 102.481 493.662 102.576C484.038 106.852 478.625 122.562 482.709 134.282C482.788 134.488 482.677 134.709 482.471 134.789C482.424 134.789 482.392 134.804 482.345 134.804Z" fill="#263238"/>
<path d="M479.764 117.368C479.764 117.368 479.669 117.368 479.622 117.336C479.416 117.257 479.321 117.035 479.385 116.829C482.234 109.291 487.6 103.526 493.393 101.816C493.599 101.753 493.821 101.879 493.884 102.085C493.947 102.291 493.821 102.513 493.615 102.576C488.059 104.223 482.883 109.782 480.113 117.099C480.049 117.257 479.907 117.352 479.749 117.352L479.764 117.368Z" fill="#263238"/>
<path d="M501.925 538.631L492.776 538.647L491.24 504.281L506.626 504.661L501.925 538.631Z" fill="white"/>
<path d="M486.017 241.942C486.017 241.942 485.21 337.359 483.183 378.9C483.12 380.135 483.136 381.37 483.231 382.606C486.239 424.241 491.225 504.265 491.225 504.265L506.721 504.661C506.721 504.661 520.224 440.759 511.866 382.875C525.305 317.405 532.539 258.998 520.366 241.942H486.017Z" fill="#407BFF"/>
<g opacity="0.2">
<path d="M511.977 279.839C507.275 295.771 511.85 346.988 514.304 370.617C517.643 353.545 520.493 337.122 522.598 321.982L511.977 279.839Z" fill="black"/>
</g>
<path d="M491.747 534.197H503.619C504.173 534.197 504.584 534.545 504.632 535.068L505.835 544.808C505.946 546.011 504.838 547.136 503.571 547.12C498.348 547.041 495.831 546.74 489.23 546.756C485.162 546.756 482.709 547.168 477.089 547.183C471.597 547.183 471.47 541.799 473.828 541.308C484.418 539.106 485.779 537.887 489.468 535.005C490.132 534.482 490.94 534.197 491.747 534.197Z" fill="#263238"/>
<path d="M495.657 171.736C495.071 174.999 494.406 178.119 493.694 181.286C492.998 184.437 492.254 187.605 491.43 190.741C489.768 197.012 488.027 203.299 485.748 209.555C484.592 212.691 483.389 215.826 481.775 219.025C480.983 220.625 480.065 222.24 478.862 223.951C478.546 224.378 478.261 224.79 477.865 225.265C477.469 225.724 477.168 226.136 476.551 226.659C475.506 227.641 474.018 228.638 472.277 229.145C470.552 229.684 468.637 229.7 467.117 229.351C465.582 229.003 464.363 228.417 463.318 227.783C461.276 226.485 459.867 225.043 458.664 223.586C456.274 220.625 454.707 217.648 453.361 214.306C452.681 212.611 453.52 210.679 455.213 209.998C456.496 209.492 457.904 209.824 458.807 210.759L458.997 210.964C461.023 213.023 463.286 215.193 465.392 216.745C466.452 217.505 467.513 218.139 468.288 218.344C468.668 218.439 468.921 218.439 468.969 218.376C469.016 218.313 468.747 218.202 468.51 218.218C468.272 218.218 468.146 218.313 468.209 218.154C468.193 218.154 468.367 217.917 468.478 217.774C468.589 217.648 468.747 217.378 468.89 217.157C469.46 216.222 470.077 215.035 470.615 213.752C471.739 211.186 472.752 208.351 473.654 205.453C475.459 199.641 477.105 193.623 478.53 187.542C479.97 181.476 481.363 175.284 482.629 169.25V169.218C483.389 165.639 486.903 163.343 490.481 164.087C493.995 164.831 496.274 168.236 495.641 171.752L495.657 171.736Z" fill="white"/>
<path d="M481.268 228.987C481.3 232.883 541.957 233.643 541.957 228.496L510.948 220.577L481.268 228.987Z" fill="#263238"/>
<path d="M492.412 161.505C508.542 158.75 524.64 159.082 540.706 161.981C544.664 162.598 547.26 166.431 546.389 170.343C537.81 208.779 538.3 221.702 539.139 241.941H486.033C483.373 208.177 481.981 188.903 481.616 177.96C481.347 169.614 484.165 162.725 492.428 161.505H492.412Z" fill="white"/>
<g opacity="0.2">
<path d="M540.548 172.671C539.994 176.107 540.991 184.137 542.638 188.508C543.318 184.849 544.11 180.922 545.012 176.63L540.548 172.671Z" fill="black"/>
</g>
<path d="M523.279 133.442C521.775 141.139 520.271 155.234 525.653 160.365C525.653 160.365 523.548 168.173 509.254 168.173C493.536 168.173 501.751 160.365 501.751 160.365C510.33 158.322 510.109 151.956 508.605 145.969L523.279 133.442Z" fill="white"/>
<g opacity="0.2">
<path d="M517.295 138.558L508.605 145.969C508.969 147.379 509.238 148.82 509.349 150.214C512.626 149.739 517.121 146.144 517.469 142.707C517.643 140.997 517.564 139.35 517.295 138.558Z" fill="black"/>
</g>
<path d="M531.573 120.108C528.645 132.635 527.663 138.003 520.176 143.42C508.906 151.56 494.153 145.209 493.282 132.065C492.507 120.219 497.43 101.721 510.679 98.7911C523.722 95.9087 534.517 107.581 531.573 120.108Z" fill="white"/>
<path d="M526.777 101.262C513.528 102.734 517.548 127.472 527.521 129.879C539.219 124.162 546.421 102.434 526.777 101.262Z" fill="#263238"/>
<path d="M591.724 515.985L582.543 518.788L569.183 490.74L583.287 486.892L591.724 515.985Z" fill="white"/>
<path d="M579.915 515.969L591.692 511.408C592.119 511.249 592.594 511.408 592.832 511.804L598.087 520.704C598.625 521.622 598.182 522.874 597.185 523.238C593.053 524.758 591.059 525.629 585.883 527.625C582.701 528.86 577.747 532.978 573.346 534.672C569.041 536.335 567.062 532.344 568.55 530.966C574.549 525.344 577.177 520.498 578.427 517.283C578.681 516.65 579.282 516.19 579.915 515.953V515.969Z" fill="#263238"/>
<path d="M500.58 241.942C500.58 241.942 520.097 341.825 527.457 381.37C535.119 422.499 569.167 490.756 569.167 490.756L583.303 486.876C583.303 486.876 563.944 413.931 554.905 377.775C553.148 312.305 555.238 258.998 539.108 241.942H500.564H500.58Z" fill="#407BFF"/>
<path d="M510.805 120.028C510.631 121.058 509.935 121.802 509.27 121.691C508.589 121.58 508.193 120.646 508.368 119.617C508.542 118.587 509.238 117.843 509.903 117.954C510.584 118.065 510.979 118.999 510.805 120.028Z" fill="#263238"/>
<path d="M499.155 118.049C498.981 119.078 498.284 119.823 497.62 119.712C496.939 119.601 496.543 118.666 496.717 117.637C496.891 116.608 497.588 115.863 498.253 115.974C498.933 116.085 499.329 117.019 499.155 118.049Z" fill="#263238"/>
<path d="M498.554 116.085L496.195 114.945C496.195 114.945 497.129 117.099 498.554 116.085Z" fill="#263238"/>
<path d="M502.432 120.519C502.432 120.519 499.931 124.653 497.635 126.474C498.775 127.979 501.197 127.789 501.197 127.789L502.432 120.519Z" fill="#FFF8F2"/>
<path d="M506.136 132.777C505.645 132.777 505.138 132.73 504.6 132.635C504.426 132.603 504.315 132.445 504.347 132.286C504.379 132.112 504.553 132.001 504.695 132.033C509.238 132.809 511.866 130.006 511.897 129.974C512.008 129.847 512.198 129.847 512.325 129.958C512.451 130.069 512.452 130.275 512.341 130.386C512.23 130.497 510.03 132.841 506.12 132.777H506.136Z" fill="#263238"/>
<path d="M533.378 130.909C532.064 133.221 529.784 134.725 527.663 135.264C524.466 136.087 522.946 133.205 523.896 130.228C524.751 127.551 527.442 123.893 530.607 124.384C533.742 124.875 534.881 128.248 533.378 130.893V130.909Z" fill="white"/>
<path d="M515.886 118.461C515.633 118.461 515.396 118.286 515.317 118.033C514.478 115.325 511.011 114.153 510.979 114.153C510.663 114.042 510.489 113.694 510.584 113.377C510.694 113.06 511.027 112.87 511.359 112.981C511.533 113.029 515.475 114.359 516.488 117.669C516.583 117.986 516.409 118.334 516.076 118.429C516.013 118.445 515.95 118.461 515.886 118.461Z" fill="#263238"/>
<path d="M496.575 112.063C496.369 112.063 496.163 111.952 496.053 111.762C495.878 111.461 495.989 111.096 496.274 110.922C499.218 109.228 501.767 110.495 501.862 110.542C502.163 110.701 502.289 111.065 502.131 111.366C501.973 111.667 501.609 111.793 501.308 111.635C501.229 111.587 499.234 110.637 496.892 111.983C496.797 112.047 496.686 112.063 496.575 112.063Z" fill="#263238"/>
<path d="M545.044 164.182C549.555 170.089 553.639 176.06 557.533 182.363C559.48 185.499 561.363 188.698 563.105 192.071C564.846 195.46 566.524 198.865 567.79 203.03C567.948 203.537 568.091 204.123 568.233 204.661L568.344 205.121L568.471 205.786C568.534 206.213 568.582 206.641 568.613 207.037C568.692 208.621 568.534 209.951 568.312 211.139C567.838 213.514 567.094 215.494 566.302 217.363C564.719 221.084 562.788 224.347 560.794 227.53C556.741 233.849 552.262 239.598 547.323 245.109C546.104 246.471 544.031 246.582 542.669 245.362C541.482 244.301 541.245 242.591 542.004 241.261L542.052 241.181C545.55 235.084 549.017 228.813 551.993 222.605C553.496 219.516 554.826 216.349 555.823 213.372C556.298 211.883 556.662 210.41 556.773 209.254C556.836 208.684 556.82 208.209 556.773 208.003C556.773 207.955 556.741 207.924 556.741 207.908L556.678 207.734C556.567 207.417 556.488 207.132 556.346 206.783C555.317 204.123 553.686 201.114 552.008 198.2C550.267 195.27 548.431 192.34 546.516 189.41C542.653 183.614 538.538 177.786 534.486 172.148L534.422 172.069C532.285 169.091 532.966 164.958 535.926 162.82C538.839 160.714 542.891 161.347 545.059 164.166L545.044 164.182Z" fill="white"/>
<path d="M510.204 118.065L507.845 116.924C507.845 116.924 508.779 119.078 510.204 118.065Z" fill="#263238"/>
<path d="M483.104 174.175C484.814 167.302 486.872 162.44 486.872 162.44C486.872 162.44 491.035 161.189 494.311 160.872C495.799 162.218 502.447 168.173 506.706 176.994C513.496 170.137 526.492 163.184 534.406 160.65C538.411 160.254 542.4 161.648 542.4 161.648C537.002 178.689 531.494 195.824 541.26 200.227C541.102 208.32 541.561 218.344 541.957 228.512C532.729 227.498 496.132 225.74 481.268 229.003C480.508 218.709 480.223 209.935 480.287 202.476C473.29 193.639 480.223 181.634 483.104 174.191V174.175Z" fill="#263238"/>
<mask id="mask0_1351_1456" style="mask-type:luminance" maskUnits="userSpaceOnUse" x="477" y="160" width="66" height="70">
<path d="M483.104 174.175C484.814 167.302 486.872 162.44 486.872 162.44C486.872 162.44 491.035 161.189 494.311 160.872C495.799 162.218 502.447 168.173 506.706 176.994C513.496 170.137 526.492 163.184 534.406 160.65C538.411 160.254 542.4 161.648 542.4 161.648C537.002 178.689 531.494 195.824 541.26 200.227C541.102 208.32 541.561 218.344 541.957 228.512C532.729 227.498 496.132 225.74 481.268 229.003C480.508 218.709 480.223 209.935 480.287 202.476C473.29 193.639 480.223 181.634 483.104 174.191V174.175Z" fill="white"/>
</mask>
<g mask="url(#mask0_1351_1456)">
<g opacity="0.2">
<path d="M497.651 205.881C497.477 205.896 497.335 206.007 497.271 206.166C496.322 208.272 496.021 212.453 497.366 215.89C496.274 214.987 495.198 214.068 494.169 213.15C494.628 212.231 496.971 206.863 492.808 201.304C492.713 201.177 492.538 201.098 492.38 201.114C492.206 201.13 492.064 201.24 492 201.399C491.035 203.568 490.734 207.908 492.206 211.392C490.781 210.093 489.436 208.795 488.17 207.544C488.201 207.48 491.446 201.636 486.887 195.555C486.792 195.428 486.618 195.349 486.46 195.365C486.286 195.381 486.143 195.492 486.08 195.65C485.115 197.82 484.814 202.159 486.286 205.643C484.117 203.394 482.313 201.32 480.967 199.609C479.954 195.112 475.791 191.881 473.243 191.358C473.085 191.326 472.926 191.374 472.815 191.485C472.705 191.58 472.657 191.754 472.689 191.912C474.113 198.928 479.274 200.132 480.318 200.322C481.047 201.256 481.917 202.286 482.914 203.41C480.081 202.175 476.852 201.969 474.984 202.46C474.826 202.507 474.699 202.634 474.652 202.792C474.604 202.951 474.652 203.125 474.762 203.252C479.289 208.193 484.687 207.021 485.922 206.657C486.808 207.575 487.758 208.525 488.755 209.491C485.099 208.367 480.73 209.001 478.625 210.093C478.466 210.172 478.371 210.331 478.371 210.505C478.371 210.679 478.451 210.838 478.609 210.933C484.466 214.448 489.642 211.962 490.734 211.376C492.064 212.611 493.472 213.878 494.929 215.129C491.43 213.451 486.887 213.609 484.624 214.528C484.466 214.591 484.355 214.734 484.339 214.908C484.323 215.082 484.386 215.24 484.513 215.351C490.512 220.023 496.496 216.982 496.559 216.951C496.607 216.935 496.638 216.903 496.67 216.872C496.717 216.824 496.749 216.761 496.781 216.697C497.366 217.188 497.968 217.679 498.569 218.154C498.569 218.154 498.569 218.17 498.585 218.186C498.633 218.265 498.712 218.313 498.791 218.344C499.741 219.105 500.706 219.849 501.688 220.577C501.878 220.72 502.147 220.704 502.305 220.53C502.305 220.514 502.337 220.498 502.352 220.482C502.511 220.276 502.463 219.976 502.258 219.817C501.355 219.136 500.453 218.439 499.567 217.743C500.2 216.333 501.973 211.329 498.095 206.15C498 206.023 497.825 205.944 497.667 205.96L497.651 205.881Z" fill="white"/>
<path d="M482.044 181.333C482.218 181.317 482.36 181.207 482.424 181.048C483.373 178.942 483.674 174.761 482.329 171.324C483.421 172.227 484.497 173.146 485.526 174.064C485.067 174.983 482.724 180.351 486.887 185.91C486.982 186.037 487.157 186.116 487.315 186.1C487.489 186.084 487.631 185.974 487.695 185.815C488.66 183.646 488.961 179.306 487.489 175.822C488.914 177.121 490.259 178.419 491.525 179.67C491.494 179.734 488.249 185.578 492.808 191.659C492.903 191.786 493.077 191.865 493.235 191.849C493.409 191.833 493.552 191.722 493.615 191.564C494.58 189.394 494.881 185.055 493.409 181.571C495.578 183.82 497.382 185.894 498.728 187.605C499.741 192.102 503.904 195.333 506.452 195.856C506.611 195.888 506.769 195.84 506.88 195.729C506.99 195.634 507.038 195.46 507.006 195.302C505.582 188.286 500.421 187.066 499.377 186.892C498.649 185.958 497.778 184.928 496.781 183.804C499.614 185.039 502.843 185.245 504.711 184.754C504.869 184.707 504.996 184.596 505.043 184.422C505.091 184.263 505.043 184.089 504.933 183.962C500.406 179.021 495.008 180.193 493.773 180.557C492.887 179.639 491.937 178.689 490.94 177.722C494.596 178.847 498.965 178.213 501.07 177.121C501.229 177.042 501.324 176.883 501.324 176.709C501.324 176.535 501.244 176.376 501.086 176.281C495.229 172.766 490.053 175.252 488.961 175.838C487.631 174.603 486.223 173.336 484.766 172.085C488.265 173.763 492.808 173.605 495.071 172.686C495.229 172.623 495.34 172.48 495.356 172.306C495.372 172.132 495.309 171.974 495.182 171.863C489.183 167.191 483.199 170.232 483.136 170.263C483.088 170.279 483.057 170.311 483.025 170.342C482.978 170.39 482.946 170.453 482.914 170.517C482.329 170.026 481.727 169.535 481.126 169.06C481.126 169.06 481.126 169.044 481.11 169.028C481.062 168.949 480.983 168.901 480.904 168.87C479.954 168.109 478.989 167.365 478.007 166.637C477.817 166.494 477.548 166.51 477.39 166.684C477.39 166.7 477.358 166.716 477.343 166.732C477.184 166.938 477.232 167.238 477.437 167.397C478.34 168.078 479.242 168.775 480.128 169.471C479.495 170.881 477.722 175.885 481.601 181.064C481.696 181.191 481.87 181.27 482.028 181.254L482.044 181.333Z" fill="white"/>
<path d="M530.845 217.426C530.671 217.442 530.528 217.552 530.465 217.711C529.515 219.817 529.215 223.998 530.56 227.435C529.468 226.532 528.391 225.614 527.363 224.695C527.822 223.776 530.164 218.408 526.001 212.849C525.906 212.722 525.732 212.643 525.574 212.659C525.4 212.675 525.257 212.786 525.194 212.928C524.228 215.098 523.928 219.437 525.4 222.921C523.975 221.623 522.63 220.324 521.363 219.073C521.395 219.009 524.64 213.166 520.081 207.084C519.986 206.958 519.812 206.878 519.654 206.894C519.48 206.91 519.337 207.021 519.274 207.179C518.308 209.349 518.008 213.688 519.48 217.172C517.311 214.924 515.507 212.849 514.161 211.139C513.148 206.641 508.985 203.41 506.436 202.887C506.278 202.856 506.12 202.903 506.009 203.014C505.898 203.109 505.851 203.283 505.882 203.442C507.307 210.458 512.467 211.661 513.512 211.851C514.24 212.786 515.111 213.815 516.108 214.939C513.275 213.704 510.046 213.498 508.178 213.989C508.019 214.037 507.893 214.163 507.845 214.322C507.798 214.48 507.845 214.654 507.956 214.781C512.483 219.722 517.881 218.55 519.116 218.186C520.002 219.105 520.952 220.055 521.949 221.021C518.292 219.896 513.924 220.53 511.818 221.623C511.66 221.702 511.565 221.86 511.565 222.034C511.565 222.209 511.644 222.367 511.802 222.462C517.659 225.978 522.835 223.491 523.928 222.905C525.257 224.141 526.666 225.408 528.122 226.659C524.624 224.98 520.081 225.138 517.818 226.057C517.659 226.12 517.549 226.263 517.533 226.437C517.517 226.611 517.58 226.77 517.707 226.88C523.706 231.552 529.689 228.512 529.753 228.48C529.8 228.464 529.832 228.432 529.864 228.401C529.911 228.353 529.943 228.29 529.974 228.227C530.56 228.718 531.162 229.208 531.763 229.684C531.763 229.684 531.763 229.699 531.779 229.715C531.826 229.794 531.905 229.842 531.985 229.874C532.934 230.634 533.9 231.378 534.881 232.107C535.071 232.249 535.34 232.233 535.499 232.059C535.499 232.059 535.53 232.027 535.546 232.012C535.704 231.806 535.657 231.505 535.451 231.346C534.549 230.665 533.647 229.969 532.76 229.272C533.393 227.862 535.166 222.858 531.288 217.679C531.193 217.552 531.019 217.473 530.861 217.489L530.845 217.426Z" fill="white"/>
<path d="M561.284 228.417C561.11 228.432 560.968 228.543 560.904 228.702C559.955 230.808 559.654 234.989 560.999 238.426C559.907 237.523 558.831 236.604 557.802 235.686C558.261 234.767 560.604 229.399 556.441 223.84C556.346 223.713 556.172 223.634 556.013 223.65C555.839 223.666 555.697 223.776 555.633 223.935C554.668 226.104 554.367 230.444 555.839 233.928C554.414 232.629 553.069 231.331 551.803 230.08C551.834 230.016 555.079 224.172 550.521 218.091C550.426 217.964 550.251 217.885 550.093 217.901C549.919 217.917 549.777 218.028 549.713 218.186C548.748 220.356 548.447 224.695 549.919 228.179C547.75 225.93 545.946 223.856 544.6 222.145C543.587 217.647 539.424 214.417 536.876 213.894C536.718 213.862 536.559 213.894 536.448 214.021C536.338 214.116 536.29 214.29 536.322 214.448C537.746 221.464 542.907 222.684 543.951 222.858C544.68 223.792 545.55 224.822 546.547 225.946C543.714 224.711 540.485 224.505 538.617 224.996C538.459 225.043 538.332 225.154 538.285 225.328C538.237 225.487 538.285 225.661 538.395 225.788C542.923 230.729 548.32 229.557 549.555 229.193C550.441 230.111 551.391 231.061 552.388 232.027C548.732 230.903 544.363 231.537 542.258 232.629C542.099 232.708 542.004 232.867 542.004 233.041C542.004 233.215 542.084 233.374 542.242 233.469C548.099 236.984 553.275 234.498 554.367 233.912C555.697 235.147 557.105 236.414 558.562 237.665C555.063 235.987 550.52 236.145 548.257 237.064C548.099 237.127 547.988 237.269 547.972 237.444C547.956 237.618 548.02 237.776 548.146 237.887C554.145 242.559 560.129 239.518 560.192 239.487C560.24 239.471 560.271 239.439 560.303 239.407C560.35 239.36 560.382 239.297 560.414 239.233C560.999 239.724 561.601 240.215 562.202 240.69C562.202 240.69 562.202 240.706 562.218 240.722C562.266 240.801 562.345 240.849 562.424 240.88C563.374 241.641 564.339 242.385 565.321 243.113C565.511 243.256 565.78 243.24 565.938 243.066C565.938 243.066 565.97 243.034 565.986 243.018C566.144 242.812 566.096 242.512 565.891 242.353C564.988 241.672 564.086 240.975 563.2 240.279C563.833 238.869 565.606 233.865 561.728 228.686C561.633 228.559 561.458 228.48 561.3 228.496L561.284 228.417Z" fill="white"/>
<path d="M491.684 230.159C491.51 230.175 491.367 230.285 491.304 230.444C490.354 232.55 490.053 236.731 491.399 240.168C490.307 239.265 489.23 238.346 488.201 237.428C488.66 236.509 491.003 231.141 486.84 225.582C486.745 225.455 486.571 225.376 486.413 225.392C486.239 225.408 486.096 225.518 486.033 225.677C485.067 227.846 484.766 232.186 486.239 235.67C484.814 234.371 483.468 233.073 482.202 231.822C482.234 231.758 485.479 225.914 480.92 219.833C480.825 219.706 480.651 219.627 480.493 219.643C480.318 219.659 480.176 219.77 480.113 219.928C479.147 222.098 478.846 226.437 480.318 229.921C478.15 227.672 476.345 225.598 475 223.887C473.987 219.39 469.824 216.159 467.275 215.636C467.117 215.605 466.959 215.636 466.848 215.763C466.737 215.858 466.69 216.032 466.721 216.19C468.146 223.206 473.306 224.426 474.351 224.6C475.079 225.534 475.95 226.564 476.947 227.688C474.113 226.453 470.884 226.247 469.016 226.738C468.858 226.785 468.732 226.896 468.684 227.07C468.637 227.229 468.684 227.403 468.795 227.53C473.322 232.471 478.72 231.299 479.954 230.935C480.841 231.853 481.791 232.803 482.788 233.77C479.131 232.645 474.762 233.279 472.657 234.371C472.499 234.451 472.404 234.609 472.404 234.783C472.404 234.957 472.483 235.116 472.641 235.211C478.498 238.726 483.674 236.24 484.766 235.654C486.096 236.889 487.505 238.156 488.961 239.407C485.463 237.729 480.92 237.887 478.656 238.806C478.498 238.869 478.387 239.012 478.371 239.186C478.356 239.36 478.419 239.518 478.546 239.629C484.545 244.301 490.528 241.26 490.592 241.229C490.639 241.213 490.671 241.181 490.702 241.15C490.75 241.102 490.781 241.039 490.813 240.975C491.399 241.466 492 241.957 492.602 242.432C492.602 242.432 492.602 242.448 492.618 242.464C492.665 242.543 492.744 242.591 492.823 242.622C493.773 243.383 494.739 244.127 495.72 244.855C495.91 244.998 496.179 244.982 496.337 244.808C496.353 244.808 496.369 244.776 496.385 244.76C496.543 244.554 496.496 244.254 496.29 244.095C495.388 243.414 494.485 242.717 493.599 242.021C494.232 240.611 496.005 235.607 492.127 230.428C492.032 230.301 491.858 230.222 491.7 230.238L491.684 230.159Z" fill="white"/>
<path d="M529.832 163.517C529.658 163.533 529.515 163.643 529.452 163.802C528.502 165.908 528.201 170.089 529.547 173.526C528.455 172.623 527.378 171.704 526.349 170.786C526.809 169.867 529.151 164.499 524.988 158.94C524.893 158.813 524.719 158.734 524.561 158.75C524.387 158.766 524.244 158.877 524.181 159.035C523.215 161.205 522.915 165.544 524.387 169.028C522.962 167.729 521.617 166.431 520.35 165.18C520.382 165.116 523.627 159.272 519.068 153.191C518.973 153.064 518.799 152.985 518.641 153.001C518.467 153.017 518.324 153.128 518.261 153.286C517.295 155.456 516.994 159.795 518.467 163.279C516.298 161.03 514.493 158.956 513.148 157.245C512.135 152.748 507.972 149.517 505.423 148.994C505.265 148.963 505.107 149.01 504.996 149.121C504.885 149.216 504.838 149.39 504.869 149.549C506.294 156.564 511.454 157.768 512.499 157.958C513.227 158.892 514.098 159.922 515.095 161.046C512.262 159.811 509.032 159.605 507.165 160.096C507.006 160.143 506.88 160.27 506.832 160.429C506.785 160.587 506.832 160.761 506.943 160.888C511.47 165.829 516.868 164.657 518.103 164.293C518.989 165.211 519.939 166.162 520.936 167.128C517.279 166.003 512.911 166.637 510.805 167.729C510.647 167.809 510.552 167.967 510.552 168.141C510.552 168.315 510.631 168.474 510.789 168.569C516.646 172.085 521.838 169.598 522.915 169.012C524.244 170.247 525.653 171.514 527.109 172.766C523.611 171.087 519.068 171.245 516.805 172.164C516.646 172.227 516.535 172.37 516.52 172.544C516.504 172.718 516.567 172.876 516.694 172.987C522.693 177.659 528.676 174.618 528.74 174.587C528.787 174.571 528.819 174.539 528.85 174.508C528.898 174.46 528.93 174.397 528.961 174.333C529.547 174.824 530.148 175.315 530.75 175.79C530.75 175.79 530.75 175.806 530.766 175.822C530.813 175.901 530.892 175.949 530.972 175.98C531.921 176.741 532.887 177.485 533.868 178.213C534.058 178.356 534.327 178.34 534.486 178.166C534.486 178.15 534.517 178.134 534.533 178.118C534.691 177.913 534.644 177.612 534.438 177.453C533.536 176.772 532.634 176.075 531.747 175.379C532.38 173.969 534.153 168.965 530.275 163.786C530.18 163.659 530.006 163.58 529.848 163.596L529.832 163.517Z" fill="white"/>
<path d="M514.794 193.48C514.968 193.464 515.111 193.354 515.174 193.195C516.124 191.089 516.425 186.908 515.079 183.471C516.171 184.374 517.248 185.293 518.277 186.211C517.818 187.13 515.475 192.498 519.638 198.057C519.733 198.184 519.907 198.263 520.065 198.247C520.239 198.231 520.382 198.121 520.445 197.978C521.411 195.808 521.712 191.469 520.239 187.985C521.664 189.284 523.009 190.582 524.276 191.833C524.244 191.897 520.999 197.74 525.558 203.822C525.653 203.949 525.827 204.028 525.985 204.012C526.159 203.996 526.302 203.885 526.365 203.727C527.331 201.557 527.632 197.218 526.159 193.734C528.328 195.983 530.133 198.057 531.478 199.768C532.491 204.265 536.654 207.496 539.203 208.019C539.361 208.05 539.519 208.019 539.63 207.892C539.741 207.797 539.788 207.623 539.757 207.464C538.332 200.449 533.172 199.245 532.127 199.055C531.399 198.121 530.528 197.091 529.531 195.967C532.364 197.202 535.594 197.408 537.461 196.917C537.62 196.869 537.746 196.759 537.794 196.584C537.841 196.426 537.794 196.252 537.683 196.125C533.156 191.184 527.758 192.356 526.524 192.72C525.637 191.802 524.687 190.851 523.69 189.885C527.347 191.01 531.715 190.376 533.821 189.284C533.979 189.204 534.074 189.046 534.074 188.872C534.074 188.698 533.995 188.539 533.837 188.444C527.98 184.928 522.804 187.415 521.711 188.001C520.382 186.765 518.973 185.498 517.517 184.247C521.015 185.926 525.558 185.768 527.822 184.849C527.98 184.786 528.091 184.643 528.106 184.469C528.122 184.295 528.059 184.137 527.932 184.026C521.933 179.354 515.95 182.394 515.886 182.426C515.839 182.442 515.807 182.474 515.776 182.505C515.728 182.553 515.696 182.616 515.665 182.68C515.079 182.189 514.478 181.698 513.876 181.223C513.876 181.223 513.876 181.207 513.86 181.191C513.813 181.112 513.734 181.064 513.654 181.032C512.705 180.272 511.739 179.528 510.758 178.799C510.568 178.657 510.299 178.673 510.14 178.847C510.14 178.847 510.109 178.879 510.093 178.894C509.935 179.1 509.982 179.401 510.188 179.56C511.09 180.241 511.992 180.937 512.879 181.634C512.246 183.044 510.473 188.048 514.351 193.227C514.446 193.354 514.62 193.433 514.778 193.417L514.794 193.48Z" fill="white"/>
</g>
</g>
<path d="M521.743 207.164L415.704 217.853C409.831 218.439 405.51 223.729 406.112 229.604L409.768 265.887C412.396 264.018 415.53 262.783 418.965 262.45C429.602 261.373 439.084 269.134 440.16 279.76C441.236 290.387 433.48 299.889 422.843 300.966C419.408 301.314 416.1 300.728 413.14 299.43L416.796 335.712C417.382 341.588 422.669 345.911 428.541 345.309L534.581 334.619C540.453 334.034 544.774 328.744 544.173 322.868L533.488 216.777C532.903 210.901 527.616 206.578 521.743 207.179V207.164Z" fill="#407BFF"/>
<g opacity="0.3">
<path d="M521.743 207.164L415.704 217.853C409.831 218.439 405.51 223.729 406.112 229.604L409.768 265.887C412.396 264.018 415.53 262.783 418.965 262.45C429.602 261.373 439.084 269.134 440.16 279.76C441.236 290.387 433.48 299.889 422.843 300.966C419.408 301.314 416.1 300.728 413.14 299.43L416.796 335.712C417.382 341.588 422.669 345.911 428.541 345.309L534.581 334.619C540.453 334.034 544.774 328.744 544.173 322.868L533.488 216.777C532.903 210.901 527.616 206.578 521.743 207.179V207.164Z" fill="black"/>
</g>
<path d="M550.71 239.693L545.803 237.555L534.28 240.516C532.95 240.849 531.779 241.625 530.956 242.718L528.518 245.885C527.41 247.326 527.489 249.369 528.724 250.715L531.478 253.74C532.855 255.245 535.166 255.387 536.718 254.057L542.97 248.688C542.97 248.688 550.473 245.077 550.71 239.693Z" fill="white"/>
<path d="M450.781 219.912L455.878 219.263C457.287 219.089 458.411 218.012 458.648 216.618L459.345 212.564C459.693 210.505 458.031 208.652 455.942 208.811L449.99 209.238C448.264 209.365 446.935 210.838 446.998 212.564L447.156 216.824C447.22 218.709 448.898 220.15 450.781 219.912Z" fill="white"/>
<path d="M530.101 103.526C517.533 109.861 495.451 106.963 495.451 106.963C495.451 106.963 507.766 86.8183 530.101 103.526Z" fill="#263238"/>
<path d="M308.937 505.358L302.621 538.235L286.618 534.371L292.949 501.478L308.937 505.358Z" fill="white"/>
<path d="M287.124 527.656L304.9 531.521C305.486 531.647 305.866 532.154 305.803 532.74L304.568 545.806C304.441 547.168 303.048 548.165 301.703 547.848C296.115 546.518 294.437 545.711 287.377 544.158C279.115 542.353 276.186 542.844 266.515 540.722C260.658 539.439 260.927 533.294 263.539 533.279C271.833 533.231 279.035 530.665 283.309 528.005C284.433 527.308 285.874 527.403 287.093 527.672L287.124 527.656Z" fill="#263238"/>
<g opacity="0.2">
<path d="M308.952 505.358L305.692 522.319L289.688 518.439L292.949 501.494L308.952 505.358Z" fill="black"/>
</g>
<path d="M336.764 378.662C355.522 323.454 370.385 258.349 370.385 258.349L316.883 254.975C316.883 254.975 309 339.513 304.9 378.472C300.626 418.983 287.33 510.457 287.33 510.457L311.469 515.351C311.469 515.351 334.121 429.182 336.78 378.678L336.764 378.662Z" fill="#263238"/>
<g opacity="0.2">
<path d="M345.692 289.025L358.672 305.083C355.363 317.484 351.501 331.42 347.243 345.658C343.191 315.583 345.676 289.025 345.676 289.025H345.692Z" fill="#263238"/>
</g>
<path d="M287.662 513.846L309.791 518.693C310.694 518.898 311.612 518.376 311.913 517.489L314.366 510.347C314.714 509.317 314.113 508.209 313.052 507.971L289.024 502.317C287.931 502.064 286.855 502.84 286.776 503.98L286.222 511.93C286.159 512.833 286.776 513.656 287.662 513.846Z" fill="#263238"/>
<g opacity="0.1">
<path d="M287.662 513.846L309.791 518.693C310.694 518.898 311.612 518.376 311.913 517.489L314.366 510.347C314.714 509.317 314.113 508.209 313.052 507.971L289.024 502.317C287.931 502.064 286.855 502.84 286.776 503.98L286.222 511.93C286.159 512.833 286.776 513.656 287.662 513.846Z" fill="white"/>
</g>
<path d="M396.947 504.218L397.944 538.14L381.719 537.919L380.722 503.98L396.947 504.218Z" fill="white"/>
<path d="M381.323 530.95L398.577 531.204C399.178 531.204 399.637 531.631 399.701 532.217L401.094 545.267C401.236 546.613 400.065 547.88 398.688 547.833C392.942 547.643 391.137 547.183 383.919 547.057C375.466 546.93 373.646 547.991 363.721 547.833C357.722 547.738 356.772 541.672 359.337 541.134C367.457 539.439 374.01 535.48 377.667 532.027C378.632 531.125 380.057 530.919 381.307 530.95H381.323Z" fill="#263238"/>
<g opacity="0.2">
<path d="M396.947 504.218L397.469 521.717L381.228 521.48L380.722 503.996L396.947 504.218Z" fill="black"/>
</g>
<path d="M392.91 377.553C388.335 319.463 392.214 288.138 385.455 259.299L336.764 256.274C336.764 256.274 351.881 341.635 360.239 380.246C368.628 419.015 377.556 512.643 377.556 512.643L401.489 512.944C401.489 512.944 404.418 422.863 392.926 377.553H392.91Z" fill="#263238"/>
<path d="M377.603 516.951L400.239 517.299C401.22 517.299 402.028 516.555 402.091 515.589L402.582 508.114C402.645 507.084 401.854 506.197 400.809 506.166L376.163 505.405C374.992 505.374 374.089 506.435 374.311 507.591L375.83 515.478C375.989 516.333 376.733 516.951 377.603 516.966V516.951Z" fill="#263238"/>
<g opacity="0.1">
<path d="M377.603 516.951L400.239 517.299C401.22 517.299 402.028 516.555 402.091 515.589L402.582 508.114C402.645 507.084 401.854 506.197 400.809 506.166L376.163 505.405C374.992 505.374 374.089 506.435 374.311 507.591L375.83 515.478C375.989 516.333 376.733 516.951 377.603 516.966V516.951Z" fill="white"/>
</g>
<path d="M335.197 166.938C333.314 170.976 331.382 174.555 329.261 178.261C327.14 181.903 324.892 185.514 322.423 189.046C319.97 192.578 317.31 196.046 314.255 199.419C311.153 202.792 307.845 206.118 302.89 209.032L302.336 209.349C300.373 210.505 298.078 210.679 296.068 210.046C292.997 209.048 289.989 207.924 287.077 206.72C284.148 205.516 281.299 204.186 278.497 202.808C275.696 201.399 272.957 199.926 270.266 198.358C267.559 196.759 264.963 195.159 262.336 193.274C260.136 191.707 259.629 188.634 261.196 186.433C262.399 184.754 264.457 184.057 266.341 184.517L266.515 184.564C269.348 185.261 272.261 186.069 275.126 186.829L283.689 189.093C286.523 189.87 289.372 190.519 292.174 191.216C294.975 191.897 297.777 192.451 300.531 193.037L293.709 194.05C295.609 192.673 297.951 190.091 300.104 187.383C302.257 184.596 304.346 181.523 306.372 178.356C308.367 175.157 310.33 171.879 312.197 168.521C314.065 165.211 315.965 161.696 317.643 158.496L317.738 158.306C320.239 153.539 326.143 151.718 330.892 154.22C335.498 156.644 337.35 162.281 335.197 166.953V166.938Z" fill="white"/>
<path d="M339.091 139.254C320.191 141.408 305.882 170.691 305.882 170.691L325.383 191.453C325.383 191.453 334.073 181.08 343.397 167.999C353.559 153.729 354.034 137.56 339.075 139.254H339.091Z" fill="#407BFF"/>
<path d="M336.764 143.641C344.03 141.06 376.574 145.225 376.574 145.225C370.211 153.397 364.956 221.068 364.37 259.964C357.453 260.914 330.939 259.093 324.782 257.668C325.589 242.401 331.952 170.786 336.764 143.641Z" fill="white"/>
<path d="M315.759 164.166C317.469 149.596 329.91 138.748 344.584 138.732C357.421 138.732 372.19 140.426 385.043 143.198C393.733 145.067 399.178 153.745 397.121 162.408C387.101 204.455 389.744 244.364 387.069 262.91C387.069 262.91 374.2 268.31 357.247 267.74C357.247 267.74 357.485 251.729 359.716 224.679C361.489 203.188 364.687 152.668 371.224 144.259C371.224 144.259 347.734 141.06 340.468 143.641C335.071 174.127 331.113 266.473 331.113 266.489C319.621 265.665 314.224 259.267 314.382 257.367C312.087 219.944 313.211 186.069 315.775 164.166H315.759Z" fill="#407BFF"/>
<path d="M372.063 117.399C369.879 123.75 367.314 134.963 371.398 141.266C372.237 142.564 371.873 144.069 370.401 144.877C365.209 147.743 358.545 150.325 348.794 149.533C338.585 148.693 339.329 144.101 341.909 141.092C342.447 140.458 343.318 140.015 344.315 139.888C353.971 138.732 354.065 132.92 352.673 127.282L372.063 117.384V117.399Z" fill="white"/>
<g opacity="0.2">
<path d="M364.164 121.438L352.688 127.298C353.037 128.691 353.29 130.085 353.321 131.431C357.485 131.431 363.42 128.628 364.101 125.413C364.449 123.813 364.465 122.246 364.18 121.438H364.164Z" fill="black"/>
</g>
<path d="M356.756 95.3861C356.329 101.103 352.514 105.474 348.256 105.157C343.998 104.841 340.88 99.9471 341.323 94.23C341.766 88.5128 345.565 84.1418 349.823 84.4586C354.081 84.7753 357.2 89.6689 356.756 95.3861Z" fill="#263238"/>
<path d="M378.284 100.09C376.163 112.601 375.546 120.028 368.612 125.825C358.181 134.551 343.539 127.187 341.956 114.311C340.516 102.719 344.22 84.221 356.867 80.4835C369.309 76.8093 380.405 87.5943 378.284 100.09Z" fill="white"/>
<path d="M375.561 110.653C375.403 110.621 375.213 110.447 375.039 110.542C369.356 113.694 367.536 106.9 367.884 102.37C368.106 99.5353 369.594 96.3838 372.063 94.6259C365.921 95.3227 359.986 91.3635 359.875 87.6734C353.084 90.6666 344.9 90.9359 341.212 84.5061C337.524 78.0762 342.795 69.9044 349.823 72.1057C346.974 67.0062 359.02 56.7913 371.636 71.8365C372.031 60.9248 389.665 71.7731 386.768 82.5739C394.952 85.3929 401.933 100.913 388.082 104.223C387.164 118.603 375.546 110.653 375.546 110.653H375.561Z" fill="#263238"/>
<path d="M382.241 114.581C380.073 117.209 377.113 118.619 374.58 118.904C370.781 119.316 369.942 115.467 371.889 111.952C373.646 108.784 377.73 104.762 381.117 105.981C384.457 107.185 384.726 111.587 382.241 114.581Z" fill="white"/>
<path d="M360.16 101.04C360.065 102.069 359.447 102.861 358.767 102.798C358.086 102.734 357.611 101.848 357.706 100.802C357.801 99.7571 358.418 98.981 359.099 99.0444C359.78 99.1077 360.255 99.9946 360.16 101.04Z" fill="#263238"/>
<path d="M347.908 99.662C347.813 100.691 347.196 101.483 346.515 101.42C345.834 101.357 345.359 100.47 345.454 99.4245C345.549 98.3792 346.167 97.6032 346.847 97.6666C347.528 97.7299 348.003 98.6168 347.908 99.662Z" fill="#263238"/>
<path d="M352.688 100.264C352.688 100.264 349.823 105.997 346.974 108.626C348.652 110.51 351.834 110.035 351.834 110.035L352.688 100.28V100.264Z" fill="#FFF7F7"/>
<path d="M355.015 115.056C358.988 115.309 361.284 112.965 361.394 112.854C361.505 112.728 361.505 112.538 361.394 112.427C361.284 112.316 361.078 112.316 360.967 112.427C360.935 112.458 358.244 115.166 353.796 114.28C353.638 114.248 353.48 114.359 353.448 114.517C353.416 114.676 353.527 114.85 353.686 114.881C354.145 114.976 354.604 115.024 355.031 115.056H355.015Z" fill="#263238"/>
<path d="M364.212 98.5534C364.307 98.5534 364.418 98.5534 364.513 98.5059C364.813 98.3792 364.956 98.015 364.829 97.6982C363.468 94.5942 360.698 94.0874 360.587 94.0716C360.255 94.0082 359.938 94.2458 359.891 94.5625C359.843 94.8951 360.065 95.2118 360.397 95.2593C360.492 95.2752 362.645 95.6869 363.721 98.1733C363.816 98.3792 364.006 98.5217 364.212 98.5376V98.5534Z" fill="#263238"/>
<path d="M342.763 94.61C342.953 94.6576 343.159 94.61 343.318 94.4834C345.344 92.7254 347.465 93.3114 347.544 93.3273C347.86 93.4223 348.209 93.2322 348.288 92.9155C348.367 92.5987 348.193 92.2503 347.876 92.1553C347.765 92.1236 345.059 91.3635 342.51 93.549C342.257 93.7707 342.225 94.1508 342.447 94.4042C342.526 94.4992 342.637 94.5625 342.748 94.5942L342.763 94.61Z" fill="#263238"/>
<path d="M400.904 161.553C401.917 163.564 402.772 165.29 403.595 167.191C404.418 169.044 405.225 170.897 406.001 172.781C407.568 176.519 408.961 180.32 410.259 184.168C412.839 191.865 414.928 199.799 416.305 208.034L416.749 211.154L416.954 212.706L417.002 213.102L417.065 213.799C417.097 214.306 417.129 214.813 417.144 215.32C417.065 218.962 416.258 221.433 415.451 223.745C413.773 228.258 411.683 231.917 409.467 235.448C407.251 238.964 404.877 242.258 402.376 245.41C399.875 248.593 397.311 251.586 394.43 254.548C392.546 256.48 389.459 256.527 387.528 254.643C385.993 253.138 385.645 250.874 386.531 249.036L386.594 248.91C389.871 242.084 393.337 235.179 396.108 228.448C396.82 226.77 397.453 225.091 398.007 223.46C398.577 221.844 399.068 220.245 399.384 218.804C399.701 217.41 399.764 216.048 399.669 215.795C399.653 215.795 399.622 215.842 399.622 215.858C399.622 215.842 399.622 215.937 399.622 215.826L399.542 215.494L399.242 214.179L398.64 211.566C396.867 204.582 394.604 197.582 391.96 190.645C390.694 187.161 389.254 183.725 387.861 180.288C387.164 178.562 386.42 176.851 385.676 175.173L383.476 170.232L383.349 169.947C381.149 165.037 383.349 159.272 388.256 157.071C393.005 154.933 398.577 156.96 400.92 161.553H400.904Z" fill="white"/>
<path d="M386.658 143.641C407.742 148.963 413.599 175.933 413.599 175.933L387.417 194.731C387.417 194.731 380.927 187.937 378.98 171.974C378.047 164.356 382.4 143.451 386.673 143.657L386.658 143.641Z" fill="#407BFF"/>
<path d="M389.903 245.853L377.714 250.398L387.037 262.91C387.037 262.91 397.58 257.446 395.585 251.38L389.903 245.853Z" fill="white"/>
<path d="M368.565 252.188C365.162 251.618 361.822 251.982 358.783 253.075L364.829 217.109C365.811 211.281 361.853 205.722 356.028 204.74L250.923 187.035C245.098 186.053 239.542 190.012 238.56 195.84L232.514 231.806C235.553 230.713 238.893 230.349 242.296 230.919C252.838 232.693 259.93 242.686 258.157 253.217C256.384 263.749 246.396 270.86 235.87 269.086C232.466 268.516 229.427 267.075 226.926 265.032L220.879 300.998C219.898 306.826 223.855 312.384 229.68 313.366L334.786 331.072C340.611 332.054 346.167 328.095 347.148 322.267L353.195 286.301C355.696 288.328 358.735 289.769 362.138 290.355C372.68 292.129 382.653 285.018 384.426 274.486C386.199 263.939 379.091 253.962 368.565 252.188Z" fill="#407BFF"/>
<g opacity="0.6">
<path d="M368.565 252.188C365.162 251.618 361.822 251.982 358.783 253.075L364.829 217.109C365.811 211.281 361.853 205.722 356.028 204.74L250.923 187.035C245.098 186.053 239.542 190.012 238.56 195.84L232.514 231.806C235.553 230.713 238.893 230.349 242.296 230.919C252.838 232.693 259.93 242.686 258.157 253.217C256.384 263.749 246.396 270.86 235.87 269.086C232.466 268.516 229.427 267.075 226.926 265.032L220.879 300.998C219.898 306.826 223.855 312.384 229.68 313.366L334.786 331.072C340.611 332.054 346.167 328.095 347.148 322.267L353.195 286.301C355.696 288.328 358.735 289.769 362.138 290.355C372.68 292.129 382.653 285.018 384.426 274.486C386.199 263.939 379.091 253.962 368.565 252.188Z" fill="white"/>
</g>
<path d="M372.016 262.656L376.02 266.489C377.619 268.009 380.089 268.152 381.846 266.837L387.053 262.926L377.73 250.414L371.937 256.226C370.148 258.016 370.195 260.93 372.016 262.672V262.656Z" fill="white"/>
<path d="M254.738 190.36L256.21 184.944C256.527 183.788 257.856 182.885 259.312 182.854C261.449 182.79 263.523 183.107 265.359 183.788L273.59 186.829L273.195 190.186C272.862 193.069 269.649 195.492 265.992 195.587C262.304 195.698 258.727 194.795 258.727 194.795L257.84 194.605C255.513 194.114 254.184 192.308 254.722 190.329L254.738 190.36Z" fill="white"/>
<path d="M125.018 115.832C130.289 109.687 138.236 93.7707 123.309 87.6894C112.308 83.2075 88.9596 85.488 75.5523 106.393C66.3873 109.497 63.6805 129.958 84.8599 134.234C106.039 138.526 125.034 115.832 125.034 115.832H125.018Z" fill="#263238"/>
<path d="M172.838 508.81L148.651 510.822L152.751 539.265L172.965 537.618L172.838 508.81Z" fill="white"/>
<g opacity="0.2">
<path d="M172.838 508.826L148.635 510.838L150.931 526.77L172.917 524.964L172.838 508.826Z" fill="black"/>
</g>
<path d="M126.601 425.08C117.167 388.687 92.5053 345.309 108.097 310.262L175.861 310.041C175.861 310.041 177.539 382.178 177.998 416.227C178.489 451.623 175.434 518.518 175.434 518.518L147.717 520.625C147.717 520.625 128.801 465.94 126.585 425.096L126.601 425.08Z" fill="#407BFF"/>
<path d="M146.419 521.702L176.384 519.5C176.906 519.469 177.318 519.041 177.349 518.519L177.998 507.401C178.03 506.736 177.46 506.213 176.811 506.292L143.57 510.711C142.937 510.79 142.525 511.424 142.699 512.057L145.327 520.957C145.47 521.433 145.913 521.749 146.403 521.702H146.419Z" fill="#263238"/>
<g opacity="0.2">
<path d="M107.86 344.724C107.543 353.133 107.986 361.78 108.904 370.49C112.213 381.94 116.439 393.406 120.238 404.524C125.208 373.04 125.224 336.346 107.86 344.724Z" fill="black"/>
</g>
<path d="M83.3086 510.584L59.0267 510.822L58.9951 539.487L79.288 539.328L83.3086 510.584Z" fill="white"/>
<path d="M57.0798 535.084C57.1589 534.419 57.9345 533.912 58.5044 534.134C64.5828 536.557 76.138 534.704 80.5227 533.864C81.599 533.659 82.5646 533.896 83.3244 534.435C87.9782 537.745 94.8322 539.756 94.8322 539.756C94.8322 539.756 96.3993 543.889 95.4495 547.057H54.5154C54.5154 547.057 56.4466 540.611 57.0798 535.068V535.084Z" fill="#263238"/>
<path d="M150.076 535.084C150.155 534.419 150.931 533.912 151.5 534.134C157.579 536.557 169.134 534.704 173.519 533.864C174.595 533.659 175.561 533.896 176.32 534.435C180.974 537.745 193.384 539.756 193.384 539.756C193.384 539.756 194.951 543.889 194.002 547.057H147.527C147.527 547.057 149.458 540.611 150.092 535.068L150.076 535.084Z" fill="#263238"/>
<g opacity="0.2">
<path d="M83.3086 510.6L59.0109 510.838L58.9951 526.88L81.0608 526.69L83.3086 510.6Z" fill="black"/>
</g>
<path d="M55.6077 413.298C52.3152 376.508 41.9946 326.954 53.724 310.041H133.012C133.012 310.041 116.85 383.397 110.234 417.352C103.348 452.652 83.546 520.451 83.546 520.451L57.2855 520.514C57.2855 520.514 47.2657 455.297 55.6235 413.298H55.6077Z" fill="#407BFF"/>
<g opacity="0.2">
<path d="M60.3723 512.991C60.024 512.991 59.7233 512.77 59.6125 512.421C57.713 506.055 57.9821 433.316 62.7466 413.393C62.6991 410.764 62.1926 405.585 61.5594 399.06C59.3909 376.92 55.3703 335.728 61.3695 312.337C61.4803 311.909 61.9077 311.656 62.3351 311.767C62.7625 311.878 63.0157 312.305 62.9049 312.733C56.969 335.839 60.9738 376.857 63.1265 398.902C63.7755 405.553 64.282 410.795 64.3295 413.456C64.3295 413.519 64.3295 413.583 64.3137 413.646C59.7549 432.508 59.3117 505.817 61.1321 511.946C61.2587 512.358 61.0213 512.801 60.5939 512.928C60.5147 512.944 60.4356 512.96 60.3723 512.96V512.991Z" fill="white"/>
</g>
<path d="M55.4494 521.496H85.2081C85.6988 521.496 86.1103 521.147 86.2053 520.672L88.1681 510.109C88.2948 509.428 87.7407 508.81 87.0443 508.826L54.6579 510.267C54.0881 510.299 53.6448 510.774 53.6923 511.36L54.3572 520.498C54.4046 521.068 54.8795 521.512 55.4494 521.512V521.496Z" fill="#263238"/>
<path d="M159.953 181.904C161.568 188.191 162.992 194.51 164.401 200.829C165.762 207.163 167.14 213.498 168.374 219.865L170.258 229.399L172.031 238.964C173.25 245.331 174.326 251.729 175.434 258.127L172.854 252.346C173.202 253.233 173.471 254.199 174.959 255.276C176.352 256.337 178.774 257.414 181.671 258.048C184.567 258.76 187.923 259.14 191.421 259.33C193.178 259.41 194.983 259.473 196.803 259.457C197.721 259.457 198.624 259.457 199.542 259.441C200.412 259.441 201.457 259.394 202.106 259.441L204.354 259.584C209.166 259.901 212.822 264.082 212.506 268.896C212.3 271.968 210.48 274.597 207.979 275.991C206.696 276.688 205.81 277.21 204.734 277.765C203.689 278.287 202.644 278.794 201.6 279.269C199.478 280.188 197.31 281.059 195.078 281.787C192.83 282.5 190.519 283.165 188.129 283.656C185.723 284.131 183.238 284.495 180.642 284.701C178.046 284.907 175.323 284.844 172.49 284.575C169.656 284.305 166.68 283.767 163.657 282.706C160.634 281.676 157.547 280.251 154.619 278.24C151.69 276.26 149.079 273.71 146.831 270.907C145.849 269.672 145.153 268.31 144.741 266.885L144.251 265.127C142.494 258.887 140.721 252.647 139.075 246.392L136.558 237L134.152 227.593C132.521 221.322 131.049 215.019 129.545 208.731C128.089 202.428 126.665 196.109 125.414 189.759V189.727C123.515 180.114 129.767 170.786 139.359 168.886C148.619 167.064 157.642 172.861 159.969 181.888L159.953 181.904Z" fill="white"/>
<path d="M200.982 260.962L201.315 271.192C205.446 281.122 217.286 273.584 217.286 273.584L224.441 272.269C226.863 271.826 228.588 269.403 228.525 266.552L228.351 259.394C228.272 256.131 225.881 253.503 223.064 253.55L216.716 253.661C214.864 253.693 213.06 254.184 211.445 255.086L200.998 260.946L200.982 260.962Z" fill="white"/>
<path d="M147.828 164.261C162.391 171.926 171.888 198.976 171.888 198.976C168.817 211.582 156.455 234.752 144.979 234.593C144.979 234.593 128.152 212.881 126.316 197.17C124.116 178.182 118.354 148.757 147.812 164.245L147.828 164.261Z" fill="#263238"/>
<path d="M134.357 159.763C114.334 157.673 87.5983 157.926 66.8463 160.84C53.8981 162.662 44.7489 170.723 46.316 197.265C49.4976 251.095 44.5748 293.079 51.4288 312.432C51.4288 312.432 151.01 340.986 179.407 313.62C186.309 248.831 163.087 195.048 152.482 172.655C149.094 165.496 142.24 160.587 134.357 159.763Z" fill="#263238"/>
<path d="M126.886 165.655C124.306 163.121 121.615 164.594 120.349 160.793C119.795 158.053 120.19 155.171 121.773 152.019L91.0491 135.438C91.6506 146.745 92.1096 155.678 87.1076 160.175C85.6513 168.601 101.275 177.01 122.248 177.137C135.576 177.216 130.606 169.313 126.886 165.671V165.655Z" fill="white"/>
<g opacity="0.2">
<path d="M121.314 152.969L97.0483 146.904C103.174 156.549 114.223 161.838 120.143 159.494C119.953 157.42 120.317 155.282 121.298 152.969H121.314Z" fill="black"/>
</g>
<path d="M111.279 97.6349C95.2279 94.0874 81.3616 107.406 84.4641 121.961C87.5666 136.499 90.0202 146.318 100.072 151.259C120.048 161.094 129.799 151.607 131.429 136.404C132.901 122.721 127.567 101.246 111.279 97.6349Z" fill="white"/>
<g opacity="0.2">
<path d="M108.129 123.465C108.129 123.465 104.852 122.61 102.573 124.273C105.675 124.431 108.129 123.465 108.129 123.465Z" fill="black"/>
</g>
<g opacity="0.2">
<path d="M108.239 124.795C108.239 124.795 105.153 124.653 103.554 126.759C106.324 126.268 108.239 124.795 108.239 124.795Z" fill="black"/>
</g>
<path d="M86.4903 134.234C95.4654 136.261 99.1852 131.764 99.1852 126.712C99.1852 121.359 94.1357 112.332 88.5956 110.653C90.5742 98.7911 123.293 115.404 120.19 98.9495C120.19 98.9495 119.288 96.1305 110.851 94.5468C102.414 92.9631 79.8104 98.0626 81.3933 114.961C82.9762 131.859 86.4903 134.234 86.4903 134.234Z" fill="#263238"/>
<path d="M75.0616 107.216C78.7498 100.612 76.8187 92.963 76.8187 92.963C76.8187 92.963 86.6644 99.472 75.0616 107.216Z" fill="#263238"/>
<path d="M116.344 138.748C116.977 138.7 117.642 138.605 118.338 138.447C118.56 138.399 118.687 138.178 118.639 137.972C118.592 137.75 118.37 137.608 118.164 137.671C112.308 138.985 108.651 135.533 108.619 135.485C108.461 135.327 108.208 135.327 108.05 135.485C107.891 135.644 107.891 135.897 108.05 136.055C108.192 136.198 111.247 139.096 116.328 138.748H116.344Z" fill="#263238"/>
<path d="M80.8076 134.947C82.992 137.988 86.3953 139.714 89.4503 140.141C94.0407 140.791 95.7661 136.515 94.0091 132.492C92.4262 128.865 88.1206 124.178 83.736 125.381C79.4146 126.569 78.3066 131.479 80.8076 134.947Z" fill="white"/>
<path d="M110.74 123.608C110.915 124.89 111.754 125.825 112.592 125.714C113.431 125.587 113.97 124.447 113.78 123.164C113.606 121.881 112.767 120.947 111.928 121.074C111.089 121.2 110.55 122.341 110.74 123.623V123.608Z" fill="#263238"/>
<path d="M125.826 121.596C126 122.879 126.839 123.814 127.678 123.687C128.517 123.56 129.055 122.42 128.865 121.137C128.675 119.854 127.852 118.92 127.013 119.031C126.174 119.157 125.636 120.298 125.826 121.581V121.596Z" fill="#263238"/>
<path d="M120.19 123.275L120.919 134.155C120.919 134.155 124.48 134.757 126.411 132.714C124.828 127.234 120.19 123.275 120.19 123.275Z" fill="white"/>
<path d="M105.77 120.662C105.644 120.694 105.517 120.694 105.39 120.662C104.979 120.551 104.757 120.123 104.868 119.728C106.008 115.642 109.348 114.533 109.49 114.486C109.886 114.359 110.313 114.581 110.44 114.976C110.566 115.372 110.345 115.8 109.949 115.943C109.838 115.974 107.242 116.877 106.34 120.139C106.261 120.409 106.039 120.614 105.786 120.678L105.77 120.662Z" fill="#263238"/>
<path d="M130.78 115.832C130.527 115.832 130.289 115.737 130.131 115.531C128.152 112.823 125.398 112.933 125.287 112.949C124.876 112.965 124.512 112.648 124.496 112.237C124.48 111.825 124.797 111.461 125.208 111.429C125.367 111.429 128.881 111.239 131.366 114.628C131.619 114.961 131.54 115.452 131.192 115.689C131.065 115.784 130.923 115.832 130.78 115.832Z" fill="#263238"/>
<path d="M223.064 219.39C219.613 219.659 216.463 220.831 213.788 222.636L210.923 186.29C210.464 180.399 205.272 175.965 199.383 176.44L93.1385 184.833C87.2501 185.293 82.8179 190.487 83.2928 196.379L91.6822 302.676C92.1413 308.568 97.3332 313.002 103.222 312.527L209.467 304.133C215.355 303.674 219.787 298.48 219.312 292.588L216.447 256.242C219.376 257.604 222.668 258.269 226.119 257.984C236.772 257.145 244.718 247.817 243.879 237.159C243.04 226.5 233.717 218.55 223.064 219.39Z" fill="#407BFF"/>
<path d="M68.9358 204.851L67.2579 207.765L65.4376 211.028C64.2662 213.245 63.0632 215.462 61.971 217.711C59.7391 222.193 57.7604 226.722 56.0984 231.157C55.2594 233.374 54.5471 235.591 53.9456 237.745C53.2966 239.899 52.8059 242.005 52.4577 244.016C51.7454 248.086 51.6821 251.65 52.1253 254.469L48.4846 248.118C49.4343 249.591 51.4605 251.65 53.9298 253.629C56.3991 255.609 59.28 257.652 62.3509 259.536C65.4059 261.5 68.6667 263.369 71.975 265.254L77.0086 268.073C78.6707 269.023 80.4752 269.973 81.9948 270.876L82.7546 271.335C86.9968 273.901 88.3423 279.412 85.778 283.656C84.0684 286.475 81.0451 288.011 77.9742 287.98C75.5682 287.948 73.5104 287.821 71.2943 287.631C69.1257 287.425 66.973 287.188 64.8044 286.855C60.483 286.206 56.1934 285.272 51.8404 284.068C47.519 282.785 43.1343 281.312 38.7022 279.174C34.27 277.036 29.6954 274.36 25.0892 269.989C23.5854 268.564 22.509 266.837 21.8917 265L21.4326 263.638C18.7417 255.53 18.2193 247.548 18.805 240.358C19.3115 233.089 20.8153 226.421 22.7306 220.102C24.6143 213.768 27.0678 207.829 29.7587 202.096C31.1359 199.245 32.5605 196.426 34.1276 193.67C34.9032 192.293 35.6947 190.915 36.5336 189.553L37.8316 187.494L38.5122 186.449L39.3354 185.245C44.8281 177.153 55.8293 175.03 63.9338 180.526C71.6426 185.752 73.922 195.983 69.3948 203.933L68.8725 204.836L68.9358 204.851Z" fill="white"/>
<path d="M56.5732 164.277C30.3444 178.309 20.562 209.65 20.562 209.65C25.754 219.548 57.0639 230.27 68.825 227.324C68.825 227.324 80.1111 206.768 82.438 188.333C84.5908 171.261 71.9433 156.058 56.5732 164.277Z" fill="#263238"/>
<path d="M74.935 272.649L75.4732 282.864C79.8104 292.715 91.4922 284.939 91.4922 284.939L98.6153 283.482C101.037 282.991 102.715 280.536 102.588 277.686L102.272 270.543C102.129 267.281 99.6917 264.699 96.8583 264.81L90.5108 265.048C88.6588 265.111 86.8701 265.649 85.2714 266.584L74.935 272.649Z" fill="white"/>
<path d="M122.866 277.812L122.169 268.009L131.397 267.344L130.733 258.111L121.504 258.776L120.808 248.973L130.036 248.308L127.108 207.338L156.518 205.231C165.826 204.566 173.313 206.419 179.011 210.806C184.694 215.193 187.812 221.084 188.335 228.464C188.857 235.844 186.625 242.116 181.623 247.279C176.621 252.426 169.466 255.34 160.159 256.005L141.132 257.367L141.797 266.6L170.638 264.541L171.334 274.344L142.494 276.403L143.285 287.362L132.901 288.106L132.11 277.147L122.881 277.812H122.866ZM140.42 247.548L159.447 246.186C165.905 245.727 170.685 243.969 173.788 240.928C176.89 237.887 178.283 233.975 177.935 229.209C177.587 224.442 175.671 220.767 172.157 218.202C168.643 215.636 163.673 214.575 157.199 215.034L138.172 216.396L140.404 247.564L140.42 247.548Z" fill="#263238"/>
<path d="M258.189 270.21L268.414 272.19C268.683 275.231 269.554 278.066 271.01 280.71C274.271 286.602 279.985 290.355 288.153 291.939C294.659 293.206 299.851 292.873 303.713 290.957C307.575 289.041 309.902 286.111 310.662 282.167C311.311 278.842 310.456 275.928 308.114 273.425C305.771 270.923 302.241 268.468 297.524 266.061C296.669 265.586 295.292 264.889 293.393 263.971C291.493 263.052 290.005 262.324 288.929 261.801C287.852 261.278 286.428 260.534 284.655 259.552C282.882 258.586 281.473 257.731 280.428 257.018C279.384 256.306 278.149 255.403 276.709 254.294C275.268 253.186 274.16 252.172 273.353 251.222C272.546 250.288 271.707 249.163 270.82 247.849C269.934 246.534 269.332 245.22 269 243.905C268.667 242.591 268.446 241.134 268.319 239.534C268.193 237.935 268.319 236.272 268.636 234.53C269.728 228.923 272.83 224.442 277.959 221.068C283.088 217.695 289.372 216.27 296.812 216.777L298.854 206.213L309.079 208.193L307.037 218.756C315.965 221.749 322.075 227.055 325.383 234.688C326.887 238.283 327.678 241.846 327.789 245.41L317.564 243.43C317.294 241.181 316.487 238.853 315.142 236.478C311.786 231.505 306.594 228.338 299.55 226.976C293.867 225.867 289.182 226.279 285.478 228.195C281.774 230.111 279.558 232.883 278.861 236.509C278.529 238.251 278.703 239.946 279.415 241.561C280.128 243.193 281.062 244.618 282.249 245.822C283.42 247.041 285.161 248.355 287.425 249.781C289.704 251.206 291.73 252.362 293.519 253.265C295.308 254.168 297.682 255.292 300.642 256.654C303.951 258.238 306.816 259.853 309.237 261.5C311.659 263.147 313.955 265.095 316.123 267.312C318.276 269.545 319.78 272.063 320.603 274.898C321.426 277.733 321.521 280.805 320.872 284.147C319.716 290.133 316.44 294.853 311.058 298.337C305.676 301.805 298.933 303.12 290.86 302.265L288.834 312.717L278.608 310.737L280.65 300.174C271.121 297.07 264.457 291.131 260.658 282.389C258.98 278.446 258.157 274.407 258.189 270.242V270.21Z" fill="#263238"/>
<path d="M448.993 289.928L448.217 282.769L454.121 282.12C453.805 280.489 453.615 279.222 453.52 278.319C453.425 277.432 453.346 276.149 453.298 274.486L447.394 275.136L446.618 267.977L453.868 267.186C455.103 259.647 458.49 253.328 464.046 248.213C469.602 243.098 476.409 240.104 484.481 239.218C495.736 237.982 505.043 241.086 512.42 248.514C515.665 251.697 518.197 255.514 520.034 259.932L511.454 260.867C509.776 257.826 507.798 255.324 505.518 253.312C499.899 248.45 493.187 246.455 485.368 247.31C479.654 247.944 474.778 249.939 470.773 253.297C466.769 256.67 464.109 260.962 462.827 266.188L487.616 263.48L488.391 270.638L461.877 273.536C461.925 275.199 462.004 276.482 462.099 277.369C462.194 278.256 462.4 279.523 462.701 281.17L489.214 278.272L489.99 285.43L465.202 288.138C467.592 292.968 471.106 296.579 475.744 299.002C480.382 301.425 485.558 302.312 491.288 301.694C499.234 300.823 505.487 297.181 510.061 290.751C511.897 288.106 513.259 284.971 514.145 281.328L522.725 280.394C521.743 285.525 519.986 290.054 517.453 293.998C511.723 303.31 503.286 308.583 492.159 309.803C484.086 310.69 476.788 309.233 470.267 305.448C463.745 301.663 459.06 296.215 456.226 289.12L448.977 289.912L448.993 289.928Z" fill="white"/>
</g>
<defs>
<clipPath id="clip0_1351_1456">
<rect width="618" height="565" fill="white"/>
</clipPath>
</defs>
</svg>
