<svg width="611" height="598" viewBox="0 0 611 598" fill="none" xmlns="http://www.w3.org/2000/svg">
<path d="M235.461 496.503C235.576 516.439 250.833 532.504 269.527 532.403L276.185 532.36L275.753 460.17L269.095 460.214C250.401 460.329 235.331 476.58 235.461 496.503Z" fill="#E0E0E0"/>
<path d="M301.609 521.636C287.617 535.815 264.781 535.944 250.617 521.938C236.453 507.932 236.323 485.073 250.315 470.894C264.307 456.716 287.142 456.586 301.307 470.592C315.471 484.598 315.6 507.457 301.609 521.636Z" fill="#E6E6E6"/>
<path d="M288.791 522.16C303.079 515.07 308.919 497.727 301.836 483.425C294.753 469.122 277.428 463.276 263.14 470.366C248.853 477.457 243.012 494.799 250.095 509.102C257.179 523.404 274.503 529.25 288.791 522.16Z" fill="#EBEBEB"/>
<path d="M280.484 507.673C278.974 508.81 277.191 509.401 275.149 509.473L275.005 510.423C274.934 510.898 274.689 511.301 274.286 511.603C273.884 511.92 273.438 512.035 272.963 511.963C272.489 511.891 272.115 511.646 271.842 511.243C271.569 510.84 271.468 510.394 271.554 509.89L271.684 509.055C269.929 508.551 268.477 507.76 267.327 506.68C266.162 505.6 265.4 504.42 265.04 503.125C264.882 502.506 264.824 502.016 264.882 501.628C264.954 501.124 265.213 500.721 265.63 500.404C266.047 500.102 266.521 499.987 267.053 500.059C267.485 500.13 267.83 500.303 268.117 500.605C268.405 500.908 268.592 501.268 268.678 501.699C268.822 502.578 269.239 503.34 269.901 503.988C270.576 504.65 271.367 505.154 272.288 505.5L273.682 497.453C271.698 496.46 270.188 495.337 269.167 494.099C268.132 492.861 267.758 491.378 268.017 489.637C268.29 487.881 269.11 486.499 270.504 485.477C271.899 484.469 273.668 483.994 275.811 484.037L275.926 483.245C275.998 482.77 276.228 482.367 276.63 482.065C277.019 481.748 277.45 481.633 277.896 481.705C278.37 481.777 278.759 482.022 279.061 482.439C279.363 482.857 279.463 483.303 279.391 483.778L279.276 484.527C281.275 485.045 282.785 485.865 283.777 486.988C284.769 488.125 285.158 489.421 284.942 490.875C284.856 491.422 284.611 491.853 284.209 492.17C283.806 492.487 283.346 492.602 282.843 492.516C282.397 492.444 282.023 492.242 281.764 491.911C281.491 491.58 281.376 491.177 281.39 490.716C281.39 490.184 281.16 489.651 280.686 489.162C280.211 488.658 279.55 488.255 278.687 487.953L277.436 495.092C281.75 497.28 283.662 500.001 283.159 503.268C282.886 505.053 281.994 506.507 280.484 507.645V507.673ZM272.129 491.782C272.561 492.343 273.294 492.947 274.33 493.566L275.293 487.506C274.215 487.506 273.366 487.737 272.748 488.168C272.129 488.6 271.756 489.19 271.641 489.953C271.54 490.601 271.698 491.22 272.129 491.782ZM278.342 504.996C279.061 504.434 279.478 503.758 279.607 502.952C279.708 502.304 279.55 501.656 279.132 501.009C278.715 500.361 277.939 499.713 276.817 499.051L275.71 505.989C276.745 505.888 277.637 505.557 278.342 505.01V504.996Z" fill="#FAFAFA"/>
<path d="M256.326 474.393C268.405 463.553 286.97 464.561 297.798 476.638C308.626 488.73 307.619 507.313 295.555 518.152C305.333 506.968 305.232 490.227 295.31 479.157C284.482 467.066 265.903 466.058 253.838 476.912C254.615 476.019 255.449 475.184 256.326 474.393Z" fill="#E0E0E0"/>
<path d="M437.816 399.612C439.383 414.179 451.736 424.788 465.397 423.305L470.257 422.773L464.563 370.016L459.702 370.549C446.041 372.031 436.234 385.03 437.816 399.597V399.612Z" fill="#E0E0E0"/>
<path d="M488.06 413.042C478.885 424.457 462.204 426.256 450.801 417.073C439.398 407.889 437.6 391.191 446.774 379.776C455.949 368.361 472.63 366.562 484.033 375.745C495.436 384.929 497.234 401.627 488.06 413.042Z" fill="#E6E6E6"/>
<path d="M470.51 417.45C482.105 415.726 490.108 404.919 488.386 393.312C486.663 381.705 475.867 373.694 464.273 375.418C452.678 377.142 444.674 387.949 446.397 399.556C448.12 411.163 458.915 419.174 470.51 417.45Z" fill="#EBEBEB"/>
<path d="M471.58 404.405C470.559 405.341 469.308 405.917 467.813 406.118L467.784 406.824C467.769 407.184 467.626 407.486 467.338 407.745C467.065 408.004 466.748 408.119 466.389 408.105C466.029 408.091 465.742 407.947 465.512 407.673C465.282 407.4 465.181 407.068 465.195 406.709L465.224 406.09C463.916 405.859 462.78 405.384 461.859 404.679C460.925 403.974 460.292 403.167 459.918 402.246C459.745 401.814 459.673 401.455 459.688 401.167C459.702 400.792 459.86 400.476 460.148 400.217C460.436 399.957 460.766 399.842 461.169 399.857C461.485 399.871 461.759 399.986 461.989 400.173C462.219 400.375 462.391 400.62 462.478 400.922C462.65 401.555 463.01 402.073 463.542 402.505C464.074 402.937 464.706 403.239 465.397 403.427L465.814 397.438C464.289 396.863 463.11 396.143 462.262 395.322C461.413 394.487 461.025 393.437 461.097 392.141C461.169 390.831 461.672 389.766 462.607 388.917C463.542 388.082 464.807 387.592 466.389 387.463L466.418 386.873C466.432 386.513 466.576 386.211 466.849 385.951C467.108 385.692 467.41 385.577 467.755 385.592C468.115 385.606 468.416 385.764 468.661 386.038C468.905 386.326 469.02 386.642 469.006 387.002L468.977 387.564C470.487 387.794 471.638 388.283 472.457 389.032C473.277 389.78 473.651 390.702 473.593 391.781C473.579 392.199 473.421 392.53 473.148 392.789C472.874 393.048 472.544 393.163 472.17 393.149C471.839 393.134 471.551 393.005 471.336 392.789C471.12 392.559 470.991 392.285 470.976 391.94C470.947 391.551 470.732 391.177 470.343 390.86C469.955 390.529 469.437 390.284 468.79 390.126L468.402 395.438C471.724 396.704 473.32 398.561 473.205 400.994C473.133 402.318 472.587 403.455 471.58 404.391V404.405ZM464.275 393.408C464.635 393.797 465.21 394.171 466.015 394.545L466.274 390.039C465.483 390.126 464.879 390.356 464.462 390.716C464.045 391.076 463.815 391.537 463.786 392.098C463.757 392.587 463.93 393.019 464.275 393.393V393.408ZM469.797 402.606C470.272 402.145 470.53 401.613 470.559 401.023C470.588 400.533 470.415 400.073 470.07 399.641C469.725 399.195 469.107 398.777 468.23 398.388L467.942 403.542C468.704 403.398 469.322 403.081 469.797 402.621V402.606Z" fill="#F5F5F5"/>
<path d="M451.434 381.877C459.458 373.039 473.104 372.391 481.934 380.423C490.763 388.456 491.41 402.116 483.386 410.955C489.699 402.044 488.376 389.809 480.294 382.467C471.465 374.435 457.818 375.097 449.794 383.921C450.298 383.216 450.844 382.539 451.419 381.892L451.434 381.877Z" fill="#E0E0E0"/>
<path d="M53.9273 479.2C53.8986 478.509 51.5978 410.466 40.5395 399.698C29.7833 389.233 17.4453 399.31 16.9276 399.742L15.8203 398.417C15.9641 398.302 29.8983 386.916 41.7618 398.46C53.3234 409.703 55.581 476.321 55.6673 479.157L53.9417 479.215L53.9273 479.2Z" fill="#E0E0E0"/>
<path d="M54.8766 492.587C54.7903 491.767 47.3127 410.883 76.8348 376.983L78.1434 378.121C49.1246 411.459 56.5303 491.609 56.6166 492.415L54.8909 492.587H54.8766Z" fill="#E0E0E0"/>
<path d="M53.7837 484.022L52.0581 483.907C52.1156 482.986 57.8389 391.954 36.1826 372.017L37.3474 370.736C59.5933 391.22 54.0282 480.237 53.7694 484.008L53.7837 484.022Z" fill="#E0E0E0"/>
<path d="M56.6021 483.979H54.8765C54.8908 481.46 55.5955 422.471 72.3338 412.869C76.0582 410.739 79.6963 410.379 83.1619 411.819C93.2854 416.008 98.3041 434.044 98.5054 434.807L96.8373 435.268C96.7942 435.095 91.8331 417.289 82.5004 413.431C79.5525 412.207 76.4321 412.538 73.1966 414.395C57.3067 423.507 56.6164 483.404 56.6164 484.008L56.6021 483.979Z" fill="#E0E0E0"/>
<path d="M50.088 484.023L48.3624 483.922C48.3911 483.461 50.8932 437.312 38.4402 421.046C35.4204 417.101 32.1561 415.23 28.6905 415.475C20.5371 416.051 13.7066 427.984 13.6347 428.113L12.1248 427.264C12.4267 426.746 19.4873 414.395 28.5611 413.762C32.6306 413.474 36.4126 415.576 39.8063 420.009C52.6332 436.779 50.1886 482.108 50.0736 484.037L50.088 484.023Z" fill="#E0E0E0"/>
<path d="M52.8202 490.299C52.4751 485.822 44.6811 380.452 58.3996 361.883L59.7945 362.905C46.4642 380.956 54.4595 489.075 54.5458 490.155L52.8202 490.284V490.299Z" fill="#E0E0E0"/>
<path d="M86.8863 422.485C86.8863 422.485 78.661 425.522 81.1056 432.691C83.5502 439.859 109.564 451.649 109.564 451.649C109.564 451.649 120.464 441.659 110.455 425.393C100.447 409.141 87.102 417.346 86.8863 422.485Z" fill="#EBEBEB"/>
<path d="M51.1233 408.839C51.1233 408.839 59.8807 408.464 60.384 416.036C60.8873 423.593 41.4024 444.509 41.4024 444.509C41.4024 444.509 27.4969 439.485 30.488 420.613C33.479 401.756 48.9519 404.189 51.1233 408.839Z" fill="#EBEBEB"/>
<path d="M43.7032 372.665C43.7032 372.665 49.5415 372.031 49.0669 368.476C48.5924 364.92 26.3609 355.751 13.2463 370.563C13.2463 370.563 21.6443 385.001 33.7954 385.203C45.9321 385.39 43.7032 372.665 43.7032 372.665Z" fill="#EBEBEB"/>
<path d="M54.5888 364.013C54.5888 364.013 49.297 366.576 47.8158 363.308C46.3347 360.041 60.3552 340.493 79.3224 346.121C79.3224 346.121 79.8257 362.833 69.6159 369.412C59.4061 376.004 54.5744 364.013 54.5744 364.013H54.5888Z" fill="#EBEBEB"/>
<path d="M26.9361 419.606C26.9361 419.606 30.9626 416.353 26.6198 414.755C22.2627 413.171 0.922731 413.618 0.707031 434.778C0.707031 434.778 25.5701 438.909 28.6474 430.848C31.7247 422.787 26.9505 419.591 26.9505 419.591L26.9361 419.606Z" fill="#EBEBEB"/>
<path d="M77.6258 372.132C77.6258 372.132 73.5993 368.879 77.9421 367.281C82.2992 365.698 103.639 366.144 103.855 387.304C103.855 387.304 78.9919 391.436 75.9145 383.375C72.8372 375.313 77.6114 372.118 77.6114 372.118L77.6258 372.132Z" fill="#EBEBEB"/>
<path d="M64.4824 389.19C64.4824 389.19 64.1229 385.231 67.3153 386.786C70.5076 388.341 81.6378 400.36 70.105 411.761C70.105 411.761 54.5746 400.245 57.3787 394.257C60.1828 388.269 64.4824 389.204 64.4824 389.204V389.19Z" fill="#EBEBEB"/>
<path d="M23.3268 394.833C23.3268 394.833 25.7426 391.666 22.2051 391.277C18.682 390.888 2.86403 395.106 6.54531 410.911C6.54531 410.911 25.8145 409.458 26.6342 402.894C27.4538 396.33 23.3268 394.818 23.3268 394.818V394.833Z" fill="#EBEBEB"/>
<path d="M72.8085 514.51H33.9393L23.6001 466.777H82.1555L72.8085 514.51Z" fill="#F0F0F0"/>
<path d="M85.5347 466.086H20.0769V479.819H85.5347V466.086Z" fill="#E6E6E6"/>
<path d="M40.3958 534.864H17.3015V535.224H40.3958V534.864Z" fill="#E0E0E0"/>
<path d="M264.94 530.963H187.963V531.323H264.94V530.963Z" fill="#E0E0E0"/>
<path d="M549.175 530.776H487.067V531.136H549.175V530.776Z" fill="#E0E0E0"/>
<path d="M571.09 530.776H561.987V531.136H571.09V530.776Z" fill="#E0E0E0"/>
<path d="M475.204 539.744H397.71V540.104H475.204V539.744Z" fill="#E0E0E0"/>
<path d="M209.979 32.5751H171.455C170.247 32.5751 169.73 31.0492 170.679 30.3151L188.884 16.1219L209.203 0.273319C209.663 -0.0865491 210.296 -0.0865491 210.756 0.273319L231.089 16.1219L249.294 30.3151C250.243 31.0492 249.726 32.5751 248.518 32.5751H209.994H209.979Z" fill="#EBEBEB"/>
<path d="M237.229 28.6019H182.743C182.24 28.6019 181.794 28.2852 181.636 27.8102C181.478 27.3352 181.636 26.817 182.024 26.5003L209.26 5.25368C209.692 4.9226 210.281 4.9226 210.698 5.25368L237.934 26.5003C238.322 26.8026 238.48 27.3352 238.322 27.8102C238.164 28.2852 237.718 28.6019 237.215 28.6019H237.229ZM184.598 26.7882H235.374L209.994 6.99544L184.613 26.7882H184.598Z" fill="#E0E0E0"/>
<path d="M186.41 32.5752H179.048V64.0565H186.41V32.5752Z" fill="#EBEBEB"/>
<path d="M203.105 32.5752H195.743V64.0565H203.105V32.5752Z" fill="#EBEBEB"/>
<path d="M225.754 32.5752H218.392V64.0565H225.754V32.5752Z" fill="#EBEBEB"/>
<path d="M242.075 32.5752H234.713V64.0565H242.075V32.5752Z" fill="#EBEBEB"/>
<path d="M249.251 72.1604H170.722C169.586 72.1604 168.766 71.0952 169.054 70.0012L170.247 65.3517C170.449 64.5888 171.139 64.0562 171.915 64.0562H247.77C248.518 64.0562 249.193 64.5456 249.424 65.2653L250.905 69.9148C251.264 71.0376 250.43 72.1748 249.251 72.1748V72.1604Z" fill="#EBEBEB"/>
<path d="M209.979 24.4709C207.031 24.4709 204.63 22.067 204.63 19.1161C204.63 16.1651 207.031 13.7612 209.979 13.7612C212.927 13.7612 215.329 16.1651 215.329 19.1161C215.329 22.067 212.927 24.4709 209.979 24.4709ZM209.979 15.5606C208.024 15.5606 206.442 17.1584 206.442 19.1017C206.442 21.045 208.024 22.6428 209.979 22.6428C211.935 22.6428 213.517 21.045 213.517 19.1017C213.517 17.1584 211.935 15.5606 209.979 15.5606Z" fill="#E0E0E0"/>
<path d="M246.878 32.5752H173.094C172.602 32.5752 172.203 32.9748 172.203 33.4677V36.2602C172.203 36.7531 172.602 37.1527 173.094 37.1527H246.878C247.371 37.1527 247.77 36.7531 247.77 36.2602V33.4677C247.77 32.9748 247.371 32.5752 246.878 32.5752Z" fill="#EBEBEB"/>
<path d="M246.102 33.7268H173.871C173.368 33.7268 172.965 33.3238 172.965 32.82C172.965 32.3161 173.368 31.9131 173.871 31.9131H246.102C246.605 31.9131 247.008 32.3161 247.008 32.82C247.008 33.3238 246.605 33.7268 246.102 33.7268Z" fill="#E0E0E0"/>
<path d="M246.102 69.1663H173.871C173.368 69.1663 172.965 68.7632 172.965 68.2594C172.965 67.7556 173.368 67.3525 173.871 67.3525H246.102C246.605 67.3525 247.008 67.7556 247.008 68.2594C247.008 68.7632 246.605 69.1663 246.102 69.1663Z" fill="#E0E0E0"/>
<path d="M127.438 64.1426H22.3489V230.934H127.438V64.1426Z" fill="#E6E6E6"/>
<path d="M123.225 63.9985H22.3489V226.054H123.225V63.9985Z" fill="#F0F0F0"/>
<path d="M107.852 78.3931H37.6924V211.659H107.852V78.3931Z" fill="white"/>
<path d="M87.2459 106.463H59.248V184.338H87.2459V106.463Z" fill="#F0F0F0"/>
<path d="M310.165 598C476.046 598 610.52 592.863 610.52 586.527C610.52 580.191 476.046 575.055 310.165 575.055C144.283 575.055 9.80957 580.191 9.80957 586.527C9.80957 592.863 144.283 598 310.165 598Z" fill="#F5F5F5"/>
<path d="M367.828 467.238H224.417C208.282 467.238 195.225 454.139 194.319 438.19V95.0627C195.225 78.7247 208.297 65.6399 224.417 65.6255H367.828C383.963 65.6255 397.034 78.7247 397.034 94.8612V437.988C397.034 454.139 383.948 467.209 367.828 467.224V467.238Z" fill="#263238"/>
<path d="M367.828 72.3478H330.556C328.14 72.3478 326.083 74.1183 325.753 76.5222L325.594 77.6882C324.818 83.59 319.785 88.0236 313.846 88.038H278.428C272.475 88.0092 267.456 83.59 266.68 77.6882L266.536 76.5222C266.219 74.1039 264.149 72.2902 261.704 72.2902H224.431C212.007 72.247 201.898 82.2945 201.854 94.7315C201.854 94.7747 201.854 94.8179 201.854 94.8755V438.003C201.854 450.44 211.921 460.53 224.359 460.53H367.771C380.195 460.53 390.276 450.454 390.29 438.003V94.8755C390.29 82.4673 380.253 72.4053 367.857 72.3478H367.828Z" fill="#407BFF"/>
<path opacity="0.7" d="M367.828 72.3478H330.556C328.14 72.3478 326.083 74.1183 325.753 76.5222L325.594 77.6882C324.818 83.59 319.785 88.0236 313.846 88.038H278.428C272.475 88.0092 267.456 83.59 266.68 77.6882L266.536 76.5222C266.219 74.1039 264.149 72.2902 261.704 72.2902H224.431C212.007 72.247 201.898 82.2945 201.854 94.7315C201.854 94.7747 201.854 94.8179 201.854 94.8755V438.003C201.854 450.44 211.921 460.53 224.359 460.53H367.771C380.195 460.53 390.276 450.454 390.29 438.003V94.8755C390.29 82.4673 380.253 72.4053 367.857 72.3478H367.828Z" fill="white"/>
<g opacity="0.7">
<path d="M287.459 76.1478C287.459 77.7312 286.193 79.0123 284.626 79.0267C283.044 79.0267 281.764 77.76 281.75 76.191C281.75 74.6075 283.015 73.3264 284.583 73.312C284.583 73.312 284.611 73.312 284.626 73.312C286.193 73.312 287.459 74.5787 287.459 76.1478Z" fill="black"/>
<path d="M307.648 73.2979H297.884C296.317 73.2979 295.051 74.5646 295.051 76.1336C295.051 77.7026 296.317 78.9694 297.884 78.9694H307.648C309.216 78.9694 310.481 77.7026 310.481 76.1336C310.481 74.5646 309.216 73.2979 307.648 73.2979Z" fill="black"/>
</g>
<path d="M220.563 85.0298H217.543V88.0527H220.563V85.0298Z" fill="#407BFF"/>
<path d="M223.554 85.0297V88.0526H226.574V85.0297V82.0068H223.554V85.0297Z" fill="#407BFF"/>
<path d="M229.594 79.0127V82.0068V85.0297V88.0526H232.613V85.0297V82.0068V79.0127H229.594Z" fill="#407BFF"/>
<path d="M359.272 79.2139V81.4163H357.805V85.8498H359.272V88.0522H372.617V79.2139H359.272ZM365.226 85.8498H360.696V81.4163H365.125L365.226 85.8498Z" fill="#407BFF"/>
<path d="M352.413 244.753H239.846C238.528 244.753 237.459 245.823 237.459 247.143V317.648C237.459 318.968 238.528 320.038 239.846 320.038H352.413C353.731 320.038 354.8 318.968 354.8 317.648V247.143C354.8 245.823 353.731 244.753 352.413 244.753Z" fill="#407BFF"/>
<path opacity="0.6" d="M273.797 259.724H256.398C254.762 259.724 253.435 261.052 253.435 262.689V276.911C253.435 278.549 254.762 279.877 256.398 279.877H273.797C275.433 279.877 276.76 278.549 276.76 276.911V262.689C276.76 261.052 275.433 259.724 273.797 259.724Z" fill="white"/>
<g opacity="0.3">
<path d="M253.435 295.221H268.606C270.332 295.221 270.332 292.544 268.606 292.544H253.435C251.71 292.544 251.71 295.221 253.435 295.221Z" fill="black"/>
</g>
<g opacity="0.3">
<path d="M276.774 295.221H291.945C293.671 295.221 293.671 292.544 291.945 292.544H276.774C275.049 292.544 275.049 295.221 276.774 295.221Z" fill="black"/>
</g>
<g opacity="0.3">
<path d="M300.127 295.221H315.298C317.024 295.221 317.024 292.544 315.298 292.544H300.127C298.402 292.544 298.402 295.221 300.127 295.221Z" fill="black"/>
</g>
<g opacity="0.3">
<path d="M323.48 295.221H338.651C340.377 295.221 340.377 292.544 338.651 292.544H323.48C321.755 292.544 321.755 295.221 323.48 295.221Z" fill="black"/>
</g>
<path d="M329.736 111.588H260.352C258.351 111.588 256.729 113.212 256.729 115.215V178.624C256.729 180.628 258.351 182.252 260.352 182.252H329.736C331.737 182.252 333.36 180.628 333.36 178.624V115.215C333.36 113.212 331.737 111.588 329.736 111.588Z" fill="#407BFF"/>
<path d="M295.037 141.932H268.319C267.485 141.932 267.125 140.881 267.787 140.363L280.412 130.517L294.505 119.519C294.821 119.275 295.267 119.275 295.583 119.519L309.676 130.517L322.301 140.363C322.963 140.881 322.603 141.932 321.769 141.932H295.051H295.037Z" fill="#407BFF"/>
<g opacity="0.7">
<path d="M295.037 141.932H268.319C267.485 141.932 267.125 140.881 267.787 140.363L280.412 130.517L294.505 119.519C294.821 119.275 295.267 119.275 295.583 119.519L309.676 130.517L322.301 140.363C322.963 140.881 322.603 141.932 321.769 141.932H295.051H295.037Z" fill="white"/>
</g>
<path d="M313.932 139.168H276.141C275.796 139.168 275.48 138.952 275.365 138.621C275.25 138.29 275.365 137.93 275.638 137.714L294.533 122.974C294.835 122.744 295.238 122.744 295.526 122.974L314.421 137.714C314.694 137.93 314.809 138.29 314.694 138.621C314.579 138.952 314.277 139.168 313.918 139.168H313.932ZM277.436 137.916H312.652L295.037 124.183L277.421 137.916H277.436Z" fill="#407BFF"/>
<path d="M278.687 141.932H273.582V163.769H278.687V141.932Z" fill="#407BFF"/>
<g opacity="0.7">
<path d="M278.687 141.932H273.582V163.769H278.687V141.932Z" fill="white"/>
</g>
<path d="M290.263 141.932H285.158V163.769H290.263V141.932Z" fill="#407BFF"/>
<g opacity="0.7">
<path d="M290.263 141.932H285.158V163.769H290.263V141.932Z" fill="white"/>
</g>
<path d="M305.98 141.932H300.875V163.769H305.98V141.932Z" fill="#407BFF"/>
<g opacity="0.7">
<path d="M305.98 141.932H300.875V163.769H305.98V141.932Z" fill="white"/>
</g>
<path d="M317.355 141.932H312.25V163.769H317.355V141.932Z" fill="#407BFF"/>
<g opacity="0.7">
<path d="M317.355 141.932H312.25V163.769H317.355V141.932Z" fill="white"/>
</g>
<path d="M322.273 169.383H267.801C267.025 169.383 266.449 168.649 266.636 167.886L267.456 164.661C267.585 164.129 268.074 163.754 268.621 163.754H321.237C321.755 163.754 322.215 164.085 322.373 164.589L323.394 167.814C323.639 168.591 323.063 169.383 322.258 169.383H322.273Z" fill="#407BFF"/>
<g opacity="0.7">
<path d="M322.273 169.383H267.801C267.025 169.383 266.449 168.649 266.636 167.886L267.456 164.661C267.585 164.129 268.074 163.754 268.621 163.754H321.237C321.755 163.754 322.215 164.085 322.373 164.589L323.394 167.814C323.639 168.591 323.063 169.383 322.258 169.383H322.273Z" fill="white"/>
</g>
<path d="M295.037 136.304C292.995 136.304 291.327 134.634 291.327 132.59C291.327 130.546 292.995 128.876 295.037 128.876C297.079 128.876 298.747 130.546 298.747 132.59C298.747 134.634 297.079 136.304 295.037 136.304ZM295.037 130.128C293.685 130.128 292.578 131.237 292.578 132.59C292.578 133.943 293.685 135.051 295.037 135.051C296.389 135.051 297.496 133.943 297.496 132.59C297.496 131.237 296.389 130.128 295.037 130.128Z" fill="#407BFF"/>
<path d="M320.346 141.932H269.714C269.221 141.932 268.822 142.332 268.822 142.825V144.206C268.822 144.699 269.221 145.099 269.714 145.099H320.346C320.838 145.099 321.237 144.699 321.237 144.206V142.825C321.237 142.332 320.838 141.932 320.346 141.932Z" fill="#407BFF"/>
<g opacity="0.7">
<path d="M320.346 141.932H269.714C269.221 141.932 268.822 142.332 268.822 142.825V144.206C268.822 144.699 269.221 145.099 269.714 145.099H320.346C320.838 145.099 321.237 144.699 321.237 144.206V142.825C321.237 142.332 320.838 141.932 320.346 141.932Z" fill="white"/>
</g>
<path d="M320.087 142.724H269.987C269.642 142.724 269.354 142.436 269.354 142.09C269.354 141.745 269.642 141.457 269.987 141.457H320.087C320.432 141.457 320.72 141.745 320.72 142.09C320.72 142.436 320.432 142.724 320.087 142.724Z" fill="#407BFF"/>
<path d="M320.087 167.31H269.987C269.642 167.31 269.354 167.022 269.354 166.677C269.354 166.331 269.642 166.043 269.987 166.043H320.087C320.432 166.043 320.72 166.331 320.72 166.677C320.72 167.022 320.432 167.31 320.087 167.31Z" fill="#407BFF"/>
<path d="M340.995 194.66H251.264V198.82H340.995V194.66Z" fill="#407BFF"/>
<path d="M275.926 216.425H230.931V220.585H275.926V216.425Z" fill="#407BFF"/>
<path d="M317.944 216.425H285.129V220.585H317.944V216.425Z" fill="#407BFF"/>
<path d="M360.092 216.425H327.277V220.585H360.092V216.425Z" fill="#407BFF"/>
<path opacity="0.3" d="M275.926 216.425H230.931V220.585H275.926V216.425Z" fill="black"/>
<path opacity="0.3" d="M317.944 216.425H285.129V220.585H317.944V216.425Z" fill="black"/>
<path opacity="0.3" d="M360.092 216.425H327.277V220.585H360.092V216.425Z" fill="black"/>
<path d="M247.439 358.428C251.005 358.428 253.896 355.535 253.896 351.965C253.896 348.396 251.005 345.502 247.439 345.502C243.873 345.502 240.982 348.396 240.982 351.965C240.982 355.535 243.873 358.428 247.439 358.428Z" fill="#407BFF"/>
<path d="M352.327 348.784H268.017V352.714H352.327V348.784Z" fill="#407BFF"/>
<path d="M246.36 384.18C249.926 384.18 252.817 381.287 252.817 377.717C252.817 374.148 249.926 371.254 246.36 371.254C242.795 371.254 239.904 374.148 239.904 377.717C239.904 381.287 242.795 384.18 246.36 384.18Z" fill="#407BFF"/>
<path d="M352.327 374.608H268.017V378.538H352.327V374.608Z" fill="#407BFF"/>
<path d="M247.439 408.867C251.005 408.867 253.896 405.974 253.896 402.404C253.896 398.835 251.005 395.941 247.439 395.941C243.873 395.941 240.982 398.835 240.982 402.404C240.982 405.974 243.873 408.867 247.439 408.867Z" fill="#407BFF"/>
<path d="M352.327 400.447H268.017V404.377H352.327V400.447Z" fill="#407BFF"/>
<path opacity="0.3" d="M352.327 348.784H268.017V352.714H352.327V348.784Z" fill="black"/>
<path opacity="0.3" d="M352.327 374.608H268.017V378.538H352.327V374.608Z" fill="black"/>
<path opacity="0.3" d="M352.327 400.447H268.017V404.377H352.327V400.447Z" fill="black"/>
<path opacity="0.2" d="M200.373 373.327C200.373 369.872 212.87 324.903 240.378 277.631C267.873 230.358 301.882 262.646 334.884 210.767C367.886 158.889 371.596 72.29 371.596 72.29H333.173C333.173 72.29 325.882 169.267 290.881 181.949C255.88 194.631 200.373 271.873 200.373 271.873V373.327Z" fill="white"/>
<path opacity="0.2" d="M224.561 461.106H247.065C247.065 461.106 371.769 283.043 390.276 251.029V216.511C373.279 256.528 224.575 461.106 224.575 461.106H224.561Z" fill="white"/>
<path d="M382.913 207.313C394.374 230.316 421.149 240.233 442.719 229.466L450.398 225.637L408.912 142.335L401.233 146.164C379.663 156.931 371.452 184.31 382.913 207.313Z" fill="#407BFF"/>
<path opacity="0.3" d="M382.913 207.313C394.374 230.316 421.149 240.233 442.719 229.466L450.398 225.637L408.912 142.335L401.233 146.164C379.663 156.931 371.452 184.31 382.913 207.313Z" fill="black"/>
<path d="M450.203 225.762C473.237 214.406 482.714 186.509 471.37 163.451C460.026 140.393 432.156 130.907 409.122 142.263C386.088 153.619 376.612 181.516 387.956 204.574C399.3 227.631 427.169 237.118 450.203 225.762Z" fill="#407BFF"/>
<path d="M396.344 200.619C405.518 219.03 427.865 226.53 446.271 217.346C464.663 208.162 472.155 185.793 462.981 167.367C453.806 148.957 431.46 141.457 413.054 150.641C394.662 159.825 387.17 182.194 396.344 200.619Z" fill="#407BFF"/>
<path opacity="0.3" d="M396.344 200.619C405.518 219.03 427.865 226.53 446.271 217.346C464.663 208.162 472.155 185.793 462.981 167.367C453.806 148.957 431.46 141.457 413.054 150.641C394.662 159.825 387.17 182.194 396.344 200.619Z" fill="white"/>
<path d="M441.382 194.617C440.275 196.79 438.564 198.489 436.234 199.741L436.608 200.921C436.795 201.512 436.737 202.102 436.45 202.706C436.148 203.297 435.716 203.685 435.112 203.872C434.508 204.059 433.948 204.002 433.401 203.685C432.855 203.368 432.481 202.908 432.294 202.275L431.963 201.238C429.662 201.656 427.52 201.569 425.578 200.979C423.623 200.389 422.07 199.453 420.905 198.172C420.358 197.553 420.028 197.006 419.87 196.531C419.668 195.898 419.726 195.293 420.042 194.703C420.358 194.113 420.833 193.71 421.494 193.494C422.027 193.321 422.544 193.335 423.047 193.523C423.551 193.71 423.982 194.026 424.327 194.458C424.989 195.379 425.909 196.027 427.045 196.416C428.196 196.79 429.403 196.92 430.669 196.805L427.707 186.699C424.845 186.671 422.472 186.224 420.574 185.389C418.676 184.54 417.396 183.043 416.72 180.884C416.03 178.696 416.203 176.623 417.238 174.665C418.273 172.708 420.042 171.139 422.573 169.973L422.271 168.994C422.084 168.404 422.127 167.814 422.415 167.223C422.688 166.633 423.119 166.259 423.68 166.072C424.27 165.885 424.859 165.957 425.435 166.273C426.01 166.59 426.398 167.051 426.585 167.641L426.873 168.576C429.49 168.029 431.69 168.13 433.487 168.879C435.285 169.627 436.464 170.894 437.039 172.722C437.255 173.413 437.212 174.046 436.924 174.637C436.622 175.227 436.162 175.615 435.544 175.817C434.983 175.99 434.451 175.961 433.948 175.731C433.444 175.5 433.07 175.097 432.826 174.565C432.524 173.931 431.963 173.471 431.129 173.168C430.295 172.866 429.303 172.765 428.138 172.895L430.741 181.877C436.982 181.949 440.735 184.022 442.015 188.081C442.705 190.298 442.504 192.5 441.396 194.674L441.382 194.617ZM422.674 180.97C423.493 181.388 424.672 181.661 426.225 181.791L423.896 174.219C422.645 174.853 421.796 175.587 421.322 176.45C420.847 177.3 420.761 178.207 421.049 179.142C421.308 179.948 421.84 180.567 422.659 180.985L422.674 180.97ZM437.37 192.731C437.888 191.68 437.974 190.644 437.672 189.65C437.413 188.844 436.867 188.182 436.018 187.664C435.17 187.16 433.904 186.843 432.222 186.714L434.882 195.365C436.033 194.66 436.867 193.782 437.37 192.731Z" fill="#407BFF"/>
<path d="M394.518 169.858C402.326 150.439 424.399 141.04 443.798 148.856C463.197 156.672 472.587 178.768 464.778 198.187C469.739 179.675 460.119 160.357 442.36 153.203C422.961 145.387 400.902 154.787 393.08 174.205C393.468 172.737 393.957 171.283 394.532 169.872L394.518 169.858Z" fill="#407BFF"/>
<path opacity="0.3" d="M394.518 169.858C402.326 150.439 424.399 141.04 443.798 148.856C463.197 156.672 472.587 178.768 464.778 198.187C469.739 179.675 460.119 160.357 442.36 153.203C422.961 145.387 400.902 154.787 393.08 174.205C393.468 172.737 393.957 171.283 394.532 169.872L394.518 169.858Z" fill="black"/>
<path d="M74.0595 330.776C80.2285 343.17 94.666 348.525 106.299 342.724L110.441 340.665L88.08 295.768L83.9385 297.827C72.3051 303.628 67.8905 318.382 74.0595 330.79V330.776Z" fill="#407BFF"/>
<path opacity="0.3" d="M74.0595 330.776C80.2285 343.17 94.666 348.525 106.299 342.724L110.441 340.665L88.08 295.768L83.9385 297.827C72.3051 303.628 67.8905 318.382 74.0595 330.79V330.776Z" fill="black"/>
<path d="M123.023 326.155C118.637 339.298 104.43 346.38 91.3011 341.989C78.1722 337.599 71.0972 323.377 75.4831 310.235C79.869 297.092 94.0765 290.01 107.205 294.4C120.334 298.791 127.409 313.013 123.023 326.155Z" fill="#407BFF"/>
<path d="M81.2925 327.163C86.2392 337.095 98.2897 341.126 108.197 336.174C118.12 331.222 122.146 319.16 117.199 309.242C112.253 299.324 100.202 295.279 90.2944 300.231C80.3722 305.182 76.3458 317.245 81.2925 327.163Z" fill="#407BFF"/>
<path opacity="0.3" d="M81.2925 327.163C86.2392 337.095 98.2897 341.126 108.197 336.174C118.12 331.222 122.146 319.16 117.199 309.242C112.253 299.324 100.202 295.279 90.2944 300.231C80.3722 305.182 76.3458 317.245 81.2925 327.163Z" fill="white"/>
<path d="M105.566 323.924C104.976 325.09 104.042 326.011 102.791 326.688L102.992 327.321C103.093 327.638 103.064 327.955 102.906 328.286C102.748 328.617 102.503 328.818 102.187 328.919C101.87 329.02 101.554 328.991 101.266 328.818C100.979 328.646 100.777 328.401 100.662 328.055L100.49 327.494C99.2532 327.724 98.1028 327.667 97.0387 327.35C95.9889 327.033 95.1405 326.53 94.5222 325.839C94.2346 325.508 94.0476 325.205 93.9613 324.961C93.8607 324.63 93.8894 324.298 94.0476 323.967C94.2202 323.651 94.479 323.435 94.8241 323.32C95.1117 323.233 95.385 323.233 95.6582 323.334C95.9314 323.435 96.1615 323.607 96.3484 323.838C96.7079 324.342 97.1968 324.687 97.8152 324.889C98.4335 325.09 99.0806 325.162 99.7708 325.09L98.1747 319.649C96.636 319.635 95.3562 319.39 94.3208 318.944C93.2999 318.483 92.6096 317.677 92.2357 316.511C91.8618 315.331 91.9625 314.208 92.5233 313.157C93.0842 312.106 94.0332 311.257 95.3993 310.623L95.2268 310.091C95.1261 309.774 95.1549 309.457 95.2987 309.141C95.4425 308.824 95.6725 308.623 95.9745 308.522C96.2909 308.421 96.6073 308.45 96.9236 308.623C97.24 308.795 97.4413 309.04 97.542 309.357L97.7001 309.861C99.1094 309.573 100.289 309.616 101.266 310.019C102.23 310.422 102.877 311.113 103.179 312.092C103.294 312.466 103.28 312.811 103.107 313.128C102.949 313.445 102.704 313.661 102.359 313.762C102.057 313.862 101.77 313.833 101.496 313.718C101.223 313.589 101.022 313.373 100.892 313.085C100.734 312.739 100.432 312.495 99.9722 312.336C99.5264 312.178 98.98 312.121 98.3616 312.192L99.7708 317.029C103.136 317.072 105.163 318.181 105.839 320.369C106.213 321.563 106.098 322.744 105.508 323.924H105.566ZM95.4856 316.568C95.9314 316.799 96.5641 316.943 97.3982 317.015L96.1471 312.927C95.4712 313.272 95.0111 313.661 94.7666 314.121C94.5078 314.582 94.4646 315.057 94.6228 315.575C94.7666 316.007 95.0542 316.338 95.4856 316.568ZM103.409 322.917C103.682 322.355 103.74 321.794 103.567 321.261C103.423 320.829 103.136 320.469 102.676 320.196C102.215 319.922 101.54 319.75 100.634 319.692L102.072 324.356C102.69 323.982 103.136 323.507 103.409 322.931V322.917Z" fill="#407BFF"/>
<path d="M80.3149 310.58C84.5282 300.115 96.4205 295.048 106.875 299.266C117.329 303.484 122.391 315.388 118.177 325.853C120.852 315.877 115.661 305.47 106.098 301.598C95.6439 297.38 83.7517 302.447 79.5383 312.912C79.754 312.12 80.0129 311.343 80.3149 310.58Z" fill="#407BFF"/>
<path opacity="0.3" d="M80.3149 310.58C84.5282 300.115 96.4205 295.048 106.875 299.266C117.329 303.484 122.391 315.388 118.177 325.853C120.852 315.877 115.661 305.47 106.098 301.598C95.6439 297.38 83.7517 302.447 79.5383 312.912C79.754 312.12 80.0129 311.343 80.3149 310.58Z" fill="black"/>
<path d="M369.497 487.304C369.497 487.304 383.086 442.234 434.322 440.291C485.557 438.348 526.325 451.951 527.878 497.409C529.431 542.868 503.029 551.807 503.029 551.807L502.253 575.515H476.239V561.524C476.239 561.524 442.072 563.078 429.274 559.192V579.402H401.319L400.931 552.196C400.931 552.196 380.353 542.091 373.753 524.601H359.387C354.455 510.12 352.787 495.927 357.144 487.016L369.482 487.304H369.497Z" fill="#407BFF"/>
<path d="M399.033 460.789C398.055 452.627 397.092 444.48 396.114 436.318C396.013 435.498 395.927 434.605 396.33 433.871C397.02 432.604 398.745 432.432 400.169 432.619C406.237 433.367 411.486 437.498 414.995 442.508C418.504 447.517 420.56 453.39 422.559 459.177" fill="#407BFF"/>
<path d="M395.755 452.354C392.246 447.344 386.997 443.213 380.929 442.465C379.505 442.292 377.765 442.465 377.089 443.717C376.687 444.451 376.787 445.329 376.874 446.164C377.851 454.326 378.815 462.473 379.793 470.635L403.318 469.023C401.32 463.236 399.263 457.363 395.755 452.354Z" fill="#407BFF"/>
<path d="M441.684 451.648C452.052 450.598 462.478 451.432 472.529 454.182C474.327 454.671 475.089 451.893 473.291 451.404C463.01 448.597 452.282 447.69 441.684 448.769C439.858 448.957 439.844 451.85 441.684 451.648Z" fill="#263238"/>
<path d="M393.209 482.496C393.382 483.749 393.454 485.015 393.425 486.282C393.425 486.901 393.367 487.52 393.31 488.139C393.295 488.283 393.281 488.441 393.267 488.585C393.223 488.916 393.281 488.485 393.238 488.787C393.18 489.132 393.137 489.478 393.065 489.809C392.921 490.543 393.267 491.407 394.072 491.579C394.776 491.738 395.697 491.364 395.841 490.572C396.33 487.909 396.445 485.188 396.085 482.496C396.028 482.093 395.956 481.777 395.668 481.474C395.424 481.23 395.007 481.043 394.647 481.057C393.957 481.086 393.094 481.705 393.209 482.496Z" fill="#263238"/>
<path d="M528.554 496.834C531.099 492.602 537.211 492.861 540.561 495.898C544.185 499.166 546.514 506.248 544.343 510.869C543.164 513.373 539.9 514.77 537.987 512.222C536.146 509.775 537.139 506.363 538.088 503.758C539.799 499.022 543.049 494.415 547.78 492.357C552.511 490.313 558.852 491.464 561.613 496.1C562.562 497.697 565.05 496.244 564.101 494.646C560.837 489.161 553.604 487.261 547.737 489.305C540.993 491.652 536.549 498.259 534.694 504.895C533.759 508.277 533.716 512.265 536.448 514.856C538.864 517.159 542.387 516.914 544.861 514.841C550.34 510.235 547.852 500.216 543.984 495.394C539.554 489.867 530.064 488.729 526.052 495.394C525.088 496.992 527.59 498.446 528.539 496.848L528.554 496.834Z" fill="#407BFF"/>
<path d="M357.101 489.06C362.278 499.18 363.644 510.94 360.94 521.981C360.495 523.78 363.284 524.558 363.716 522.744C366.606 510.926 365.125 498.417 359.589 487.592C358.74 485.937 356.252 487.391 357.101 489.046V489.06Z" fill="#263238"/>
<path d="M472.587 438.78C487.211 439.917 501.361 445.43 512.879 454.542C513.958 455.391 515.497 453.88 514.404 453.016C502.411 443.516 487.844 437.801 472.587 436.621C471.206 436.52 471.206 438.679 472.587 438.78Z" fill="#407BFF"/>
<path d="M517.021 459.652C518.286 461.006 519.552 462.359 520.803 463.712C521.191 464.129 521.939 464.129 522.327 463.712C522.73 463.265 522.744 462.632 522.327 462.186C521.062 460.833 519.796 459.48 518.545 458.127C518.157 457.709 517.409 457.709 517.021 458.127C516.618 458.573 516.604 459.206 517.021 459.652Z" fill="#407BFF"/>
<path d="M109.377 94.271C94.3927 87.0305 76.3889 93.3066 69.1414 108.306C61.8939 123.305 68.1779 141.327 83.1619 148.582C94.7234 154.182 108.082 151.677 116.897 143.357L125.914 144.149L123.153 134.994C123.225 134.85 123.325 134.706 123.397 134.562C130.63 119.563 124.361 101.54 109.377 94.2854V94.271Z" fill="#407BFF"/>
<path d="M94.4358 87.3613C104.128 85.9794 114.41 89.866 120.794 97.308" stroke="#407BFF" stroke-linecap="round" stroke-linejoin="round"/>
<path d="M123.598 100.82C124.648 101.886 125.482 103.152 126.029 104.549" stroke="#407BFF" stroke-linecap="round" stroke-linejoin="round"/>
<path d="M96.3196 136.447L81.0049 125.032L84.9738 119.692L95.2411 127.335L109.362 110.494L114.467 114.769L96.3196 136.447Z" fill="white"/>
<path d="M160.469 520.268L144.147 522.874L157.506 560.76L173.842 558.141L160.469 520.268Z" fill="white"/>
<path d="M151.51 554.772L157.276 552.483C158.585 551.965 160.052 552.152 161.245 552.901C166.379 556.125 168.205 553.419 170.118 547.69C172.318 546.51 173.986 548.899 174.446 549.547L185.001 563.553C185.893 564.719 185.677 566.389 184.512 567.281C184.311 567.439 184.081 567.569 183.836 567.655C176.819 570.448 173.511 571.758 164.783 575.227L138.094 585.836C130.817 588.729 126.403 581.993 129.135 580.121C141.43 571.787 149.396 564.028 151.999 558.443C152.502 557.45 151.496 557.248 151.496 554.786L151.51 554.772Z" fill="#263238"/>
<path d="M145.025 563.538C146.837 562.776 148.548 561.811 150.158 560.688C150.302 560.559 150.317 560.343 150.187 560.199C150.115 560.127 150.015 560.084 149.914 560.084C148.951 560.012 140.394 559.508 139.086 561.509C138.841 561.869 138.813 562.329 139.014 562.718C139.316 563.467 139.963 564.013 140.74 564.215C142.192 564.46 143.702 564.215 145.01 563.538H145.025ZM148.85 560.717C146.88 561.955 143.127 564.057 140.998 563.481C140.438 563.308 139.977 562.92 139.733 562.387C139.632 562.229 139.632 562.027 139.747 561.883C140.466 560.789 145.327 560.588 148.836 560.717H148.85Z" fill="#407BFF"/>
<path d="M150.086 560.746C150.173 560.746 150.245 560.703 150.317 560.66C150.374 560.53 150.36 560.386 150.273 560.285C150.158 559.983 145.643 553.549 141.861 555.564C140.926 556.082 140.84 556.672 140.955 557.075C141.458 559.062 147.412 560.818 149.943 560.861L150.086 560.732V560.746ZM142.479 555.967C144.982 554.974 148.088 558.544 149.238 560.012C146.391 559.71 141.919 558.054 141.66 556.816C141.617 556.715 141.516 556.456 142.221 556.096L142.479 555.967Z" fill="#407BFF"/>
<path d="M155.421 562.531C155.321 562.531 155.22 562.502 155.134 562.43C153.509 561.235 151.352 560.803 149.382 561.293C149.123 561.35 148.85 561.192 148.778 560.933C148.72 560.674 148.879 560.4 149.137 560.328C151.381 559.767 153.84 560.256 155.709 561.624C155.925 561.782 155.982 562.099 155.824 562.315C155.723 562.444 155.58 562.516 155.421 562.516V562.531Z" fill="#407BFF"/>
<path d="M152.905 566.662C152.804 566.662 152.704 566.633 152.618 566.561C150.993 565.367 148.836 564.935 146.866 565.424C146.592 565.482 146.333 565.323 146.262 565.064C146.204 564.805 146.362 564.532 146.621 564.46C148.864 563.898 151.323 564.388 153.193 565.755C153.408 565.914 153.466 566.23 153.308 566.446C153.207 566.576 153.063 566.648 152.905 566.648V566.662Z" fill="#407BFF"/>
<path d="M149.339 570.707C149.238 570.707 149.137 570.678 149.051 570.606C147.412 569.412 145.269 568.98 143.299 569.469C143.04 569.527 142.767 569.368 142.695 569.109C142.638 568.85 142.796 568.577 143.055 568.505C145.298 567.943 147.757 568.433 149.626 569.8C149.842 569.959 149.9 570.275 149.741 570.491C149.641 570.621 149.497 570.693 149.339 570.693V570.707Z" fill="#407BFF"/>
<path opacity="0.3" d="M185.001 563.539L174.446 549.533C173.972 548.899 172.318 546.51 170.132 547.676L160.454 520.268L144.133 522.874L154.904 553.405L151.496 554.758C151.496 557.219 152.502 557.421 151.999 558.414C151.74 558.961 151.424 559.537 151.064 560.127C150.777 560.127 150.504 560.17 150.216 560.199C149.756 559.451 145.471 553.621 141.847 555.564C140.912 556.082 140.826 556.672 140.941 557.075C141.228 558.213 143.314 559.278 145.514 559.983C142.825 560.041 139.805 560.372 139.071 561.509C138.827 561.869 138.798 562.329 139 562.718C139.302 563.467 139.949 564.014 140.725 564.215C142.178 564.46 143.687 564.215 144.996 563.539C146.463 562.92 147.858 562.142 149.195 561.279C149.252 561.279 149.296 561.322 149.353 561.307C149.684 561.221 150.029 561.207 150.374 561.178C149.698 562.171 148.893 563.208 147.958 564.302C147.498 564.33 147.052 564.374 146.607 564.474C146.333 564.546 146.175 564.805 146.247 565.079C146.319 565.338 146.578 565.511 146.851 565.439C146.88 565.439 146.923 565.439 146.952 565.439C146.06 566.403 145.082 567.396 144.018 568.404C143.702 568.447 143.371 568.447 143.055 568.534C142.781 568.606 142.623 568.865 142.695 569.138C142.724 569.268 142.81 569.368 142.911 569.44C139.244 572.794 134.614 576.393 129.12 580.121C126.388 581.993 130.817 588.729 138.079 585.836L164.768 575.227C173.497 571.758 176.805 570.448 183.822 567.656C184.066 567.569 184.297 567.44 184.498 567.281C185.663 566.389 185.878 564.719 184.987 563.553L185.001 563.539ZM141.66 556.816C141.617 556.716 141.516 556.456 142.221 556.097L142.479 555.967C144.982 554.974 148.088 558.544 149.238 560.012C146.391 559.71 141.919 558.054 141.66 556.816ZM140.998 563.481C140.438 563.308 139.977 562.92 139.733 562.387C139.632 562.229 139.632 562.027 139.747 561.883C140.438 560.832 144.91 560.602 148.375 560.703C148.505 560.732 148.634 560.746 148.764 560.76C146.779 562.013 143.098 564.042 140.998 563.481Z" fill="black"/>
<path d="M182.499 531.554L166.135 529.25L167.788 569.383L184.167 571.686L182.499 531.554Z" fill="white"/>
<path d="M163.805 561.898L170.003 561.408C171.398 561.293 172.75 561.898 173.67 562.963C177.624 567.555 180.17 565.496 183.678 560.602C186.123 560.113 187.014 562.905 187.273 563.639L193.241 580.121C193.759 581.503 193.054 583.029 191.688 583.547C191.444 583.634 191.185 583.691 190.926 583.706C183.405 584.31 179.853 584.598 170.492 585.347L141.876 587.635C134.067 588.254 131.824 580.524 134.988 579.531C149.181 575.184 159.074 570.103 163.216 565.539C163.992 564.733 163.086 564.258 163.805 561.898Z" fill="#263238"/>
<path d="M155.033 568.375C156.989 568.174 158.902 567.771 160.771 567.166C160.944 567.094 161.015 566.878 160.944 566.705C160.9 566.605 160.814 566.547 160.713 566.518C159.808 566.158 151.784 563.164 149.943 564.69C149.598 564.964 149.44 565.395 149.526 565.827C149.598 566.633 150.044 567.353 150.734 567.771C152.057 568.433 153.552 568.649 155.019 568.39L155.033 568.375ZM159.52 566.792C157.277 567.396 153.063 568.303 151.208 567.137C150.719 566.821 150.403 566.302 150.317 565.727C150.259 565.554 150.331 565.352 150.475 565.251C151.482 564.417 156.184 565.655 159.506 566.806L159.52 566.792Z" fill="#407BFF"/>
<path d="M160.699 567.195C160.785 567.209 160.857 567.195 160.943 567.181C161.044 567.08 161.073 566.936 161.015 566.806C160.987 566.49 158.556 559.005 154.357 559.825C153.322 560.055 153.049 560.574 153.049 561.005C152.948 563.049 158.125 566.49 160.526 567.267L160.699 567.195ZM154.818 560.386C157.507 560.17 159.419 564.503 160.081 566.231C157.449 565.093 153.653 562.2 153.782 560.948C153.782 560.847 153.753 560.559 154.53 560.415L154.818 560.372V560.386Z" fill="#407BFF"/>
<path d="M159.894 567.022C162.051 567.137 164.136 568.26 165.416 569.988" stroke="#407BFF" stroke-width="0.5" stroke-linecap="round" stroke-linejoin="round"/>
<path d="M156.27 570.232C158.427 570.347 160.512 571.47 161.792 573.197" stroke="#407BFF" stroke-width="0.5" stroke-linecap="round" stroke-linejoin="round"/>
<path d="M151.683 573.054C153.84 573.169 155.925 574.292 157.205 576.019" stroke="#407BFF" stroke-width="0.5" stroke-linecap="round" stroke-linejoin="round"/>
<path opacity="0.2" d="M155.364 282.309C155.364 282.309 164.38 286.872 180.587 285.361C206.945 282.914 226.991 273.341 226.991 273.341" stroke="black" stroke-width="0.5" stroke-linecap="round" stroke-linejoin="round"/>
<path d="M157.061 285.361C157.061 285.361 108.198 382.468 105.767 418.541C103.078 458.098 150.288 550.253 150.288 550.253L175.568 538.449C175.568 538.449 142.71 451.159 145.054 420.844C152.517 377.487 205.104 292.558 205.104 292.558L157.075 285.375L157.061 285.361Z" fill="#407BFF"/>
<path opacity="0.2" d="M182.456 308.378C170.65 313.747 166.739 346.524 167.256 361.394C175.554 343.674 184.512 326.343 191.674 313.085C190.077 312.121 184.081 307.457 182.456 308.378Z" fill="black"/>
<path d="M156.716 278.797L227.58 281.1C227.58 281.1 228.041 302.865 222.677 319.073L152.373 296.128L156.716 278.797Z" fill="#407BFF"/>
<path d="M180.788 283.907C180.788 283.907 165.099 392.616 164.581 429.107C164.006 469.095 164.323 550.238 164.323 550.238H188.999C188.999 550.238 199.223 475.242 203.235 436.491C207.793 392.343 225.625 304.967 225.625 304.967L180.788 283.907Z" fill="#407BFF"/>
<path opacity="0.2" d="M164.236 506.089L164.308 543.689L160.095 545.661L161.806 498.59L164.236 506.089Z" fill="black"/>
<path opacity="0.2" d="M202.214 297.309C203.134 299.856 205.162 301.972 207.664 303.009C210.166 304.045 213.085 303.988 215.544 302.851" stroke="black" stroke-width="0.5" stroke-linecap="round" stroke-linejoin="round"/>
<path d="M157.205 231.079C156.845 231.899 156.443 232.705 156.026 233.511C151.338 242.494 146.851 248.496 142.753 251.951C137.13 256.644 132.169 256.514 128.287 252.512C121.571 245.574 127.812 228.142 128.114 228.142C128.416 228.142 135.822 229.999 135.822 229.999L136.426 228.142C137.303 225.378 139.1 219.98 141.401 214.064C145.83 202.822 152.244 189.665 158.226 189.046C158.226 188.902 166.465 210.581 157.19 231.093L157.205 231.079Z" fill="#263238"/>
<path opacity="0.2" d="M150.504 228.473L148.735 245.387L145.5 249.302L146.981 227.494L150.504 228.473Z" fill="black"/>
<path opacity="0.2" d="M139.546 244.307C139.618 240.09 139.273 235.886 138.54 231.741L135.793 230.085C136.67 227.609 138.007 222.6 140.308 217.303C148.26 228.156 139.92 243.731 139.561 244.307H139.546Z" fill="black"/>
<path d="M224.475 242.191C225.15 259.278 227.811 278.02 227.595 282.295C205.033 295.797 163.374 298.029 153.696 290.5C153.409 288.643 155.896 283.015 154.243 282.295C138.453 275.342 157.104 189.219 158.24 188.888C164.309 187.491 170.478 186.513 176.69 185.966C185.778 185.505 194.88 185.505 203.983 185.966C211.216 186.354 218.406 187.146 225.553 188.355C222.778 200.864 221.225 213.618 220.908 226.429C220.563 234.231 224.23 235.397 224.503 242.191H224.475Z" fill="#263238"/>
<path d="M135.965 210.681C133.406 211.142 130.875 211.804 128.416 212.653C127.783 213.085 126.403 221.045 126.604 222.614C126.719 223.435 130.213 230.517 130.213 230.517C131.637 231.294 135.98 231.15 135.98 231.15V210.681H135.965Z" fill="white"/>
<path d="M191.774 202.087C191.774 202.087 210.785 192.832 214.538 185.663C218.291 178.494 209.965 171.254 196.031 171.196C182.097 171.139 167.947 176.753 169.658 187.491C171.369 198.215 177.74 202.001 177.74 202.001C177.74 202.001 181.852 196.992 191.789 202.087H191.774Z" fill="#263238"/>
<path d="M198.691 186.642C193.14 190.888 187.173 198.388 183.621 198.273C180.601 198.172 179.019 192.587 177.653 189.895C181.464 184.08 179.724 184.152 176.517 178.984L190.423 158.903C191.242 168.274 190.523 182.367 198.691 186.628V186.642Z" fill="white"/>
<path opacity="0.2" d="M184.771 167.094L176.474 178.984C177.409 180.452 178.732 181.762 179.379 183.374C183.29 181.604 186.899 177.098 187.273 172.434C187.575 169.484 185.907 167.065 184.771 167.094Z" fill="black"/>
<path d="M151.079 219.635C151.295 220.311 150.95 221.06 150.331 221.29C150.274 221.305 150.216 221.333 150.159 221.333L136.987 224.14C136.253 224.241 135.563 223.766 135.333 223.003L127.223 195.394C127.021 194.631 127.424 193.825 128.114 193.58L141.286 190.773C142.091 190.701 142.839 191.248 143.084 192.098L151.093 219.635H151.079Z" fill="#263238"/>
<path opacity="0.2" d="M151.079 219.635C151.295 220.311 150.95 221.06 150.331 221.29C150.274 221.305 150.216 221.333 150.159 221.333L136.987 224.14C136.253 224.241 135.563 223.766 135.333 223.003L127.223 195.394C127.021 194.631 127.424 193.825 128.114 193.58L141.286 190.773C142.091 190.701 142.839 191.248 143.084 192.098L151.093 219.635H151.079Z" fill="white"/>
<path opacity="0.5" d="M141.099 192.414C140.884 191.68 140.28 191.191 139.604 191.119L128.114 193.566C127.409 193.796 127.007 194.602 127.223 195.379L135.333 222.989C135.534 223.622 136.052 224.039 136.656 224.111L148.189 221.664C148.189 221.664 148.304 221.635 148.361 221.621C148.979 221.391 149.325 220.657 149.109 219.966L141.099 192.429V192.414Z" fill="black"/>
<path d="M158.83 219.203L147.427 211.718L147.642 228.732C147.642 228.732 158.916 233.54 160.901 227.509L158.83 219.203Z" fill="white"/>
<path d="M135.534 221.722L135.592 222.672C135.793 226.184 138.727 228.905 142.235 228.833H148.002L147.426 211.718L141.718 213.2C137.893 214.194 135.304 217.764 135.534 221.708V221.722Z" fill="white"/>
<path d="M158.226 218.8C161.749 220.47 176.503 231.726 176.503 231.726L169.083 240.608L156.5 228.027L158.211 218.786L158.226 218.8Z" fill="white"/>
<path opacity="0.2" d="M164.237 238.146C164.237 238.146 188.496 272.305 205.076 265.151C221.656 257.997 224.474 242.206 224.474 242.206L203.221 255.506L164.237 235.167V238.161V238.146Z" fill="black"/>
<path d="M167.645 220.729C167.645 220.729 197.498 238.348 200.719 239.485C203.94 240.622 210.094 213.949 212.338 206.823C214.581 199.698 220.304 189.089 225.38 188.369C225.38 188.369 241.716 187.693 234.598 214.784C227.48 241.874 216.033 261.063 203.178 261.509C190.322 261.955 162.784 235.785 162.784 235.785L167.645 220.729Z" fill="#263238"/>
<path d="M129.725 212.279C132.14 211.199 134.571 210.105 137.145 209.486C137.519 209.4 137.921 209.314 138.295 209.386C138.683 209.458 139.043 209.731 139.129 210.105C139.23 210.595 138.856 211.041 138.496 211.387C136.67 213.143 134.571 214.625 132.313 215.791" fill="white"/>
<path opacity="0.2" d="M162.784 235.786L167.645 220.729C167.645 220.729 197.498 238.348 200.719 239.485C203.94 240.622 211.849 215.935 214.092 208.81" stroke="black" stroke-width="0.5" stroke-linecap="round" stroke-linejoin="round"/>
<path opacity="0.2" d="M213.848 186.757C213.848 186.757 191.098 204.751 185.289 205.226C185.289 205.226 207.693 200.375 213.848 186.757Z" fill="black"/>
<path d="M180.658 204.16C179.939 202.044 178.315 198.489 176.287 197.539C175.769 197.294 175.208 197.107 174.633 197.15C174.058 197.193 173.483 197.525 173.282 198.057C172.951 198.892 173.598 199.77 174.202 200.432C175.022 201.339 175.812 202.145 176.934 202.591C178.056 203.038 179.537 204.031 180.673 204.16" stroke="white" stroke-width="0.25" stroke-linecap="round" stroke-linejoin="round"/>
<path d="M180.932 204.16C183.175 204.203 187.058 203.901 188.64 202.303C189.042 201.9 189.416 201.425 189.56 200.878C189.718 200.331 189.603 199.669 189.172 199.295C188.496 198.705 187.46 199.007 186.626 199.338C185.505 199.799 184.469 200.259 183.664 201.181C182.873 202.087 181.421 203.138 180.903 204.16" stroke="white" stroke-width="0.25" stroke-linecap="round" stroke-linejoin="round"/>
<path d="M180.73 204.506C179.235 210.854 178.545 217.404 178.703 223.924" stroke="white" stroke-width="0.25" stroke-linecap="round" stroke-linejoin="round"/>
<path d="M181.147 204.16C180.486 210.739 182.672 218.397 185.404 224.414" stroke="white" stroke-width="0.25" stroke-linecap="round" stroke-linejoin="round"/>
<path opacity="0.2" d="M154.832 256.644C155.062 256.716 175.899 257.32 175.899 257.32C175.899 257.32 187.762 268.001 193.155 269.052L194.348 278.797C194.348 278.797 176.503 286.685 158.427 280.582C145.126 276.091 154.818 256.644 154.818 256.644H154.832Z" fill="black"/>
<path d="M136.282 197.294C136.498 198.157 136.124 198.992 135.462 199.165C134.786 199.338 134.067 198.776 133.852 197.913C133.636 197.049 134.01 196.214 134.671 196.041C135.347 195.869 136.066 196.43 136.282 197.294Z" fill="white"/>
<path opacity="0.2" d="M202.2 241.097C202.2 241.097 204.946 251.447 206.557 249.892C208.167 248.338 205.838 244.768 205.838 244.768C205.838 244.768 213.244 248.079 211.101 245.574C208.958 243.069 202.2 241.097 202.2 241.097Z" fill="black"/>
<path d="M161.13 141.212C167.055 143.558 166.034 149.993 156.428 161.869C150.345 156.787 146.923 145.027 149.986 141.212C153.063 137.397 155.954 139.197 161.13 141.212Z" fill="#263238"/>
<path d="M184.455 138.175C178.588 130.445 167.558 128.948 159.836 134.821C149.195 142.94 152.632 161.581 158.355 171.844C164.74 183.274 181.464 184.756 188.122 172.794C192.565 164.819 190.35 157.68 187.661 145.228C187.129 142.666 186.036 140.248 184.44 138.175H184.455Z" fill="white"/>
<path d="M170.923 155.434C171.24 156.73 170.636 157.924 169.758 158.068C168.881 158.212 168.033 157.248 167.803 155.938C167.573 154.628 168.105 153.433 168.967 153.304C169.816 153.16 170.693 154.095 170.923 155.434Z" fill="#263238"/>
<path d="M159.419 157.852C159.736 159.148 159.117 160.357 158.254 160.486C157.406 160.63 156.529 159.666 156.299 158.356C156.069 157.046 156.601 155.851 157.464 155.722C158.312 155.578 159.204 156.6 159.419 157.852Z" fill="#263238"/>
<path d="M153.595 151.475C153.811 151.547 154.041 151.504 154.214 151.36C155.35 150.309 156.903 149.849 158.427 150.137C158.743 150.223 159.074 150.036 159.175 149.719C159.261 149.402 159.074 149.071 158.758 148.971C156.845 148.568 154.861 149.115 153.423 150.453C153.164 150.669 153.135 151.043 153.351 151.303C153.423 151.375 153.509 151.432 153.595 151.475Z" fill="#263238"/>
<path d="M171.728 148.755C171.843 148.726 171.959 148.668 172.045 148.582C172.217 148.294 172.131 147.92 171.843 147.747C170.19 146.696 168.119 146.524 166.322 147.286C166.02 147.43 165.89 147.79 166.048 148.093C166.207 148.395 166.552 148.51 166.854 148.366C168.292 147.819 169.917 147.977 171.225 148.798C171.398 148.855 171.585 148.841 171.743 148.755H171.728Z" fill="#263238"/>
<path d="M180.098 135.555C174.734 138.981 185.965 153.922 190.652 167.914C201.581 156.168 194.794 136.606 190.998 133.439C187.216 130.272 184.829 132.589 180.098 135.555Z" fill="#263238"/>
<path d="M197.497 153.145C197.253 156.643 195.642 159.896 192.996 162.185C189.488 165.208 185.778 162.53 185.102 158.183C184.541 154.311 185.619 147.977 189.962 146.667C194.305 145.357 197.742 148.841 197.497 153.131V153.145Z" fill="white"/>
<path opacity="0.1" d="M188.222 157.939C187.69 155.636 188.237 153.102 189.675 151.216C190.279 150.41 191.256 149.676 192.22 149.993" stroke="black" stroke-width="0.5" stroke-miterlimit="10"/>
<path d="M168.651 167.252C171.096 166.028 173.253 164.301 174.978 162.185C175.28 162.545 175.525 162.948 175.712 163.38C176.057 164.143 176.215 164.978 176.172 165.813C176.071 167.526 175.021 169.57 171.412 171.398C171.153 171.542 170.88 171.686 170.607 171.801C169.615 170.433 168.536 169.138 167.357 167.914C167.357 167.914 167.86 167.684 168.651 167.252Z" fill="#263238"/>
<path d="M174.906 162.199C175.208 162.559 175.453 162.962 175.64 163.394C175.108 164.963 172.965 166.633 169.571 168.389L168.579 167.252C171.024 166.028 173.181 164.301 174.906 162.185V162.199Z" fill="white"/>
<path d="M172.563 168.649C173.583 167.497 174.806 166.547 176.172 165.827C176.071 167.54 175.021 169.584 171.412 171.412C171.498 170.39 171.901 169.44 172.563 168.663V168.649Z" fill="white"/>
<path d="M162.353 155.146C161.605 158.773 160.354 162.3 158.628 165.582C160.368 166.431 162.381 166.46 164.15 165.683L162.353 155.146Z" fill="white"/>
<path d="M187.676 136.375C187.676 136.375 189.099 131.582 180.098 126.544C171.096 121.506 155.954 124.716 145.888 130.905C135.822 137.095 147.225 145.977 151.942 146.394L150.69 144.739C155.738 145.199 160.843 144.638 165.646 143.083L162.698 142.004C162.698 142.004 181.593 139.614 187.69 136.375H187.676Z" fill="#263238"/>
</svg>
