<svg width="558" height="598" viewBox="0 0 558 598" fill="none" xmlns="http://www.w3.org/2000/svg">
<g clip-path="url(#clip0_413_3376)">
<path d="M229.46 496.503C229.575 516.439 244.833 532.504 263.527 532.403L270.185 532.36L269.753 460.17L263.095 460.214C244.401 460.329 229.331 476.58 229.46 496.503Z" fill="#E0E0E0"/>
<path d="M295.608 521.636C281.617 535.815 258.781 535.944 244.617 521.938C230.453 507.932 230.323 485.073 244.315 470.894C258.307 456.716 281.142 456.586 295.306 470.592C309.471 484.598 309.6 507.457 295.608 521.636Z" fill="#E6E6E6"/>
<path d="M282.791 522.16C297.079 515.07 302.919 497.727 295.836 483.425C288.753 469.122 271.428 463.276 257.14 470.366C242.852 477.457 237.012 494.799 244.095 509.102C251.178 523.404 268.503 529.25 282.791 522.16Z" fill="#EBEBEB"/>
<path d="M274.484 507.673C272.974 508.81 271.191 509.4 269.149 509.472L269.005 510.422C268.934 510.897 268.689 511.301 268.286 511.603C267.884 511.919 267.438 512.035 266.963 511.963C266.489 511.891 266.115 511.646 265.842 511.243C265.569 510.84 265.468 510.394 265.554 509.89L265.684 509.055C263.929 508.551 262.477 507.759 261.327 506.68C260.162 505.6 259.4 504.42 259.04 503.124C258.882 502.505 258.824 502.016 258.882 501.627C258.954 501.123 259.213 500.72 259.63 500.404C260.047 500.101 260.521 499.986 261.053 500.058C261.485 500.13 261.83 500.303 262.117 500.605C262.405 500.908 262.592 501.267 262.678 501.699C262.822 502.577 263.239 503.34 263.901 503.988C264.576 504.65 265.367 505.154 266.288 505.499L267.682 497.453C265.698 496.46 264.188 495.337 263.167 494.099C262.132 492.861 261.758 491.378 262.017 489.636C262.29 487.88 263.11 486.498 264.504 485.476C265.899 484.469 267.668 483.994 269.811 484.037L269.926 483.245C269.998 482.77 270.228 482.367 270.63 482.065C271.019 481.748 271.45 481.633 271.896 481.705C272.37 481.777 272.759 482.022 273.061 482.439C273.363 482.857 273.463 483.303 273.391 483.778L273.276 484.526C275.275 485.045 276.785 485.865 277.777 486.988C278.769 488.125 279.158 489.421 278.942 490.874C278.856 491.421 278.611 491.853 278.209 492.17C277.806 492.487 277.346 492.602 276.843 492.515C276.397 492.443 276.023 492.242 275.764 491.911C275.491 491.58 275.376 491.177 275.39 490.716C275.39 490.183 275.16 489.651 274.686 489.161C274.211 488.658 273.55 488.255 272.687 487.952L271.436 495.092C275.75 497.28 277.662 500.001 277.159 503.268C276.886 505.053 275.994 506.507 274.484 507.644V507.673ZM266.129 491.781C266.561 492.343 267.294 492.947 268.33 493.566L269.293 487.506C268.215 487.506 267.366 487.736 266.748 488.168C266.129 488.6 265.756 489.19 265.641 489.953C265.54 490.601 265.698 491.22 266.129 491.781ZM272.342 504.996C273.061 504.434 273.478 503.758 273.607 502.952C273.708 502.304 273.55 501.656 273.132 501.008C272.715 500.361 271.939 499.713 270.817 499.051L269.71 505.989C270.745 505.888 271.637 505.557 272.342 505.01V504.996Z" fill="#FAFAFA"/>
<path d="M250.326 474.393C262.405 463.553 280.97 464.561 291.798 476.638C302.626 488.73 301.619 507.313 289.554 518.152C299.333 506.968 299.232 490.227 289.31 479.157C278.482 467.066 259.903 466.058 247.838 476.912C248.615 476.019 249.449 475.184 250.326 474.393Z" fill="#E0E0E0"/>
<path d="M431.816 399.612C433.383 414.179 445.736 424.788 459.397 423.305L464.257 422.773L458.563 370.016L453.702 370.549C440.041 372.031 430.234 385.03 431.816 399.597V399.612Z" fill="#E0E0E0"/>
<path d="M482.06 413.042C472.885 424.457 456.204 426.256 444.801 417.073C433.398 407.889 431.6 391.191 440.774 379.776C449.949 368.361 466.63 366.562 478.033 375.745C489.436 384.929 491.234 401.627 482.06 413.042Z" fill="#E6E6E6"/>
<path d="M464.51 417.45C476.105 415.725 484.109 404.918 482.386 393.312C480.664 381.705 469.868 373.693 458.273 375.418C446.678 377.142 438.675 387.949 440.397 399.556C442.12 411.163 452.916 419.174 464.51 417.45Z" fill="#EBEBEB"/>
<path d="M465.58 404.405C464.559 405.341 463.308 405.917 461.813 406.118L461.784 406.824C461.769 407.183 461.626 407.486 461.338 407.745C461.065 408.004 460.748 408.119 460.389 408.105C460.029 408.09 459.742 407.946 459.512 407.673C459.282 407.399 459.181 407.068 459.195 406.708L459.224 406.089C457.916 405.859 456.78 405.384 455.859 404.679C454.925 403.973 454.292 403.167 453.918 402.246C453.745 401.814 453.673 401.454 453.688 401.166C453.702 400.792 453.86 400.475 454.148 400.216C454.436 399.957 454.766 399.842 455.169 399.856C455.485 399.871 455.759 399.986 455.989 400.173C456.219 400.375 456.391 400.619 456.478 400.922C456.65 401.555 457.01 402.073 457.542 402.505C458.074 402.937 458.706 403.239 459.397 403.426L459.814 397.438C458.289 396.862 457.11 396.143 456.262 395.322C455.413 394.487 455.025 393.436 455.097 392.141C455.169 390.831 455.672 389.766 456.607 388.916C457.542 388.082 458.807 387.592 460.389 387.463L460.418 386.872C460.432 386.513 460.576 386.21 460.849 385.951C461.108 385.692 461.41 385.577 461.755 385.591C462.115 385.606 462.416 385.764 462.661 386.038C462.905 386.325 463.02 386.642 463.006 387.002L462.977 387.563C464.487 387.794 465.638 388.283 466.457 389.032C467.277 389.78 467.651 390.701 467.593 391.781C467.579 392.198 467.421 392.53 467.148 392.789C466.874 393.048 466.544 393.163 466.17 393.149C465.839 393.134 465.551 393.005 465.336 392.789C465.12 392.558 464.991 392.285 464.976 391.939C464.947 391.551 464.732 391.176 464.343 390.86C463.955 390.529 463.437 390.284 462.79 390.126L462.402 395.437C465.724 396.704 467.32 398.561 467.205 400.994C467.133 402.318 466.587 403.455 465.58 404.391V404.405ZM458.275 393.408C458.635 393.796 459.21 394.171 460.015 394.545L460.274 390.039C459.483 390.126 458.879 390.356 458.462 390.716C458.045 391.076 457.815 391.536 457.786 392.098C457.757 392.587 457.93 393.019 458.275 393.393V393.408ZM463.797 402.606C464.272 402.145 464.53 401.613 464.559 401.022C464.588 400.533 464.415 400.072 464.07 399.641C463.725 399.194 463.107 398.777 462.23 398.388L461.942 403.542C462.704 403.398 463.322 403.081 463.797 402.62V402.606Z" fill="#F5F5F5"/>
<path d="M445.434 381.878C453.458 373.039 467.104 372.391 475.934 380.424C484.763 388.456 485.41 402.116 477.386 410.955C483.699 402.044 482.376 389.809 474.294 382.468C465.465 374.435 451.818 375.098 443.794 383.922C444.298 383.216 444.844 382.54 445.419 381.892L445.434 381.878Z" fill="#E0E0E0"/>
<path d="M47.9273 479.2C47.8986 478.509 45.5978 410.465 34.5395 399.698C23.7833 389.233 11.4453 399.309 10.9276 399.741L9.82031 398.417C9.96411 398.302 23.8983 386.916 35.7618 398.46C47.3234 409.702 49.581 476.321 49.6673 479.157L47.9417 479.215L47.9273 479.2Z" fill="#E0E0E0"/>
<path d="M48.8763 492.587C48.7901 491.767 41.3124 410.883 70.8346 376.983L72.1432 378.12C43.1243 411.458 50.53 491.608 50.6163 492.414L48.8907 492.587H48.8763Z" fill="#E0E0E0"/>
<path d="M47.7835 484.022L46.0579 483.907C46.1154 482.986 51.8387 391.954 30.1824 372.017L31.3471 370.736C53.593 391.22 48.0279 480.237 47.7691 484.008L47.7835 484.022Z" fill="#E0E0E0"/>
<path d="M50.6019 483.979H48.8763C48.8907 481.46 49.5953 422.471 66.3337 412.869C70.0581 410.739 73.6962 410.379 77.1618 411.818C87.2853 416.007 92.3039 434.044 92.5053 434.807L90.8372 435.267C90.794 435.095 85.8329 417.288 76.5003 413.431C73.5524 412.207 70.432 412.538 67.1965 414.395C51.3066 423.507 50.6163 483.403 50.6163 484.008L50.6019 483.979Z" fill="#E0E0E0"/>
<path d="M44.0878 484.022L42.3622 483.921C42.391 483.461 44.8931 437.311 32.44 421.045C29.4202 417.101 26.156 415.23 22.6904 415.475C14.5369 416.05 7.70643 427.984 7.63453 428.113L6.12463 427.264C6.42661 426.746 13.4872 414.395 22.561 413.762C26.6305 413.474 30.4125 415.575 33.8061 420.009C46.6331 436.779 44.1885 482.108 44.0735 484.037L44.0878 484.022Z" fill="#E0E0E0"/>
<path d="M46.8201 490.298C46.4749 485.822 38.681 380.452 52.3995 361.883L53.7944 362.905C40.4641 380.956 48.4594 489.075 48.5457 490.154L46.8201 490.284V490.298Z" fill="#E0E0E0"/>
<path d="M80.8862 422.485C80.8862 422.485 72.6608 425.522 75.1054 432.691C77.55 439.859 103.563 451.649 103.563 451.649C103.563 451.649 114.463 441.659 104.455 425.392C94.4465 409.141 81.1019 417.346 80.8862 422.485Z" fill="#EBEBEB"/>
<path d="M45.1232 408.839C45.1232 408.839 53.8806 408.465 54.3839 416.036C54.8872 423.593 35.4023 444.509 35.4023 444.509C35.4023 444.509 21.4968 439.485 24.4879 420.614C27.4789 401.757 42.9518 404.189 45.1232 408.839Z" fill="#EBEBEB"/>
<path d="M37.7031 372.665C37.7031 372.665 43.5413 372.031 43.0668 368.476C42.5923 364.92 20.3608 355.751 7.24622 370.563C7.24622 370.563 15.6441 385.001 27.7952 385.203C39.932 385.39 37.7031 372.665 37.7031 372.665Z" fill="#EBEBEB"/>
<path d="M48.5888 364.013C48.5888 364.013 43.297 366.576 41.8158 363.308C40.3347 360.041 54.3552 340.493 73.3224 346.121C73.3224 346.121 73.8257 362.833 63.6159 369.412C53.4061 376.004 48.5744 364.013 48.5744 364.013H48.5888Z" fill="#EBEBEB"/>
<path d="M20.936 419.606C20.936 419.606 24.9624 416.353 20.6197 414.755C16.2625 413.171 -5.07739 413.618 -5.29309 434.778C-5.29309 434.778 19.5699 438.909 22.6472 430.848C25.7246 422.787 20.9504 419.591 20.9504 419.591L20.936 419.606Z" fill="#EBEBEB"/>
<path d="M71.6255 372.132C71.6255 372.132 67.5991 368.879 71.9419 367.281C76.299 365.698 97.6389 366.144 97.8546 387.304C97.8546 387.304 72.9916 391.436 69.9143 383.375C66.837 375.313 71.6111 372.118 71.6111 372.118L71.6255 372.132Z" fill="#EBEBEB"/>
<path d="M58.4822 389.19C58.4822 389.19 58.1227 385.231 61.315 386.786C64.5074 388.341 75.6375 400.36 64.1048 411.761C64.1048 411.761 48.5744 400.245 51.3785 394.257C54.1826 388.269 58.4822 389.204 58.4822 389.204V389.19Z" fill="#EBEBEB"/>
<path d="M17.3266 394.833C17.3266 394.833 19.7425 391.666 16.205 391.277C12.6819 390.889 -3.1361 395.106 0.545185 410.912C0.545185 410.912 19.8144 409.458 20.634 402.894C21.4537 396.33 17.3266 394.818 17.3266 394.818V394.833Z" fill="#EBEBEB"/>
<path d="M66.8082 514.51H27.9391L17.5999 466.777H76.1552L66.8082 514.51Z" fill="#F0F0F0"/>
<path d="M79.5345 466.086H14.0768V479.819H79.5345V466.086Z" fill="#E6E6E6"/>
<path d="M34.3957 534.865H11.3014V535.224H34.3957V534.865Z" fill="#E0E0E0"/>
<path d="M258.939 530.963H181.963V531.323H258.939V530.963Z" fill="#E0E0E0"/>
<path d="M543.174 530.776H481.067V531.136H543.174V530.776Z" fill="#E0E0E0"/>
<path d="M565.09 530.776H555.987V531.136H565.09V530.776Z" fill="#E0E0E0"/>
<path d="M469.204 539.744H391.71V540.104H469.204V539.744Z" fill="#E0E0E0"/>
<path d="M203.979 32.5751H165.455C164.247 32.5751 163.73 31.0492 164.679 30.3151L182.884 16.1219L203.203 0.273319C203.663 -0.0865491 204.296 -0.0865491 204.756 0.273319L225.089 16.1219L243.294 30.3151C244.243 31.0492 243.725 32.5751 242.518 32.5751H203.994H203.979Z" fill="#EBEBEB"/>
<path d="M231.229 28.6019H176.743C176.24 28.6019 175.794 28.2852 175.636 27.8102C175.478 27.3352 175.636 26.817 176.024 26.5003L203.26 5.25368C203.691 4.9226 204.281 4.9226 204.698 5.25368L231.934 26.5003C232.322 26.8026 232.48 27.3352 232.322 27.8102C232.164 28.2852 231.718 28.6019 231.215 28.6019H231.229ZM178.598 26.7882H229.374L203.993 6.99544L178.613 26.7882H178.598Z" fill="#E0E0E0"/>
<path d="M180.41 32.5752H173.048V64.0565H180.41V32.5752Z" fill="#EBEBEB"/>
<path d="M197.105 32.5752H189.743V64.0565H197.105V32.5752Z" fill="#EBEBEB"/>
<path d="M219.754 32.5752H212.391V64.0565H219.754V32.5752Z" fill="#EBEBEB"/>
<path d="M236.075 32.5752H228.713V64.0565H236.075V32.5752Z" fill="#EBEBEB"/>
<path d="M243.251 72.1604H164.722C163.586 72.1604 162.766 71.0952 163.054 70.0012L164.247 65.3517C164.448 64.5888 165.139 64.0562 165.915 64.0562H241.77C242.518 64.0562 243.193 64.5456 243.423 65.2653L244.905 69.9148C245.264 71.0376 244.43 72.1748 243.251 72.1748V72.1604Z" fill="#EBEBEB"/>
<path d="M203.979 24.4709C201.031 24.4709 198.63 22.067 198.63 19.1161C198.63 16.1651 201.031 13.7612 203.979 13.7612C206.927 13.7612 209.328 16.1651 209.328 19.1161C209.328 22.067 206.927 24.4709 203.979 24.4709ZM203.979 15.5606C202.023 15.5606 200.442 17.1584 200.442 19.1017C200.442 21.045 202.023 22.6428 203.979 22.6428C205.935 22.6428 207.517 21.045 207.517 19.1017C207.517 17.1584 205.935 15.5606 203.979 15.5606Z" fill="#E0E0E0"/>
<path d="M240.878 32.5752H167.094C166.602 32.5752 166.203 32.9748 166.203 33.4677V36.2602C166.203 36.7531 166.602 37.1527 167.094 37.1527H240.878C241.371 37.1527 241.77 36.7531 241.77 36.2602V33.4677C241.77 32.9748 241.371 32.5752 240.878 32.5752Z" fill="#EBEBEB"/>
<path d="M240.102 33.7268H167.871C167.368 33.7268 166.965 33.3238 166.965 32.82C166.965 32.3161 167.368 31.9131 167.871 31.9131H240.102C240.605 31.9131 241.008 32.3161 241.008 32.82C241.008 33.3238 240.605 33.7268 240.102 33.7268Z" fill="#E0E0E0"/>
<path d="M240.102 69.1663H167.871C167.368 69.1663 166.965 68.7632 166.965 68.2594C166.965 67.7556 167.368 67.3525 167.871 67.3525H240.102C240.605 67.3525 241.008 67.7556 241.008 68.2594C241.008 68.7632 240.605 69.1663 240.102 69.1663Z" fill="#E0E0E0"/>
<path d="M121.438 64.1426H16.3489V230.934H121.438V64.1426Z" fill="#E6E6E6"/>
<path d="M117.225 63.9985H16.3489V226.054H117.225V63.9985Z" fill="#F0F0F0"/>
<path d="M101.852 78.3931H31.6924V211.659H101.852V78.3931Z" fill="white"/>
<path d="M81.2458 106.463H53.2479V184.338H81.2458V106.463Z" fill="#F0F0F0"/>
<path d="M304.164 598C470.046 598 604.52 592.863 604.52 586.527C604.52 580.191 470.046 575.055 304.164 575.055C138.283 575.055 3.80945 580.191 3.80945 586.527C3.80945 592.863 138.283 598 304.164 598Z" fill="#F5F5F5"/>
<path d="M361.828 467.238H218.417C202.282 467.238 189.225 454.139 188.319 438.19V95.0627C189.225 78.7247 202.297 65.6399 218.417 65.6255H361.828C377.963 65.6255 391.034 78.7247 391.034 94.8612V437.988C391.034 454.139 377.948 467.209 361.828 467.224V467.238Z" fill="#263238"/>
<path d="M361.828 72.3478H324.555C322.14 72.3478 320.083 74.1183 319.752 76.5222L319.594 77.6882C318.818 83.59 313.785 88.0236 307.846 88.038H272.428C266.475 88.0092 261.456 83.59 260.679 77.6882L260.536 76.5222C260.219 74.1039 258.149 72.2902 255.704 72.2902H218.431C206.007 72.247 195.898 82.2945 195.854 94.7315C195.854 94.7747 195.854 94.8179 195.854 94.8755V438.003C195.854 450.44 205.92 460.53 218.359 460.53H361.771C374.195 460.53 384.276 450.454 384.29 438.003V94.8755C384.29 82.4673 374.253 72.4053 361.857 72.3478H361.828Z" fill="#407BFF"/>
<path opacity="0.7" d="M361.828 72.3478H324.555C322.14 72.3478 320.083 74.1183 319.752 76.5222L319.594 77.6882C318.818 83.59 313.785 88.0236 307.846 88.038H272.428C266.475 88.0092 261.456 83.59 260.679 77.6882L260.536 76.5222C260.219 74.1039 258.149 72.2902 255.704 72.2902H218.431C206.007 72.247 195.898 82.2945 195.854 94.7315C195.854 94.7747 195.854 94.8179 195.854 94.8755V438.003C195.854 450.44 205.92 460.53 218.359 460.53H361.771C374.195 460.53 384.276 450.454 384.29 438.003V94.8755C384.29 82.4673 374.253 72.4053 361.857 72.3478H361.828Z" fill="white"/>
<g opacity="0.7">
<path d="M281.458 76.1478C281.458 77.7312 280.193 79.0123 278.626 79.0267C277.044 79.0267 275.764 77.76 275.75 76.191C275.75 74.6075 277.015 73.3264 278.582 73.312C278.582 73.312 278.611 73.312 278.626 73.312C280.193 73.312 281.458 74.5787 281.458 76.1478Z" fill="black"/>
<path d="M301.648 73.2979H291.884C290.317 73.2979 289.051 74.5646 289.051 76.1336C289.051 77.7026 290.317 78.9694 291.884 78.9694H301.648C303.215 78.9694 304.481 77.7026 304.481 76.1336C304.481 74.5646 303.215 73.2979 301.648 73.2979Z" fill="black"/>
</g>
<path d="M214.563 85.0298H211.543V88.0527H214.563V85.0298Z" fill="#407BFF"/>
<path d="M217.554 85.0297V88.0526H220.573V85.0297V82.0068H217.554V85.0297Z" fill="#407BFF"/>
<path d="M223.593 79.0127V82.0068V85.0297V88.0526H226.613V85.0297V82.0068V79.0127H223.593Z" fill="#407BFF"/>
<path d="M353.272 79.2139V81.4163H351.805V85.8498H353.272V88.0522H366.617V79.2139H353.272ZM359.226 85.8498H354.696V81.4163H359.125L359.226 85.8498Z" fill="#407BFF"/>
<path d="M346.413 244.753H233.846C232.528 244.753 231.459 245.823 231.459 247.143V317.648C231.459 318.968 232.528 320.038 233.846 320.038H346.413C347.731 320.038 348.8 318.968 348.8 317.648V247.143C348.8 245.823 347.731 244.753 346.413 244.753Z" fill="#407BFF"/>
<path opacity="0.6" d="M267.797 259.724H250.398C248.762 259.724 247.435 261.052 247.435 262.689V276.911C247.435 278.549 248.762 279.876 250.398 279.876H267.797C269.434 279.876 270.76 278.549 270.76 276.911V262.689C270.76 261.052 269.434 259.724 267.797 259.724Z" fill="white"/>
<g opacity="0.3">
<path d="M247.435 295.221H262.606C264.332 295.221 264.332 292.544 262.606 292.544H247.435C245.71 292.544 245.71 295.221 247.435 295.221Z" fill="black"/>
</g>
<g opacity="0.3">
<path d="M270.774 295.221H285.945C287.671 295.221 287.671 292.544 285.945 292.544H270.774C269.049 292.544 269.049 295.221 270.774 295.221Z" fill="black"/>
</g>
<g opacity="0.3">
<path d="M294.127 295.221H309.298C311.024 295.221 311.024 292.544 309.298 292.544H294.127C292.402 292.544 292.402 295.221 294.127 295.221Z" fill="black"/>
</g>
<g opacity="0.3">
<path d="M317.48 295.221H332.651C334.377 295.221 334.377 292.544 332.651 292.544H317.48C315.755 292.544 315.755 295.221 317.48 295.221Z" fill="black"/>
</g>
<path d="M323.736 111.588H254.352C252.351 111.588 250.728 113.212 250.728 115.215V178.624C250.728 180.628 252.351 182.252 254.352 182.252H323.736C325.737 182.252 327.359 180.628 327.359 178.624V115.215C327.359 113.212 325.737 111.588 323.736 111.588Z" fill="#407BFF"/>
<path d="M289.037 141.932H262.319C261.485 141.932 261.125 140.881 261.787 140.363L274.412 130.517L288.505 119.519C288.821 119.275 289.267 119.275 289.583 119.519L303.675 130.517L316.301 140.363C316.963 140.881 316.603 141.932 315.769 141.932H289.051H289.037Z" fill="#407BFF"/>
<g opacity="0.7">
<path d="M289.037 141.932H262.319C261.485 141.932 261.125 140.881 261.787 140.363L274.412 130.517L288.505 119.519C288.821 119.275 289.267 119.275 289.583 119.519L303.675 130.517L316.301 140.363C316.963 140.881 316.603 141.932 315.769 141.932H289.051H289.037Z" fill="white"/>
</g>
<path d="M307.932 139.168H270.141C269.796 139.168 269.48 138.952 269.365 138.621C269.25 138.29 269.365 137.93 269.638 137.714L288.533 122.974C288.835 122.744 289.238 122.744 289.526 122.974L308.421 137.714C308.694 137.93 308.809 138.29 308.694 138.621C308.579 138.952 308.277 139.168 307.918 139.168H307.932ZM271.436 137.916H306.652L289.037 124.183L271.421 137.916H271.436Z" fill="#407BFF"/>
<path d="M272.687 141.932H267.582V163.769H272.687V141.932Z" fill="#407BFF"/>
<g opacity="0.7">
<path d="M272.687 141.932H267.582V163.769H272.687V141.932Z" fill="white"/>
</g>
<path d="M284.263 141.932H279.158V163.769H284.263V141.932Z" fill="#407BFF"/>
<g opacity="0.7">
<path d="M284.263 141.932H279.158V163.769H284.263V141.932Z" fill="white"/>
</g>
<path d="M299.98 141.932H294.875V163.769H299.98V141.932Z" fill="#407BFF"/>
<g opacity="0.7">
<path d="M299.98 141.932H294.875V163.769H299.98V141.932Z" fill="white"/>
</g>
<path d="M311.354 141.932H306.25V163.769H311.354V141.932Z" fill="#407BFF"/>
<g opacity="0.7">
<path d="M311.354 141.932H306.25V163.769H311.354V141.932Z" fill="white"/>
</g>
<path d="M316.272 169.383H261.801C261.024 169.383 260.449 168.649 260.636 167.886L261.456 164.661C261.585 164.129 262.074 163.754 262.621 163.754H315.237C315.755 163.754 316.215 164.085 316.373 164.589L317.394 167.814C317.639 168.591 317.063 169.383 316.258 169.383H316.272Z" fill="#407BFF"/>
<g opacity="0.7">
<path d="M316.272 169.383H261.801C261.024 169.383 260.449 168.649 260.636 167.886L261.456 164.661C261.585 164.129 262.074 163.754 262.621 163.754H315.237C315.755 163.754 316.215 164.085 316.373 164.589L317.394 167.814C317.639 168.591 317.063 169.383 316.258 169.383H316.272Z" fill="white"/>
</g>
<path d="M289.037 136.304C286.995 136.304 285.327 134.634 285.327 132.59C285.327 130.546 286.995 128.876 289.037 128.876C291.079 128.876 292.747 130.546 292.747 132.59C292.747 134.634 291.079 136.304 289.037 136.304ZM289.037 130.128C287.685 130.128 286.578 131.237 286.578 132.59C286.578 133.943 287.685 135.051 289.037 135.051C290.388 135.051 291.496 133.943 291.496 132.59C291.496 131.237 290.388 130.128 289.037 130.128Z" fill="#407BFF"/>
<path d="M314.346 141.932H263.714C263.221 141.932 262.822 142.332 262.822 142.825V144.206C262.822 144.699 263.221 145.099 263.714 145.099H314.346C314.838 145.099 315.237 144.699 315.237 144.206V142.825C315.237 142.332 314.838 141.932 314.346 141.932Z" fill="#407BFF"/>
<g opacity="0.7">
<path d="M314.346 141.932H263.714C263.221 141.932 262.822 142.332 262.822 142.825V144.206C262.822 144.699 263.221 145.099 263.714 145.099H314.346C314.838 145.099 315.237 144.699 315.237 144.206V142.825C315.237 142.332 314.838 141.932 314.346 141.932Z" fill="white"/>
</g>
<path d="M314.087 142.724H263.987C263.642 142.724 263.354 142.436 263.354 142.09C263.354 141.745 263.642 141.457 263.987 141.457H314.087C314.432 141.457 314.719 141.745 314.719 142.09C314.719 142.436 314.432 142.724 314.087 142.724Z" fill="#407BFF"/>
<path d="M314.087 167.31H263.987C263.642 167.31 263.354 167.022 263.354 166.677C263.354 166.331 263.642 166.043 263.987 166.043H314.087C314.432 166.043 314.719 166.331 314.719 166.677C314.719 167.022 314.432 167.31 314.087 167.31Z" fill="#407BFF"/>
<path d="M334.995 194.66H245.264V198.82H334.995V194.66Z" fill="#407BFF"/>
<path d="M269.926 216.425H224.931V220.585H269.926V216.425Z" fill="#407BFF"/>
<path d="M311.944 216.425H279.129V220.585H311.944V216.425Z" fill="#407BFF"/>
<path d="M354.092 216.425H321.277V220.585H354.092V216.425Z" fill="#407BFF"/>
<path opacity="0.3" d="M269.926 216.425H224.931V220.585H269.926V216.425Z" fill="black"/>
<path opacity="0.3" d="M311.944 216.425H279.129V220.585H311.944V216.425Z" fill="black"/>
<path opacity="0.3" d="M354.092 216.425H321.277V220.585H354.092V216.425Z" fill="black"/>
<path d="M241.439 358.429C245.005 358.429 247.896 355.535 247.896 351.965C247.896 348.396 245.005 345.502 241.439 345.502C237.873 345.502 234.982 348.396 234.982 351.965C234.982 355.535 237.873 358.429 241.439 358.429Z" fill="#407BFF"/>
<path d="M346.327 348.784H262.017V352.714H346.327V348.784Z" fill="#407BFF"/>
<path d="M240.36 384.181C243.926 384.181 246.817 381.287 246.817 377.718C246.817 374.148 243.926 371.254 240.36 371.254C236.795 371.254 233.904 374.148 233.904 377.718C233.904 381.287 236.795 384.181 240.36 384.181Z" fill="#407BFF"/>
<path d="M346.327 374.608H262.017V378.538H346.327V374.608Z" fill="#407BFF"/>
<path d="M241.439 408.868C245.005 408.868 247.896 405.974 247.896 402.405C247.896 398.835 245.005 395.941 241.439 395.941C237.873 395.941 234.982 398.835 234.982 402.405C234.982 405.974 237.873 408.868 241.439 408.868Z" fill="#407BFF"/>
<path d="M346.327 400.447H262.017V404.377H346.327V400.447Z" fill="#407BFF"/>
<path opacity="0.3" d="M346.327 348.784H262.017V352.714H346.327V348.784Z" fill="black"/>
<path opacity="0.3" d="M346.327 374.608H262.017V378.538H346.327V374.608Z" fill="black"/>
<path opacity="0.3" d="M346.327 400.447H262.017V404.377H346.327V400.447Z" fill="black"/>
<path opacity="0.2" d="M194.373 373.327C194.373 369.872 206.869 324.903 234.378 277.631C261.873 230.358 295.882 262.646 328.884 210.767C361.886 158.889 365.596 72.29 365.596 72.29H327.172C327.172 72.29 319.882 169.267 284.881 181.949C249.88 194.631 194.373 271.873 194.373 271.873V373.327Z" fill="white"/>
<path opacity="0.2" d="M218.56 461.106H241.065C241.065 461.106 365.768 283.043 384.275 251.03V216.511C367.278 256.528 218.575 461.106 218.575 461.106H218.56Z" fill="white"/>
<path d="M376.913 207.313C388.374 230.316 415.149 240.233 436.719 229.466L444.398 225.637L402.912 142.335L395.233 146.164C373.663 156.931 365.452 184.31 376.913 207.313Z" fill="#407BFF"/>
<path opacity="0.3" d="M376.913 207.313C388.374 230.316 415.149 240.233 436.719 229.466L444.398 225.637L402.912 142.335L395.233 146.164C373.663 156.931 365.452 184.31 376.913 207.313Z" fill="black"/>
<path d="M444.203 225.762C467.237 214.406 476.714 186.508 465.37 163.451C454.026 140.393 426.156 130.907 403.122 142.263C380.088 153.618 370.612 181.516 381.956 204.574C393.3 227.631 421.169 237.117 444.203 225.762Z" fill="#407BFF"/>
<path d="M390.344 200.619C399.518 219.03 421.865 226.53 440.271 217.346C458.663 208.162 466.155 185.793 456.981 167.367C447.806 148.957 425.46 141.457 407.053 150.641C388.661 159.825 381.169 182.194 390.344 200.619Z" fill="#407BFF"/>
<path opacity="0.3" d="M390.344 200.619C399.518 219.03 421.865 226.53 440.271 217.346C458.663 208.162 466.155 185.793 456.981 167.367C447.806 148.957 425.46 141.457 407.053 150.641C388.661 159.825 381.169 182.194 390.344 200.619Z" fill="white"/>
<path d="M435.382 194.617C434.275 196.79 432.564 198.489 430.234 199.741L430.608 200.922C430.795 201.512 430.737 202.102 430.45 202.707C430.148 203.297 429.716 203.685 429.112 203.873C428.508 204.06 427.948 204.002 427.401 203.685C426.855 203.369 426.481 202.908 426.294 202.275L425.963 201.238C423.662 201.656 421.52 201.569 419.578 200.979C417.623 200.389 416.07 199.453 414.905 198.172C414.358 197.553 414.028 197.006 413.87 196.531C413.668 195.898 413.726 195.293 414.042 194.703C414.358 194.113 414.833 193.71 415.494 193.494C416.027 193.321 416.544 193.336 417.047 193.523C417.551 193.71 417.982 194.027 418.327 194.458C418.989 195.38 419.909 196.027 421.045 196.416C422.196 196.79 423.403 196.92 424.669 196.805L421.707 186.7C418.845 186.671 416.472 186.225 414.574 185.39C412.676 184.54 411.396 183.043 410.72 180.884C410.03 178.696 410.203 176.623 411.238 174.666C412.273 172.708 414.042 171.139 416.573 169.973L416.271 168.994C416.084 168.404 416.127 167.814 416.415 167.224C416.688 166.633 417.119 166.259 417.68 166.072C418.27 165.885 418.859 165.957 419.435 166.274C420.01 166.59 420.398 167.051 420.585 167.641L420.873 168.577C423.49 168.03 425.69 168.13 427.487 168.879C429.285 169.628 430.464 170.894 431.039 172.722C431.255 173.413 431.212 174.047 430.924 174.637C430.622 175.227 430.162 175.616 429.544 175.817C428.983 175.99 428.451 175.961 427.948 175.731C427.444 175.501 427.07 175.098 426.826 174.565C426.524 173.932 425.963 173.471 425.129 173.169C424.295 172.866 423.303 172.766 422.138 172.895L424.741 181.877C430.982 181.949 434.735 184.022 436.015 188.082C436.705 190.298 436.504 192.501 435.396 194.674L435.382 194.617ZM416.674 180.971C417.493 181.388 418.672 181.662 420.225 181.791L417.896 174.219C416.645 174.853 415.796 175.587 415.322 176.451C414.847 177.3 414.761 178.207 415.049 179.142C415.308 179.949 415.84 180.568 416.659 180.985L416.674 180.971ZM431.37 192.731C431.888 191.68 431.974 190.644 431.672 189.651C431.413 188.844 430.867 188.182 430.018 187.664C429.17 187.16 427.904 186.844 426.222 186.714L428.882 195.365C430.033 194.66 430.867 193.782 431.37 192.731Z" fill="#407BFF"/>
<path d="M388.518 169.858C396.326 150.439 418.399 141.04 437.798 148.856C457.197 156.672 466.587 178.768 458.778 198.187C463.739 179.675 454.119 160.357 436.36 153.203C416.961 145.387 394.902 154.787 387.08 174.205C387.468 172.737 387.957 171.283 388.532 169.872L388.518 169.858Z" fill="#407BFF"/>
<path opacity="0.3" d="M388.518 169.858C396.326 150.439 418.399 141.04 437.798 148.856C457.197 156.672 466.587 178.768 458.778 198.187C463.739 179.675 454.119 160.357 436.36 153.203C416.961 145.387 394.902 154.787 387.08 174.205C387.468 172.737 387.957 171.283 388.532 169.872L388.518 169.858Z" fill="black"/>
<path d="M68.0592 330.776C74.2283 343.17 88.6658 348.525 100.299 342.724L104.441 340.665L82.0797 295.768L77.9383 297.827C66.3049 303.628 61.8902 318.382 68.0592 330.791V330.776Z" fill="#407BFF"/>
<path opacity="0.3" d="M68.0592 330.776C74.2283 343.17 88.6658 348.525 100.299 342.724L104.441 340.665L82.0797 295.768L77.9383 297.827C66.3049 303.628 61.8902 318.382 68.0592 330.791V330.776Z" fill="black"/>
<path d="M117.023 326.155C112.637 339.298 98.4298 346.38 85.3009 341.99C72.1719 337.599 65.097 323.377 69.4829 310.235C73.8688 297.093 88.0762 290.01 101.205 294.401C114.334 298.791 121.409 313.013 117.023 326.155Z" fill="#407BFF"/>
<path d="M75.2924 327.163C80.2391 337.095 92.2896 341.126 102.197 336.174C112.12 331.222 116.146 319.16 111.199 309.242C106.253 299.324 94.2021 295.279 84.2943 300.231C74.3721 305.182 70.3457 317.245 75.2924 327.163Z" fill="#407BFF"/>
<path opacity="0.3" d="M75.2924 327.163C80.2391 337.095 92.2896 341.126 102.197 336.174C112.12 331.222 116.146 319.16 111.199 309.242C106.253 299.324 94.2021 295.279 84.2943 300.231C74.3721 305.182 70.3457 317.245 75.2924 327.163Z" fill="white"/>
<path d="M99.5659 323.924C98.9763 325.09 98.0416 326.011 96.7905 326.688L96.9919 327.321C97.0925 327.638 97.0637 327.955 96.9056 328.286C96.7474 328.617 96.5029 328.818 96.1866 328.919C95.8702 329.02 95.5538 328.991 95.2662 328.818C94.9786 328.646 94.7773 328.401 94.6623 328.055L94.4897 327.494C93.253 327.724 92.1027 327.667 91.0385 327.35C89.9888 327.033 89.1404 326.53 88.522 325.839C88.2344 325.508 88.0475 325.205 87.9612 324.961C87.8606 324.63 87.8893 324.298 88.0475 323.967C88.2201 323.651 88.4789 323.435 88.824 323.32C89.1116 323.233 89.3848 323.233 89.6581 323.334C89.9313 323.435 90.1613 323.607 90.3483 323.838C90.7078 324.342 91.1967 324.687 91.8151 324.889C92.4334 325.09 93.0805 325.162 93.7707 325.09L92.1746 319.649C90.6359 319.635 89.3561 319.39 88.3207 318.944C87.2997 318.483 86.6095 317.677 86.2356 316.511C85.8617 315.331 85.9624 314.208 86.5232 313.157C87.084 312.106 88.0331 311.257 89.3992 310.623L89.2267 310.091C89.126 309.774 89.1548 309.457 89.2986 309.141C89.4424 308.824 89.6724 308.623 89.9744 308.522C90.2908 308.421 90.6071 308.45 90.9235 308.623C91.2399 308.795 91.4412 309.04 91.5418 309.357L91.7 309.861C93.1093 309.573 94.2884 309.616 95.2662 310.019C96.2297 310.422 96.8768 311.113 97.1788 312.092C97.2938 312.466 97.2794 312.811 97.1069 313.128C96.9487 313.445 96.7042 313.661 96.3591 313.762C96.0571 313.862 95.7696 313.833 95.4963 313.718C95.2231 313.589 95.0218 313.373 94.8924 313.085C94.7342 312.739 94.4322 312.495 93.9721 312.336C93.5263 312.178 92.9798 312.121 92.3615 312.192L93.7707 317.029C97.1356 317.072 99.1632 318.181 99.8391 320.369C100.213 321.563 100.098 322.744 99.5084 323.924H99.5659ZM89.4855 316.568C89.9313 316.799 90.564 316.943 91.398 317.015L90.147 312.927C89.4711 313.272 89.011 313.661 88.7665 314.121C88.5077 314.582 88.4645 315.057 88.6227 315.575C88.7665 316.007 89.0541 316.338 89.4855 316.568ZM97.4089 322.917C97.6821 322.355 97.7396 321.794 97.5671 321.261C97.4233 320.829 97.1357 320.469 96.6755 320.196C96.2153 319.922 95.5395 319.75 94.6335 319.692L96.0715 324.356C96.6899 323.982 97.1357 323.507 97.4089 322.931V322.917Z" fill="#407BFF"/>
<path d="M74.3145 310.58C78.5278 300.115 90.4201 295.048 100.874 299.266C111.329 303.484 116.39 315.388 112.177 325.853C114.852 315.878 109.661 305.47 100.098 301.598C89.6436 297.38 77.7513 302.447 73.538 312.912C73.7537 312.121 74.0125 311.343 74.3145 310.58Z" fill="#407BFF"/>
<path opacity="0.3" d="M74.3145 310.58C78.5278 300.115 90.4201 295.048 100.874 299.266C111.329 303.484 116.39 315.388 112.177 325.853C114.852 315.878 109.661 305.47 100.098 301.598C89.6436 297.38 77.7513 302.447 73.538 312.912C73.7537 312.121 74.0125 311.343 74.3145 310.58Z" fill="black"/>
<path d="M363.496 487.304C363.496 487.304 377.086 442.234 428.321 440.291C479.557 438.348 520.325 451.951 521.878 497.409C523.431 542.868 497.029 551.807 497.029 551.807L496.253 575.515H470.239V561.524C470.239 561.524 436.072 563.078 423.274 559.192V579.402H395.319L394.931 552.196C394.931 552.196 374.353 542.091 367.753 524.601H353.387C348.455 510.12 346.787 495.927 351.144 487.016L363.482 487.304H363.496Z" fill="#407BFF"/>
<path d="M393.033 460.789C392.055 452.628 391.092 444.48 390.114 436.318C390.013 435.498 389.927 434.605 390.33 433.871C391.02 432.605 392.745 432.432 394.169 432.619C400.237 433.367 405.486 437.499 408.995 442.508C412.503 447.517 414.56 453.39 416.559 459.177" fill="#407BFF"/>
<path d="M389.754 452.354C386.246 447.345 380.997 443.213 374.928 442.465C373.505 442.292 371.765 442.465 371.089 443.717C370.686 444.451 370.787 445.329 370.873 446.164C371.851 454.326 372.815 462.473 373.792 470.635L397.318 469.023C395.319 463.236 393.263 457.363 389.754 452.354Z" fill="#407BFF"/>
<path d="M435.684 451.649C446.052 450.598 456.477 451.433 466.529 454.182C468.327 454.672 469.089 451.894 467.291 451.404C457.009 448.597 446.282 447.69 435.684 448.77C433.858 448.957 433.843 451.85 435.684 451.649Z" fill="#263238"/>
<path d="M387.209 482.497C387.382 483.749 387.454 485.016 387.425 486.282C387.425 486.901 387.367 487.52 387.31 488.139C387.295 488.283 387.281 488.442 387.267 488.586C387.223 488.917 387.281 488.485 387.238 488.787C387.18 489.133 387.137 489.478 387.065 489.809C386.921 490.543 387.267 491.407 388.072 491.58C388.776 491.738 389.697 491.364 389.841 490.572C390.33 487.909 390.445 485.188 390.085 482.497C390.028 482.094 389.956 481.777 389.668 481.475C389.424 481.23 389.007 481.043 388.647 481.057C387.957 481.086 387.094 481.705 387.209 482.497Z" fill="#263238"/>
<path d="M522.554 496.834C525.099 492.602 531.21 492.861 534.561 495.898C538.185 499.166 540.514 506.248 538.343 510.869C537.164 513.373 533.899 514.77 531.987 512.222C530.146 509.775 531.138 506.363 532.087 503.758C533.799 499.022 537.049 494.415 541.78 492.357C546.511 490.313 552.852 491.464 555.613 496.1C556.562 497.697 559.05 496.244 558.101 494.646C554.837 489.161 547.604 487.261 541.736 489.305C534.992 491.652 530.549 498.259 528.694 504.895C527.759 508.277 527.716 512.265 530.448 514.856C532.864 517.159 536.387 516.914 538.86 514.841C544.339 510.235 541.851 500.216 537.983 495.394C533.554 489.867 524.063 488.729 520.051 495.394C519.088 496.992 521.59 498.446 522.539 496.848L522.554 496.834Z" fill="#407BFF"/>
<path d="M351.101 489.061C356.278 499.18 357.644 510.941 354.94 521.981C354.495 523.781 357.284 524.558 357.716 522.744C360.606 510.926 359.125 498.417 353.589 487.592C352.74 485.937 350.252 487.391 351.101 489.046V489.061Z" fill="#263238"/>
<path d="M466.587 438.78C481.211 439.917 495.361 445.43 506.879 454.542C507.958 455.391 509.497 453.88 508.404 453.016C496.411 443.516 481.844 437.801 466.587 436.621C465.206 436.52 465.206 438.679 466.587 438.78Z" fill="#407BFF"/>
<path d="M511.021 459.652C512.286 461.005 513.552 462.358 514.803 463.711C515.191 464.129 515.939 464.129 516.327 463.711C516.73 463.265 516.744 462.632 516.327 462.186C515.062 460.832 513.796 459.479 512.545 458.126C512.157 457.709 511.409 457.709 511.021 458.126C510.618 458.573 510.604 459.206 511.021 459.652Z" fill="#407BFF"/>
<path d="M103.377 94.271C88.3927 87.0305 70.3889 93.3066 63.1414 108.306C55.8939 123.305 62.1779 141.327 77.1619 148.582C88.7234 154.182 102.082 151.677 110.897 143.357L119.914 144.149L117.153 134.994C117.225 134.85 117.325 134.706 117.397 134.562C124.63 119.563 118.361 101.54 103.377 94.2854V94.271Z" fill="#407BFF"/>
<path d="M88.4358 87.3613C98.1279 85.9794 108.41 89.866 114.794 97.308" stroke="#407BFF" stroke-linecap="round" stroke-linejoin="round"/>
<path d="M117.598 100.82C118.648 101.886 119.482 103.152 120.029 104.549" stroke="#407BFF" stroke-linecap="round" stroke-linejoin="round"/>
<path d="M90.3196 136.447L75.0049 125.032L78.9738 119.692L89.2411 127.335L103.362 110.494L108.467 114.769L90.3196 136.447Z" fill="white"/>
<path d="M154.469 520.268L138.147 522.874L151.506 560.761L167.842 558.141L154.469 520.268Z" fill="white"/>
<path d="M145.51 554.773L151.276 552.484C152.585 551.966 154.052 552.153 155.245 552.901C160.379 556.126 162.205 553.419 164.118 547.69C166.318 546.51 167.986 548.899 168.446 549.547L179.001 563.553C179.892 564.719 179.677 566.389 178.512 567.282C178.311 567.44 178.081 567.569 177.836 567.656C170.819 570.448 167.511 571.758 158.783 575.227L132.093 585.836C124.817 588.73 120.402 581.993 123.135 580.122C135.429 571.787 143.396 564.028 145.999 558.443C146.502 557.45 145.495 557.248 145.495 554.787L145.51 554.773Z" fill="#263238"/>
<path d="M139.025 563.539C140.836 562.776 142.548 561.812 144.158 560.689C144.302 560.559 144.316 560.343 144.187 560.199C144.115 560.127 144.014 560.084 143.914 560.084C142.95 560.012 134.394 559.508 133.086 561.509C132.841 561.869 132.812 562.33 133.014 562.718C133.316 563.467 133.963 564.014 134.739 564.216C136.192 564.46 137.702 564.215 139.01 563.539H139.025ZM142.85 560.718C140.88 561.956 137.126 564.057 134.998 563.481C134.437 563.309 133.977 562.92 133.733 562.387C133.632 562.229 133.632 562.028 133.747 561.884C134.466 560.79 139.327 560.588 142.835 560.718H142.85Z" fill="#407BFF"/>
<path d="M144.086 560.746C144.173 560.746 144.244 560.703 144.316 560.66C144.374 560.53 144.36 560.386 144.273 560.286C144.158 559.983 139.643 553.549 135.861 555.564C134.926 556.082 134.84 556.673 134.955 557.076C135.458 559.062 141.412 560.818 143.943 560.861L144.086 560.732V560.746ZM136.479 555.967C138.981 554.974 142.087 558.544 143.238 560.012C140.391 559.71 135.918 558.054 135.66 556.816C135.616 556.716 135.516 556.457 136.22 556.097L136.479 555.967Z" fill="#407BFF"/>
<path d="M149.421 562.531C149.321 562.531 149.22 562.503 149.134 562.431C147.509 561.236 145.352 560.804 143.382 561.293C143.123 561.351 142.85 561.193 142.778 560.933C142.72 560.674 142.878 560.401 143.137 560.329C145.38 559.768 147.839 560.257 149.709 561.624C149.925 561.783 149.982 562.099 149.824 562.315C149.723 562.445 149.579 562.517 149.421 562.517V562.531Z" fill="#407BFF"/>
<path d="M146.905 566.662C146.804 566.662 146.703 566.634 146.617 566.562C144.992 565.367 142.835 564.935 140.865 565.424C140.592 565.482 140.333 565.324 140.261 565.065C140.204 564.805 140.362 564.532 140.621 564.46C142.864 563.899 145.323 564.388 147.192 565.756C147.408 565.914 147.466 566.231 147.307 566.447C147.207 566.576 147.063 566.648 146.905 566.648V566.662Z" fill="#407BFF"/>
<path d="M143.338 570.707C143.238 570.707 143.137 570.679 143.051 570.607C141.412 569.412 139.269 568.98 137.299 569.469C137.04 569.527 136.767 569.369 136.695 569.11C136.637 568.85 136.796 568.577 137.054 568.505C139.298 567.944 141.757 568.433 143.626 569.8C143.842 569.959 143.899 570.276 143.741 570.491C143.64 570.621 143.497 570.693 143.338 570.693V570.707Z" fill="#407BFF"/>
<path opacity="0.3" d="M179.001 563.539L168.446 549.533C167.971 548.899 166.318 546.51 164.132 547.676L154.454 520.268L138.133 522.874L148.904 553.405L145.496 554.758C145.496 557.22 146.502 557.421 145.999 558.414C145.74 558.961 145.424 559.537 145.064 560.127C144.777 560.127 144.503 560.171 144.216 560.199C143.756 559.451 139.47 553.621 135.847 555.564C134.912 556.082 134.826 556.673 134.941 557.076C135.228 558.213 137.313 559.278 139.513 559.983C136.824 560.041 133.805 560.372 133.071 561.509C132.827 561.869 132.798 562.33 132.999 562.718C133.301 563.467 133.948 564.014 134.725 564.215C136.177 564.46 137.687 564.215 138.996 563.539C140.463 562.92 141.857 562.143 143.195 561.279C143.252 561.279 143.295 561.322 143.353 561.308C143.684 561.221 144.029 561.207 144.374 561.178C143.698 562.171 142.893 563.208 141.958 564.302C141.498 564.331 141.052 564.374 140.606 564.475C140.333 564.547 140.175 564.806 140.247 565.079C140.319 565.338 140.578 565.511 140.851 565.439C140.88 565.439 140.923 565.439 140.951 565.439C140.06 566.403 139.082 567.397 138.018 568.404C137.702 568.447 137.371 568.447 137.054 568.534C136.781 568.606 136.623 568.865 136.695 569.138C136.724 569.268 136.81 569.369 136.911 569.441C133.244 572.795 128.613 576.393 123.12 580.122C120.388 581.993 124.817 588.73 132.079 585.836L158.768 575.227C167.497 571.758 170.804 570.448 177.822 567.656C178.066 567.569 178.296 567.44 178.498 567.281C179.662 566.389 179.878 564.719 178.987 563.553L179.001 563.539ZM135.66 556.817C135.616 556.716 135.516 556.457 136.22 556.097L136.479 555.967C138.981 554.974 142.087 558.544 143.238 560.012C140.391 559.71 135.918 558.054 135.66 556.817ZM134.998 563.481C134.437 563.309 133.977 562.92 133.733 562.387C133.632 562.229 133.632 562.027 133.747 561.883C134.437 560.833 138.909 560.602 142.375 560.703C142.504 560.732 142.634 560.746 142.763 560.761C140.779 562.013 137.098 564.043 134.998 563.481Z" fill="black"/>
<path d="M176.499 531.554L160.134 529.25L161.788 569.383L178.167 571.686L176.499 531.554Z" fill="white"/>
<path d="M157.805 561.898L164.003 561.408C165.397 561.293 166.749 561.898 167.669 562.963C171.624 567.555 174.169 565.496 177.678 560.602C180.123 560.113 181.014 562.905 181.273 563.639L187.241 580.121C187.758 581.503 187.054 583.029 185.688 583.547C185.443 583.634 185.184 583.691 184.925 583.706C177.405 584.31 173.853 584.598 164.491 585.347L135.875 587.635C128.067 588.254 125.824 580.524 128.987 579.531C143.18 575.184 153.074 570.103 157.215 565.539C157.992 564.733 157.086 564.258 157.805 561.898Z" fill="#263238"/>
<path d="M149.033 568.375C150.989 568.174 152.901 567.771 154.771 567.166C154.943 567.094 155.015 566.878 154.943 566.706C154.9 566.605 154.814 566.547 154.713 566.518C153.807 566.159 145.783 563.165 143.943 564.69C143.597 564.964 143.439 565.396 143.525 565.828C143.597 566.634 144.043 567.353 144.733 567.771C146.056 568.433 147.552 568.649 149.019 568.39L149.033 568.375ZM153.52 566.792C151.276 567.397 147.063 568.303 145.208 567.137C144.719 566.821 144.403 566.303 144.316 565.727C144.259 565.554 144.331 565.352 144.475 565.252C145.481 564.417 150.183 565.655 153.505 566.806L153.52 566.792Z" fill="#407BFF"/>
<path d="M154.699 567.195C154.785 567.209 154.857 567.195 154.943 567.18C155.044 567.08 155.073 566.936 155.015 566.806C154.986 566.49 152.556 559.004 148.357 559.825C147.322 560.055 147.049 560.573 147.049 561.005C146.948 563.049 152.125 566.489 154.526 567.267L154.699 567.195ZM148.817 560.386C151.506 560.17 153.419 564.503 154.08 566.23C151.449 565.093 147.653 562.2 147.782 560.948C147.782 560.847 147.753 560.559 148.53 560.415L148.817 560.372V560.386Z" fill="#407BFF"/>
<path d="M153.893 567.022C156.05 567.137 158.136 568.26 159.415 569.988" stroke="#407BFF" stroke-width="0.5" stroke-linecap="round" stroke-linejoin="round"/>
<path d="M150.27 570.232C152.427 570.347 154.512 571.47 155.792 573.197" stroke="#407BFF" stroke-width="0.5" stroke-linecap="round" stroke-linejoin="round"/>
<path d="M145.682 573.054C147.839 573.169 149.925 574.292 151.204 576.019" stroke="#407BFF" stroke-width="0.5" stroke-linecap="round" stroke-linejoin="round"/>
<path opacity="0.2" d="M149.364 282.309C149.364 282.309 158.38 286.872 174.586 285.361C200.945 282.914 220.991 273.341 220.991 273.341" stroke="black" stroke-width="0.5" stroke-linecap="round" stroke-linejoin="round"/>
<path d="M151.061 285.361C151.061 285.361 102.197 382.468 99.7672 418.541C97.0781 458.098 144.288 550.253 144.288 550.253L169.568 538.449C169.568 538.449 136.709 451.159 139.053 420.844C146.517 377.487 199.104 292.558 199.104 292.558L151.075 285.375L151.061 285.361Z" fill="#407BFF"/>
<path opacity="0.2" d="M176.456 308.378C164.65 313.747 160.738 346.524 161.256 361.394C169.553 343.674 178.512 326.343 185.673 313.085C184.077 312.121 178.081 307.457 176.456 308.378Z" fill="black"/>
<path d="M150.716 278.797L221.58 281.1C221.58 281.1 222.04 302.865 216.677 319.073L146.373 296.128L150.716 278.797Z" fill="#407BFF"/>
<path d="M174.788 283.907C174.788 283.907 159.099 392.616 158.581 429.107C158.006 469.095 158.323 550.238 158.323 550.238H182.999C182.999 550.238 193.223 475.242 197.235 436.491C201.793 392.342 219.624 304.966 219.624 304.966L174.788 283.907Z" fill="#407BFF"/>
<path opacity="0.2" d="M158.236 506.089L158.308 543.689L154.095 545.661L155.806 498.59L158.236 506.089Z" fill="black"/>
<path opacity="0.2" d="M196.214 297.309C197.134 299.856 199.162 301.972 201.664 303.009C204.166 304.045 207.085 303.988 209.544 302.851" stroke="black" stroke-width="0.5" stroke-linecap="round" stroke-linejoin="round"/>
<path d="M151.204 231.078C150.845 231.899 150.442 232.705 150.025 233.511C145.337 242.493 140.851 248.496 136.753 251.951C131.13 256.643 126.169 256.514 122.286 252.512C115.571 245.574 121.812 228.142 122.114 228.142C122.416 228.142 129.821 229.999 129.821 229.999L130.425 228.142C131.302 225.378 133.1 219.98 135.401 214.064C139.83 202.821 146.243 189.665 152.225 189.046C152.225 188.902 160.465 210.58 151.19 231.093L151.204 231.078Z" fill="#263238"/>
<path opacity="0.2" d="M144.503 228.473L142.735 245.387L139.499 249.302L140.98 227.494L144.503 228.473Z" fill="black"/>
<path opacity="0.2" d="M133.546 244.307C133.618 240.089 133.273 235.886 132.539 231.74L129.793 230.085C130.67 227.609 132.007 222.6 134.308 217.302C142.26 228.156 133.92 243.731 133.56 244.307H133.546Z" fill="black"/>
<path d="M218.474 242.191C219.15 259.277 221.81 278.019 221.594 282.295C199.032 295.797 157.373 298.028 147.696 290.5C147.408 288.643 149.896 283.014 148.242 282.295C132.453 275.342 151.104 189.218 152.24 188.887C158.308 187.491 164.477 186.512 170.689 185.965C179.777 185.504 188.88 185.504 197.983 185.965C205.216 186.354 212.406 187.145 219.553 188.355C216.777 200.864 215.224 213.617 214.908 226.429C214.563 234.231 218.23 235.397 218.503 242.191H218.474Z" fill="#263238"/>
<path d="M129.965 210.681C127.405 211.142 124.875 211.804 122.416 212.653C121.783 213.085 120.402 221.045 120.604 222.614C120.719 223.435 124.213 230.517 124.213 230.517C125.637 231.294 129.979 231.15 129.979 231.15V210.681H129.965Z" fill="white"/>
<path d="M185.774 202.087C185.774 202.087 204.784 192.832 208.537 185.663C212.291 178.494 203.965 171.254 190.03 171.196C176.096 171.139 161.946 176.753 163.657 187.491C165.369 198.215 171.739 202.001 171.739 202.001C171.739 202.001 175.852 196.992 185.788 202.087H185.774Z" fill="#263238"/>
<path d="M192.691 186.642C187.14 190.888 181.172 198.388 177.62 198.273C174.601 198.172 173.019 192.587 171.653 189.895C175.463 184.079 173.723 184.151 170.517 178.984L184.422 158.903C185.242 168.274 184.523 182.366 192.691 186.627V186.642Z" fill="white"/>
<path opacity="0.2" d="M178.771 167.094L170.474 178.984C171.408 180.452 172.731 181.762 173.378 183.374C177.29 181.604 180.899 177.098 181.273 172.434C181.575 169.483 179.907 167.065 178.771 167.094Z" fill="black"/>
<path d="M145.078 219.634C145.294 220.311 144.949 221.059 144.331 221.29C144.273 221.304 144.216 221.333 144.158 221.333L130.986 224.14C130.253 224.241 129.562 223.766 129.332 223.003L121.222 195.394C121.021 194.631 121.423 193.825 122.114 193.58L135.286 190.773C136.091 190.701 136.839 191.248 137.083 192.097L145.093 219.634H145.078Z" fill="#263238"/>
<path opacity="0.2" d="M145.078 219.634C145.294 220.311 144.949 221.059 144.331 221.29C144.273 221.304 144.216 221.333 144.158 221.333L130.986 224.14C130.253 224.241 129.562 223.766 129.332 223.003L121.222 195.394C121.021 194.631 121.423 193.825 122.114 193.58L135.286 190.773C136.091 190.701 136.839 191.248 137.083 192.097L145.093 219.634H145.078Z" fill="white"/>
<path opacity="0.5" d="M135.099 192.414C134.883 191.68 134.279 191.19 133.603 191.118L122.114 193.566C121.409 193.796 121.006 194.602 121.222 195.379L129.332 222.988C129.534 223.622 130.051 224.039 130.655 224.111L142.188 221.664C142.188 221.664 142.303 221.635 142.361 221.621C142.979 221.391 143.324 220.656 143.109 219.965L135.099 192.428V192.414Z" fill="black"/>
<path d="M152.829 219.203L141.426 211.717L141.642 228.732C141.642 228.732 152.916 233.54 154.9 227.508L152.829 219.203Z" fill="white"/>
<path d="M129.534 221.722L129.591 222.672C129.793 226.184 132.726 228.905 136.235 228.833H142.001L141.426 211.717L135.717 213.2C131.892 214.193 129.304 217.763 129.534 221.707V221.722Z" fill="white"/>
<path d="M152.225 218.8C155.748 220.469 170.502 231.726 170.502 231.726L163.082 240.608L150.5 228.027L152.211 218.785L152.225 218.8Z" fill="white"/>
<path opacity="0.2" d="M158.236 238.146C158.236 238.146 182.495 272.305 199.075 265.15C215.656 257.996 218.474 242.205 218.474 242.205L197.22 255.506L158.236 235.166V238.16V238.146Z" fill="black"/>
<path d="M161.644 220.728C161.644 220.728 191.497 238.347 194.718 239.485C197.939 240.622 204.094 213.948 206.337 206.823C208.581 199.698 214.304 189.089 219.38 188.369C219.38 188.369 235.716 187.692 228.598 214.783C221.479 241.874 210.033 261.062 197.177 261.509C184.322 261.955 156.784 235.785 156.784 235.785L161.644 220.728Z" fill="#263238"/>
<path d="M123.724 212.279C126.14 211.199 128.57 210.105 131.144 209.486C131.518 209.4 131.921 209.313 132.295 209.385C132.683 209.457 133.042 209.731 133.129 210.105C133.229 210.595 132.856 211.041 132.496 211.386C130.67 213.142 128.57 214.625 126.313 215.791" fill="white"/>
<path opacity="0.2" d="M156.784 235.785L161.644 220.728C161.644 220.728 191.497 238.348 194.718 239.485C197.939 240.622 205.848 215.935 208.092 208.81" stroke="black" stroke-width="0.5" stroke-linecap="round" stroke-linejoin="round"/>
<path opacity="0.2" d="M207.847 186.757C207.847 186.757 185.098 204.75 179.289 205.225C179.289 205.225 201.693 200.374 207.847 186.757Z" fill="black"/>
<path d="M174.658 204.16C173.939 202.044 172.314 198.488 170.287 197.538C169.769 197.294 169.208 197.107 168.633 197.15C168.058 197.193 167.483 197.524 167.281 198.057C166.951 198.892 167.598 199.77 168.202 200.432C169.021 201.339 169.812 202.145 170.934 202.591C172.055 203.037 173.537 204.03 174.673 204.16" stroke="white" stroke-width="0.25" stroke-linecap="round" stroke-linejoin="round"/>
<path d="M174.931 204.16C177.175 204.203 181.057 203.901 182.639 202.303C183.042 201.9 183.416 201.425 183.559 200.878C183.718 200.331 183.603 199.669 183.171 199.295C182.495 198.704 181.46 199.007 180.626 199.338C179.504 199.798 178.469 200.259 177.664 201.18C176.873 202.087 175.42 203.138 174.903 204.16" stroke="white" stroke-width="0.25" stroke-linecap="round" stroke-linejoin="round"/>
<path d="M174.73 204.506C173.235 210.854 172.544 217.403 172.703 223.924" stroke="white" stroke-width="0.25" stroke-linecap="round" stroke-linejoin="round"/>
<path d="M175.147 204.16C174.486 210.739 176.671 218.397 179.404 224.414" stroke="white" stroke-width="0.25" stroke-linecap="round" stroke-linejoin="round"/>
<path opacity="0.2" d="M148.832 256.643C149.062 256.715 169.898 257.32 169.898 257.32C169.898 257.32 181.762 268.001 187.154 269.052L188.348 278.797C188.348 278.797 170.502 286.685 152.427 280.582C139.125 276.091 148.817 256.643 148.817 256.643H148.832Z" fill="black"/>
<path d="M130.282 197.294C130.497 198.157 130.123 198.992 129.462 199.165C128.786 199.338 128.067 198.776 127.851 197.913C127.636 197.049 128.01 196.214 128.671 196.041C129.347 195.869 130.066 196.43 130.282 197.294Z" fill="white"/>
<path opacity="0.2" d="M196.199 241.097C196.199 241.097 198.946 251.447 200.557 249.892C202.167 248.337 199.838 244.768 199.838 244.768C199.838 244.768 207.243 248.078 205.101 245.574C202.958 243.069 196.199 241.097 196.199 241.097Z" fill="black"/>
<path d="M155.13 141.212C161.055 143.558 160.034 149.993 150.428 161.869C144.345 156.787 140.923 145.027 143.986 141.212C147.063 137.397 149.953 139.197 155.13 141.212Z" fill="#263238"/>
<path d="M178.455 138.175C172.588 130.445 161.558 128.948 153.836 134.821C143.195 142.939 146.632 161.58 152.355 171.844C158.74 183.273 175.464 184.756 182.121 172.794C186.565 164.819 184.35 157.679 181.661 145.228C181.129 142.666 180.036 140.247 178.44 138.175H178.455Z" fill="white"/>
<path d="M164.923 155.434C165.239 156.73 164.635 157.924 163.758 158.068C162.881 158.212 162.033 157.248 161.803 155.938C161.573 154.628 162.105 153.433 162.967 153.304C163.816 153.16 164.693 154.095 164.923 155.434Z" fill="#263238"/>
<path d="M153.419 157.852C153.735 159.148 153.117 160.357 152.254 160.487C151.406 160.631 150.529 159.666 150.299 158.356C150.068 157.046 150.601 155.852 151.463 155.722C152.312 155.578 153.203 156.6 153.419 157.852Z" fill="#263238"/>
<path d="M147.595 151.476C147.811 151.548 148.041 151.504 148.213 151.36C149.349 150.31 150.903 149.849 152.427 150.137C152.743 150.223 153.074 150.036 153.175 149.719C153.261 149.403 153.074 149.072 152.758 148.971C150.845 148.568 148.861 149.115 147.423 150.454C147.164 150.669 147.135 151.044 147.351 151.303C147.423 151.375 147.509 151.432 147.595 151.476Z" fill="#263238"/>
<path d="M165.728 148.755C165.843 148.726 165.958 148.669 166.045 148.582C166.217 148.294 166.131 147.92 165.843 147.747C164.19 146.697 162.119 146.524 160.321 147.287C160.019 147.431 159.89 147.791 160.048 148.093C160.206 148.395 160.552 148.51 160.853 148.366C162.291 147.819 163.916 147.978 165.225 148.798C165.398 148.856 165.585 148.841 165.743 148.755H165.728Z" fill="#263238"/>
<path d="M174.097 135.555C168.734 138.981 179.964 153.923 184.652 167.914C195.581 156.168 188.794 136.606 184.997 133.439C181.216 130.272 178.828 132.59 174.097 135.555Z" fill="#263238"/>
<path d="M191.497 153.145C191.253 156.643 189.642 159.897 186.996 162.185C183.488 165.208 179.777 162.531 179.102 158.184C178.541 154.311 179.619 147.978 183.962 146.668C188.305 145.358 191.742 148.841 191.497 153.131V153.145Z" fill="white"/>
<path opacity="0.1" d="M182.222 157.939C181.69 155.636 182.236 153.102 183.674 151.216C184.278 150.41 185.256 149.676 186.22 149.993" stroke="black" stroke-width="0.5" stroke-miterlimit="10"/>
<path d="M162.651 167.252C165.095 166.028 167.252 164.301 168.978 162.185C169.28 162.545 169.525 162.948 169.711 163.38C170.057 164.143 170.215 164.978 170.172 165.813C170.071 167.526 169.021 169.57 165.412 171.398C165.153 171.542 164.88 171.686 164.607 171.801C163.614 170.433 162.536 169.138 161.357 167.914C161.357 167.914 161.86 167.684 162.651 167.252Z" fill="#263238"/>
<path d="M168.906 162.199C169.208 162.559 169.453 162.962 169.64 163.394C169.108 164.963 166.965 166.633 163.571 168.389L162.579 167.252C165.024 166.028 167.181 164.301 168.906 162.185V162.199Z" fill="white"/>
<path d="M166.562 168.648C167.583 167.497 168.806 166.547 170.172 165.827C170.071 167.54 169.021 169.584 165.412 171.412C165.498 170.39 165.901 169.44 166.562 168.663V168.648Z" fill="white"/>
<path d="M156.352 155.146C155.605 158.773 154.354 162.3 152.628 165.582C154.368 166.431 156.381 166.46 158.15 165.683L156.352 155.146Z" fill="white"/>
<path d="M181.676 136.375C181.676 136.375 183.099 131.582 174.097 126.544C165.096 121.506 149.953 124.716 139.887 130.905C129.821 137.095 141.225 145.977 145.941 146.394L144.69 144.739C149.738 145.199 154.843 144.638 159.646 143.083L156.698 142.004C156.698 142.004 175.593 139.614 181.69 136.375H181.676Z" fill="#263238"/>
</g>
<defs>
<clipPath id="clip0_413_3376">
<rect width="558" height="598" fill="white"/>
</clipPath>
</defs>
</svg>
