<svg width="593" height="612" viewBox="0 0 593 612" fill="none" xmlns="http://www.w3.org/2000/svg">
<path d="M211.568 90.1829C211.568 82.9947 205.84 77.1651 198.776 77.1651C197.503 77.1651 196.262 77.3547 195.113 77.718C195.299 76.4068 195.392 75.0797 195.392 73.7211C195.392 58.5074 183.268 46.1689 168.319 46.1689C166.612 46.1689 164.95 46.3427 163.336 46.6429C159.176 39.7074 151.693 35.0627 143.124 35.0627C130.162 35.0627 119.637 45.6634 119.451 58.8075C119.311 58.8075 119.187 58.7917 119.063 58.7917C107.016 58.7917 97.2521 68.7288 97.2521 80.9883C97.2521 93.2477 107.016 103.185 119.063 103.185H199.164H199.149C206.041 102.964 211.568 97.2289 211.568 90.1671V90.1829Z" fill="#F0F0F0"/>
<path d="M566.548 56.889C566.548 52.3529 562.94 48.6615 558.472 48.6615C557.658 48.6615 556.89 48.7866 556.153 49.0056C556.276 48.1766 556.337 47.3319 556.337 46.4873C556.337 36.8676 548.675 29.0624 539.232 29.0624C538.157 29.0624 537.097 29.1719 536.084 29.3596C533.458 24.9799 528.729 22.0393 523.324 22.0393C515.14 22.0393 508.491 28.7339 508.368 37.0553C508.291 37.0553 508.199 37.0553 508.122 37.0553C500.522 37.0553 494.349 43.3433 494.349 51.0859C494.349 58.8285 500.522 65.1165 508.122 65.1165H558.702C563.063 64.9757 566.548 61.3625 566.548 56.889Z" fill="#F0F0F0"/>
<path d="M345.923 39.8889C345.923 37.0367 343.668 34.7292 340.88 34.7292C340.379 34.7292 339.893 34.8093 339.439 34.9535C339.517 34.4408 339.549 33.912 339.549 33.3672C339.549 27.3261 334.772 22.4388 328.867 22.4388C328.193 22.4388 327.535 22.5029 326.893 22.6311C325.248 19.875 322.304 18.0322 318.921 18.0322C313.799 18.0322 309.648 22.2305 309.586 27.4543C309.539 27.4543 309.476 27.4543 309.429 27.4543C304.683 27.4543 300.814 31.3962 300.814 36.2675C300.814 41.1388 304.668 45.0807 309.429 45.0807H341.037C343.762 45.0006 345.939 42.7252 345.939 39.921L345.923 39.8889Z" fill="#F0F0F0"/>
<path d="M101.038 400.583H59.8756C49.0644 400.583 40.3086 429.195 40.3086 464.499C40.3086 499.804 49.0644 528.416 59.8756 528.416H101.038C111.85 528.416 120.605 499.804 120.605 464.499C120.605 429.195 111.85 400.583 101.038 400.583Z" fill="#263238"/>
<path opacity="0.2" d="M104.108 405.11C95.0856 405.11 87.7714 431.705 87.7714 464.499C87.7714 497.294 95.0856 523.889 104.108 523.889C113.131 523.889 120.445 497.294 120.445 464.499C120.445 431.705 113.131 405.11 104.108 405.11Z" fill="white"/>
<path opacity="0.6" d="M105.523 432.394C100.638 432.394 96.6875 446.761 96.6875 464.475C96.6875 482.188 100.638 496.556 105.523 496.556C110.408 496.556 114.359 482.188 114.359 464.475C114.359 446.761 110.408 432.394 105.523 432.394Z" fill="white"/>
<path opacity="0.6" d="M104.108 436.797C99.8907 436.797 96.5005 449.197 96.5005 464.475C96.5005 479.753 99.9174 492.152 104.108 492.152C108.299 492.152 111.716 479.753 111.716 464.475C111.716 449.197 108.299 436.797 104.108 436.797Z" fill="white"/>
<path d="M100.505 450.648C98.3959 450.648 96.6875 456.848 96.6875 464.5C96.6875 472.151 98.3959 478.351 100.505 478.351C102.614 478.351 104.322 472.151 104.322 464.5C104.322 456.848 102.614 450.648 100.505 450.648Z" fill="#263238"/>
<path opacity="0.2" d="M102.373 457.562C101.332 457.562 100.477 460.662 100.477 464.475C100.477 468.288 101.332 471.388 102.373 471.388C103.414 471.388 104.268 468.288 104.268 464.475C104.268 460.662 103.414 457.562 102.373 457.562Z" fill="white"/>
<path d="M222.365 400.583H181.202C170.391 400.583 161.635 429.195 161.635 464.499C161.635 499.804 170.391 528.416 181.202 528.416H222.365C233.176 528.416 241.932 499.804 241.932 464.499C241.932 429.195 233.176 400.583 222.365 400.583Z" fill="#263238"/>
<path opacity="0.2" d="M225.435 405.11C216.412 405.11 209.098 431.705 209.098 464.499C209.098 497.294 216.412 523.889 225.435 523.889C234.458 523.889 241.772 497.294 241.772 464.499C241.772 431.705 234.458 405.11 225.435 405.11Z" fill="white"/>
<path opacity="0.6" d="M226.849 432.394C221.964 432.394 218.014 446.761 218.014 464.475C218.014 482.188 221.964 496.556 226.849 496.556C231.734 496.556 235.685 482.188 235.685 464.475C235.685 446.761 231.734 432.394 226.849 432.394Z" fill="white"/>
<path opacity="0.6" d="M225.435 436.797C221.217 436.797 217.827 449.197 217.827 464.475C217.827 479.753 221.244 492.152 225.435 492.152C229.626 492.152 233.042 479.753 233.042 464.475C233.042 449.197 229.626 436.797 225.435 436.797Z" fill="white"/>
<path d="M221.804 450.648C219.695 450.648 217.986 456.848 217.986 464.5C217.986 472.151 219.695 478.351 221.804 478.351C223.912 478.351 225.621 472.151 225.621 464.5C225.621 456.848 223.912 450.648 221.804 450.648Z" fill="#263238"/>
<path opacity="0.2" d="M223.673 457.562C222.631 457.562 221.777 460.662 221.777 464.475C221.777 468.288 222.631 471.388 223.673 471.388C224.714 471.388 225.568 468.288 225.568 464.475C225.568 460.662 224.714 457.562 223.673 457.562Z" fill="white"/>
<path d="M563.226 483.96L554.257 499.755H100.478L80.4839 476.481L400.123 340.996C400.123 340.996 567.07 355.29 567.07 358.168C567.07 361.047 563.253 483.96 563.253 483.96H563.226Z" fill="#263238"/>
<path d="M413.39 400.583H372.228C361.416 400.583 352.661 429.195 352.661 464.499C352.661 499.804 361.416 528.416 372.228 528.416H413.39C424.202 528.416 432.957 499.804 432.957 464.499C432.957 429.195 424.202 400.583 413.39 400.583Z" fill="#263238"/>
<path opacity="0.2" d="M416.46 405.11C407.438 405.11 400.123 431.705 400.123 464.499C400.123 497.294 407.438 523.889 416.46 523.889C425.483 523.889 432.797 497.294 432.797 464.499C432.797 431.705 425.483 405.11 416.46 405.11Z" fill="white"/>
<path opacity="0.6" d="M417.875 432.394C412.99 432.394 409.039 446.761 409.039 464.475C409.039 482.188 412.99 496.556 417.875 496.556C422.76 496.556 426.711 482.188 426.711 464.475C426.711 446.761 422.76 432.394 417.875 432.394Z" fill="white"/>
<path opacity="0.6" d="M416.46 436.797C412.243 436.797 408.852 449.197 408.852 464.475C408.852 479.753 412.269 492.152 416.46 492.152C420.651 492.152 424.068 479.753 424.068 464.475C424.068 449.197 420.651 436.797 416.46 436.797Z" fill="white"/>
<path d="M412.857 450.648C410.748 450.648 409.039 456.848 409.039 464.5C409.039 472.151 410.748 478.351 412.857 478.351C414.965 478.351 416.674 472.151 416.674 464.5C416.674 456.848 414.965 450.648 412.857 450.648Z" fill="#263238"/>
<path opacity="0.2" d="M414.725 457.562C413.684 457.562 412.83 460.662 412.83 464.475C412.83 468.288 413.684 471.388 414.725 471.388C415.766 471.388 416.62 468.288 416.62 464.475C416.62 460.662 415.766 457.562 414.725 457.562Z" fill="white"/>
<path d="M534.716 400.583H493.553C482.741 400.583 473.986 429.195 473.986 464.499C473.986 499.804 482.741 528.416 493.553 528.416H534.716C545.527 528.416 554.283 499.804 554.283 464.499C554.283 429.195 545.527 400.583 534.716 400.583Z" fill="#263238"/>
<path opacity="0.2" d="M537.759 405.11C528.736 405.11 521.422 431.705 521.422 464.499C521.422 497.294 528.736 523.889 537.759 523.889C546.781 523.889 554.096 497.294 554.096 464.499C554.096 431.705 546.781 405.11 537.759 405.11Z" fill="white"/>
<path opacity="0.6" d="M539.174 432.394C534.289 432.394 530.338 446.761 530.338 464.475C530.338 482.188 534.289 496.556 539.174 496.556C544.059 496.556 548.01 482.188 548.01 464.475C548.01 446.761 544.059 432.394 539.174 432.394Z" fill="white"/>
<path opacity="0.6" d="M537.759 436.797C533.541 436.797 530.151 449.197 530.151 464.475C530.151 479.753 533.568 492.152 537.759 492.152C541.95 492.152 545.367 479.753 545.367 464.475C545.367 449.197 541.95 436.797 537.759 436.797Z" fill="white"/>
<path d="M534.155 450.648C532.046 450.648 530.338 456.848 530.338 464.5C530.338 472.151 532.046 478.351 534.155 478.351C536.264 478.351 537.972 472.151 537.972 464.5C537.972 456.848 536.264 450.648 534.155 450.648Z" fill="#263238"/>
<path opacity="0.2" d="M536.023 457.562C534.982 457.562 534.128 460.662 534.128 464.475C534.128 468.288 534.982 471.388 536.023 471.388C537.064 471.388 537.918 468.288 537.918 464.475C537.918 460.662 537.064 457.562 536.023 457.562Z" fill="white"/>
<path d="M244.788 432.418H88.4924V492.177H244.788V432.418Z" fill="#263238"/>
<path d="M244.788 486.666H88.4924V494.613H244.788V486.666Z" fill="#407BFF"/>
<path opacity="0.2" d="M244.788 486.666H88.4924V494.613H244.788V486.666Z" fill="black"/>
<path opacity="0.2" d="M244.788 478.326H88.4924V481.992H244.788V478.326Z" fill="black"/>
<path opacity="0.2" d="M244.788 468.461H88.4924V472.126H244.788V468.461Z" fill="black"/>
<path opacity="0.2" d="M244.788 458.62H88.4924V462.285H244.788V458.62Z" fill="black"/>
<path opacity="0.2" d="M244.788 448.754H88.4924V452.42H244.788V448.754Z" fill="black"/>
<path opacity="0.2" d="M244.788 438.889H88.4924V442.555H244.788V438.889Z" fill="black"/>
<path opacity="0.2" d="M244.788 429.023H88.4924V432.689H244.788V429.023Z" fill="black"/>
<path d="M0.0267001 423.34C0.0267001 429.318 0.854234 438.815 1.86862 448.287C2.61607 455.2 3.44359 462.064 4.13765 467.55C4.48467 470.281 14.3082 483.222 20.5547 491.242C23.7314 495.326 28.83 497.737 34.2757 497.737H83.954C88.5188 497.737 92.256 494.416 92.4428 490.209L93.6441 461.695C93.8576 456.774 98.2622 452.887 103.601 452.863L193.348 452.813C197.432 452.813 201.303 454.511 203.892 457.414L234.644 492.128C237.767 495.671 242.466 497.737 247.431 497.737H380.102C386.375 497.737 391.42 493.063 391.42 487.306V466.96C391.42 466.96 391.42 466.935 391.42 466.911C393.956 435.051 403.273 400.583 416.834 400.583C432.423 400.583 435.52 461.621 435.52 496.113H502.656C508.689 496.113 513.681 491.71 513.894 486.125C515.683 436.674 529.164 394.801 541.363 401.813C556.125 410.325 554.31 473.75 556.125 491.045C556.445 494.096 560.289 495.695 562.959 493.875C564.854 492.571 566.91 490.996 568.778 489.2C572.782 485.288 580.497 437.88 584.875 421.347C586.263 416.107 587.331 412.244 587.838 411.014C588.879 408.406 577.214 299.32 545.341 281.606C545.341 281.606 525.934 209.866 496.516 187.552C496.196 187.281 495.849 187.035 495.502 186.789C494.194 185.854 492.886 185.018 491.551 184.304C489.683 183.271 487.787 182.484 485.839 181.918C416.54 161.892 220.309 162.802 175.436 189.053C174.475 189.618 173.594 190.184 172.793 190.75C168.148 194.047 163.583 197.614 159.152 201.354C130.296 225.784 106.351 258.013 94.1513 275.874L93.9377 276.169C89.6666 282.418 86.8637 286.871 85.8493 288.544L85.5023 289.085L85.3955 289.258C9.47652 348.943 11.6922 368.206 4.67153 412.982C4.67153 412.982 0 417.091 0 423.34H0.0267001Z" fill="#407BFF"/>
<path opacity="0.2" d="M254.318 497.737H380.102C386.375 497.737 391.42 493.063 391.42 487.306V466.96C391.42 466.96 391.42 466.935 391.42 466.911C393.956 435.051 403.273 400.583 416.834 400.583C432.423 400.583 435.52 461.621 435.52 496.114H502.656C508.689 496.114 513.681 491.71 513.894 486.125C515.683 436.674 529.164 394.801 541.363 401.813C556.125 410.325 554.31 473.75 556.125 491.045C556.445 494.096 560.289 495.695 562.959 493.875C564.854 492.571 566.91 490.996 568.778 489.2C572.782 485.289 580.497 437.88 584.875 421.347C586.263 416.107 587.331 412.244 587.838 411.014C588.879 408.407 577.214 299.32 545.341 281.606C545.341 281.606 525.934 209.866 496.516 187.552C472.011 185.854 415.445 183.05 390.112 191.07L386.535 303.478C386.535 303.478 355.089 344.564 347.001 363.507C338.939 382.476 341.048 405.626 341.048 405.626L352.633 413.942C352.633 413.942 352.26 457.365 347.001 472.151C341.742 486.937 254.291 497.737 254.291 497.737H254.318Z" fill="black"/>
<path opacity="0.2" d="M370.519 311.105C370.519 311.105 362.083 334.944 300.82 364.147C239.556 393.35 171.325 410.203 100.478 393.35C45.2738 380.212 51.6003 323.775 51.6003 323.775C51.6003 323.775 52.7215 316.099 85.4222 289.282C85.4222 289.282 296.362 309.998 376.205 299.861L370.519 311.129V311.105Z" fill="white"/>
<path opacity="0.2" d="M175.462 189.053C186.941 192.94 210.005 193.998 255.946 193.998C313.499 193.998 388.484 185.559 416.46 183.123C434.799 181.524 469.715 183.074 491.578 184.304C489.709 183.271 487.814 182.484 485.865 181.918C416.566 161.892 220.336 162.802 175.462 189.053Z" fill="white"/>
<path opacity="0.2" d="M347.027 413.942C347.027 413.942 86.196 429.835 14.2545 413.942C14.2545 413.942 77.3335 445.408 347.027 413.942Z" fill="white"/>
<path opacity="0.2" d="M466.431 188.463C466.431 188.463 486.426 222.537 493.873 285.789C493.873 285.789 502.309 296.934 503.91 303.749C505.485 310.564 512.506 391.234 504.578 414.607L501.481 440.562L456.608 445.433L496.73 436.822C496.73 436.822 501.935 413.18 502.469 410.375C508.796 377.777 499.88 307.685 499.88 307.685L489.789 288.225C489.789 288.225 486.426 245.663 466.431 188.463Z" fill="black"/>
<path d="M475.962 195.351C490.19 223.57 498.599 266.55 501.402 282.763C517.846 278.9 542.698 281.607 542.698 281.607C534.263 242.391 506.1 199.189 506.1 199.189C496.704 197.393 486.4 196.163 475.962 195.351Z" fill="#263238"/>
<path d="M390.139 297.377L484.103 288.741C478.684 247.951 467.98 209.227 463.682 194.613C442.593 193.604 422.119 194.047 408.665 194.613C399.722 194.982 392.648 201.674 392.435 209.916L390.139 297.401V297.377Z" fill="#263238"/>
<path d="M85.4222 289.257C85.4222 289.257 105.95 313.688 177.758 313.688C249.566 313.688 376.205 299.836 376.205 299.836L386.562 195.154C386.562 195.154 237.367 203.519 159.179 201.354C130.322 225.784 106.377 258.013 94.178 275.874L93.9645 276.169L85.876 288.544L85.529 289.085L85.4222 289.257Z" fill="#263238"/>
<path opacity="0.2" d="M416.46 367.075C416.46 367.075 416.566 318.411 412.802 309.653C409.039 300.895 403.353 296.171 403.353 296.171H392.808C392.808 296.171 407.036 304.117 408.825 313.712C410.64 323.283 416.433 367.099 416.433 367.099L416.46 367.075Z" fill="black"/>
<path opacity="0.2" d="M443.368 385.551C443.368 385.551 436.587 369.978 408.825 371.921C381.063 373.865 365.74 409.883 365.74 409.883C365.74 409.883 375.057 420.437 378.847 413.942C382.638 407.447 406.93 365.599 443.368 385.551Z" fill="white"/>
<path opacity="0.2" d="M518.353 403.068C518.353 403.068 528.497 382.033 542.698 382.574C556.9 383.116 563.226 399.698 563.226 399.698C563.226 399.698 561.651 384.1 551.614 377.777C541.577 371.454 533.382 371.356 523.451 378.269C514.108 384.764 509.73 405.135 509.73 405.135C509.73 405.135 514.589 407.152 518.353 403.093V403.068Z" fill="white"/>
<path opacity="0.2" d="M493.901 319.199C493.901 319.199 478.765 321.807 478.071 325.694C477.377 329.581 495.663 327.957 495.663 327.957C495.663 327.957 496.01 323.086 493.901 319.199Z" fill="black"/>
<path opacity="0.2" d="M357.332 201.452C357.332 201.452 235.658 259.193 190.705 307.217C190.705 307.217 235.151 259.858 268.946 241.037C268.946 241.037 205.574 263.745 159.82 307.217C159.82 307.217 108.913 301.805 90.3606 289.257C90.3606 289.257 123.488 232.18 159.82 206.643C159.82 206.643 254.158 208.439 357.305 201.452H357.332Z" fill="white"/>
<path d="M300.312 451.731L253.437 460.145C247.484 461.203 244.334 467.305 247.217 472.25L253.703 483.419C255.519 486.544 259.309 488.266 263.1 487.7L311.897 480.368C318.277 479.409 321.534 472.742 318.064 467.698L309.655 455.446C307.653 452.543 303.942 451.067 300.312 451.731Z" fill="#263238"/>
<path d="M75.9722 464.573L78.0811 471.757C79.8162 477.686 74.2371 483.247 67.697 482.115L27.6019 475.152C23.5711 474.464 20.5546 471.339 20.261 467.55L19.7805 461.228C19.38 455.84 24.5588 451.534 30.3248 452.445L68.7914 458.546C72.2617 459.087 75.0379 461.449 75.9722 464.573Z" fill="#263238"/>
<path d="M19.46 365.598C18.4456 367.124 18.3388 369.018 19.113 370.642C23.0637 378.736 36.8915 402.945 65.0808 411.728C67.9638 412.662 71.0069 413.401 74.2103 413.942C108.913 419.871 198.767 419.477 241.878 413.893C249.673 412.884 255.946 411.703 260.084 410.374C275.219 405.479 314.674 384.271 330.664 375.538C334.348 373.52 335.309 369.018 332.773 365.844L325.138 356.373C323.429 354.257 320.547 353.273 317.77 353.838L230.506 371.749L223.646 379.203C223.646 379.203 138.757 387.642 80.4301 379.203V371.749L32.3801 354.552C29.7107 353.592 26.6942 354.552 25.1993 356.791L19.4333 365.574L19.46 365.598Z" fill="#263238"/>
<path opacity="0.7" d="M223.672 379.228C223.672 379.228 235.204 404.273 241.905 413.893C249.699 412.884 255.973 411.703 260.11 410.374C275.246 405.479 314.7 384.272 330.69 375.538C334.374 373.52 335.335 369.018 332.799 365.844L325.165 356.373C323.456 354.257 320.573 353.273 317.797 353.838L230.533 371.749L223.672 379.203V379.228Z" fill="white"/>
<path opacity="0.7" d="M19.1128 370.642C23.0636 378.736 36.8913 402.945 65.0806 411.728L80.4299 379.228V371.773L32.38 354.577C29.7105 353.617 26.694 354.577 25.1991 356.815L19.4331 365.598C18.4187 367.124 18.312 369.018 19.0861 370.642H19.1128Z" fill="white"/>
<path d="M239.395 389.34C239.395 396.942 246.096 403.117 254.344 403.117C262.593 403.117 269.293 396.942 269.293 389.34C269.293 381.738 262.593 375.562 254.344 375.562C246.096 375.562 239.395 381.738 239.395 389.34Z" fill="white"/>
<path d="M49.5713 387.495C48.7438 395.047 52.6679 401.616 58.3538 402.158C64.0397 402.699 69.2985 396.991 70.1261 389.414C70.9536 381.836 67.0295 375.292 61.3436 374.751C55.6577 374.209 50.3989 379.917 49.5713 387.495Z" fill="white"/>
<path d="M31.7131 375.612C30.9656 382.328 34.4626 388.159 39.5078 388.626C44.5531 389.094 49.2513 384.026 49.9721 377.309C50.7195 370.593 47.2225 364.762 42.1773 364.295C37.132 363.827 32.4338 368.895 31.7131 375.612Z" fill="white"/>
<path d="M24.5852 362.45C23.6509 365.402 24.7187 368.28 26.9343 368.871C29.15 369.461 31.6859 367.542 32.6202 364.59C33.5546 361.638 32.4868 358.759 30.2711 358.169C28.0555 357.578 25.5195 359.497 24.5852 362.45Z" fill="white"/>
<path d="M274.018 379.72C274.018 386.707 280.158 392.366 287.739 392.366C295.32 392.366 301.46 386.707 301.46 379.72C301.46 372.733 295.32 367.074 287.739 367.074C280.158 367.074 274.018 372.733 274.018 379.72Z" fill="white"/>
<path d="M309.601 365.426C309.601 368.92 312.671 371.749 316.462 371.749C320.252 371.749 323.322 368.92 323.322 365.426C323.322 361.933 320.252 359.103 316.462 359.103C312.671 359.103 309.601 361.933 309.601 365.426Z" fill="white"/>
<path opacity="0.2" d="M221.804 389.34L176.423 392.366L164.544 399.353H120.605L114.359 392.366L80.4568 388.454L76.8798 393.916L109.1 399.353L116.494 411.728H170.177L183.684 400.091L225.621 395.933L221.804 389.34Z" fill="white"/>
<path opacity="0.2" d="M284.002 479.507C289.516 479.507 293.985 475.387 293.985 470.306C293.985 465.224 289.516 461.104 284.002 461.104C278.488 461.104 274.018 465.224 274.018 470.306C274.018 475.387 278.488 479.507 284.002 479.507Z" fill="white"/>
<path opacity="0.2" d="M39.1339 467.304C39.1339 472.372 43.5919 476.506 49.1176 476.506C54.6434 476.506 59.1013 472.397 59.1013 467.304C59.1013 462.212 54.6434 458.103 49.1176 458.103C43.5919 458.103 39.1339 462.212 39.1339 467.304Z" fill="white"/>
<path d="M269.267 309.506L241.932 303.478H154.027L131.283 309.506C131.283 309.506 129.175 336.076 135.501 339.004C141.828 341.931 219.268 341.439 225.435 339.004C231.601 336.568 257.842 326.26 269.267 309.506Z" fill="#407BFF"/>
<path opacity="0.2" d="M269.267 309.506L241.932 303.478H154.027L131.283 309.506C131.283 309.506 129.175 336.076 135.501 339.004C141.828 341.931 219.268 341.439 225.435 339.004C231.601 336.568 257.842 326.26 269.267 309.506Z" fill="white"/>
<path d="M534.202 185.071L550.572 181.804L541.346 163.835C541.346 163.835 526.871 168.61 528.144 176.809L534.202 185.071Z" fill="#FFF9F9"/>
<path d="M560.357 167.323L556.07 161.574C554.361 159.281 551.286 158.59 548.77 159.909L541.376 163.836L550.602 181.805L559.145 175.585C561.785 173.668 562.345 169.93 560.388 167.323H560.357Z" fill="#FFF9F9"/>
<path d="M543.241 180.705C540.259 177.438 536.314 175.05 531.716 173.982L528.144 173.165C526.249 172.725 525.814 173.165 525.597 173.636L524.696 175.05L522.863 177.877C521.621 179.762 520.347 181.616 519.073 183.438C516.557 187.144 513.948 190.726 511.338 194.15C508.729 197.542 506.026 200.778 503.324 203.322C503.262 203.385 503.2 203.448 503.106 203.511C502.206 202.506 501.305 201.5 500.435 200.432C497.639 196.977 494.968 193.239 492.358 189.406C489.78 185.511 487.357 181.459 485.027 177.343C483.847 175.301 482.697 173.197 481.61 171.123C480.523 169.081 479.405 166.788 478.566 165.029L478.473 164.809C478.473 164.809 478.349 164.526 478.286 164.401C474.559 156.987 465.581 154.034 458.25 157.835C450.919 161.605 447.999 170.684 451.758 178.097C453.156 180.893 454.398 183.123 455.765 185.542C457.101 187.93 458.499 190.254 459.928 192.579C462.785 197.197 465.861 201.72 469.123 206.15C475.708 215.008 483.163 223.522 493.042 230.967L493.57 231.375C496.583 233.605 500.528 234.454 504.38 233.354C509.257 231.94 512.426 229.741 515.097 227.668C517.738 225.563 519.85 223.427 521.745 221.291C525.535 217.019 528.548 212.747 531.375 208.443C534.139 204.108 536.562 199.71 538.83 195.281C539.917 193.05 540.973 190.788 541.999 188.527L543.49 185.103L544.235 183.375C544.546 182.809 544.639 182.181 543.272 180.705H543.241ZM497.857 207.218H497.95C497.95 207.218 497.732 207.281 497.857 207.218Z" fill="#407BFF"/>
<path opacity="0.6" d="M543.241 180.705C540.259 177.438 536.314 175.05 531.716 173.982L528.144 173.165C526.249 172.726 525.845 173.165 525.597 173.637L524.696 175.05L522.863 177.877C521.621 179.762 520.378 181.616 519.073 183.438C516.557 187.144 513.948 190.726 511.338 194.15C508.729 197.542 505.995 200.778 503.324 203.323C503.262 203.385 503.169 203.448 503.106 203.511C502.206 202.537 501.305 201.501 500.435 200.433C497.639 196.977 494.968 193.27 492.358 189.406C489.78 185.511 487.357 181.459 485.027 177.343C483.847 175.302 482.697 173.197 481.61 171.123C480.554 169.082 479.405 166.788 478.597 165.029L478.473 164.809C478.473 164.809 478.348 164.558 478.286 164.401C474.559 156.987 465.581 154.066 458.25 157.835C450.919 161.636 447.999 170.715 451.727 178.129C453.156 180.925 454.367 183.124 455.734 185.574C457.101 187.93 458.468 190.286 459.897 192.579C461.729 195.563 463.655 198.453 465.643 201.344C466.762 202.977 467.911 204.579 469.091 206.181C473.968 212.715 479.311 219.061 485.742 224.967C488.009 227.009 490.432 229.019 493.011 230.967L493.539 231.375C496.552 233.605 500.497 234.454 504.38 233.354C509.226 231.941 512.395 229.742 515.097 227.668C517.738 225.564 519.85 223.427 521.745 221.291C525.535 217.019 528.548 212.747 531.375 208.443C534.139 204.108 536.531 199.71 538.799 195.281C539.917 193.05 540.942 190.788 541.967 188.527L543.459 185.103L544.204 183.375C544.515 182.809 544.608 182.181 543.241 180.705ZM497.857 207.218H497.95C497.95 207.218 497.732 207.281 497.857 207.218Z" fill="white"/>
<path opacity="0.2" d="M485.742 224.967C479.312 219.061 473.969 212.716 469.092 206.182C467.912 204.579 466.762 202.977 465.644 201.344C467.042 193.993 469.372 186.674 472.882 180.202C472.882 180.202 491.178 192.36 485.742 224.967Z" fill="black"/>
<path d="M396.092 148.38C413.052 146.276 435.884 146.056 454.15 148.003C470.583 149.731 483.071 163.867 483.039 180.58C482.946 210.611 475.18 220.255 470.21 266.371C474.31 271.774 471.297 279.502 467.849 280.35C438.96 287.292 395.998 278.967 381.771 275.575C375.496 274.067 379.131 265.617 379.131 265.617C379.068 250.035 382.175 251.292 381.367 232.035C378.789 213.03 380.808 198.737 377.111 173.48C375.31 161.229 383.946 149.92 396.092 148.38Z" fill="#407BFF"/>
<path opacity="0.6" d="M470.21 266.371C474.31 271.742 471.266 279.502 467.849 280.318C447.223 285.282 419.421 282.454 400.037 279.219C392.271 277.931 385.84 276.549 381.771 275.575C375.496 274.067 379.131 265.617 379.131 265.617C379.068 250.035 382.175 251.292 381.336 232.035C381.088 230.119 380.87 228.266 380.684 226.412C379.131 210.014 380.404 196.161 377.111 173.48C375.31 161.197 383.946 149.888 396.092 148.38C413.021 146.276 435.884 146.056 454.15 148.003C470.583 149.731 483.071 163.867 483.008 180.58C482.915 210.611 475.149 220.255 470.21 266.371Z" fill="white"/>
<path d="M408.859 148.129C418.365 159.657 444.52 170.935 448 179.511C453.28 160.16 452.877 150.39 445.111 149.26C422.558 146.307 408.859 148.097 408.859 148.097V148.129Z" fill="#407BFF"/>
<path opacity="0.2" d="M383.821 229.459C389.909 214.097 398.266 189.563 396.495 174.139L379.379 198.139C379.845 208.192 379.783 216.862 380.714 226.38H380.683C380.87 228.234 381.087 230.087 381.336 232.003C382.174 251.26 379.068 250.003 379.13 265.585C379.13 265.585 375.496 274.035 381.771 275.543C385.84 276.517 392.27 277.899 400.036 279.187C392.954 264.517 386.151 238.757 383.821 229.427V229.459Z" fill="black"/>
<path d="M418.271 113.636C418.271 129.469 415.32 138.579 411.841 147.155C411.499 147.971 411.686 148.945 412.338 149.542C418.302 155.008 427.466 159.438 439.861 159.626C452.131 159.783 451.416 155.919 448.527 151.553C448.124 150.924 447.564 150.422 446.912 150.045C438.525 145.019 438.214 138.265 440.575 134.212L418.302 113.668L418.271 113.636Z" fill="white"/>
<path opacity="0.2" d="M418.271 113.636L440.543 134.181C439.208 136.443 438.742 139.584 440.077 142.788C435.697 142.945 431.193 141.5 427.248 138.139C421.501 133.207 419.544 127.364 418.115 119.134C418.208 117.406 418.239 115.584 418.239 113.636H418.271Z" fill="black"/>
<path d="M452.627 85.898C456.168 90.7357 451.353 96.3273 451.26 100.851C451.167 105.375 451.571 111.28 446.259 104.715C440.947 98.1493 447.035 79.144 452.627 85.898Z" fill="#263238"/>
<path d="M411.623 103.019C412.617 118.16 410.473 120.579 418.084 128.244C429.515 139.773 448.154 142.003 450.794 126.642C453.155 112.82 454.491 87.8143 439.766 81.9714C425.291 76.2227 410.629 87.8772 411.623 103.019Z" fill="white"/>
<path d="M413.176 113.26C419.637 117.783 422.402 108.391 421.967 107.605C420.134 104.244 420.414 101.511 423.21 95.4795C426.005 89.4795 414.232 81.5632 405.162 83.6679C396.805 85.6156 404.696 92.5894 403.329 97.8983C400.844 107.385 407.988 109.616 413.176 113.26Z" fill="#263238"/>
<path d="M404.82 113.165C406.311 116.809 409.075 119.385 411.747 120.516C415.754 122.244 417.96 118.286 417.028 113.762C416.189 109.678 413.052 103.835 408.951 104.055C404.913 104.244 403.142 109.019 404.851 113.165H404.82Z" fill="white"/>
<path d="M429.733 104.495C429.795 105.783 430.385 105.909 431.193 105.846C432.032 105.815 432.808 105.626 432.746 104.338C432.684 103.05 431.969 102.045 431.131 102.076C430.292 102.108 429.671 103.207 429.702 104.495H429.733Z" fill="#263238"/>
<path d="M445.359 105.406C445.421 106.694 446.011 106.819 446.819 106.756C447.658 106.725 448.434 106.537 448.372 105.249C448.31 103.961 447.595 102.955 446.757 102.987C445.918 103.018 445.297 104.118 445.328 105.406H445.359Z" fill="#263238"/>
<path d="M442.935 104.84C442.935 104.84 445.048 110.589 447.471 113.385C445.7 115.018 442.749 114.233 442.749 114.233L442.935 104.872V104.84Z" fill="white"/>
<path d="M427.341 98.7149C427.341 98.7149 427.092 98.6206 426.999 98.5264C426.689 98.2437 426.657 97.7725 426.937 97.4583C429.733 94.3169 433.15 94.8196 433.305 94.8196C433.709 94.8824 433.989 95.2594 433.926 95.6677C433.864 96.0761 433.491 96.3589 433.057 96.296C433.057 96.296 430.261 95.9191 428.024 98.4322C427.838 98.6521 427.558 98.7149 427.31 98.6835L427.341 98.7149Z" fill="#263238"/>
<path d="M451.353 98.6525C451.105 98.6839 450.856 98.6211 450.67 98.4326C448.433 95.9823 445.761 96.4221 445.637 96.4221C445.233 96.4849 444.83 96.2022 444.767 95.7938C444.705 95.3854 444.985 94.9771 445.389 94.9142C445.544 94.9142 448.961 94.3174 451.757 97.3645C452.036 97.6786 452.005 98.1499 451.726 98.4326C451.602 98.5268 451.477 98.5896 451.322 98.6211L451.353 98.6525Z" fill="#263238"/>
<path d="M405.783 84.453C405.783 84.453 401.869 79.7724 410.691 73.4582C419.513 67.144 440.512 75.0603 448.372 73.898C456.231 72.7357 456.697 69.4373 456.697 69.4373C456.697 69.4373 460.393 85.3954 446.57 88.6939C432.747 91.9923 412.151 89.1337 405.783 84.4216V84.453Z" fill="#263238"/>
<path d="M432.343 114.736C432.343 114.736 435.17 120.17 442.967 120.139" stroke="#263238" stroke-width="0.3" stroke-linecap="round" stroke-linejoin="round"/>
<path d="M489.438 534.11C488.537 536.843 487.046 540.958 485.276 545.639C484.81 546.927 484.313 548.277 483.785 549.66C482.604 552.895 481.393 556.225 480.212 559.461C477.789 566.215 475.677 572.497 474.869 576.173C474.776 576.738 474.683 577.209 474.621 577.649C467.849 582.958 462.071 582.141 460.58 576.581C460.207 575.262 460.456 572.12 461.077 568.099C461.605 564.298 462.475 559.681 463.407 555.063C464.276 550.633 465.24 546.235 466.078 542.497C466.389 541.084 466.7 539.764 466.979 538.602C467.787 535.052 468.346 532.759 468.346 532.759L489.438 534.11Z" fill="#FFF9F9"/>
<path d="M544.484 431.136C533.953 454.853 518.732 486.455 506.555 511.272C498.54 527.607 491.861 540.99 488.755 547.178C487.543 549.597 486.891 550.916 486.891 550.916L483.785 549.66L466.078 542.498L465.177 542.152C465.177 542.152 465.426 540.864 465.923 538.477C468.284 527.419 476.143 492.927 489.438 456.455C493.011 446.623 496.987 436.633 501.367 426.926C497.794 423.408 494.377 419.984 491.085 416.591C441.569 365.669 423.583 329.198 423.583 329.198L444.675 309.156L466.824 288.077C500.466 328.099 552.436 413.261 544.484 431.136Z" fill="#263238"/>
<path opacity="0.1" d="M544.484 431.136C533.953 454.853 518.732 486.455 506.555 511.272C498.54 527.607 491.861 540.99 488.755 547.178C487.543 549.597 486.891 550.916 486.891 550.916L483.785 549.66L466.078 542.498L465.177 542.152C465.177 542.152 465.426 540.864 465.923 538.477C468.284 527.419 476.143 492.927 489.438 456.455C493.011 446.623 496.987 436.633 501.367 426.926C497.794 423.408 494.377 419.984 491.085 416.591C441.569 365.669 423.583 329.198 423.583 329.198L444.675 309.156L466.824 288.077C500.466 328.099 552.436 413.261 544.484 431.136Z" fill="white"/>
<path d="M484.435 611.419C479.372 609.126 470.581 601.65 450.638 583.807V580.508L447.718 581.199L444.052 577.932L458.901 568.225C459.522 567.786 460.423 567.723 461.075 568.1C461.137 568.1 461.2 568.1 461.231 568.163L474.868 576.173L476.421 577.084C477.291 577.618 477.508 578.592 477.042 579.409C472.383 587.859 486.268 608.749 486.268 608.749C486.268 608.749 486.548 610.131 484.435 611.419Z" fill="#263238"/>
<path d="M490.276 547.901C490.276 547.901 487.201 559.273 483.877 559.713C483.132 559.807 481.827 559.712 480.212 559.461C475.272 558.707 467.351 556.697 463.406 555.063C462.816 554.843 462.319 554.623 461.946 554.404C461.946 554.404 462.443 539.733 465.052 538.54C465.239 538.445 465.518 538.414 465.922 538.477C466.233 538.477 466.575 538.54 466.978 538.602C470.986 539.451 479.715 543.157 485.275 545.639C486.673 546.267 487.884 546.801 488.754 547.178C489.717 547.65 490.276 547.901 490.276 547.901Z" fill="#407BFF"/>
<path opacity="0.3" d="M490.276 547.901C490.276 547.901 487.201 559.273 483.877 559.713C483.132 559.807 481.827 559.712 480.212 559.461C475.272 558.707 467.351 556.697 463.406 555.063C462.816 554.843 462.319 554.623 461.946 554.404C461.946 554.404 462.443 539.733 465.052 538.54C465.239 538.445 465.518 538.414 465.922 538.477C466.233 538.477 466.575 538.54 466.978 538.602C470.986 539.451 479.715 543.157 485.275 545.639C486.673 546.267 487.884 546.801 488.754 547.178C489.717 547.65 490.276 547.901 490.276 547.901Z" fill="white"/>
<path opacity="0.2" d="M491.085 416.591C441.569 365.669 423.583 329.198 423.583 329.198L444.675 309.156C458.592 325.554 486.487 364.381 491.085 416.591Z" fill="black"/>
<path opacity="0.4" d="M484.435 611.419C479.372 609.126 470.581 601.65 450.638 583.807V580.508L447.718 581.199L444.052 577.932L458.901 568.225C459.522 567.786 460.423 567.723 461.075 568.1C461.137 568.1 461.2 568.1 461.231 568.163L474.868 576.173L476.421 577.084C477.291 577.618 477.508 578.592 477.042 579.409C472.383 587.859 486.268 608.749 486.268 608.749C486.268 608.749 486.548 610.131 484.435 611.419Z" fill="white"/>
<path opacity="0.2" d="M480.211 559.461C477.788 566.215 475.675 572.498 474.868 576.173L476.421 577.084C477.291 577.618 477.508 578.592 477.042 579.409C472.383 587.859 486.268 608.749 486.268 608.749C486.268 608.749 486.548 610.131 484.435 611.419C479.372 609.126 470.581 601.65 450.638 583.806V580.508L447.718 581.199L444.052 577.932L458.901 568.225C459.522 567.786 460.423 567.723 461.075 568.1C461.603 564.299 462.473 559.681 463.405 555.063C462.815 554.843 462.318 554.623 461.945 554.403C461.945 554.403 462.442 539.733 465.051 538.539C465.238 538.445 465.517 538.414 465.921 538.476C468.282 527.419 476.141 492.926 489.437 456.455C493.009 468.392 499.998 490.539 506.553 511.272C498.538 527.607 491.86 540.99 488.753 547.178C489.716 547.649 490.275 547.901 490.275 547.901C490.275 547.901 487.2 559.272 483.876 559.712C483.131 559.806 481.826 559.712 480.211 559.461Z" fill="black"/>
<path d="M501.211 547.367C503.728 557.042 511.742 584.026 514.88 590.655C512.022 598.822 504.349 598.948 500.124 595.084C495.899 591.22 482.759 557.733 482.759 557.733L501.211 547.367Z" fill="#FFF9F9"/>
<path d="M436.971 434.214C414.854 365.449 380.124 335.575 381.087 297.439L446.353 296.873C446.353 296.873 471.732 393.816 479.715 439.24C487.73 484.853 505.001 558.77 505.001 558.77L486.643 567.786C486.643 567.786 444.178 487.429 436.971 434.214Z" fill="#263238"/>
<path opacity="0.1" d="M436.971 434.214C414.854 365.449 380.124 335.575 381.087 297.439L446.353 296.873C446.353 296.873 471.732 393.816 479.715 439.24C487.73 484.853 505.001 558.77 505.001 558.77L486.643 567.786C486.643 567.786 444.178 487.429 436.971 434.214Z" fill="white"/>
<path d="M486.86 578.56C491.178 577.523 505.84 569.387 508.046 566.811C510.22 564.235 505.002 553.712 505.002 553.712C505.002 553.712 483.505 560.905 481.828 563.23C480.15 565.555 486.891 578.56 486.891 578.56H486.86Z" fill="#407BFF"/>
<path opacity="0.3" d="M486.86 578.56C491.178 577.523 505.84 569.387 508.046 566.811C510.22 564.235 505.002 553.712 505.002 553.712C505.002 553.712 483.505 560.905 481.828 563.23C480.15 565.555 486.891 578.56 486.891 578.56H486.86Z" fill="white"/>
<path d="M543.551 607.209C543.551 607.209 519.663 600.078 517.923 590.591C517.737 589.649 516.991 589.052 515.997 589.209L498.663 592.131C497.856 592.256 497.141 592.885 496.893 593.701L491.612 610.759L496.52 610.916L498.322 608.466L500.372 611.042C526.994 611.89 538.487 611.953 543.83 610.445C544.669 608.089 543.551 607.209 543.551 607.209Z" fill="#263238"/>
<path opacity="0.4" d="M543.551 607.209C543.551 607.209 519.663 600.078 517.923 590.591C517.737 589.649 516.991 589.052 515.997 589.209L498.663 592.131C497.856 592.256 497.141 592.885 496.893 593.701L491.612 610.759L496.52 610.916L498.322 608.466L500.372 611.042C526.994 611.89 538.487 611.953 543.83 610.445C544.669 608.089 543.551 607.209 543.551 607.209Z" fill="white"/>
<path d="M467.849 296.873C468.843 288.894 467.849 280.318 467.849 280.318C467.849 278.59 388.388 275.292 381.771 275.543C373.477 275.857 380.529 314.088 387.052 327.093C444.645 330.925 466.048 306.894 467.849 296.841V296.873Z" fill="#263238"/>
<path opacity="0.1" d="M467.849 296.873C468.843 288.894 467.849 280.318 467.849 280.318C467.849 278.59 388.388 275.292 381.771 275.543C373.477 275.857 380.529 314.088 387.052 327.093C444.645 330.925 466.048 306.894 467.849 296.841V296.873Z" fill="white"/>
<path d="M412.151 278.307C399.353 277.773 387.766 277.553 381.957 277.962C381.522 277.962 381.118 278.276 380.963 278.716C380.311 280.726 380.311 282.705 380.404 283.899C380.435 284.496 380.932 284.936 381.522 284.967C384.629 285.03 395.066 285.281 412.151 286.066C412.027 283.962 411.872 280.412 412.151 278.339V278.307Z" fill="#263238"/>
<path d="M416.5 286.255C426.503 286.726 438.494 287.386 452.41 288.297C452.628 286.38 452.876 283.019 452.534 280.663C442.842 279.909 429.578 279.092 416.935 278.527C416.656 280.475 416.562 284.024 416.5 286.255Z" fill="#263238"/>
<path d="M466.761 283.019C466.761 282.485 466.357 282.014 465.798 281.919C464.183 281.668 460.952 281.323 456.697 280.977C456.852 282.893 456.448 286.443 456.168 288.516C459.213 288.705 462.35 288.925 465.581 289.145C466.233 289.176 466.792 288.705 466.823 288.045C466.885 286.474 466.823 284.244 466.761 283.019Z" fill="#263238"/>
<path d="M403.888 176.119C401.31 180.893 398.638 186.077 396.153 191.134C393.637 196.223 391.183 201.312 388.915 206.401C386.648 211.491 384.535 216.611 382.734 221.543C381.833 224.025 381.056 226.443 380.466 228.705C379.876 230.904 379.503 233.103 379.441 234.046L379.099 231.344C379.845 235.239 381.553 240.297 383.355 245.135C385.188 250.035 387.269 254.967 389.443 259.931C391.618 264.894 393.792 269.889 396.091 274.852L399.415 282.36L401.123 286.098L401.993 287.952C402.335 288.517 402.521 289.24 401.186 290.716L400.254 291.753C396.557 295.931 391.649 298.412 386.554 299.166C384.535 299.449 384.038 298.946 383.697 298.287L382.547 296.496L380.28 292.915L375.806 285.69C372.917 280.821 370.122 275.857 367.419 270.8C364.748 265.742 362.2 260.559 359.746 255.187C357.323 249.721 354.931 244.381 353.099 237.438C352.912 236.684 352.788 235.93 352.757 235.208V234.768C352.633 229.805 353.254 226.192 353.937 222.674C354.621 219.218 355.459 216.014 356.391 212.904C358.224 206.716 360.336 200.873 362.573 195.187C364.841 189.469 367.171 183.909 369.687 178.38C372.234 172.852 374.75 167.543 377.577 161.951C381.336 154.537 390.313 151.616 397.644 155.385C404.975 159.187 407.864 168.265 404.137 175.679C404.075 175.773 404.012 175.899 403.981 175.993L403.888 176.15V176.119Z" fill="#407BFF"/>
<path opacity="0.6" d="M403.888 176.119C401.31 180.893 398.638 186.077 396.153 191.134C393.637 196.223 391.183 201.312 388.915 206.401C386.648 211.491 384.535 216.611 382.734 221.543C381.833 224.025 381.056 226.443 380.466 228.705C379.876 230.904 379.503 233.103 379.441 234.046L379.099 231.344C379.845 235.239 381.553 240.297 383.355 245.135C385.188 250.035 387.269 254.967 389.443 259.931C391.618 264.894 393.792 269.889 396.091 274.852L399.415 282.36L401.123 286.098L401.993 287.952C402.335 288.517 402.521 289.24 401.186 290.716L400.254 291.753C396.557 295.931 391.649 298.412 386.554 299.166C384.535 299.449 384.038 298.946 383.697 298.287L382.547 296.496L380.28 292.915L375.806 285.69C372.917 280.821 370.122 275.857 367.419 270.8C364.748 265.742 362.2 260.559 359.746 255.187C357.323 249.721 354.931 244.381 353.099 237.438C352.912 236.684 352.788 235.93 352.757 235.208V234.768C352.633 229.805 353.254 226.192 353.937 222.674C354.621 219.218 355.459 216.014 356.391 212.904C358.224 206.716 360.336 200.873 362.573 195.187C364.841 189.469 367.171 183.909 369.687 178.38C372.234 172.852 374.75 167.543 377.577 161.951C381.336 154.537 390.313 151.616 397.644 155.385C404.975 159.187 407.864 168.265 404.137 175.679C404.075 175.773 404.012 175.899 403.981 175.993L403.888 176.15V176.119Z" fill="white"/>
<path d="M441.382 186.39C441.382 182.998 444.116 180.233 447.471 180.233C450.826 180.233 453.559 182.998 453.559 186.39C453.559 189.783 450.826 192.547 447.471 192.547C444.116 192.547 441.382 189.783 441.382 186.39Z" fill="#263238"/>
<path d="M441.382 201.186C441.382 197.794 444.116 195.029 447.471 195.029C450.826 195.029 453.559 197.794 453.559 201.186C453.559 204.579 450.826 207.343 447.471 207.343C444.116 207.343 441.382 204.579 441.382 201.186Z" fill="#263238"/>
<path d="M448.124 209.48V195.626C448.124 195.626 449.304 194.181 448.124 191.543V177.815" stroke="#263238" stroke-width="0.67" stroke-linecap="round" stroke-linejoin="round"/>
</svg>
