<svg width="654" height="632" viewBox="0 0 654 632" fill="none" xmlns="http://www.w3.org/2000/svg">
<g clip-path="url(#clip0_1367_3111)">
<path d="M507.03 575.131C511.451 575.172 515.241 577.382 518.647 579.468C513.25 574.101 507.853 568.734 502.443 563.367C500.15 561.088 497.761 558.082 499.614 555.598C500.754 554.074 503.24 553.319 505.588 553.333C507.936 553.347 510.188 554.019 512.316 554.76C525.499 559.29 536.827 566.716 544.503 575.872C541.4 571.713 538.31 567.567 535.207 563.408C533.724 561.418 532.241 558.878 533.985 556.998C535.399 555.461 538.283 555.186 540.782 555.268C548.225 555.515 555.516 557.725 561.064 561.404C556.78 555.996 553.031 550.34 549.859 544.52C549.076 543.093 548.321 541.528 548.87 540.032C549.557 538.138 552.248 536.93 554.898 536.765C557.535 536.6 560.144 537.273 562.588 538.014C581.071 543.628 596.602 554.417 605.404 567.718C615.455 568.13 624.449 574.472 625.534 581.898L499.985 581.472C498.049 578.521 502.594 575.076 507.016 575.117L507.03 575.131Z" fill="#C9DEFF"/>
<path d="M270.35 591.726C273.508 591.754 276.213 593.332 278.644 594.828C274.785 590.999 270.927 587.155 267.068 583.325C265.434 581.692 263.717 579.551 265.049 577.766C265.86 576.682 267.645 576.133 269.32 576.147C270.995 576.16 272.602 576.641 274.126 577.162C283.546 580.402 291.634 585.714 297.113 592.248C294.902 589.283 292.691 586.318 290.481 583.353C289.423 581.925 288.366 580.113 289.602 578.768C290.618 577.67 292.664 577.478 294.463 577.533C299.777 577.711 304.981 579.29 308.95 581.925C305.888 578.054 303.21 574.019 300.944 569.86C300.381 568.83 299.846 567.718 300.23 566.648C300.724 565.289 302.647 564.424 304.528 564.314C306.409 564.191 308.277 564.671 310.021 565.206C323.217 569.228 334.326 576.915 340.615 586.428C347.797 586.716 354.223 591.259 354.992 596.558L265.31 596.256C263.923 594.142 267.178 591.685 270.336 591.712L270.35 591.726Z" fill="#C9DEFF"/>
<path d="M30.9375 588.034C33.0659 588.047 34.8922 589.118 36.5263 590.12C33.931 587.54 31.322 584.959 28.7267 582.365C27.6282 581.267 26.4747 579.825 27.3673 578.617C27.9165 577.89 29.1112 577.519 30.2509 577.533C31.3769 577.533 32.4617 577.862 33.4916 578.219C39.8357 580.402 45.2871 583.971 48.981 588.377C47.4842 586.373 46.0012 584.382 44.5044 582.378C43.7904 581.417 43.0763 580.196 43.914 579.29C44.6006 578.549 45.9875 578.411 47.1821 578.453C50.7661 578.576 54.2677 579.633 56.9454 581.404C54.8856 578.796 53.073 576.078 51.5488 573.278C51.178 572.591 50.8073 571.836 51.0682 571.123C51.3977 570.203 52.7023 569.626 53.9656 569.544C55.2426 569.462 56.4922 569.791 57.6731 570.148C66.5713 572.852 74.0413 578.041 78.2844 584.451C83.118 584.643 87.4572 587.704 87.9653 591.273L27.532 591.067C26.5983 589.64 28.7954 587.993 30.9238 588.006L30.9375 588.034Z" fill="#C9DEFF"/>
<path d="M392.672 149.043C392.672 153.093 386.808 156.318 385.806 160.038C384.804 163.772 388.209 169.62 386.259 172.983C384.309 176.359 377.595 176.291 374.807 179.063C372.019 181.836 372.157 188.535 368.724 190.511C365.305 192.488 359.633 189.043 355.775 190.058C351.916 191.088 348.813 196.922 344.776 196.922C340.739 196.922 337.498 191.061 333.777 190.058C330.042 189.056 324.206 192.474 320.828 190.511C317.436 188.549 317.532 181.85 314.744 179.063C311.957 176.277 305.283 176.428 303.292 172.983C301.301 169.551 304.762 163.854 303.745 160.011C302.715 156.167 296.88 153.065 296.88 149.016C296.88 144.967 302.743 141.755 303.745 138.035C304.748 134.301 301.342 128.453 303.292 125.09C305.242 121.714 311.957 121.782 314.744 118.996C317.532 116.209 317.395 109.538 320.828 107.548C324.247 105.558 329.918 109.03 333.777 108.001C337.635 106.958 340.739 101.151 344.776 101.151C348.813 101.151 352.054 107.013 355.775 108.001C359.51 108.989 365.346 105.599 368.724 107.548C372.116 109.497 372.019 116.209 374.807 118.996C377.595 121.782 384.268 121.645 386.259 125.09C388.25 128.522 384.79 134.177 385.806 138.035C386.822 141.892 392.672 145.008 392.672 149.043Z" fill="#F0F0F0"/>
<path d="M379.008 149.22C379.103 130.321 363.854 114.923 344.948 114.827C326.042 114.732 310.638 129.975 310.542 148.874C310.446 167.773 325.695 183.172 344.602 183.267C363.508 183.363 378.912 168.12 379.008 149.22Z" fill="#C9DEFF"/>
<path d="M465.683 51.1728C465.464 48.0156 462.594 45.6684 459.669 44.4467C452.295 41.3445 443.163 43.0466 437.396 48.5784C437.3 41.2759 433.153 34.1655 426.864 30.4593C420.575 26.7531 412.336 26.6021 405.909 30.0612L409.109 28.4415C406.376 14.9345 390.406 13.2324 382.565 17.4328C374.725 21.6331 370.811 31.9555 373.901 40.3013C366.801 36.9108 357.175 43.0741 357.258 50.9257C354.608 51.7218 351.751 51.2551 348.991 51.4061C346.231 51.5708 343.142 52.669 342.139 55.2496C340.999 58.187 343.348 61.5912 346.341 62.5933C349.335 63.5953 352.63 62.7992 355.569 61.6736C358.521 60.548 361.391 59.093 364.536 58.7224C367.9 63.3482 373.53 66.2583 379.256 66.3132C384.982 66.3681 390.667 63.5953 394.141 59.0381C401.172 66.6014 414.821 66.4093 421.632 58.6537C432.974 64.2267 446.761 64.5836 458.378 59.6009C462.031 58.036 465.958 55.126 465.697 51.159L465.683 51.1728Z" fill="#F0F0F0"/>
<path d="M256.316 299.926C256.316 299.926 268.839 292.377 271.599 290.798C274.359 289.206 296.577 282.068 295.946 282.397C295.314 282.713 298.321 288.108 290.714 292.555C283.093 297.002 267.384 303.179 266.752 303.179C266.12 303.179 256.33 299.94 256.33 299.94L256.316 299.926Z" fill="#C9DEFF"/>
<path d="M235.307 302.905C235.307 302.905 245.248 302.932 247.363 302.589C249.491 302.232 263.099 299.844 265.557 299.034C268.029 298.224 271.036 295.492 275.691 299.61L274.456 300.914C274.002 301.395 273.467 301.793 272.863 302.081L269.553 303.687C269.553 303.687 267.068 306.886 262.811 308.725C258.568 310.578 249.121 305.938 247.239 306.35C246.718 306.46 242.282 311.223 240.442 310.413C238.602 309.603 235.334 303.564 235.279 302.877L235.307 302.905Z" fill="#F0F0F0"/>
<path d="M249.546 305.458C248.407 306.268 247.267 307.05 246.1 307.819C245.839 307.984 245.715 308.341 245.894 308.629C246.058 308.89 246.429 309.027 246.704 308.835C247.871 308.066 249.011 307.284 250.15 306.474C250.398 306.295 250.549 305.952 250.356 305.664C250.192 305.417 249.821 305.266 249.546 305.458Z" fill="#C9DEFF"/>
<path d="M242.886 308.107C242.886 308.107 243.422 310.619 244.177 310.688C244.932 310.756 247.596 307.517 247.596 307.517L242.873 308.107H242.886Z" fill="#C9DEFF"/>
<path d="M252.526 307.27C251.386 308.08 250.247 308.862 249.079 309.631C248.819 309.796 248.695 310.152 248.873 310.441C249.038 310.702 249.409 310.839 249.684 310.647C250.851 309.878 251.991 309.096 253.13 308.286C253.377 308.107 253.529 307.764 253.336 307.476C253.171 307.229 252.801 307.078 252.526 307.27Z" fill="#C9DEFF"/>
<path d="M245.852 309.919C245.852 309.919 246.388 312.431 247.143 312.5C247.898 312.568 250.562 309.329 250.562 309.329L245.839 309.919H245.852Z" fill="#C9DEFF"/>
<path d="M228.207 279.542C228.07 279.281 250.741 279.995 255.959 283.482C261.191 286.968 264.596 300.846 264.596 300.846L254.819 303.962C254.819 303.962 248.173 290.084 248.063 290.372C247.953 290.661 231.503 285.623 228.207 279.542Z" fill="#F0F0F0"/>
<path d="M272.437 299.377C272.327 299.72 271.956 299.912 271.613 299.789C271.27 299.665 271.078 299.308 271.201 298.965C271.325 298.622 271.682 298.43 272.025 298.553C272.368 298.677 272.561 299.034 272.437 299.377Z" fill="#C9DEFF"/>
<path d="M274.085 299.926L274.881 299.048C274.881 299.048 276.611 298.567 277.93 299.171C277.93 299.171 278.355 299.281 278.204 299.748L274.085 299.912V299.926Z" fill="#E6E6E6"/>
<path d="M277.504 301.34L274.318 299.858L274.977 299.638C274.977 299.638 277.422 300.242 277.504 301.34Z" fill="#E6E6E6"/>
<path d="M258.911 302.658L249.107 287.133C243.985 286.46 237.407 282.356 233.563 279.625C230.363 279.46 228.166 279.446 228.207 279.528C231.489 285.623 247.953 290.661 248.063 290.359C248.173 290.057 254.819 303.948 254.819 303.948L258.911 302.644V302.658Z" fill="#C9DEFF"/>
<path d="M105.267 308.492C104.292 306.364 101.436 305.883 99.1429 306.282C96.836 306.68 94.5565 307.654 92.2496 307.311C93.0598 302.081 88.3086 297.044 83.0356 296.522C77.7626 296 72.6132 299.226 69.7296 303.66C68.1779 301.189 64.951 299.912 62.1222 300.654C59.2935 301.395 57.1101 304.085 56.9728 307.009C53.2515 307.133 49.5165 306.103 45.809 306.487C42.1014 306.872 38.1192 309.425 38.078 313.159C38.0368 316.343 41.0029 318.937 44.1337 319.596C47.2508 320.255 51.0545 319.418 54.1441 318.622C55.4898 321.161 58.5245 324.14 61.4082 324.222C64.2781 324.305 67.148 322.726 68.6173 320.255C71.3637 323.179 75.7029 324.51 79.6301 323.646C83.5574 322.781 86.9217 319.747 88.185 315.931C93.1971 316.92 98.8545 317.373 102.974 314.367C104.814 313.021 106.242 310.564 105.295 308.492H105.267Z" fill="#EBEBEB"/>
<path d="M517.946 273.942C519.608 270.345 524.428 269.535 528.341 270.208C532.255 270.881 536.113 272.528 540.041 271.951C538.667 263.084 546.728 254.532 555.653 253.654C564.579 252.775 573.312 258.252 578.215 265.761C580.851 261.574 586.33 259.419 591.109 260.668C595.887 261.917 599.595 266.502 599.842 271.43C606.159 271.636 612.475 269.892 618.764 270.551C625.054 271.21 631.796 275.534 631.878 281.862C631.947 287.27 626.921 291.649 621.621 292.761C616.32 293.873 609.88 292.459 604.648 291.114C602.369 295.424 597.219 300.475 592.345 300.599C587.47 300.722 582.609 298.059 580.11 293.873C575.441 298.828 568.094 301.093 561.448 299.624C554.802 298.155 549.09 293.008 546.948 286.556C538.461 288.245 528.863 289 521.887 283.893C518.77 281.615 516.353 277.456 517.96 273.942H517.946Z" fill="#EBEBEB"/>
<path d="M602.74 623.586C602.74 628.239 489.522 632 349.856 632C210.191 632 96.9733 628.225 96.9733 623.586C96.9733 618.946 210.191 615.171 349.856 615.171C489.522 615.171 602.74 618.946 602.74 623.586Z" fill="#F5F5F5"/>
<path d="M284.109 491.879C287.94 491.934 291.222 494.501 294.174 496.944C289.492 490.685 284.823 484.425 280.141 478.152C278.149 475.489 276.076 471.989 277.696 469.079C278.685 467.295 280.841 466.416 282.873 466.444C284.905 466.471 286.855 467.253 288.695 468.104C300.106 473.389 309.938 482.064 316.585 492.744C313.907 487.898 311.215 483.053 308.538 478.207C307.247 475.874 305.97 472.922 307.48 470.726C308.703 468.928 311.202 468.612 313.371 468.708C319.811 468.997 326.128 471.577 330.934 475.874C327.213 469.559 323.972 462.971 321.226 456.176C320.553 454.501 319.894 452.676 320.361 450.932C320.951 448.709 323.286 447.309 325.579 447.116C327.872 446.924 330.124 447.707 332.252 448.572C348.264 455.133 361.721 467.706 369.355 483.231C378.061 483.712 385.861 491.124 386.795 499.785L278.026 499.291C276.351 495.846 280.292 491.824 284.123 491.879H284.109Z" fill="#407BFF"/>
<g opacity="0.5">
<path d="M284.109 491.879C287.94 491.934 291.222 494.501 294.174 496.944C289.492 490.685 284.823 484.425 280.141 478.152C278.149 475.489 276.076 471.989 277.696 469.079C278.685 467.295 280.841 466.416 282.873 466.444C284.905 466.471 286.855 467.253 288.695 468.104C300.106 473.389 309.938 482.064 316.585 492.744C313.907 487.898 311.215 483.053 308.538 478.207C307.247 475.874 305.97 472.922 307.48 470.726C308.703 468.928 311.202 468.612 313.371 468.708C319.811 468.997 326.128 471.577 330.934 475.874C327.213 469.559 323.972 462.971 321.226 456.176C320.553 454.501 319.894 452.676 320.361 450.932C320.951 448.709 323.286 447.309 325.579 447.116C327.872 446.924 330.124 447.707 332.252 448.572C348.264 455.133 361.721 467.706 369.355 483.231C378.061 483.712 385.861 491.124 386.795 499.785L278.026 499.291C276.351 495.846 280.292 491.824 284.123 491.879H284.109Z" fill="white"/>
</g>
<g opacity="0.3">
<path d="M337.113 491.92C333.516 487.692 329.616 483.739 325.441 480.101C324.453 479.237 322.983 480.678 323.986 481.556C328.16 485.208 332.06 489.161 335.658 493.375C336.015 493.801 336.743 493.746 337.113 493.375C337.539 492.95 337.47 492.346 337.113 491.92Z" fill="black"/>
</g>
<g opacity="0.3">
<path d="M361.528 492.373C356.242 480.5 348.813 469.669 339.654 460.445C338.72 459.498 337.264 460.953 338.198 461.9C347.234 471.014 354.525 481.694 359.743 493.416C360.279 494.624 362.05 493.581 361.528 492.373Z" fill="black"/>
</g>
<g opacity="0.3">
<path d="M355.157 488.488C351.765 485.647 348.744 482.38 346.218 478.756C345.902 478.303 345.311 478.097 344.803 478.386C344.35 478.646 344.117 479.333 344.432 479.799C347.055 483.574 350.159 487.006 353.688 489.957C354.113 490.314 354.731 490.369 355.143 489.957C355.514 489.587 355.569 488.859 355.143 488.502L355.157 488.488Z" fill="black"/>
</g>
<path d="M498.598 427.776L651.927 427.309C649.606 422.546 644.333 418.414 639.417 415.916C637.151 414.763 634.446 413.939 632.029 414.79C629.626 415.641 628.184 418.84 629.97 420.583C617.844 410.961 604.127 403.109 589.447 397.412C587.868 396.795 586.111 396.205 584.504 396.754C581.359 397.824 581.442 402.176 583.172 404.866C584.902 407.556 587.676 409.821 588.198 412.91C576.718 398.154 560.487 386.678 542.183 380.391C538.942 379.28 534.644 378.607 532.639 381.229C531.28 383 531.733 385.443 532.351 387.543C534.493 394.763 538.022 401.613 542.718 407.68C540.302 404.084 534.438 402.999 530.785 405.539C527.133 408.064 526.556 413.692 529.673 416.794C525.554 413.953 521.214 411.016 516.161 410.219C511.108 409.423 505.135 411.51 503.473 416.053C492.062 402.258 478.042 390.343 462.264 381.064C459.683 379.54 456.263 378.168 453.654 379.142C443.397 369.081 430.942 360.982 417.183 355.697C414.038 354.489 410.702 353.405 407.324 353.68C403.932 353.94 400.485 355.889 399.606 358.964C398.92 361.38 399.881 363.906 400.883 366.226C404.948 375.642 409.74 384.77 415.247 393.528C408.134 387.57 398.783 384.002 389.253 383.603C386.04 383.466 382.346 383.919 380.533 386.404C378.309 389.451 380.204 393.542 382.112 396.767C386.081 403.48 390.049 410.206 394.018 416.918C384.186 402.121 369.658 390.096 352.768 382.766C350.035 381.586 347.151 380.501 344.144 380.46C341.137 380.433 337.937 381.654 336.482 384.111C334.106 388.147 337.168 392.992 340.107 396.685C347.028 405.36 353.948 414.049 360.869 422.724C356.503 419.334 351.655 415.779 345.984 415.71C343.581 415.683 341.151 416.671 339.338 418.181C338.171 417.385 336.907 416.643 335.548 415.943C333.282 414.79 330.577 413.967 328.16 414.818C325.757 415.669 324.315 418.867 326.101 420.61C313.975 410.988 300.258 403.136 285.578 397.44C283.999 396.822 282.242 396.232 280.635 396.781C277.49 397.852 277.573 402.203 279.303 404.893C281.033 407.584 283.807 409.849 284.329 412.937C272.849 398.181 256.618 386.706 238.314 380.419C235.073 379.307 230.775 378.634 228.77 381.256C227.411 383.027 227.864 385.47 228.482 387.57C230.624 394.791 234.153 401.64 238.849 407.707C236.433 404.111 230.569 403.027 226.916 405.566C223.264 408.092 222.687 413.72 225.804 416.822C221.685 413.98 217.345 411.043 212.292 410.247C207.239 409.451 201.266 411.537 199.604 416.081C188.193 402.285 174.173 390.371 158.395 381.092C155.333 379.28 151.049 377.66 148.399 379.98C147.588 380.693 147.135 381.668 146.984 382.698C141.725 377.632 137.784 373.912 136.631 372.965C134.667 371.359 132.305 369.767 129.531 370.728C127.774 371.346 126.524 372.801 125.975 374.489C124.972 377.536 126.03 380.639 127.06 383.562C115.951 368.641 100.283 356.713 82.4177 349.562C79.2869 348.312 75.0575 347.393 73.3411 350.811C72.5583 352.348 72.7506 354.174 73.6569 355.642L89.6269 381.682C86.6608 378.305 82.2392 375.889 77.5704 375.821C72.9016 375.752 68.123 378.305 66.4065 382.382C65.1844 385.278 65.8435 388.778 67.8758 391.181C61.9849 387.131 55.4761 383.878 48.6103 381.558C45.3696 380.46 41.7581 379.582 38.5174 380.68C32.8051 382.615 31.1572 389.588 32.1322 395.202C33.1072 400.817 35.7711 406.28 35.2356 411.935C33.4092 410.164 31.2671 408.668 28.9464 407.501C24.9231 405.497 20.1856 408.888 21.2842 413.033C22.0257 415.806 23.1517 418.483 24.6347 420.981C22.1767 418.51 19.1145 416.41 15.5718 415.737C12.029 415.065 7.99186 416.081 5.86344 418.812C3.73503 421.544 3.48786 424.975 6.57749 426.719L346.492 427.419C346.492 427.419 346.424 427.295 346.382 427.227L498.571 427.789C498.557 427.638 498.598 427.94 498.571 427.789L498.598 427.776Z" fill="#407BFF"/>
<g opacity="0.3">
<path d="M120.606 390.782C130.946 400.968 141.299 411.139 151.639 421.324C152.587 422.258 154.042 420.803 153.095 419.869C142.755 409.684 132.401 399.513 122.061 389.327C121.114 388.394 119.658 389.849 120.606 390.782Z" fill="black"/>
</g>
<g opacity="0.3">
<path d="M113.712 397.344C120.908 402.519 127.54 408.421 133.527 414.955C134.42 415.93 135.875 414.475 134.983 413.5C128.872 406.843 122.089 400.844 114.742 395.573C113.671 394.804 112.641 396.589 113.699 397.358L113.712 397.344Z" fill="black"/>
</g>
<g opacity="0.3">
<path d="M252.65 404.852C258.953 409.835 264.651 415.545 269.595 421.873C270.405 422.916 271.86 421.448 271.05 420.418C266.093 414.09 260.408 408.366 254.105 403.397C253.075 402.587 251.606 404.029 252.65 404.852Z" fill="black"/>
</g>
<g opacity="0.3">
<path d="M439.25 395.326C447.022 401.201 454.108 407.982 460.369 415.449C461.221 416.465 462.676 415.01 461.825 413.994C455.453 406.376 448.217 399.54 440.293 393.542C439.236 392.745 438.206 394.53 439.25 395.326Z" fill="black"/>
</g>
<g opacity="0.3">
<path d="M456.126 398.044C458.392 400.171 460.658 402.299 462.91 404.413C463.322 404.797 463.967 404.811 464.365 404.413C464.763 404.015 464.777 403.342 464.365 402.958C462.099 400.83 459.834 398.703 457.582 396.589C457.17 396.204 456.524 396.191 456.126 396.589C455.728 396.987 455.714 397.66 456.126 398.044Z" fill="black"/>
</g>
<g opacity="0.3">
<path d="M498.598 427.776L651.927 427.309C649.606 422.546 644.333 418.414 639.417 415.916C637.151 414.763 634.446 413.939 632.029 414.79C629.626 415.641 628.184 418.84 629.97 420.583C617.844 410.961 604.127 403.109 589.447 397.412C587.868 396.795 586.111 396.205 584.504 396.754C581.359 397.824 581.442 402.176 583.172 404.866C584.902 407.556 587.676 409.821 588.198 412.91C576.718 398.154 560.487 386.678 542.183 380.391C538.942 379.28 534.644 378.607 532.639 381.229C531.28 383 531.733 385.443 532.351 387.543C534.493 394.763 538.022 401.613 542.718 407.68C540.302 404.084 534.438 402.999 530.785 405.539C527.133 408.064 526.556 413.692 529.673 416.794C525.554 413.953 521.214 411.016 516.161 410.219C511.108 409.423 505.135 411.51 503.473 416.053C492.062 402.258 478.042 390.343 462.264 381.064C459.683 379.54 456.263 378.168 453.654 379.142C443.397 369.081 430.942 360.982 417.183 355.697C414.038 354.489 410.702 353.405 407.324 353.68C403.932 353.94 400.485 355.889 399.606 358.964C398.92 361.38 399.881 363.906 400.883 366.226C404.948 375.642 409.74 384.77 415.247 393.528C408.134 387.57 398.783 384.002 389.253 383.603C386.04 383.466 382.346 383.919 380.533 386.404C378.309 389.451 380.204 393.542 382.112 396.767C386.081 403.48 390.049 410.206 394.018 416.918C384.186 402.121 369.658 390.096 352.768 382.766C350.035 381.586 347.151 380.501 344.144 380.46C341.137 380.433 337.937 381.654 336.482 384.111C334.106 388.147 337.168 392.992 340.107 396.685C347.028 405.36 353.948 414.049 360.869 422.724C356.503 419.334 351.655 415.779 345.984 415.71C343.581 415.683 341.151 416.671 339.338 418.181C338.171 417.385 336.907 416.643 335.548 415.943C333.282 414.79 330.577 413.967 328.16 414.818C325.757 415.669 324.315 418.867 326.101 420.61C313.975 410.988 300.258 403.136 285.578 397.44C283.999 396.822 282.242 396.232 280.635 396.781C277.49 397.852 277.573 402.203 279.303 404.893C281.033 407.584 283.807 409.849 284.329 412.937C272.849 398.181 256.618 386.706 238.314 380.419C235.073 379.307 230.775 378.634 228.77 381.256C227.411 383.027 227.864 385.47 228.482 387.57C230.624 394.791 234.153 401.64 238.849 407.707C236.433 404.111 230.569 403.027 226.916 405.566C223.264 408.092 222.687 413.72 225.804 416.822C221.685 413.98 217.345 411.043 212.292 410.247C207.239 409.451 201.266 411.537 199.604 416.081C188.193 402.285 174.173 390.371 158.395 381.092C155.333 379.28 151.049 377.66 148.399 379.98C147.588 380.693 147.135 381.668 146.984 382.698C141.725 377.632 137.784 373.912 136.631 372.965C134.667 371.359 132.305 369.767 129.531 370.728C127.774 371.346 126.524 372.801 125.975 374.489C124.972 377.536 126.03 380.639 127.06 383.562C115.951 368.641 100.283 356.713 82.4177 349.562C79.2869 348.312 75.0575 347.393 73.3411 350.811C72.5583 352.348 72.7506 354.174 73.6569 355.642L89.6269 381.682C86.6608 378.305 82.2392 375.889 77.5704 375.821C72.9016 375.752 68.123 378.305 66.4065 382.382C65.1844 385.278 65.8435 388.778 67.8758 391.181C61.9849 387.131 55.4761 383.878 48.6103 381.558C45.3696 380.46 41.7581 379.582 38.5174 380.68C32.8051 382.615 31.1572 389.588 32.1322 395.202C33.1072 400.817 35.7711 406.28 35.2356 411.935C33.4092 410.164 31.2671 408.668 28.9464 407.501C24.9231 405.497 20.1856 408.888 21.2842 413.033C22.0257 415.806 23.1517 418.483 24.6347 420.981C22.1767 418.51 19.1145 416.41 15.5718 415.737C12.029 415.065 7.99186 416.081 5.86344 418.812C3.73503 421.544 3.48786 424.975 6.57749 426.719L346.492 427.419C346.492 427.419 346.424 427.295 346.382 427.227L498.571 427.789C498.557 427.638 498.598 427.94 498.571 427.789L498.598 427.776Z" fill="black"/>
</g>
<path d="M0.494341 427.227C85.5623 427.227 170.644 427.378 255.712 427.57C340.78 427.762 425.93 427.982 511.053 428.119C558.537 428.201 606.021 428.242 653.506 428.242C654.165 428.242 654.165 427.213 653.506 427.213C568.438 427.213 483.356 427.062 398.288 426.87C313.179 426.678 228.07 426.458 142.947 426.321C95.4628 426.238 47.9786 426.197 0.494341 426.197C-0.16478 426.197 -0.16478 427.227 0.494341 427.227Z" fill="#263238"/>
<path d="M114.124 612.659C118.546 612.7 122.336 614.91 125.741 616.997C120.345 611.63 114.948 606.263 109.538 600.896C107.245 598.617 104.855 595.611 106.709 593.126C107.849 591.603 110.334 590.848 112.696 590.861C115.044 590.875 117.296 591.548 119.425 592.289C132.607 596.819 143.936 604.245 151.612 613.4C148.508 609.241 145.419 605.096 142.315 600.937C140.832 598.946 139.349 596.407 141.093 594.526C142.508 592.989 145.391 592.714 147.89 592.797C155.333 593.044 162.625 595.254 168.172 598.933C163.888 593.524 160.139 587.869 156.967 582.049C156.184 580.621 155.429 579.057 155.978 577.56C156.665 575.666 159.356 574.458 162.007 574.293C164.643 574.129 167.252 574.801 169.696 575.543C188.179 581.17 203.71 591.946 212.512 605.247C222.563 605.659 231.558 612 232.643 619.426L107.094 619.001C105.157 616.05 109.703 612.604 114.124 612.646V612.659Z" fill="#407BFF"/>
<g opacity="0.5">
<path d="M114.124 612.659C118.546 612.7 122.336 614.91 125.741 616.997C120.345 611.63 114.948 606.263 109.538 600.896C107.245 598.617 104.855 595.611 106.709 593.126C107.849 591.603 110.334 590.848 112.696 590.861C115.044 590.875 117.296 591.548 119.425 592.289C132.607 596.819 143.936 604.245 151.612 613.4C148.508 609.241 145.419 605.096 142.315 600.937C140.832 598.946 139.349 596.407 141.093 594.526C142.508 592.989 145.391 592.714 147.89 592.797C155.333 593.044 162.625 595.254 168.172 598.933C163.888 593.524 160.139 587.869 156.967 582.049C156.184 580.621 155.429 579.057 155.978 577.56C156.665 575.666 159.356 574.458 162.007 574.293C164.643 574.129 167.252 574.801 169.696 575.543C188.179 581.17 203.71 591.946 212.512 605.247C222.563 605.659 231.558 612 232.643 619.426L107.094 619.001C105.157 616.05 109.703 612.604 114.124 612.646V612.659Z" fill="white"/>
</g>
<path d="M235.142 499.099C238.259 496.175 243.298 498.221 246.924 500.499C265.516 512.181 282.035 527.156 295.465 544.52C297.429 538.81 304.459 536.188 310.419 537.19C316.378 538.192 321.473 541.871 326.334 545.454C322.654 541.569 323.34 534.486 327.639 531.302C331.937 528.117 338.844 529.462 341.7 533.992C336.166 526.36 332.005 517.74 329.479 508.667C328.737 506.017 328.215 502.956 329.808 500.733C332.184 497.438 337.251 498.289 341.054 499.689C362.613 507.596 381.741 522.022 395.267 540.595C394.649 536.696 391.381 533.855 389.349 530.464C387.317 527.088 387.207 521.597 390.914 520.252C392.809 519.565 394.883 520.32 396.736 521.089C414.038 528.254 430.201 538.124 444.482 550.231C442.381 548.048 444.07 544.012 446.912 542.942C449.755 541.871 452.94 542.914 455.618 544.369C461.413 547.499 465.697 551.301 468.443 557.3H278.479C265.077 542.42 251.675 527.541 238.273 512.661C236.542 510.739 234.771 508.749 233.892 506.319C233.013 503.89 233.247 500.87 235.128 499.099H235.142Z" fill="#407BFF"/>
<g opacity="0.3">
<path d="M235.142 499.099C238.259 496.175 243.298 498.221 246.924 500.499C265.516 512.181 282.035 527.156 295.465 544.52C297.429 538.81 304.459 536.188 310.419 537.19C316.378 538.192 321.473 541.871 326.334 545.454C322.654 541.569 323.34 534.486 327.639 531.302C331.937 528.117 338.844 529.462 341.7 533.992C336.166 526.36 332.005 517.74 329.479 508.667C328.737 506.017 328.215 502.956 329.808 500.733C332.184 497.438 337.251 498.289 341.054 499.689C362.613 507.596 381.741 522.022 395.267 540.595C394.649 536.696 391.381 533.855 389.349 530.464C387.317 527.088 387.207 521.597 390.914 520.252C392.809 519.565 394.883 520.32 396.736 521.089C414.038 528.254 430.201 538.124 444.482 550.231C442.381 548.048 444.07 544.012 446.912 542.942C449.755 541.871 452.94 542.914 455.618 544.369C461.413 547.499 465.697 551.301 468.443 557.3H278.479C265.077 542.42 251.675 527.541 238.273 512.661C236.542 510.739 234.771 508.749 233.892 506.319C233.013 503.89 233.247 500.87 235.128 499.099H235.142Z" fill="white"/>
</g>
<path d="M68.0131 557.918C64.3742 555.721 64.6626 551.397 67.1755 547.979C69.6884 544.548 74.4396 543.271 78.614 544.122C82.7747 544.96 86.3862 547.609 89.2836 550.711C87.5396 547.568 86.2077 544.191 85.3426 540.704C84.038 535.502 89.6268 531.233 94.3643 533.759C97.1106 535.214 99.6235 537.094 101.779 539.332C102.411 532.208 99.2665 525.344 98.1268 518.275C96.987 511.206 98.9232 502.448 105.652 500.005C109.469 498.619 113.712 499.73 117.543 501.103C127.101 504.535 136.054 509.614 143.922 516.024C138.828 513.924 136.493 507.253 138.512 502.133C140.53 497.013 146.16 493.801 151.667 493.883C157.173 493.965 162.377 496.999 165.879 501.254L147.053 468.502C145.982 466.649 145.776 464.357 146.682 462.422C148.714 458.125 153.699 459.278 157.379 460.843C178.43 469.834 196.885 484.837 209.972 503.601C208.749 499.909 207.5 496.024 208.694 492.181C209.354 490.067 210.809 488.228 212.883 487.445C216.165 486.223 218.938 488.228 221.259 490.259C226.518 494.844 280.813 551.535 284.672 557.341L235.018 556.984L67.9994 557.904L68.0131 557.918Z" fill="#407BFF"/>
<g opacity="0.3">
<path d="M68.0131 557.918C64.3742 555.721 64.6626 551.397 67.1755 547.979C69.6884 544.548 74.4396 543.271 78.614 544.122C82.7747 544.96 86.3862 547.609 89.2836 550.711C87.5396 547.568 86.2077 544.191 85.3426 540.704C84.038 535.502 89.6268 531.233 94.3643 533.759C97.1106 535.214 99.6235 537.094 101.779 539.332C102.411 532.208 99.2665 525.344 98.1268 518.275C96.987 511.206 98.9232 502.448 105.652 500.005C109.469 498.619 113.712 499.73 117.543 501.103C127.101 504.535 136.054 509.614 143.922 516.024C138.828 513.924 136.493 507.253 138.512 502.133C140.53 497.013 146.16 493.801 151.667 493.883C157.173 493.965 162.377 496.999 165.879 501.254L147.053 468.502C145.982 466.649 145.776 464.357 146.682 462.422C148.714 458.125 153.699 459.278 157.379 460.843C178.43 469.834 196.885 484.837 209.972 503.601C208.749 499.909 207.5 496.024 208.694 492.181C209.354 490.067 210.809 488.228 212.883 487.445C216.165 486.223 218.938 488.228 221.259 490.259C226.518 494.844 280.813 551.535 284.672 557.341L235.018 556.984L67.9994 557.904L68.0131 557.918Z" fill="white"/>
</g>
<g opacity="0.3">
<path d="M190.624 519.497C198.918 528.446 206.209 538.275 212.375 548.803C213.047 549.942 214.819 548.913 214.16 547.76C207.912 537.081 200.497 527.115 192.093 518.028C191.187 517.053 189.731 518.508 190.637 519.483L190.624 519.497Z" fill="black"/>
</g>
<g opacity="0.3">
<path d="M212.375 522.983C215.629 529.943 218.883 536.888 222.138 543.848L223.525 546.799C224.088 547.993 225.859 546.95 225.31 545.756C222.055 538.796 218.801 531.851 215.547 524.891L214.16 521.94C213.597 520.746 211.825 521.789 212.375 522.983Z" fill="black"/>
</g>
<g opacity="0.3">
<path d="M179.995 531.7C185.282 536.216 190.115 541.267 194.345 546.785C194.688 547.225 195.224 547.458 195.759 547.156C196.199 546.909 196.46 546.181 196.13 545.742C191.791 540.073 186.889 534.871 181.451 530.231C180.448 529.38 178.979 530.821 179.995 531.686V531.7Z" fill="black"/>
</g>
<path d="M491.073 502.188C496.305 502.256 500.768 505.756 504.805 509.092C498.42 500.554 492.035 492.002 485.663 483.464C482.944 479.827 480.129 475.05 482.326 471.083C483.672 468.653 486.624 467.446 489.398 467.487C492.172 467.514 494.836 468.585 497.349 469.752C512.92 476.958 526.323 488.804 535.399 503.368C531.733 496.752 528.08 490.136 524.414 483.533C522.656 480.362 520.912 476.327 522.958 473.321C524.634 470.877 528.039 470.438 530.991 470.575C539.78 470.973 548.403 474.487 554.953 480.349C549.886 471.728 545.451 462.737 541.716 453.472C540.796 451.193 539.903 448.695 540.535 446.32C541.345 443.3 544.531 441.379 547.662 441.118C550.779 440.857 553.855 441.928 556.766 443.108C578.613 452.058 596.972 469.216 607.381 490.396C619.259 491.055 629.901 501.158 631.164 512.99L482.766 512.304C480.486 507.596 485.855 502.119 491.087 502.188H491.073Z" fill="#407BFF"/>
<g opacity="0.2">
<path d="M491.073 502.188C496.305 502.256 500.768 505.756 504.805 509.092C498.42 500.554 492.035 492.002 485.663 483.464C482.944 479.827 480.129 475.05 482.326 471.083C483.672 468.653 486.624 467.446 489.398 467.487C492.172 467.514 494.836 468.585 497.349 469.752C512.92 476.958 526.323 488.804 535.399 503.368C531.733 496.752 528.08 490.136 524.414 483.533C522.656 480.362 520.912 476.327 522.958 473.321C524.634 470.877 528.039 470.438 530.991 470.575C539.78 470.973 548.403 474.487 554.953 480.349C549.886 471.728 545.451 462.737 541.716 453.472C540.796 451.193 539.903 448.695 540.535 446.32C541.345 443.3 544.531 441.379 547.662 441.118C550.779 440.857 553.855 441.928 556.766 443.108C578.613 452.058 596.972 469.216 607.381 490.396C619.259 491.055 629.901 501.158 631.164 512.99L482.766 512.304C480.486 507.596 485.855 502.119 491.087 502.188H491.073Z" fill="white"/>
</g>
<g opacity="0.3">
<path d="M563.124 502.503C558.221 496.738 552.907 491.344 547.208 486.375C546.22 485.51 544.75 486.951 545.753 487.83C551.452 492.812 556.779 498.193 561.668 503.958C562.533 504.974 563.975 503.505 563.124 502.503Z" fill="black"/>
</g>
<g opacity="0.3">
<path d="M596.382 503.052C589.2 486.882 579.08 472.113 566.598 459.567C565.664 458.619 564.208 460.074 565.142 461.022C577.501 473.458 587.484 488.077 594.597 504.096C595.132 505.304 596.904 504.26 596.382 503.052Z" fill="black"/>
</g>
<g opacity="0.3">
<path d="M587.745 497.823C583.089 493.938 578.956 489.449 575.496 484.453C574.741 483.368 572.955 484.398 573.711 485.496C577.267 490.63 581.483 495.269 586.275 499.278C587.291 500.129 588.747 498.674 587.731 497.823H587.745Z" fill="black"/>
</g>
<path d="M552.372 571.15C551.932 569.901 550.71 568.226 549.831 567.238C548.952 566.25 547.593 565.577 546.288 565.824C544.627 566.153 543.542 567.897 543.419 569.585C543.309 571.274 543.679 573.525 544.339 575.076C547.181 581.733 549.818 587.842 555.132 593.442C556.587 586.153 554.83 578.096 552.372 571.15Z" fill="#407BFF"/>
<path d="M565.211 604.039C558.276 596.681 553.36 587.636 550.944 577.821C550.628 576.531 548.637 577.08 548.952 578.37C551.465 588.514 556.587 597.889 563.755 605.494C564.662 606.455 566.117 605 565.211 604.039Z" fill="#263238"/>
<path d="M569.523 570.409C567.875 569.901 565.348 571.617 564.195 572.907C561.915 575.474 560.721 577.903 559.677 581.17C558.359 585.316 559.183 590.587 559.608 593.95C563.989 588.61 568.451 583.147 570.868 576.682C571.294 575.556 571.651 574.362 571.527 573.168C571.404 571.974 570.676 570.766 569.523 570.409Z" fill="#407BFF"/>
<path d="M560.13 597.725C560.089 592.481 561.86 587.814 564.181 583.202C564.771 582.021 563 580.978 562.396 582.159C561.16 584.588 559.993 587.073 559.196 589.695C558.4 592.316 558.029 595.007 558.057 597.725C558.057 599.042 560.13 599.056 560.116 597.725H560.13Z" fill="#263238"/>
<path d="M57.3162 465.881C56.6159 464.714 55.0642 463.273 53.9794 462.449C52.8946 461.625 51.3978 461.227 50.1482 461.735C48.5416 462.394 47.8001 464.371 48.0198 466.087C48.2395 467.802 49.0634 469.985 50.0521 471.426C54.2403 477.548 58.0989 483.149 64.5665 487.706C64.5665 480.101 61.1885 472.36 57.3299 465.881H57.3162Z" fill="#407BFF"/>
<path d="M76.7191 496.326C68.2878 490.328 61.5456 482.188 57.1514 472.826C56.5884 471.632 54.817 472.675 55.3663 473.87C59.9115 483.561 66.9558 491.92 75.6755 498.111C76.7603 498.879 77.7902 497.095 76.7191 496.326Z" fill="#263238"/>
<path d="M78.9986 461.406C77.3096 460.898 74.728 462.682 73.5745 464.014C71.2676 466.649 70.0592 469.161 69.0156 472.511C67.6974 476.766 68.5899 482.147 69.0431 485.606C73.4784 480.101 77.9961 474.474 80.4266 467.83C80.8523 466.677 81.2094 465.441 81.072 464.22C80.9347 462.998 80.1795 461.763 78.9986 461.406Z" fill="#407BFF"/>
<path d="M69.9631 490.973C69.867 485.29 71.1028 479.648 73.6157 474.542C74.1924 473.362 72.4211 472.318 71.8306 473.499C69.1529 478.935 67.7935 484.919 67.9033 490.973C67.9308 492.291 69.9905 492.304 69.9631 490.973Z" fill="#263238"/>
<path d="M475.584 513.498H637.247C637.906 513.498 637.906 512.469 637.247 512.469H475.584C474.925 512.469 474.925 513.498 475.584 513.498Z" fill="#263238"/>
<path d="M46.88 557.67H476.628C477.287 557.67 477.287 556.641 476.628 556.641H46.88C46.2209 556.641 46.2209 557.67 46.88 557.67Z" fill="#263238"/>
<path d="M260.065 349.095C258.856 335.904 245.495 331.333 238.561 330.77C231.626 330.193 224.513 333.748 220.806 339.637C219.57 334.105 215.08 329.438 209.614 327.956C204.149 326.487 197.915 328.272 194.07 332.431C195.265 321.436 190.994 309.068 181.121 304.085C171.248 299.103 156.528 305.609 156.308 316.659C149.566 312.555 140.709 312.17 133.651 315.698C126.593 319.226 121.567 326.528 120.798 334.366C108.563 328.917 93.1833 331.539 83.4476 340.722C83.4476 340.722 67.0107 335.094 64.539 348.697L260.051 349.095H260.065Z" fill="#407BFF"/>
<g opacity="0.8">
<path d="M260.065 349.095C258.856 335.904 245.495 331.333 238.561 330.77C231.626 330.193 224.513 333.748 220.806 339.637C219.57 334.105 215.08 329.438 209.614 327.956C204.149 326.487 197.915 328.272 194.07 332.431C195.265 321.436 190.994 309.068 181.121 304.085C171.248 299.103 156.528 305.609 156.308 316.659C149.566 312.555 140.709 312.17 133.651 315.698C126.593 319.226 121.567 326.528 120.798 334.366C108.563 328.917 93.1833 331.539 83.4476 340.722C83.4476 340.722 67.0107 335.094 64.539 348.697L260.051 349.095H260.065Z" fill="white"/>
</g>
<g opacity="0.2">
<path d="M157.86 329.054C159.659 324.414 156.926 319.336 156.665 314.339C156.473 315.163 156.349 316.014 156.335 316.906C150.005 313.049 141.821 312.486 134.996 315.341C143.922 316.878 152.271 321.806 157.873 329.054H157.86Z" fill="#407BFF"/>
</g>
<g opacity="0.2">
<path d="M238.561 331.017C231.626 330.44 224.513 333.996 220.806 339.884C219.57 334.352 215.08 329.685 209.614 328.203C204.149 326.734 197.915 328.519 194.07 332.678C195.265 321.683 190.994 309.315 181.121 304.332C179.171 303.344 177.015 302.809 174.832 302.671C177.729 303.811 180.352 305.787 182.33 308.231C185.845 312.596 187.479 318.279 187.795 323.907C188.111 329.534 187.191 335.149 186.078 340.667C190.981 335.588 198.286 333.035 205.22 333.954C212.155 334.874 218.554 339.267 222 345.457C227.452 339.706 235.293 336.37 243.147 336.466C247.761 336.521 252.334 337.77 256.412 339.98C251.661 333.858 243.491 331.415 238.561 331.003V331.017Z" fill="#407BFF"/>
</g>
<path d="M532.79 321.944C532.969 314.916 528.822 305.321 522.546 302.136C516.271 298.952 508.21 299.707 502.635 303.989C501.825 298.361 497.788 293.324 492.474 291.278C487.16 289.233 480.788 290.29 476.422 293.928C469.144 279.57 451.553 271.265 435.844 274.779C420.135 278.293 407.763 293.296 407.31 309.397C402.476 309.452 396.874 321.93 396.874 321.93H532.804L532.79 321.944Z" fill="#407BFF"/>
<g opacity="0.8">
<path d="M532.79 321.944C532.969 314.916 528.822 305.321 522.546 302.136C516.271 298.952 508.21 299.707 502.635 303.989C501.825 298.361 497.788 293.324 492.474 291.278C487.16 289.233 480.788 290.29 476.422 293.928C469.144 279.57 451.553 271.265 435.844 274.779C420.135 278.293 407.763 293.296 407.31 309.397C402.476 309.452 396.874 321.93 396.874 321.93H532.804L532.79 321.944Z" fill="white"/>
</g>
<g opacity="0.2">
<path d="M413.324 315.327C412.789 305.705 417.595 296.083 425.285 290.29C432.974 284.497 443.273 282.507 452.721 284.456C462.154 286.405 470.654 292.143 476.463 299.816C482.079 295.328 489.453 293.186 496.621 293.694C495.358 292.692 493.971 291.841 492.46 291.265C487.146 289.233 480.775 290.276 476.408 293.914C469.13 279.556 451.54 271.251 435.831 274.765C420.122 278.279 407.749 293.282 407.296 309.384C402.463 309.439 396.86 321.916 396.86 321.916H397.217C400.911 317.084 407.31 314.449 413.324 315.314V315.327Z" fill="#407BFF"/>
</g>
<path d="M248.063 33.9733C245.756 26.7531 237.668 21.6468 230.308 23.4313C229.265 17.8858 225.214 12.9991 219.954 10.9538C214.695 8.90856 208.406 9.74588 203.875 13.1226C204.685 8.77129 201.856 4.32387 197.984 2.1688C194.111 0.0137229 189.47 -0.247082 185.062 0.164715C177.675 0.851045 169.875 3.74736 166.112 10.1439C162.515 16.2523 164.863 25.7511 171.427 27.865C166.964 28.1395 163.16 32.4085 162.886 36.952C162.583 41.8249 165.701 46.4782 169.902 48.9628C174.104 51.4473 179.185 52.0238 184.046 51.6394C183.469 60.4931 190.376 69.2095 199.137 70.6782C207.898 72.147 217.263 66.1347 219.597 57.5693C226.848 59.793 235.197 58.791 241.211 54.1926C247.226 49.5805 250.37 41.221 248.077 34.0008L248.063 33.9733Z" fill="#407BFF"/>
<g opacity="0.8">
<path d="M248.063 33.9733C245.756 26.7531 237.668 21.6468 230.308 23.4313C229.265 17.8858 225.214 12.9991 219.954 10.9538C214.695 8.90856 208.406 9.74588 203.875 13.1226C204.685 8.77129 201.856 4.32387 197.984 2.1688C194.111 0.0137229 189.47 -0.247082 185.062 0.164715C177.675 0.851045 169.875 3.74736 166.112 10.1439C162.515 16.2523 164.863 25.7511 171.427 27.865C166.964 28.1395 163.16 32.4085 162.886 36.952C162.583 41.8249 165.701 46.4782 169.902 48.9628C174.104 51.4473 179.185 52.0238 184.046 51.6394C183.469 60.4931 190.376 69.2095 199.137 70.6782C207.898 72.147 217.263 66.1347 219.597 57.5693C226.848 59.793 235.197 58.791 241.211 54.1926C247.226 49.5805 250.37 41.221 248.077 34.0008L248.063 33.9733Z" fill="white"/>
</g>
<path d="M260.12 112.942C261.273 120.959 267.837 131.199 272.176 137.156C271.476 126.189 269.54 107.699 265.722 102.126C260.161 93.9997 238.328 88.9209 238.328 88.9209L235.581 97.8706L260.12 112.929V112.942Z" fill="#407BFF"/>
<path opacity="0.3" d="M260.12 112.942C261.273 120.959 267.837 131.199 272.176 137.156C271.476 126.189 269.54 107.699 265.722 102.126C260.161 93.9997 238.328 88.9209 238.328 88.9209L235.581 97.8706L260.12 112.929V112.942Z" fill="white"/>
<path d="M235.581 97.8844L233.618 104.308C233.618 104.308 255.52 114.466 255.053 114.645C254.6 114.823 262.811 140.519 272.423 145.543C272.561 145.612 272.492 142.166 272.176 137.156C267.837 131.185 261.273 120.959 260.12 112.942L235.581 97.8844Z" fill="#263238"/>
<path d="M189.498 107.534C189.498 107.534 206.044 102.126 209.395 100.369C212.732 98.6256 234.057 87.1639 237.723 84.4598C241.39 81.7556 244.891 75.5512 254.915 79.8476L253.583 82.7027C253.089 83.7597 252.416 84.7206 251.579 85.5304L246.951 90.0327C246.951 90.0327 244.562 96.7176 238.52 102.126C232.478 107.534 214.201 105.008 211.304 106.738C210.507 107.218 205.728 117.555 202.227 117.239C198.725 116.923 189.978 108.646 189.498 107.534Z" fill="#407BFF"/>
<path opacity="0.3" d="M189.498 107.534C189.498 107.534 206.044 102.126 209.395 100.369C212.732 98.6256 234.057 87.1639 237.723 84.4598C241.39 81.7556 244.891 75.5512 254.915 79.8476L253.583 82.7027C253.089 83.7597 252.416 84.7206 251.579 85.5304L246.951 90.0327C246.951 90.0327 244.562 96.7176 238.52 102.126C232.478 107.534 214.201 105.008 211.304 106.738C210.507 107.218 205.728 117.555 202.227 117.239C198.725 116.923 189.978 108.646 189.498 107.534Z" fill="white"/>
<path d="M214.489 104.103C213.775 105.063 213.061 106.024 212.333 106.985C211.606 107.946 210.974 108.756 210.219 109.717C209.889 110.142 209.779 110.76 210.219 111.172C210.589 111.515 211.317 111.625 211.674 111.172C213.24 109.195 214.778 107.177 216.274 105.146C216.59 104.706 216.357 103.979 215.904 103.732C215.368 103.444 214.833 103.636 214.489 104.103Z" fill="#929292"/>
<path d="M204.973 112.009C204.973 112.009 207.253 115.88 208.543 115.578C209.834 115.276 212.498 108.426 212.498 108.426L204.973 112.009Z" fill="#929292"/>
<path d="M220.421 105.489C219.707 106.45 218.993 107.411 218.265 108.371C217.538 109.332 216.906 110.142 216.151 111.103C215.821 111.529 215.711 112.146 216.151 112.558C216.522 112.901 217.249 113.011 217.606 112.558C219.172 110.581 220.71 108.564 222.206 106.532C222.522 106.093 222.289 105.365 221.836 105.118C221.3 104.83 220.765 105.022 220.421 105.489Z" fill="#929292"/>
<path d="M210.905 113.395C210.905 113.395 213.185 117.28 214.476 116.964C215.766 116.649 218.43 109.813 218.43 109.813L210.905 113.395Z" fill="#929292"/>
<path d="M169.339 57.0615C169.037 56.6222 208.653 53.4788 218.43 58.5165C228.207 63.5541 236.844 87.0815 236.844 87.0815L220.435 94.4115C220.435 94.4115 206.154 71.5293 206.017 72.0646C205.879 72.6 176.246 67.0132 169.339 57.0477V57.0615Z" fill="#407BFF"/>
<path opacity="0.3" d="M169.339 57.0615C169.037 56.6222 208.653 53.4788 218.43 58.5165C228.207 63.5541 236.844 87.0815 236.844 87.0815L220.435 94.4115C220.435 94.4115 206.154 71.5293 206.017 72.0646C205.879 72.6 176.246 67.0132 169.339 57.0477V57.0615Z" fill="white"/>
<path d="M249.327 81.2477C249.327 81.8791 248.819 82.4007 248.173 82.4007C247.528 82.4007 247.02 81.8929 247.02 81.2477C247.02 80.6026 247.528 80.0947 248.173 80.0947C248.819 80.0947 249.327 80.6026 249.327 81.2477Z" fill="#263238"/>
<path d="M252.389 81.2752L253.24 79.3672C253.24 79.3672 255.849 77.6239 258.376 77.8984C258.376 77.8984 259.145 77.8435 259.145 78.722L252.389 81.2752Z" fill="#929292"/>
<path d="M258.829 81.7282L252.705 81.0144L253.68 80.2731C253.68 80.2731 258.087 79.9437 258.815 81.7144L258.829 81.7282Z" fill="#929292"/>
<path d="M227.301 91.3505L207.225 66.2308C198.162 66.0524 185.914 60.1911 178.691 56.183C173.088 56.5124 169.243 56.9242 169.339 57.0615C176.246 67.027 205.879 72.6 206.017 72.0784C206.154 71.543 220.435 94.4253 220.435 94.4253L227.301 91.3642V91.3505Z" fill="#263238"/>
<path d="M392.384 55.2358C392.384 55.2358 414.341 42.0171 419.174 39.2306C424.008 36.4578 462.937 23.9392 461.825 24.502C460.713 25.051 465.999 34.5087 452.652 42.2916C439.305 50.0746 411.786 60.9186 410.674 60.9186C409.562 60.9186 392.397 55.2358 392.397 55.2358H392.384Z" fill="#263238"/>
<path d="M355.583 60.4519C355.583 60.4519 372.994 60.5068 376.716 59.8891C380.437 59.2715 404.275 55.0848 408.601 53.6573C412.926 52.2434 418.199 47.4391 426.37 54.6593L424.214 56.9517C423.417 57.8027 422.47 58.5028 421.426 59.0106L415.618 61.8383C415.618 61.8383 411.251 67.4388 403.822 70.6783C396.379 73.9177 379.833 65.7916 376.537 66.5328C375.631 66.7387 367.859 75.057 364.632 73.6569C361.405 72.2568 355.692 61.6599 355.583 60.4519Z" fill="#407BFF"/>
<path opacity="0.3" d="M355.583 60.4519C355.583 60.4519 372.994 60.5068 376.716 59.8891C380.437 59.2715 404.275 55.0848 408.601 53.6573C412.926 52.2434 418.199 47.4391 426.37 54.6593L424.214 56.9517C423.417 57.8027 422.47 58.5028 421.426 59.0106L415.618 61.8383C415.618 61.8383 411.251 67.4388 403.822 70.6783C396.379 73.9177 379.833 65.7916 376.537 66.5328C375.631 66.7387 367.859 75.057 364.632 73.6569C361.405 72.2568 355.692 61.6599 355.583 60.4519Z" fill="white"/>
<path d="M380.533 64.9131C378.542 66.3269 376.523 67.6996 374.491 69.0448C374.038 69.3468 373.805 69.9645 374.12 70.4586C374.409 70.9116 375.054 71.1449 375.535 70.8292C377.567 69.484 379.586 68.1114 381.577 66.6975C382.016 66.3818 382.263 65.7778 381.947 65.2837C381.673 64.8444 381.014 64.5836 380.533 64.9131Z" fill="#929292"/>
<path d="M368.861 69.5664C368.861 69.5664 369.809 73.9589 371.141 74.0824C372.473 74.206 377.141 68.5369 377.141 68.5369L368.875 69.5801L368.861 69.5664Z" fill="#929292"/>
<path d="M385.737 68.0976C383.746 69.5115 381.728 70.8841 379.695 72.2293C379.242 72.5313 379.009 73.149 379.325 73.6432C379.613 74.0962 380.258 74.3295 380.739 74.0138C382.771 72.6686 384.79 71.2959 386.781 69.8821C387.22 69.5664 387.468 68.9624 387.152 68.4683C386.877 68.029 386.218 67.7682 385.737 68.0976Z" fill="#929292"/>
<path d="M374.065 72.7372C374.065 72.7372 375.013 77.1297 376.345 77.2533C377.663 77.3631 382.346 71.7077 382.346 71.7077L374.079 72.751L374.065 72.7372Z" fill="#929292"/>
<path d="M343.142 19.5191C342.894 19.0524 382.62 20.3152 391.766 26.4099C400.925 32.5045 406.898 56.8417 406.898 56.8417L389.775 62.3186C389.775 62.3186 378.116 37.9951 377.924 38.5167C377.732 39.0246 348.895 30.1984 343.142 19.5328V19.5191Z" fill="#407BFF"/>
<path opacity="0.3" d="M343.142 19.5191C342.894 19.0524 382.62 20.3152 391.766 26.4099C400.925 32.5045 406.898 56.8417 406.898 56.8417L389.775 62.3186C389.775 62.3186 378.116 37.9951 377.924 38.5167C377.732 39.0246 348.895 30.1984 343.142 19.5328V19.5191Z" fill="white"/>
<path d="M420.643 54.2612C420.451 54.8652 419.792 55.1946 419.188 54.9887C418.584 54.7966 418.254 54.1377 418.46 53.5337C418.652 52.9298 419.311 52.6003 419.916 52.8062C420.52 53.0121 420.849 53.6573 420.643 54.2612Z" fill="#263238"/>
<path d="M423.527 55.2358L424.928 53.6984C424.928 53.6984 427.949 52.8611 430.269 53.9181C430.269 53.9181 431.011 54.0965 430.736 54.9338L423.513 55.2358H423.527Z" fill="#929292"/>
<path d="M429.5 57.6929L423.912 55.0986L425.079 54.7142C425.079 54.7142 429.377 55.7849 429.514 57.6929H429.5Z" fill="#929292"/>
<path d="M396.929 60.0264L379.764 32.834C370.784 31.6535 359.263 24.4608 352.52 19.6839C346.904 19.3957 343.059 19.3682 343.142 19.5192C348.909 30.1848 377.732 39.0247 377.924 38.5031C378.116 37.9952 389.775 62.305 389.775 62.305L396.929 60.0127V60.0264Z" fill="#263238"/>
<path d="M511.314 128.893C509.144 129.922 473.813 152.681 473.813 152.681C473.813 152.681 473.304 141.933 478.166 134.768C483.027 127.602 492.103 123.896 492.556 123.251C493.01 122.606 492.556 116.278 492.556 116.278L504.654 116.594L511.314 128.879V128.893Z" fill="#263238"/>
<path d="M467.002 109.799C467.002 109.799 483.081 109.854 486.528 109.277C489.975 108.701 511.987 104.844 515.983 103.526C519.979 102.208 524.84 97.7883 532.392 104.459L530.401 106.573C529.659 107.356 528.794 108.001 527.819 108.468L522.464 111.076C522.464 111.076 518.441 116.251 511.561 119.243C504.695 122.235 489.398 114.727 486.35 115.413C485.512 115.605 478.33 123.292 475.35 122.002C472.371 120.712 467.098 110.925 467.002 109.799Z" fill="#407BFF"/>
<path opacity="0.3" d="M467.002 109.799C467.002 109.799 483.081 109.854 486.528 109.277C489.975 108.701 511.987 104.844 515.983 103.526C519.979 102.208 524.84 97.7883 532.392 104.459L530.401 106.573C529.659 107.356 528.794 108.001 527.819 108.468L522.464 111.076C522.464 111.076 518.441 116.251 511.561 119.243C504.695 122.235 489.398 114.727 486.35 115.413C485.512 115.605 478.33 123.292 475.35 122.002C472.371 120.712 467.098 110.925 467.002 109.799Z" fill="white"/>
<path d="M490.016 113.848C488.176 115.152 486.322 116.429 484.441 117.664C483.988 117.966 483.754 118.584 484.07 119.078C484.358 119.531 485.004 119.765 485.484 119.449C487.366 118.213 489.22 116.937 491.06 115.633C491.499 115.317 491.746 114.713 491.43 114.219C491.156 113.78 490.497 113.519 490.016 113.848Z" fill="#929292"/>
<path d="M479.278 118.213C479.278 118.213 480.157 122.277 481.379 122.386C482.601 122.496 486.913 117.253 486.913 117.253L479.278 118.213Z" fill="#929292"/>
<path d="M494.822 116.8C492.982 118.104 491.128 119.38 489.247 120.616C488.794 120.918 488.56 121.535 488.876 122.029C489.165 122.482 489.81 122.716 490.291 122.4C492.172 121.165 494.026 119.888 495.866 118.584C496.305 118.268 496.552 117.664 496.236 117.17C495.962 116.731 495.303 116.47 494.822 116.8Z" fill="#929292"/>
<path d="M484.084 121.151C484.084 121.151 484.963 125.214 486.185 125.324C487.407 125.434 491.719 120.19 491.719 120.19L484.084 121.151Z" fill="#929292"/>
<path d="M527.105 104.075C526.927 104.624 526.323 104.926 525.773 104.748C525.224 104.569 524.922 103.965 525.1 103.416C525.279 102.867 525.883 102.565 526.432 102.744C526.982 102.922 527.284 103.526 527.105 104.075Z" fill="#263238"/>
<path d="M529.769 104.981L531.06 103.553C531.06 103.553 533.861 102.771 535.99 103.759C535.99 103.759 536.676 103.924 536.429 104.706L529.769 104.981Z" fill="#929292"/>
<path d="M535.289 107.26L530.126 104.871L531.197 104.514C531.197 104.514 535.166 105.503 535.289 107.273V107.26Z" fill="#929292"/>
<path d="M501.303 112.27C501.029 112.572 503.995 131.075 503.995 131.075C503.995 131.075 483.644 151.034 486.597 161.905C486.597 161.905 518.592 145.021 521.915 138.625C525.238 132.228 516.93 109.717 516.93 109.717C516.93 109.717 504.64 108.564 501.317 112.27H501.303Z" fill="#407BFF"/>
<path opacity="0.3" d="M501.303 112.27C501.029 112.572 503.995 131.075 503.995 131.075C503.995 131.075 483.644 151.034 486.597 161.905C486.597 161.905 518.592 145.021 521.915 138.625C525.238 132.228 516.93 109.717 516.93 109.717C516.93 109.717 504.64 108.564 501.317 112.27H501.303Z" fill="white"/>
<path d="M505.148 147.835C500.507 145.845 495.605 145.543 491.842 145.763C488.162 151.322 485.375 157.403 486.597 161.905C486.597 161.905 498.173 155.797 508.128 149.524C507.359 148.934 506.384 148.357 505.148 147.822V147.835Z" fill="#263238"/>
<path d="M131.399 243.414C133.211 244.265 162.556 263.18 162.556 263.18C162.556 263.18 162.982 254.258 158.944 248.3C154.907 242.343 147.369 239.268 146.984 238.733C146.6 238.198 146.984 232.94 146.984 232.94L136.933 233.201L131.399 243.4V243.414Z" fill="#263238"/>
<path d="M144.142 234.986C145.666 236.07 147.218 237.127 148.783 238.156C149.236 238.458 149.936 238.266 150.197 237.786C150.472 237.264 150.307 236.701 149.827 236.372C148.261 235.342 146.723 234.286 145.185 233.201C144.746 232.885 144.018 233.105 143.771 233.572C143.496 234.107 143.675 234.642 144.142 234.986Z" fill="#929292"/>
<path d="M154.029 236.99C154.029 236.99 153.301 240.366 152.285 240.449C151.268 240.531 147.685 236.194 147.685 236.194L154.029 236.99Z" fill="#929292"/>
<path d="M168.213 227.56C168.213 227.56 154.852 227.601 151.996 227.134C149.14 226.667 130.836 223.442 127.526 222.357C124.203 221.273 120.166 217.594 113.891 223.126L115.539 224.883C116.156 225.542 116.871 226.063 117.681 226.461L122.13 228.63C122.13 228.63 125.48 232.927 131.193 235.411C136.905 237.896 149.607 231.664 152.134 232.227C152.834 232.378 158.793 238.774 161.279 237.69C163.751 236.619 168.145 228.479 168.227 227.56H168.213Z" fill="#407BFF"/>
<path opacity="0.3" d="M168.213 227.56C168.213 227.56 154.852 227.601 151.996 227.134C149.14 226.667 130.836 223.442 127.526 222.357C124.203 221.273 120.166 217.594 113.891 223.126L115.539 224.883C116.156 225.542 116.871 226.063 117.681 226.461L122.13 228.63C122.13 228.63 125.48 232.927 131.193 235.411C136.905 237.896 149.607 231.664 152.134 232.227C152.834 232.378 158.793 238.774 161.279 237.69C163.751 236.619 168.145 228.479 168.227 227.56H168.213Z" fill="white"/>
<path d="M148.138 232.556C149.662 233.64 151.214 234.697 152.779 235.727C153.232 236.029 153.932 235.837 154.193 235.356C154.468 234.835 154.303 234.272 153.823 233.942C152.257 232.913 150.719 231.856 149.181 230.772C148.742 230.456 148.014 230.675 147.767 231.142C147.492 231.678 147.671 232.213 148.138 232.556Z" fill="#929292"/>
<path d="M158.011 234.546C158.011 234.546 157.283 237.923 156.267 238.005C155.251 238.088 151.667 233.75 151.667 233.75L158.011 234.546Z" fill="#929292"/>
<path d="M118.271 222.796C118.422 223.263 118.917 223.51 119.383 223.359C119.85 223.208 120.097 222.714 119.946 222.247C119.795 221.781 119.301 221.534 118.834 221.685C118.367 221.836 118.12 222.33 118.271 222.796Z" fill="#263238"/>
<path d="M116.06 223.551L114.989 222.371C114.989 222.371 112.669 221.726 110.884 222.536C110.884 222.536 110.307 222.673 110.526 223.318L116.06 223.551Z" fill="#929292"/>
<path d="M111.474 225.432L115.758 223.442L114.866 223.14C114.866 223.14 111.57 223.963 111.46 225.432H111.474Z" fill="#929292"/>
<path d="M139.706 229.605C139.926 229.852 137.468 245.226 137.468 245.226C137.468 245.226 154.372 261.807 151.928 270.839C151.928 270.839 125.343 256.811 122.583 251.499C119.823 246.187 126.73 227.477 126.73 227.477C126.73 227.477 136.933 226.516 139.706 229.605Z" fill="#407BFF"/>
<path opacity="0.3" d="M139.706 229.605C139.926 229.852 137.468 245.226 137.468 245.226C137.468 245.226 154.372 261.807 151.928 270.839C151.928 270.839 125.343 256.811 122.583 251.499C119.823 246.187 126.73 227.477 126.73 227.477C126.73 227.477 136.933 226.516 139.706 229.605Z" fill="white"/>
<path d="M136.521 259.144C140.379 257.497 144.444 257.236 147.575 257.429C150.637 262.054 152.944 267.092 151.941 270.839C151.941 270.839 142.315 265.761 134.049 260.558C134.694 260.064 135.504 259.584 136.521 259.144Z" fill="#263238"/>
<path d="M555.502 281.889C555.64 284.937 557.713 289.027 559.114 291.416C559.265 287.27 559.224 280.27 558.002 278.046C556.217 274.793 548.225 272.075 548.225 272.075L546.865 275.328L555.502 281.889Z" fill="#407BFF"/>
<path opacity="0.3" d="M555.502 281.889C555.64 284.937 557.713 289.027 559.114 291.416C559.265 287.27 559.224 280.27 558.002 278.046C556.217 274.793 548.225 272.075 548.225 272.075L546.865 275.328L555.502 281.889Z" fill="white"/>
<path d="M546.865 275.314L545.89 277.648C545.89 277.648 553.717 282.274 553.539 282.329C553.36 282.384 555.475 292.322 558.894 294.573C558.935 294.6 559.045 293.31 559.114 291.416C557.713 289.014 555.626 284.937 555.502 281.889L546.865 275.328V275.314Z" fill="#263238"/>
<path d="M529.22 277.209C529.22 277.209 535.633 275.795 536.951 275.273C538.269 274.738 546.7 271.251 548.17 270.373C549.639 269.494 551.191 267.298 554.788 269.288L554.184 270.304C553.964 270.688 553.676 271.018 553.333 271.292L551.424 272.802C551.424 272.802 550.284 275.218 547.813 277.016C545.341 278.815 538.585 277.181 537.432 277.73C537.116 277.881 534.932 281.574 533.642 281.327C532.337 281.08 529.371 277.648 529.234 277.209H529.22Z" fill="#407BFF"/>
<path opacity="0.3" d="M529.22 277.209C529.22 277.209 535.633 275.795 536.951 275.273C538.269 274.738 546.7 271.251 548.17 270.373C549.639 269.494 551.191 267.298 554.788 269.288L554.184 270.304C553.964 270.688 553.676 271.018 553.333 271.292L551.424 272.802C551.424 272.802 550.284 275.218 547.813 277.016C545.341 278.815 538.585 277.181 537.432 277.73C537.116 277.881 534.932 281.574 533.642 281.327C532.337 281.08 529.371 277.648 529.234 277.209H529.22Z" fill="white"/>
<path d="M538.31 276.358C537.692 277.044 537.061 277.717 536.429 278.375C536.237 278.568 536.127 278.828 536.127 279.103C536.127 279.35 536.237 279.652 536.429 279.83C536.621 280.009 536.882 280.146 537.157 280.132C537.432 280.119 537.692 280.036 537.885 279.83C538.516 279.172 539.148 278.499 539.766 277.813C539.944 277.607 540.068 277.36 540.068 277.085C540.068 276.838 539.958 276.536 539.766 276.358C539.574 276.179 539.313 276.042 539.038 276.056C538.764 276.069 538.489 276.152 538.31 276.358Z" fill="#929292"/>
<path d="M534.85 279.474C534.85 279.474 535.564 281.011 536.058 280.942C536.553 280.874 537.802 278.403 537.802 278.403L534.85 279.46V279.474Z" fill="#929292"/>
<path d="M540.48 277.113C539.862 277.799 539.23 278.471 538.599 279.13C538.407 279.323 538.297 279.583 538.297 279.858C538.297 280.105 538.407 280.407 538.599 280.585C538.791 280.764 539.052 280.901 539.327 280.887C539.601 280.874 539.862 280.791 540.054 280.585C540.686 279.927 541.318 279.254 541.936 278.568C542.114 278.362 542.238 278.115 542.238 277.84C542.238 277.593 542.128 277.291 541.936 277.113C541.743 276.934 541.482 276.797 541.208 276.811C540.933 276.824 540.659 276.907 540.48 277.113Z" fill="#929292"/>
<path d="M537.033 280.215C537.033 280.215 537.747 281.752 538.242 281.684C538.736 281.615 539.986 279.144 539.986 279.144L537.033 280.201V280.215Z" fill="#929292"/>
<path d="M523.562 257.538C523.466 257.36 538.434 257.662 541.908 259.927C545.382 262.192 547.744 271.32 547.744 271.32L541.317 273.461C541.317 273.461 536.814 264.347 536.745 264.539C536.676 264.731 525.773 261.533 523.562 257.538Z" fill="#407BFF"/>
<path opacity="0.3" d="M523.562 257.538C523.466 257.36 538.434 257.662 541.908 259.927C545.382 262.192 547.744 271.32 547.744 271.32L541.317 273.461C541.317 273.461 536.814 264.347 536.745 264.539C536.676 264.731 525.773 261.533 523.562 257.538Z" fill="white"/>
<path d="M552.646 269.604C552.619 269.837 552.413 270.016 552.179 269.988C551.946 269.961 551.767 269.755 551.795 269.522C551.822 269.288 552.028 269.11 552.262 269.137C552.495 269.165 552.674 269.371 552.646 269.604Z" fill="#263238"/>
<path d="M553.786 269.728L554.171 269.041C554.171 269.041 555.214 268.478 556.148 268.684C556.148 268.684 556.436 268.684 556.409 269.014L553.772 269.714L553.786 269.728Z" fill="#929292"/>
<path d="M556.189 270.139L553.923 269.645L554.322 269.412C554.322 269.412 555.983 269.453 556.189 270.139Z" fill="#929292"/>
<path d="M543.995 272.569L537.404 262.397C534.012 261.986 529.646 259.336 527.078 257.566C524.963 257.483 523.508 257.483 523.535 257.538C525.746 261.533 536.649 264.731 536.718 264.539C536.786 264.347 541.29 273.461 541.29 273.461L543.982 272.569H543.995Z" fill="#263238"/>
<path d="M325.757 182.715C325.538 183.758 324.837 184.499 324.137 184.376C323.437 184.252 323.093 183.291 323.286 182.234C323.492 181.177 324.219 180.464 324.906 180.601C325.593 180.711 325.977 181.672 325.757 182.715Z" fill="#263238"/>
<path d="M326.183 184.389C324.302 187.327 322.022 190.004 319.4 192.31C320.635 193.641 322.379 194.355 324.192 194.259L326.183 184.389Z" fill="#882828"/>
<path d="M330.055 178.72C330.399 178.72 330.687 178.418 330.687 178.075C330.673 177.924 330.618 177.787 330.522 177.663C329.19 176.167 327.227 175.398 325.235 175.604C325.167 175.604 325.084 175.604 325.016 175.604C324.659 175.659 324.425 176.002 324.494 176.346C324.549 176.702 324.892 176.936 325.235 176.867H325.441C327.048 176.757 328.613 177.444 329.63 178.707C329.767 178.761 329.932 178.761 330.069 178.707L330.055 178.72Z" fill="#263238"/>
<path d="M355.459 201.616C353.619 211.266 352.383 224.65 359.139 231.087C359.139 231.087 356.489 240.888 338.542 240.888C318.782 240.888 329.053 232.309 329.053 232.309C337.251 229.742 337.141 220.408 335.301 212.886L355.459 201.616Z" fill="#F4F4F4"/>
<path d="M361.68 187.478C358.356 200.093 356.942 207.711 349.142 212.996C337.388 220.902 322.654 211.815 322.269 198.404C321.858 186.325 327.46 167.643 341.068 165.076C350.777 163.223 360.155 169.578 362.023 179.283C362.545 182.001 362.421 184.815 361.68 187.478Z" fill="#F4F4F4"/>
<path d="M331.099 177.169C329.273 174.465 330.316 170.828 331.319 167.725C331.319 167.725 327.199 167.561 328.929 164.774C333.68 164.088 347.522 149.551 354.045 163.841C354.045 163.841 362.503 164.403 365.291 165.735C377.073 171.377 376.386 187.629 365.291 189.304C365.222 189.304 361.377 187.245 361.295 187.258C351.024 188.645 337.361 185.433 331.099 177.183V177.169Z" fill="#263238"/>
<path d="M367.447 178.569C363.506 183.881 332.088 176.689 332.088 176.689L332.664 197.567L340.313 208.383C345.929 210.813 350.831 211.156 354.608 208.219L367.502 187.533C367.502 187.533 371.388 173.257 367.447 178.556V178.569Z" fill="#263238"/>
<path d="M338.39 187.807C337.608 190.964 335.809 193.778 333.269 195.824C329.918 198.459 327.282 196.03 327.405 192.145C327.529 188.603 329.52 183.03 333.214 181.877C336.894 180.738 339.283 183.978 338.39 187.807Z" fill="#F4F4F4"/>
<path d="M353.66 164.774L353.578 164.527C354.498 162.509 353.358 160.011 351.518 158.748C349.678 157.499 347.357 157.224 345.133 157.17C342.908 157.115 340.642 157.224 338.514 156.593C335.85 155.811 333.214 153.903 330.577 154.754C332.019 155.866 333.214 157.307 334.024 158.927C329.218 158.048 324.178 158.405 319.537 159.984C320.182 161.837 322.475 162.495 324.439 162.633C326.403 162.77 328.6 162.756 330.014 164.115C325.744 165.213 321.473 166.325 317.202 167.423C320.841 169.112 324.961 169.743 328.929 169.221C325.991 170.608 322.832 171.569 319.619 172.049C322.86 174.712 328.023 172.612 331.731 174.561C333.955 175.728 335.246 178.144 337.21 179.722C339.434 181.507 342.483 182.125 345.298 181.63C348.113 181.136 350.68 179.599 352.685 177.567C354.388 175.838 355.761 173.683 356.091 171.267C356.434 168.865 355.61 166.215 353.66 164.774Z" fill="#263238"/>
<path d="M355.514 158.364C354.553 156.648 352.658 155.687 350.79 155.083C348.923 154.465 346.945 154.067 345.284 153.01C344.913 153.999 345.462 155.138 346.286 155.797C347.11 156.456 348.154 156.758 349.17 157.073C350.172 157.389 351.216 157.774 351.93 158.542C353.07 159.75 353.125 161.699 352.466 163.223C351.806 164.747 350.557 165.927 349.252 166.97L349.499 167.396C350.955 167.766 352.479 167.012 353.592 166.009C354.649 165.062 355.5 163.854 355.885 162.495C356.269 161.137 356.173 159.613 355.486 158.364H355.514Z" fill="#263238"/>
<path d="M353.18 171.994L353.042 170.937C353.042 171.294 353.07 171.637 353.18 171.994Z" fill="#263238"/>
<path d="M364.412 153.807C363.932 156.703 361.336 158.734 358.851 160.313C356.365 161.891 353.619 163.47 352.424 166.16L353.042 170.937C353.042 169.084 354.347 167.286 355.898 166.119C357.738 164.747 360.663 162.66 362.352 161.109C364.659 158.995 366.019 154.548 364.412 153.807Z" fill="#263238"/>
<path d="M362.311 183.813C358.507 184.815 355.033 186.846 352.273 189.647C351.806 190.127 352.534 190.855 353.001 190.374C355.638 187.684 358.947 185.762 362.586 184.801C363.231 184.636 362.957 183.634 362.311 183.813Z" fill="black"/>
<path d="M354.429 184.719C352.85 185.776 351.271 186.833 349.678 187.876C349.444 188.027 349.348 188.329 349.499 188.576C349.637 188.809 349.966 188.919 350.2 188.754C351.779 187.697 353.358 186.641 354.951 185.597C355.184 185.446 355.28 185.144 355.129 184.897C354.992 184.664 354.663 184.554 354.429 184.719Z" fill="black"/>
<path d="M338.088 176.373C335.15 173.875 331.223 172.818 327.433 173.504C326.787 173.628 327.062 174.616 327.707 174.493C331.113 173.889 334.724 174.863 337.361 177.101C337.869 177.526 338.596 176.799 338.088 176.373Z" fill="black"/>
<path d="M328.188 170.306C330.563 168.631 333.557 168 336.399 168.618C337.045 168.755 337.319 167.766 336.674 167.629C333.571 166.957 330.261 167.602 327.666 169.427C327.13 169.812 327.639 170.704 328.188 170.32V170.306Z" fill="black"/>
<path d="M341.933 162.907C338.363 163.017 334.82 162.495 331.429 161.37C330.797 161.164 330.522 162.152 331.154 162.358C334.628 163.511 338.281 164.047 341.933 163.937C342.592 163.923 342.592 162.894 341.933 162.907Z" fill="black"/>
<g opacity="0.3">
<path d="M333.79 185.46C334.463 185.35 334.834 186.174 334.861 186.709C334.903 187.464 334.601 188.274 334.298 188.96C333.708 190.306 332.815 191.472 331.703 192.406C331.195 192.831 331.923 193.559 332.431 193.133C333.873 191.925 334.971 190.319 335.562 188.535C335.878 187.601 336.084 186.544 335.63 185.625C335.232 184.815 334.395 184.334 333.502 184.485C333.227 184.527 333.076 184.87 333.145 185.117C333.227 185.405 333.502 185.515 333.777 185.474L333.79 185.46Z" fill="black"/>
</g>
<path d="M385.71 339.363L291.332 344.867C292.252 347.956 295.259 349.905 298.143 351.332C309.581 356.96 322.613 358.717 335.356 358.278C348.099 357.825 360.65 355.272 373.132 352.623C376.62 351.881 380.258 351.071 383.032 348.834C385.82 346.597 387.44 342.492 385.71 339.363Z" fill="black"/>
<path d="M299.145 239.323C297.429 233.887 293.735 229.069 288.86 225.94L286.334 226.105C286.196 226.159 284.37 226.873 283.464 228.685C282.557 230.497 282.736 232.638 283.285 234.574C283.848 236.509 284.768 238.321 285.331 240.257C285.908 242.192 286.1 244.333 285.235 246.159C284.631 247.422 283.56 248.451 283.148 249.783C282.722 251.197 283.12 252.734 283.889 253.997C284.658 255.26 285.757 256.289 286.855 257.305C288.888 259.199 291.469 261.231 294.174 260.517C296.248 259.968 297.539 257.964 298.363 256.028C300.587 250.771 300.875 244.759 299.159 239.323H299.145Z" fill="black"/>
<path d="M207.39 215.123C207.39 215.123 246.649 223.414 264.02 224.759C281.39 226.091 311.696 230.03 311.696 230.03L307.618 250.991C307.618 250.991 226.862 236.935 207.349 226.365" fill="#F4F4F4"/>
<path opacity="0.3" d="M280.044 226.255C280.044 226.255 290.714 242.7 289.107 247.545L294.93 248.657C294.93 248.657 297.237 236.399 287.446 227.052L280.031 226.255H280.044Z" fill="black"/>
<path d="M208.434 216.702C208.434 216.702 204.039 209.029 202.35 207.189C200.661 205.35 197.242 199.283 196.322 200.051C195.402 200.82 195.842 203.195 197.229 205.35C198.615 207.491 199.535 209.948 198.3 209.948C197.064 209.948 180.215 205.954 177.908 207.176C175.601 208.397 180.036 209.18 182.192 209.784C184.334 210.401 190.637 211.623 189.717 212.241C188.797 212.858 176.054 211.17 175.903 212.543C175.752 213.929 178.663 214.684 182.508 214.849C186.339 215 190.802 216.386 189.566 216.688C188.33 216.99 177.29 216.537 177.592 217.91C177.894 219.282 187.699 219.488 189.566 219.447C190.527 219.433 189.923 220.985 189.923 220.985C189.923 220.985 180.97 220.985 181.272 222.357C181.574 223.744 189.704 222.975 192.162 223.579C194.62 224.197 201.678 226.338 208.434 226.338L210.576 217.443L208.434 216.674V216.702Z" fill="#F4F4F4"/>
<path d="M470.256 215.576C470.256 215.576 430.997 223.867 413.627 225.212C396.256 226.544 365.95 230.483 365.95 230.483L370.042 251.444C370.042 251.444 450.798 237.388 470.311 226.818" fill="#F4F4F4"/>
<path opacity="0.3" d="M409.205 225.583L405.978 244.526L400.98 245.486L402.971 225.981L409.205 225.583Z" fill="black"/>
<path d="M469.212 217.169C469.212 217.169 473.607 209.495 475.296 207.656C476.985 205.817 480.404 199.749 481.324 200.518C482.244 201.287 481.804 203.662 480.417 205.817C479.031 207.958 478.111 210.415 479.346 210.415C480.582 210.415 497.431 206.421 499.738 207.642C502.045 208.864 497.61 209.646 495.454 210.25C493.312 210.868 487.009 212.09 487.929 212.707C488.849 213.325 501.592 211.637 501.743 213.009C501.894 214.396 498.983 215.151 495.138 215.315C491.307 215.466 486.844 216.853 488.08 217.155C489.316 217.457 500.356 217.004 500.054 218.376C499.752 219.763 489.947 219.955 488.08 219.914C487.119 219.9 487.723 221.451 487.723 221.451C487.723 221.451 496.676 221.451 496.374 222.824C496.072 224.21 487.942 223.442 485.484 224.046C483.027 224.663 475.968 226.805 469.212 226.805L467.07 217.91L469.212 217.141V217.169Z" fill="#F4F4F4"/>
<path d="M334.175 568.94L339.256 608.404H351.216L354.292 569.668L334.175 568.94Z" fill="#F4F4F4"/>
<path d="M419.71 569.352L435.529 607.484L447.228 605.521L440.142 563.065L419.71 569.352Z" fill="#F4F4F4"/>
<path d="M429.816 599.399H435.158C436.366 599.399 437.492 600.017 438.206 600.992C441.282 605.206 443.603 603.613 446.953 599.646C449.082 599.399 449.659 601.843 449.837 602.502L453.833 617.024C454.176 618.232 453.476 619.509 452.268 619.852C452.048 619.907 451.828 619.948 451.608 619.934H409.26C402.531 619.934 401.131 613.153 403.904 612.522C416.387 609.763 425.216 606.098 429.075 602.474C429.789 601.843 429.061 601.362 429.83 599.399H429.816Z" fill="#263238"/>
<path d="M422.525 604.259C424.214 604.217 425.889 603.998 427.537 603.613C427.688 603.558 427.77 603.394 427.715 603.229C427.688 603.147 427.619 603.078 427.537 603.051C426.781 602.68 420.108 599.564 418.433 600.745C418.117 600.95 417.952 601.321 417.993 601.692C417.993 602.378 418.336 603.037 418.899 603.435C419.984 604.094 421.261 604.368 422.525 604.259ZM426.479 603.215C424.502 603.586 420.849 604.066 419.325 602.941C418.927 602.625 418.694 602.172 418.666 601.664C418.639 601.513 418.707 601.348 418.845 601.266C419.765 600.621 423.719 601.994 426.493 603.215H426.479Z" fill="#407BFF"/>
<path d="M427.454 603.627C427.454 603.627 427.592 603.641 427.66 603.627C427.743 603.545 427.784 603.421 427.743 603.311C427.743 603.037 426.177 596.462 422.511 596.874C421.605 596.997 421.344 597.436 421.303 597.793C421.069 599.537 425.285 602.831 427.29 603.668L427.441 603.613L427.454 603.627ZM422.882 597.395C425.202 597.395 426.548 601.239 427.001 602.762C424.818 601.609 421.769 598.878 421.962 597.807C421.962 597.725 421.962 597.478 422.648 597.409H422.895L422.882 597.395Z" fill="#407BFF"/>
<path d="M334.244 600.044H339.585C340.794 600.044 341.92 600.662 342.634 601.637C345.709 605.851 348.03 604.258 351.381 600.292C353.509 600.044 354.086 602.488 354.264 603.147L358.26 617.669C358.604 618.877 357.903 620.154 356.695 620.497C356.475 620.552 356.255 620.593 356.036 620.579H313.687C306.945 620.579 305.558 613.798 308.332 613.167C320.814 610.408 329.643 606.743 333.502 603.119C334.216 602.488 333.488 602.007 334.257 600.044H334.244Z" fill="#263238"/>
<path d="M326.966 604.917C328.655 604.876 330.33 604.657 331.978 604.272C332.129 604.217 332.211 604.053 332.156 603.888C332.129 603.806 332.06 603.737 331.978 603.709C331.223 603.339 324.549 600.223 322.874 601.403C322.558 601.609 322.393 601.98 322.434 602.351C322.434 603.037 322.778 603.696 323.341 604.094C324.425 604.753 325.702 605.027 326.966 604.917ZM330.92 603.874C328.943 604.245 325.29 604.725 323.766 603.6C323.368 603.284 323.135 602.831 323.107 602.323C323.08 602.172 323.148 602.007 323.286 601.925C324.206 601.28 328.16 602.652 330.934 603.874H330.92Z" fill="#407BFF"/>
<path d="M331.895 604.286C331.895 604.286 332.033 604.3 332.101 604.286C332.184 604.204 332.225 604.08 332.184 603.97C332.184 603.696 330.618 597.121 326.952 597.532C326.046 597.656 325.785 598.095 325.744 598.452C325.51 600.195 329.726 603.49 331.731 604.327L331.882 604.272L331.895 604.286ZM327.323 598.054C329.643 598.054 330.989 601.898 331.442 603.421C329.259 602.268 326.21 599.537 326.403 598.466C326.403 598.384 326.403 598.136 327.089 598.068H327.336L327.323 598.054Z" fill="#407BFF"/>
<path d="M334.202 338.965C346.025 362.121 355.94 386.198 363.849 410.961C376.386 451.907 424.09 587.732 424.09 587.732L447.228 582.667C447.228 582.667 414.547 465.991 400.98 408.874C390.571 365.059 384.309 335.231 384.309 335.231L334.202 338.951V338.965Z" fill="#407BFF"/>
<path d="M309.32 339.006C308.346 363 309.183 387.049 311.806 410.919C316.324 452.47 333.406 588.706 333.406 588.706H355.72C355.72 588.706 356.599 455.147 355.72 414.296C354.731 369.753 355.555 339.006 355.555 339.006H309.334H309.32Z" fill="#407BFF"/>
<path opacity="0.3" d="M308.922 361.078C308.922 361.078 309.677 365.882 332.513 358.333C355.335 350.783 366.307 348.161 375.645 346.487C384.982 344.812 387.248 347.448 387.248 347.448L385.93 341.463L308.922 345.526V361.078Z" fill="black"/>
<path opacity="0.2" d="M355.294 386.472C355.294 385.402 355.294 380.968 355.294 380.968L366.664 373.583L361.062 383.219C361.062 383.219 372.102 436.3 371.937 436.08C370.715 434.447 355.885 385.855 355.281 386.472H355.294Z" fill="black"/>
<path d="M286.265 226.118C286.265 226.118 300.875 243.029 290.838 260.174L310.007 263.29C310.803 265.98 297.58 327.132 289.712 344.304C288.201 347.612 318.342 354.682 341.37 348.669C374.532 340.035 387.248 343.069 387.248 343.069C387.248 343.069 380.739 264.676 380.739 260.668C380.739 255.177 379.613 226.283 379.613 226.283L356.489 227.656C356.489 227.656 349.39 229.248 343.993 228.369C338.596 227.491 334.614 225.803 334.614 225.803C334.614 225.803 322.585 224.787 319.125 225.048C317.202 225.199 307.398 227.409 300.422 226.626C299.255 226.489 294.957 226.228 293.9 226.105C289.918 225.652 286.251 226.105 286.251 226.105L286.265 226.118Z" fill="#263238"/>
<path d="M403.726 224.924C403.41 223.167 377.787 224.869 372.473 226.461C367.158 228.054 365.936 231.266 365.936 231.266C365.936 231.266 380.327 263.221 380.437 261.423C380.547 259.625 386.973 254.258 400.458 252.46C400.458 252.46 404.138 227.148 403.726 224.91V224.924Z" fill="#263238"/>
<g opacity="0.3">
<path d="M318.658 330.811C321.816 318.663 324.316 306.364 326.142 293.941C326.334 292.651 324.343 292.088 324.151 293.392C322.324 305.815 319.825 318.114 316.667 330.262C316.337 331.538 318.315 332.088 318.658 330.811Z" fill="black"/>
</g>
<g opacity="0.3">
<path d="M292.266 343.563C303.278 330.234 311.751 314.984 317.23 298.581C317.656 297.318 315.665 296.783 315.239 298.032C309.883 314.078 301.576 329.054 290.796 342.108C289.959 343.124 291.414 344.592 292.252 343.563H292.266Z" fill="black"/>
</g>
<g opacity="0.3">
<path d="M382.153 261.56C382.112 252.597 382.085 243.633 382.044 234.67C382.044 233.352 379.984 233.338 379.984 234.67C380.025 243.633 380.052 252.597 380.094 261.56C380.094 262.878 382.153 262.892 382.153 261.56Z" fill="black"/>
</g>
<g opacity="0.3">
<path d="M313.509 227.848C318.068 231.801 320.773 237.621 320.594 243.688C320.416 249.755 317.491 255.081 312.946 258.76C311.916 259.597 313.385 261.039 314.401 260.215C319.358 256.193 322.462 250.085 322.654 243.688C322.846 237.292 319.894 230.689 314.964 226.393C313.962 225.528 312.506 226.983 313.509 227.848Z" fill="black"/>
</g>
</g>
<defs>
<clipPath id="clip0_1367_3111">
<rect width="654" height="632" fill="white"/>
</clipPath>
</defs>
</svg>
