<svg width="594" height="599" viewBox="0 0 594 599" fill="none" xmlns="http://www.w3.org/2000/svg">
<path d="M491.291 332.938L158.258 -0.000976562L113.182 45.063L446.214 378.002L491.291 332.938Z" fill="#E0E0E0"/>
<path d="M148 369.741L498.994 55.7837L456.487 8.28922L105.494 322.246L148 369.741Z" fill="#E0E0E0"/>
<path d="M66.4227 298.205L7.479 243.024L0.00953315 250.998L58.9533 306.18L66.4227 298.205Z" fill="#E0E0E0"/>
<path d="M7.80262 306.412L66.1943 250.646L58.6459 242.747L0.254172 298.512L7.80262 306.412Z" fill="#E0E0E0"/>
<path d="M565.21 456.318L504.475 395.6L496.258 403.815L556.993 464.533L565.21 456.318Z" fill="#E6E6E6"/>
<path d="M502.598 463.046L566.609 405.789L558.86 397.131L494.85 454.388L502.598 463.046Z" fill="#E6E6E6"/>
<path d="M542.479 289.969L512.111 259.61L507.998 263.722L538.365 294.081L542.479 289.969Z" fill="#F0F0F0"/>
<path d="M511.188 293.341L543.193 264.713L539.314 260.378L507.308 289.007L511.188 293.341Z" fill="#F0F0F0"/>
<path d="M84.1425 96.5041L47.73 73.7397L44.6454 78.6709L81.0579 101.435L84.1425 96.5041Z" fill="#E6E6E6"/>
<path d="M54.3846 106.821L79.1401 71.7378L74.3863 68.3853L49.6308 103.469L54.3846 106.821Z" fill="#E6E6E6"/>
<path d="M591.7 143.216L548.239 96.6721L541.939 102.551L585.4 149.096L591.7 143.216Z" fill="#E6E6E6"/>
<path d="M545.085 146.585L593.989 105.794L588.468 99.1785L539.564 139.97L545.085 146.585Z" fill="#E6E6E6"/>
<path d="M358.112 43.6828L318.231 3.81299L312.831 9.21128L352.712 49.0811L358.112 43.6828Z" fill="#F0F0F0"/>
<path d="M317.016 48.0857L359.048 10.489L353.956 4.79957L311.924 42.3963L317.016 48.0857Z" fill="#F0F0F0"/>
<path d="M88.9501 438.458L45.6699 395.19L39.8108 401.048L83.0909 444.316L88.9501 438.458Z" fill="#F0F0F0"/>
<path d="M44.3373 443.257L89.9517 402.456L84.4265 396.282L38.8122 437.084L44.3373 443.257Z" fill="#F0F0F0"/>
<path d="M184.921 195.722L199.935 188.968L212.349 205.622L192.601 210.875L184.921 195.722Z" fill="#407BFF"/>
<path opacity="0.7" d="M184.893 195.837L199.877 188.997L212.393 205.593L192.673 210.962L184.893 195.837Z" fill="white"/>
<path d="M80.8113 150.536C64.1958 181.709 76.0042 220.458 107.2 237.069C138.381 253.679 177.141 241.874 193.756 210.688C210.372 179.515 198.563 140.766 167.368 124.155C136.187 107.545 97.4268 119.364 80.8113 150.536Z" fill="#407BFF"/>
<path d="M85.878 127.994C69.7245 141.647 61.1785 163.467 63.7914 184.465C63.9646 185.836 66.13 185.851 65.9567 184.465C63.4016 163.972 71.63 142.859 87.4082 129.524C88.4764 128.629 86.9318 127.099 85.878 127.994Z" fill="#407BFF"/>
<path d="M65.3502 193.875C65.5523 197.252 66.4185 200.528 67.9342 203.544C68.194 204.063 68.9303 204.208 69.4211 203.933C69.9552 203.616 70.0707 202.981 69.8108 202.447C68.4828 199.777 67.6888 196.848 67.5156 193.86C67.4867 193.283 67.0392 192.778 66.4329 192.778C65.8699 192.778 65.3213 193.269 65.3502 193.86V193.875Z" fill="#407BFF"/>
<path opacity="0.7" d="M80.6521 150.854C64.2099 182.127 76.2348 220.79 107.517 237.227C138.799 253.665 177.472 241.644 193.915 210.37C210.357 179.097 198.332 140.434 167.05 123.997C135.768 107.559 97.0944 119.581 80.6521 150.854Z" fill="white"/>
<path d="M485.314 148.227C512.034 161.706 522.76 194.279 509.292 220.992C495.809 247.705 463.227 258.427 436.507 244.963C415.878 234.557 404.835 212.766 407.058 191.089L396.087 179.082L412.183 173.021C412.313 172.747 412.414 172.472 412.544 172.198C426.027 145.485 458.608 134.763 485.328 148.227H485.314Z" fill="#407BFF"/>
<path d="M461.539 224.296C459.503 224.296 457.8 223.633 456.428 222.319C455.057 221.006 454.378 219.404 454.378 217.514C454.378 215.623 455.042 214.05 456.385 212.78C457.727 211.51 459.445 210.875 461.524 210.875C463.617 210.875 465.321 211.51 466.663 212.78C468.006 214.05 468.67 215.623 468.67 217.514C468.67 219.404 467.991 221.006 466.62 222.319C465.248 223.633 463.56 224.296 461.51 224.296H461.539ZM466.158 205.593H456.919L454.609 171.549H468.468L466.158 205.593Z" fill="white"/>
<path d="M118.936 176.874C114.417 176.874 110.765 175.547 107.993 172.906C105.222 170.265 103.836 166.974 103.836 163.049C103.836 158.402 105.482 154.491 108.787 151.316C112.093 148.127 116.121 146.539 120.884 146.539C125.648 146.539 129.055 147.867 131.827 150.508C134.598 153.149 135.984 156.439 135.984 160.365C135.984 165.012 134.324 168.923 130.989 172.098C127.655 175.287 123.642 176.874 118.936 176.874ZM167.945 147.434L119.47 209.908H106.073L154.549 147.434H167.945ZM119.643 166.166C121.072 166.166 122.213 165.704 123.079 164.781C123.945 163.857 124.378 162.587 124.378 160.985C124.378 158.488 122.978 157.233 120.177 157.233C118.748 157.233 117.608 157.695 116.741 158.618C115.875 159.542 115.442 160.812 115.442 162.414C115.442 164.911 116.842 166.166 119.643 166.166ZM155.083 180.453C159.601 180.453 163.253 181.781 166.025 184.422C168.797 187.063 170.182 190.354 170.182 194.279C170.182 198.926 168.537 202.837 165.231 206.012C161.925 209.201 157.898 210.789 153.134 210.789C148.37 210.789 144.963 209.461 142.192 206.82C139.42 204.179 138.034 200.889 138.034 196.963C138.034 192.316 139.694 188.405 143.029 185.23C146.363 182.041 150.377 180.453 155.083 180.453ZM154.375 191.162C152.946 191.162 151.806 191.624 150.94 192.547C150.073 193.471 149.64 194.741 149.64 196.343C149.64 198.839 151.041 200.095 153.841 200.095C155.27 200.095 156.411 199.633 157.277 198.709C158.143 197.786 158.576 196.516 158.576 194.914C158.576 192.417 157.176 191.162 154.375 191.162Z" fill="#5D767F"/>
<path d="M407.563 289.109C407.563 289.109 428.119 291.591 439.033 318.867C449.946 346.143 455.403 388.298 455.403 388.298H390.413L385.447 338.711L407.548 289.124L407.563 289.109Z" fill="#407BFF"/>
<mask id="path-27-inside-1_976_2251" fill="white">
<path d="M189.399 521.69C177.894 511.66 170.171 495.757 161.784 482.624C158.348 477.255 151.347 463.516 151.347 463.516C151.448 457.036 156.053 451.726 159.633 446.314C176.407 420.986 198.739 403.639 222.847 385.124L200.327 339C174.357 356.491 133.88 402.485 116.124 428.274C110.855 435.937 105.817 444.135 104.474 453.328C102.843 464.411 105.456 476.332 111.764 485.597C126.056 506.566 146.598 528.257 166.201 546.065"/>
</mask>
<path d="M189.399 521.69C177.894 511.66 170.171 495.757 161.784 482.624C158.348 477.255 151.347 463.516 151.347 463.516C151.448 457.036 156.053 451.726 159.633 446.314C176.407 420.986 198.739 403.639 222.847 385.124L200.327 339C174.357 356.491 133.88 402.485 116.124 428.274C110.855 435.937 105.817 444.135 104.474 453.328C102.843 464.411 105.456 476.332 111.764 485.597C126.056 506.566 146.598 528.257 166.201 546.065" fill="white"/>
<path d="M161.784 482.624L162.627 482.086L162.626 482.085L161.784 482.624ZM151.347 463.516L150.347 463.501L150.343 463.749L150.456 463.97L151.347 463.516ZM159.633 446.314L158.799 445.762L158.799 445.762L159.633 446.314ZM222.847 385.124L223.456 385.917L224.104 385.419L223.746 384.685L222.847 385.124ZM200.327 339L201.226 338.561L200.722 337.529L199.769 338.171L200.327 339ZM116.124 428.274L115.3 427.707L115.3 427.708L116.124 428.274ZM104.474 453.328L105.464 453.473L105.464 453.472L104.474 453.328ZM111.764 485.597L110.938 486.159L110.938 486.16L111.764 485.597ZM190.057 520.936C184.41 516.014 179.663 509.624 175.264 502.78C173.065 499.36 170.962 495.842 168.878 492.346C166.797 488.855 164.733 485.384 162.627 482.086L160.941 483.162C163.028 486.43 165.075 489.872 167.16 493.37C169.243 496.863 171.362 500.409 173.581 503.861C178.016 510.76 182.883 517.336 188.742 522.444L190.057 520.936ZM162.626 482.085C160.934 479.44 158.343 474.699 156.16 470.588C155.072 468.539 154.092 466.657 153.383 465.287C153.028 464.602 152.742 464.046 152.544 463.661C152.445 463.468 152.369 463.318 152.317 463.217C152.291 463.166 152.271 463.127 152.258 463.101C152.251 463.088 152.246 463.078 152.243 463.072C152.241 463.069 152.24 463.066 152.239 463.065C152.239 463.064 152.238 463.063 152.238 463.063C152.238 463.063 152.238 463.062 152.238 463.062C152.238 463.062 152.238 463.062 151.347 463.516C150.456 463.97 150.456 463.97 150.456 463.97C150.456 463.971 150.456 463.971 150.456 463.971C150.456 463.971 150.457 463.972 150.457 463.973C150.458 463.975 150.459 463.977 150.461 463.981C150.465 463.987 150.47 463.997 150.476 464.01C150.49 464.037 150.51 464.076 150.536 464.127C150.588 464.229 150.665 464.38 150.765 464.574C150.963 464.961 151.251 465.519 151.606 466.207C152.318 467.581 153.302 469.469 154.394 471.526C156.571 475.626 159.198 480.439 160.942 483.163L162.626 482.085ZM152.347 463.532C152.394 460.53 153.483 457.754 155.053 455.011C156.647 452.228 158.622 449.655 160.467 446.865L158.799 445.762C157.064 448.385 154.947 451.172 153.318 454.018C151.665 456.904 150.401 460.023 150.347 463.501L152.347 463.532ZM160.467 446.866C177.136 421.698 199.334 404.444 223.456 385.917L222.238 384.33C198.145 402.835 175.679 420.275 158.799 445.762L160.467 446.866ZM223.746 384.685L201.226 338.561L199.429 339.439L221.948 385.562L223.746 384.685ZM199.769 338.171C186.683 346.984 170.006 362.927 154.41 379.848C138.803 396.78 124.212 414.763 115.3 427.707L116.947 428.841C125.791 415.996 140.317 398.088 155.881 381.203C171.454 364.307 188.002 348.507 200.886 339.829L199.769 338.171ZM115.3 427.708C110.029 435.374 104.864 443.739 103.485 453.183L105.464 453.472C106.77 444.53 111.681 436.501 116.948 428.841L115.3 427.708ZM103.485 453.182C101.818 464.506 104.484 476.681 110.938 486.159L112.591 485.034C106.428 475.982 103.868 464.316 105.464 453.473L103.485 453.182ZM110.938 486.16C125.29 507.218 145.893 528.968 165.529 546.805L166.874 545.325C147.302 527.545 126.821 505.914 112.591 485.033L110.938 486.16Z" fill="#E0E0E0" mask="url(#path-27-inside-1_976_2251)"/>
<path opacity="0.3" d="M143.422 393.653L172.64 429.313C175.108 426.326 178.327 422.992 181.85 419.514L148.316 388.068L143.422 393.653Z" fill="black"/>
<path d="M289.955 274.331C288.341 274.782 255.934 283.27 233.466 289.151C221.066 292.397 212.665 303.884 213.366 316.682C215.6 357.517 220.359 442.4 222.122 457.83C224.923 482.378 217.142 533.307 215.279 541.634C214.102 546.901 208.587 566.184 205.248 580.95C202.866 591.483 209.909 598.498 220.707 598.525L384.583 598.937C400.92 598.978 413.705 584.616 412.034 568.364C408.111 530.207 402.926 473.236 402.467 457.83C401.846 437.005 411.836 296.109 411.186 291.245C410.537 286.382 341.087 270.031 341.087 270.031" fill="#407BFF"/>
<path opacity="0.3" d="M333.811 414.794C333.118 416.57 358.756 449.272 368.37 452.735C377.984 456.184 382.979 452.735 382.979 452.735L403.232 473.849V442.777L383.369 420.87L333.811 414.809V414.794Z" fill="black"/>
<path d="M454.999 418.965C453.598 399.28 453.093 388.298 453.093 388.298H409.454L413.164 415.372L385.505 411.605L375.285 433.036C375.285 433.036 415.82 471.771 434.644 471.843C455.403 471.915 456.846 445.101 454.999 418.98V418.965Z" fill="white"/>
<path d="M229.545 537.017C230.7 540.264 229.17 544.276 228.405 546.181C228.04 547.095 228.239 548.696 228.444 550.35C228.67 552.17 228.904 554.053 228.405 555.157C227.986 556.082 226.898 556.696 225.792 557.319C224.379 558.115 222.938 558.927 222.833 560.425C222.645 563.095 221.447 567.641 219.44 568.333L229.545 537.017ZM229.545 537.017C228.681 534.558 225.351 531.263 222.537 528.479M229.545 537.017L222.537 528.479M222.537 528.479C221.636 527.587 220.787 526.748 220.09 526.005L222.537 528.479ZM162.464 541.904L186.257 519.838C186.326 519.917 186.406 520.005 186.496 520.101C186.892 520.524 187.496 521.101 188.343 521.737C190.038 523.009 192.697 524.511 196.583 525.48C200.517 526.462 203.724 525.904 206.381 525.138C207.043 524.947 207.671 524.743 208.265 524.548C208.343 524.522 208.421 524.497 208.498 524.471C209.007 524.304 209.488 524.145 209.949 524.007C211.019 523.686 211.93 523.489 212.745 523.532L212.745 523.532C213.111 523.551 213.444 523.565 213.749 523.578C215.013 523.633 215.813 523.667 216.565 523.916C217.459 524.213 218.309 524.831 219.724 526.347L219.725 526.348C220.429 527.097 221.283 527.942 222.182 528.831L222.267 528.915C223.2 529.838 224.179 530.809 225.104 531.785C226.029 532.761 226.892 533.734 227.592 534.658C228.295 535.588 228.813 536.442 229.073 537.182L229.074 537.184C229.608 538.686 229.53 540.397 229.205 542.003C228.881 543.602 228.322 545.046 227.941 545.994L227.94 545.996C227.706 546.583 227.677 547.346 227.717 548.122C227.752 548.835 227.851 549.628 227.948 550.409C227.958 550.493 227.969 550.577 227.979 550.66C228.087 551.533 228.185 552.384 228.199 553.145C228.214 553.916 228.14 554.529 227.949 554.951C227.766 555.355 227.399 555.718 226.873 556.083C226.477 556.359 226.033 556.609 225.563 556.874C225.405 556.963 225.245 557.053 225.082 557.147C224.455 557.508 223.803 557.913 223.296 558.417C222.779 558.931 222.391 559.57 222.334 560.39C222.243 561.681 221.906 563.438 221.349 564.948C221.071 565.702 220.745 566.375 220.381 566.893C220.013 567.417 219.638 567.736 219.277 567.861L219.277 567.861C218.755 568.042 218.22 568.209 217.681 568.378C217.464 568.445 217.246 568.513 217.028 568.583C216.278 568.821 215.534 569.072 214.866 569.363C213.565 569.932 212.374 570.733 212.148 572.104C212.014 572.906 211.855 573.737 211.535 574.461C211.22 575.175 210.762 575.754 210.043 576.092C209.315 576.435 208.247 576.565 206.646 576.227C205.044 575.889 202.948 575.089 200.202 573.622C194.728 570.696 185.321 562.885 177.196 555.666C173.143 552.064 169.424 548.624 166.695 546.036C165.331 544.743 164.215 543.663 163.43 542.885C163.037 542.495 162.729 542.183 162.515 541.958C162.497 541.939 162.48 541.921 162.464 541.904Z" fill="white" stroke="#E0E0E0"/>
<path d="M224.684 295C224.684 295 157.284 355.598 158.006 361.92C158.728 368.255 201.515 406.542 205.499 404.753C209.541 402.934 233.952 381.316 233.952 380.233C233.952 379.151 224.684 295 224.684 295Z" fill="#407BFF"/>
<path d="M406.336 415.732C410.825 418.085 415.762 418.2 420.714 417.998C425.665 417.796 431.194 417.421 435.915 419.889C437.142 420.538 438.239 418.662 437.012 418.013C432.522 415.66 427.585 415.545 422.634 415.747C417.682 415.949 412.153 416.324 407.433 413.856C406.206 413.207 405.109 415.083 406.336 415.732Z" fill="#E0E0E0"/>
<path d="M218.397 399.728C216.275 380.202 216.016 360.488 214.456 340.904C214.067 336.012 213.605 331.12 212.955 326.242C212.767 324.871 210.674 325.448 210.862 326.819C213.489 346.1 213.72 365.698 215.005 385.08C215.337 389.958 215.698 394.85 216.218 399.713C216.362 401.084 218.527 401.099 218.383 399.713L218.397 399.728Z" fill="#263238"/>
<path opacity="0.3" d="M214.803 363.129C214.731 364.226 199.516 399.728 199.516 399.728C204.467 395.86 209.779 391.213 215.308 386.075L214.803 363.143V363.129Z" fill="black"/>
<path opacity="0.3" d="M409.469 388.283L410.378 394.922L453.584 397.289L453.093 388.283H409.469Z" fill="black"/>
<path d="M230.755 525.427C242.087 523.147 253.318 520.42 264.433 517.274C265.776 516.898 265.198 514.806 263.856 515.181C252.74 518.327 241.495 521.055 230.177 523.335C228.806 523.609 229.383 525.702 230.755 525.427Z" fill="#263238"/>
<path d="M233.93 535.4C239.041 535.674 244.151 535.948 249.276 536.222C250.661 536.294 250.661 534.13 249.276 534.058C244.165 533.783 239.055 533.509 233.93 533.235C232.545 533.163 232.545 535.328 233.93 535.4Z" fill="#263238"/>
<g opacity="0.3">
<path d="M289.017 515.195C288.498 513.882 286.65 513.925 285.264 514.214C268.663 517.649 252.076 521.069 235.475 524.504L231.246 525.427C249.81 529.54 269.774 527.029 286.736 518.443C288.036 517.779 289.537 516.552 289.017 515.195Z" fill="black"/>
</g>
<path d="M405.297 343.314C405.297 343.314 410.782 345.075 409.238 352.825C407.693 360.575 406.538 383.247 407.419 387.215C408.299 391.184 413.323 417.421 407.707 425.041C402.092 432.661 395.769 439.776 383.08 442.243C370.391 444.711 357.644 437.539 352.967 433.671C348.29 429.803 325.352 412.211 325.511 405.457C325.684 397.779 332.599 400.392 335.904 402.845C339.051 405.183 345.865 408.531 350.701 408.733C353.068 408.834 354.873 406.626 354.382 404.303C353.198 398.689 350.672 386.595 349.315 378.759C347.597 368.902 339.917 344.758 346.125 342.997C351.192 341.568 353.675 345.191 355.248 348.236C356.403 350.472 364.068 379.624 364.068 379.624C364.068 379.624 356.345 332.245 360.921 329.792C365.497 327.324 370.102 330.037 370.305 332.303C370.521 334.569 377.941 372.986 377.941 372.986C377.941 372.986 377.118 331.726 381.766 330.023C386.415 328.32 389.749 331.293 390.081 334.814C390.413 338.335 391.352 367.545 392.131 372.25C392.738 375.944 394.196 378.961 394.874 375.353C395.538 371.745 399.984 348.871 401.053 346.735C402.121 344.613 403.853 342.492 405.282 343.286L405.297 343.314Z" fill="white"/>
<path d="M399.147 434.811C406.48 432.459 410.421 425.127 411.085 417.825C411.966 408.113 409.021 398.674 408.212 389.106C408.097 387.735 405.932 387.721 406.047 389.106C406.394 393.205 407.289 397.217 407.909 401.272C408.573 405.601 409.021 410.09 409.05 414.477C409.107 421.851 406.278 430.236 398.569 432.719C397.241 433.137 397.819 435.23 399.147 434.811Z" fill="#E0E0E0"/>
<path d="M355.725 414.073C364.285 411.273 374.044 413.467 380.525 419.73C381.521 420.697 383.066 419.167 382.055 418.2C375.04 411.417 364.429 408.95 355.147 411.98C353.834 412.413 354.397 414.506 355.725 414.073Z" fill="#E0E0E0"/>
<path d="M358.756 387.62C370.608 383.535 383.167 382.179 395.61 383.608C396.996 383.766 396.982 381.602 395.61 381.443C382.993 380 370.174 381.4 358.178 385.541C356.865 385.989 357.428 388.081 358.756 387.634V387.62Z" fill="#E0E0E0"/>
<path d="M280.009 276.929C293.319 273.869 293.492 260.433 291.659 246.319C290.923 241.283 289.768 236.289 288.223 231.397L314.395 209.548L338.084 189.502C336.612 198.305 335.616 207.195 335.081 216.128C333.768 231.57 335.5 243.895 337.521 258.745C339.383 265.355 342.184 266.884 345.417 271.055C345.417 271.055 319.736 294.997 301.273 294.492C282.81 293.987 280.009 276.914 280.009 276.914V276.929Z" fill="white"/>
<path opacity="0.2" d="M335.486 227.933C335.486 227.933 319.938 265.239 292.106 250.692L291.702 244.183L335.486 227.933Z" fill="black"/>
<path d="M349.445 143.811C340.596 117.993 311.667 103.258 284.831 110.893C247.818 121.471 239.604 173.136 245.652 205.391C252.379 241.297 297.044 261.617 326.738 237.155C346.529 220.876 347.208 200.181 351.61 165.285C352.578 158.113 351.827 150.782 349.445 143.826V143.811Z" fill="white"/>
<path d="M234.999 133.045C234.999 133.045 238.42 137.028 241.61 135.874C238.406 130.693 238.81 124.256 242.635 119.682C242.635 119.682 244.945 125.194 247.673 125.31C249.305 112.278 255.122 100.17 264.303 90.6018C280.255 72.8653 332.498 95.7251 332.498 95.7251C332.498 95.7251 344.999 85.1034 364.877 103.085C380.814 117.502 382.691 146.929 381.204 159.614C375.401 171.838 361.715 183.657 343.18 189.646C334.071 179.284 333.421 163.655 334.345 152.831C331.588 152.066 329.033 150.652 326.925 148.631C318.784 140.824 324.847 113.635 292.366 117.69C286.621 114.183 279.36 114.154 273.816 117.618C263.841 123.419 258.457 155.198 244.642 145.904C230.827 136.61 234.97 133.045 234.97 133.045H234.999Z" fill="#263238"/>
<path d="M301.764 171.275C301.36 175.258 298.314 178.029 295.542 177.495C292.756 176.961 291.168 173.324 291.847 169.37C292.511 165.416 295.354 162.63 298.068 163.15C300.782 163.669 302.442 167.263 301.764 171.275Z" fill="#263238"/>
<path d="M265.025 169.269C264.621 173.252 261.517 176.008 258.803 175.489C256.089 174.969 254.429 171.318 255.108 167.364C255.772 163.41 258.616 160.624 261.33 161.144C264.044 161.663 265.675 165.502 265.025 169.269Z" fill="#263238"/>
<path d="M250.676 145.745C250.791 146.452 251.268 147.059 251.917 147.347C256.421 149.079 259.987 152.846 261.517 157.521C261.763 158.546 262.759 159.224 263.755 159.037C264.751 158.835 265.357 157.853 265.112 156.814C263.322 150.854 258.875 146.019 253.173 143.826C252.221 143.407 251.152 143.826 250.777 144.793C250.777 144.793 250.777 144.822 250.763 144.836C250.69 145.139 250.662 145.442 250.676 145.745Z" fill="#263238"/>
<path d="M301.533 154.072C301.85 153.841 302.081 153.524 302.211 153.163C302.356 152.153 301.634 151.244 300.595 151.157C300.595 151.157 300.566 151.157 300.551 151.157C294.43 150.565 288.252 152.918 283.993 157.449C283.315 158.257 283.416 159.412 284.224 160.033C285.033 160.624 286.217 160.48 286.909 159.686C290.374 156.194 295.268 154.419 300.089 154.895C300.667 154.823 301.186 154.52 301.518 154.058L301.533 154.072Z" fill="#263238"/>
<path d="M369.265 193.644C365.599 201.74 358.67 208.032 349.994 211.121C338.474 215.133 331.401 205.406 333.494 194.452C335.443 184.74 343.714 170.625 355.84 171.434C367.966 172.242 373.639 183.657 369.28 193.658L369.265 193.644Z" fill="white"/>
<g opacity="0.1">
<path d="M342.169 198.767C342.689 194.467 344.681 190.382 347.655 187.236C350.181 184.567 355.32 180.425 359.103 183.037C360.243 183.83 361.326 181.954 360.2 181.161C355.681 178.015 349.748 182.07 346.529 185.288C342.906 188.925 340.625 193.658 340.019 198.738C339.86 200.124 342.025 200.109 342.184 198.738L342.169 198.767Z" fill="black"/>
</g>
<path d="M272.503 166.051C266.974 174.724 260.204 182.604 252.351 189.444C256.335 193.355 261.864 195.433 267.465 195.145L272.488 166.065L272.503 166.051Z" fill="#E0E0E0"/>
<path d="M274.625 206.387C279.836 200.268 290.678 199.474 298.155 203.919C299.888 204.944 301.403 207.542 301.447 209.548C301.475 210.991 300.58 212.347 299.353 213.127C298.126 213.891 296.625 214.122 295.196 214.05C292.424 213.92 289.335 212.809 287.083 214.425C286.202 215.06 285.625 216.013 284.874 216.778C282.262 219.433 277.411 219.289 274.827 216.605C272.243 213.906 272.214 209.23 274.639 206.387H274.625Z" fill="#263238"/>
<path d="M301.201 208.234C301.331 208.682 301.432 209.129 301.447 209.548C301.476 210.991 300.58 212.347 299.353 213.127C298.126 213.892 296.625 214.122 295.196 214.05C292.424 213.92 289.335 212.809 287.083 214.426C286.203 215.061 285.625 216.013 284.874 216.778C283.835 217.831 282.464 218.423 281.006 218.611C280.789 218.582 279.577 213.718 284.109 209.894C288.613 206.084 300.985 208.191 301.216 208.234H301.201Z" fill="#F54948"/>
<path d="M297.925 203.804C296.264 203.818 285.337 204.02 281.453 205.839C277.613 207.643 275.102 206.517 274.712 206.3C279.894 200.326 290.49 199.518 297.925 203.789V203.804Z" fill="white"/>
<g opacity="0.1">
<path d="M293.637 116.016C291.991 111.513 289.927 107.79 286.462 104.384C283.243 101.209 278.955 98.9001 274.408 98.496C269.182 98.0342 264.014 100.43 260.42 104.11C256.826 107.79 254.487 112.884 252.986 117.921C252.581 119.263 254.675 119.826 255.079 118.498C257.1 111.73 260.766 104.528 267.681 101.714C273.066 99.5207 278.826 100.892 283.329 104.471C287.4 107.703 289.811 111.802 291.558 116.593C292.034 117.892 294.127 117.329 293.651 116.016H293.637Z" fill="black"/>
</g>
<g opacity="0.1">
<path d="M301.086 112.221C299.888 100.387 291.327 89.9525 279.894 86.5611C278.552 86.157 277.989 88.2496 279.317 88.6536C289.754 91.7564 297.809 101.382 298.906 112.235C299.05 113.606 301.216 113.62 301.071 112.235L301.086 112.221Z" fill="black"/>
</g>
<g opacity="0.3">
<path d="M270.929 129.553C272.921 127.085 276.169 126.075 279.244 125.295C285.062 123.809 291.024 124.127 297.029 124.242C307.033 124.43 315.362 133.291 316.488 142.743C311.003 145.269 304.636 144.417 298.646 143.782C292.64 143.133 286.087 142.873 281.092 146.279C278.984 147.722 276.646 149.873 274.264 148.92C272.734 148.3 271.983 146.625 271.377 145.081C270.381 142.556 269.37 139.987 269.067 137.288C268.764 134.589 269.24 131.689 270.929 129.567V129.553Z" fill="#CFCFCF"/>
</g>
</svg>
