<svg width="672" height="629" viewBox="0 0 672 629" fill="none" xmlns="http://www.w3.org/2000/svg">
<g clip-path="url(#clip0_974_1401)">
<path d="M429.733 245.39H526.14V134.586H429.733V245.39Z" fill="#EBEBEB"/>
<path d="M440.218 141.658C440.325 141.658 440.415 141.64 440.504 141.587C440.771 141.427 467.735 125.412 476.295 125.412C484.856 125.412 510.571 141.427 510.821 141.587C511.071 141.747 511.427 141.676 511.588 141.409C511.748 141.142 511.677 140.803 511.41 140.643C510.34 139.984 485.159 124.307 476.278 124.307C467.397 124.307 441.021 139.966 439.915 140.643C439.648 140.803 439.559 141.142 439.719 141.409C439.826 141.587 440.004 141.676 440.201 141.676L440.218 141.658Z" fill="#EBEBEB"/>
<path d="M418.783 245.39H523.126V134.586H418.783V245.39Z" fill="#F5F5F5"/>
<path d="M514.388 236.661V143.333H427.539V236.661H514.388Z" fill="white"/>
<path d="M462.724 208.853C462.724 202.992 457.963 198.236 452.096 198.236C446.228 198.236 441.467 202.992 441.467 208.853C441.467 214.714 446.228 219.47 452.096 219.47C457.963 219.47 462.724 214.714 462.724 208.853Z" fill="#F5F5F5"/>
<path d="M500.478 171.14C500.478 165.28 495.716 160.523 489.849 160.523C483.982 160.523 479.22 165.28 479.22 171.14C479.22 177.001 483.982 181.758 489.849 181.758C495.716 181.758 500.478 177.001 500.478 171.14Z" fill="#F5F5F5"/>
<path d="M479.203 208.853C479.203 202.992 483.964 198.236 489.831 198.236C495.699 198.236 500.46 202.992 500.46 208.853C500.46 214.714 495.699 219.47 489.831 219.47C483.964 219.47 479.203 214.714 479.203 208.853Z" fill="#F5F5F5"/>
<path d="M441.449 171.14C441.449 165.28 446.211 160.523 452.078 160.523C457.945 160.523 462.707 165.28 462.707 171.14C462.707 177.001 457.945 181.758 452.078 181.758C446.211 181.758 441.449 177.001 441.449 171.14Z" fill="#F5F5F5"/>
<path d="M23.0233 317.413L370.455 317.413L370.455 22.1608L23.0233 22.1608L23.0233 317.413Z" fill="#E6E6E6"/>
<path d="M18.0297 317.413L365.461 317.413L365.461 22.1608L18.0297 22.1608L18.0297 317.413Z" fill="#F5F5F5"/>
<path d="M356.509 307.365V32.208L27.0002 32.208V307.365H356.509Z" fill="white"/>
<path d="M30.7627 307.365L30.7627 32.208H26.982L26.982 307.365H30.7627Z" fill="#E6E6E6"/>
<path d="M21.757 276.885L361.77 276.885V263.382L21.757 263.382V276.885Z" fill="#F5F5F5"/>
<path d="M8.27454 5.50464H380.227C380.994 5.50464 381.6 6.12813 381.6 6.87633C381.6 7.64234 380.976 8.24802 380.227 8.24802H8.27454C7.5077 8.24802 6.90137 7.62452 6.90137 6.87633C6.90137 6.11032 7.52554 5.50464 8.27454 5.50464Z" fill="#E6E6E6"/>
<path d="M0 6.89408C0 10.7063 3.08519 13.7882 6.90154 13.7882C10.7179 13.7882 13.8031 10.7063 13.8031 6.89408C13.8031 3.08185 10.7001 0 6.90154 0C3.10302 0 0 3.08185 0 6.89408Z" fill="#E6E6E6"/>
<path d="M368.599 14.6076C369.616 14.6076 370.454 13.7703 370.454 12.7549V8.76454C370.454 7.74913 369.616 6.91187 368.599 6.91187C367.583 6.91187 366.745 7.74913 366.745 8.76454V12.7549C366.745 13.7703 367.583 14.6076 368.599 14.6076Z" fill="#E6E6E6"/>
<path d="M29.0685 14.6076C30.0851 14.6076 30.9232 13.7703 30.9232 12.7549V8.76454C30.9232 7.74913 30.0851 6.91187 29.0685 6.91187C28.052 6.91187 27.2139 7.74913 27.2139 8.76454V12.7549C27.2139 13.7703 28.052 14.6076 29.0685 14.6076Z" fill="#E6E6E6"/>
<path opacity="0.4" d="M8.7027 233.33L361.751 233.33V6.89412L8.7027 6.89412V233.33Z" fill="#E0E0E0"/>
<path d="M339.513 6.89408C339.513 10.7063 342.598 13.7882 346.415 13.7882C350.231 13.7882 353.316 10.7063 353.316 6.89408C353.316 3.08185 350.231 0 346.415 0C342.598 0 339.513 3.08185 339.513 6.89408Z" fill="#E6E6E6"/>
<path d="M551.393 366.312C550.965 366.312 550.537 366.312 550.109 366.348C550.144 366.099 550.216 365.867 550.216 365.618C550.216 360.256 543.653 355.891 535.574 355.891C536.056 354.804 536.359 353.664 536.359 352.435C536.359 347.055 531.205 342.691 524.821 342.691C523.002 342.691 521.29 343.083 519.756 343.724C519.792 343.386 519.881 343.047 519.881 342.691C519.881 335.725 513.193 330.096 504.954 330.096C498.053 330.096 492.293 334.087 490.598 339.466C486.693 335.227 480.63 332.483 473.782 332.483C465.828 332.483 458.891 336.171 455.235 341.64C453.113 339.502 449.992 338.13 446.425 338.13C440.058 338.13 434.905 342.495 434.905 347.875C434.905 349.104 435.208 350.262 435.689 351.331C427.593 351.331 421.048 355.695 421.048 361.057C421.048 361.556 421.155 362.055 421.28 362.536C420.816 362.536 420.352 362.5 419.889 362.5C409.207 362.5 400.54 366.134 400.54 370.641C400.54 375.148 409.207 378.782 419.889 378.782C424.258 378.782 428.288 378.159 431.516 377.143C435.921 383.361 449.582 387.885 465.774 387.885C484.464 387.885 499.801 381.846 501.37 374.151C505.81 375.825 511.642 376.858 518.08 376.858C523.252 376.858 528.067 376.199 532.061 375.059C532.079 375.059 532.115 375.059 532.133 375.059C532.882 379.263 541.21 382.577 551.411 382.577C561.611 382.577 570.76 378.943 570.76 374.436C570.76 369.929 562.093 366.295 551.411 366.295L551.393 366.312Z" fill="#E6E6E6"/>
<path d="M579.017 371.229C587.22 371.229 593.872 377.874 593.872 386.068C593.872 402.511 553.105 415.96 503.278 415.96H458.302C408.475 415.96 367.708 402.511 367.708 386.068C367.708 377.874 374.36 371.229 382.563 371.229H579.017Z" fill="#F0F0F0"/>
<path d="M165.583 562.143H244.407L244.407 415.943H165.583V562.143Z" fill="#E6E6E6"/>
<path d="M180.546 562.143H165.583V548.48H196.257L180.546 562.143Z" fill="#F0F0F0"/>
<path d="M593.194 562.143H672.018V415.943H593.194V562.143Z" fill="#E6E6E6"/>
<path d="M165.584 556.087H606.248V415.943L165.584 415.943V556.087Z" fill="#F0F0F0"/>
<path d="M591.268 562.143H606.248V548.48H575.574L591.268 562.143Z" fill="#F0F0F0"/>
<path d="M593.693 428.644V482.14H178.138V428.644H593.693ZM594.638 427.7H177.193V483.084H594.638V427.7Z" fill="#FAFAFA"/>
<path d="M593.693 489.889V543.385H178.138V489.889H593.693ZM594.638 488.963H177.193V544.347H594.638V488.963Z" fill="#FAFAFA"/>
<path d="M347.467 433.222H424.347C427.396 433.222 429.875 430.746 429.875 427.7H341.92C341.92 430.746 344.399 433.222 347.449 433.222H347.467Z" fill="#FAFAFA"/>
<path d="M347.467 494.485H424.347C427.396 494.485 429.875 492.009 429.875 488.963H341.92C341.92 492.009 344.399 494.485 347.449 494.485H347.467Z" fill="#FAFAFA"/>
<path d="M119.235 213.432L117.647 212.612C131.522 185.552 149.997 161.396 172.574 140.839L173.769 142.157C151.353 162.572 133.002 186.55 119.235 213.432Z" fill="#407BFF"/>
<path d="M96.8893 277.01L95.1416 276.654C97.7096 264.095 101.276 251.643 105.735 239.636L107.411 240.26C102.97 252.177 99.4395 264.558 96.8893 277.01Z" fill="#407BFF"/>
<path d="M516.809 501.235C613.008 405.14 613.008 249.339 516.809 153.244C420.61 57.1486 264.64 57.1486 168.441 153.244C72.2417 249.339 72.2417 405.14 168.441 501.235C264.64 597.33 420.61 597.33 516.809 501.235Z" fill="#407BFF"/>
<path opacity="0.4" d="M342.616 560.647C471.463 560.647 576.27 455.935 576.27 327.246C576.27 198.557 471.463 93.8271 342.616 93.8271C213.77 93.8271 108.962 198.539 108.962 327.246C108.962 455.953 213.787 560.647 342.616 560.647ZM342.616 95.6086C470.464 95.6086 574.487 199.519 574.487 327.228C574.487 454.938 470.464 558.848 342.616 558.848C214.768 558.848 110.746 454.956 110.746 327.246C110.746 199.536 214.768 95.6086 342.616 95.6086Z" fill="#FAFAFA"/>
<path opacity="0.9" d="M484.921 469.489C563.681 390.814 563.681 263.256 484.921 184.581C406.161 105.906 278.465 105.906 199.704 184.581C120.944 263.256 120.944 390.814 199.704 469.489C278.465 548.164 406.161 548.164 484.921 469.489Z" fill="#FAFAFA"/>
<mask id="mask0_974_1401" style="mask-type:luminance" maskUnits="userSpaceOnUse" x="140" y="125" width="405" height="404">
<path d="M485.233 469.693C563.994 391.018 563.994 263.46 485.233 184.785C406.473 106.11 278.777 106.11 200.017 184.785C121.257 263.46 121.257 391.018 200.017 469.693C278.777 548.368 406.473 548.368 485.233 469.693Z" fill="white"/>
</mask>
<g mask="url(#mask0_974_1401)">
<g opacity="0.4">
<path d="M199.628 439.725H152.191L161.357 417.225H190.462L199.628 439.725Z" fill="#407BFF"/>
<path opacity="0.2" d="M199.628 439.725H152.191L161.357 417.225H190.462L199.628 439.725Z" fill="#FAFAFA"/>
<path d="M271.675 439.725H199.628L190.461 417.225H262.509L271.675 439.725Z" fill="#407BFF"/>
<path opacity="0.3" d="M271.675 439.725H199.628L190.461 417.225H262.509L271.675 439.725Z" fill="black"/>
<path d="M260.137 439.725H212.718L221.884 417.225H250.971L260.137 439.725Z" fill="#407BFF"/>
<path opacity="0.2" d="M260.137 439.725H212.718L221.884 417.225H250.971L260.137 439.725Z" fill="#FAFAFA"/>
<path d="M332.184 439.725H260.137L250.971 417.225H323.036L332.184 439.725Z" fill="#407BFF"/>
<path opacity="0.3" d="M332.184 439.725H260.137L250.971 417.225H323.036L332.184 439.725Z" fill="black"/>
<path d="M320.646 439.725H273.227L282.393 417.225H311.479L320.646 439.725Z" fill="#407BFF"/>
<path opacity="0.2" d="M320.646 439.725H273.227L282.393 417.225H311.479L320.646 439.725Z" fill="#FAFAFA"/>
<path d="M392.711 439.725H320.646L311.479 417.225H383.544L392.711 439.725Z" fill="#407BFF"/>
<path opacity="0.3" d="M392.711 439.725H320.646L311.479 417.225H383.544L392.711 439.725Z" fill="black"/>
<path d="M381.172 439.725H333.735L342.902 417.225H372.006L381.172 439.725Z" fill="#407BFF"/>
<path opacity="0.2" d="M381.172 439.725H333.735L342.902 417.225H372.006L381.172 439.725Z" fill="#FAFAFA"/>
<path d="M453.219 439.725H381.172L372.006 417.225H444.053L453.219 439.725Z" fill="#407BFF"/>
<path opacity="0.3" d="M453.219 439.725H381.172L372.006 417.225H444.053L453.219 439.725Z" fill="black"/>
<path d="M441.681 439.725H394.262L403.429 417.225H432.515L441.681 439.725Z" fill="#407BFF"/>
<path opacity="0.2" d="M441.681 439.725H394.262L403.429 417.225H432.515L441.681 439.725Z" fill="#FAFAFA"/>
<path d="M513.729 439.725H441.682L432.515 417.225H504.58L513.729 439.725Z" fill="#407BFF"/>
<path opacity="0.3" d="M513.729 439.725H441.682L432.515 417.225H504.58L513.729 439.725Z" fill="black"/>
<path d="M502.19 439.725H454.771L463.937 417.225H493.024L502.19 439.725Z" fill="#407BFF"/>
<path opacity="0.2" d="M502.19 439.725H454.771L463.937 417.225H493.024L502.19 439.725Z" fill="#FAFAFA"/>
<path d="M574.255 439.725H502.19L493.024 417.225H565.089L574.255 439.725Z" fill="#407BFF"/>
<path opacity="0.3" d="M574.255 439.725H502.19L493.024 417.225H565.089L574.255 439.725Z" fill="black"/>
<path d="M562.717 439.725H515.298L524.446 417.225H553.551L562.717 439.725Z" fill="#407BFF"/>
<path opacity="0.2" d="M562.717 439.725H515.298L524.446 417.225H553.551L562.717 439.725Z" fill="#FAFAFA"/>
<path d="M218.103 417.225H170.684L179.85 394.744H208.937L218.103 417.225Z" fill="#407BFF"/>
<path opacity="0.2" d="M218.103 417.225H170.684L179.85 394.744H208.937L218.103 417.225Z" fill="#FAFAFA"/>
<path d="M290.151 417.225H218.103L208.937 394.744H281.002L290.151 417.225Z" fill="#407BFF"/>
<path opacity="0.3" d="M290.151 417.225H218.103L208.937 394.744H281.002L290.151 417.225Z" fill="black"/>
<path d="M278.612 417.225H231.193L240.359 394.744H269.446L278.612 417.225Z" fill="#407BFF"/>
<path opacity="0.2" d="M278.612 417.225H231.193L240.359 394.744H269.446L278.612 417.225Z" fill="#FAFAFA"/>
<path d="M350.677 417.225H278.612L269.446 394.744H341.511L350.677 417.225Z" fill="#407BFF"/>
<path opacity="0.3" d="M350.677 417.225H278.612L269.446 394.744H341.511L350.677 417.225Z" fill="black"/>
<path d="M339.139 417.225H291.702L300.868 394.744H329.972L339.139 417.225Z" fill="#407BFF"/>
<path opacity="0.2" d="M339.139 417.225H291.702L300.868 394.744H329.972L339.139 417.225Z" fill="#FAFAFA"/>
<path d="M411.186 417.225H339.139L329.972 394.744H402.019L411.186 417.225Z" fill="#407BFF"/>
<path opacity="0.3" d="M411.186 417.225H339.139L329.972 394.744H402.019L411.186 417.225Z" fill="black"/>
<path d="M399.648 417.225H352.229L361.395 394.744H390.481L399.648 417.225Z" fill="#407BFF"/>
<path opacity="0.2" d="M399.648 417.225H352.229L361.395 394.744H390.481L399.648 417.225Z" fill="#FAFAFA"/>
<path d="M471.713 417.225H399.648L390.481 394.744H462.546L471.713 417.225Z" fill="#407BFF"/>
<path opacity="0.3" d="M471.713 417.225H399.648L390.481 394.744H462.546L471.713 417.225Z" fill="black"/>
<path d="M460.156 417.225H412.737L421.904 394.744H450.99L460.156 417.225Z" fill="#407BFF"/>
<path opacity="0.2" d="M460.156 417.225H412.737L421.904 394.744H450.99L460.156 417.225Z" fill="#FAFAFA"/>
<path d="M532.222 417.225H460.157L450.99 394.744H523.055L532.222 417.225Z" fill="#407BFF"/>
<path opacity="0.3" d="M532.222 417.225H460.157L450.99 394.744H523.055L532.222 417.225Z" fill="black"/>
<path d="M520.683 417.225H473.264L482.413 394.744H511.517L520.683 417.225Z" fill="#407BFF"/>
<path opacity="0.2" d="M520.683 417.225H473.264L482.413 394.744H511.517L520.683 417.225Z" fill="#FAFAFA"/>
<path d="M592.731 417.225H520.684L511.517 394.744H583.564L592.731 417.225Z" fill="#407BFF"/>
<path opacity="0.3" d="M592.731 417.225H520.684L511.517 394.744H583.564L592.731 417.225Z" fill="black"/>
<path d="M581.192 417.225H533.773L542.939 394.744H572.026L581.192 417.225Z" fill="#407BFF"/>
<path opacity="0.2" d="M581.192 417.225H533.773L542.939 394.744H572.026L581.192 417.225Z" fill="#FAFAFA"/>
<path d="M233.957 394.744H186.521L195.687 372.262H224.791L233.957 394.744Z" fill="#407BFF"/>
<path opacity="0.2" d="M233.957 394.744H186.521L195.687 372.262H224.791L233.957 394.744Z" fill="#FAFAFA"/>
<path d="M306.005 394.744H233.957L224.791 372.262H296.838L306.005 394.744Z" fill="#407BFF"/>
<path opacity="0.3" d="M306.005 394.744H233.957L224.791 372.262H296.838L306.005 394.744Z" fill="black"/>
<path d="M294.466 394.744H247.047L256.214 372.262H285.3L294.466 394.744Z" fill="#407BFF"/>
<path opacity="0.2" d="M294.466 394.744H247.047L256.214 372.262H285.3L294.466 394.744Z" fill="#FAFAFA"/>
<path d="M366.514 394.744H294.467L285.3 372.262H357.347L366.514 394.744Z" fill="#407BFF"/>
<path opacity="0.3" d="M366.514 394.744H294.467L285.3 372.262H357.347L366.514 394.744Z" fill="black"/>
<path d="M354.975 394.744H307.556L316.723 372.262H345.809L354.975 394.744Z" fill="#407BFF"/>
<path opacity="0.2" d="M354.975 394.744H307.556L316.723 372.262H345.809L354.975 394.744Z" fill="#FAFAFA"/>
<path d="M427.04 394.744H354.975L345.809 372.262H417.874L427.04 394.744Z" fill="#407BFF"/>
<path opacity="0.3" d="M427.04 394.744H354.975L345.809 372.262H417.874L427.04 394.744Z" fill="black"/>
<path d="M415.502 394.744H368.065L377.231 372.262H406.336L415.502 394.744Z" fill="#407BFF"/>
<path opacity="0.2" d="M415.502 394.744H368.065L377.231 372.262H406.336L415.502 394.744Z" fill="#FAFAFA"/>
<path d="M487.549 394.744H415.502L406.335 372.262H478.383L487.549 394.744Z" fill="#407BFF"/>
<path opacity="0.3" d="M487.549 394.744H415.502L406.335 372.262H478.383L487.549 394.744Z" fill="black"/>
<path d="M476.011 394.744H428.592L437.758 372.262H466.845L476.011 394.744Z" fill="#407BFF"/>
<path opacity="0.2" d="M476.011 394.744H428.592L437.758 372.262H466.845L476.011 394.744Z" fill="#FAFAFA"/>
<path d="M548.058 394.744H476.011L466.845 372.262H538.91L548.058 394.744Z" fill="#407BFF"/>
<path opacity="0.3" d="M548.058 394.744H476.011L466.845 372.262H538.91L548.058 394.744Z" fill="black"/>
<path d="M536.52 394.744H489.101L498.267 372.262H527.353L536.52 394.744Z" fill="#407BFF"/>
<path opacity="0.2" d="M536.52 394.744H489.101L498.267 372.262H527.353L536.52 394.744Z" fill="#FAFAFA"/>
<path d="M608.585 394.744H536.52L527.354 372.262H599.418L608.585 394.744Z" fill="#407BFF"/>
<path opacity="0.3" d="M608.585 394.744H536.52L527.354 372.262H599.418L608.585 394.744Z" fill="black"/>
<path d="M252.433 372.262H205.014L214.18 349.763H243.266L252.433 372.262Z" fill="#407BFF"/>
<path opacity="0.2" d="M252.433 372.262H205.014L214.18 349.763H243.266L252.433 372.262Z" fill="#FAFAFA"/>
<path d="M324.48 372.262H252.433L243.267 349.763H315.314L324.48 372.262Z" fill="#407BFF"/>
<path opacity="0.3" d="M324.48 372.262H252.433L243.267 349.763H315.314L324.48 372.262Z" fill="black"/>
<path d="M312.942 372.262H265.522L274.689 349.763H303.775L312.942 372.262Z" fill="#407BFF"/>
<path opacity="0.2" d="M312.942 372.262H265.522L274.689 349.763H303.775L312.942 372.262Z" fill="#FAFAFA"/>
<path d="M385.007 372.262H312.942L303.775 349.763H375.84L385.007 372.262Z" fill="#407BFF"/>
<path opacity="0.3" d="M385.007 372.262H312.942L303.775 349.763H375.84L385.007 372.262Z" fill="black"/>
<path d="M373.468 372.262H326.031L335.198 349.763H364.302L373.468 372.262Z" fill="#407BFF"/>
<path opacity="0.2" d="M373.468 372.262H326.031L335.198 349.763H364.302L373.468 372.262Z" fill="#FAFAFA"/>
<path d="M445.515 372.262H373.468L364.302 349.763H436.349L445.515 372.262Z" fill="#407BFF"/>
<path opacity="0.3" d="M445.515 372.262H373.468L364.302 349.763H436.349L445.515 372.262Z" fill="black"/>
<path d="M433.977 372.262H386.558L395.724 349.763H424.811L433.977 372.262Z" fill="#407BFF"/>
<path opacity="0.2" d="M433.977 372.262H386.558L395.724 349.763H424.811L433.977 372.262Z" fill="#FAFAFA"/>
<path d="M506.025 372.262H433.977L424.811 349.763H496.876L506.025 372.262Z" fill="#407BFF"/>
<path opacity="0.3" d="M506.025 372.262H433.977L424.811 349.763H496.876L506.025 372.262Z" fill="black"/>
<path d="M494.486 372.262H447.067L456.233 349.763H485.32L494.486 372.262Z" fill="#407BFF"/>
<path opacity="0.2" d="M494.486 372.262H447.067L456.233 349.763H485.32L494.486 372.262Z" fill="#FAFAFA"/>
<path d="M566.551 372.262H494.486L485.32 349.763H557.385L566.551 372.262Z" fill="#407BFF"/>
<path opacity="0.3" d="M566.551 372.262H494.486L485.32 349.763H557.385L566.551 372.262Z" fill="black"/>
<path d="M555.013 372.262H507.576L516.743 349.763H545.847L555.013 372.262Z" fill="#407BFF"/>
<path opacity="0.2" d="M555.013 372.262H507.576L516.743 349.763H545.847L555.013 372.262Z" fill="#FAFAFA"/>
<path d="M197.595 529.668H125.53L116.364 507.187H188.429L197.595 529.668Z" fill="#407BFF"/>
<path opacity="0.3" d="M197.595 529.668H125.53L116.364 507.187H188.429L197.595 529.668Z" fill="black"/>
<path d="M186.057 529.668H138.62L147.786 507.187H176.89L186.057 529.668Z" fill="#407BFF"/>
<path opacity="0.2" d="M186.057 529.668H138.62L147.786 507.187H176.89L186.057 529.668Z" fill="#FAFAFA"/>
<path d="M258.104 529.668H186.057L176.89 507.187H248.937L258.104 529.668Z" fill="#407BFF"/>
<path opacity="0.3" d="M258.104 529.668H186.057L176.89 507.187H248.937L258.104 529.668Z" fill="black"/>
<path d="M246.566 529.668H199.146L208.313 507.187H237.399L246.566 529.668Z" fill="#407BFF"/>
<path opacity="0.2" d="M246.566 529.668H199.146L208.313 507.187H237.399L246.566 529.668Z" fill="#FAFAFA"/>
<path d="M318.631 529.668H246.566L237.399 507.187H309.464L318.631 529.668Z" fill="#407BFF"/>
<path opacity="0.3" d="M318.631 529.668H246.566L237.399 507.187H309.464L318.631 529.668Z" fill="black"/>
<path d="M307.074 529.668H259.655L268.822 507.187H297.908L307.074 529.668Z" fill="#407BFF"/>
<path opacity="0.2" d="M307.074 529.668H259.655L268.822 507.187H297.908L307.074 529.668Z" fill="#FAFAFA"/>
<path d="M379.14 529.668H307.075L297.908 507.187H369.973L379.14 529.668Z" fill="#407BFF"/>
<path opacity="0.3" d="M379.14 529.668H307.075L297.908 507.187H369.973L379.14 529.668Z" fill="black"/>
<path d="M367.601 529.668H320.182L329.331 507.187H358.435L367.601 529.668Z" fill="#407BFF"/>
<path opacity="0.2" d="M367.601 529.668H320.182L329.331 507.187H358.435L367.601 529.668Z" fill="#FAFAFA"/>
<path d="M439.649 529.668H367.601L358.435 507.187H430.482L439.649 529.668Z" fill="#407BFF"/>
<path opacity="0.3" d="M439.649 529.668H367.601L358.435 507.187H430.482L439.649 529.668Z" fill="black"/>
<path d="M428.11 529.668H380.691L389.857 507.187H418.944L428.11 529.668Z" fill="#407BFF"/>
<path opacity="0.2" d="M428.11 529.668H380.691L389.857 507.187H418.944L428.11 529.668Z" fill="#FAFAFA"/>
<path d="M500.175 529.668H428.11L418.944 507.187H491.009L500.175 529.668Z" fill="#407BFF"/>
<path opacity="0.3" d="M500.175 529.668H428.11L418.944 507.187H491.009L500.175 529.668Z" fill="black"/>
<path d="M488.619 529.668H441.2L450.366 507.187H479.452L488.619 529.668Z" fill="#407BFF"/>
<path opacity="0.2" d="M488.619 529.668H441.2L450.366 507.187H479.452L488.619 529.668Z" fill="#FAFAFA"/>
<path d="M560.684 529.668H488.619L479.453 507.187H551.518L560.684 529.668Z" fill="#407BFF"/>
<path opacity="0.3" d="M560.684 529.668H488.619L479.453 507.187H551.518L560.684 529.668Z" fill="black"/>
<path d="M549.146 529.668H501.727L510.893 507.187H539.979L549.146 529.668Z" fill="#407BFF"/>
<path opacity="0.2" d="M549.146 529.668H501.727L510.893 507.187H539.979L549.146 529.668Z" fill="#FAFAFA"/>
<path d="M621.193 529.668H549.146L539.979 507.187H612.027L621.193 529.668Z" fill="#407BFF"/>
<path opacity="0.3" d="M621.193 529.668H549.146L539.979 507.187H612.027L621.193 529.668Z" fill="black"/>
<path d="M144.023 507.187H96.5864L105.753 484.688H134.857L144.023 507.187Z" fill="#407BFF"/>
<path opacity="0.2" d="M144.023 507.187H96.5864L105.753 484.688H134.857L144.023 507.187Z" fill="#FAFAFA"/>
<path d="M216.07 507.187H144.023L134.857 484.688H206.904L216.07 507.187Z" fill="#407BFF"/>
<path opacity="0.3" d="M216.07 507.187H144.023L134.857 484.688H206.904L216.07 507.187Z" fill="black"/>
<path d="M204.532 507.187H157.113L166.28 484.688H195.366L204.532 507.187Z" fill="#407BFF"/>
<path opacity="0.2" d="M204.532 507.187H157.113L166.28 484.688H195.366L204.532 507.187Z" fill="#FAFAFA"/>
<path d="M276.598 507.187H204.533L195.366 484.688H267.431L276.598 507.187Z" fill="#407BFF"/>
<path opacity="0.3" d="M276.598 507.187H204.533L195.366 484.688H267.431L276.598 507.187Z" fill="black"/>
<path d="M265.041 507.187H217.622L226.788 484.688H255.875L265.041 507.187Z" fill="#407BFF"/>
<path opacity="0.2" d="M265.041 507.187H217.622L226.788 484.688H255.875L265.041 507.187Z" fill="#FAFAFA"/>
<path d="M337.106 507.187H265.041L255.875 484.688H327.94L337.106 507.187Z" fill="#407BFF"/>
<path opacity="0.3" d="M337.106 507.187H265.041L255.875 484.688H327.94L337.106 507.187Z" fill="black"/>
<path d="M325.568 507.187H278.149L287.297 484.688H316.402L325.568 507.187Z" fill="#407BFF"/>
<path opacity="0.2" d="M325.568 507.187H278.149L287.297 484.688H316.402L325.568 507.187Z" fill="#FAFAFA"/>
<path d="M397.615 507.187H325.568L316.402 484.688H388.449L397.615 507.187Z" fill="#407BFF"/>
<path opacity="0.3" d="M397.615 507.187H325.568L316.402 484.688H388.449L397.615 507.187Z" fill="black"/>
<path d="M386.077 507.187H338.658L347.824 484.688H376.91L386.077 507.187Z" fill="#407BFF"/>
<path opacity="0.2" d="M386.077 507.187H338.658L347.824 484.688H376.91L386.077 507.187Z" fill="#FAFAFA"/>
<path d="M458.142 507.187H386.077L376.911 484.688H448.976L458.142 507.187Z" fill="#407BFF"/>
<path opacity="0.3" d="M458.142 507.187H386.077L376.911 484.688H448.976L458.142 507.187Z" fill="black"/>
<path d="M446.586 507.187H399.167L408.333 484.688H437.419L446.586 507.187Z" fill="#407BFF"/>
<path opacity="0.2" d="M446.586 507.187H399.167L408.333 484.688H437.419L446.586 507.187Z" fill="#FAFAFA"/>
<path d="M518.651 507.187H446.586L437.419 484.688H509.484L518.651 507.187Z" fill="#407BFF"/>
<path opacity="0.3" d="M518.651 507.187H446.586L437.419 484.688H509.484L518.651 507.187Z" fill="black"/>
<path d="M507.112 507.187H459.693L468.86 484.688H497.946L507.112 507.187Z" fill="#407BFF"/>
<path opacity="0.2" d="M507.112 507.187H459.693L468.86 484.688H497.946L507.112 507.187Z" fill="#FAFAFA"/>
<path d="M579.16 507.187H507.113L497.946 484.688H569.993L579.16 507.187Z" fill="#407BFF"/>
<path opacity="0.3" d="M579.16 507.187H507.113L497.946 484.688H569.993L579.16 507.187Z" fill="black"/>
<path d="M567.621 507.187H520.202L529.369 484.688H558.455L567.621 507.187Z" fill="#407BFF"/>
<path opacity="0.2" d="M567.621 507.187H520.202L529.369 484.688H558.455L567.621 507.187Z" fill="#FAFAFA"/>
<path d="M159.86 484.688H112.44L121.607 462.206H150.693L159.86 484.688Z" fill="#407BFF"/>
<path opacity="0.2" d="M159.86 484.688H112.44L121.607 462.206H150.693L159.86 484.688Z" fill="#FAFAFA"/>
<path d="M231.925 484.688H159.86L150.693 462.206H222.758L231.925 484.688Z" fill="#407BFF"/>
<path opacity="0.3" d="M231.925 484.688H159.86L150.693 462.206H222.758L231.925 484.688Z" fill="black"/>
<path d="M220.386 484.688H172.949L182.116 462.206H211.22L220.386 484.688Z" fill="#407BFF"/>
<path opacity="0.2" d="M220.386 484.688H172.949L182.116 462.206H211.22L220.386 484.688Z" fill="#FAFAFA"/>
<path d="M292.433 484.688H220.386L211.22 462.206H283.267L292.433 484.688Z" fill="#407BFF"/>
<path opacity="0.3" d="M292.433 484.688H220.386L211.22 462.206H283.267L292.433 484.688Z" fill="black"/>
<path d="M280.895 484.688H233.476L242.642 462.206H271.729L280.895 484.688Z" fill="#407BFF"/>
<path opacity="0.2" d="M280.895 484.688H233.476L242.642 462.206H271.729L280.895 484.688Z" fill="#FAFAFA"/>
<path d="M352.943 484.688H280.895L271.729 462.206H343.794L352.943 484.688Z" fill="#407BFF"/>
<path opacity="0.3" d="M352.943 484.688H280.895L271.729 462.206H343.794L352.943 484.688Z" fill="black"/>
<path d="M341.404 484.688H293.985L303.151 462.206H332.238L341.404 484.688Z" fill="#407BFF"/>
<path opacity="0.2" d="M341.404 484.688H293.985L303.151 462.206H332.238L341.404 484.688Z" fill="#FAFAFA"/>
<path d="M413.469 484.688H341.404L332.238 462.206H404.303L413.469 484.688Z" fill="#407BFF"/>
<path opacity="0.3" d="M413.469 484.688H341.404L332.238 462.206H404.303L413.469 484.688Z" fill="black"/>
<path d="M401.931 484.688H354.494L363.66 462.206H392.764L401.931 484.688Z" fill="#407BFF"/>
<path opacity="0.2" d="M401.931 484.688H354.494L363.66 462.206H392.764L401.931 484.688Z" fill="#FAFAFA"/>
<path d="M473.978 484.688H401.931L392.764 462.206H464.811L473.978 484.688Z" fill="#407BFF"/>
<path opacity="0.3" d="M473.978 484.688H401.931L392.764 462.206H464.811L473.978 484.688Z" fill="black"/>
<path d="M462.44 484.688H415.021L424.187 462.206H453.273L462.44 484.688Z" fill="#407BFF"/>
<path opacity="0.2" d="M462.44 484.688H415.021L424.187 462.206H453.273L462.44 484.688Z" fill="#FAFAFA"/>
<path d="M534.505 484.688H462.44L453.273 462.206H525.338L534.505 484.688Z" fill="#407BFF"/>
<path opacity="0.3" d="M534.505 484.688H462.44L453.273 462.206H525.338L534.505 484.688Z" fill="black"/>
<path d="M522.948 484.688H475.529L484.696 462.206H513.782L522.948 484.688Z" fill="#407BFF"/>
<path opacity="0.2" d="M522.948 484.688H475.529L484.696 462.206H513.782L522.948 484.688Z" fill="#FAFAFA"/>
<path d="M595.014 484.688H522.949L513.782 462.206H585.847L595.014 484.688Z" fill="#407BFF"/>
<path opacity="0.3" d="M595.014 484.688H522.949L513.782 462.206H585.847L595.014 484.688Z" fill="black"/>
<path d="M178.352 462.206H130.916L140.082 439.725H169.186L178.352 462.206Z" fill="#407BFF"/>
<path opacity="0.2" d="M178.352 462.206H130.916L140.082 439.725H169.186L178.352 462.206Z" fill="#FAFAFA"/>
<path d="M250.4 462.206H178.352L169.186 439.725H241.233L250.4 462.206Z" fill="#407BFF"/>
<path opacity="0.3" d="M250.4 462.206H178.352L169.186 439.725H241.233L250.4 462.206Z" fill="black"/>
<path d="M238.862 462.206H191.442L200.609 439.725H229.695L238.862 462.206Z" fill="#407BFF"/>
<path opacity="0.2" d="M238.862 462.206H191.442L200.609 439.725H229.695L238.862 462.206Z" fill="#FAFAFA"/>
<path d="M310.909 462.206H238.862L229.695 439.725H301.76L310.909 462.206Z" fill="#407BFF"/>
<path opacity="0.3" d="M310.909 462.206H238.862L229.695 439.725H301.76L310.909 462.206Z" fill="black"/>
<path d="M299.37 462.206H251.951L261.118 439.725H290.204L299.37 462.206Z" fill="#407BFF"/>
<path opacity="0.2" d="M299.37 462.206H251.951L261.118 439.725H290.204L299.37 462.206Z" fill="#FAFAFA"/>
<path d="M371.435 462.206H299.37L290.204 439.725H362.269L371.435 462.206Z" fill="#407BFF"/>
<path opacity="0.3" d="M371.435 462.206H299.37L290.204 439.725H362.269L371.435 462.206Z" fill="black"/>
<path d="M359.897 462.206H312.478L321.627 439.725H350.731L359.897 462.206Z" fill="#407BFF"/>
<path opacity="0.2" d="M359.897 462.206H312.478L321.627 439.725H350.731L359.897 462.206Z" fill="#FAFAFA"/>
<path d="M431.944 462.206H359.897L350.731 439.725H422.778L431.944 462.206Z" fill="#407BFF"/>
<path opacity="0.3" d="M431.944 462.206H359.897L350.731 439.725H422.778L431.944 462.206Z" fill="black"/>
<path d="M420.406 462.206H372.987L382.153 439.725H411.24L420.406 462.206Z" fill="#407BFF"/>
<path opacity="0.2" d="M420.406 462.206H372.987L382.153 439.725H411.24L420.406 462.206Z" fill="#FAFAFA"/>
<path d="M492.471 462.206H420.406L411.24 439.725H483.305L492.471 462.206Z" fill="#407BFF"/>
<path opacity="0.3" d="M492.471 462.206H420.406L411.24 439.725H483.305L492.471 462.206Z" fill="black"/>
<path d="M480.915 462.206H433.496L442.662 439.725H471.748L480.915 462.206Z" fill="#407BFF"/>
<path opacity="0.2" d="M480.915 462.206H433.496L442.662 439.725H471.748L480.915 462.206Z" fill="#FAFAFA"/>
<path d="M552.98 462.206H480.915L471.749 439.725H543.813L552.98 462.206Z" fill="#407BFF"/>
<path opacity="0.3" d="M552.98 462.206H480.915L471.749 439.725H543.813L552.98 462.206Z" fill="black"/>
<path d="M541.442 462.206H494.022L503.171 439.725H532.275L541.442 462.206Z" fill="#407BFF"/>
<path opacity="0.2" d="M541.442 462.206H494.022L503.171 439.725H532.275L541.442 462.206Z" fill="#FAFAFA"/>
<path d="M613.489 462.206H541.442L532.275 439.725H604.323L613.489 462.206Z" fill="#407BFF"/>
<path opacity="0.3" d="M613.489 462.206H541.442L532.275 439.725H604.323L613.489 462.206Z" fill="black"/>
</g>
</g>
<path d="M280.217 165.868C290.293 168.273 300.654 170.642 310.873 172.815C321.109 175.006 331.364 176.984 341.422 178.32L345.149 178.747L346.041 178.854L345.898 178.89C345.862 178.925 345.987 178.925 346.183 178.89C347.039 178.783 348.912 177.999 350.695 176.877C354.369 174.597 358.239 171.354 361.93 167.952C369.349 161.076 376.607 153.327 383.562 145.595L391.73 151.242C386.326 160.88 380.334 169.912 373.094 178.551C369.42 182.845 365.568 187.049 360.503 190.914C357.918 192.821 355.136 194.798 350.82 196.116C349.732 196.437 348.537 196.704 347.164 196.811C346.504 196.882 345.755 196.882 345.024 196.864L343.918 196.811L339.674 196.615C328.492 195.867 317.685 194.263 306.985 192.322C296.267 190.362 285.799 188.029 275.17 185.232L280.182 165.85L280.217 165.868Z" fill="white"/>
<path d="M264.898 184.056C271.978 194.352 314.885 198.325 314.885 198.325L317.507 170.945C317.507 170.945 299.709 164.514 283.944 162.305C253.717 158.101 257.123 172.762 264.898 184.056Z" fill="#407BFF"/>
<path opacity="0.2" d="M264.898 184.056C271.978 194.352 314.885 198.325 314.885 198.325L317.507 170.945C317.507 170.945 299.709 164.514 283.944 162.305C253.717 158.101 257.123 172.762 264.898 184.056Z" fill="white"/>
<path d="M381.886 149.069L385.292 136.457L397.044 141.498C397.044 141.498 392.086 155.09 387.61 154.413L381.886 149.069Z" fill="white"/>
<path d="M395.011 128.636L404.713 128.048L397.044 141.498L385.292 136.457L395.011 128.636Z" fill="white"/>
<path d="M293.646 165.44C293.646 165.44 310.641 205.326 298.39 279.593H227.68C226.824 268.745 231.799 215.854 219.548 164.763C219.548 164.763 231.585 162.341 243.124 161.771C252.147 161.343 265.219 161.04 273.191 161.771C283.695 162.732 293.646 165.44 293.646 165.44Z" fill="#407BFF"/>
<path opacity="0.2" d="M293.646 165.44C293.646 165.44 310.641 205.326 298.39 279.593H227.68C226.824 268.745 231.799 215.854 219.548 164.763C219.548 164.763 231.585 162.341 243.124 161.771C252.147 161.343 265.219 161.04 273.191 161.771C283.695 162.732 293.646 165.44 293.646 165.44Z" fill="white"/>
<path opacity="0.3" d="M221.759 174.989C225.397 193.48 226.984 211.846 227.609 227.968C229.303 220.967 232.138 207.731 232.852 196.276C233.601 184.394 229 176.895 221.759 174.989Z" fill="black"/>
<path d="M272.549 222.018C266.289 215.124 255.5 201.389 252.129 189.044L268.964 180.119L284.64 188.136C284.479 198.628 278.897 212.844 274.867 221.501C274.368 222.588 273.28 222.837 272.549 222.036V222.018Z" fill="#FAFAFA"/>
<path d="M244.925 127.959C247.154 137.614 249.668 155.322 243.124 161.77C243.124 161.77 245.941 169.769 263.917 169.769C283.677 169.769 273.191 161.77 273.191 161.77C262.312 159.205 262.312 151.207 263.935 143.689L244.943 127.941L244.925 127.959Z" fill="white"/>
<path opacity="0.2" d="M252.664 134.372L263.917 143.689C263.525 145.471 263.24 147.27 263.168 149.016C259.031 148.428 253.217 143.903 252.629 139.592C252.343 137.436 252.361 135.37 252.664 134.372Z" fill="black"/>
<path d="M273.993 122.419C276.918 119.925 278.238 105.015 272.477 97.8712C266.717 90.7277 261.849 108.043 261.849 108.043C261.849 108.043 264.417 130.614 273.993 122.419Z" fill="#263238"/>
<path d="M240.698 117.823C244.729 130.329 246.441 137.846 254.573 142.941C266.789 150.601 281.109 141.356 280.913 128.013C280.752 116.024 274.19 97.5684 260.369 95.2703C246.762 92.9901 236.668 105.318 240.698 117.823Z" fill="white"/>
<path d="M274.314 92.0993C274.707 91.369 274.939 90.5139 274.903 89.6232C274.814 86.8976 272.531 84.7777 269.802 84.8668C268.251 84.9202 266.913 85.6862 266.057 86.8442C264.06 84.6174 261.135 83.2635 257.925 83.3704C256.249 83.4238 254.68 83.887 253.289 84.6352C252.397 83.887 251.238 83.4417 249.99 83.4951C247.528 83.5842 245.567 85.4547 245.281 87.8061C244.782 87.7349 244.283 87.6814 243.766 87.6992C239.396 87.8418 235.972 91.5115 236.115 95.8759C236.115 95.9116 236.115 95.9294 236.115 95.965C235.812 95.9294 235.527 95.8937 235.223 95.9116C231.657 96.0363 228.875 99.0112 229 102.574C229 102.61 229 102.645 229 102.681C227.359 103.536 226.253 105.246 226.325 107.224C226.396 109.272 227.698 110.982 229.517 111.659C229.784 114.812 232.263 117.253 235.366 117.52C236.062 123.755 238.309 133.41 245.603 128.405C248.385 126.498 250.953 114.937 248.171 106.921C248.402 106.921 248.616 106.974 248.848 106.974C251.398 106.885 253.592 105.585 254.965 103.679C256.106 104.053 257.319 104.249 258.585 104.213C260.654 104.142 262.544 103.465 264.131 102.378C264.702 102.574 265.308 102.681 265.95 102.663C266.824 102.628 267.609 102.36 268.304 101.951C269.285 102.627 270.48 103.002 271.746 102.966C274.939 102.859 277.435 100.187 277.328 96.9804C277.257 94.8427 276.026 93.0435 274.261 92.0993H274.314Z" fill="#263238"/>
<path d="M238.487 133.072C241.055 135.584 244.514 136.742 247.439 136.742C251.844 136.742 252.736 132.573 250.399 129.099C248.313 125.964 243.498 122.187 239.592 123.862C235.758 125.519 235.544 130.186 238.469 133.072H238.487Z" fill="white"/>
<path d="M261.011 117.128C261.278 118.161 262.045 118.874 262.723 118.732C263.4 118.589 263.739 117.627 263.472 116.594C263.204 115.561 262.437 114.848 261.76 114.991C261.082 115.133 260.743 116.095 261.011 117.128Z" fill="#263238"/>
<path d="M272.781 114.563C273.048 115.596 273.815 116.309 274.493 116.166C275.17 116.024 275.509 115.062 275.242 114.029C274.974 112.995 274.207 112.283 273.53 112.425C272.852 112.568 272.513 113.53 272.781 114.563Z" fill="#263238"/>
<path d="M269.178 115.899C269.178 115.899 273.066 121.332 276.419 123.648C275.01 125.75 271.675 125.661 271.675 125.661L269.178 115.899Z" fill="#630F0F"/>
<path d="M267.163 129.402C263.543 129.402 261.331 127.371 261.224 127.282C261.1 127.158 261.1 126.962 261.224 126.837C261.349 126.712 261.545 126.712 261.67 126.837C261.706 126.873 264.666 129.563 269.232 128.565C269.392 128.529 269.571 128.636 269.606 128.797C269.642 128.957 269.535 129.135 269.374 129.171C268.608 129.349 267.876 129.42 267.199 129.42L267.163 129.402Z" fill="#263238"/>
<path d="M256.338 114.171C256.338 114.171 256.178 114.171 256.089 114.118C255.768 113.975 255.625 113.619 255.768 113.298C257.123 110.163 259.994 109.718 260.119 109.7C260.458 109.646 260.779 109.878 260.832 110.234C260.886 110.573 260.654 110.893 260.297 110.947C260.173 110.965 257.979 111.357 256.909 113.815C256.802 114.046 256.57 114.189 256.338 114.189V114.171Z" fill="#263238"/>
<path d="M276.757 109.45C276.579 109.45 276.401 109.379 276.276 109.219C274.475 107.063 272.21 107.206 272.103 107.223C271.764 107.259 271.461 106.992 271.425 106.653C271.39 106.315 271.639 106.012 271.996 105.976C272.121 105.976 275.01 105.745 277.239 108.417C277.453 108.684 277.417 109.076 277.168 109.29C277.043 109.379 276.9 109.432 276.775 109.432L276.757 109.45Z" fill="#263238"/>
<path d="M233.511 183.789L230.943 189.329C230.07 191.235 229.249 193.159 228.429 195.083C226.788 198.931 225.219 202.832 223.721 206.716C222.241 210.617 220.903 214.518 219.655 218.437C218.478 222.356 217.408 226.258 216.588 230.159L216.516 230.498C216.516 230.498 216.516 230.426 216.516 230.373C216.498 230.302 216.516 230.195 216.481 230.106C216.463 229.91 216.391 229.696 216.32 229.518C216.177 229.179 216.017 229.108 216.088 229.304C216.231 229.714 217.23 230.693 218.549 231.531C221.242 233.277 224.916 234.915 228.714 236.251C236.347 238.977 244.782 241.168 253.003 243.057L252.183 252.943C242.963 253.157 234.029 252.623 224.72 250.806C220.083 249.808 215.375 248.668 210.364 246.21C207.867 244.909 205.192 243.377 202.517 240.402C201.197 238.924 199.931 236.911 199.164 234.47C198.79 233.259 198.558 231.958 198.487 230.658C198.469 230.017 198.451 229.357 198.504 228.752L198.594 227.825L198.647 227.344C199.788 217.832 202.089 208.8 204.978 200.089C206.422 195.724 208.027 191.449 209.793 187.245C210.685 185.143 211.594 183.058 212.557 180.974C213.502 178.854 214.483 176.895 215.642 174.668L233.476 183.789H233.511Z" fill="white"/>
<path d="M219.548 164.746C207.1 166.563 194.278 212.327 194.278 212.327L224.363 223.764C224.363 223.764 231.924 204.097 237.096 188.795C242.517 172.78 232.887 162.786 219.548 164.746Z" fill="#407BFF"/>
<path opacity="0.2" d="M219.548 164.746C207.1 166.563 194.278 212.327 194.278 212.327L224.363 223.764C224.363 223.764 231.924 204.097 237.096 188.795C242.517 172.78 232.887 162.786 219.548 164.746Z" fill="white"/>
<path d="M238.541 615.515H251.755L253.467 584.928H240.253L238.541 615.515Z" fill="white"/>
<path opacity="0.2" d="M240.253 584.946H253.467L252.575 600.711H239.361L240.253 584.946Z" fill="black"/>
<path d="M252.451 613.983H237.595C237.06 613.983 236.65 614.357 236.614 614.891L235.901 626.631C235.83 627.842 236.971 629 238.219 628.982C243.391 628.893 245.852 628.59 252.397 628.59C256.41 628.59 273.494 629 279.058 629C284.622 629 284.444 623.514 282.09 623.015C271.55 620.788 258.478 617.724 254.733 614.785C254.056 614.25 253.253 613.965 252.451 613.965V613.983Z" fill="#263238"/>
<path d="M257.141 616.281C258.157 616.281 259.084 616.103 259.619 615.586C260.03 615.176 260.154 614.624 259.994 613.929C259.905 613.502 259.655 613.217 259.281 613.074C257.676 612.451 253.931 614.998 253.52 615.283C253.431 615.354 253.378 615.461 253.396 615.586C253.413 615.693 253.503 615.8 253.627 615.818C254.573 616.031 255.928 616.281 257.141 616.281ZM258.656 613.555C258.817 613.555 258.942 613.573 259.067 613.626C259.245 613.698 259.37 613.84 259.405 614.072C259.512 614.571 259.441 614.927 259.191 615.176C258.567 615.8 256.82 615.871 254.43 615.39C255.607 614.642 257.551 613.555 258.656 613.555Z" fill="#407BFF"/>
<path d="M253.681 615.818C253.681 615.818 253.788 615.818 253.842 615.782C255.161 614.998 257.123 612.255 256.82 610.812C256.713 610.295 256.32 609.957 255.714 609.886C255.215 609.832 254.769 609.975 254.412 610.313C253.075 611.596 253.378 615.39 253.396 615.551C253.396 615.658 253.467 615.747 253.556 615.782C253.592 615.8 253.645 615.818 253.699 615.818H253.681ZM255.482 610.456C255.482 610.456 255.571 610.456 255.625 610.456C256.089 610.509 256.178 610.723 256.231 610.919C256.445 611.934 255.054 614.019 253.949 614.945C253.913 613.698 254.02 611.489 254.822 610.723C255.019 610.545 255.233 610.456 255.5 610.456H255.482Z" fill="#407BFF"/>
<path d="M356.009 582.897L369.046 580.635L365.497 550.208L352.46 552.47L356.009 582.897Z" fill="white"/>
<path opacity="0.2" d="M352.46 552.47L365.497 550.208L367.316 565.902L354.279 568.165L352.46 552.47Z" fill="black"/>
<path d="M369.117 579.031L354.44 576.805C353.905 576.716 353.441 577.036 353.334 577.553L350.855 589.043C350.606 590.236 351.551 591.555 352.781 591.715C357.899 592.41 360.396 592.481 366.852 593.461C370.829 594.067 387.646 597.041 393.138 597.879C398.506 598.698 399.291 593.265 397.044 592.428C386.95 588.633 374.502 583.645 371.257 580.189C370.668 579.566 369.901 579.156 369.134 579.049L369.117 579.031Z" fill="#263238"/>
<path d="M298.389 279.575C298.389 279.575 339.371 375.362 347.699 412.309C356.812 452.765 372.256 561.164 372.256 561.164L348.394 565.297C348.394 565.297 326.441 464.041 313.762 425.028C300.012 382.684 245.103 279.558 245.103 279.558H298.389V279.575Z" fill="#263238"/>
<path opacity="0.3" d="M264.577 300.757L263.614 315.24C269.802 327.424 276.936 341.64 283.909 356.07C287.047 341.783 279.094 307.455 264.577 300.757Z" fill="black"/>
<path d="M274.724 279.575C274.724 279.575 274.493 380.51 272.353 418.312C269.999 459.712 258.246 596.899 258.246 596.899H234.028C234.028 596.899 234.76 463.061 233.297 422.071C231.71 377.571 227.608 279.575 227.608 279.575H274.724Z" fill="#263238"/>
<path d="M233.066 597.131H259.227L260.689 587.938L231.799 589.381L233.066 597.131Z" fill="#407BFF"/>
<path opacity="0.3" d="M233.066 597.131H259.227L260.689 587.938L231.799 589.381L233.066 597.131Z" fill="black"/>
<path d="M347.431 565.493L373.218 561.003L373.076 551.722L344.863 558.064L347.431 565.493Z" fill="#407BFF"/>
<path opacity="0.3" d="M347.431 565.493L373.218 561.003L373.076 551.722L344.863 558.064L347.431 565.493Z" fill="black"/>
<path d="M373.415 582.006C374.431 582.167 375.377 582.131 375.965 581.686C376.429 581.347 376.643 580.813 376.589 580.1C376.554 579.673 376.357 579.334 376.019 579.138C374.521 578.283 370.437 580.225 369.991 580.457C369.884 580.51 369.813 580.617 369.83 580.742C369.83 580.866 369.902 580.955 370.009 581.009C370.918 581.365 372.22 581.828 373.415 582.006ZM375.341 579.53C375.484 579.548 375.626 579.601 375.733 579.655C375.912 579.762 376.001 579.904 376.019 580.136C376.054 580.635 375.929 580.991 375.626 581.205C374.913 581.721 373.165 581.525 370.883 580.706C372.149 580.154 374.253 579.37 375.341 579.53Z" fill="#407BFF"/>
<path d="M370.062 581.026C370.062 581.026 370.169 581.026 370.222 581.009C371.631 580.439 374.003 578.016 373.914 576.537C373.878 576.003 373.539 575.629 372.951 575.451C372.469 575.308 372.006 575.397 371.596 575.682C370.08 576.751 369.812 580.546 369.794 580.706C369.794 580.813 369.83 580.902 369.919 580.973C369.955 581.009 370.008 581.026 370.044 581.026H370.062ZM372.666 576.003C372.666 576.003 372.755 576.003 372.808 576.038C373.254 576.163 373.325 576.395 373.325 576.573C373.379 577.606 371.685 579.459 370.454 580.207C370.597 578.96 371.043 576.805 371.952 576.163C372.166 576.003 372.398 575.949 372.648 575.985L372.666 576.003Z" fill="#407BFF"/>
<path d="M251.149 242.932L261.991 239.957L263.472 253.656C263.472 253.656 252.736 256.862 250.114 251.233L251.149 242.932Z" fill="white"/>
<path d="M271.817 241.845L271.175 254.19L263.471 253.656L261.991 239.957L271.817 241.845Z" fill="white"/>
<path d="M452.666 565.315C395.706 556.746 352.442 450.395 352.442 327.228C352.442 204.061 395.706 97.7107 452.666 89.1421L505.739 81.1614V573.295L452.666 565.315Z" fill="#407BFF"/>
<path opacity="0.3" d="M452.666 565.315C395.706 556.746 352.442 450.395 352.442 327.228C352.442 204.061 395.706 97.7107 452.666 89.1421L505.739 81.1614V573.295L452.666 565.315Z" fill="black"/>
<path d="M505.739 573.313C557.122 573.313 598.776 463.145 598.776 327.246C598.776 191.347 557.122 81.1792 505.739 81.1792C454.356 81.1792 412.702 191.347 412.702 327.246C412.702 463.145 454.356 573.313 505.739 573.313Z" fill="#407BFF"/>
<path opacity="0.2" d="M522.966 205.112C494.503 205.112 471.445 259.784 471.445 327.228C471.445 394.673 494.503 449.327 522.966 449.327C551.428 449.327 574.487 394.673 574.487 327.228C574.487 259.784 551.428 205.112 522.966 205.112ZM564.054 327.246C564.054 346.628 560.915 364.282 555.779 377.518L540.835 326.266L555.423 276.084C560.773 289.409 564.054 307.419 564.054 327.246ZM532.703 252.943C538.98 252.943 544.83 257.326 549.734 264.861L536.412 311.017L521.04 258.288C524.642 254.849 528.583 252.943 532.721 252.943H532.703ZM501.369 327.246C501.369 302.128 506.63 279.95 514.673 266.5L531.989 326.32L514.352 387.458C506.488 373.955 501.369 352.026 501.369 327.246ZM532.703 401.549C528.423 401.549 524.357 399.5 520.63 395.831L536.394 341.551L550.144 389.008C545.15 396.935 539.158 401.549 532.703 401.549Z" fill="#FAFAFA"/>
<path opacity="0.4" d="M508.271 567.078C466.362 567.078 421.476 470.703 421.476 327.246C421.476 183.789 466.345 87.4141 508.271 87.4141C550.197 87.4141 595.066 183.789 595.066 327.246C595.066 470.703 550.197 567.078 508.271 567.078ZM508.271 89.1955C467.218 89.1955 423.259 184.858 423.259 327.246C423.259 469.635 467.218 565.297 508.271 565.297C549.324 565.297 593.283 469.635 593.283 327.246C593.283 184.858 549.324 89.1955 508.271 89.1955Z" fill="#FAFAFA"/>
</g>
<defs>
<clipPath id="clip0_974_1401">
<rect width="672" height="629" fill="white"/>
</clipPath>
</defs>
</svg>
