<svg width="539" height="457" viewBox="0 0 539 457" fill="none" xmlns="http://www.w3.org/2000/svg">
<path d="M234.876 21.2304L249.221 19.1179L234.876 17.0192L238.42 11.4043L232.805 14.9622L230.706 0.605225L228.607 14.9622L222.992 11.4043L226.55 17.0192L212.192 19.1179L226.55 21.2304L222.992 26.8315L228.607 23.2874L230.706 37.6444L232.805 23.2874L238.42 26.8315L234.876 21.2304Z" fill="#F5F5F5"/>
<path d="M379.196 59.5344L393.555 57.4357L379.196 55.3371L382.754 49.7221L377.139 53.2801L375.04 38.9231L372.941 53.2801L367.326 49.7221L370.87 55.3371L356.526 57.4357L370.87 59.5344L367.326 65.1493L372.941 61.6052L375.04 75.9484L377.139 61.6052L382.754 65.1493L379.196 59.5344Z" fill="#F5F5F5"/>
<path d="M177.346 121.799L191.704 119.7L177.346 117.602L180.904 111.987L175.289 115.545L173.19 101.188L171.091 115.545L165.476 111.987L169.02 117.602L154.662 119.7L169.02 121.799L165.476 127.414L171.091 123.87L173.19 138.213L175.289 123.87L180.904 127.414L177.346 121.799Z" fill="#F5F5F5"/>
<path d="M55.974 121.799L70.3323 119.7L55.974 117.602L59.5323 111.987L53.9169 115.545L51.818 101.188L49.7192 115.545L44.1037 111.987L47.6481 117.602L33.3037 119.7L47.6481 121.799L44.1037 127.414L49.7192 123.87L51.818 138.213L53.9169 123.87L59.5323 127.414L55.974 121.799Z" fill="#F5F5F5"/>
<path d="M124.735 207.26L139.094 205.162L124.735 203.063L128.28 197.448L122.678 200.992L120.579 186.649L118.467 200.992L112.865 197.448L116.41 203.063L102.051 205.162L116.41 207.26L112.865 212.875L118.467 209.317L120.579 223.674L122.678 209.317L128.28 212.875L124.735 207.26Z" fill="#F5F5F5"/>
<path d="M406.773 161.257L421.131 159.158L406.773 157.045L410.331 151.444L404.716 154.988L402.617 140.631L400.518 154.988L394.903 151.444L398.447 157.045L384.103 159.158L398.447 161.257L394.903 166.858L400.518 163.313L402.617 177.671L404.716 163.313L410.331 166.858L406.773 161.257Z" fill="#F5F5F5"/>
<path d="M508.032 288.455L522.39 286.356L508.032 284.257L511.59 278.642L505.974 282.186L503.876 267.829L501.777 282.186L496.161 278.642L499.72 284.257L485.361 286.356L499.72 288.455L496.161 294.069L501.777 290.512L503.876 304.869L505.974 290.512L511.59 294.069L508.032 288.455Z" fill="#F5F5F5"/>
<path d="M388.258 284.035L402.617 281.936L388.258 279.838L391.803 274.223L386.201 277.781L384.102 263.424L381.99 277.781L376.388 274.223L379.933 279.838L365.574 281.936L379.933 284.035L376.388 289.65L381.99 286.106L384.102 300.463L386.201 286.106L391.803 289.65L388.258 284.035Z" fill="#F5F5F5"/>
<path d="M124.735 313.944L139.094 311.845L124.735 309.733L128.28 304.132L122.678 307.676L120.579 293.319L118.467 307.676L112.865 304.132L116.41 309.733L102.051 311.845L116.41 313.944L112.865 319.559L118.467 316.001L120.579 330.358L122.678 316.001L128.28 319.559L124.735 313.944Z" fill="#F5F5F5"/>
<path d="M280.745 248.691L295.103 246.592L280.745 244.494L284.303 238.879L278.688 242.437L276.589 228.08L274.476 242.437L268.874 238.879L272.419 244.494L258.061 246.592L272.419 248.691L268.874 254.306L274.476 250.762L276.589 265.119L278.688 250.762L284.303 254.306L280.745 248.691Z" fill="#F5F5F5"/>
<path d="M199.293 403.297L213.638 401.184L199.293 399.086L202.837 393.471L197.222 397.029L195.123 382.672L193.024 397.029L187.409 393.471L190.967 399.086L176.609 401.184L190.967 403.297L187.409 408.898L193.024 405.354L195.123 419.711L197.222 405.354L202.837 408.898L199.293 403.297Z" fill="#F5F5F5"/>
<path d="M359.014 393.929L373.372 391.817L359.014 389.718L362.558 384.103L356.943 387.661L354.844 373.304L352.745 387.661L347.13 384.103L350.688 389.718L336.33 391.817L350.688 393.929L347.13 399.53L352.745 395.986L354.844 410.343L356.943 395.986L362.558 399.53L359.014 393.929Z" fill="#F5F5F5"/>
<path d="M360.821 134.766C352.286 122.133 348.631 102.313 340.805 94.5165C347.824 89.1656 354.107 85.2741 360.028 82.1331C364.824 95.9341 367.673 117.352 380.044 122.383C373.025 127.734 366.728 131.625 360.821 134.766Z" fill="#EBEBEB"/>
<path d="M375.276 124.745C374.081 123.953 374.387 122.397 375.846 121.424C367.284 114.53 364.212 98.5331 360.334 86.5388C359.028 87.1782 357.54 86.4832 357.012 85.01C353.273 87.0948 349.354 89.4853 345.198 92.39C345.906 93.5019 345.295 95.2531 343.808 96.2538C349.59 104.44 353.12 119.547 359.472 130.833C360.765 130.208 362.53 130.805 363.503 132.028C363.503 132.028 363.503 132.028 363.517 132.042C367.256 129.985 371.148 127.595 375.29 124.732C375.29 124.732 375.29 124.732 375.276 124.732V124.745ZM354.455 110.708C353.204 107.331 354.357 103.662 356.957 102.466C359.556 101.271 362.475 103.259 363.698 106.719C364.921 110.166 363.962 113.766 361.391 114.905C358.819 116.045 355.706 114.113 354.455 110.708Z" fill="#E0E0E0"/>
<path d="M356.873 110.43C356.651 110.527 356.414 110.625 356.192 110.722C356.108 110.5 356.025 110.277 355.956 110.041C356.178 109.944 356.414 109.846 356.637 109.749C356.386 108.929 356.303 108.054 356.442 107.512C356.692 107.539 356.942 107.581 357.193 107.609C357.081 108.123 357.123 108.818 357.304 109.457C357.707 109.277 358.124 109.11 358.527 108.929C358.374 107.942 358.249 106.858 359.097 106.483C359.722 106.219 360.473 106.594 361.015 107.859C361.251 107.762 361.474 107.664 361.71 107.567C361.793 107.789 361.877 108.026 361.946 108.248C361.724 108.345 361.488 108.443 361.265 108.54C361.46 109.165 361.543 109.846 361.502 110.375C361.251 110.347 361.001 110.333 360.765 110.305C360.793 109.791 360.737 109.277 360.612 108.818C360.195 108.999 359.792 109.165 359.375 109.346C359.528 110.333 359.695 111.431 358.833 111.792C358.207 112.056 357.443 111.667 356.887 110.416L356.873 110.43ZM359.25 108.623C359.611 108.471 359.973 108.318 360.334 108.151C360.056 107.595 359.75 107.428 359.486 107.553C359.194 107.678 359.18 108.095 359.25 108.623ZM358.374 110.764C358.68 110.639 358.68 110.208 358.61 109.666C358.249 109.819 357.888 109.972 357.526 110.124C357.804 110.708 358.11 110.875 358.374 110.75V110.764Z" fill="#E0E0E0"/>
<path d="M166.712 93.3075C154.481 99.8953 135.966 100.729 128.238 107.275C123.776 99.6729 120.621 92.9878 118.119 86.7752C131.171 83.9956 151.117 84.1901 156.593 72.8074C161.055 80.4098 164.21 87.0949 166.712 93.3075Z" fill="#EBEBEB"/>
<path d="M158.456 77.7968C157.65 78.8531 156.232 78.3388 155.44 76.7822C148.504 84.1901 133.534 84.9823 122.22 87.1087C122.72 88.4708 121.97 89.8328 120.58 90.1386C122.248 94.0857 124.193 98.2413 126.584 102.703C127.655 102.161 129.225 103.008 130.059 104.593C138.01 100.076 152.173 98.7139 163.015 94.0857C162.529 92.7376 163.196 91.0976 164.391 90.3192C164.391 90.3192 164.391 90.3192 164.405 90.3192C162.751 86.386 160.833 82.2443 158.456 77.7968C158.456 77.7968 158.456 77.7968 158.456 77.8107V77.7968ZM144.112 96.1844C140.915 96.9349 137.607 95.2949 136.675 92.5986C135.744 89.9023 137.787 87.3172 141.054 86.6084C144.306 85.8996 147.559 87.3172 148.448 89.9996C149.324 92.6681 147.336 95.4477 144.112 96.1844Z" fill="#E0E0E0"/>
<path d="M144 93.7939C144.084 94.0302 144.153 94.2664 144.223 94.5027C144.014 94.5444 143.792 94.6 143.583 94.6417C143.5 94.4054 143.431 94.1691 143.361 93.9329C142.583 94.058 141.776 94.0163 141.276 93.8217C141.318 93.5854 141.373 93.3491 141.415 93.099C141.874 93.2797 142.527 93.3352 143.139 93.2519C143 92.8349 142.875 92.4041 142.736 91.9871C141.818 92.001 140.804 91.9732 140.526 91.0837C140.317 90.4305 140.72 89.7495 141.929 89.402C141.86 89.1657 141.776 88.9295 141.707 88.6932C141.915 88.6515 142.138 88.5959 142.346 88.5542C142.416 88.7905 142.499 89.0267 142.569 89.263C143.153 89.1657 143.792 89.1657 144.278 89.2908C144.237 89.5271 144.195 89.7634 144.167 89.9996C143.695 89.9023 143.222 89.8884 142.791 89.944C142.93 90.3749 143.055 90.7918 143.194 91.2227C144.126 91.2088 145.14 91.2088 145.418 92.0844C145.627 92.7237 145.21 93.4186 144.014 93.7939H144ZM142.499 91.2227C142.374 90.8474 142.263 90.4722 142.138 90.0969C141.596 90.2915 141.443 90.5695 141.526 90.8474C141.624 91.1532 141.999 91.2227 142.499 91.2366V91.2227ZM144.417 92.3624C144.32 92.0566 143.931 91.9871 143.417 91.9732C143.542 92.3485 143.653 92.7237 143.778 93.099C144.334 92.9044 144.501 92.6264 144.417 92.3624Z" fill="#E0E0E0"/>
<path d="M320.553 219.782C315.814 206.718 317.704 188.275 312.353 179.686C320.526 176.392 327.6 174.238 334.105 172.667C334.953 185.982 331.854 205.69 342.306 212.764C334.133 216.058 327.058 218.212 320.553 219.782Z" fill="#EBEBEB"/>
<path d="M337.108 213.876C336.177 212.917 336.899 211.596 338.554 211.04C332.243 203.104 333.647 188.178 333.202 176.67C331.784 176.962 330.547 176.03 330.436 174.613C326.294 175.683 321.888 177.003 317.134 178.713C317.509 179.852 316.453 181.284 314.757 181.868C318.065 190.387 317.343 204.605 320.345 216.002C321.749 215.71 323.278 216.614 323.875 217.92C323.875 217.92 323.875 217.92 323.875 217.934C328.004 216.878 332.382 215.571 337.122 213.89C337.122 213.89 337.122 213.89 337.108 213.876ZM320.998 196.989C320.72 193.709 322.819 190.679 325.627 190.165C328.435 189.651 330.7 192.027 330.909 195.377C331.145 198.699 329.255 201.715 326.475 202.187C323.709 202.66 321.248 200.283 320.984 196.989H320.998Z" fill="#E0E0E0"/>
<path d="M323.389 197.239C323.152 197.281 322.902 197.323 322.652 197.364C322.638 197.142 322.624 196.933 322.61 196.711C322.861 196.669 323.097 196.628 323.347 196.586C323.333 195.794 323.5 195.016 323.764 194.543C324 194.626 324.223 194.71 324.459 194.793C324.223 195.224 324.07 195.863 324.07 196.475C324.501 196.405 324.945 196.336 325.376 196.266C325.488 195.349 325.668 194.362 326.586 194.209C327.253 194.098 327.864 194.599 328.045 195.836C328.295 195.794 328.545 195.752 328.782 195.71C328.796 195.933 328.81 196.155 328.823 196.364C328.587 196.405 328.337 196.447 328.101 196.475C328.101 197.072 328.017 197.698 327.823 198.157C327.586 198.087 327.364 198.004 327.128 197.934C327.295 197.476 327.378 197.017 327.392 196.586C326.947 196.656 326.516 196.725 326.071 196.795C325.946 197.712 325.807 198.726 324.89 198.865C324.223 198.977 323.597 198.462 323.403 197.225L323.389 197.239ZM326.155 196.127C326.544 196.058 326.933 196.002 327.322 195.947C327.211 195.391 326.961 195.182 326.669 195.238C326.363 195.293 326.224 195.655 326.155 196.141V196.127ZM324.737 197.865C325.057 197.809 325.182 197.434 325.265 196.933C324.876 197.003 324.487 197.059 324.098 197.128C324.209 197.698 324.459 197.92 324.737 197.865Z" fill="#E0E0E0"/>
<path d="M505.182 166.594C494.799 157.365 487.682 140.242 478.87 135.239C484.486 128.442 489.684 123.189 494.66 118.714C501.735 130.013 508.393 148.817 520.972 150.068C515.357 156.865 510.158 162.118 505.182 166.594Z" fill="#EBEBEB"/>
<path d="M516.927 153.515C515.663 153.112 515.649 151.611 516.858 150.332C507.517 146.357 501.652 132.57 495.786 122.661C494.688 123.592 493.145 123.356 492.381 122.16C489.239 125.079 486.001 128.331 482.637 132.098C483.513 132.918 483.262 134.683 482.053 136.003C489.017 141.924 495.147 154.766 503.222 163.355C504.32 162.438 506.086 162.507 507.239 163.355C507.239 163.355 507.239 163.355 507.253 163.355C510.381 160.464 513.605 157.226 516.983 153.487C516.983 153.487 516.983 153.487 516.969 153.487L516.927 153.515ZM494.73 146.33C492.923 143.578 493.326 139.923 495.55 138.116C497.774 136.323 500.901 137.351 502.68 140.173C504.473 142.994 504.237 146.538 502.027 148.275C499.817 150.013 496.523 149.095 494.73 146.316V146.33Z" fill="#E0E0E0"/>
<path d="M496.94 145.426C496.745 145.579 496.55 145.732 496.356 145.885C496.245 145.704 496.12 145.524 496.008 145.329C496.203 145.176 496.398 145.023 496.592 144.87C496.203 144.189 495.967 143.411 495.981 142.883C496.231 142.841 496.467 142.813 496.703 142.772C496.703 143.272 496.87 143.897 497.148 144.439C497.496 144.162 497.843 143.897 498.205 143.619C497.871 142.758 497.551 141.799 498.288 141.229C498.83 140.812 499.608 140.965 500.345 141.966C500.54 141.813 500.748 141.66 500.943 141.507C501.054 141.688 501.179 141.882 501.29 142.063C501.096 142.216 500.901 142.369 500.706 142.508C500.998 143.022 501.207 143.619 501.262 144.12C501.026 144.162 500.79 144.203 500.554 144.259C500.484 143.772 500.331 143.328 500.137 142.938C499.775 143.216 499.428 143.48 499.08 143.758C499.414 144.62 499.761 145.579 499.025 146.135C498.496 146.552 497.69 146.399 496.94 145.398V145.426ZM498.844 143.133C499.15 142.897 499.469 142.647 499.775 142.41C499.414 141.966 499.094 141.91 498.872 142.091C498.622 142.285 498.691 142.674 498.844 143.133ZM498.427 145.329C498.691 145.134 498.608 144.745 498.441 144.259C498.135 144.495 497.815 144.731 497.51 144.982C497.885 145.426 498.205 145.51 498.427 145.329Z" fill="#E0E0E0"/>
<path d="M258.964 139.186C249.638 151.208 241.117 164.078 237.35 177.823C231.068 175.224 224.618 172.597 218.322 169.568C223.256 155.266 231.777 142.73 239.936 130.93C246.218 133.529 252.668 136.156 258.964 139.186Z" fill="#EBEBEB"/>
<path d="M242.854 133.321C241.937 134.613 240.075 135.169 238.671 134.572C231.943 144.384 225.216 154.766 220.685 166.26C222.088 166.941 222.756 168.692 222.241 170.207C226.175 172.014 230.15 173.696 234.084 175.336C234.529 173.848 236.099 173.154 237.489 173.751C241.312 162.563 248.025 152 255.475 142.007C254.071 141.34 253.71 139.742 254.697 138.449C254.697 138.449 254.697 138.449 254.711 138.435C250.777 136.629 246.802 134.961 242.868 133.321C242.868 133.321 242.868 133.321 242.854 133.335V133.321ZM241.631 156.059C239.991 158.894 236.516 160.214 233.695 158.908C230.873 157.601 229.844 154.154 231.498 151.333C233.139 148.512 236.822 147.33 239.644 148.609C242.465 149.902 243.285 153.209 241.631 156.059Z" fill="#E0E0E0"/>
<path d="M239.574 154.405C239.824 154.516 240.074 154.641 240.325 154.752C240.213 154.933 240.102 155.127 240.005 155.308C239.755 155.197 239.505 155.072 239.254 154.961C238.824 155.614 238.24 156.156 237.739 156.378C237.573 156.17 237.406 155.961 237.239 155.753C237.698 155.544 238.184 155.113 238.532 154.627C238.087 154.418 237.642 154.21 237.183 154.002C236.558 154.669 235.863 155.377 234.932 154.947C234.251 154.627 233.931 153.835 234.445 152.723C234.195 152.598 233.945 152.487 233.681 152.362C233.792 152.181 233.903 151.986 234 151.806C234.251 151.917 234.501 152.042 234.751 152.153C235.071 151.667 235.515 151.222 235.974 150.972C236.141 151.166 236.322 151.361 236.488 151.569C236.071 151.833 235.724 152.153 235.474 152.5C235.919 152.709 236.377 152.917 236.836 153.126C237.461 152.459 238.184 151.75 239.115 152.181C239.797 152.501 240.088 153.279 239.56 154.391L239.574 154.405ZM236.377 153.626C235.974 153.446 235.585 153.251 235.182 153.07C234.973 153.585 235.098 153.904 235.39 154.043C235.71 154.196 236.03 153.974 236.377 153.626ZM238.671 153.084C238.337 152.931 238.003 153.154 237.656 153.515C238.059 153.696 238.448 153.876 238.851 154.071C239.074 153.543 238.963 153.223 238.671 153.084Z" fill="#E0E0E0"/>
<path d="M495.967 210.457C486.64 222.479 478.12 235.349 474.353 249.094C468.07 246.495 461.621 243.869 455.324 240.839C460.259 226.537 468.779 214.001 476.938 202.201C483.221 204.8 489.67 207.427 495.967 210.457Z" fill="#EBEBEB"/>
<path d="M479.857 204.592C478.94 205.884 477.077 206.44 475.673 205.843C468.946 215.655 462.218 226.037 457.687 237.531C459.091 238.212 459.758 239.963 459.244 241.478C463.177 243.285 467.153 244.967 471.086 246.607C471.531 245.119 473.102 244.425 474.492 245.022C478.314 233.834 485.028 223.271 492.478 213.278C491.074 212.611 490.713 211.013 491.699 209.72C491.699 209.72 491.699 209.72 491.713 209.706C487.78 207.9 483.804 206.232 479.871 204.592C479.871 204.592 479.871 204.592 479.857 204.606V204.592ZM478.634 227.33C476.994 230.165 473.519 231.485 470.697 230.179C467.875 228.872 466.847 225.425 468.501 222.604C470.141 219.783 473.825 218.601 476.646 219.88C479.468 221.173 480.288 224.48 478.634 227.33Z" fill="#E0E0E0"/>
<path d="M476.577 225.676C476.827 225.787 477.077 225.912 477.327 226.023C477.216 226.204 477.105 226.398 477.008 226.579C476.757 226.468 476.507 226.343 476.257 226.232C475.826 226.885 475.242 227.427 474.742 227.649C474.575 227.441 474.408 227.232 474.242 227.024C474.7 226.815 475.187 226.384 475.534 225.898C475.09 225.689 474.645 225.481 474.186 225.273C473.561 225.94 472.866 226.648 471.934 226.218C471.253 225.898 470.934 225.106 471.448 223.994C471.198 223.869 470.947 223.758 470.697 223.633C470.808 223.452 470.92 223.257 471.017 223.077C471.267 223.188 471.517 223.313 471.768 223.424C472.087 222.938 472.532 222.493 472.991 222.243C473.157 222.437 473.338 222.632 473.505 222.84C473.088 223.104 472.74 223.424 472.49 223.771C472.935 223.98 473.394 224.188 473.852 224.397C474.478 223.73 475.201 223.021 476.132 223.452C476.813 223.771 477.105 224.55 476.577 225.662V225.676ZM473.38 224.897C472.977 224.717 472.588 224.522 472.184 224.341C471.976 224.856 472.101 225.175 472.393 225.314C472.713 225.467 473.032 225.245 473.38 224.897ZM475.673 224.355C475.34 224.202 475.006 224.425 474.659 224.786C475.062 224.967 475.451 225.147 475.854 225.342C476.076 224.814 475.965 224.494 475.673 224.355Z" fill="#E0E0E0"/>
<path d="M106.04 255.001C100.759 269.622 82.4667 269.33 76.3787 281.728C70.7354 276.766 65.1894 272.04 59.7964 267.746C65.0921 253.125 83.3702 253.417 89.4582 241.019C95.0876 245.981 100.647 250.706 106.04 255.001Z" fill="#EBEBEB"/>
<path d="M92.1549 244.744C91.446 246.037 89.6946 246.023 88.4298 244.883C81.8414 253.472 68.4699 254.89 62.4097 264.925C63.6467 265.953 63.9803 267.815 63.3131 269.219C66.7186 272.027 70.1796 274.973 73.6823 278.031C74.3911 276.738 76.1286 276.738 77.4074 277.878C83.9819 269.275 97.3672 267.857 103.427 257.836C102.19 256.808 101.857 254.959 102.524 253.556C102.524 253.556 102.524 253.542 102.524 253.528C99.1186 250.72 95.6576 247.774 92.1549 244.716C92.1549 244.716 92.1549 244.716 92.1549 244.73V244.744ZM87.2205 265.606C84.5657 266.995 80.3402 266.217 77.6993 263.84C75.0583 261.45 74.9888 258.267 77.6437 256.85C80.2985 255.446 84.5379 256.252 87.1788 258.629C89.8197 261.019 89.8753 264.202 87.2205 265.592V265.606Z" fill="#E0E0E0"/>
<path d="M85.4966 263.284C85.7329 263.507 85.9692 263.715 86.2055 263.938C86.0248 264.035 85.858 264.118 85.6912 264.216C85.4549 264.007 85.2186 263.785 84.9823 263.576C84.329 263.868 83.5229 264.007 82.8974 263.924C82.7862 263.674 82.6611 263.437 82.536 263.187C83.092 263.257 83.7592 263.173 84.2873 262.951C83.8703 262.562 83.4395 262.173 83.0225 261.797C82.1468 262.02 81.1599 262.2 80.2842 261.408C79.631 260.824 79.5337 260.046 80.4371 259.435C80.2008 259.212 79.9645 259.004 79.7144 258.781C79.8812 258.684 80.0619 258.601 80.2286 258.503C80.4649 258.712 80.7012 258.934 80.9375 259.143C81.4379 258.92 82.0495 258.795 82.6194 258.809C82.7445 259.045 82.8696 259.296 82.9947 259.532C82.4665 259.532 81.9939 259.615 81.6186 259.768C82.0495 260.157 82.4804 260.546 82.8974 260.936C83.773 260.727 84.7599 260.519 85.6495 261.325C86.3028 261.909 86.3723 262.687 85.4827 263.298L85.4966 263.284ZM82.258 261.089C81.8827 260.741 81.5074 260.394 81.1321 260.06C80.7429 260.366 80.7846 260.672 81.0626 260.922C81.3684 261.2 81.7854 261.186 82.258 261.089ZM84.8989 261.797C84.5792 261.519 84.1622 261.533 83.6758 261.631C84.051 261.978 84.4263 262.312 84.8016 262.659C85.1908 262.353 85.1769 262.047 84.8989 261.797Z" fill="#E0E0E0"/>
<path d="M269.5 457C418.341 457 539 449.956 539 441.267C539 432.578 418.341 425.534 269.5 425.534C120.659 425.534 0 432.578 0 441.267C0 449.956 120.659 457 269.5 457Z" fill="#F5F5F5"/>
<path d="M275.088 94.4889C262.856 101.077 244.342 101.911 236.614 108.457C232.152 100.854 228.997 94.1692 226.495 87.9566C239.546 85.177 259.492 85.3715 264.969 73.9888C269.431 81.5912 272.586 88.2763 275.088 94.4889Z" fill="#407BFF"/>
<path opacity="0.5" d="M275.088 94.4889C262.856 101.077 244.342 101.911 236.614 108.457C232.152 100.854 228.997 94.1692 226.495 87.9566C239.546 85.177 259.492 85.3715 264.969 73.9888C269.431 81.5912 272.586 88.2763 275.088 94.4889Z" fill="white"/>
<path opacity="0.2" d="M266.817 78.9782C266.011 80.0345 264.593 79.5202 263.801 77.9636C256.865 85.3715 241.895 86.1637 230.581 88.2901C231.081 89.6522 230.331 91.0142 228.941 91.32C230.609 95.2671 232.555 99.4227 234.946 103.884C236.016 103.342 237.586 104.19 238.42 105.774C246.371 101.257 260.535 99.8953 271.376 95.2671C270.89 93.919 271.557 92.2789 272.753 91.5006C272.753 91.5006 272.753 91.5006 272.766 91.5006C271.112 87.5674 269.194 83.4257 266.817 78.9782C266.817 78.9782 266.817 78.9782 266.817 78.9921V78.9782ZM252.473 97.3797C249.276 98.1302 245.968 96.4902 245.037 93.7939C244.105 91.0976 246.149 88.5125 249.415 87.8037C252.668 87.0948 255.92 88.5125 256.81 91.1949C257.685 93.8634 255.698 96.643 252.473 97.3797Z" fill="black"/>
<g opacity="0.2">
<path d="M252.376 94.9753C252.459 95.2116 252.529 95.4478 252.598 95.6841C252.39 95.7258 252.167 95.7814 251.959 95.8231C251.889 95.5868 251.806 95.3505 251.737 95.1143C250.958 95.2393 250.152 95.1976 249.652 95.0031C249.693 94.7668 249.749 94.5305 249.791 94.2804C250.249 94.461 250.903 94.5166 251.514 94.4332C251.375 94.0163 251.25 93.5854 251.111 93.1685C250.194 93.1824 249.179 93.1546 248.901 92.2651C248.693 91.6119 249.096 90.9308 250.305 90.5834C250.235 90.3471 250.152 90.1108 250.082 89.8746C250.291 89.8329 250.513 89.7773 250.722 89.7356C250.791 89.9719 250.875 90.2081 250.944 90.4444C251.528 90.3471 252.167 90.3471 252.654 90.4722C252.612 90.7085 252.571 90.9447 252.543 91.181C252.07 91.0837 251.598 91.0698 251.167 91.1254C251.306 91.5563 251.431 91.9732 251.57 92.4041C252.501 92.3902 253.516 92.3902 253.794 93.2658C254.002 93.9051 253.585 94.6 252.39 94.9753H252.376ZM250.875 92.4041C250.75 92.0288 250.638 91.6536 250.513 91.2783C249.971 91.4729 249.818 91.7509 249.902 92.0288C249.999 92.3346 250.374 92.4041 250.875 92.418V92.4041ZM252.793 93.5576C252.696 93.2519 252.306 93.1824 251.806 93.1685C251.931 93.5437 252.042 93.919 252.167 94.2943C252.723 94.0997 252.89 93.8217 252.807 93.5576H252.793Z" fill="black"/>
</g>
<path d="M121.024 155.086C110.502 144.134 93.4334 145.162 82.9253 134.21C86.2334 128.165 89.5554 122.119 92.8635 116.073C103.386 127.025 120.454 125.996 130.962 136.948C127.654 142.994 124.332 149.04 121.024 155.086Z" fill="#407BFF"/>
<path opacity="0.5" d="M121.024 155.086C110.502 144.134 93.4334 145.162 82.9253 134.21C86.2334 128.165 89.5554 122.119 92.8635 116.073C103.386 127.025 120.454 125.996 130.962 136.948C127.654 142.994 124.332 149.04 121.024 155.086Z" fill="white"/>
<path opacity="0.2" d="M128.28 139.561C127.112 138.449 126.709 136.587 127.446 135.211C117.938 127.845 104.817 127.067 95.3098 119.7C94.5592 121.062 92.9469 121.41 91.7793 120.298L85.5801 131.597C86.7476 132.709 87.1507 134.572 86.4141 135.948C95.9214 143.328 109.043 144.092 118.55 151.458C119.301 150.096 120.913 149.749 122.081 150.861C122.081 150.861 122.081 150.861 122.094 150.874L128.294 139.575C128.294 139.575 128.294 139.575 128.28 139.561ZM104.094 140.256C101.064 139.186 99.8828 135.962 101.412 133.168C102.941 130.388 106.582 129.082 109.626 130.152C112.657 131.222 113.852 134.433 112.309 137.212C110.794 139.992 107.125 141.312 104.094 140.242V140.256Z" fill="black"/>
<g opacity="0.2">
<path d="M105.971 138.102C105.832 138.352 105.693 138.602 105.554 138.852L104.956 138.644C105.095 138.394 105.234 138.144 105.359 137.907C104.664 137.615 104.094 137.143 103.886 136.712C104.122 136.531 104.344 136.337 104.581 136.156C104.789 136.559 105.22 136.948 105.748 137.185C105.998 136.74 106.235 136.295 106.485 135.85C105.776 135.378 105.039 134.822 105.554 133.891C105.929 133.21 106.791 132.807 107.972 133.112C108.111 132.862 108.25 132.612 108.389 132.362C108.584 132.431 108.792 132.501 108.987 132.57C108.848 132.82 108.723 133.071 108.584 133.307C109.112 133.529 109.571 133.863 109.835 134.252C109.612 134.447 109.39 134.627 109.168 134.822C108.904 134.474 108.556 134.21 108.195 134.03C107.944 134.474 107.708 134.933 107.458 135.378C108.167 135.85 108.917 136.406 108.403 137.324C108.028 138.005 107.166 138.394 105.971 138.088V138.102ZM106.944 135.03C107.166 134.627 107.375 134.238 107.597 133.835C107.041 133.724 106.693 133.891 106.527 134.183C106.346 134.502 106.582 134.766 106.944 135.03ZM107.458 137.059C107.639 136.726 107.402 136.462 107.027 136.198C106.805 136.587 106.596 136.99 106.374 137.379C106.944 137.504 107.291 137.351 107.444 137.059H107.458Z" fill="black"/>
</g>
<path d="M464.832 99.3673C454.907 111.348 437.811 104.885 427.886 114.503C424.259 107.929 420.631 101.605 417.003 95.7398C426.927 83.7594 444.024 90.2222 453.948 80.6045C457.576 87.1784 461.204 93.5022 464.832 99.3673Z" fill="#407BFF"/>
<path opacity="0.5" d="M464.832 99.3673C454.907 111.348 437.811 104.885 427.886 114.503C424.259 107.929 420.631 101.605 417.003 95.7398C426.927 83.7594 444.024 90.2222 453.948 80.6045C457.576 87.1784 461.204 93.5022 464.832 99.3673Z" fill="white"/>
<path opacity="0.2" d="M455.227 85.0242C454.129 85.9971 452.489 85.3995 451.669 83.8984C442.565 89.7497 429.499 86.5669 420.395 93.9748C421.215 95.3646 420.895 97.2131 419.797 98.325C422.063 102.119 424.314 106.066 426.58 110.125C427.678 109.138 429.318 109.736 430.138 111.25C439.242 105.385 452.308 108.568 461.412 101.188C460.592 99.7982 460.912 97.9497 462.01 96.8517C462.01 96.8517 462.01 96.8517 462.024 96.8378C459.758 93.0436 457.507 89.0964 455.241 85.0381C455.241 85.0381 455.241 85.0381 455.227 85.052V85.0242ZM443.537 102.995C440.563 103.398 436.852 101.244 435.184 98.1165C433.502 94.9754 434.517 91.9456 437.491 91.5286C440.466 91.1117 444.191 93.2937 445.859 96.4209C447.541 99.5758 446.512 102.578 443.551 102.995H443.537Z" fill="black"/>
<g opacity="0.2">
<path d="M442.689 100.229C442.842 100.507 442.995 100.799 443.134 101.077C442.94 101.105 442.745 101.132 442.55 101.16C442.398 100.882 442.259 100.604 442.106 100.312C441.383 100.368 440.577 100.215 440.035 99.9372C440.007 99.6592 439.979 99.3952 439.951 99.1172C440.452 99.3674 441.105 99.5203 441.675 99.4925C441.411 98.9921 441.147 98.4779 440.869 97.9775C439.965 97.8802 438.978 97.7274 438.422 96.685C438.019 95.9067 438.172 95.1562 439.228 94.8782C439.075 94.5863 438.923 94.3084 438.77 94.0165C438.964 93.9887 439.159 93.9609 439.353 93.9331C439.506 94.2111 439.645 94.489 439.798 94.7809C440.34 94.7392 440.966 94.8226 441.48 95.0311C441.522 95.2951 441.564 95.5731 441.591 95.8372C441.091 95.6565 440.618 95.587 440.229 95.587C440.507 96.1013 440.771 96.6155 441.035 97.1158C441.939 97.2131 442.94 97.3521 443.496 98.4084C443.913 99.1867 443.718 99.9372 442.676 100.215L442.689 100.229ZM440.396 97.0602C440.16 96.6155 439.923 96.1568 439.687 95.7121C439.228 95.865 439.159 96.1707 439.34 96.5043C439.534 96.8657 439.923 96.9907 440.41 97.0602H440.396ZM442.634 98.6308C442.439 98.2555 442.036 98.1304 441.536 98.0609C441.772 98.5057 442.008 98.9643 442.245 99.4091C442.717 99.2562 442.801 98.9643 442.634 98.6308Z" fill="black"/>
</g>
<path d="M404.368 192.889C364.671 269.414 312.033 338.475 248.762 397.028C216.376 372.345 183.989 347.661 151.589 322.978C214.86 264.424 267.498 195.363 307.196 118.839C339.582 143.522 371.968 168.206 404.368 192.889Z" fill="#407BFF"/>
<path opacity="0.2" d="M404.368 192.875C401.102 199.185 397.738 205.439 394.277 211.638C355.928 280.713 306.82 343.283 248.762 397.015C216.376 372.331 183.989 347.648 151.589 322.964C214.86 264.41 267.512 195.349 307.196 118.825C339.582 143.508 371.982 168.192 404.368 192.875Z" fill="white"/>
<path opacity="0.2" d="M322.457 138.602C318.135 146.774 308.53 148.79 301.233 143.216C266.775 204.856 223.742 261.297 173.439 310.845C180.751 316.418 181.348 326.202 174.621 332.54C194.803 347.926 214.999 363.311 235.182 378.697C241.909 372.359 253.154 371.608 260.451 377.168C310.768 327.62 353.801 271.179 388.244 209.539C380.933 203.98 378.695 192.945 383.018 184.773C383.046 184.731 383.06 184.689 383.088 184.647C362.905 169.262 342.709 153.876 322.527 138.491C322.499 138.533 322.485 138.574 322.457 138.616V138.602ZM311.393 285.272C299.954 300.24 277.923 302.659 262.995 291.276C248.053 279.879 245.87 259.032 257.31 244.049C268.777 229.094 289.515 225.703 304.457 237.086C319.386 248.455 322.847 270.303 311.379 285.258L311.393 285.272Z" fill="black"/>
<g opacity="0.2">
<path d="M300.941 272.735L304.958 275.793C304.208 276.78 303.457 277.767 302.706 278.739C301.386 277.725 300.052 276.724 298.731 275.71C295.826 279.059 292.032 281.575 288.96 282.186C288.167 280.741 287.389 279.281 286.597 277.836C289.404 277.183 292.518 275.306 294.853 272.763C292.462 270.942 290.072 269.122 287.695 267.301C283.678 270.553 279.063 273.792 274.087 269.997C270.431 267.204 269.333 262.159 273.086 256.168C271.738 255.14 270.39 254.111 269.042 253.083C269.792 252.096 270.543 251.123 271.293 250.137C272.614 251.151 273.948 252.152 275.269 253.166C277.437 250.609 280.245 248.497 282.955 247.482C283.789 248.9 284.637 250.317 285.471 251.735C282.927 252.819 280.801 254.376 279.147 256.113C281.565 257.947 283.97 259.796 286.388 261.63C290.391 258.364 294.881 254.918 299.857 258.712C303.513 261.491 304.666 266.634 300.955 272.735H300.941ZM283.358 263.993C281.231 262.367 279.105 260.755 276.978 259.129C275.421 261.978 275.88 264.035 277.451 265.23C279.174 266.537 281.148 265.605 283.358 263.993ZM296.716 263.59C294.964 262.256 292.949 263.215 290.697 264.911C292.81 266.523 294.923 268.135 297.035 269.747C298.634 266.815 298.245 264.758 296.716 263.59Z" fill="black"/>
</g>
<path opacity="0.2" d="M394.277 211.638C355.928 280.713 306.82 343.284 248.762 397.015C248.762 397.015 207.591 334.208 190.508 322.533C190.508 322.533 323.139 273.319 394.277 211.638Z" fill="black"/>
<path d="M497.107 295.112C432.473 352.151 358.444 397.557 278.312 429.328C257.018 394.624 235.724 359.906 214.43 325.202C294.561 293.43 368.591 248.024 433.224 190.985C454.518 225.689 475.812 260.407 497.107 295.112Z" fill="#407BFF"/>
<path opacity="0.3" d="M497.12 295.098C432.473 352.137 358.444 397.543 278.312 429.314C269.111 414.318 259.909 399.322 250.694 384.311C238.601 364.604 226.522 344.896 214.43 325.188C294.561 293.416 368.591 248.01 433.224 190.971C454.518 225.689 475.812 260.394 497.12 295.098Z" fill="white"/>
<path opacity="0.2" d="M440.313 214.918C433.335 220.978 423.647 219.393 418.852 211.555C364.476 256.599 303.971 293.708 239.157 321.755C243.966 329.58 240.992 338.933 232.43 342.408C245.704 364.048 258.978 385.674 272.252 407.313C280.814 403.839 291.573 407.174 296.368 415.013C361.182 386.966 421.673 349.857 476.062 304.813C471.253 296.988 473.157 285.883 480.135 279.824C480.177 279.796 480.205 279.768 480.246 279.726C466.972 258.086 453.698 236.461 440.424 214.821C440.382 214.849 440.354 214.876 440.313 214.918ZM377.069 347.717C360.987 357.557 339.582 351.845 329.769 335.862C319.942 319.851 325.432 299.601 341.514 289.775C357.61 279.962 378.181 284.285 387.994 300.31C397.808 316.293 393.151 337.919 377.069 347.731V347.717Z" fill="black"/>
<g opacity="0.2">
<path d="M371.843 332.248C372.719 333.68 373.608 335.111 374.484 336.543C373.428 337.196 372.385 337.835 371.329 338.489C370.453 337.071 369.591 335.653 368.716 334.222C364.796 336.307 360.348 337.266 357.262 336.737C357.054 335.097 356.845 333.457 356.637 331.817C359.486 332.22 363.072 331.595 366.172 330.066C364.601 327.509 363.031 324.952 361.46 322.394C356.54 323.979 351.063 325.341 347.797 320.004C345.392 316.084 346.184 310.984 351.855 306.745C350.966 305.299 350.076 303.854 349.201 302.408C350.257 301.769 351.313 301.116 352.356 300.463C353.232 301.88 354.093 303.298 354.969 304.729C357.916 303.131 361.307 302.172 364.184 302.2C364.462 303.826 364.726 305.452 364.991 307.064C362.238 307.148 359.695 307.843 357.513 308.871C359.097 311.456 360.682 314.041 362.266 316.626C367.173 315.028 372.608 313.43 375.888 318.767C378.293 322.672 377.514 327.898 371.857 332.248H371.843ZM358.597 317.752C357.193 315.473 355.803 313.194 354.399 310.914C351.911 313.013 351.605 315.084 352.634 316.779C353.76 318.628 355.942 318.461 358.583 317.752H358.597ZM371.19 322.2C370.036 320.323 367.812 320.49 365.102 321.269C366.492 323.534 367.882 325.799 369.272 328.065C371.815 325.911 372.204 323.854 371.19 322.2Z" fill="black"/>
</g>
<path opacity="0.2" d="M497.121 295.098C432.473 352.137 358.444 397.543 278.313 429.314C269.111 414.318 259.909 399.322 250.694 384.312L245.829 314.583C245.829 314.583 399.184 325.647 497.121 295.098Z" fill="black"/>
<path d="M515.663 430.051C431.751 449.814 345.059 454.887 259.409 445.047C257.032 404.395 254.655 363.742 252.265 323.089C337.914 332.915 424.606 327.842 508.518 308.093C510.895 348.746 513.272 389.398 515.663 430.051Z" fill="#407BFF"/>
<path opacity="0.4" d="M515.663 430.051C431.751 449.814 345.059 454.887 259.409 445.047C257.032 404.395 254.655 363.742 252.265 323.089C337.914 332.915 424.606 327.842 508.518 308.093C510.895 348.746 513.272 389.398 515.663 430.051Z" fill="white"/>
<path opacity="0.2" d="M503.459 332.554C494.452 334.597 486.654 328.635 486.126 319.462C416.92 333.499 346.059 337.641 275.686 331.762C276.228 340.935 269.194 347.773 260.007 346.786C261.494 372.123 262.967 397.459 264.455 422.796C273.642 423.769 281.551 431.802 282.079 440.961C352.453 446.84 423.314 442.699 492.52 428.661C491.978 419.502 498.886 410.607 507.907 408.564C507.949 408.564 508.004 408.55 508.046 408.536C506.559 383.2 505.085 357.863 503.598 332.526C503.556 332.526 503.501 332.54 503.459 332.554ZM384.992 419.738C366.172 420.809 349.993 405.673 348.895 386.952C347.797 368.189 362.197 352.943 381.017 351.873C399.837 350.816 415.919 364.353 417.017 383.102C418.115 401.837 403.799 418.696 384.992 419.738Z" fill="black"/>
<g opacity="0.2">
<path d="M387.703 403.644L387.995 408.675C386.758 408.745 385.535 408.828 384.297 408.898C384.2 407.23 384.103 405.576 384.006 403.908C379.572 403.894 375.193 402.643 372.719 400.725C373.303 399.183 373.901 397.64 374.484 396.097C376.806 397.793 380.267 398.947 383.714 399.058C383.533 396.056 383.366 393.068 383.185 390.065C378.098 389.134 372.636 387.744 372.274 381.504C372.01 376.918 375.124 372.79 382.115 371.734C382.018 370.038 381.921 368.342 381.823 366.647C383.06 366.577 384.284 366.508 385.521 366.424C385.618 368.092 385.715 369.746 385.813 371.414C389.162 371.386 392.609 372.15 395.125 373.54C394.597 375.097 394.069 376.654 393.541 378.21C391.067 376.987 388.495 376.389 386.09 376.264C386.271 379.294 386.438 382.324 386.619 385.34C391.706 386.257 397.238 387.411 397.613 393.665C397.877 398.252 394.736 402.477 387.689 403.644H387.703ZM382.866 384.617C382.713 381.949 382.546 379.28 382.393 376.612C379.21 377.279 377.959 378.961 378.07 380.948C378.196 383.102 380.197 384.006 382.852 384.617H382.866ZM391.873 394.471C391.748 392.261 389.704 391.372 386.952 390.774C387.105 393.429 387.258 396.083 387.425 398.738C390.691 398.043 391.998 396.417 391.887 394.485L391.873 394.471Z" fill="black"/>
</g>
<path d="M315.98 430.176C316.342 434.318 316.773 438.557 317.273 442.865H24.9639C34.1237 365.604 24.9639 332.109 24.9639 332.109C122.65 324.757 317.273 332.109 317.273 332.109C317.273 332.109 311.408 369.315 315.355 422.629C315.536 425.103 315.744 427.619 315.98 430.176Z" fill="#407BFF"/>
<path opacity="0.2" d="M317.273 332.123C304.485 338.099 241.854 338.933 205.826 336.71C169.798 334.472 122.65 341.296 122.65 341.296C95.3516 331.873 24.9639 332.137 24.9639 332.137C122.65 324.785 317.273 332.137 317.273 332.137V332.123Z" fill="white"/>
<path opacity="0.2" d="M24.9639 442.865C34.1237 365.604 24.9639 332.109 24.9639 332.109C24.9639 332.109 82.9114 330.831 122.65 341.268C122.65 341.268 123.985 353.054 122.65 359.114C122.65 359.114 170.465 351.359 213.068 352.387C213.068 352.387 147.211 359.976 122.65 365.604C122.65 365.604 83.2728 359.447 58.3508 359.114C58.3508 359.114 110.169 365.855 122.65 369.885C122.65 369.885 137.467 367.189 145.223 367.189C145.223 367.189 126.667 370.552 122.65 373.582V394.93C122.65 394.93 81.2852 395.75 60.5469 392.79C70.4018 394.332 110.558 400.531 122.65 400.531C122.65 400.531 168.297 398.849 194.803 400.531C194.803 400.531 134.41 404.006 122.65 406.813H70.8049L122.65 411.163V415.472H144.876L122.65 419.308C122.65 419.308 58.3508 415.208 39.8365 419.308C39.8365 419.308 115.742 422.755 122.581 425.437L122.664 431.83C122.664 431.83 207.786 420.586 283.08 430.246C283.08 430.246 173.148 425.896 122.664 438.126C122.664 438.126 280.578 434.693 317.287 442.852H24.9639V442.865Z" fill="black"/>
<path d="M26.6596 341.282L18.9453 343.979C18.9453 343.979 65.4118 345.577 95.3794 350.163C95.3794 350.163 49.1909 341.949 26.6596 341.282Z" fill="#407BFF"/>
<path opacity="0.2" d="M129.419 350.163L141.165 352.387C141.165 352.387 195.915 346.452 260.632 345.716C260.632 345.716 167.157 341.199 129.419 350.163Z" fill="white"/>
<path opacity="0.2" d="M166.504 362.755C166.504 362.755 199.335 353.804 228.121 354.235C256.907 354.666 311.699 350.163 311.699 350.163L313.854 354.235C313.854 354.235 270.904 356.751 235.446 356.459C199.988 356.167 166.504 362.755 166.504 362.755Z" fill="white"/>
<path opacity="0.2" d="M133.937 376.139C133.937 376.139 173.078 367.8 211.455 368.565C249.832 369.315 298.147 372.331 298.147 372.331C298.147 372.331 193.274 372.359 166.504 377.904L133.923 376.139H133.937Z" fill="white"/>
<path d="M201.642 364.02C201.642 364.02 235.363 361.24 264.441 362.755C293.533 364.27 324.084 365.632 324.084 365.632L313.868 368.523C313.868 368.523 243.841 361.504 201.642 364.02Z" fill="#407BFF"/>
<path opacity="0.2" d="M201.642 364.02C201.642 364.02 235.363 361.24 264.441 362.755C293.533 364.27 324.084 365.632 324.084 365.632L313.868 368.523C313.868 368.523 243.841 361.504 201.642 364.02Z" fill="black"/>
<path opacity="0.2" d="M135.202 383.2C135.202 383.2 193.566 382.477 221.699 381.073C249.846 379.669 287.528 387.466 287.528 387.466C287.528 387.466 241.006 386.48 226.606 388.759L135.188 383.2H135.202Z" fill="black"/>
<path opacity="0.2" d="M129.419 392.039L166.504 388.759L245.551 392.039L165.503 395.319L129.419 392.039Z" fill="white"/>
<path opacity="0.2" d="M157.163 409.468C157.163 409.468 211.108 404.423 232.11 404.172C253.112 403.922 309.684 400.128 309.684 400.128L303.401 408.467C303.401 408.467 197.055 406.188 157.163 409.482V409.468Z" fill="white"/>
<path d="M293.95 381.073L313.854 382.949L319.275 381.073C319.275 381.073 305.987 379.697 293.95 381.073Z" fill="#407BFF"/>
<path d="M316.384 339.031L324.084 340.281L315.814 344.59L267.137 343.561C267.137 343.561 303.638 343.089 316.384 339.031Z" fill="#407BFF"/>
<path opacity="0.2" d="M293.95 381.073L313.854 382.949L319.275 381.073C319.275 381.073 305.987 379.697 293.95 381.073Z" fill="white"/>
<path opacity="0.2" d="M316.384 339.031L324.084 340.281L315.814 344.59L267.137 343.561C267.137 343.561 303.638 343.089 316.384 339.031Z" fill="black"/>
<path opacity="0.2" d="M315.98 430.176C302.915 429.314 211.358 417.82 211.358 417.82C217.446 417.112 297.369 421.837 315.355 422.629C315.536 425.103 315.744 427.619 315.98 430.176Z" fill="black"/>
<path d="M178.124 416.25C178.124 416.25 263.732 416.028 288.223 417.793C312.714 419.558 314.91 416.25 314.91 416.25L327.1 422.143C327.1 422.143 327.726 427.98 295.604 423.894C263.468 419.808 178.124 416.25 178.124 416.25Z" fill="#407BFF"/>
<path d="M108.181 373.207C108.181 373.207 58.0449 365.271 28.814 367.286C28.814 367.286 35.9584 368.759 40.7538 373.207H108.181Z" fill="#407BFF"/>
<path d="M28.7586 394.944C29.8983 394.819 66.2598 399.614 80.1594 400.114L23.5879 402.393L28.7586 394.944Z" fill="#407BFF"/>
<path d="M26.7011 426.396L81.6602 428.342L18.959 432.97L26.7011 426.396Z" fill="#407BFF"/>
<path d="M126.834 328.384C126.834 328.384 204.895 341.727 250.166 288.315L335.454 310.191C335.454 310.191 319.761 342.755 201.892 338.419C84.0234 334.097 126.834 328.371 126.834 328.371V328.384Z" fill="#407BFF"/>
<path opacity="0.5" d="M126.834 328.384C126.834 328.384 204.895 341.727 250.166 288.315L335.454 310.191C335.454 310.191 319.761 342.755 201.892 338.419C84.0234 334.097 126.834 328.371 126.834 328.371V328.384Z" fill="white"/>
<path opacity="0.2" d="M171.396 331.234C171.396 331.234 219.114 328.718 246.093 298.211C246.093 298.211 254.211 301.019 259.937 293.958L322.194 310.456C322.194 310.456 315.494 312.818 317.857 320.56C317.857 320.56 236.113 353.68 171.396 331.248V331.234Z" fill="black"/>
<path d="M242.632 176.433L244.092 168.692C244.092 168.692 241.075 165.829 241.423 163.188C241.77 160.548 255.184 156.184 257.56 156.003C259.937 155.836 259.034 165.482 258.311 167.247C257.588 169.012 249.526 171.138 249.526 171.138L248.526 179.297L242.632 176.42V176.433Z" fill="#FAFAFA"/>
<path d="M87.8318 214.487L82.5082 208.678C82.5082 208.678 83.5507 204.661 81.8688 202.59C80.187 200.519 66.4819 203.911 64.3692 205.023C62.2564 206.134 68.1221 213.862 69.6789 214.974C71.2356 216.086 79.1862 213.64 79.1862 213.64L84.3569 220.047L87.8457 214.487H87.8318Z" fill="#FAFAFA"/>
<path d="M193.705 202.007C208.675 201.187 222.241 204.3 229.205 202.007C236.168 199.713 242.924 170.763 242.924 170.763L250.249 173.223C250.249 173.223 247.524 203.383 235.432 211.444C223.339 219.505 195.498 219.463 195.498 219.463L193.705 202.007Z" fill="#407BFF"/>
<path opacity="0.7" d="M250.249 173.223C250.249 173.223 247.538 203.369 235.432 211.444C228.551 216.03 216.57 217.99 207.521 218.838C200.669 219.463 195.498 219.449 195.498 219.449L194.664 211.305L193.705 202.007C208.675 201.173 222.241 204.3 229.205 202.007C236.168 199.713 242.924 170.749 242.924 170.749L250.249 173.223Z" fill="white"/>
<path opacity="0.2" d="M207.521 218.838C200.669 219.463 195.498 219.449 195.498 219.449L194.664 211.305C197.958 212.583 202.781 214.904 207.521 218.838Z" fill="black"/>
<path d="M289.404 436.153L299.092 433.484L297.355 409.829L287.681 412.498L289.404 436.153Z" fill="#B97964"/>
<path d="M299.676 432.192L288.431 432.97C288.042 432.97 287.722 433.303 287.736 433.693L287.806 442.643C287.875 443.616 288.709 444.353 289.682 444.297C293.602 443.963 295.464 443.602 300.413 443.227C303.457 443.004 309.475 442.865 313.576 441.906C317.676 440.947 316.634 436.917 314.813 436.959C310.49 437.042 304.43 434.652 301.455 432.636C300.927 432.289 300.315 432.136 299.69 432.178L299.676 432.192Z" fill="#263238"/>
<path d="M303.359 433.651C302.456 433.693 301.552 433.637 300.663 433.47C300.566 433.47 300.496 433.401 300.468 433.303C300.454 433.22 300.468 433.123 300.538 433.053C300.844 432.803 303.554 430.677 304.819 431.066C305.111 431.163 305.333 431.399 305.403 431.691C305.597 432.136 305.528 432.65 305.208 433.011C304.694 433.442 304.027 433.665 303.359 433.637V433.651ZM304.68 431.58C304.013 431.371 302.4 432.33 301.288 433.15C303.109 433.373 304.416 433.234 304.861 432.734C305.041 432.497 305.083 432.178 304.972 431.886C304.944 431.733 304.833 431.622 304.68 431.58Z" fill="#263238"/>
<path d="M300.705 433.484C300.705 433.484 300.635 433.512 300.607 433.512C300.538 433.484 300.482 433.415 300.468 433.331C300.468 433.248 300.024 430.343 300.969 429.287C301.219 429.023 301.58 428.87 301.942 428.898C302.359 428.884 302.72 429.148 302.845 429.551C303.151 430.621 301.803 432.831 300.844 433.484C300.802 433.498 300.76 433.498 300.719 433.484H300.705ZM301.803 429.398C301.608 429.398 301.441 429.495 301.316 429.648C300.746 430.273 300.788 431.927 300.885 432.872C301.692 432.08 302.539 430.44 302.386 429.718C302.359 429.579 302.261 429.426 301.928 429.412H301.817L301.803 429.398Z" fill="#263238"/>
<path opacity="0.2" d="M287.681 412.497L297.369 409.843L298.356 423.366L288.612 425.534L287.681 412.497Z" fill="black"/>
<path d="M276.728 435.805L267.568 439.975L265.233 430.149L262.119 416.917L271.237 412.72L274.379 425.951L276.728 435.805Z" fill="#B97964"/>
<path opacity="0.2" d="M274.379 425.951L265.233 430.149L262.119 416.917L271.237 412.72L274.379 425.951Z" fill="black"/>
<path d="M277.103 434.443L266.122 437C265.733 437.07 265.483 437.445 265.553 437.834L267.054 446.66C267.276 447.605 268.221 448.202 269.166 447.994C272.989 447.035 274.754 446.396 279.577 445.228C282.538 444.533 288.459 443.421 292.365 441.837C296.271 440.239 294.589 436.43 292.796 436.764C288.543 437.528 282.19 436.139 278.924 434.624C278.354 434.373 277.715 434.304 277.103 434.457V434.443Z" fill="#263238"/>
<path d="M280.967 435.291C280.078 435.472 279.174 435.555 278.271 435.555C278.173 435.555 278.09 435.513 278.062 435.43C278.034 435.346 278.034 435.249 278.09 435.18C278.354 434.888 280.689 432.358 281.996 432.539C282.302 432.581 282.552 432.789 282.677 433.067C282.941 433.47 282.941 433.998 282.691 434.401C282.246 434.916 281.634 435.235 280.967 435.305V435.291ZM281.94 433.025C281.245 432.928 279.8 434.123 278.841 435.11C280.675 435.041 281.94 434.693 282.302 434.137C282.441 433.873 282.427 433.54 282.274 433.29C282.218 433.151 282.093 433.053 281.94 433.025Z" fill="#263238"/>
<path d="M278.312 435.541C278.312 435.541 278.257 435.583 278.215 435.583C278.146 435.555 278.076 435.499 278.048 435.43C278.034 435.346 277.145 432.553 277.895 431.358C278.104 431.052 278.437 430.857 278.799 430.816C279.202 430.732 279.605 430.941 279.786 431.316C280.258 432.331 279.271 434.721 278.437 435.513C278.396 435.541 278.354 435.541 278.312 435.541ZM278.757 431.344C278.576 431.385 278.41 431.497 278.312 431.663C277.854 432.372 278.159 433.998 278.396 434.916C279.077 433.998 279.647 432.247 279.369 431.566C279.313 431.441 279.202 431.302 278.854 431.33H278.743L278.757 431.344Z" fill="#263238"/>
<path d="M208.856 301.463L205.909 268.774L151.325 270.053C151.325 270.053 144.862 315.598 149.56 323.965C157.942 338.906 212.97 330.414 225.841 331.692C231.095 334.486 259.214 427.675 259.214 427.675L274.963 421.323C274.963 421.323 258.033 342.672 254.169 327.856C248.804 307.259 226.953 307.62 208.87 301.449L208.856 301.463Z" fill="#263238"/>
<path d="M299.314 419.725L285.429 421.003C285.429 421.003 268.402 334.277 267.081 333.916C264.704 333.235 257.796 332.457 254.099 331.498C228.329 324.799 164.863 312.457 164.863 312.457L188.27 289.914C188.27 289.914 294.38 302.645 296.743 327.551C297.869 339.531 299.328 419.711 299.328 419.711L299.314 419.725Z" fill="#263238"/>
<path opacity="0.2" d="M263.315 333.986C260.938 333.305 257.783 332.471 254.085 331.512C255.114 332.054 252.126 318.545 249.151 315.056C243.244 308.093 219.545 304.34 211.038 302.964C203.922 301.825 180.07 299.726 180.07 299.726C180.07 299.726 222.186 296.085 253.932 304.799C269.625 309.108 266.831 324.424 263.315 333.986Z" fill="black"/>
<path d="M144.028 209.943C144.028 209.943 164.169 199.255 193.705 202.007C193.705 202.007 203.949 228.052 205.895 268.774L150.964 272.583C150.964 272.583 151.951 237.67 144.014 209.943H144.028Z" fill="#407BFF"/>
<path opacity="0.7" d="M150.978 272.583C150.978 272.583 151.326 260.102 149.922 244.146C149.435 238.643 148.74 232.736 147.74 226.774C146.794 221.103 145.585 215.377 144.028 209.943C144.028 209.943 164.169 199.255 193.706 202.007C193.706 202.007 203.95 228.052 205.896 268.774L150.978 272.583Z" fill="white"/>
<path opacity="0.2" d="M149.921 244.146C149.435 238.643 148.74 232.736 147.739 226.773C148.823 225.717 149.991 224.939 151.186 224.508L151.256 223.896C151.256 224.564 154.161 234.835 149.921 244.146Z" fill="black"/>
<path d="M159.248 206.162C164.28 210.735 176.595 209.039 176.595 209.039C176.595 209.039 184.281 206.94 182.669 204.536C178.138 203.786 175.942 201.673 175.038 198.977C174.51 197.406 174.44 195.627 174.579 193.806C174.649 192.848 174.788 191.875 174.955 190.916L159.735 179.644C161.736 187.08 164.169 200.77 159.248 206.176V206.162Z" fill="#FAFAFA"/>
<path opacity="0.2" d="M163.251 186.802C163.849 195.933 171.368 198.462 175.038 198.963C174.51 197.392 174.44 195.613 174.579 193.793L163.251 186.802Z" fill="black"/>
<path d="M172.898 148.317C178.569 149.832 183.267 162.897 179.027 171.528C174.788 180.158 162.014 156.031 162.014 156.031C162.014 156.031 169.256 147.344 172.898 148.317Z" fill="#263238"/>
<path d="M184.657 178.185C184.698 178.713 184.712 179.241 184.698 179.769C184.657 181.673 184.254 183.494 183.545 185.148C182.822 186.913 181.752 188.484 180.445 189.818C178.082 192.222 174.927 193.765 171.508 193.959C169.242 194.085 166.865 193.626 164.516 192.417C157.761 188.97 155.94 183.021 152.062 173.223C151.2 171.124 150.811 168.859 151.006 166.607C151.603 158.658 158.525 152.709 166.462 153.307C177.582 154.071 183.851 168.484 184.657 178.199V178.185Z" fill="#FAFAFA"/>
<path d="M168.199 171.013C168.408 171.833 169.103 172.347 169.645 172.167C170.187 171.986 170.382 171.18 170.131 170.374C169.867 169.554 169.214 169.04 168.686 169.22C168.158 169.401 167.935 170.193 168.199 171.013Z" fill="#263238"/>
<path d="M177.415 167.983C177.623 168.803 178.332 169.318 178.86 169.137C179.389 168.956 179.597 168.15 179.347 167.344C179.083 166.524 178.43 166.01 177.901 166.19C177.373 166.371 177.165 167.219 177.415 167.983Z" fill="#263238"/>
<path d="M174.621 169.345C176.414 171.514 178.499 173.432 180.807 175.044C179.945 176.225 178.597 176.962 177.123 177.059L174.607 169.345H174.621Z" fill="white"/>
<path d="M179.542 162.924C179.417 163.063 179.222 163.119 179.041 163.077C177.804 162.744 176.484 163.008 175.469 163.8C175.275 163.994 174.955 163.981 174.76 163.772C174.566 163.564 174.58 163.258 174.788 163.063C176.039 162.035 177.707 161.673 179.278 162.09C179.542 162.146 179.722 162.41 179.667 162.688C179.639 162.771 179.597 162.841 179.556 162.91L179.542 162.924Z" fill="#263238"/>
<path d="M165.155 167.928C165.058 167.956 164.947 167.956 164.863 167.928C164.627 167.789 164.544 167.483 164.683 167.247C165.503 165.843 166.948 164.912 168.561 164.773C168.839 164.773 169.075 164.981 169.075 165.259C169.075 165.537 168.866 165.76 168.588 165.774C167.31 165.927 166.184 166.677 165.544 167.789C165.447 167.9 165.294 167.956 165.141 167.956L165.155 167.928Z" fill="#263238"/>
<path d="M155.314 158.31L157.511 162.452C156.371 163.758 156.134 165.69 157.441 167.149C160.235 170.263 160.332 176.712 158.4 180.047C158.4 180.047 157.705 178.504 156.524 179.38C155.328 180.269 158.859 188.358 162.959 191.291C162.959 191.291 157.663 189.248 152.131 181.451C147.016 174.238 144.209 167.678 144.667 163.953L155.328 158.31H155.314Z" fill="#263238"/>
<path d="M150.394 182.869C152.257 184.773 154.786 185.857 157.441 185.884C160.958 185.912 161.792 182.535 160.054 179.686C158.484 177.17 154.745 174.043 151.589 175.419C148.434 176.795 148.156 180.506 150.408 182.869H150.394Z" fill="#FAFAFA"/>
<path d="M178.207 180.547C177.429 182.035 176.595 184.87 176.595 184.87C176.331 184.842 176.053 184.814 175.789 184.773C172.133 184.286 170.604 182.855 170.007 181.409C169.687 180.617 169.659 179.825 169.715 179.185C169.77 178.449 169.993 177.935 169.993 177.935C171.772 179.352 175.149 180.061 176.956 180.381C177.721 180.52 178.193 180.561 178.193 180.561L178.207 180.547Z" fill="#263238"/>
<path d="M176.97 180.367L176.47 181.632C173.037 181.159 170.674 180.367 169.743 179.185C169.798 178.449 170.021 177.935 170.021 177.935C171.8 179.352 175.177 180.061 176.984 180.381L176.97 180.367Z" fill="white"/>
<path d="M175.789 184.773C172.133 184.286 170.605 182.855 170.007 181.409C171.244 181.618 172.717 182.021 173.954 182.757C174.9 183.313 175.455 184.05 175.789 184.773Z" fill="#DE5753"/>
<path d="M164.613 159.033C164.613 159.033 163.64 152.389 167.838 153.668C172.036 154.947 172.328 152.431 171.077 147.303C169.826 142.174 157.789 140.34 150.978 148.762C144.167 157.198 141.804 164.217 145.084 167.942C148.365 171.666 160.944 160.673 160.944 160.673C160.944 160.673 161.472 157.518 163.265 155.53C163.265 155.53 163.265 157.379 164.627 159.033H164.613Z" fill="#263238"/>
<path d="M171.104 208.511L177.707 214.376C177.707 214.376 181.362 239.115 190.342 249.928H195.846L196.944 246.092C196.944 246.092 184.323 233.111 179.458 213.459V205.579L171.104 208.511Z" fill="#263238"/>
<path d="M160.93 200.811L174.621 205.954L175.789 198.977L182.891 201.562L184.698 210.346L175.038 207.969L170.243 214.376L156.288 205.356L160.93 200.811Z" fill="#407BFF"/>
<path opacity="0.5" d="M160.93 200.811L174.621 205.954L175.789 198.977L182.891 201.562L184.698 210.346L175.038 207.969L170.243 214.376L156.288 205.356L160.93 200.811Z" fill="white"/>
<path d="M150.199 271.679L206.534 266.314L206.66 273.152L150.227 277.767L150.199 271.679Z" fill="black"/>
<path d="M194.609 267.718C194.094 267.26 193.399 267.037 192.704 267.107L187.728 267.621C186.436 267.76 185.477 268.83 185.504 270.137L185.56 273.319C185.56 274.014 185.88 274.667 186.394 275.126C186.853 275.543 187.464 275.765 188.076 275.752C188.145 275.752 188.215 275.752 188.298 275.752L193.274 275.223C194.567 275.084 195.512 274.014 195.498 272.722L195.443 269.539C195.443 268.844 195.123 268.191 194.609 267.732V267.718ZM193.149 273.945L188.173 274.473C187.826 274.515 187.506 274.403 187.256 274.181C187.006 273.959 186.853 273.639 186.853 273.305L186.797 270.123C186.797 269.497 187.256 268.969 187.867 268.914L192.844 268.399C192.844 268.399 192.913 268.399 192.955 268.399C193.26 268.399 193.538 268.497 193.775 268.705C194.025 268.927 194.178 269.247 194.178 269.581V270.067C194.178 270.067 194.053 270.039 193.983 270.039L192.593 270.164C192.135 270.206 191.787 270.623 191.829 271.082C191.871 271.54 192.288 271.888 192.746 271.846L194.136 271.721C194.136 271.721 194.178 271.707 194.206 271.707V272.749C194.233 273.375 193.775 273.903 193.149 273.959V273.945Z" fill="white"/>
<path d="M144.028 209.943C134.632 215.474 121.066 233.806 116.298 233.445C111.531 233.083 85.8163 210.221 85.8163 210.221L79.9507 216.572C79.9507 216.572 103.705 244.939 114.769 247.079C125.833 249.219 150.199 228.719 150.199 228.719C150.199 228.719 152.576 223.229 150.199 217.712C147.823 212.194 144.028 209.957 144.028 209.957V209.943Z" fill="#407BFF"/>
<path opacity="0.7" d="M144.028 209.943C134.632 215.474 121.066 233.806 116.298 233.445C111.531 233.083 85.8163 210.221 85.8163 210.221L79.9507 216.572C79.9507 216.572 103.705 244.939 114.769 247.079C125.833 249.219 150.199 228.719 150.199 228.719C150.199 228.719 152.576 223.229 150.199 217.712C147.823 212.194 144.028 209.957 144.028 209.957V209.943Z" fill="white"/>
<path d="M230.039 339.142C230.039 339.142 43.4781 340.434 31.9136 314.236L114.978 308.204C114.978 308.204 136.161 317.474 165.517 326.036C184.726 331.637 207.438 336.946 230.025 339.142H230.039Z" fill="#407BFF"/>
<path opacity="0.2" d="M230.039 339.142C230.039 339.142 224.174 339.184 214.458 339.1C174.552 336.307 127.96 316.488 127.96 316.488C111.128 320.185 99.5772 313.569 99.5772 313.569L54.2366 316.154C55.2235 319.629 52.7077 322.575 52.7077 322.575C76.212 329.177 101.551 333.193 122.22 335.626C78.6027 332.373 37.1818 326.147 31.9277 314.236L114.992 308.204C114.992 308.204 172.967 333.583 230.039 339.142Z" fill="white"/>
<path opacity="0.2" d="M230.039 339.142C230.039 339.142 43.4781 340.435 31.9136 314.236C31.9136 314.236 94.9345 341.463 165.531 326.036C184.74 331.637 207.452 336.946 230.039 339.142Z" fill="black"/>
</svg>
